<?xml version="1.0" encoding="UTF-8"?>
<!DOCTYPE svg  PUBLIC '-//W3C//DTD SVG 1.1//EN'  'http://www.w3.org/Graphics/SVG/1.1/DTD/svg11.dtd'>
<svg version="1.1" xmlns="http://www.w3.org/2000/svg">
<defs>
<font id="CartographCF-DemiBoldItalic" horiz-adv-x="1230" vert-adv-y="2000">
<font-face font-family="Cartograph CF Demi Bold" font-style="italic" font-weight="600" ascent="1600" bbox="-903.133 -704 4805 2000" cap-height="1340" descent="-400" panose-1="0 0 7 9 0 0 0 0 0 0" slope="-8" underline-position="-100" underline-thickness="50" unicode-range="U+0020-FFFD" units-per-em="2000" x-height="989"/>
<missing-glyph d="M184 1600h628v-1980h-628v1980zM659 1402v65h-326v-65h128v-73h-130v-66h328v66h-130v73h130zM529 1073v139h-198v-206h328v67h-130zM396 1145h65v-72h-65v72zM659 887v66h-328v-66h130v-73h-130v-65h198v138h130zM659 636v198h-65v-131h-263v-67h328zM659 368v224h-198 v-111h68v46h65v-93h-198v158h-65v-224h328zM659 26v224h-328v-224h328zM396 184h198v-93h-198v93zM659 -85v65h-328v-65h138l-138 -93v-65h328v65h-202l139 93h63z" horiz-adv-x="990" vert-adv-y="1980"/>
<glyph d="M300 0q-13 0 -22 6t-10 18l-101 932q-3 34 29 34h135q13 0 22 -6t10 -18l71 -715l272 715q4 11 15.5 17.5t24.5 6.5h115q13 0 22 -6t10 -18l72 -715l270 715q4 11 15.5 17.5t24.5 6.5h168q13 0 22 -6t10 -18l71 -715l272 715q4 11 15.5 17.5t24.5 6.5h114q13 0 22 -6 t10 -18l73 -715l270 715q4 11 15.5 17.5t24.5 6.5h168q13 0 22 -6t10 -18l70 -715l273 715q4 11 15.5 17.5t24.5 6.5h114q13 0 22 -6t10 -18l72 -715l271 715q4 11 15.5 17.5t24.5 6.5h135q23 0 23 -17q0 -5 -4 -17l-363 -932q-4 -11 -15.5 -17.5t-24.5 -6.5h-167 q-13 0 -22 6t-10 18l-68 661l-253 -661q-4 -11 -15.5 -17.5t-24.5 -6.5h-167q-13 0 -22 6t-10 18l-57 701l-256 -701q-4 -11 -15.5 -17.5t-24.5 -6.5h-166q-13 0 -22 6t-10 18l-69 661l-253 -661q-4 -11 -15.5 -17.5t-24.5 -6.5h-166q-13 0 -22 6.5t-10 17.5l-58 701 l-255 -701q-4 -11 -15.5 -17.5t-24.5 -6.5h-167q-13 0 -22 6t-10 18l-68 661l-253 -661q-4 -11 -15.5 -17.5t-24.5 -6.5h-167z" glyph-name="w_w_w.liga" horiz-adv-x="3690" unicode="www" vert-adv-y="1980"/>
<glyph d="M2940 1103l137 121l486 -565l-645 -565l-103 122l417 356h-3071l24 174h3072z" glyph-name="hyphen_hyphen_greater.liga" horiz-adv-x="3690" unicode="--&gt;" vert-adv-y="1980"/>
<glyph d="M1710 1103l137 121l486 -565l-645 -565l-103 122l417 356h-1841l24 174h1842z" glyph-name="hyphen_greater.liga" horiz-adv-x="2460" unicode="-&gt;" vert-adv-y="1980"/>
<glyph d="M2313 1114l138 122l485 -565l-644 -565l-104 121l418 357h-2444l25 174h2443zM2941 1114l138 122l486 -565l-645 -565l-104 121l520 444z" glyph-name="hyphen_greater_greater.liga" horiz-adv-x="3690" unicode="-&gt;&gt;" vert-adv-y="1980"/>
<glyph d="M2940 1103l137 121l486 -565l-645 -565l-103 122l417 356h-3071l24 174h3072z" glyph-name="endash_endash_greater.liga" horiz-adv-x="3690" unicode="––&gt;" vert-adv-y="1980"/>
<glyph d="M1710 1103l137 121l486 -565l-645 -565l-103 122l417 356h-1841l24 174h1842z" glyph-name="endash_greater.liga" horiz-adv-x="2460" unicode="–&gt;" vert-adv-y="1980"/>
<glyph d="M2313 1114l138 122l485 -565l-644 -565l-104 121l418 357h-2444l25 174h2443zM2941 1114l138 122l486 -565l-645 -565l-104 121l520 444z" glyph-name="endash_greater_greater.liga" horiz-adv-x="3690" unicode="–&gt;&gt;" vert-adv-y="1980"/>
<glyph d="M560 480.5q-47 27.5 -74.5 74.5t-27.5 104q0 56 27.5 103.5t74.5 75t104 27.5q56 0 103.5 -27.5t75 -75t27.5 -103.5q0 -57 -27.5 -104t-75 -74.5t-103.5 -27.5q-57 0 -104 27.5zM2231 750q32 0 28 -32l-17 -122q-4 -28 -32 -28h-939q-32 0 -28 32l17 122q4 28 32 28h939 z" glyph-name="period_hyphen.liga" horiz-adv-x="2460" unicode=".-" vert-adv-y="1980"/>
<glyph d="M560 480.5q-47 27.5 -74.5 74.5t-27.5 104q0 56 27.5 103.5t74.5 75t104 27.5q56 0 103.5 -27.5t75 -75t27.5 -103.5q0 -57 -27.5 -104t-75 -74.5t-103.5 -27.5q-57 0 -104 27.5zM2231 750q32 0 28 -32l-17 -122q-4 -28 -32 -28h-939q-32 0 -28 32l17 122q4 28 32 28h939 z" glyph-name="period_endash.liga" horiz-adv-x="2460" unicode=".–" vert-adv-y="1980"/>
<glyph d="M1333 792q-13 0 -20.5 8t-5.5 22l15 110q2 14 12 22t23 8h906q14 0 20.5 -8t4.5 -22l-15 -110q-1 -13 -10.5 -21.5t-23.5 -8.5h-906zM560 480.5q-47 27.5 -74.5 74.5t-27.5 104q0 56 27.5 103.5t74.5 75t104 27.5q56 0 103.5 -27.5t75 -75t27.5 -103.5q0 -57 -27.5 -104 t-75 -74.5t-103.5 -27.5q-57 0 -104 27.5zM1272 356q-14 0 -21 8.5t-5 21.5l15 109q1 13 10.5 21.5t23.5 8.5h906q13 0 20.5 -8t5.5 -22l-15 -109q-2 -14 -11.5 -22t-22.5 -8h-906z" glyph-name="period_equal.liga" horiz-adv-x="2460" unicode=".=" vert-adv-y="1980"/>
<glyph d="M1527 -1q-43 25 -68 68t-25 94t25 93.5t68 67.5t94 25t94 -25t68 -67.5t25 -93.5t-25 -94t-68 -68t-94 -25t-94 25zM1620 664q-43 25 -68 68t-25 94t25 93.5t68 67.5t94 25t94 -25t68 -67.5t25 -93.5t-25 -94t-68 -68t-94 -25t-94 25zM651 -1q-43 25 -68 68t-25 94 t25 93.5t68 67.5t94 25t94 -25t68 -67.5t25 -93.5t-25 -94t-68 -68t-94 -25t-94 25zM744 664q-43 25 -68 68t-25 94t25 93.5t68 67.5t94 25t94 -25t68 -67.5t25 -93.5t-25 -94t-68 -68t-94 -25t-94 25z" glyph-name="colon_colon.liga" horiz-adv-x="2460" unicode="::" vert-adv-y="1980"/>
<glyph d="M1704 -1q-43 25 -68 68t-25 94t25 93.5t68 67.5t94 25t94 -25t68 -67.5t25 -93.5t-25 -94t-68 -68t-94 -25t-94 25zM1797 664q-43 25 -68 68t-25 94t25 93.5t68 67.5t94 25t94 -25t68 -67.5t25 -93.5t-25 -94t-68 -68t-94 -25t-94 25zM2727 -1q-43 25 -68 68t-25 94 t25 93.5t68 67.5t94 25t94 -25t68 -67.5t25 -93.5t-25 -94t-68 -68t-94 -25t-94 25zM2820 664q-43 25 -68 68t-25 94t25 93.5t68 67.5t94 25t94 -25t68 -67.5t25 -93.5t-25 -94t-68 -68t-94 -25t-94 25zM681 -1q-43 25 -68 68t-25 94t25 93.5t68 67.5t94 25t94 -25t68 -67.5 t25 -93.5t-25 -94t-68 -68t-94 -25t-94 25zM774 664q-43 25 -68 68t-25 94t25 93.5t68 67.5t94 25t94 -25t68 -67.5t25 -93.5t-25 -94t-68 -68t-94 -25t-94 25z" glyph-name="colon_colon_colon.liga" horiz-adv-x="3690" unicode=":::" vert-adv-y="1980"/>
<glyph d="M1808 188q13 0 20 -8.5t5 -21.5l-10 -72q-19 -134 -45 -254t-52 -199q-8 -23 -38 -23h-119q-25 0 -25 21q0 7 1 11q44 208 63 358h-251q-13 0 -20.5 8t-5.5 22l19 128q1 13 10.5 21.5t23.5 8.5h424zM1619 664q-43 25 -68 68t-25 94t25 93.5t68 67.5t94 25t94 -25 t68 -67.5t25 -93.5t-25 -94t-68 -68t-94 -25t-94 25zM932 188q13 0 20 -8.5t5 -21.5l-10 -72q-19 -134 -45 -254t-52 -199q-8 -23 -38 -23h-119q-25 0 -25 21q0 7 1 11q44 208 63 358h-251q-13 0 -20.5 8t-5.5 22l19 128q1 13 10.5 21.5t23.5 8.5h424zM743 664 q-43 25 -68 68t-25 94t25 93.5t68 67.5t94 25t94 -25t68 -67.5t25 -93.5t-25 -94t-68 -68t-94 -25t-94 25z" glyph-name="semicolon_semicolon.liga" horiz-adv-x="2460" unicode=";;" vert-adv-y="1980"/>
<glyph d="M2364 962q14 0 20.5 -8t4.5 -22l-15 -110q-2 -14 -11.5 -22t-22.5 -8h-919l-156 -267h1037q13 0 20.5 -8t5.5 -22l-16 -109q-1 -13 -10.5 -21.5t-23.5 -8.5h-1111l-289 -497q-6 -13 -16.5 -18t-26.5 -5h-153q-13 0 -19.5 5t-6.5 13q0 7 6 18l281 484h-800q-14 0 -21 8.5 t-5 21.5l15 109q1 13 10.5 21.5t23.5 8.5h875l155 267h-992q-13 0 -20.5 8t-5.5 22l16 110q1 13 10.5 21.5t23.5 8.5h1067l309 532q14 22 43 22h155q25 0 25 -17q0 -8 -6 -19l-301 -518h844z" glyph-name="exclam_equal.liga" horiz-adv-x="2460" unicode="!=" vert-adv-y="1980"/>
<glyph d="M3624 1177q14 0 21 -8.5t5 -21.5l-16 -110q-2 -14 -11.5 -22t-22.5 -8h-1434l-146 -251h1545q14 0 21 -8.5t5 -21.5l-16 -109q-2 -14 -11.5 -22t-22.5 -8h-1619l-147 -252h1731q14 0 21 -8.5t5 -21.5l-16 -109q-2 -14 -11.5 -22t-22.5 -8h-1805l-184 -316 q-12 -23 -43 -23h-153q-13 0 -19.5 5t-6.5 13q0 7 6 18l176 303h-1337q-14 0 -21 8.5t-5 21.5l16 109q2 14 11.5 22t22.5 8h1411l146 252h-1522q-14 0 -21 8.5t-5 21.5l16 109q2 14 11.5 22t22.5 8h1597l145 251h-1707q-14 0 -21 8.5t-5 21.5l16 110q2 14 11.5 22t22.5 8 h1782l179 308q14 22 43 22h155q25 0 25 -17q0 -8 -6 -19l-171 -294h1359z" glyph-name="exclam_equal_equal.liga" horiz-adv-x="3690" unicode="!==" vert-adv-y="1980"/>
<glyph d="M1415 993q2 -22 -9 -37t-34 -20l-325 -80l171 -261q9 -13 9 -27q0 -23 -29 -41l-116 -71q-16 -10 -30 -10q-21 0 -32 23l-144 265l-219 -265q-18 -23 -39 -23q-14 0 -27 10l-97 71q-18 14 -18 32q0 19 16 36l232 261l-289 80q-31 7 -31 34q0 8 5 23l47 119q7 18 19.5 28 t28.5 10q9 0 18 -3l288 -92l44 327q3 21 18.5 34.5t36.5 13.5h123q22 0 33.5 -13.5t7.5 -34.5l-56 -327l329 92q9 3 18 3q15 0 25.5 -10t11.5 -28zM1240 -260q-13 0 -19.5 5t-6.5 13q0 7 6 18l942 1622q14 22 43 22h155q25 0 25 -17q0 -8 -6 -19l-943 -1621 q-6 -13 -16.5 -18t-26.5 -5h-153z" glyph-name="asterisk_slash.liga" horiz-adv-x="2460" unicode="*/" vert-adv-y="1980"/>
<glyph d="M64 -260q-13 0 -19.5 5t-6.5 13q0 7 6 18l942 1622q14 22 43 22h155q25 0 25 -17q0 -8 -6 -19l-943 -1621q-6 -13 -16.5 -18t-26.5 -5h-153zM2361 993q2 -22 -9 -37t-34 -20l-325 -80l171 -261q9 -13 9 -27q0 -23 -29 -41l-116 -71q-16 -10 -30 -10q-21 0 -32 23 l-144 265l-219 -265q-18 -23 -39 -23q-14 0 -27 10l-97 71q-18 14 -18 32q0 19 16 36l232 261l-289 80q-31 7 -31 34q0 8 5 23l47 119q7 18 19.5 28t28.5 10q9 0 18 -3l288 -92l44 327q3 21 18.5 34.5t36.5 13.5h123q22 0 33.5 -13.5t7.5 -34.5l-56 -327l329 92q9 3 18 3 q15 0 25.5 -10t11.5 -28z" glyph-name="slash_asterisk.liga" horiz-adv-x="2460" unicode="/*" vert-adv-y="1980"/>
<glyph d="M2178 610q21 -13 18 -35l-18 -127q-3 -22 -27 -35l-770 -425q-7 -5 -17 -5q-16 0 -22 16l-48 117q-2 8 -2 12q0 19 20 30l667 359l-835 537l-750 -1292q-12 -22 -43 -22h-155q-25 0 -25 17q0 8 6 19l943 1621q7 13 17.5 18t25.5 5h154q25 0 25 -17q0 -8 -6 -19l-98 -168z " glyph-name="slash_greater.liga" horiz-adv-x="2460" unicode="/&gt;" vert-adv-y="1980"/>
<glyph d="M1178 -260q-13 0 -19.5 5t-6.5 13q0 7 6 18l942 1622q14 22 43 22h155q25 0 25 -17q0 -8 -6 -19l-943 -1621q-6 -13 -16.5 -18t-26.5 -5h-153zM186 -260q-13 0 -19.5 5t-6.5 13q0 7 6 18l942 1622q14 22 43 22h155q25 0 25 -17q0 -8 -6 -19l-943 -1621q-6 -13 -16.5 -18 t-26.5 -5h-153z" glyph-name="slash_slash.liga" horiz-adv-x="2460" unicode="//" vert-adv-y="1980"/>
<glyph d="M2365 -182h-2460l25 182h2460z" glyph-name="underscore_underscore.liga" horiz-adv-x="2460" unicode="__" vert-adv-y="1980"/>
<glyph d="M204 792q-13 0 -20.5 8t-5.5 22l16 110q1 13 10.5 21.5t23.5 8.5h2136q14 0 20.5 -8t4.5 -22l-15 -110q-2 -14 -11.5 -22t-22.5 -8h-2136zM143 356q-14 0 -21 8.5t-5 21.5l15 109q1 13 10.5 21.5t23.5 8.5h2136q13 0 20.5 -8t5.5 -22l-16 -109q-1 -13 -10.5 -21.5 t-23.5 -8.5h-2135z" glyph-name="equal_equal.liga" horiz-adv-x="2460" unicode="==" vert-adv-y="1980"/>
<glyph d="M234 1007q-14 0 -21 8.5t-5 21.5l16 110q2 14 11.5 22t22.5 8h3366q14 0 21 -8.5t5 -21.5l-16 -110q-2 -14 -11.5 -22t-22.5 -8h-3366zM175 587q-14 0 -21 8.5t-5 21.5l16 109q2 14 11.5 22t22.5 8h3366q14 0 21 -8.5t5 -21.5l-16 -109q-2 -14 -11.5 -22t-22.5 -8h-3366z M116 166q-14 0 -21 8.5t-5 21.5l16 109q2 14 11.5 22t22.5 8h3366q14 0 21 -8.5t5 -21.5l-16 -109q-2 -14 -11.5 -22t-22.5 -8h-3366z" glyph-name="equal_equal_equal.liga" horiz-adv-x="3690" unicode="===" vert-adv-y="1980"/>
<glyph d="M3077 1224l486 -565l-645 -565l-103 122l164 140h-2836q-14 0 -21 8.5t-5 21.5l15 109q1 13 10.5 21.5t23.5 8.5h3011l157 134l-118 133h-3012q-14 0 -21 8.5t-5 21.5l16 110q1 13 10.5 21.5t23.5 8.5h2837l-125 141z" glyph-name="equal_equal_greater.liga" horiz-adv-x="3690" unicode="==&gt;" vert-adv-y="1980"/>
<glyph d="M1847 1224l486 -565l-645 -565l-103 122l164 140h-1606q-14 0 -21 8.5t-5 21.5l15 109q1 13 10.5 21.5t23.5 8.5h1781l157 134l-118 133h-1782q-14 0 -21 8.5t-5 21.5l16 110q1 13 10.5 21.5t23.5 8.5h1607l-125 141z" glyph-name="equal_greater.liga" horiz-adv-x="2460" unicode="=&gt;" vert-adv-y="1980"/>
<glyph d="M2449 1224l486 -565l-645 -565l-103 122l164 140h-2208q-14 0 -21 8.5t-5 21.5l15 109q1 13 10.5 21.5t23.5 8.5h2383l157 134l-118 133h-2384q-14 0 -21 8.5t-5 21.5l16 110q1 13 10.5 21.5t23.5 8.5h2209l-125 141zM2940 1103l137 121l486 -565l-645 -565l-103 122 l519 443z" glyph-name="equal_greater_greater.liga" horiz-adv-x="3690" unicode="=&gt;&gt;" vert-adv-y="1980"/>
<glyph d="M3624 1177q14 0 21 -8.5t5 -21.5l-16 -110q-2 -14 -11.5 -22t-22.5 -8h-1423l-146 -251h1534q14 0 21 -8.5t5 -21.5l-16 -109q-2 -14 -11.5 -22t-22.5 -8h-1608l-147 -252h1720q14 0 21 -8.5t5 -21.5l-16 -109q-2 -14 -11.5 -22t-22.5 -8h-1794l-183 -314 q-6 -13 -16.5 -18t-26.5 -5h-153q-13 0 -19.5 5t-6.5 13q0 7 6 18l175 301h-1348q-14 0 -21 8.5t-5 21.5l16 109q2 14 11.5 22t22.5 8h1422l147 252h-1534q-14 0 -21 8.5t-5 21.5l16 109q2 14 11.5 22t22.5 8h1608l146 251h-1719q-14 0 -21 8.5t-5 21.5l16 110q2 14 11.5 22 t22.5 8h1793l180 309q14 23 43 23h155q12 0 18.5 -5t6.5 -13q0 -7 -6 -18l-172 -296h1348z" glyph-name="equal_slash_equal.liga" horiz-adv-x="3690" unicode="=/=" vert-adv-y="1980"/>
<glyph d="M2938 1094l138 122l486 -565l-645 -565l-104 121l418 357h-2473l-546 -478l-103 121l519 444l-394 443l137 122l411 -478h2473z" glyph-name="greater_hyphen_greater.liga" horiz-adv-x="3690" unicode="&gt;-&gt;" vert-adv-y="1980"/>
<glyph d="M2938 1094l138 122l486 -565l-645 -565l-104 121l418 357h-2473l-546 -478l-103 121l519 444l-394 443l137 122l411 -478h2473z" glyph-name="greater_endash_greater.liga" horiz-adv-x="3690" unicode="&gt;–&gt;" vert-adv-y="1980"/>
<glyph d="M1083 983q20 -12 17 -35l-18 -127q-3 -22 -27 -35l-766 -425q-9 -5 -18 -5q-15 0 -21 15l-53 115q-3 6 -3 13q0 18 20 29l672 361l-566 361q-13 7 -13 21q0 9 7 19l77 107q12 16 26 16q10 0 16 -5zM228 -74q-9 -5 -18 -5q-15 0 -21 15l-50 112q-3 8 -3 13q0 17 20 28 l771 423q9 5 19 5q15 0 21 -15l50 -112q3 -6 3 -13q0 -17 -20 -28z" glyph-name="greater_equal.liga" unicode="&gt;=" vert-adv-y="1980"/>
<glyph d="M2940 1103l137 121l486 -565l-645 -565l-103 122l164 140h-2466l-299 -262l-103 122l518 443l-393 444l137 121l225 -262h2467zM705 525h2472l157 134l-118 133h-2472l114 -133z" glyph-name="greater_equal_greater.liga" horiz-adv-x="3690" unicode="&gt;=&gt;" vert-adv-y="1980"/>
<glyph d="M506 758h1841l-25 -174h-1841l316 -357l-137 -121l-485 565l644 565l103 -122z" glyph-name="less_hyphen.liga" horiz-adv-x="2460" unicode="&lt;-" vert-adv-y="1980"/>
<glyph d="M503 738h3071l-25 -174h-3071l316 -357l-137 -121l-485 565l644 565l103 -122z" glyph-name="less_hyphen_hyphen.liga" horiz-adv-x="3690" unicode="&lt;--" vert-adv-y="1980"/>
<glyph d="M2940 1103l137 121l486 -565l-645 -565l-103 122l417 356h-2753l317 -356l-138 -122l-485 565l644 565l104 -121l-417 -357h2753z" glyph-name="less_hyphen_greater.liga" horiz-adv-x="3690" unicode="&lt;-&gt;" vert-adv-y="1980"/>
<glyph d="M3522 1224l104 -121l-520 -444l395 -443l-138 -122l-411 478h-2473l317 -356l-138 -122l-485 565l644 565l104 -121l-417 -357h2472z" glyph-name="less_hyphen_less.liga" horiz-adv-x="3690" unicode="&lt;-&lt;" vert-adv-y="1980"/>
<glyph d="M506 758h1841l-25 -174h-1841l316 -357l-137 -121l-485 565l644 565l103 -122z" glyph-name="less_endash.liga" horiz-adv-x="2460" unicode="&lt;–" vert-adv-y="1980"/>
<glyph d="M503 738h3071l-25 -174h-3071l316 -357l-137 -121l-485 565l644 565l103 -122z" glyph-name="less_endash_endash.liga" horiz-adv-x="3690" unicode="&lt;––" vert-adv-y="1980"/>
<glyph d="M2940 1103l137 121l486 -565l-645 -565l-103 122l417 356h-2753l317 -356l-138 -122l-485 565l644 565l104 -121l-417 -357h2753z" glyph-name="less_endash_greater.liga" horiz-adv-x="3690" unicode="&lt;–&gt;" vert-adv-y="1980"/>
<glyph d="M3522 1224l104 -121l-520 -444l395 -443l-138 -122l-411 478h-2473l317 -356l-138 -122l-485 565l644 565l104 -121l-417 -357h2472z" glyph-name="less_endash_less.liga" horiz-adv-x="3690" unicode="&lt;–&lt;" vert-adv-y="1980"/>
<glyph d="M1806.5 1329q34.5 -32 34.5 -86q0 -21 -6 -44l-152 -659q-3 -14 -14 -22.5t-25 -8.5h-96q-14 0 -22 8t-7 23l32 659q2 48 25 85t60 57t80 20q56 0 90.5 -32zM817 1224l104 -121l-417 -357h670l-24 -174h-671l317 -356l-138 -122l-485 565zM2087 572l24 174h2694l-24 -174 h-2694zM1646.5 306q40.5 -24 64.5 -64.5t24 -89.5t-24 -89.5t-64.5 -64.5t-89.5 -24t-89.5 24t-64.5 64.5t-24 89.5t24 89.5t64.5 64.5t89.5 24t89.5 -24z" glyph-name="less_exclam_hyphen_hyphen.liga" horiz-adv-x="4920" unicode="&lt;!--" vert-adv-y="1980"/>
<glyph d="M1806.5 1329q34.5 -32 34.5 -86q0 -21 -6 -44l-152 -659q-3 -14 -14 -22.5t-25 -8.5h-96q-14 0 -22 8t-7 23l32 659q2 48 25 85t60 57t80 20q56 0 90.5 -32zM817 1224l104 -121l-417 -357h670l-24 -174h-671l317 -356l-138 -122l-485 565zM2087 572l24 174h2694l-24 -174 h-2694zM1646.5 306q40.5 -24 64.5 -64.5t24 -89.5t-24 -89.5t-64.5 -64.5t-89.5 -24t-89.5 24t-64.5 64.5t-24 89.5t24 89.5t64.5 64.5t89.5 24t89.5 -24z" glyph-name="less_exclam_endash_endash.liga" horiz-adv-x="4920" unicode="&lt;!––" vert-adv-y="1980"/>
<glyph d="M256 786q-20 12 -17 35l18 127q3 20 27 35l767 425q9 5 18 5q14 0 20 -16l53 -114q3 -6 3 -13q0 -18 -20 -29l-672 -361l567 -361q13 -8 13 -20q0 -10 -8 -21l-77 -107q-12 -15 -25 -15q-9 0 -17 5zM189 349q-13 8 -13 21q0 10 7 20l83 112q12 15 25 15q10 0 16 -5 l654 -423q13 -8 13 -21q0 -9 -7 -19l-83 -112q-10 -16 -25 -16q-8 0 -16 5z" glyph-name="less_equal.liga" unicode="&lt;=" vert-adv-y="1980"/>
<glyph d="M3595 974q13 0 20.5 -8t5.5 -22l-16 -109q-1 -13 -10.5 -21.5t-23.5 -8.5h-3011l-157 -134l118 -133h3013q13 0 20.5 -8t5.5 -22l-16 -110q-1 -13 -10.5 -21.5t-23.5 -8.5h-2838l125 -141l-137 -121l-485 565l644 565l103 -122l-164 -140h2837z" glyph-name="less_equal_equal.liga" horiz-adv-x="3690" unicode="&lt;==" vert-adv-y="1980"/>
<glyph d="M4170 1103l137 121l486 -565l-645 -565l-103 122l164 140h-3538l125 -140l-138 -122l-485 565l644 565l104 -121l-165 -141h3539zM521 525h3886l157 134l-118 133h-3889l-155 -133z" glyph-name="less_equal_equal_greater.liga" horiz-adv-x="4920" unicode="&lt;==&gt;" vert-adv-y="1980"/>
<glyph d="M2940 1103l137 121l486 -565l-645 -565l-103 122l164 140h-2308l125 -140l-138 -122l-485 565l644 565l104 -121l-165 -141h2309zM521 525h2656l157 134l-118 133h-2659l-155 -133z" glyph-name="less_equal_greater.liga" horiz-adv-x="3690" unicode="&lt;=&gt;" vert-adv-y="1980"/>
<glyph d="M3521 1216l103 -122l-519 -443l394 -444l-137 -121l-225 262h-2468l125 -141l-137 -121l-485 565l644 565l103 -122l-164 -140h2467zM401 651l118 -133h2471l-114 133l153 134h-2471z" glyph-name="less_equal_less.liga" horiz-adv-x="3690" unicode="&lt;=&lt;" vert-adv-y="1980"/>
<glyph d="M817 1224l104 -121l-519 -444l394 -443l-138 -122l-485 565zM1132 746h2443l-24 -174h-2444l317 -356l-137 -122l-486 565l645 565l103 -121z" glyph-name="less_less_hyphen.liga" horiz-adv-x="3690" unicode="&lt;&lt;-" vert-adv-y="1980"/>
<glyph d="M817 1224l104 -121l-519 -444l394 -443l-138 -122l-485 565zM1132 746h2443l-24 -174h-2444l317 -356l-137 -122l-486 565l645 565l103 -121z" glyph-name="less_less_endash.liga" horiz-adv-x="3690" unicode="&lt;&lt;–" vert-adv-y="1980"/>
<glyph d="M819 1236l103 -122l-519 -443l394 -444l-137 -121l-485 565zM3595 974q13 0 20.5 -8t5.5 -22l-16 -109q-1 -13 -10.5 -21.5t-23.5 -8.5h-2382l-157 -134l118 -133h2384q13 0 20.5 -8t5.5 -22l-16 -110q-1 -13 -10.5 -21.5t-23.5 -8.5h-2210l125 -141l-137 -121l-485 565 l644 565l103 -122l-164 -140h2209z" glyph-name="less_less_equal.liga" horiz-adv-x="3690" unicode="&lt;&lt;=" vert-adv-y="1980"/>
<glyph d="M2287 1420q25 0 25 -17q0 -8 -6 -19l-943 -1621q-6 -13 -16.5 -18t-26.5 -5h-153q-13 0 -19.5 5t-6.5 13q0 7 6 18l98 168l-940 606q-20 12 -17 35l18 127q3 22 27 35l769 425q9 5 18 5q15 0 21 -16l48 -117q2 -4 2 -12q0 -20 -19 -30l-667 -359l834 -537l750 1292 q14 22 43 22h155z" glyph-name="less_slash.liga" horiz-adv-x="2460" unicode="&lt;/" vert-adv-y="1980"/>
<glyph d="M3278 610q21 -13 18 -35l-18 -127q-3 -22 -27 -35l-770 -425q-7 -5 -17 -5q-16 0 -22 16l-48 117q-2 8 -2 12q0 19 20 30l667 359l-834 537l-751 -1292q-8 -15 -25 -20q-10 -2 -18 -2h-155q-25 0 -25 17q0 8 6 19l98 168l-939 606q-21 13 -18 35l18 127q3 22 27 35 l770 425q8 5 17 5q16 0 22 -16l48 -117q2 -4 2 -11q0 -20 -20 -31l-667 -359l834 -537l751 1292q8 15 25 20q10 2 18 2h155q25 0 25 -17q0 -8 -6 -19l-98 -168z" glyph-name="less_slash_greater.liga" horiz-adv-x="3690" unicode="&lt;/&gt;" vert-adv-y="1980"/>
<glyph d="M184 1600h628v-1980h-628v1980zM659 1402v65h-326v-65h128v-73h-130v-66h328v66h-130v73h130zM529 1073v139h-198v-206h328v67h-130zM396 1145h65v-72h-65v72zM659 887v66h-328v-66h130v-73h-130v-65h198v138h130zM659 636v198h-65v-131h-263v-67h328zM659 368v224h-198 v-111h68v46h65v-93h-198v158h-65v-224h328zM659 26v224h-328v-224h328zM396 184h198v-93h-198v93zM659 -85v65h-328v-65h138l-138 -93v-65h328v65h-202l139 93h63z" glyph-name=".notdef" horiz-adv-x="990" vert-adv-y="1980"/>
<glyph glyph-name="space" unicode=" " vert-adv-y="1980"/>
<glyph d="M1094 34q2 -15 -5.5 -24.5t-23.5 -9.5h-168q-27 0 -30 24l-33 247h-500l-103 -247q-9 -24 -38 -24h-168q-23 0 -23 18q0 4 4 16l548 1282q6 12 16.5 18t22.5 6h282q13 0 21.5 -6t9.5 -18zM681 1105l-266 -638h392l-86 638h-40z" glyph-name="A" unicode="A" vert-adv-y="1980"/>
<glyph d="M1094 34q2 -15 -5.5 -24.5t-23.5 -9.5h-168q-27 0 -30 24l-33 247h-500l-103 -247q-9 -24 -38 -24h-168q-23 0 -23 18q0 4 4 16l548 1282q6 12 16.5 18t22.5 6h282q13 0 21.5 -6t9.5 -18zM681 1105l-266 -638h392l-86 638h-40zM692 1544q-11 0 -18 4.5t-7 12.5q0 7 6 17 l153 252q8 13 17 18.5t21 5.5h137q11 0 18 -4.5t7 -12.5q0 -6 -6 -17l-153 -252q-8 -13 -17 -18.5t-21 -5.5h-137z" glyph-name="Aacute" unicode="Á" vert-adv-y="1980"/>
<glyph d="M1094 34q2 -15 -5.5 -24.5t-23.5 -9.5h-168q-27 0 -30 24l-33 247h-500l-103 -247q-9 -24 -38 -24h-168q-23 0 -23 18q0 4 4 16l548 1282q6 12 16.5 18t22.5 6h282q13 0 21.5 -6t9.5 -18zM681 1105l-266 -638h392l-86 638h-40zM615 1587q-64 36 -95.5 98t-28.5 138 q2 31 34 31h85q26 0 28 -29q4 -52 42.5 -88.5t104.5 -36.5t110 35.5t64 89.5q11 29 36 29h93q25 0 25 -20q0 -7 -1 -11q-18 -77 -64.5 -138.5t-117.5 -97.5t-161 -36t-154 36z" glyph-name="Abreve" unicode="Ă" vert-adv-y="1980"/>
<glyph d="M1094 34q2 -15 -5.5 -24.5t-23.5 -9.5h-168q-27 0 -30 24l-33 247h-500l-103 -247q-9 -24 -38 -24h-168q-23 0 -23 18q0 4 4 16l548 1282q6 12 16.5 18t22.5 6h282q13 0 21.5 -6t9.5 -18zM681 1105l-266 -638h392l-86 638h-40zM690 1542q-23 0 -34 16l-186 260 q-6 9 -6 16q0 9 7.5 14.5t20.5 5.5h162q22 0 34 -16l125 -171l173 171q17 16 38 16h166q11 0 17 -4t6 -11q0 -10 -11 -21l-259 -260q-9 -9 -18 -12.5t-20 -3.5h-215z" glyph-name="uni01CD" unicode="Ǎ" vert-adv-y="1980"/>
<glyph d="M1094 34q2 -15 -5.5 -24.5t-23.5 -9.5h-168q-27 0 -30 24l-33 247h-500l-103 -247q-9 -24 -38 -24h-168q-23 0 -23 18q0 4 4 16l548 1282q6 12 16.5 18t22.5 6h282q13 0 21.5 -6t9.5 -18zM681 1105l-266 -638h392l-86 638h-40zM461 1542q-11 0 -17 4t-6 11q0 10 11 21 l259 260q9 9 18 12.5t20 3.5h216q11 0 19 -3.5t15 -12.5l185 -260q6 -9 6 -16q0 -9 -7.5 -14.5t-20.5 -5.5h-161q-22 0 -34 16l-126 171l-173 -171q-17 -16 -38 -16h-166z" glyph-name="Acircumflex" unicode="Â" vert-adv-y="1980"/>
<glyph d="M1094 34q2 -15 -5.5 -24.5t-23.5 -9.5h-168q-27 0 -30 24l-33 247h-500l-103 -247q-9 -24 -38 -24h-168q-23 0 -23 18q0 4 4 16l548 1282q6 12 16.5 18t22.5 6h282q13 0 21.5 -6t9.5 -18zM681 1105l-266 -638h392l-86 638h-40zM505.5 1657q-33.5 34 -33.5 83 q0 47 34 80.5t81 33.5t81.5 -33.5t34.5 -80.5q0 -49 -34 -83t-82 -34t-81.5 34zM912 1657q-34 34 -34 83q0 47 34.5 80.5t81.5 33.5t81 -33.5t34 -80.5q0 -49 -33.5 -83t-81.5 -34t-82 34z" glyph-name="Adieresis" unicode="Ä" vert-adv-y="1980"/>
<glyph d="M1094 34q2 -15 -5.5 -24.5t-23.5 -9.5h-168q-27 0 -30 24l-33 247h-500l-103 -247q-9 -24 -38 -24h-168q-23 0 -23 18q0 4 4 16l548 1282q6 12 16.5 18t22.5 6h282q13 0 21.5 -6t9.5 -18zM681 1105l-266 -638h392l-86 638h-40zM713 1544q-12 0 -21 5.5t-17 18.5l-153 252 q-6 11 -6 17q0 8 7 12.5t18 4.5h137q12 0 21 -5.5t17 -18.5l153 -252q6 -10 6 -17q0 -8 -7 -12.5t-18 -4.5h-137z" glyph-name="Agrave" unicode="À" vert-adv-y="1980"/>
<glyph d="M1094 34q2 -15 -5.5 -24.5t-23.5 -9.5h-168q-27 0 -30 24l-33 247h-500l-103 -247q-9 -24 -38 -24h-168q-23 0 -23 18q0 4 4 16l548 1282q6 12 16.5 18t22.5 6h282q13 0 21.5 -6t9.5 -18zM681 1105l-266 -638h392l-86 638h-40zM520 1681q-13 0 -20 8.5t-5 21.5l16 113 q1 13 10.5 21.5t23.5 8.5h523q13 0 20.5 -8t5.5 -22l-16 -113q-2 -14 -11.5 -22t-23.5 -8h-523z" glyph-name="Amacron" unicode="Ā" vert-adv-y="1980"/>
<glyph d="M1094 34q2 -15 -5.5 -24.5t-23.5 -9.5h-118q-54 -13 -85 -43.5t-31 -77.5q0 -101 140 -101h32q20 0 17 -20l-14 -100q-3 -20 -23 -20h-68q-103 0 -177.5 46t-74.5 156q0 90 53 148t144 86l-26 197h-500l-103 -247q-9 -24 -38 -24h-168q-23 0 -23 18q0 4 4 16l548 1282 q6 12 16.5 18t22.5 6h282q13 0 21.5 -6t9.5 -18zM681 1105l-266 -638h392l-86 638h-40z" glyph-name="Aogonek" unicode="Ą" vert-adv-y="1980"/>
<glyph d="M1094 34q2 -15 -5.5 -24.5t-23.5 -9.5h-168q-27 0 -30 24l-33 247h-500l-103 -247q-9 -24 -38 -24h-168q-23 0 -23 18q0 4 4 16l548 1282q6 12 16.5 18t22.5 6h282q13 0 21.5 -6t9.5 -18zM681 1105l-266 -638h392l-86 638h-40zM752 1501q-44 26 -69.5 69t-25.5 94 t25.5 94.5t69.5 69.5t97 26t96.5 -26t69 -69.5t25.5 -94.5q0 -50 -25.5 -93.5t-69 -69.5t-96.5 -26t-97 26zM897 1617.5q20 18.5 20 45.5q0 29 -20 48.5t-48 19.5q-29 0 -48.5 -18.5t-19.5 -47.5q0 -28 19.5 -47t48.5 -19q28 0 48 18.5z" glyph-name="Aring" unicode="Å" vert-adv-y="1980"/>
<glyph d="M1094 34q2 -15 -5.5 -24.5t-23.5 -9.5h-168q-27 0 -30 24l-33 247h-500l-103 -247q-9 -24 -38 -24h-168q-23 0 -23 18q0 4 4 16l548 1282q6 12 16.5 18t22.5 6h282q13 0 21.5 -6t9.5 -18zM681 1105l-266 -638h392l-86 638h-40zM826.5 1595.5q-37.5 20.5 -79.5 58.5 q-36 31 -60.5 45.5t-57.5 14.5q-37 0 -62 -17t-37 -41q-8 -17 -24 -17h-57q-8 0 -12.5 4.5t-4.5 12.5q0 5 1 8q24 88 83 134t142 46q54 0 91 -20t81 -58q35 -31 60 -46t58 -15q36 0 60.5 17t37.5 42q8 17 24 17h57q9 0 14 -5.5t3 -14.5q-17 -90 -79.5 -138t-145.5 -48 q-55 0 -92.5 20.5z" glyph-name="Atilde" unicode="Ã" vert-adv-y="1980"/>
<glyph d="M1306 1392q7 -8 5 -24l-20 -144q-4 -28 -32 -28h-326l-51 -365h280q15 0 22 -8t5 -24l-20 -144q-4 -28 -32 -28h-284l-59 -423h323q15 0 22.5 -8t5.5 -24l-20 -144q-4 -28 -32 -28h-515q-15 0 -22.5 8t-5.5 24l22 159h-294l-83 -169q-11 -22 -35 -22h-159 q-13 0 -19.5 5.5t-6.5 14.5q0 8 4 15l688 1343q10 22 35 22h582q15 0 22 -8zM692 1039l-319 -653h227z" glyph-name="AE" unicode="Æ" vert-adv-y="1980"/>
<glyph d="M861 713q129 -20 188 -93.5t59 -202.5q0 -211 -142 -314t-403 -103h-473q-13 0 -20.5 8t-5.5 22l180 1280q2 14 12 22t27 8h454q189 0 274 -77t85 -206q0 -80 -29 -147t-81.5 -113t-121.5 -64zM447 1136l-47 -330h241q111 0 172.5 50.5t61.5 142.5q0 75 -44 106t-143 31 h-241zM593 204q143 0 216 53.5t73 169.5q0 95 -54.5 141t-176.5 46h-278l-58 -410h278z" glyph-name="B" unicode="B" vert-adv-y="1980"/>
<glyph d="M1019 85q-3 -23 -12 -37.5t-28 -24.5q-50 -25 -118 -39t-144 -14q-167 0 -291.5 70t-193 205t-68.5 326q0 192 69.5 373.5t211 298.5t344.5 117q148 0 244.5 -69t96.5 -217q0 -66 -22 -147q-6 -26 -33 -26h-149q-16 0 -22.5 9t-3.5 26q10 41 10 76q0 130 -146 130 q-125 0 -209.5 -85t-125.5 -211t-41 -250q0 -133 49 -224.5t139.5 -138t213.5 -46.5q53 0 109 9.5t103 26.5q8 3 14 3q10 0 14.5 -7.5t3.5 -20.5z" glyph-name="C" unicode="C" vert-adv-y="1980"/>
<glyph d="M1019 85q-3 -23 -12 -37.5t-28 -24.5q-50 -25 -118 -39t-144 -14q-167 0 -291.5 70t-193 205t-68.5 326q0 192 69.5 373.5t211 298.5t344.5 117q148 0 244.5 -69t96.5 -217q0 -66 -22 -147q-6 -26 -33 -26h-149q-16 0 -22.5 9t-3.5 26q10 41 10 76q0 130 -146 130 q-125 0 -209.5 -85t-125.5 -211t-41 -250q0 -133 49 -224.5t139.5 -138t213.5 -46.5q53 0 109 9.5t103 26.5q8 3 14 3q10 0 14.5 -7.5t3.5 -20.5zM710 1544q-11 0 -18 4.5t-7 12.5q0 7 6 17l153 252q8 13 17 18.5t21 5.5h137q11 0 18 -4.5t7 -12.5q0 -6 -6 -17l-153 -252 q-8 -13 -17 -18.5t-21 -5.5h-137z" glyph-name="Cacute" unicode="Ć" vert-adv-y="1980"/>
<glyph d="M1019 85q-3 -23 -12 -37.5t-28 -24.5q-50 -25 -118 -39t-144 -14q-167 0 -291.5 70t-193 205t-68.5 326q0 192 69.5 373.5t211 298.5t344.5 117q148 0 244.5 -69t96.5 -217q0 -66 -22 -147q-6 -26 -33 -26h-149q-16 0 -22.5 9t-3.5 26q10 41 10 76q0 130 -146 130 q-125 0 -209.5 -85t-125.5 -211t-41 -250q0 -133 49 -224.5t139.5 -138t213.5 -46.5q53 0 109 9.5t103 26.5q8 3 14 3q10 0 14.5 -7.5t3.5 -20.5zM707 1542q-23 0 -34 16l-186 260q-6 9 -6 16q0 9 7.5 14.5t20.5 5.5h162q22 0 34 -16l125 -171l173 171q17 16 38 16h166 q11 0 17 -4t6 -11q0 -10 -11 -21l-259 -260q-9 -9 -18 -12.5t-20 -3.5h-215z" glyph-name="Ccaron" unicode="Č" vert-adv-y="1980"/>
<glyph d="M1033.5 1291q96.5 -69 96.5 -217q0 -66 -22 -147q-6 -26 -33 -26h-149q-16 0 -22.5 9t-3.5 26q10 41 10 76q0 130 -146 130q-125 0 -209.5 -85t-125.5 -211t-41 -250q0 -133 49 -224.5t139.5 -138t213.5 -46.5q53 0 109 9.5t103 26.5q8 3 14 3q10 0 14.5 -7.5t3.5 -20.5 l-15 -113q-3 -23 -12 -37.5t-28 -24.5q-50 -25 -118 -39t-144 -14q-57 0 -103 7l-58 -48q64 -6 107.5 -43t43.5 -96q0 -71 -39 -122t-104.5 -77t-142.5 -26q-37 0 -75 6q-18 3 -15 22l11 78q2 9 9 15t16 5q34 -4 51 -4q56 0 93 19t37 57q0 23 -23.5 39t-60.5 16 q-38 0 -79 -17q-4 -2 -10 -2q-14 0 -12 16l11 78q1 14 13 24l94 83h36q-167 54 -260 201t-93 370q0 192 69.5 373.5t211 298.5t344.5 117q148 0 244.5 -69z" glyph-name="Ccedilla" unicode="Ç" vert-adv-y="1980"/>
<glyph d="M1019 85q-3 -23 -12 -37.5t-28 -24.5q-50 -25 -118 -39t-144 -14q-167 0 -291.5 70t-193 205t-68.5 326q0 192 69.5 373.5t211 298.5t344.5 117q148 0 244.5 -69t96.5 -217q0 -66 -22 -147q-6 -26 -33 -26h-149q-16 0 -22.5 9t-3.5 26q10 41 10 76q0 130 -146 130 q-125 0 -209.5 -85t-125.5 -211t-41 -250q0 -133 49 -224.5t139.5 -138t213.5 -46.5q53 0 109 9.5t103 26.5q8 3 14 3q10 0 14.5 -7.5t3.5 -20.5zM726.5 1657q-33.5 34 -33.5 83q0 47 34 80.5t81 33.5t81.5 -33.5t34.5 -80.5q0 -49 -34 -83t-82 -34t-81.5 34z" glyph-name="Cdotaccent" unicode="Ċ" vert-adv-y="1980"/>
<glyph d="M95 0q-14 0 -21 8.5t-5 21.5l180 1280q2 14 11.5 22t22.5 8h378q254 0 368 -152.5t114 -396.5q0 -215 -80.5 -394.5t-248 -288t-418.5 -108.5h-301zM391 204q186 0 303 82.5t168 212.5t51 282q0 165 -68 260t-235 95h-158l-132 -932h71z" glyph-name="D" unicode="D" vert-adv-y="1980"/>
<glyph d="M661 1340q254 0 368 -152.5t114 -396.5q0 -215 -80.5 -394.5t-248 -288t-418.5 -108.5h-301q-14 0 -21 8.5t-5 21.5l78 553h-91q-13 0 -20 8t-5 22l16 114q1 13 10.5 21.5t23.5 8.5h90l78 553q2 14 11.5 22t22.5 8h378zM391 204q186 0 303 82.5t168 212.5t51 282 q0 165 -68 260t-235 95h-158l-54 -379h206q13 0 20.5 -8t5.5 -22l-16 -114q-2 -13 -11.5 -21.5t-23.5 -8.5h-205l-54 -379h71z" glyph-name="Eth" unicode="Ð" vert-adv-y="1980"/>
<glyph d="M95 0q-14 0 -21 8.5t-5 21.5l180 1280q2 14 11.5 22t22.5 8h378q254 0 368 -152.5t114 -396.5q0 -215 -80.5 -394.5t-248 -288t-418.5 -108.5h-301zM391 204q186 0 303 82.5t168 212.5t51 282q0 165 -68 260t-235 95h-158l-132 -932h71zM690 1542q-23 0 -34 16l-186 260 q-6 9 -6 16q0 9 7.5 14.5t20.5 5.5h162q22 0 34 -16l125 -171l173 171q17 16 38 16h166q11 0 17 -4t6 -11q0 -10 -11 -21l-259 -260q-9 -9 -18 -12.5t-20 -3.5h-215z" glyph-name="Dcaron" unicode="Ď" vert-adv-y="1980"/>
<glyph d="M661 1340q254 0 368 -152.5t114 -396.5q0 -215 -80.5 -394.5t-248 -288t-418.5 -108.5h-301q-14 0 -21 8.5t-5 21.5l78 553h-91q-13 0 -20 8t-5 22l16 114q1 13 10.5 21.5t23.5 8.5h90l78 553q2 14 11.5 22t22.5 8h378zM391 204q186 0 303 82.5t168 212.5t51 282 q0 165 -68 260t-235 95h-158l-54 -379h206q13 0 20.5 -8t5.5 -22l-16 -114q-2 -13 -11.5 -21.5t-23.5 -8.5h-205l-54 -379h71z" glyph-name="Dcroat" unicode="Đ" vert-adv-y="1980"/>
<glyph d="M119 0q-13 0 -20 8t-5 22l180 1280q1 13 10.5 21.5t23.5 8.5h850q13 0 20.5 -8t5.5 -22l-21 -144q-1 -13 -10.5 -21.5t-23.5 -8.5h-652l-51 -356h608q14 0 21 -8.5t5 -21.5l-20 -143q-2 -14 -11.5 -22t-22.5 -8h-608l-52 -373h654q14 0 20.5 -8t4.5 -22l-19 -144 q-2 -13 -11.5 -21.5t-23.5 -8.5h-852z" glyph-name="E" unicode="E" vert-adv-y="1980"/>
<glyph d="M119 0q-13 0 -20 8t-5 22l180 1280q1 13 10.5 21.5t23.5 8.5h850q13 0 20.5 -8t5.5 -22l-21 -144q-1 -13 -10.5 -21.5t-23.5 -8.5h-652l-51 -356h608q14 0 21 -8.5t5 -21.5l-20 -143q-2 -14 -11.5 -22t-22.5 -8h-608l-52 -373h654q14 0 20.5 -8t4.5 -22l-19 -144 q-2 -13 -11.5 -21.5t-23.5 -8.5h-852zM692 1544q-11 0 -18 4.5t-7 12.5q0 7 6 17l153 252q8 13 17 18.5t21 5.5h137q11 0 18 -4.5t7 -12.5q0 -6 -6 -17l-153 -252q-8 -13 -17 -18.5t-21 -5.5h-137z" glyph-name="Eacute" unicode="É" vert-adv-y="1980"/>
<glyph d="M119 0q-13 0 -20 8t-5 22l180 1280q1 13 10.5 21.5t23.5 8.5h850q13 0 20.5 -8t5.5 -22l-21 -144q-1 -13 -10.5 -21.5t-23.5 -8.5h-652l-51 -356h608q14 0 21 -8.5t5 -21.5l-20 -143q-2 -14 -11.5 -22t-22.5 -8h-608l-52 -373h654q14 0 20.5 -8t4.5 -22l-19 -144 q-2 -13 -11.5 -21.5t-23.5 -8.5h-852zM690 1542q-23 0 -34 16l-186 260q-6 9 -6 16q0 9 7.5 14.5t20.5 5.5h162q22 0 34 -16l125 -171l173 171q17 16 38 16h166q11 0 17 -4t6 -11q0 -10 -11 -21l-259 -260q-9 -9 -18 -12.5t-20 -3.5h-215z" glyph-name="Ecaron" unicode="Ě" vert-adv-y="1980"/>
<glyph d="M119 0q-13 0 -20 8t-5 22l180 1280q1 13 10.5 21.5t23.5 8.5h850q13 0 20.5 -8t5.5 -22l-21 -144q-1 -13 -10.5 -21.5t-23.5 -8.5h-652l-51 -356h608q14 0 21 -8.5t5 -21.5l-20 -143q-2 -14 -11.5 -22t-22.5 -8h-608l-52 -373h654q14 0 20.5 -8t4.5 -22l-19 -144 q-2 -13 -11.5 -21.5t-23.5 -8.5h-852zM461 1542q-11 0 -17 4t-6 11q0 10 11 21l259 260q9 9 18 12.5t20 3.5h216q11 0 19 -3.5t15 -12.5l185 -260q6 -9 6 -16q0 -9 -7.5 -14.5t-20.5 -5.5h-161q-22 0 -34 16l-126 171l-173 -171q-17 -16 -38 -16h-166z" glyph-name="Ecircumflex" unicode="Ê" vert-adv-y="1980"/>
<glyph d="M119 0q-13 0 -20 8t-5 22l180 1280q1 13 10.5 21.5t23.5 8.5h850q13 0 20.5 -8t5.5 -22l-21 -144q-1 -13 -10.5 -21.5t-23.5 -8.5h-652l-51 -356h608q14 0 21 -8.5t5 -21.5l-20 -143q-2 -14 -11.5 -22t-22.5 -8h-608l-52 -373h654q14 0 20.5 -8t4.5 -22l-19 -144 q-2 -13 -11.5 -21.5t-23.5 -8.5h-852zM505.5 1657q-33.5 34 -33.5 83q0 47 34 80.5t81 33.5t81.5 -33.5t34.5 -80.5q0 -49 -34 -83t-82 -34t-81.5 34zM912 1657q-34 34 -34 83q0 47 34.5 80.5t81.5 33.5t81 -33.5t34 -80.5q0 -49 -33.5 -83t-81.5 -34t-82 34z" glyph-name="Edieresis" unicode="Ë" vert-adv-y="1980"/>
<glyph d="M119 0q-13 0 -20 8t-5 22l180 1280q1 13 10.5 21.5t23.5 8.5h850q13 0 20.5 -8t5.5 -22l-21 -144q-1 -13 -10.5 -21.5t-23.5 -8.5h-652l-51 -356h608q14 0 21 -8.5t5 -21.5l-20 -143q-2 -14 -11.5 -22t-22.5 -8h-608l-52 -373h654q14 0 20.5 -8t4.5 -22l-19 -144 q-2 -13 -11.5 -21.5t-23.5 -8.5h-852zM709.5 1657q-33.5 34 -33.5 83q0 47 34 80.5t81 33.5t81.5 -33.5t34.5 -80.5q0 -49 -34 -83t-82 -34t-81.5 34z" glyph-name="Edotaccent" unicode="Ė" vert-adv-y="1980"/>
<glyph d="M119 0q-13 0 -20 8t-5 22l180 1280q1 13 10.5 21.5t23.5 8.5h850q13 0 20.5 -8t5.5 -22l-21 -144q-1 -13 -10.5 -21.5t-23.5 -8.5h-652l-51 -356h608q14 0 21 -8.5t5 -21.5l-20 -143q-2 -14 -11.5 -22t-22.5 -8h-608l-52 -373h654q14 0 20.5 -8t4.5 -22l-19 -144 q-2 -13 -11.5 -21.5t-23.5 -8.5h-852zM713 1544q-12 0 -21 5.5t-17 18.5l-153 252q-6 11 -6 17q0 8 7 12.5t18 4.5h137q12 0 21 -5.5t17 -18.5l153 -252q6 -10 6 -17q0 -8 -7 -12.5t-18 -4.5h-137z" glyph-name="Egrave" unicode="È" vert-adv-y="1980"/>
<glyph d="M119 0q-13 0 -20 8t-5 22l180 1280q1 13 10.5 21.5t23.5 8.5h850q13 0 20.5 -8t5.5 -22l-21 -144q-1 -13 -10.5 -21.5t-23.5 -8.5h-652l-51 -356h608q14 0 21 -8.5t5 -21.5l-20 -143q-2 -14 -11.5 -22t-22.5 -8h-608l-52 -373h654q14 0 20.5 -8t4.5 -22l-19 -144 q-2 -13 -11.5 -21.5t-23.5 -8.5h-852zM520 1681q-13 0 -20 8.5t-5 21.5l16 113q1 13 10.5 21.5t23.5 8.5h523q13 0 20.5 -8t5.5 -22l-16 -113q-2 -14 -11.5 -22t-23.5 -8h-523z" glyph-name="Emacron" unicode="Ē" vert-adv-y="1980"/>
<glyph d="M1158 1340q13 0 20.5 -8t5.5 -22l-21 -144q-1 -13 -10.5 -21.5t-23.5 -8.5h-652l-51 -356h608q14 0 21 -8.5t5 -21.5l-20 -143q-2 -14 -11.5 -22t-22.5 -8h-608l-52 -373h654q14 0 20.5 -8t4.5 -22l-19 -144q-2 -14 -11.5 -22t-22.5 -8q-95 0 -152 -33.5t-57 -97.5 q0 -101 140 -101h32q20 0 17 -20l-14 -100q-3 -20 -23 -20h-68q-103 0 -177.5 46t-74.5 156q0 105 75 170h-551q-13 0 -20 8t-5 22l180 1280q1 13 10.5 21.5t23.5 8.5h850z" glyph-name="Eogonek" unicode="Ę" vert-adv-y="1980"/>
<glyph d="M115 0q-13 0 -20 8t-5 22l180 1280q1 13 10.5 21.5t23.5 8.5h860q13 0 20.5 -8t5.5 -22l-21 -144q-1 -13 -10.5 -21.5t-23.5 -8.5h-662l-63 -445h616q14 0 21 -8.5t5 -21.5l-20 -144q-1 -13 -10.5 -21.5t-23.5 -8.5h-616l-65 -457q-2 -14 -11.5 -22t-23.5 -8h-167z" glyph-name="F" unicode="F" vert-adv-y="1980"/>
<glyph d="M1141 698.5q7 -8.5 5 -22.5l-82 -571q-3 -23 -12 -37.5t-28 -24.5q-57 -30 -141 -51.5t-181 -21.5q-166 0 -293 69t-197 199.5t-70 309.5q0 184 71.5 372t217 314t356.5 126q95 0 173 -28.5t125.5 -92t47.5 -162.5q0 -66 -22 -145q-6 -26 -35 -26h-147q-16 0 -22.5 9 t-3.5 26q10 40 10 73q0 128 -151 128q-133 0 -222.5 -94t-131.5 -229.5t-42 -261.5q0 -178 90.5 -280t263.5 -102q72 0 157 20l47 331h-270q-13 0 -20.5 8t-5.5 22l17 121q2 14 12 22t23 8h440q14 0 21 -8.5z" glyph-name="G" unicode="G" vert-adv-y="1980"/>
<glyph d="M1141 698.5q7 -8.5 5 -22.5l-82 -571q-3 -23 -12 -37.5t-28 -24.5q-57 -30 -141 -51.5t-181 -21.5q-166 0 -293 69t-197 199.5t-70 309.5q0 184 71.5 372t217 314t356.5 126q95 0 173 -28.5t125.5 -92t47.5 -162.5q0 -66 -22 -145q-6 -26 -35 -26h-147q-16 0 -22.5 9 t-3.5 26q10 40 10 73q0 128 -151 128q-133 0 -222.5 -94t-131.5 -229.5t-42 -261.5q0 -178 90.5 -280t263.5 -102q72 0 157 20l47 331h-270q-13 0 -20.5 8t-5.5 22l17 121q2 14 12 22t23 8h440q14 0 21 -8.5zM615 1587q-64 36 -95.5 98t-28.5 138q2 31 34 31h85q26 0 28 -29 q4 -52 42.5 -88.5t104.5 -36.5t110 35.5t64 89.5q11 29 36 29h93q25 0 25 -20q0 -7 -1 -11q-18 -77 -64.5 -138.5t-117.5 -97.5t-161 -36t-154 36z" glyph-name="Gbreve" unicode="Ğ" vert-adv-y="1980"/>
<glyph d="M1141 698.5q7 -8.5 5 -22.5l-82 -571q-3 -23 -12 -37.5t-28 -24.5q-57 -30 -141 -51.5t-181 -21.5q-166 0 -293 69t-197 199.5t-70 309.5q0 184 71.5 372t217 314t356.5 126q95 0 173 -28.5t125.5 -92t47.5 -162.5q0 -66 -22 -145q-6 -26 -35 -26h-147q-16 0 -22.5 9 t-3.5 26q10 40 10 73q0 128 -151 128q-133 0 -222.5 -94t-131.5 -229.5t-42 -261.5q0 -178 90.5 -280t263.5 -102q72 0 157 20l47 331h-270q-13 0 -20.5 8t-5.5 22l17 121q2 14 12 22t23 8h440q14 0 21 -8.5zM698 -168q13 0 19.5 -7.5t4.5 -20.5l-9 -67q-19 -126 -43 -237 t-48 -183q-7 -21 -35 -21h-110q-23 0 -23 19q0 6 1 10q42 193 58 332h-232q-12 0 -18.5 7.5t-5.5 20.5l17 119q2 13 11 20.5t21 7.5h392z" glyph-name="uni0122" unicode="Ģ" vert-adv-y="1980"/>
<glyph d="M1141 698.5q7 -8.5 5 -22.5l-82 -571q-3 -23 -12 -37.5t-28 -24.5q-57 -30 -141 -51.5t-181 -21.5q-166 0 -293 69t-197 199.5t-70 309.5q0 184 71.5 372t217 314t356.5 126q95 0 173 -28.5t125.5 -92t47.5 -162.5q0 -66 -22 -145q-6 -26 -35 -26h-147q-16 0 -22.5 9 t-3.5 26q10 40 10 73q0 128 -151 128q-133 0 -222.5 -94t-131.5 -229.5t-42 -261.5q0 -178 90.5 -280t263.5 -102q72 0 157 20l47 331h-270q-13 0 -20.5 8t-5.5 22l17 121q2 14 12 22t23 8h440q14 0 21 -8.5zM709.5 1657q-33.5 34 -33.5 83q0 47 34 80.5t81 33.5t81.5 -33.5 t34.5 -80.5q0 -49 -34 -83t-82 -34t-81.5 34z" glyph-name="Gdotaccent" unicode="Ġ" vert-adv-y="1980"/>
<glyph d="M1176 1340q14 0 21 -8.5t5 -21.5l-180 -1280q-2 -14 -11.5 -22t-23.5 -8h-168q-13 0 -20 8t-5 22l75 530h-488l-75 -530q-2 -13 -11.5 -21.5t-23.5 -8.5h-167q-13 0 -20 8t-5 22l180 1280q2 14 11.5 22t22.5 8h167q14 0 21 -8.5t5 -21.5l-77 -547h488l77 547 q2 14 11.5 22t22.5 8h168z" glyph-name="H" unicode="H" vert-adv-y="1980"/>
<glyph d="M1176 1340q14 0 21 -8.5t5 -21.5l-180 -1280q-2 -14 -11.5 -22t-23.5 -8h-168q-13 0 -20 8t-5 22l75 530h-488l-75 -530q-2 -13 -11.5 -21.5t-23.5 -8.5h-167q-13 0 -20 8t-5 22l180 1280q2 14 11.5 22t22.5 8h167q14 0 21 -8.5t5 -21.5l-24 -174h488l24 174 q2 14 11.5 22t22.5 8h168zM435 949l-26 -186h488l26 186h-488z" glyph-name="Hbar" unicode="Ħ" vert-adv-y="1980"/>
<glyph d="M98 0q-13 0 -22.5 11.5t-7.5 24.5l20 144q2 13 8.5 18.5t19.5 5.5h344l132 932h-335q-13 0 -22.5 11.5t-7.5 25.5l21 143q1 13 7.5 18.5t20.5 5.5h906q13 0 22 -11t7 -25l-20 -144q-1 -13 -7.5 -18.5t-20.5 -5.5h-344l-131 -932h334q14 0 23 -11.5t7 -24.5l-20 -144 q-2 -14 -8 -19t-20 -5h-906z" glyph-name="I" unicode="I" vert-adv-y="1980"/>
<glyph d="M200 1372q3 28 32 28h168q31 0 28 -32l-188 -1340q-3 -28 -32 -28h-168q-31 0 -28 32zM586 1196q-31 0 -28 32l20 144q3 28 32 28h640q31 0 28 -32l-120 -849q-26 -184 -106.5 -304.5t-195.5 -176.5t-249 -56q-136 0 -224 59q-16 11 -16 28q0 7 5 17l66 112q10 15 25 15 q9 0 13 -2q52 -20 122 -20q78 0 148 36t120 112t66 192l94 665h-440z" glyph-name="IJ" unicode="Ĳ" vert-adv-y="1980"/>
<glyph d="M98 0q-13 0 -22.5 11.5t-7.5 24.5l20 144q2 13 8.5 18.5t19.5 5.5h344l132 932h-335q-13 0 -22.5 11.5t-7.5 25.5l21 143q1 13 7.5 18.5t20.5 5.5h906q13 0 22 -11t7 -25l-20 -144q-1 -13 -7.5 -18.5t-20.5 -5.5h-344l-131 -932h334q14 0 23 -11.5t7 -24.5l-20 -144 q-2 -14 -8 -19t-20 -5h-906zM692 1544q-11 0 -18 4.5t-7 12.5q0 7 6 17l153 252q8 13 17 18.5t21 5.5h137q11 0 18 -4.5t7 -12.5q0 -6 -6 -17l-153 -252q-8 -13 -17 -18.5t-21 -5.5h-137z" glyph-name="Iacute" unicode="Í" vert-adv-y="1980"/>
<glyph d="M98 0q-13 0 -22.5 11.5t-7.5 24.5l20 144q2 13 8.5 18.5t19.5 5.5h344l132 932h-335q-13 0 -22.5 11.5t-7.5 25.5l21 143q1 13 7.5 18.5t20.5 5.5h906q13 0 22 -11t7 -25l-20 -144q-1 -13 -7.5 -18.5t-20.5 -5.5h-344l-131 -932h334q14 0 23 -11.5t7 -24.5l-20 -144 q-2 -14 -8 -19t-20 -5h-906zM690 1542q-23 0 -34 16l-186 260q-6 9 -6 16q0 9 7.5 14.5t20.5 5.5h162q22 0 34 -16l125 -171l173 171q17 16 38 16h166q11 0 17 -4t6 -11q0 -10 -11 -21l-259 -260q-9 -9 -18 -12.5t-20 -3.5h-215z" glyph-name="uni01CF" unicode="Ǐ" vert-adv-y="1980"/>
<glyph d="M98 0q-13 0 -22.5 11.5t-7.5 24.5l20 144q2 13 8.5 18.5t19.5 5.5h344l132 932h-335q-13 0 -22.5 11.5t-7.5 25.5l21 143q1 13 7.5 18.5t20.5 5.5h906q13 0 22 -11t7 -25l-20 -144q-1 -13 -7.5 -18.5t-20.5 -5.5h-344l-131 -932h334q14 0 23 -11.5t7 -24.5l-20 -144 q-2 -14 -8 -19t-20 -5h-906zM461 1542q-11 0 -17 4t-6 11q0 10 11 21l259 260q9 9 18 12.5t20 3.5h216q11 0 19 -3.5t15 -12.5l185 -260q6 -9 6 -16q0 -9 -7.5 -14.5t-20.5 -5.5h-161q-22 0 -34 16l-126 171l-173 -171q-17 -16 -38 -16h-166z" glyph-name="Icircumflex" unicode="Î" vert-adv-y="1980"/>
<glyph d="M98 0q-13 0 -22.5 11.5t-7.5 24.5l20 144q2 13 8.5 18.5t19.5 5.5h344l132 932h-335q-13 0 -22.5 11.5t-7.5 25.5l21 143q1 13 7.5 18.5t20.5 5.5h906q13 0 22 -11t7 -25l-20 -144q-1 -13 -7.5 -18.5t-20.5 -5.5h-344l-131 -932h334q14 0 23 -11.5t7 -24.5l-20 -144 q-2 -14 -8 -19t-20 -5h-906zM505.5 1657q-33.5 34 -33.5 83q0 47 34 80.5t81 33.5t81.5 -33.5t34.5 -80.5q0 -49 -34 -83t-82 -34t-81.5 34zM912 1657q-34 34 -34 83q0 47 34.5 80.5t81.5 33.5t81 -33.5t34 -80.5q0 -49 -33.5 -83t-81.5 -34t-82 34z" glyph-name="Idieresis" unicode="Ï" vert-adv-y="1980"/>
<glyph d="M98 0q-13 0 -22.5 11.5t-7.5 24.5l20 144q2 13 8.5 18.5t19.5 5.5h344l132 932h-335q-13 0 -22.5 11.5t-7.5 25.5l21 143q1 13 7.5 18.5t20.5 5.5h906q13 0 22 -11t7 -25l-20 -144q-1 -13 -7.5 -18.5t-20.5 -5.5h-344l-131 -932h334q14 0 23 -11.5t7 -24.5l-20 -144 q-2 -14 -8 -19t-20 -5h-906zM709.5 1657q-33.5 34 -33.5 83q0 47 34 80.5t81 33.5t81.5 -33.5t34.5 -80.5q0 -49 -34 -83t-82 -34t-81.5 34z" glyph-name="Idotaccent" unicode="İ" vert-adv-y="1980"/>
<glyph d="M98 0q-13 0 -22.5 11.5t-7.5 24.5l20 144q2 13 8.5 18.5t19.5 5.5h344l132 932h-335q-13 0 -22.5 11.5t-7.5 25.5l21 143q1 13 7.5 18.5t20.5 5.5h906q13 0 22 -11t7 -25l-20 -144q-1 -13 -7.5 -18.5t-20.5 -5.5h-344l-131 -932h334q14 0 23 -11.5t7 -24.5l-20 -144 q-2 -14 -8 -19t-20 -5h-906zM713 1544q-12 0 -21 5.5t-17 18.5l-153 252q-6 11 -6 17q0 8 7 12.5t18 4.5h137q12 0 21 -5.5t17 -18.5l153 -252q6 -10 6 -17q0 -8 -7 -12.5t-18 -4.5h-137z" glyph-name="Igrave" unicode="Ì" vert-adv-y="1980"/>
<glyph d="M98 0q-13 0 -22.5 11.5t-7.5 24.5l20 144q2 13 8.5 18.5t19.5 5.5h344l132 932h-335q-13 0 -22.5 11.5t-7.5 25.5l21 143q1 13 7.5 18.5t20.5 5.5h906q13 0 22 -11t7 -25l-20 -144q-1 -13 -7.5 -18.5t-20.5 -5.5h-344l-131 -932h334q14 0 23 -11.5t7 -24.5l-20 -144 q-2 -14 -8 -19t-20 -5h-906zM520 1681q-13 0 -20 8.5t-5 21.5l16 113q1 13 10.5 21.5t23.5 8.5h523q13 0 20.5 -8t5.5 -22l-16 -113q-2 -14 -11.5 -22t-23.5 -8h-523z" glyph-name="Imacron" unicode="Ī" vert-adv-y="1980"/>
<glyph d="M1182 1340q13 0 22 -11t7 -25l-20 -144q-1 -13 -7.5 -18.5t-20.5 -5.5h-344l-131 -932h334q14 0 23 -11.5t7 -24.5l-20 -144q-2 -13 -8 -18.5t-19 -5.5q-95 0 -152 -33.5t-57 -97.5q0 -101 140 -101h32q20 0 17 -20l-14 -100q-3 -20 -23 -20h-68q-103 0 -177.5 46 t-74.5 156q0 105 75 170h-605q-13 0 -22.5 11.5t-7.5 24.5l20 144q2 13 8.5 18.5t19.5 5.5h344l132 932h-335q-13 0 -22.5 11.5t-7.5 25.5l21 143q1 13 7.5 18.5t20.5 5.5h906z" glyph-name="Iogonek" unicode="Į" vert-adv-y="1980"/>
<glyph d="M1186 761q15 0 22.5 -8t5.5 -24l-22 -145q-4 -28 -34 -28q-47 0 -129 -2q-46 -336 -187 -500t-388 -164q-132 0 -222.5 44t-136.5 124t-46 186q0 134 75.5 243t249.5 181.5t458 88.5l52 379h-550q-13 0 -20.5 8t-5.5 22l20 144q2 14 11.5 22t22.5 8h744q15 0 22 -8t5 -23 l-76 -548h129zM687.5 215q77.5 109 113.5 327q-266 -24 -393.5 -90.5t-127.5 -181.5q0 -77 53 -120.5t142 -43.5q135 0 212.5 109z" glyph-name="J" unicode="J" vert-adv-y="1980"/>
<glyph d="M1219 1340q11 0 17 -4t6 -11q0 -9 -12 -21l-550 -577l404 -691q4 -7 4 -15q0 -10 -7 -15.5t-20 -5.5h-185q-12 0 -19.5 4t-13.5 14l-320 544l-195 -204l-46 -328q-2 -14 -11.5 -22t-22.5 -8h-167q-14 0 -21 8.5t-5 21.5l180 1280q2 14 11.5 22t22.5 8h167q14 0 21 -8.5 t5 -21.5l-89 -636l603 650q15 16 38 16h205z" glyph-name="K" unicode="K" vert-adv-y="1980"/>
<glyph d="M1219 1340q11 0 17 -4t6 -11q0 -9 -12 -21l-550 -577l404 -691q4 -7 4 -15q0 -10 -7 -15.5t-20 -5.5h-185q-12 0 -19.5 4t-13.5 14l-320 544l-195 -204l-46 -328q-2 -14 -11.5 -22t-22.5 -8h-167q-14 0 -21 8.5t-5 21.5l180 1280q2 14 11.5 22t22.5 8h167q14 0 21 -8.5 t5 -21.5l-89 -636l603 650q15 16 38 16h205zM699 -168q13 0 19.5 -7.5t4.5 -20.5l-9 -67q-19 -126 -43 -237t-48 -183q-7 -21 -35 -21h-110q-23 0 -23 19q0 6 1 10q42 193 58 332h-232q-12 0 -18.5 7.5t-5.5 20.5l17 119q2 13 11 20.5t21 7.5h392z" glyph-name="uni0136" unicode="Ķ" vert-adv-y="1980"/>
<glyph d="M1014 204q14 0 21 -8.5t5 -21.5l-20 -144q-2 -14 -11.5 -22t-22.5 -8h-821q-14 0 -21 8.5t-5 21.5l180 1280q2 14 11.5 22t22.5 8h168q14 0 21 -8.5t5 -21.5l-156 -1106h623z" glyph-name="L" unicode="L" vert-adv-y="1980"/>
<glyph d="M1014 204q14 0 21 -8.5t5 -21.5l-20 -144q-2 -14 -11.5 -22t-22.5 -8h-821q-14 0 -21 8.5t-5 21.5l180 1280q2 14 11.5 22t22.5 8h168q14 0 21 -8.5t5 -21.5l-156 -1106h623zM452 1523q-11 0 -18 4.5t-7 12.5q0 7 6 17l153 252q8 13 17 18.5t21 5.5h137q11 0 18 -4.5 t7 -12.5q0 -6 -6 -17l-153 -252q-8 -13 -17 -18.5t-21 -5.5h-137z" glyph-name="Lacute" unicode="Ĺ" vert-adv-y="1980"/>
<glyph d="M1014 204q14 0 21 -8.5t5 -21.5l-20 -144q-2 -14 -11.5 -22t-22.5 -8h-821q-14 0 -21 8.5t-5 21.5l180 1280q2 14 11.5 22t22.5 8h168q14 0 21 -8.5t5 -21.5l-156 -1106h623zM1084 1340q13 0 20 -8.5t5 -21.5l-10 -72q-19 -134 -45 -254t-52 -199q-8 -23 -38 -23h-119 q-25 0 -25 21q0 7 1 11q44 208 63 358h-251q-13 0 -20.5 8t-5.5 22l19 128q1 13 10.5 21.5t23.5 8.5h424z" glyph-name="Lcaron" unicode="Ľ" vert-adv-y="1980"/>
<glyph d="M1014 204q14 0 21 -8.5t5 -21.5l-20 -144q-2 -14 -11.5 -22t-22.5 -8h-821q-14 0 -21 8.5t-5 21.5l180 1280q2 14 11.5 22t22.5 8h168q14 0 21 -8.5t5 -21.5l-156 -1106h623zM699 -168q13 0 19.5 -7.5t4.5 -20.5l-9 -67q-19 -126 -43 -237t-48 -183q-7 -21 -35 -21h-110 q-23 0 -23 19q0 6 1 10q42 193 58 332h-232q-12 0 -18.5 7.5t-5.5 20.5l17 119q2 13 11 20.5t21 7.5h392z" glyph-name="uni013B" unicode="Ļ" vert-adv-y="1980"/>
<glyph d="M1014 204q14 0 21 -8.5t5 -21.5l-20 -144q-2 -14 -11.5 -22t-22.5 -8h-821q-14 0 -21 8.5t-5 21.5l180 1280q2 14 11.5 22t22.5 8h168q14 0 21 -8.5t5 -21.5l-156 -1106h623zM713 619q-43 25 -68 68t-25 94t25 93.5t68 67.5t94 25t94 -25t68 -67.5t25 -93.5t-25 -94 t-68 -68t-94 -25t-94 25z" glyph-name="Ldot" unicode="Ŀ" vert-adv-y="1980"/>
<glyph d="M1008 204q32 0 28 -32l-20 -144q-3 -28 -32 -28h-851q-31 0 -28 32l54 383l-54 -53q-11 -11 -20 -11q-8 0 -12 7t-4 20v144q0 22 16 38l109 106l99 706q3 28 32 28h168q31 0 28 -32l-63 -444l153 149q11 11 20 11q8 0 12 -7t4 -20v-142q0 -22 -16 -38l-208 -204l-66 -469 h651z" glyph-name="Lslash" unicode="Ł" vert-adv-y="1980"/>
<glyph d="M90 0q-14 0 -21 8.5t-5 21.5l180 1280q2 14 11.5 22t22.5 8h183q13 0 23 -5t11 -15l95 -968h12l367 968q4 10 14.5 15t23.5 5h184q14 0 21 -8.5t5 -21.5l-180 -1280q-2 -14 -11.5 -22t-22.5 -8h-132q-14 0 -21 8.5t-5 21.5l120 843h-14l-295 -750q-4 -11 -14.5 -17 t-23.5 -6h-116q-13 0 -21.5 6t-9.5 17l-84 750h-13l-119 -843q-2 -14 -11.5 -22t-22.5 -8h-131z" glyph-name="M" unicode="M" vert-adv-y="1980"/>
<glyph d="M1168 1340q14 0 21 -8.5t5 -21.5l-180 -1280q-1 -13 -10.5 -21.5t-23.5 -8.5h-199q-14 0 -23.5 5t-9.5 15q0 100 -28 202t-68.5 193.5t-110.5 229.5q-86 168 -125 262l-123 -877q-1 -13 -10.5 -21.5t-23.5 -8.5h-147q-13 0 -20.5 8t-5.5 22l180 1280q2 14 11.5 22t22.5 8 h200q14 0 24 -5t10 -15q0 -111 30 -223.5t73.5 -212t116.5 -245.5q8 -16 44 -88.5t63 -136.5l126 896q2 14 11.5 22t22.5 8h147z" glyph-name="N" unicode="N" vert-adv-y="1980"/>
<glyph d="M1168 1340q14 0 21 -8.5t5 -21.5l-180 -1280q-1 -13 -10.5 -21.5t-23.5 -8.5h-199q-14 0 -23.5 5t-9.5 15q0 100 -28 202t-68.5 193.5t-110.5 229.5q-86 168 -125 262l-123 -877q-1 -13 -10.5 -21.5t-23.5 -8.5h-147q-13 0 -20.5 8t-5.5 22l180 1280q2 14 11.5 22t22.5 8 h200q14 0 24 -5t10 -15q0 -111 30 -223.5t73.5 -212t116.5 -245.5q8 -16 44 -88.5t63 -136.5l126 896q2 14 11.5 22t22.5 8h147zM692 1544q-11 0 -18 4.5t-7 12.5q0 7 6 17l153 252q8 13 17 18.5t21 5.5h137q11 0 18 -4.5t7 -12.5q0 -6 -6 -17l-153 -252q-8 -13 -17 -18.5 t-21 -5.5h-137z" glyph-name="Nacute" unicode="Ń" vert-adv-y="1980"/>
<glyph d="M1168 1340q14 0 21 -8.5t5 -21.5l-180 -1280q-1 -13 -10.5 -21.5t-23.5 -8.5h-199q-14 0 -23.5 5t-9.5 15q0 100 -28 202t-68.5 193.5t-110.5 229.5q-86 168 -125 262l-123 -877q-1 -13 -10.5 -21.5t-23.5 -8.5h-147q-13 0 -20.5 8t-5.5 22l180 1280q2 14 11.5 22t22.5 8 h200q14 0 24 -5t10 -15q0 -111 30 -223.5t73.5 -212t116.5 -245.5q8 -16 44 -88.5t63 -136.5l126 896q2 14 11.5 22t22.5 8h147zM690 1542q-23 0 -34 16l-186 260q-6 9 -6 16q0 9 7.5 14.5t20.5 5.5h162q22 0 34 -16l125 -171l173 171q17 16 38 16h166q11 0 17 -4t6 -11 q0 -10 -11 -21l-259 -260q-9 -9 -18 -12.5t-20 -3.5h-215z" glyph-name="Ncaron" unicode="Ň" vert-adv-y="1980"/>
<glyph d="M1168 1340q14 0 21 -8.5t5 -21.5l-180 -1280q-1 -13 -10.5 -21.5t-23.5 -8.5h-199q-14 0 -23.5 5t-9.5 15q0 100 -28 202t-68.5 193.5t-110.5 229.5q-86 168 -125 262l-123 -877q-1 -13 -10.5 -21.5t-23.5 -8.5h-147q-13 0 -20.5 8t-5.5 22l180 1280q2 14 11.5 22t22.5 8 h200q14 0 24 -5t10 -15q0 -111 30 -223.5t73.5 -212t116.5 -245.5q8 -16 44 -88.5t63 -136.5l126 896q2 14 11.5 22t22.5 8h147zM699 -168q13 0 19.5 -7.5t4.5 -20.5l-9 -67q-19 -126 -43 -237t-48 -183q-7 -21 -35 -21h-110q-23 0 -23 19q0 6 1 10q42 193 58 332h-232 q-12 0 -18.5 7.5t-5.5 20.5l17 119q2 13 11 20.5t21 7.5h392z" glyph-name="uni0145" unicode="Ņ" vert-adv-y="1980"/>
<glyph d="M1168 1340q14 0 21 -8.5t5 -21.5l-185 -1316q-21 -148 -90 -237t-186.5 -128.5t-292.5 -39.5l18 206q152 0 240.5 50.5t104.5 154.5h-22q-14 0 -23.5 5t-9.5 15q0 100 -28 202t-68.5 193.5t-110.5 229.5q-86 168 -125 262l-123 -877q-1 -13 -10.5 -21.5t-23.5 -8.5h-147 q-13 0 -20.5 8t-5.5 22l180 1280q2 14 11.5 22t22.5 8h200q14 0 24 -5t10 -15q0 -111 30 -223.5t73.5 -212t116.5 -245.5q8 -16 44 -88.5t63 -136.5l126 896q2 14 11.5 22t22.5 8h147z" glyph-name="Eng" unicode="Ŋ" vert-adv-y="1980"/>
<glyph d="M1168 1340q14 0 21 -8.5t5 -21.5l-180 -1280q-1 -13 -10.5 -21.5t-23.5 -8.5h-199q-14 0 -23.5 5t-9.5 15q0 100 -28 202t-68.5 193.5t-110.5 229.5q-86 168 -125 262l-123 -877q-1 -13 -10.5 -21.5t-23.5 -8.5h-147q-13 0 -20.5 8t-5.5 22l180 1280q2 14 11.5 22t22.5 8 h200q14 0 24 -5t10 -15q0 -111 30 -223.5t73.5 -212t116.5 -245.5q8 -16 44 -88.5t63 -136.5l126 896q2 14 11.5 22t22.5 8h147zM826.5 1595.5q-37.5 20.5 -79.5 58.5q-36 31 -60.5 45.5t-57.5 14.5q-37 0 -62 -17t-37 -41q-8 -17 -24 -17h-57q-8 0 -12.5 4.5t-4.5 12.5 q0 5 1 8q24 88 83 134t142 46q54 0 91 -20t81 -58q35 -31 60 -46t58 -15q36 0 60.5 17t37.5 42q8 17 24 17h57q9 0 14 -5.5t3 -14.5q-17 -90 -79.5 -138t-145.5 -48q-55 0 -92.5 20.5z" glyph-name="Ntilde" unicode="Ñ" vert-adv-y="1980"/>
<glyph d="M239.5 104q-104.5 134 -104.5 370q0 91 15 191q48 325 194.5 510t386.5 185q202 0 307.5 -133.5t105.5 -369.5q0 -83 -16 -192q-49 -325 -195.5 -510t-386.5 -185q-202 0 -306.5 134zM720.5 244q67.5 56 116 163.5t71.5 257.5q12 81 12 149q0 104 -26 178t-74.5 112 t-113.5 38q-81 0 -148.5 -56t-115.5 -163t-72 -258q-12 -82 -12 -151q0 -155 57.5 -240.5t156.5 -85.5q81 0 148.5 56z" glyph-name="O" unicode="O" vert-adv-y="1980"/>
<glyph d="M239.5 104q-104.5 134 -104.5 370q0 91 15 191q48 325 194.5 510t386.5 185q202 0 307.5 -133.5t105.5 -369.5q0 -83 -16 -192q-49 -325 -195.5 -510t-386.5 -185q-202 0 -306.5 134zM720.5 244q67.5 56 116 163.5t71.5 257.5q12 81 12 149q0 104 -26 178t-74.5 112 t-113.5 38q-81 0 -148.5 -56t-115.5 -163t-72 -258q-12 -82 -12 -151q0 -155 57.5 -240.5t156.5 -85.5q81 0 148.5 56zM692 1544q-11 0 -18 4.5t-7 12.5q0 7 6 17l153 252q8 13 17 18.5t21 5.5h137q11 0 18 -4.5t7 -12.5q0 -6 -6 -17l-153 -252q-8 -13 -17 -18.5t-21 -5.5 h-137z" glyph-name="Oacute" unicode="Ó" vert-adv-y="1980"/>
<glyph d="M239.5 104q-104.5 134 -104.5 370q0 91 15 191q48 325 194.5 510t386.5 185q202 0 307.5 -133.5t105.5 -369.5q0 -83 -16 -192q-49 -325 -195.5 -510t-386.5 -185q-202 0 -306.5 134zM720.5 244q67.5 56 116 163.5t71.5 257.5q12 81 12 149q0 104 -26 178t-74.5 112 t-113.5 38q-81 0 -148.5 -56t-115.5 -163t-72 -258q-12 -82 -12 -151q0 -155 57.5 -240.5t156.5 -85.5q81 0 148.5 56zM690 1542q-23 0 -34 16l-186 260q-6 9 -6 16q0 9 7.5 14.5t20.5 5.5h162q22 0 34 -16l125 -171l173 171q17 16 38 16h166q11 0 17 -4t6 -11 q0 -10 -11 -21l-259 -260q-9 -9 -18 -12.5t-20 -3.5h-215z" glyph-name="uni01D1" unicode="Ǒ" vert-adv-y="1980"/>
<glyph d="M239.5 104q-104.5 134 -104.5 370q0 91 15 191q48 325 194.5 510t386.5 185q202 0 307.5 -133.5t105.5 -369.5q0 -83 -16 -192q-49 -325 -195.5 -510t-386.5 -185q-202 0 -306.5 134zM720.5 244q67.5 56 116 163.5t71.5 257.5q12 81 12 149q0 104 -26 178t-74.5 112 t-113.5 38q-81 0 -148.5 -56t-115.5 -163t-72 -258q-12 -82 -12 -151q0 -155 57.5 -240.5t156.5 -85.5q81 0 148.5 56zM461 1542q-11 0 -17 4t-6 11q0 10 11 21l259 260q9 9 18 12.5t20 3.5h216q11 0 19 -3.5t15 -12.5l185 -260q6 -9 6 -16q0 -9 -7.5 -14.5t-20.5 -5.5h-161 q-22 0 -34 16l-126 171l-173 -171q-17 -16 -38 -16h-166z" glyph-name="Ocircumflex" unicode="Ô" vert-adv-y="1980"/>
<glyph d="M239.5 104q-104.5 134 -104.5 370q0 91 15 191q48 325 194.5 510t386.5 185q202 0 307.5 -133.5t105.5 -369.5q0 -83 -16 -192q-49 -325 -195.5 -510t-386.5 -185q-202 0 -306.5 134zM720.5 244q67.5 56 116 163.5t71.5 257.5q12 81 12 149q0 104 -26 178t-74.5 112 t-113.5 38q-81 0 -148.5 -56t-115.5 -163t-72 -258q-12 -82 -12 -151q0 -155 57.5 -240.5t156.5 -85.5q81 0 148.5 56zM505.5 1657q-33.5 34 -33.5 83q0 47 34 80.5t81 33.5t81.5 -33.5t34.5 -80.5q0 -49 -34 -83t-82 -34t-81.5 34zM912 1657q-34 34 -34 83q0 47 34.5 80.5 t81.5 33.5t81 -33.5t34 -80.5q0 -49 -33.5 -83t-81.5 -34t-82 34z" glyph-name="Odieresis" unicode="Ö" vert-adv-y="1980"/>
<glyph d="M239.5 104q-104.5 134 -104.5 370q0 91 15 191q48 325 194.5 510t386.5 185q202 0 307.5 -133.5t105.5 -369.5q0 -83 -16 -192q-49 -325 -195.5 -510t-386.5 -185q-202 0 -306.5 134zM720.5 244q67.5 56 116 163.5t71.5 257.5q12 81 12 149q0 104 -26 178t-74.5 112 t-113.5 38q-81 0 -148.5 -56t-115.5 -163t-72 -258q-12 -82 -12 -151q0 -155 57.5 -240.5t156.5 -85.5q81 0 148.5 56zM713 1544q-12 0 -21 5.5t-17 18.5l-153 252q-6 11 -6 17q0 8 7 12.5t18 4.5h137q12 0 21 -5.5t17 -18.5l153 -252q6 -10 6 -17q0 -8 -7 -12.5t-18 -4.5 h-137z" glyph-name="Ograve" unicode="Ò" vert-adv-y="1980"/>
<glyph d="M239.5 104q-104.5 134 -104.5 370q0 91 15 191q48 325 194.5 510t386.5 185q202 0 307.5 -133.5t105.5 -369.5q0 -83 -16 -192q-49 -325 -195.5 -510t-386.5 -185q-202 0 -306.5 134zM720.5 244q67.5 56 116 163.5t71.5 257.5q12 81 12 149q0 104 -26 178t-74.5 112 t-113.5 38q-81 0 -148.5 -56t-115.5 -163t-72 -258q-12 -82 -12 -151q0 -155 57.5 -240.5t156.5 -85.5q81 0 148.5 56zM841 1544q-11 0 -18 4.5t-7 12.5q0 7 6 17l153 252q8 13 17 18.5t21 5.5h137q11 0 18 -4.5t7 -12.5q0 -6 -6 -17l-153 -252q-8 -13 -17 -18.5t-21 -5.5 h-137zM505 1544q-11 0 -18 4.5t-7 12.5q0 7 6 17l153 252q8 13 17 18.5t21 5.5h137q11 0 18 -4.5t7 -12.5q0 -6 -6 -17l-153 -252q-8 -13 -17 -18.5t-21 -5.5h-137z" glyph-name="Ohungarumlaut" unicode="Ő" vert-adv-y="1980"/>
<glyph d="M239.5 104q-104.5 134 -104.5 370q0 91 15 191q48 325 194.5 510t386.5 185q202 0 307.5 -133.5t105.5 -369.5q0 -83 -16 -192q-49 -325 -195.5 -510t-386.5 -185q-202 0 -306.5 134zM720.5 244q67.5 56 116 163.5t71.5 257.5q12 81 12 149q0 104 -26 178t-74.5 112 t-113.5 38q-81 0 -148.5 -56t-115.5 -163t-72 -258q-12 -82 -12 -151q0 -155 57.5 -240.5t156.5 -85.5q81 0 148.5 56zM520 1681q-13 0 -20 8.5t-5 21.5l16 113q1 13 10.5 21.5t23.5 8.5h523q13 0 20.5 -8t5.5 -22l-16 -113q-2 -14 -11.5 -22t-23.5 -8h-523z" glyph-name="Omacron" unicode="Ō" vert-adv-y="1980"/>
<glyph d="M1038.5 1226.5q105.5 -133.5 105.5 -369.5q0 -83 -16 -192q-38 -252 -135.5 -422.5t-253.5 -235.5l-1 -11q-21 0 -31 -1q-46 -16 -101 -22q-77 -34 -77 -108q0 -50 35.5 -75.5t104.5 -25.5h32q20 0 17 -20l-14 -99q-3 -20 -23 -20h-68q-103 0 -177.5 45.5t-74.5 155.5 q0 94 63 159q-143 38 -216.5 165t-73.5 323q0 83 16 192q48 325 194.5 510t386.5 185q202 0 307.5 -133.5zM920 814q0 104 -26 178t-74.5 112t-113.5 38q-81 0 -148.5 -56t-115.5 -163t-72 -258q-12 -82 -12 -151q0 -155 57.5 -240.5t156.5 -85.5q81 0 148.5 56t116 163.5 t71.5 257.5q12 81 12 149z" glyph-name="uni01EA" unicode="Ǫ" vert-adv-y="1980"/>
<glyph d="M1193 1460q24 0 24 -17q0 -9 -7 -19l-148 -231q81 -127 81 -337q0 -89 -15 -191q-49 -325 -195.5 -510t-386.5 -185q-134 0 -229 62l-90 -140q-13 -22 -37 -22h-103q-24 0 -24 17q0 9 7 19l147 229q-82 127 -82 338q0 90 15 192q48 325 194.5 510t386.5 185 q137 0 231 -63l91 141q13 22 37 22h103zM357 514q0 -70 15 -137l460 716q-52 49 -126 49q-81 0 -148.5 -56t-115.5 -163t-72 -258q-13 -79 -13 -151zM920 814q0 74 -14 136l-459 -715q52 -47 125 -47q81 0 148.5 56t116 163.5t71.5 257.5q12 81 12 149z" glyph-name="Oslash" unicode="Ø" vert-adv-y="1980"/>
<glyph d="M239.5 104q-104.5 134 -104.5 370q0 91 15 191q48 325 194.5 510t386.5 185q202 0 307.5 -133.5t105.5 -369.5q0 -83 -16 -192q-49 -325 -195.5 -510t-386.5 -185q-202 0 -306.5 134zM720.5 244q67.5 56 116 163.5t71.5 257.5q12 81 12 149q0 104 -26 178t-74.5 112 t-113.5 38q-81 0 -148.5 -56t-115.5 -163t-72 -258q-12 -82 -12 -151q0 -155 57.5 -240.5t156.5 -85.5q81 0 148.5 56zM826.5 1595.5q-37.5 20.5 -79.5 58.5q-36 31 -60.5 45.5t-57.5 14.5q-37 0 -62 -17t-37 -41q-8 -17 -24 -17h-57q-8 0 -12.5 4.5t-4.5 12.5q0 5 1 8 q24 88 83 134t142 46q54 0 91 -20t81 -58q35 -31 60 -46t58 -15q36 0 60.5 17t37.5 42q8 17 24 17h57q9 0 14 -5.5t3 -14.5q-17 -90 -79.5 -138t-145.5 -48q-55 0 -92.5 20.5z" glyph-name="Otilde" unicode="Õ" vert-adv-y="1980"/>
<glyph d="M525 0q-151 -1 -243.5 37t-138 128.5t-45.5 249.5q0 114 20 251q36 260 107.5 406.5t188 207.5t300.5 60h510q13 0 20.5 -8t5.5 -22l-21 -144q-2 -14 -11.5 -22t-22.5 -8h-282l-51 -356h239q13 0 20.5 -8t5.5 -22l-20 -143q-2 -14 -11.5 -22t-22.5 -8h-239l-53 -373h285 q14 0 20.5 -8t4.5 -22l-19 -144q-2 -13 -11.5 -21.5t-23.5 -8.5h-512zM685 1133q-108 0 -170.5 -33t-105.5 -132.5t-71 -301.5q-19 -132 -19 -222q0 -103 25.5 -154t74.5 -67.5t135 -15.5z" glyph-name="OE" unicode="Œ" vert-adv-y="1980"/>
<glyph d="M749 1340q441 0 441 -355q0 -48 -7 -96q-64 -451 -560 -451h-216l-57 -408q-2 -14 -11.5 -22t-22.5 -8h-167q-14 0 -21 8.5t-5 21.5l180 1280q2 14 11.5 22t22.5 8h412zM633 641q149 0 230.5 55t100.5 193q5 35 5 59q0 103 -66.5 145.5t-199.5 42.5h-197l-69 -495h196z " glyph-name="P" unicode="P" vert-adv-y="1980"/>
<glyph d="M707 1148q141 0 239 -46t148 -131t50 -202q0 -40 -6 -82q-19 -134 -88 -231.5t-185 -150.5t-273 -53h-277l-31 -224q-3 -28 -32 -28h-167q-31 0 -28 32l188 1340q3 28 32 28h167q31 0 28 -32l-31 -220h266zM926 762q0 99 -65.5 140.5t-188.5 41.5h-259l-69 -488h249 q293 0 329 257q4 36 4 49z" glyph-name="Thorn" unicode="Þ" vert-adv-y="1980"/>
<glyph d="M239.5 104q-104.5 134 -104.5 370q0 91 15 191q48 325 194.5 510t386.5 185q202 0 307.5 -133.5t105.5 -369.5q0 -83 -16 -192q-49 -325 -195.5 -510t-386.5 -185q-202 0 -306.5 134zM720.5 244q67.5 56 116 163.5t71.5 257.5q12 81 12 149q0 104 -26 178t-74.5 112 t-113.5 38q-81 0 -148.5 -56t-115.5 -163t-72 -258q-12 -82 -12 -151q0 -155 57.5 -240.5t156.5 -85.5q81 0 148.5 56zM833.5 -348q-50.5 12 -116.5 37t-114.5 37t-117.5 12q-32 0 -28 28l17 122q2 14 11 23t25 9q72 1 121.5 -10.5t116.5 -36.5q62 -24 112.5 -36.5 t120.5 -12.5q32 0 28 -28l-17 -122q-2 -14 -11 -22.5t-24 -9.5q-73 -2 -123.5 10z" glyph-name="Q" unicode="Q" vert-adv-y="1980"/>
<glyph d="M860 473l182 -436q3 -6 3 -12q0 -11 -9.5 -18t-23.5 -7h-159q-25 0 -35 24l-164 415q-11 -1 -36 -1h-216l-57 -408q-2 -14 -11.5 -22t-22.5 -8h-167q-14 0 -21 8.5t-5 21.5l180 1280q2 14 11.5 22t22.5 8h412q441 0 441 -355q0 -48 -7 -96q-46 -327 -318 -416zM964 948 q0 103 -66.5 145.5t-199.5 42.5h-197l-69 -495h196q149 0 230.5 55t100.5 193q5 35 5 59z" glyph-name="R" unicode="R" vert-adv-y="1980"/>
<glyph d="M860 473l182 -436q3 -6 3 -12q0 -11 -9.5 -18t-23.5 -7h-159q-25 0 -35 24l-164 415q-11 -1 -36 -1h-216l-57 -408q-2 -14 -11.5 -22t-22.5 -8h-167q-14 0 -21 8.5t-5 21.5l180 1280q2 14 11.5 22t22.5 8h412q441 0 441 -355q0 -48 -7 -96q-46 -327 -318 -416zM964 948 q0 103 -66.5 145.5t-199.5 42.5h-197l-69 -495h196q149 0 230.5 55t100.5 193q5 35 5 59zM692 1544q-11 0 -18 4.5t-7 12.5q0 7 6 17l153 252q8 13 17 18.5t21 5.5h137q11 0 18 -4.5t7 -12.5q0 -6 -6 -17l-153 -252q-8 -13 -17 -18.5t-21 -5.5h-137z" glyph-name="Racute" unicode="Ŕ" vert-adv-y="1980"/>
<glyph d="M860 473l182 -436q3 -6 3 -12q0 -11 -9.5 -18t-23.5 -7h-159q-25 0 -35 24l-164 415q-11 -1 -36 -1h-216l-57 -408q-2 -14 -11.5 -22t-22.5 -8h-167q-14 0 -21 8.5t-5 21.5l180 1280q2 14 11.5 22t22.5 8h412q441 0 441 -355q0 -48 -7 -96q-46 -327 -318 -416zM964 948 q0 103 -66.5 145.5t-199.5 42.5h-197l-69 -495h196q149 0 230.5 55t100.5 193q5 35 5 59zM690 1542q-23 0 -34 16l-186 260q-6 9 -6 16q0 9 7.5 14.5t20.5 5.5h162q22 0 34 -16l125 -171l173 171q17 16 38 16h166q11 0 17 -4t6 -11q0 -10 -11 -21l-259 -260q-9 -9 -18 -12.5 t-20 -3.5h-215z" glyph-name="Rcaron" unicode="Ř" vert-adv-y="1980"/>
<glyph d="M860 473l182 -436q3 -6 3 -12q0 -11 -9.5 -18t-23.5 -7h-159q-25 0 -35 24l-164 415q-11 -1 -36 -1h-216l-57 -408q-2 -14 -11.5 -22t-22.5 -8h-167q-14 0 -21 8.5t-5 21.5l180 1280q2 14 11.5 22t22.5 8h412q441 0 441 -355q0 -48 -7 -96q-46 -327 -318 -416zM964 948 q0 103 -66.5 145.5t-199.5 42.5h-197l-69 -495h196q149 0 230.5 55t100.5 193q5 35 5 59zM699 -168q13 0 19.5 -7.5t4.5 -20.5l-9 -67q-19 -126 -43 -237t-48 -183q-7 -21 -35 -21h-110q-23 0 -23 19q0 6 1 10q42 193 58 332h-232q-12 0 -18.5 7.5t-5.5 20.5l17 119 q2 13 11 20.5t21 7.5h392z" glyph-name="uni0156" unicode="Ŗ" vert-adv-y="1980"/>
<glyph d="M215 56q-118 86 -118 262q0 21 1 31q1 15 10.5 25t22.5 10h157q24 0 26 -29q2 -86 69.5 -134.5t193.5 -48.5q131 0 211.5 54.5t80.5 157.5q0 55 -27 91.5t-83 62t-150 47.5q-116 27 -199.5 68t-134 115t-50.5 188q0 126 62.5 217t176.5 139t266 48q206 0 318 -90 t103 -272q0 -15 -9 -23.5t-23 -8.5h-145q-26 0 -26 26q-1 77 -65.5 121.5t-177.5 44.5q-118 0 -189 -50t-71 -141q0 -72 55 -117.5t189 -76.5q128 -29 212.5 -66t138.5 -110t54 -195q0 -137 -68 -234.5t-191 -147.5t-287 -50q-215 0 -333 86z" glyph-name="S" unicode="S" vert-adv-y="1980"/>
<glyph d="M215 56q-118 86 -118 262q0 21 1 31q1 15 10.5 25t22.5 10h157q24 0 26 -29q2 -86 69.5 -134.5t193.5 -48.5q131 0 211.5 54.5t80.5 157.5q0 55 -27 91.5t-83 62t-150 47.5q-116 27 -199.5 68t-134 115t-50.5 188q0 126 62.5 217t176.5 139t266 48q206 0 318 -90 t103 -272q0 -15 -9 -23.5t-23 -8.5h-145q-26 0 -26 26q-1 77 -65.5 121.5t-177.5 44.5q-118 0 -189 -50t-71 -141q0 -72 55 -117.5t189 -76.5q128 -29 212.5 -66t138.5 -110t54 -195q0 -137 -68 -234.5t-191 -147.5t-287 -50q-215 0 -333 86zM691 1544q-11 0 -18 4.5 t-7 12.5q0 7 6 17l153 252q8 13 17 18.5t21 5.5h137q11 0 18 -4.5t7 -12.5q0 -6 -6 -17l-153 -252q-8 -13 -17 -18.5t-21 -5.5h-137z" glyph-name="Sacute" unicode="Ś" vert-adv-y="1980"/>
<glyph d="M215 56q-118 86 -118 262q0 21 1 31q1 15 10.5 25t22.5 10h157q24 0 26 -29q2 -86 69.5 -134.5t193.5 -48.5q131 0 211.5 54.5t80.5 157.5q0 55 -27 91.5t-83 62t-150 47.5q-116 27 -199.5 68t-134 115t-50.5 188q0 126 62.5 217t176.5 139t266 48q206 0 318 -90 t103 -272q0 -15 -9 -23.5t-23 -8.5h-145q-26 0 -26 26q-1 77 -65.5 121.5t-177.5 44.5q-118 0 -189 -50t-71 -141q0 -72 55 -117.5t189 -76.5q128 -29 212.5 -66t138.5 -110t54 -195q0 -137 -68 -234.5t-191 -147.5t-287 -50q-215 0 -333 86zM689 1542q-23 0 -34 16 l-186 260q-6 9 -6 16q0 9 7.5 14.5t20.5 5.5h162q22 0 34 -16l125 -171l173 171q17 16 38 16h166q11 0 17 -4t6 -11q0 -10 -11 -21l-259 -260q-9 -9 -18 -12.5t-20 -3.5h-215z" glyph-name="Scaron" unicode="Š" vert-adv-y="1980"/>
<glyph d="M1048 1270q112 -90 103 -272q0 -15 -9 -23.5t-23 -8.5h-145q-26 0 -26 26q-1 77 -65.5 121.5t-177.5 44.5q-118 0 -189 -50t-71 -141q0 -72 55 -117.5t189 -76.5q128 -29 212.5 -66t138.5 -110t54 -195q0 -130 -61 -224t-172.5 -146.5t-260.5 -60.5l-51 -42 q64 -6 107.5 -43t43.5 -96q0 -71 -39 -122t-104.5 -77t-142.5 -26q-37 0 -75 6q-18 3 -15 22l11 78q2 9 9 15t16 5q34 -4 51 -4q56 0 93 19t37 57q0 23 -23.5 39t-60.5 16q-38 0 -79 -17q-4 -2 -10 -2q-14 0 -12 16l11 78q1 14 13 24l66 58q-168 19 -258.5 104.5 t-90.5 239.5q0 20 1 30q1 15 10.5 25t22.5 10h157q24 0 26 -29q2 -86 69.5 -134.5t193.5 -48.5q131 0 211.5 54.5t80.5 157.5q0 55 -27 91.5t-83 62t-150 47.5q-116 27 -199.5 68t-134 115t-50.5 188q0 126 62.5 217t176.5 139t266 48q206 0 318 -90z" glyph-name="Scedilla" unicode="Ş" vert-adv-y="1980"/>
<glyph d="M215 56q-118 86 -118 262q0 21 1 31q1 15 10.5 25t22.5 10h157q24 0 26 -29q2 -86 69.5 -134.5t193.5 -48.5q131 0 211.5 54.5t80.5 157.5q0 55 -27 91.5t-83 62t-150 47.5q-116 27 -199.5 68t-134 115t-50.5 188q0 126 62.5 217t176.5 139t266 48q206 0 318 -90 t103 -272q0 -15 -9 -23.5t-23 -8.5h-145q-26 0 -26 26q-1 77 -65.5 121.5t-177.5 44.5q-118 0 -189 -50t-71 -141q0 -72 55 -117.5t189 -76.5q128 -29 212.5 -66t138.5 -110t54 -195q0 -137 -68 -234.5t-191 -147.5t-287 -50q-215 0 -333 86zM698 -168q13 0 19.5 -7.5 t4.5 -20.5l-9 -67q-19 -126 -43 -237t-48 -183q-7 -21 -35 -21h-110q-23 0 -23 19q0 6 1 10q42 193 58 332h-232q-12 0 -18.5 7.5t-5.5 20.5l17 119q2 13 11 20.5t21 7.5h392z" glyph-name="uni0218" unicode="Ș" vert-adv-y="1980"/>
<glyph d="M753 822q193 -25 298 -126.5t105 -280.5q0 -128 -53 -227.5t-156.5 -156.5t-249.5 -57q-175 0 -264 80.5t-89 227.5q0 13 2 45q1 28 31 28h126q30 0 28 -31q-3 -70 43 -110t128 -40q76 0 128 33t77 86.5t25 117.5q0 124 -93.5 182.5t-277.5 58.5q-18 0 -28 11t-8 25 l19 142l314 376h-270q-108 0 -159 -50.5t-67 -159.5l-136 -968q-4 -28 -32 -28h-167q-15 0 -22 8t-5 24l139 992q19 139 69.5 223t142.5 123.5t239 39.5h609q12 0 18.5 -5t6.5 -13q0 -10 -8 -19z" glyph-name="uni1E9E" unicode="ẞ" vert-adv-y="1980"/>
<glyph d="M991.5 1380q93.5 -40 139.5 -133t46 -253q0 -95 -19 -239l-17 -120q-35 -256 -107 -400t-190 -204.5t-302 -60.5q-152 0 -248.5 41t-143.5 129t-47 229q0 80 13 170l22 154q2 14 11.5 22t22.5 8h761l4 31q15 110 15 187q0 107 -27.5 163.5t-79 76.5t-135.5 20 q-86 0 -140.5 -15t-91.5 -55.5t-63 -116.5q-4 -13 -14.5 -19.5t-23.5 -6.5h-154q-24 0 -24 21q0 4 2 12q33 146 102.5 233.5t178 126.5t265.5 39q151 0 244.5 -40zM723.5 214q61.5 26 106.5 99.5t73 214.5h-575q-8 -57 -8 -114q0 -87 26.5 -136t80 -69.5t142.5 -20.5 q93 0 154.5 26z" glyph-name="uni018F" unicode="Ə" vert-adv-y="1980"/>
<glyph d="M462 0q-13 0 -20.5 8t-5.5 22l156 1106h-367q-13 0 -20.5 8t-5.5 22l20 144q2 14 11.5 22t22.5 8h961q14 0 21 -8.5t5 -21.5l-20 -144q-1 -13 -10.5 -21.5t-23.5 -8.5h-366l-156 -1106q-1 -13 -10.5 -21.5t-23.5 -8.5h-168z" glyph-name="T" unicode="T" vert-adv-y="1980"/>
<glyph d="M1214 1340q14 0 21 -8.5t5 -21.5l-20 -144q-1 -13 -10.5 -21.5t-23.5 -8.5h-366l-31 -217h207q14 0 21 -8.5t5 -21.5l-16 -114q-2 -14 -11.5 -22t-22.5 -8h-207l-101 -715q-1 -13 -10.5 -21.5t-23.5 -8.5h-168q-13 0 -20.5 8t-5.5 22l101 715h-207q-14 0 -21 8.5t-5 21.5 l16 114q2 14 11.5 22t22.5 8h207l31 217h-367q-13 0 -20.5 8t-5.5 22l20 144q2 14 11.5 22t22.5 8h961z" glyph-name="Tbar" unicode="Ŧ" vert-adv-y="1980"/>
<glyph d="M462 0q-13 0 -20.5 8t-5.5 22l156 1106h-367q-13 0 -20.5 8t-5.5 22l20 144q2 14 11.5 22t22.5 8h961q14 0 21 -8.5t5 -21.5l-20 -144q-1 -13 -10.5 -21.5t-23.5 -8.5h-366l-156 -1106q-1 -13 -10.5 -21.5t-23.5 -8.5h-168zM690 1542q-23 0 -34 16l-186 260q-6 9 -6 16 q0 9 7.5 14.5t20.5 5.5h162q22 0 34 -16l125 -171l173 171q17 16 38 16h166q11 0 17 -4t6 -11q0 -10 -11 -21l-259 -260q-9 -9 -18 -12.5t-20 -3.5h-215z" glyph-name="Tcaron" unicode="Ť" vert-adv-y="1980"/>
<glyph d="M462 0q-13 0 -20.5 8t-5.5 22l156 1106h-367q-13 0 -20.5 8t-5.5 22l20 144q2 14 11.5 22t22.5 8h961q14 0 21 -8.5t5 -21.5l-20 -144q-1 -13 -10.5 -21.5t-23.5 -8.5h-366l-156 -1106q-1 -13 -10.5 -21.5t-23.5 -8.5h-168zM549 -71q64 -6 107.5 -43t43.5 -96 q0 -71 -39 -122t-104.5 -77t-142.5 -26q-38 0 -75 6q-18 3 -15 22l11 78q2 9 9 15t16 5q34 -4 51 -4q56 0 93 19t37 57q0 23 -23.5 39t-60.5 16q-38 0 -79 -17q-4 -2 -10 -2q-14 0 -12 16l11 78q1 14 13 24l94 83h160z" glyph-name="uni0162" unicode="Ţ" vert-adv-y="1980"/>
<glyph d="M462 0q-13 0 -20.5 8t-5.5 22l156 1106h-367q-13 0 -20.5 8t-5.5 22l20 144q2 14 11.5 22t22.5 8h961q14 0 21 -8.5t5 -21.5l-20 -144q-1 -13 -10.5 -21.5t-23.5 -8.5h-366l-156 -1106q-1 -13 -10.5 -21.5t-23.5 -8.5h-168zM699 -168q13 0 19.5 -7.5t4.5 -20.5l-9 -67 q-19 -126 -43 -237t-48 -183q-7 -21 -35 -21h-110q-23 0 -23 19q0 6 1 10q42 193 58 332h-232q-12 0 -18.5 7.5t-5.5 20.5l17 119q2 13 11 20.5t21 7.5h392z" glyph-name="uni021A" unicode="Ț" vert-adv-y="1980"/>
<glyph d="M231.5 65q-110.5 95 -110.5 281q0 51 7 100l121 864q2 14 11.5 22t22.5 8h167q14 0 21 -8.5t5 -21.5l-118 -845q-5 -37 -5 -64q0 -102 56 -157.5t164 -55.5q124 0 199 72.5t94 204.5l118 845q2 14 11.5 22t22.5 8h168q14 0 21 -8.5t5 -21.5l-121 -864q-33 -236 -173 -356 t-371 -120q-205 0 -315.5 95z" glyph-name="U" unicode="U" vert-adv-y="1980"/>
<glyph d="M231.5 65q-110.5 95 -110.5 281q0 51 7 100l121 864q2 14 11.5 22t22.5 8h167q14 0 21 -8.5t5 -21.5l-118 -845q-5 -37 -5 -64q0 -102 56 -157.5t164 -55.5q124 0 199 72.5t94 204.5l118 845q2 14 11.5 22t22.5 8h168q14 0 21 -8.5t5 -21.5l-121 -864q-33 -236 -173 -356 t-371 -120q-205 0 -315.5 95zM692 1544q-11 0 -18 4.5t-7 12.5q0 7 6 17l153 252q8 13 17 18.5t21 5.5h137q11 0 18 -4.5t7 -12.5q0 -6 -6 -17l-153 -252q-8 -13 -17 -18.5t-21 -5.5h-137z" glyph-name="Uacute" unicode="Ú" vert-adv-y="1980"/>
<glyph d="M231.5 65q-110.5 95 -110.5 281q0 51 7 100l121 864q2 14 11.5 22t22.5 8h167q14 0 21 -8.5t5 -21.5l-118 -845q-5 -37 -5 -64q0 -102 56 -157.5t164 -55.5q124 0 199 72.5t94 204.5l118 845q2 14 11.5 22t22.5 8h168q14 0 21 -8.5t5 -21.5l-121 -864q-33 -236 -173 -356 t-371 -120q-205 0 -315.5 95zM615 1587q-64 36 -95.5 98t-28.5 138q2 31 34 31h85q26 0 28 -29q4 -52 42.5 -88.5t104.5 -36.5t110 35.5t64 89.5q11 29 36 29h93q25 0 25 -20q0 -7 -1 -11q-18 -77 -64.5 -138.5t-117.5 -97.5t-161 -36t-154 36z" glyph-name="Ubreve" unicode="Ŭ" vert-adv-y="1980"/>
<glyph d="M231.5 65q-110.5 95 -110.5 281q0 51 7 100l121 864q2 14 11.5 22t22.5 8h167q14 0 21 -8.5t5 -21.5l-118 -845q-5 -37 -5 -64q0 -102 56 -157.5t164 -55.5q124 0 199 72.5t94 204.5l118 845q2 14 11.5 22t22.5 8h168q14 0 21 -8.5t5 -21.5l-121 -864q-33 -236 -173 -356 t-371 -120q-205 0 -315.5 95zM690 1542q-23 0 -34 16l-186 260q-6 9 -6 16q0 9 7.5 14.5t20.5 5.5h162q22 0 34 -16l125 -171l173 171q17 16 38 16h166q11 0 17 -4t6 -11q0 -10 -11 -21l-259 -260q-9 -9 -18 -12.5t-20 -3.5h-215z" glyph-name="uni01D3" unicode="Ǔ" vert-adv-y="1980"/>
<glyph d="M231.5 65q-110.5 95 -110.5 281q0 51 7 100l121 864q2 14 11.5 22t22.5 8h167q14 0 21 -8.5t5 -21.5l-118 -845q-5 -37 -5 -64q0 -102 56 -157.5t164 -55.5q124 0 199 72.5t94 204.5l118 845q2 14 11.5 22t22.5 8h168q14 0 21 -8.5t5 -21.5l-121 -864q-33 -236 -173 -356 t-371 -120q-205 0 -315.5 95zM461 1542q-11 0 -17 4t-6 11q0 10 11 21l259 260q9 9 18 12.5t20 3.5h216q11 0 19 -3.5t15 -12.5l185 -260q6 -9 6 -16q0 -9 -7.5 -14.5t-20.5 -5.5h-161q-22 0 -34 16l-126 171l-173 -171q-17 -16 -38 -16h-166z" glyph-name="Ucircumflex" unicode="Û" vert-adv-y="1980"/>
<glyph d="M231.5 65q-110.5 95 -110.5 281q0 51 7 100l121 864q2 14 11.5 22t22.5 8h167q14 0 21 -8.5t5 -21.5l-118 -845q-5 -37 -5 -64q0 -102 56 -157.5t164 -55.5q124 0 199 72.5t94 204.5l118 845q2 14 11.5 22t22.5 8h168q14 0 21 -8.5t5 -21.5l-121 -864q-33 -236 -173 -356 t-371 -120q-205 0 -315.5 95zM505.5 1657q-33.5 34 -33.5 83q0 47 34 80.5t81 33.5t81.5 -33.5t34.5 -80.5q0 -49 -34 -83t-82 -34t-81.5 34zM912 1657q-34 34 -34 83q0 47 34.5 80.5t81.5 33.5t81 -33.5t34 -80.5q0 -49 -33.5 -83t-81.5 -34t-82 34z" glyph-name="Udieresis" unicode="Ü" vert-adv-y="1980"/>
<glyph d="M231.5 65q-110.5 95 -110.5 281q0 51 7 100l121 864q2 14 11.5 22t22.5 8h167q14 0 21 -8.5t5 -21.5l-118 -845q-5 -37 -5 -64q0 -102 56 -157.5t164 -55.5q124 0 199 72.5t94 204.5l118 845q2 14 11.5 22t22.5 8h168q14 0 21 -8.5t5 -21.5l-121 -864q-33 -236 -173 -356 t-371 -120q-205 0 -315.5 95zM713 1544q-12 0 -21 5.5t-17 18.5l-153 252q-6 11 -6 17q0 8 7 12.5t18 4.5h137q12 0 21 -5.5t17 -18.5l153 -252q6 -10 6 -17q0 -8 -7 -12.5t-18 -4.5h-137z" glyph-name="Ugrave" unicode="Ù" vert-adv-y="1980"/>
<glyph d="M231.5 65q-110.5 95 -110.5 281q0 51 7 100l121 864q2 14 11.5 22t22.5 8h167q14 0 21 -8.5t5 -21.5l-118 -845q-5 -37 -5 -64q0 -102 56 -157.5t164 -55.5q124 0 199 72.5t94 204.5l118 845q2 14 11.5 22t22.5 8h168q14 0 21 -8.5t5 -21.5l-121 -864q-33 -236 -173 -356 t-371 -120q-205 0 -315.5 95zM841 1544q-11 0 -18 4.5t-7 12.5q0 7 6 17l153 252q8 13 17 18.5t21 5.5h137q11 0 18 -4.5t7 -12.5q0 -6 -6 -17l-153 -252q-8 -13 -17 -18.5t-21 -5.5h-137zM505 1544q-11 0 -18 4.5t-7 12.5q0 7 6 17l153 252q8 13 17 18.5t21 5.5h137 q11 0 18 -4.5t7 -12.5q0 -6 -6 -17l-153 -252q-8 -13 -17 -18.5t-21 -5.5h-137z" glyph-name="Uhungarumlaut" unicode="Ű" vert-adv-y="1980"/>
<glyph d="M231.5 65q-110.5 95 -110.5 281q0 51 7 100l121 864q2 14 11.5 22t22.5 8h167q14 0 21 -8.5t5 -21.5l-118 -845q-5 -37 -5 -64q0 -102 56 -157.5t164 -55.5q124 0 199 72.5t94 204.5l118 845q2 14 11.5 22t22.5 8h168q14 0 21 -8.5t5 -21.5l-121 -864q-33 -236 -173 -356 t-371 -120q-205 0 -315.5 95zM520 1681q-13 0 -20 8.5t-5 21.5l16 113q1 13 10.5 21.5t23.5 8.5h523q13 0 20.5 -8t5.5 -22l-16 -113q-2 -14 -11.5 -22t-23.5 -8h-523z" glyph-name="Umacron" unicode="Ū" vert-adv-y="1980"/>
<glyph d="M1186 1340q14 0 21 -8.5t5 -21.5l-121 -864q-26 -184 -117.5 -298t-242.5 -155q-72 -31 -110 -71.5t-38 -88.5q0 -42 26 -67t75 -25q25 0 48 5v-142q-43 -20 -103 -20q-58 0 -110 21t-85.5 67.5t-33.5 118.5q0 104 87 181q-177 14 -272 108t-95 265q0 43 8 101l121 864 q2 14 11.5 22t22.5 8h167q14 0 21 -8.5t5 -21.5l-118 -845q-5 -37 -5 -64q0 -102 56 -157.5t164 -55.5q124 0 199 72.5t94 204.5l118 845q2 14 11.5 22t22.5 8h168z" glyph-name="Uogonek" unicode="Ų" vert-adv-y="1980"/>
<glyph d="M231.5 65q-110.5 95 -110.5 281q0 51 7 100l121 864q2 14 11.5 22t22.5 8h167q14 0 21 -8.5t5 -21.5l-118 -845q-5 -37 -5 -64q0 -102 56 -157.5t164 -55.5q124 0 199 72.5t94 204.5l118 845q2 14 11.5 22t22.5 8h168q14 0 21 -8.5t5 -21.5l-121 -864q-33 -236 -173 -356 t-371 -120q-205 0 -315.5 95zM752 1501q-44 26 -69.5 69t-25.5 94t25.5 94.5t69.5 69.5t97 26t96.5 -26t69 -69.5t25.5 -94.5q0 -50 -25.5 -93.5t-69 -69.5t-96.5 -26t-97 26zM897 1617.5q20 18.5 20 45.5q0 29 -20 48.5t-48 19.5q-29 0 -48.5 -18.5t-19.5 -47.5 q0 -28 19.5 -47t48.5 -19q28 0 48 18.5z" glyph-name="Uring" unicode="Ů" vert-adv-y="1980"/>
<glyph d="M404 0q-12 0 -20.5 6t-10.5 18l-193 1282q-2 16 5.5 25t23.5 9h169q27 0 30 -24l150 -1081h37l455 1081q11 24 38 24h171q23 0 23 -18q0 -4 -4 -16l-553 -1282q-5 -12 -15.5 -18t-23.5 -6h-282z" glyph-name="V" unicode="V" vert-adv-y="1980"/>
<glyph d="M1255 1340q21 0 21 -19q0 -3 -2 -15l-341 -1282q-3 -11 -15.5 -17.5t-26.5 -6.5h-196q-13 0 -21.5 6.5t-9.5 17.5l-12 734l-218 -734q-4 -11 -15 -17.5t-24 -6.5h-197q-13 0 -23 6.5t-10 17.5l19 1282q0 34 29 34h152q30 0 30 -24l-35 -1024l277 904q7 24 37 24h86 q30 0 31 -24l23 -904l253 1024q3 12 13.5 18t24.5 6h150z" glyph-name="W" unicode="W" vert-adv-y="1980"/>
<glyph d="M1255 1340q21 0 21 -19q0 -3 -2 -15l-341 -1282q-3 -11 -15.5 -17.5t-26.5 -6.5h-196q-13 0 -21.5 6.5t-9.5 17.5l-12 734l-218 -734q-4 -11 -15 -17.5t-24 -6.5h-197q-13 0 -23 6.5t-10 17.5l19 1282q0 34 29 34h152q30 0 30 -24l-35 -1024l277 904q7 24 37 24h86 q30 0 31 -24l23 -904l253 1024q3 12 13.5 18t24.5 6h150zM692 1544q-11 0 -18 4.5t-7 12.5q0 7 6 17l153 252q8 13 17 18.5t21 5.5h137q11 0 18 -4.5t7 -12.5q0 -6 -6 -17l-153 -252q-8 -13 -17 -18.5t-21 -5.5h-137z" glyph-name="Wacute" unicode="Ẃ" vert-adv-y="1980"/>
<glyph d="M1255 1340q21 0 21 -19q0 -3 -2 -15l-341 -1282q-3 -11 -15.5 -17.5t-26.5 -6.5h-196q-13 0 -21.5 6.5t-9.5 17.5l-12 734l-218 -734q-4 -11 -15 -17.5t-24 -6.5h-197q-13 0 -23 6.5t-10 17.5l19 1282q0 34 29 34h152q30 0 30 -24l-35 -1024l277 904q7 24 37 24h86 q30 0 31 -24l23 -904l253 1024q3 12 13.5 18t24.5 6h150zM461 1542q-11 0 -17 4t-6 11q0 10 11 21l259 260q9 9 18 12.5t20 3.5h216q11 0 19 -3.5t15 -12.5l185 -260q6 -9 6 -16q0 -9 -7.5 -14.5t-20.5 -5.5h-161q-22 0 -34 16l-126 171l-173 -171q-17 -16 -38 -16h-166z " glyph-name="Wcircumflex" unicode="Ŵ" vert-adv-y="1980"/>
<glyph d="M1255 1340q21 0 21 -19q0 -3 -2 -15l-341 -1282q-3 -11 -15.5 -17.5t-26.5 -6.5h-196q-13 0 -21.5 6.5t-9.5 17.5l-12 734l-218 -734q-4 -11 -15 -17.5t-24 -6.5h-197q-13 0 -23 6.5t-10 17.5l19 1282q0 34 29 34h152q30 0 30 -24l-35 -1024l277 904q7 24 37 24h86 q30 0 31 -24l23 -904l253 1024q3 12 13.5 18t24.5 6h150zM505.5 1657q-33.5 34 -33.5 83q0 47 34 80.5t81 33.5t81.5 -33.5t34.5 -80.5q0 -49 -34 -83t-82 -34t-81.5 34zM912 1657q-34 34 -34 83q0 47 34.5 80.5t81.5 33.5t81 -33.5t34 -80.5q0 -49 -33.5 -83t-81.5 -34 t-82 34z" glyph-name="Wdieresis" unicode="Ẅ" vert-adv-y="1980"/>
<glyph d="M1255 1340q21 0 21 -19q0 -3 -2 -15l-341 -1282q-3 -11 -15.5 -17.5t-26.5 -6.5h-196q-13 0 -21.5 6.5t-9.5 17.5l-12 734l-218 -734q-4 -11 -15 -17.5t-24 -6.5h-197q-13 0 -23 6.5t-10 17.5l19 1282q0 34 29 34h152q30 0 30 -24l-35 -1024l277 904q7 24 37 24h86 q30 0 31 -24l23 -904l253 1024q3 12 13.5 18t24.5 6h150zM713 1544q-12 0 -21 5.5t-17 18.5l-153 252q-6 11 -6 17q0 8 7 12.5t18 4.5h137q12 0 21 -5.5t17 -18.5l153 -252q6 -10 6 -17q0 -8 -7 -12.5t-18 -4.5h-137z" glyph-name="Wgrave" unicode="Ẁ" vert-adv-y="1980"/>
<glyph d="M1223 1340q11 0 17.5 -4.5t6.5 -11.5q0 -8 -9 -20l-475 -621l312 -647q4 -7 4 -14q0 -10 -7.5 -16t-21.5 -6h-177q-23 0 -33 20l-226 468l-358 -468q-14 -20 -39 -20h-176q-11 0 -17.5 4.5t-6.5 11.5q0 8 9 20l494 646l-301 622q-4 10 -4 14q0 10 7.5 16t21.5 6h177 q24 0 34 -20l214 -443l339 443q14 20 38 20h177z" glyph-name="X" unicode="X" vert-adv-y="1980"/>
<glyph d="M1255 1340q23 0 23 -16q0 -9 -8 -20l-538 -785l-68 -489q-2 -13 -11.5 -21.5t-23.5 -8.5h-168q-13 0 -20 8.5t-5 21.5l69 490l-317 784q-3 8 -3 14q0 10 7.5 16t20.5 6h176q26 0 33 -20l227 -585l390 585q13 20 39 20h177z" glyph-name="Y" unicode="Y" vert-adv-y="1980"/>
<glyph d="M1255 1340q23 0 23 -16q0 -9 -8 -20l-538 -785l-68 -489q-2 -13 -11.5 -21.5t-23.5 -8.5h-168q-13 0 -20 8.5t-5 21.5l69 490l-317 784q-3 8 -3 14q0 10 7.5 16t20.5 6h176q26 0 33 -20l227 -585l390 585q13 20 39 20h177zM692 1544q-11 0 -18 4.5t-7 12.5q0 7 6 17 l153 252q8 13 17 18.5t21 5.5h137q11 0 18 -4.5t7 -12.5q0 -6 -6 -17l-153 -252q-8 -13 -17 -18.5t-21 -5.5h-137z" glyph-name="Yacute" unicode="Ý" vert-adv-y="1980"/>
<glyph d="M1255 1340q23 0 23 -16q0 -9 -8 -20l-538 -785l-68 -489q-2 -13 -11.5 -21.5t-23.5 -8.5h-168q-13 0 -20 8.5t-5 21.5l69 490l-317 784q-3 8 -3 14q0 10 7.5 16t20.5 6h176q26 0 33 -20l227 -585l390 585q13 20 39 20h177zM461 1542q-11 0 -17 4t-6 11q0 10 11 21 l259 260q9 9 18 12.5t20 3.5h216q11 0 19 -3.5t15 -12.5l185 -260q6 -9 6 -16q0 -9 -7.5 -14.5t-20.5 -5.5h-161q-22 0 -34 16l-126 171l-173 -171q-17 -16 -38 -16h-166z" glyph-name="Ycircumflex" unicode="Ŷ" vert-adv-y="1980"/>
<glyph d="M1255 1340q23 0 23 -16q0 -9 -8 -20l-538 -785l-68 -489q-2 -13 -11.5 -21.5t-23.5 -8.5h-168q-13 0 -20 8.5t-5 21.5l69 490l-317 784q-3 8 -3 14q0 10 7.5 16t20.5 6h176q26 0 33 -20l227 -585l390 585q13 20 39 20h177zM505.5 1657q-33.5 34 -33.5 83q0 47 34 80.5 t81 33.5t81.5 -33.5t34.5 -80.5q0 -49 -34 -83t-82 -34t-81.5 34zM912 1657q-34 34 -34 83q0 47 34.5 80.5t81.5 33.5t81 -33.5t34 -80.5q0 -49 -33.5 -83t-81.5 -34t-82 34z" glyph-name="Ydieresis" unicode="Ÿ" vert-adv-y="1980"/>
<glyph d="M1255 1340q23 0 23 -16q0 -9 -8 -20l-538 -785l-68 -489q-2 -13 -11.5 -21.5t-23.5 -8.5h-168q-13 0 -20 8.5t-5 21.5l69 490l-317 784q-3 8 -3 14q0 10 7.5 16t20.5 6h176q26 0 33 -20l227 -585l390 585q13 20 39 20h177zM713 1544q-12 0 -21 5.5t-17 18.5l-153 252 q-6 11 -6 17q0 8 7 12.5t18 4.5h137q12 0 21 -5.5t17 -18.5l153 -252q6 -10 6 -17q0 -8 -7 -12.5t-18 -4.5h-137z" glyph-name="Ygrave" unicode="Ỳ" vert-adv-y="1980"/>
<glyph d="M1160 1340q14 0 21 -8.5t5 -21.5l-25 -174l-783 -890q54 27 118 27q51 0 98 -14t119 -42q69 -28 118 -42t101 -14q39 0 70 12q12 6 22 6q28 0 22 -28l-14 -71q-23 -115 -148 -115q-52 0 -105.5 16t-137.5 48q-88 34 -147 51.5t-118 17.5q-69 0 -117 -23t-102 -64 q-4 -3 -22 -17t-33 -19q-4 -2 -12 -2q-10 0 -16.5 8t-4.5 19l27 183q3 20 19 39l802 914h-637q-13 0 -20.5 8t-5.5 22l20 144q2 14 11.5 22t22.5 8h852z" glyph-name="Z" unicode="Z" vert-adv-y="1980"/>
<glyph d="M1160 1340q14 0 21 -8.5t5 -21.5l-25 -174l-783 -890q54 27 118 27q51 0 98 -14t119 -42q69 -28 118 -42t101 -14q39 0 70 12q12 6 22 6q28 0 22 -28l-14 -71q-23 -115 -148 -115q-52 0 -105.5 16t-137.5 48q-88 34 -147 51.5t-118 17.5q-69 0 -117 -23t-102 -64 q-4 -3 -22 -17t-33 -19q-4 -2 -12 -2q-10 0 -16.5 8t-4.5 19l27 183q3 20 19 39l802 914h-637q-13 0 -20.5 8t-5.5 22l20 144q2 14 11.5 22t22.5 8h852zM692 1544q-11 0 -18 4.5t-7 12.5q0 7 6 17l153 252q8 13 17 18.5t21 5.5h137q11 0 18 -4.5t7 -12.5q0 -6 -6 -17 l-153 -252q-8 -13 -17 -18.5t-21 -5.5h-137z" glyph-name="Zacute" unicode="Ź" vert-adv-y="1980"/>
<glyph d="M1160 1340q14 0 21 -8.5t5 -21.5l-25 -174l-783 -890q54 27 118 27q51 0 98 -14t119 -42q69 -28 118 -42t101 -14q39 0 70 12q12 6 22 6q28 0 22 -28l-14 -71q-23 -115 -148 -115q-52 0 -105.5 16t-137.5 48q-88 34 -147 51.5t-118 17.5q-69 0 -117 -23t-102 -64 q-4 -3 -22 -17t-33 -19q-4 -2 -12 -2q-10 0 -16.5 8t-4.5 19l27 183q3 20 19 39l802 914h-637q-13 0 -20.5 8t-5.5 22l20 144q2 14 11.5 22t22.5 8h852zM690 1542q-23 0 -34 16l-186 260q-6 9 -6 16q0 9 7.5 14.5t20.5 5.5h162q22 0 34 -16l125 -171l173 171q17 16 38 16 h166q11 0 17 -4t6 -11q0 -10 -11 -21l-259 -260q-9 -9 -18 -12.5t-20 -3.5h-215z" glyph-name="Zcaron" unicode="Ž" vert-adv-y="1980"/>
<glyph d="M1160 1340q14 0 21 -8.5t5 -21.5l-25 -174l-783 -890q54 27 118 27q51 0 98 -14t119 -42q69 -28 118 -42t101 -14q39 0 70 12q12 6 22 6q28 0 22 -28l-14 -71q-23 -115 -148 -115q-52 0 -105.5 16t-137.5 48q-88 34 -147 51.5t-118 17.5q-69 0 -117 -23t-102 -64 q-4 -3 -22 -17t-33 -19q-4 -2 -12 -2q-10 0 -16.5 8t-4.5 19l27 183q3 20 19 39l802 914h-637q-13 0 -20.5 8t-5.5 22l20 144q2 14 11.5 22t22.5 8h852zM709.5 1657q-33.5 34 -33.5 83q0 47 34 80.5t81 33.5t81.5 -33.5t34.5 -80.5q0 -49 -34 -83t-82 -34t-81.5 34z" glyph-name="Zdotaccent" unicode="Ż" vert-adv-y="1980"/>
<glyph d="M1128 166q19 0 29.5 -19.5t10.5 -46.5q0 -48 -37 -81t-103 -33q-92 0 -152.5 65.5t-71.5 185.5l-3 34h-462l-101 -247q-9 -24 -38 -24h-170q-11 0 -17 5t-6 13t4 16l539 1282q4 12 14.5 18t22.5 6h282q13 0 22.5 -6.5t10.5 -17.5l119 -1040q7 -60 21 -87t49 -27 q13 0 28 3q3 1 9 1zM679 1105l-260 -638h363l-62 638h-41z" glyph-name="A.ss02" vert-adv-y="1980"/>
<glyph d="M1094 1271q0 -8 -1 -13l-23 -123q-3 -19 -23 -19q-8 0 -17 3q-50 17 -117 29.5t-134 12.5q-95 0 -147.5 -32.5t-52.5 -98.5q0 -65 57 -107t186 -42h118q17 0 24.5 -8t5.5 -22l-24 -131q-5 -29 -37 -29h-148q-170 0 -264 -66.5t-94 -186.5t95 -185.5t266 -65.5 q68 0 130 10t110 28q8 3 14 3q10 0 14.5 -7.5t3.5 -20.5l-16 -115q-3 -23 -12 -37.5t-28 -24.5q-49 -25 -129 -39t-165 -14q-158 0 -275.5 50.5t-181.5 146t-64 226.5q0 111 46 198t123.5 141t173.5 74l4 17q-73 34 -113 93t-40 141q0 94 51.5 162.5t145.5 104.5t218 36 q90 0 171 -17.5t134 -44.5q15 -9 15 -27z" glyph-name="E.ss02" vert-adv-y="1980"/>
<glyph d="M202 -78q-66 32 -95.5 82.5t-29.5 109.5q0 40 12 74q7 22 34 22h139q16 0 21.5 -8.5t5.5 -27.5q0 -68 113 -68q151 0 261.5 126t167 309t56.5 345q0 138 -42 197t-115 59q-69 0 -106 -47t-37 -140q0 -73 23 -170.5t57 -175.5q4 -8 4 -17q0 -18 -17 -24l-131 -44 q-9 -3 -15 -3q-18 0 -27 17q-49 85 -82 200t-33 221q0 122 46 213t130.5 139.5t199.5 48.5q159 0 266 -103.5t107 -350.5q0 -232 -92 -468.5t-262 -392t-390 -155.5q-103 0 -169 32z" glyph-name="I.ss02" vert-adv-y="1980"/>
<glyph d="M355 8.5q-101 38.5 -163.5 115t-62.5 186.5q0 83 30 153q8 22 35 22h127q25 0 25 -21q0 -8 -2 -13q-11 -35 -11 -69q0 -62 31.5 -109.5t89.5 -74t133 -26.5q72 0 133.5 23t98.5 70.5t37 116.5q0 63 -29.5 112t-73.5 85t-119 87q-85 59 -136 102.5t-86.5 107t-35.5 148.5 q0 102 53.5 178t146 117t207.5 41q91 0 178.5 -27t152.5 -81q14 -14 14 -28q0 -3 -2 -13l-42 -125q-6 -20 -22 -20q-7 0 -19 7q-61 40 -127 62.5t-131 22.5q-84 0 -135.5 -38.5t-51.5 -104.5q0 -44 24.5 -80t61.5 -64.5t104 -70.5q93 -60 150.5 -107.5t99.5 -123t42 -179.5 q0 -132 -71 -227t-187 -144t-250 -49q-116 0 -217 38.5z" glyph-name="S.ss02" vert-adv-y="1980"/>
<glyph d="M309.5 -8.5q-86.5 21.5 -147.5 60.5q-11 7 -11 20q0 9 5 21l50 112q9 18 26 18q6 0 14 -3q117 -52 246 -52q143 0 243.5 66t123.5 217l44 288h-21q-155 -317 -387 -317q-75 0 -132 31.5t-89 93t-32 148.5q0 49 10 100l51 275q7 40 7 60q0 27 -11 40.5t-37 13.5 q-13 0 -29 -3q-3 -1 -9 -1q-12 0 -19.5 9t-7.5 26q0 4 2 18q9 53 52 90t104 37q49 0 90 -22.5t65.5 -66.5t24.5 -104q0 -33 -5 -58l-48 -262q-9 -46 -9 -84q0 -74 31 -112.5t86 -38.5q84 0 161.5 83.5t138 242t92.5 374.5q4 28 32 28h166q32 0 28 -32l-126 -890 q-24 -168 -115 -268t-213 -140t-255 -40q-103 0 -189.5 21.5z" glyph-name="Y.ss02" vert-adv-y="1980"/>
<glyph d="M1217 34q3 -15 -5 -24.5t-24 -9.5h-173q-26 0 -30 24l-47 247h-586l-116 -247q-11 -24 -38 -24h-177q-11 0 -17 5t-6 13t4 16l612 1282q14 24 39 24h282q12 0 20.5 -6t10.5 -18zM744 1105l-300 -638h456l-122 638h-34z" glyph-name="A.ss05" horiz-adv-x="1349" vert-adv-y="1980"/>
<glyph d="M451.5 45q-154.5 75 -241.5 217.5t-87 336.5q0 188 81.5 362.5t247.5 286.5t405 112q177 0 289 -71.5t112 -227.5q0 -66 -22 -145q-7 -26 -34 -26h-149q-26 0 -26 24q0 7 1 11q10 40 10 75q0 79 -53 110.5t-143 31.5q-166 0 -277.5 -78.5t-163.5 -198t-52 -244.5 q0 -140 65 -236.5t182.5 -145t275.5 -48.5q67 0 135.5 9.5t113.5 26.5q8 3 15 3q9 0 13.5 -7t3.5 -20l-16 -118q-3 -23 -12 -37.5t-28 -24.5q-50 -25 -129 -39t-163 -14q-199 0 -353.5 75z" glyph-name="C.ss05" horiz-adv-x="1314" vert-adv-y="1980"/>
<glyph d="M110 0q-13 0 -20 8t-5 22l180 1280q2 14 11.5 22t22.5 8h443q206 0 343.5 -71.5t204.5 -202.5t67 -313q0 -225 -99 -395.5t-281.5 -264t-423.5 -93.5h-443zM572 204q175 0 300.5 67t191 188t65.5 283q0 197 -104.5 295.5t-321.5 98.5h-235l-132 -932h236z" glyph-name="D.ss05" horiz-adv-x="1430" vert-adv-y="1980"/>
<glyph d="M1242 698.5q7 -8.5 5 -22.5l-81 -573q-4 -24 -13 -38.5t-28 -24.5q-58 -29 -146.5 -49.5t-190.5 -20.5q-190 0 -341.5 75t-238 216t-86.5 333q0 186 82 362.5t248.5 290t406.5 113.5q174 0 283.5 -70t109.5 -222q0 -62 -21 -140q-6 -26 -33 -26h-148q-26 0 -26 24 q0 7 1 11q11 42 11 71q0 74 -53.5 104t-142.5 30q-166 0 -277 -77.5t-163.5 -199.5t-52.5 -255q0 -134 53 -228.5t154.5 -144t245.5 -49.5q97 0 180 23l44 315h-278q-13 0 -20.5 8t-5.5 22l17 121q2 14 12 22t23 8h449q14 0 21 -8.5z" glyph-name="G.ss05" horiz-adv-x="1341" vert-adv-y="1980"/>
<glyph d="M1115 276q-5 -37 -5 -58q0 -28 10.5 -42t35.5 -14q13 0 29 3q3 1 9 1q12 0 19.5 -9t7.5 -26q0 -4 -2 -18q-9 -53 -51.5 -90t-103.5 -37q-52 0 -94.5 23.5t-67 69t-24.5 109.5q0 15 4 49l27 194h-526l-56 -401q-2 -14 -11.5 -22t-22.5 -8h-167q-14 0 -21 8.5t-5 21.5 l56 401h-73q-15 0 -22 8t-5 24l20 144q4 28 32 28h77l95 675q2 14 11.5 22t22.5 8h167q14 0 21 -8.5t5 -21.5l-95 -675h526l95 675q2 14 11.5 22t22.5 8h167q14 0 21 -8.5t5 -21.5z" glyph-name="H.ss05" horiz-adv-x="1307" vert-adv-y="1980"/>
<glyph d="M990 204q14 0 21 -8.5t5 -21.5l-20 -144q-2 -14 -11.5 -22t-22.5 -8h-851q-14 0 -21 8.5t-5 21.5l180 1280q2 14 11.5 22t22.5 8h167q14 0 21 -8.5t5 -21.5l-156 -1106h654z" glyph-name="L.ss05" horiz-adv-x="1162" vert-adv-y="1980"/>
<glyph d="M1680 1331.5q7 -8.5 5 -21.5l-180 -1280q-2 -13 -11.5 -21.5t-23.5 -8.5h-168q-13 0 -20 8.5t-5 21.5l121 863l-488 -870q-13 -23 -39 -23h-160q-24 0 -31 23l-247 871l-121 -864q-2 -14 -11.5 -22t-23.5 -8h-167q-13 0 -20 8t-5 22l180 1280q2 14 11.5 22t22.5 8h199 q27 0 33 -20l294 -1061l591 1061q11 20 39 20h204q14 0 21 -8.5z" glyph-name="M.ss05" horiz-adv-x="1720" vert-adv-y="1980"/>
<glyph d="M1269 1340q14 0 21 -8.5t5 -21.5l-180 -1280q-2 -14 -11.5 -22t-22.5 -8h-198q-14 0 -24 5t-10 15q0 100 -34 200t-84 189.5t-135 225.5q-59 92 -101 163t-76 142l-128 -910q-2 -14 -11.5 -22t-22.5 -8h-146q-14 0 -21 8.5t-5 21.5l180 1280q2 14 11.5 22t22.5 8h200 q14 0 24 -5t10 -15q0 -111 36.5 -222t90.5 -209.5t143 -241.5q58 -95 91.5 -151.5t63.5 -115.5l131 930q2 14 11.5 22t22.5 8h146z" glyph-name="N.ss05" horiz-adv-x="1330" vert-adv-y="1980"/>
<glyph d="M407 51.5q-137 77.5 -213 214t-76 309.5q0 210 106.5 390.5t286.5 287.5t390 107q176 0 312.5 -77.5t212 -214.5t75.5 -310q0 -210 -105.5 -390.5t-285 -287t-390.5 -106.5q-176 0 -313 77.5zM1010 266q121 74 191.5 198.5t70.5 268.5q0 119 -49 212t-139 145t-208 52 q-145 0 -266 -74t-192 -199t-71 -270q0 -119 49.5 -211.5t139.5 -144t209 -51.5q144 0 265 74z" glyph-name="O.ss05" horiz-adv-x="1572" vert-adv-y="1980"/>
<glyph d="M711 1340q441 0 441 -355q0 -48 -7 -96q-64 -451 -560 -451h-216l-57 -408q-2 -14 -11.5 -22t-22.5 -8h-167q-14 0 -21 8.5t-5 21.5l180 1280q2 14 11.5 22t22.5 8h412zM595 641q149 0 230.5 55t100.5 193q5 35 5 59q0 103 -66.5 145.5t-199.5 42.5h-197l-69 -495h196z " glyph-name="P.ss05" horiz-adv-x="1200" vert-adv-y="1980"/>
<glyph d="M407 51.5q-137 77.5 -213 214t-76 309.5q0 210 106.5 390.5t286.5 287.5t390 107q176 0 312.5 -77.5t212 -214.5t75.5 -310q0 -210 -105.5 -390.5t-285 -287t-390.5 -106.5q-176 0 -313 77.5zM1010 266q121 74 191.5 198.5t70.5 268.5q0 119 -49 212t-139 145t-208 52 q-145 0 -266 -74t-192 -199t-71 -270q0 -119 49.5 -211.5t139.5 -144t209 -51.5q144 0 265 74zM903.5 -348q-50.5 12 -116.5 37t-114.5 37t-117.5 12q-32 0 -28 28l17 122q2 14 11 23t25 9q72 1 121.5 -10.5t116.5 -36.5q62 -24 112.5 -36.5t120.5 -12.5q32 0 28 -28 l-17 -122q-2 -14 -11 -22.5t-24 -9.5q-73 -2 -123.5 10z" glyph-name="Q.ss05" horiz-adv-x="1572" vert-adv-y="1980"/>
<glyph d="M856 483l186 -446q3 -6 3 -12q0 -11 -9.5 -18t-23.5 -7h-159q-25 0 -35 24l-164 416q-44 -2 -69 -2h-215l-58 -408q-2 -14 -11.5 -22t-22.5 -8h-167q-14 0 -21 8.5t-5 21.5l180 1280q2 14 11.5 22t22.5 8h413q440 0 440 -354q0 -49 -7 -97q-44 -308 -289 -406zM931 947 q0 104 -66 146.5t-200 42.5h-197l-69 -495h197q149 0 230 55t101 193q4 28 4 58z" glyph-name="R.ss05" horiz-adv-x="1221" vert-adv-y="1980"/>
<glyph d="M478 0q-13 0 -20.5 8t-5.5 22l156 1106h-397q-13 0 -20.5 8t-5.5 22l20 144q1 13 10.5 21.5t23.5 8.5h1021q13 0 20.5 -8t5.5 -22l-20 -144q-2 -14 -11.5 -22t-22.5 -8h-397l-156 -1106q-1 -13 -10.5 -21.5t-23.5 -8.5h-167z" glyph-name="T.ss05" horiz-adv-x="1262" vert-adv-y="1980"/>
<glyph d="M360.5 20q-109.5 50 -168.5 146t-59 232q0 49 7 95l115 817q1 13 10.5 21.5t23.5 8.5h167q13 0 20.5 -8t5.5 -22l-111 -790q-5 -37 -5 -64q0 -125 75 -196.5t212 -71.5q153 0 249 89t117 243l112 790q1 13 10.5 21.5t23.5 8.5h167q13 0 20.5 -8t5.5 -22l-115 -817 q-23 -165 -107.5 -282.5t-217 -179t-298.5 -61.5q-150 0 -259.5 50z" glyph-name="U.ss05" horiz-adv-x="1383" vert-adv-y="1980"/>
<glyph d="M463 0q-25 0 -31 24l-251 1282q-3 15 5 24.5t24 9.5h174q13 0 20 -5.5t10 -18.5l206 -1081h34l508 1081q12 24 38 24h177q11 0 17 -5t6 -13t-4 -16l-612 -1282q-5 -12 -15.5 -18t-23.5 -6h-282z" glyph-name="V.ss05" horiz-adv-x="1349" vert-adv-y="1980"/>
<glyph d="M1493 1322q0 -7 -3 -16l-476 -1282q-4 -11 -15.5 -17.5t-24.5 -6.5h-301q-13 0 -22.5 6.5t-10.5 17.5l-115 1282q-2 16 5.5 25t23.5 9h234q29 0 30 -24l68 -873l318 873q9 24 38 24h229q22 0 22 -18z" glyph-name="W.ss05" horiz-adv-x="1787" vert-adv-y="1980"/>
<glyph d="M1223 1340q11 0 17.5 -4.5t6.5 -11.5q0 -8 -9 -20l-475 -621l312 -647q4 -7 4 -14q0 -10 -7.5 -16t-21.5 -6h-177q-23 0 -33 20l-226 468l-358 -468q-14 -20 -39 -20h-176q-11 0 -17.5 4.5t-6.5 11.5q0 8 9 20l494 646l-301 622q-4 10 -4 14q0 10 7.5 16t21.5 6h177 q24 0 34 -20l214 -443l339 443q14 20 38 20h177z" glyph-name="X.ss05" vert-adv-y="1980"/>
<glyph d="M1111 166q12 0 19 -9t7 -26q0 -4 -2 -18q-9 -53 -51.5 -90t-104.5 -37q-74 0 -119 53t-45 150q0 23 3 48l14 122h-20q-84 -190 -185.5 -287.5t-234.5 -97.5q-88 0 -153.5 42t-101.5 124t-36 201q0 182 83 335.5t235.5 244.5t351.5 91q105 0 201 -26t148 -77l-68 -482 l-21 -151q-5 -37 -5 -57q0 -29 10.5 -43t36.5 -14q13 0 29 3q3 1 9 1zM670.5 274q86.5 103 143 243.5t78.5 256.5q-22 21 -65 30.5t-91 9.5q-124 0 -220 -58.5t-148.5 -156.5t-52.5 -213q0 -112 47 -163.5t119 -51.5q103 0 189.5 103z" glyph-name="a" unicode="a" vert-adv-y="1980"/>
<glyph d="M1111 166q12 0 19 -9t7 -26q0 -4 -2 -18q-9 -53 -51.5 -90t-104.5 -37q-74 0 -119 53t-45 150q0 23 3 48l14 122h-20q-84 -190 -185.5 -287.5t-234.5 -97.5q-88 0 -153.5 42t-101.5 124t-36 201q0 182 83 335.5t235.5 244.5t351.5 91q105 0 201 -26t148 -77l-68 -482 l-21 -151q-5 -37 -5 -57q0 -29 10.5 -43t36.5 -14q13 0 29 3q3 1 9 1zM670.5 274q86.5 103 143 243.5t78.5 256.5q-22 21 -65 30.5t-91 9.5q-124 0 -220 -58.5t-148.5 -156.5t-52.5 -213q0 -112 47 -163.5t119 -51.5q103 0 189.5 103zM636 1194q-11 0 -18 4.5t-7 12.5 q0 7 6 17l153 252q8 13 17 18.5t21 5.5h137q11 0 18 -4.5t7 -12.5q0 -6 -6 -17l-153 -252q-8 -13 -17 -18.5t-21 -5.5h-137z" glyph-name="aacute" unicode="á" vert-adv-y="1980"/>
<glyph d="M1111 166q12 0 19 -9t7 -26q0 -4 -2 -18q-9 -53 -51.5 -90t-104.5 -37q-74 0 -119 53t-45 150q0 23 3 48l14 122h-20q-84 -190 -185.5 -287.5t-234.5 -97.5q-88 0 -153.5 42t-101.5 124t-36 201q0 182 83 335.5t235.5 244.5t351.5 91q105 0 201 -26t148 -77l-68 -482 l-21 -151q-5 -37 -5 -57q0 -29 10.5 -43t36.5 -14q13 0 29 3q3 1 9 1zM670.5 274q86.5 103 143 243.5t78.5 256.5q-22 21 -65 30.5t-91 9.5q-124 0 -220 -58.5t-148.5 -156.5t-52.5 -213q0 -112 47 -163.5t119 -51.5q103 0 189.5 103zM559 1237q-64 36 -95.5 98t-28.5 138 q2 31 34 31h85q26 0 28 -29q4 -52 42.5 -88.5t104.5 -36.5t110 35.5t64 89.5q11 29 36 29h93q25 0 25 -20q0 -7 -1 -11q-18 -77 -64.5 -138.5t-117.5 -97.5t-161 -36t-154 36z" glyph-name="abreve" unicode="ă" vert-adv-y="1980"/>
<glyph d="M1111 166q12 0 19 -9t7 -26q0 -4 -2 -18q-9 -53 -51.5 -90t-104.5 -37q-74 0 -119 53t-45 150q0 23 3 48l14 122h-20q-84 -190 -185.5 -287.5t-234.5 -97.5q-88 0 -153.5 42t-101.5 124t-36 201q0 182 83 335.5t235.5 244.5t351.5 91q105 0 201 -26t148 -77l-68 -482 l-21 -151q-5 -37 -5 -57q0 -29 10.5 -43t36.5 -14q13 0 29 3q3 1 9 1zM670.5 274q86.5 103 143 243.5t78.5 256.5q-22 21 -65 30.5t-91 9.5q-124 0 -220 -58.5t-148.5 -156.5t-52.5 -213q0 -112 47 -163.5t119 -51.5q103 0 189.5 103zM634 1192q-23 0 -34 16l-186 260 q-6 9 -6 16q0 9 7.5 14.5t20.5 5.5h162q22 0 34 -16l125 -171l173 171q17 16 38 16h166q11 0 17 -4t6 -11q0 -10 -11 -21l-259 -260q-9 -9 -18 -12.5t-20 -3.5h-215z" glyph-name="uni01CE" unicode="ǎ" vert-adv-y="1980"/>
<glyph d="M1111 166q12 0 19 -9t7 -26q0 -4 -2 -18q-9 -53 -51.5 -90t-104.5 -37q-74 0 -119 53t-45 150q0 23 3 48l14 122h-20q-84 -190 -185.5 -287.5t-234.5 -97.5q-88 0 -153.5 42t-101.5 124t-36 201q0 182 83 335.5t235.5 244.5t351.5 91q105 0 201 -26t148 -77l-68 -482 l-21 -151q-5 -37 -5 -57q0 -29 10.5 -43t36.5 -14q13 0 29 3q3 1 9 1zM670.5 274q86.5 103 143 243.5t78.5 256.5q-22 21 -65 30.5t-91 9.5q-124 0 -220 -58.5t-148.5 -156.5t-52.5 -213q0 -112 47 -163.5t119 -51.5q103 0 189.5 103zM405 1192q-11 0 -17 4t-6 11 q0 10 11 21l259 260q9 9 18 12.5t20 3.5h216q11 0 19 -3.5t15 -12.5l185 -260q6 -9 6 -16q0 -9 -7.5 -14.5t-20.5 -5.5h-161q-22 0 -34 16l-126 171l-173 -171q-17 -16 -38 -16h-166z" glyph-name="acircumflex" unicode="â" vert-adv-y="1980"/>
<glyph d="M1111 166q12 0 19 -9t7 -26q0 -4 -2 -18q-9 -53 -51.5 -90t-104.5 -37q-74 0 -119 53t-45 150q0 23 3 48l14 122h-20q-84 -190 -185.5 -287.5t-234.5 -97.5q-88 0 -153.5 42t-101.5 124t-36 201q0 182 83 335.5t235.5 244.5t351.5 91q105 0 201 -26t148 -77l-68 -482 l-21 -151q-5 -37 -5 -57q0 -29 10.5 -43t36.5 -14q13 0 29 3q3 1 9 1zM670.5 274q86.5 103 143 243.5t78.5 256.5q-22 21 -65 30.5t-91 9.5q-124 0 -220 -58.5t-148.5 -156.5t-52.5 -213q0 -112 47 -163.5t119 -51.5q103 0 189.5 103zM449.5 1307q-33.5 34 -33.5 83 q0 47 34 80.5t81 33.5t81.5 -33.5t34.5 -80.5q0 -49 -34 -83t-82 -34t-81.5 34zM856 1307q-34 34 -34 83q0 47 34.5 80.5t81.5 33.5t81 -33.5t34 -80.5q0 -49 -33.5 -83t-81.5 -34t-82 34z" glyph-name="adieresis" unicode="ä" vert-adv-y="1980"/>
<glyph d="M1111 166q12 0 19 -9t7 -26q0 -4 -2 -18q-9 -53 -51.5 -90t-104.5 -37q-74 0 -119 53t-45 150q0 23 3 48l14 122h-20q-84 -190 -185.5 -287.5t-234.5 -97.5q-88 0 -153.5 42t-101.5 124t-36 201q0 182 83 335.5t235.5 244.5t351.5 91q105 0 201 -26t148 -77l-68 -482 l-21 -151q-5 -37 -5 -57q0 -29 10.5 -43t36.5 -14q13 0 29 3q3 1 9 1zM670.5 274q86.5 103 143 243.5t78.5 256.5q-22 21 -65 30.5t-91 9.5q-124 0 -220 -58.5t-148.5 -156.5t-52.5 -213q0 -112 47 -163.5t119 -51.5q103 0 189.5 103zM657 1194q-12 0 -21 5.5t-17 18.5 l-153 252q-6 11 -6 17q0 8 7 12.5t18 4.5h137q12 0 21 -5.5t17 -18.5l153 -252q6 -10 6 -17q0 -8 -7 -12.5t-18 -4.5h-137z" glyph-name="agrave" unicode="à" vert-adv-y="1980"/>
<glyph d="M1111 166q12 0 19 -9t7 -26q0 -4 -2 -18q-9 -53 -51.5 -90t-104.5 -37q-74 0 -119 53t-45 150q0 23 3 48l14 122h-20q-84 -190 -185.5 -287.5t-234.5 -97.5q-88 0 -153.5 42t-101.5 124t-36 201q0 182 83 335.5t235.5 244.5t351.5 91q105 0 201 -26t148 -77l-68 -482 l-21 -151q-5 -37 -5 -57q0 -29 10.5 -43t36.5 -14q13 0 29 3q3 1 9 1zM670.5 274q86.5 103 143 243.5t78.5 256.5q-22 21 -65 30.5t-91 9.5q-124 0 -220 -58.5t-148.5 -156.5t-52.5 -213q0 -112 47 -163.5t119 -51.5q103 0 189.5 103zM464 1331q-13 0 -20 8.5t-5 21.5 l16 113q1 13 10.5 21.5t23.5 8.5h523q13 0 20.5 -8t5.5 -22l-16 -113q-2 -14 -11.5 -22t-23.5 -8h-523z" glyph-name="amacron" unicode="ā" vert-adv-y="1980"/>
<glyph d="M1111 166q12 0 19 -9t7 -26q0 -4 -2 -18q-8 -42 -37.5 -75.5t-73.5 -45.5v-2q-99 -13 -153 -58.5t-54 -104.5q0 -43 26 -68.5t75 -25.5q25 0 48 5v-142q-43 -20 -104 -20q-58 0 -110 21t-85.5 67.5t-33.5 118.5q0 93 62.5 158t160.5 103q-41 54 -41 146q0 22 3 47l14 122 h-20q-84 -190 -185.5 -287.5t-234.5 -97.5q-88 0 -153.5 42t-101.5 124t-36 201q0 182 83 335.5t235.5 244.5t351.5 91q105 0 201 -26t148 -77l-68 -482l-21 -151q-5 -37 -5 -57q0 -29 10.5 -43t36.5 -14q13 0 29 3q3 1 9 1zM670.5 274q86.5 103 143 243.5t78.5 256.5 q-22 21 -65 30.5t-91 9.5q-124 0 -220 -58.5t-148.5 -156.5t-52.5 -213q0 -112 47 -163.5t119 -51.5q103 0 189.5 103z" glyph-name="aogonek" unicode="ą" vert-adv-y="1980"/>
<glyph d="M1111 166q12 0 19 -9t7 -26q0 -4 -2 -18q-9 -53 -51.5 -90t-104.5 -37q-74 0 -119 53t-45 150q0 23 3 48l14 122h-20q-84 -190 -185.5 -287.5t-234.5 -97.5q-88 0 -153.5 42t-101.5 124t-36 201q0 182 83 335.5t235.5 244.5t351.5 91q105 0 201 -26t148 -77l-68 -482 l-21 -151q-5 -37 -5 -57q0 -29 10.5 -43t36.5 -14q13 0 29 3q3 1 9 1zM670.5 274q86.5 103 143 243.5t78.5 256.5q-22 21 -65 30.5t-91 9.5q-124 0 -220 -58.5t-148.5 -156.5t-52.5 -213q0 -112 47 -163.5t119 -51.5q103 0 189.5 103zM696 1151q-44 26 -69.5 69t-25.5 94 t25.5 94.5t69.5 69.5t97 26t96.5 -26t69 -69.5t25.5 -94.5q0 -50 -25.5 -93.5t-69 -69.5t-96.5 -26t-97 26zM841 1267.5q20 18.5 20 45.5q0 29 -20 48.5t-48 19.5q-29 0 -48.5 -18.5t-19.5 -47.5q0 -28 19.5 -47t48.5 -19q28 0 48 18.5z" glyph-name="aring" unicode="å" vert-adv-y="1980"/>
<glyph d="M1111 166q12 0 19 -9t7 -26q0 -4 -2 -18q-9 -53 -51.5 -90t-104.5 -37q-74 0 -119 53t-45 150q0 23 3 48l14 122h-20q-84 -190 -185.5 -287.5t-234.5 -97.5q-88 0 -153.5 42t-101.5 124t-36 201q0 182 83 335.5t235.5 244.5t351.5 91q105 0 201 -26t148 -77l-68 -482 l-21 -151q-5 -37 -5 -57q0 -29 10.5 -43t36.5 -14q13 0 29 3q3 1 9 1zM670.5 274q86.5 103 143 243.5t78.5 256.5q-22 21 -65 30.5t-91 9.5q-124 0 -220 -58.5t-148.5 -156.5t-52.5 -213q0 -112 47 -163.5t119 -51.5q103 0 189.5 103zM770.5 1245.5q-37.5 20.5 -79.5 58.5 q-36 31 -60.5 45.5t-57.5 14.5q-37 0 -62 -17t-37 -41q-8 -17 -24 -17h-57q-8 0 -12.5 4.5t-4.5 12.5q0 5 1 8q24 88 83 134t142 46q54 0 91 -20t81 -58q35 -31 60 -46t58 -15q36 0 60.5 17t37.5 42q8 17 24 17h57q9 0 14 -5.5t3 -14.5q-17 -90 -79.5 -138t-145.5 -48 q-55 0 -92.5 20.5z" glyph-name="atilde" unicode="ã" vert-adv-y="1980"/>
<glyph d="M1139.5 922.5q59.5 -89.5 59.5 -246.5q0 -77 -12 -161q-5 -40 -14.5 -61t-29 -30t-57.5 -9h-401q-2 -36 -2 -53q0 -103 40 -158t134 -55q56 0 99 20t90 61l75 -108q-59 -72 -132.5 -110t-165.5 -38q-194 0 -256 171q-131 -171 -311 -171q-112 0 -178 64.5t-66 190.5 q0 95 39 170t113 117.5t175 42.5h206l12 87q5 37 5 60q0 68 -31 97.5t-94 29.5q-66 0 -106 -31t-55 -104q-5 -24 -31 -24h-105q-14 0 -21.5 8t-4.5 23q30 163 115 235t221 72q97 0 154.5 -34.5t82.5 -102.5q102 137 261 137q132 0 191.5 -89.5zM782 761.5 q-51 -71.5 -77 -202.5h324q9 60 9 109q0 81 -29 123t-93 42q-83 0 -134 -71.5zM525 415h-172q-80 0 -121.5 -40t-41.5 -109q0 -54 27.5 -82.5t89.5 -28.5q59 0 111.5 29t87.5 93z" glyph-name="ae" unicode="æ" vert-adv-y="1980"/>
<glyph d="M977.5 970q63.5 -42 98 -124.5t34.5 -200.5q0 -183 -84.5 -336.5t-238 -244t-351.5 -90.5q-107 0 -205 27.5t-150 79.5l184 1291q4 28 32 28h158q15 0 22.5 -8.5t5.5 -23.5l-106 -741h12q173 385 438 385q87 0 150.5 -42zM692.5 230q97.5 58 151.5 155.5t54 212.5 q0 112 -46 164.5t-115 52.5q-107 0 -197 -103t-148.5 -244t-80.5 -256q22 -21 65 -30.5t94 -9.5q125 0 222.5 58z" glyph-name="b" unicode="b" vert-adv-y="1980"/>
<glyph d="M408.5 28.5q-117.5 54.5 -184 158.5t-66.5 248q0 143 65.5 276t195.5 217t312 84q158 0 260 -68t102 -215q0 -60 -21 -138q-7 -26 -34 -26h-129q-16 0 -22.5 9t-3.5 26q8 32 8 65q0 79 -51.5 111.5t-131.5 32.5q-110 0 -185.5 -53t-112.5 -133.5t-37 -163.5 q0 -92 46 -156t128 -96t190 -32q64 0 124.5 10.5t108.5 30.5q8 3 14 3q10 0 15 -7.5t3 -20.5l-15 -102q-4 -24 -13.5 -38t-27.5 -24q-49 -25 -120.5 -39t-148.5 -14q-151 0 -268.5 54.5z" glyph-name="c" unicode="c" vert-adv-y="1980"/>
<glyph d="M408.5 28.5q-117.5 54.5 -184 158.5t-66.5 248q0 143 65.5 276t195.5 217t312 84q158 0 260 -68t102 -215q0 -60 -21 -138q-7 -26 -34 -26h-129q-16 0 -22.5 9t-3.5 26q8 32 8 65q0 79 -51.5 111.5t-131.5 32.5q-110 0 -185.5 -53t-112.5 -133.5t-37 -163.5 q0 -92 46 -156t128 -96t190 -32q64 0 124.5 10.5t108.5 30.5q8 3 14 3q10 0 15 -7.5t3 -20.5l-15 -102q-4 -24 -13.5 -38t-27.5 -24q-49 -25 -120.5 -39t-148.5 -14q-151 0 -268.5 54.5zM625 1194q-11 0 -18 4.5t-7 12.5q0 7 6 17l153 252q8 13 17 18.5t21 5.5h137 q11 0 18 -4.5t7 -12.5q0 -6 -6 -17l-153 -252q-8 -13 -17 -18.5t-21 -5.5h-137z" glyph-name="cacute" unicode="ć" vert-adv-y="1980"/>
<glyph d="M408.5 28.5q-117.5 54.5 -184 158.5t-66.5 248q0 143 65.5 276t195.5 217t312 84q158 0 260 -68t102 -215q0 -60 -21 -138q-7 -26 -34 -26h-129q-16 0 -22.5 9t-3.5 26q8 32 8 65q0 79 -51.5 111.5t-131.5 32.5q-110 0 -185.5 -53t-112.5 -133.5t-37 -163.5 q0 -92 46 -156t128 -96t190 -32q64 0 124.5 10.5t108.5 30.5q8 3 14 3q10 0 15 -7.5t3 -20.5l-15 -102q-4 -24 -13.5 -38t-27.5 -24q-49 -25 -120.5 -39t-148.5 -14q-151 0 -268.5 54.5zM623 1192q-23 0 -34 16l-186 260q-6 9 -6 16q0 9 7.5 14.5t20.5 5.5h162q22 0 34 -16 l125 -171l173 171q17 16 38 16h166q11 0 17 -4t6 -11q0 -10 -11 -21l-259 -260q-9 -9 -18 -12.5t-20 -3.5h-215z" glyph-name="ccaron" unicode="č" vert-adv-y="1980"/>
<glyph d="M991 944q102 -68 102 -215q0 -60 -21 -138q-7 -26 -34 -26h-129q-16 0 -22.5 9t-3.5 26q8 32 8 65q0 79 -51.5 111.5t-131.5 32.5q-110 0 -185.5 -53t-112.5 -133.5t-37 -163.5q0 -92 46 -156t128 -96t190 -32q64 0 124.5 10.5t108.5 30.5q8 3 14 3q10 0 15 -7.5t3 -20.5 l-15 -102q-4 -24 -13.5 -38t-27.5 -24q-49 -25 -120.5 -39t-148.5 -14q-19 0 -55 2l-56 -47q64 -6 107.5 -43t43.5 -96q0 -71 -39 -122t-104.5 -77t-142.5 -26q-38 0 -75 6q-18 3 -15 22l11 78q2 9 9 15t16 5q34 -4 51 -4q56 0 93 19t37 57q0 23 -23.5 39t-60.5 16 q-38 0 -79 -17q-4 -2 -10 -2q-14 0 -12 16l11 78q1 14 13 24l92 82q-153 43 -242 155.5t-89 280.5q0 143 65.5 276t195.5 217t312 84q158 0 260 -68z" glyph-name="ccedilla" unicode="ç" vert-adv-y="1980"/>
<glyph d="M408.5 28.5q-117.5 54.5 -184 158.5t-66.5 248q0 143 65.5 276t195.5 217t312 84q158 0 260 -68t102 -215q0 -60 -21 -138q-7 -26 -34 -26h-129q-16 0 -22.5 9t-3.5 26q8 32 8 65q0 79 -51.5 111.5t-131.5 32.5q-110 0 -185.5 -53t-112.5 -133.5t-37 -163.5 q0 -92 46 -156t128 -96t190 -32q64 0 124.5 10.5t108.5 30.5q8 3 14 3q10 0 15 -7.5t3 -20.5l-15 -102q-4 -24 -13.5 -38t-27.5 -24q-49 -25 -120.5 -39t-148.5 -14q-151 0 -268.5 54.5zM642.5 1307q-33.5 34 -33.5 83q0 47 34 80.5t81 33.5t81.5 -33.5t34.5 -80.5 q0 -49 -34 -83t-82 -34t-81.5 34z" glyph-name="cdotaccent" unicode="ċ" vert-adv-y="1980"/>
<glyph d="M1055 427l-22 -151q-5 -37 -5 -57q0 -29 10.5 -43t36.5 -14q13 0 29 3q3 1 9 1q12 0 19 -9t7 -26q0 -4 -2 -18q-9 -53 -51.5 -90t-103.5 -37q-74 0 -119.5 53t-45.5 150q0 23 3 48l14 122h-20q-170 -385 -429 -385q-86 0 -150 42t-98.5 124.5t-34.5 200.5q0 183 83 336.5 t234.5 244t347.5 90.5q77 0 155 -14l53 374q4 28 32 28h153q15 0 22.5 -8t5.5 -24zM668.5 274.5q87.5 103.5 146 244.5t79.5 255q-22 21 -65.5 30.5t-93.5 9.5q-123 0 -218.5 -58t-148.5 -156t-53 -214q0 -111 46 -163t116 -52q104 0 191.5 103.5z" glyph-name="d" unicode="d" vert-adv-y="1980"/>
<glyph d="M1242 1283q15 2 23.5 -5.5t8.5 -22.5v-100q0 -14 -7.5 -22.5t-20.5 -9.5l-94 -12l-97 -684l-22 -151q-5 -37 -5 -57q0 -29 10.5 -43t36.5 -14q13 0 29 3q3 1 9 1q12 0 19 -9t7 -26q0 -4 -2 -18q-9 -53 -51.5 -90t-103.5 -37q-74 0 -119.5 53t-45.5 150q0 23 3 48l14 122 h-20q-170 -385 -429 -385q-86 0 -150 42t-98.5 124.5t-34.5 200.5q0 183 83 336.5t234.5 244t347.5 90.5q77 0 155 -14l12 84l-104 -13q-15 -2 -23.5 5.5t-8.5 22.5v100q0 14 7.5 22.5t20.5 9.5l131 17l18 126q4 28 32 28h153q15 0 22.5 -8t5.5 -24l-13 -94zM668.5 274.5 q87.5 103.5 146 244.5t79.5 255q-22 21 -65.5 30.5t-93.5 9.5q-123 0 -218.5 -58t-148.5 -156t-53 -214q0 -111 46 -163t116 -52q104 0 191.5 103.5z" glyph-name="eth" unicode="ð" vert-adv-y="1980"/>
<glyph d="M1055 427l-22 -151q-5 -37 -5 -57q0 -29 10.5 -43t36.5 -14q13 0 29 3q3 1 9 1q12 0 19 -9t7 -26q0 -4 -2 -18q-9 -53 -51.5 -90t-103.5 -37q-74 0 -119.5 53t-45.5 150q0 23 3 48l14 122h-20q-170 -385 -429 -385q-86 0 -150 42t-98.5 124.5t-34.5 200.5q0 183 83 336.5 t234.5 244t347.5 90.5q77 0 155 -14l53 374q4 28 32 28h153q15 0 22.5 -8t5.5 -24zM668.5 274.5q87.5 103.5 146 244.5t79.5 255q-22 21 -65.5 30.5t-93.5 9.5q-123 0 -218.5 -58t-148.5 -156t-53 -214q0 -111 46 -163t116 -52q104 0 191.5 103.5zM1396 1338q-11 0 -18 4.5 t-7 12.5q0 7 6 17l153 252q8 13 17 18.5t21 5.5h137q11 0 18 -4.5t7 -12.5q0 -6 -6 -17l-153 -252q-8 -13 -17 -18.5t-21 -5.5h-137z" glyph-name="dcaron" unicode="ď" vert-adv-y="1980"/>
<glyph d="M1283 1262q14 0 21 -8.5t5 -21.5l-10 -65q-2 -14 -11.5 -22t-22.5 -8h-110l-100 -710l-22 -151q-5 -37 -5 -57q0 -29 10.5 -43t36.5 -14q13 0 29 3q3 1 9 1q12 0 19 -9t7 -26q0 -4 -2 -18q-9 -53 -51.5 -90t-103.5 -37q-74 0 -119.5 53t-45.5 150q0 23 3 48l14 122h-20 q-170 -385 -429 -385q-86 0 -150 42t-98.5 124.5t-34.5 200.5q0 183 83 336.5t234.5 244t347.5 90.5q77 0 155 -14l20 139h-230q-14 0 -21 8.5t-5 21.5l10 65q2 14 11.5 22t22.5 8h229l16 110q4 28 32 28h153q15 0 22.5 -8t5.5 -24l-15 -106h110zM668.5 274.5 q87.5 103.5 146 244.5t79.5 255q-22 21 -65.5 30.5t-93.5 9.5q-123 0 -218.5 -58t-148.5 -156t-53 -214q0 -111 46 -163t116 -52q104 0 191.5 103.5z" glyph-name="dcroat" unicode="đ" vert-adv-y="1980"/>
<glyph d="M1048 162q10 -15 10 -27q0 -15 -14 -26q-76 -68 -183.5 -101.5t-227.5 -33.5q-154 0 -264 56t-167 157.5t-57 235.5q0 159 76.5 294t209 215t292.5 80q105 0 179.5 -35t111.5 -93.5t37 -126.5q0 -134 -155.5 -252t-513.5 -209q66 -141 277 -141q171 0 290 80q15 9 26 9 q13 0 24 -14zM539.5 782q-78.5 -45 -130 -128.5t-55.5 -194.5q182 53 288.5 95.5t156 83.5t49.5 87q0 43 -37.5 72.5t-108.5 29.5q-84 0 -162.5 -45z" glyph-name="e" unicode="e" vert-adv-y="1980"/>
<glyph d="M1048 162q10 -15 10 -27q0 -15 -14 -26q-76 -68 -183.5 -101.5t-227.5 -33.5q-154 0 -264 56t-167 157.5t-57 235.5q0 159 76.5 294t209 215t292.5 80q105 0 179.5 -35t111.5 -93.5t37 -126.5q0 -134 -155.5 -252t-513.5 -209q66 -141 277 -141q171 0 290 80q15 9 26 9 q13 0 24 -14zM539.5 782q-78.5 -45 -130 -128.5t-55.5 -194.5q182 53 288.5 95.5t156 83.5t49.5 87q0 43 -37.5 72.5t-108.5 29.5q-84 0 -162.5 -45zM655 1194q-11 0 -18 4.5t-7 12.5q0 7 6 17l153 252q8 13 17 18.5t21 5.5h137q11 0 18 -4.5t7 -12.5q0 -6 -6 -17l-153 -252 q-8 -13 -17 -18.5t-21 -5.5h-137z" glyph-name="eacute" unicode="é" vert-adv-y="1980"/>
<glyph d="M1048 162q10 -15 10 -27q0 -15 -14 -26q-76 -68 -183.5 -101.5t-227.5 -33.5q-154 0 -264 56t-167 157.5t-57 235.5q0 159 76.5 294t209 215t292.5 80q105 0 179.5 -35t111.5 -93.5t37 -126.5q0 -134 -155.5 -252t-513.5 -209q66 -141 277 -141q171 0 290 80q15 9 26 9 q13 0 24 -14zM539.5 782q-78.5 -45 -130 -128.5t-55.5 -194.5q182 53 288.5 95.5t156 83.5t49.5 87q0 43 -37.5 72.5t-108.5 29.5q-84 0 -162.5 -45zM653 1192q-23 0 -34 16l-186 260q-6 9 -6 16q0 9 7.5 14.5t20.5 5.5h162q22 0 34 -16l125 -171l173 171q17 16 38 16h166 q11 0 17 -4t6 -11q0 -10 -11 -21l-259 -260q-9 -9 -18 -12.5t-20 -3.5h-215z" glyph-name="ecaron" unicode="ě" vert-adv-y="1980"/>
<glyph d="M1048 162q10 -15 10 -27q0 -15 -14 -26q-76 -68 -183.5 -101.5t-227.5 -33.5q-154 0 -264 56t-167 157.5t-57 235.5q0 159 76.5 294t209 215t292.5 80q105 0 179.5 -35t111.5 -93.5t37 -126.5q0 -134 -155.5 -252t-513.5 -209q66 -141 277 -141q171 0 290 80q15 9 26 9 q13 0 24 -14zM539.5 782q-78.5 -45 -130 -128.5t-55.5 -194.5q182 53 288.5 95.5t156 83.5t49.5 87q0 43 -37.5 72.5t-108.5 29.5q-84 0 -162.5 -45zM424 1192q-11 0 -17 4t-6 11q0 10 11 21l259 260q9 9 18 12.5t20 3.5h216q11 0 19 -3.5t15 -12.5l185 -260q6 -9 6 -16 q0 -9 -7.5 -14.5t-20.5 -5.5h-161q-22 0 -34 16l-126 171l-173 -171q-17 -16 -38 -16h-166z" glyph-name="ecircumflex" unicode="ê" vert-adv-y="1980"/>
<glyph d="M1048 162q10 -15 10 -27q0 -15 -14 -26q-76 -68 -183.5 -101.5t-227.5 -33.5q-154 0 -264 56t-167 157.5t-57 235.5q0 159 76.5 294t209 215t292.5 80q105 0 179.5 -35t111.5 -93.5t37 -126.5q0 -134 -155.5 -252t-513.5 -209q66 -141 277 -141q171 0 290 80q15 9 26 9 q13 0 24 -14zM539.5 782q-78.5 -45 -130 -128.5t-55.5 -194.5q182 53 288.5 95.5t156 83.5t49.5 87q0 43 -37.5 72.5t-108.5 29.5q-84 0 -162.5 -45zM468.5 1307q-33.5 34 -33.5 83q0 47 34 80.5t81 33.5t81.5 -33.5t34.5 -80.5q0 -49 -34 -83t-82 -34t-81.5 34zM875 1307 q-34 34 -34 83q0 47 34.5 80.5t81.5 33.5t81 -33.5t34 -80.5q0 -49 -33.5 -83t-81.5 -34t-82 34z" glyph-name="edieresis" unicode="ë" vert-adv-y="1980"/>
<glyph d="M1048 162q10 -15 10 -27q0 -15 -14 -26q-76 -68 -183.5 -101.5t-227.5 -33.5q-154 0 -264 56t-167 157.5t-57 235.5q0 159 76.5 294t209 215t292.5 80q105 0 179.5 -35t111.5 -93.5t37 -126.5q0 -134 -155.5 -252t-513.5 -209q66 -141 277 -141q171 0 290 80q15 9 26 9 q13 0 24 -14zM539.5 782q-78.5 -45 -130 -128.5t-55.5 -194.5q182 53 288.5 95.5t156 83.5t49.5 87q0 43 -37.5 72.5t-108.5 29.5q-84 0 -162.5 -45zM672.5 1307q-33.5 34 -33.5 83q0 47 34 80.5t81 33.5t81.5 -33.5t34.5 -80.5q0 -49 -34 -83t-82 -34t-81.5 34z" glyph-name="edotaccent" unicode="ė" vert-adv-y="1980"/>
<glyph d="M1048 162q10 -15 10 -27q0 -15 -14 -26q-76 -68 -183.5 -101.5t-227.5 -33.5q-154 0 -264 56t-167 157.5t-57 235.5q0 159 76.5 294t209 215t292.5 80q105 0 179.5 -35t111.5 -93.5t37 -126.5q0 -134 -155.5 -252t-513.5 -209q66 -141 277 -141q171 0 290 80q15 9 26 9 q13 0 24 -14zM539.5 782q-78.5 -45 -130 -128.5t-55.5 -194.5q182 53 288.5 95.5t156 83.5t49.5 87q0 43 -37.5 72.5t-108.5 29.5q-84 0 -162.5 -45zM676 1194q-12 0 -21 5.5t-17 18.5l-153 252q-6 11 -6 17q0 8 7 12.5t18 4.5h137q12 0 21 -5.5t17 -18.5l153 -252 q6 -10 6 -17q0 -8 -7 -12.5t-18 -4.5h-137z" glyph-name="egrave" unicode="è" vert-adv-y="1980"/>
<glyph d="M1048 162q10 -15 10 -27q0 -15 -14 -26q-76 -68 -183.5 -101.5t-227.5 -33.5q-154 0 -264 56t-167 157.5t-57 235.5q0 159 76.5 294t209 215t292.5 80q105 0 179.5 -35t111.5 -93.5t37 -126.5q0 -134 -155.5 -252t-513.5 -209q66 -141 277 -141q171 0 290 80q15 9 26 9 q13 0 24 -14zM539.5 782q-78.5 -45 -130 -128.5t-55.5 -194.5q182 53 288.5 95.5t156 83.5t49.5 87q0 43 -37.5 72.5t-108.5 29.5q-84 0 -162.5 -45zM483 1331q-13 0 -20 8.5t-5 21.5l16 113q1 13 10.5 21.5t23.5 8.5h523q13 0 20.5 -8t5.5 -22l-16 -113q-2 -14 -11.5 -22 t-23.5 -8h-523z" glyph-name="emacron" unicode="ē" vert-adv-y="1980"/>
<glyph d="M1048 162q10 -15 10 -27q0 -15 -14 -26q-82 -73 -208 -109q-92 -24 -144 -71.5t-52 -105.5q0 -42 26 -67t75 -25q26 0 48 5v-142q-43 -20 -104 -20q-58 0 -110 21t-85.5 67.5t-33.5 118.5q0 114 104 197q-132 13 -225.5 71.5t-141.5 154.5t-48 219q0 159 76.5 294 t209 215t292.5 80q105 0 179.5 -35t111.5 -93.5t37 -126.5q0 -134 -155.5 -252t-513.5 -209q66 -141 277 -141q171 0 290 80q15 9 26 9q13 0 24 -14zM539.5 782q-78.5 -45 -130 -128.5t-55.5 -194.5q182 53 288.5 95.5t156 83.5t49.5 87q0 43 -37.5 72.5t-108.5 29.5 q-84 0 -162.5 -45z" glyph-name="eogonek" unicode="ę" vert-adv-y="1980"/>
<glyph d="M861 960q110 -56 167 -157.5t57 -235.5q0 -159 -76.5 -294t-209 -215t-292.5 -80q-105 0 -179.5 35t-111.5 93.5t-37 126.5q0 134 156 252t514 209q-67 141 -278 141q-83 0 -157 -20t-133 -59q-14 -10 -26 -10q-13 0 -24 14l-49 68q-10 15 -10 27q0 15 14 26 q76 68 183.5 101.5t227.5 33.5q154 0 264 -56zM691 208q79 45 130.5 129t55.5 195q-182 -52 -289 -95t-156.5 -84.5t-49.5 -87.5q0 -43 37.5 -72.5t108.5 -29.5q84 0 163 45z" glyph-name="uni0259" unicode="ə" vert-adv-y="1980"/>
<glyph d="M648 535l-21 -165h399q15 0 22.5 -8t5.5 -24l-17 -118q-4 -28 -32 -28h-401l-24 -194q-27 -215 -134 -301.5t-253 -86.5q-74 0 -133 17.5t-91 46t-27 58.5l12 80q5 33 34 33q5 0 13 -2l24 -8q43 -15 75 -23.5t70 -8.5q76 0 129.5 52.5t69.5 179.5l52 421l-277 -96 q-14 -5 -22 5.5t-6 26.5l19 132q4 26 33 36l277 95l57 461q24 197 131.5 282t252.5 85q109 0 185.5 -44.5t115 -122t38.5 -175.5q0 -109 -51 -218t-169 -207t-308 -164zM775.5 1242q-44.5 -47 -58.5 -156l-44 -351q190 75 274.5 176.5t84.5 213.5q0 76 -35.5 120t-107.5 44 q-69 0 -113.5 -47z" glyph-name="f" unicode="f" vert-adv-y="1980"/>
<glyph d="M987 986q96 -26 148 -77l-121 -857q-23 -168 -112.5 -268t-210.5 -140t-255 -40q-106 0 -196.5 21.5t-151.5 60.5q-12 7 -12 21q0 8 5 20l47 99q9 18 26 18q7 0 14 -3q60 -28 123 -41t136 -13q333 0 372 278l40 294h-12q-82 -169 -186 -257.5t-235 -88.5q-88 0 -152 41 t-99 120.5t-35 192.5q0 176 82 323.5t233.5 234.5t348.5 87q107 0 203 -26zM687 306q86 96 142.5 228t77.5 240q-22 21 -65 30.5t-93 9.5q-123 0 -217.5 -54.5t-146.5 -146t-52 -199.5q0 -104 46.5 -154t117.5 -50q104 0 190 96z" glyph-name="g" unicode="g" vert-adv-y="1980"/>
<glyph d="M987 986q96 -26 148 -77l-121 -857q-23 -168 -112.5 -268t-210.5 -140t-255 -40q-106 0 -196.5 21.5t-151.5 60.5q-12 7 -12 21q0 8 5 20l47 99q9 18 26 18q7 0 14 -3q60 -28 123 -41t136 -13q333 0 372 278l40 294h-12q-82 -169 -186 -257.5t-235 -88.5q-88 0 -152 41 t-99 120.5t-35 192.5q0 176 82 323.5t233.5 234.5t348.5 87q107 0 203 -26zM687 306q86 96 142.5 228t77.5 240q-22 21 -65 30.5t-93 9.5q-123 0 -217.5 -54.5t-146.5 -146t-52 -199.5q0 -104 46.5 -154t117.5 -50q104 0 190 96zM566 1237q-64 36 -95.5 98t-28.5 138 q2 31 34 31h85q26 0 28 -29q4 -52 42.5 -88.5t104.5 -36.5t110 35.5t64 89.5q11 29 36 29h93q25 0 25 -20q0 -7 -1 -11q-18 -77 -64.5 -138.5t-117.5 -97.5t-161 -36t-154 36z" glyph-name="gbreve" unicode="ğ" vert-adv-y="1980"/>
<glyph d="M472 1195q-13 0 -19.5 8t-4.5 20l9 67q19 126 43 237t48 183q7 21 35 21h110q23 0 23 -19q0 -6 -1 -10q-42 -193 -58 -332h232q12 0 18.5 -7.5t5.5 -20.5l-17 -119q-2 -12 -11 -20t-21 -8h-392zM987 986q96 -26 148 -77l-121 -857q-23 -168 -112.5 -268t-210.5 -140 t-255 -40q-106 0 -196.5 21.5t-151.5 60.5q-12 7 -12 21q0 8 5 20l47 99q9 18 26 18q7 0 14 -3q60 -28 123 -41t136 -13q333 0 372 278l40 294h-12q-82 -169 -186 -257.5t-235 -88.5q-88 0 -152 41t-99 120.5t-35 192.5q0 176 82 323.5t233.5 234.5t348.5 87q107 0 203 -26z M687 306q86 96 142.5 228t77.5 240q-22 21 -65 30.5t-93 9.5q-123 0 -217.5 -54.5t-146.5 -146t-52 -199.5q0 -104 46.5 -154t117.5 -50q104 0 190 96z" glyph-name="uni0123" unicode="ģ" vert-adv-y="1980"/>
<glyph d="M987 986q96 -26 148 -77l-121 -857q-23 -168 -112.5 -268t-210.5 -140t-255 -40q-106 0 -196.5 21.5t-151.5 60.5q-12 7 -12 21q0 8 5 20l47 99q9 18 26 18q7 0 14 -3q60 -28 123 -41t136 -13q333 0 372 278l40 294h-12q-82 -169 -186 -257.5t-235 -88.5q-88 0 -152 41 t-99 120.5t-35 192.5q0 176 82 323.5t233.5 234.5t348.5 87q107 0 203 -26zM687 306q86 96 142.5 228t77.5 240q-22 21 -65 30.5t-93 9.5q-123 0 -217.5 -54.5t-146.5 -146t-52 -199.5q0 -104 46.5 -154t117.5 -50q104 0 190 96zM660.5 1307q-33.5 34 -33.5 83q0 47 34 80.5 t81 33.5t81.5 -33.5t34.5 -80.5q0 -49 -34 -83t-82 -34t-81.5 34z" glyph-name="gdotaccent" unicode="ġ" vert-adv-y="1980"/>
<glyph d="M1073 166q12 0 19 -9t7 -26q0 -4 -2 -18q-9 -53 -51.5 -90t-102.5 -37q-48 0 -89 22.5t-65.5 65.5t-24.5 102q0 28 6 61l66 337q8 39 8 78q0 77 -34.5 117.5t-91.5 40.5q-84 0 -165.5 -90.5t-147.5 -267.5t-101 -424q-4 -28 -32 -28h-157q-32 0 -28 32l191 1340 q4 28 32 28h157q15 0 22.5 -8.5t5.5 -23.5l-105 -738h19q79 187 182 284.5t227 97.5q72 0 130 -33t92 -96t34 -151q0 -44 -11 -101l-70 -355q-7 -40 -7 -59q0 -27 11.5 -41t37.5 -14q13 0 29 3q3 1 9 1z" glyph-name="h" unicode="h" vert-adv-y="1980"/>
<glyph d="M1073 166q12 0 19 -9t7 -26q0 -4 -2 -18q-9 -53 -51.5 -90t-102.5 -37q-48 0 -89 22.5t-65.5 65.5t-24.5 102q0 28 6 61l66 337q8 39 8 78q0 77 -34.5 117.5t-91.5 40.5q-84 0 -165.5 -90.5t-147.5 -267.5t-101 -424q-4 -28 -32 -28h-157q-32 0 -28 32l155 1087h-111 q-13 0 -20.5 8t-5.5 22l13 86q1 13 10.5 21.5t23.5 8.5h111l15 107q4 28 32 28h157q15 0 22.5 -8.5t5.5 -23.5l-15 -103h339q13 0 20.5 -8t5.5 -22l-13 -86q-1 -13 -10.5 -21.5t-23.5 -8.5h-338l-70 -489h19q79 187 182 284.5t227 97.5q72 0 130 -33t92 -96t34 -151 q0 -44 -11 -101l-70 -355q-7 -40 -7 -59q0 -27 11.5 -41t37.5 -14q13 0 29 3q3 1 9 1z" glyph-name="hbar" unicode="ħ" vert-adv-y="1980"/>
<glyph d="M620.5 1256.5q-32.5 18.5 -51 51t-18.5 71.5q0 38 18.5 70.5t51 51t71.5 18.5q38 0 70.5 -18.5t51 -51t18.5 -70.5q0 -39 -18.5 -71.5t-51 -51t-70.5 -18.5q-39 0 -71.5 18.5zM1132 147q6 -10 6 -18q0 -13 -11 -22q-51 -52 -140 -92.5t-204 -40.5q-92 0 -171 30.5 t-128.5 100.5t-49.5 181q0 49 10 102l53 292q-44 -30 -102.5 -46t-125.5 -16q-90 0 -154 29q-22 10 -19 38l19 122q4 32 27 32q3 0 11 -2q64 -15 123 -15q103 0 174.5 39t97.5 104q10 25 34 25h151q15 0 22 -9t5 -24l-100 -570q-6 -33 -6 -60q0 -84 49 -121.5t124 -37.5 q62 0 111.5 21t101.5 58q11 8 21 8q14 0 26 -22z" glyph-name="i" unicode="i" vert-adv-y="1980"/>
<glyph d="M526 54.5q-100 74.5 -100 243.5q0 47 9 102l66 407h-352q-15 0 -22.5 8.5t-5.5 23.5l17 123q4 28 32 28h543q15 0 22 -8t5 -24l-85 -546q-6 -37 -6 -67q0 -171 169 -171q65 0 119 21.5t107 56.5q12 9 22 9q14 0 24 -19l46 -90q5 -10 5 -17q0 -13 -11 -22 q-51 -51 -145 -92t-212 -41q-147 0 -247 74.5z" glyph-name="dotlessi" unicode="ı" vert-adv-y="1980"/>
<glyph d="M526 54.5q-100 74.5 -100 243.5q0 47 9 102l66 407h-352q-15 0 -22.5 8.5t-5.5 23.5l17 123q4 28 32 28h543q15 0 22 -8t5 -24l-85 -546q-6 -37 -6 -67q0 -171 169 -171q65 0 119 21.5t107 56.5q12 9 22 9q14 0 24 -19l46 -90q5 -10 5 -17q0 -13 -11 -22 q-51 -51 -145 -92t-212 -41q-147 0 -247 74.5zM586 1194q-11 0 -18 4.5t-7 12.5q0 7 6 17l153 252q8 13 17 18.5t21 5.5h137q11 0 18 -4.5t7 -12.5q0 -6 -6 -17l-153 -252q-8 -13 -17 -18.5t-21 -5.5h-137z" glyph-name="iacute" unicode="í" vert-adv-y="1980"/>
<glyph d="M526 54.5q-100 74.5 -100 243.5q0 47 9 102l66 407h-352q-15 0 -22.5 8.5t-5.5 23.5l17 123q4 28 32 28h543q15 0 22 -8t5 -24l-85 -546q-6 -37 -6 -67q0 -171 169 -171q65 0 119 21.5t107 56.5q12 9 22 9q14 0 24 -19l46 -90q5 -10 5 -17q0 -13 -11 -22 q-51 -51 -145 -92t-212 -41q-147 0 -247 74.5zM583 1192q-23 0 -34 16l-186 260q-6 9 -6 16q0 9 7.5 14.5t20.5 5.5h162q22 0 34 -16l125 -171l173 171q17 16 38 16h166q11 0 17 -4t6 -11q0 -10 -11 -21l-259 -260q-9 -9 -18 -12.5t-20 -3.5h-215z" glyph-name="uni01D0" unicode="ǐ" vert-adv-y="1980"/>
<glyph d="M526 54.5q-100 74.5 -100 243.5q0 47 9 102l66 407h-352q-15 0 -22.5 8.5t-5.5 23.5l17 123q4 28 32 28h543q15 0 22 -8t5 -24l-85 -546q-6 -37 -6 -67q0 -171 169 -171q65 0 119 21.5t107 56.5q12 9 22 9q14 0 24 -19l46 -90q5 -10 5 -17q0 -13 -11 -22 q-51 -51 -145 -92t-212 -41q-147 0 -247 74.5zM355 1192q-11 0 -17 4t-6 11q0 10 11 21l259 260q9 9 18 12.5t20 3.5h216q11 0 19 -3.5t15 -12.5l185 -260q6 -9 6 -16q0 -9 -7.5 -14.5t-20.5 -5.5h-161q-22 0 -34 16l-126 171l-173 -171q-17 -16 -38 -16h-166z" glyph-name="icircumflex" unicode="î" vert-adv-y="1980"/>
<glyph d="M526 54.5q-100 74.5 -100 243.5q0 47 9 102l66 407h-352q-15 0 -22.5 8.5t-5.5 23.5l17 123q4 28 32 28h543q15 0 22 -8t5 -24l-85 -546q-6 -37 -6 -67q0 -171 169 -171q65 0 119 21.5t107 56.5q12 9 22 9q14 0 24 -19l46 -90q5 -10 5 -17q0 -13 -11 -22 q-51 -51 -145 -92t-212 -41q-147 0 -247 74.5zM399.5 1307q-33.5 34 -33.5 83q0 47 34 80.5t81 33.5t81.5 -33.5t34.5 -80.5q0 -49 -34 -83t-82 -34t-81.5 34zM806 1307q-34 34 -34 83q0 47 34.5 80.5t81.5 33.5t81 -33.5t34 -80.5q0 -49 -33.5 -83t-81.5 -34t-82 34z" glyph-name="idieresis" unicode="ï" vert-adv-y="1980"/>
<glyph d="M526 54.5q-100 74.5 -100 243.5q0 47 9 102l66 407h-352q-15 0 -22.5 8.5t-5.5 23.5l17 123q4 28 32 28h543q15 0 22 -8t5 -24l-85 -546q-6 -37 -6 -67q0 -171 169 -171q65 0 119 21.5t107 56.5q12 9 22 9q14 0 24 -19l46 -90q5 -10 5 -17q0 -13 -11 -22 q-51 -51 -145 -92t-212 -41q-147 0 -247 74.5zM603.5 1307q-33.5 34 -33.5 83q0 47 34 80.5t81 33.5t81.5 -33.5t34.5 -80.5q0 -49 -34 -83t-82 -34t-81.5 34z" glyph-name="i.loclTRK" vert-adv-y="1980"/>
<glyph d="M526 54.5q-100 74.5 -100 243.5q0 47 9 102l66 407h-352q-15 0 -22.5 8.5t-5.5 23.5l17 123q4 28 32 28h543q15 0 22 -8t5 -24l-85 -546q-6 -37 -6 -67q0 -171 169 -171q65 0 119 21.5t107 56.5q12 9 22 9q14 0 24 -19l46 -90q5 -10 5 -17q0 -13 -11 -22 q-51 -51 -145 -92t-212 -41q-147 0 -247 74.5zM607 1194q-12 0 -21 5.5t-17 18.5l-153 252q-6 11 -6 17q0 8 7 12.5t18 4.5h137q12 0 21 -5.5t17 -18.5l153 -252q6 -10 6 -17q0 -8 -7 -12.5t-18 -4.5h-137z" glyph-name="igrave" unicode="ì" vert-adv-y="1980"/>
<glyph d="M1221.5 1500.5q32.5 -18.5 51 -51t18.5 -70.5q0 -39 -18.5 -71.5t-51 -51t-70.5 -18.5q-39 0 -71.5 18.5t-51 51t-18.5 71.5q0 38 18.5 70.5t51 51t71.5 18.5q38 0 70.5 -18.5zM230 1222q-37 37 -37 89q0 53 37 89.5t89 36.5q53 0 89.5 -36.5t36.5 -89.5q0 -52 -36.5 -89 t-89.5 -37q-52 0 -89 37zM1192 990q15 0 22 -9t5 -24l-127 -911q-22 -160 -99 -256t-179 -135.5t-210 -39.5q-93 0 -170 25.5t-121 61.5t-44 64q0 10 5 16l78 103q10 13 24 13q11 0 22 -8q41 -31 90 -51.5t118 -20.5q99 0 175 56.5t95 194.5l86 616q-45 -32 -108.5 -49.5 t-135.5 -17.5q-95 0 -159 29q-22 10 -19 38l19 122q4 32 27 32q4 0 12 -2q64 -15 126 -15q107 0 182 39t101 104q10 25 34 25h151zM269 28q-4 -28 -32 -28h-159q-15 0 -22.5 8t-5.5 24l128 920q4 28 32 28h159q15 0 22.5 -8t5.5 -24z" glyph-name="ij" unicode="ĳ" vert-adv-y="1980"/>
<glyph d="M526 54.5q-100 74.5 -100 243.5q0 47 9 102l66 407h-352q-15 0 -22.5 8.5t-5.5 23.5l17 123q4 28 32 28h543q15 0 22 -8t5 -24l-85 -546q-6 -37 -6 -67q0 -171 169 -171q65 0 119 21.5t107 56.5q12 9 22 9q14 0 24 -19l46 -90q5 -10 5 -17q0 -13 -11 -22 q-51 -51 -145 -92t-212 -41q-147 0 -247 74.5zM414 1331q-13 0 -20 8.5t-5 21.5l16 113q1 13 10.5 21.5t23.5 8.5h523q13 0 20.5 -8t5.5 -22l-16 -113q-2 -14 -11.5 -22t-23.5 -8h-523z" glyph-name="imacron" unicode="ī" vert-adv-y="1980"/>
<glyph d="M603.5 1307q-33.5 34 -33.5 83q0 47 34 80.5t81 33.5t81.5 -33.5t34.5 -80.5q0 -49 -34 -83t-82 -34t-81.5 34zM1136 152q5 -10 5 -17q0 -13 -11 -22q-49 -49 -141 -90t-207 -43q-40 -15 -62 -43t-22 -68q0 -101 139 -101h32q20 0 17 -20l-13 -100q-3 -20 -23 -20h-68 q-103 0 -178 46t-75 156q0 109 83 176q-86 33 -136 104.5t-50 188.5q0 47 9 101l66 407h-352q-15 0 -22.5 8.5t-5.5 23.5l17 123q4 28 32 28h543q15 0 22 -8t5 -24l-85 -546q-6 -37 -6 -67q0 -171 169 -171q65 0 119 21.5t107 56.5q12 9 22 9q14 0 24 -19z" glyph-name="iogonek" unicode="į" vert-adv-y="1980"/>
<glyph d="M997.5 1500.5q32.5 -18.5 51 -51t18.5 -70.5q0 -39 -18.5 -71.5t-51 -51t-71.5 -18.5q-38 0 -70.5 18.5t-51 51t-18.5 71.5q0 38 18.5 70.5t51 51t70.5 18.5q39 0 71.5 -18.5zM968 990q15 0 21.5 -9t4.5 -24l-126 -911q-22 -160 -99.5 -256t-179.5 -135.5t-210 -39.5 q-93 0 -169.5 25.5t-120.5 61.5t-44 64q0 10 5 16l77 103q12 13 25 13q11 0 22 -8q41 -31 90 -51.5t117 -20.5q100 0 175.5 56.5t95.5 194.5l86 616q-45 -32 -108.5 -49.5t-136.5 -17.5q-94 0 -158 29q-22 10 -19 38l19 122q4 32 27 32q4 0 12 -2q62 -15 126 -15 q107 0 181.5 39t101.5 104q10 25 34 25h151z" glyph-name="j" unicode="j" vert-adv-y="1980"/>
<glyph d="M209.5 -359.5q-76.5 25.5 -120.5 61.5t-44 64q0 10 5 16l77 103q12 13 25 13q11 0 22 -8q41 -31 90 -51.5t117 -20.5q100 0 175.5 56.5t95.5 194.5l104 738h-451q-14 0 -21 8.5t-5 21.5l17 123q1 13 11 21.5t24 8.5h639q13 0 20 -8.5t5 -21.5l-127 -914 q-22 -160 -99.5 -256t-179.5 -135.5t-210 -39.5q-93 0 -169.5 25.5z" glyph-name="uni0237" unicode="ȷ" vert-adv-y="1980"/>
<glyph d="M1114 990q12 0 18.5 -6.5t6.5 -15.5q0 -12 -11 -22l-440 -391l90 -240q29 -81 60 -118.5t87 -37.5q26 0 49 7t51 21q10 4 17 4q25 0 34 -28l23 -74q2 -8 2 -12q0 -25 -29 -50t-78 -41t-107 -16q-92 0 -161 48.5t-112 158.5l-89 233l-172 -153l-33 -229q-4 -28 -32 -28 h-157q-32 0 -28 32l191 1340q4 28 32 28h158q15 0 22.5 -8.5t5.5 -23.5l-119 -831l490 439q17 14 39 14h192z" glyph-name="k" unicode="k" vert-adv-y="1980"/>
<glyph d="M1114 990q12 0 18.5 -6.5t6.5 -15.5q0 -12 -11 -22l-440 -391l90 -240q29 -81 60 -118.5t87 -37.5q26 0 49 7t51 21q10 4 17 4q25 0 34 -28l23 -74q2 -8 2 -12q0 -25 -29 -50t-78 -41t-107 -16q-92 0 -161 48.5t-112 158.5l-89 233l-172 -153l-33 -229q-4 -28 -32 -28 h-157q-32 0 -28 32l191 1340q4 28 32 28h158q15 0 22.5 -8.5t5.5 -23.5l-119 -831l490 439q17 14 39 14h192zM700 -168q13 0 19.5 -7.5t4.5 -20.5l-9 -67q-19 -126 -43 -237t-48 -183q-7 -21 -35 -21h-110q-23 0 -23 19q0 6 1 10q42 193 58 332h-232q-12 0 -18.5 7.5 t-5.5 20.5l17 119q2 13 11 20.5t21 7.5h392z" glyph-name="uni0137" unicode="ķ" vert-adv-y="1980"/>
<glyph d="M1046 147q5 -10 5 -17q0 -12 -10 -22q-31 -31 -85.5 -61.5t-130.5 -51.5t-162 -21q-97 0 -179 32.5t-133.5 109.5t-51.5 203q0 43 8 101l3 17l-218 -76q-14 -5 -22 5.5t-6 26.5l19 133q4 26 32 36l224 77l71 477q29 198 135.5 282.5t252.5 84.5q112 0 190.5 -44 t117.5 -121t39 -174q0 -110 -54 -222t-174.5 -212.5t-310.5 -166.5l-68 -24l-18 -116q-5 -35 -5 -57q0 -96 55 -137t137 -41q126 0 247 79q13 8 22 8q15 0 24 -18zM684 1241.5q-44 -47.5 -61 -160.5l-55 -362q191 75 279.5 183t88.5 225q0 75 -33.5 118.5t-105.5 43.5 q-69 0 -113 -47.5z" glyph-name="l" unicode="l" vert-adv-y="1980"/>
<glyph d="M1046 147q5 -10 5 -17q0 -12 -10 -22q-31 -31 -85.5 -61.5t-130.5 -51.5t-162 -21q-97 0 -179 32.5t-133.5 109.5t-51.5 203q0 43 8 101l3 17l-218 -76q-14 -5 -22 5.5t-6 26.5l19 133q4 26 32 36l224 77l71 477q29 198 135.5 282.5t252.5 84.5q112 0 190.5 -44 t117.5 -121t39 -174q0 -110 -54 -222t-174.5 -212.5t-310.5 -166.5l-68 -24l-18 -116q-5 -35 -5 -57q0 -96 55 -137t137 -41q126 0 247 79q13 8 22 8q15 0 24 -18zM684 1241.5q-44 -47.5 -61 -160.5l-55 -362q191 75 279.5 183t88.5 225q0 75 -33.5 118.5t-105.5 43.5 q-69 0 -113 -47.5zM760 1569q-11 0 -18 4.5t-7 12.5q0 7 6 17l153 252q8 13 17 18.5t21 5.5h137q11 0 18 -4.5t7 -12.5q0 -6 -6 -17l-153 -252q-8 -13 -17 -18.5t-21 -5.5h-137z" glyph-name="lacute" unicode="ĺ" vert-adv-y="1980"/>
<glyph d="M1387 1880q14 0 20.5 -8.5t4.5 -21.5l-10 -72q-18 -134 -43 -254t-51 -200q-9 -23 -37 -23h-116q-24 0 -24 21q0 7 1 11q43 204 61 358h-243q-13 0 -20 8t-6 22l18 129q2 14 11.5 22t22.5 8h411zM489 519l-18 -116q-5 -35 -5 -57q0 -96 55 -137t137 -41q126 0 247 79 q13 8 22 8q15 0 24 -18l47 -90q4 -8 4 -16q0 -13 -10 -23q-31 -31 -85.5 -61.5t-130 -51.5t-161.5 -21q-98 0 -180 32.5t-133.5 109.5t-51.5 203q0 43 8 101l3 17l-218 -76q-14 -5 -22 5.5t-6 26.5l19 133q4 26 32 36l224 77l71 477q29 198 136 282.5t252 84.5 q112 0 190.5 -44.5t118 -121t39.5 -173.5q0 -110 -54 -222t-175 -212.5t-311 -166.5zM635.5 1241.5q-44.5 -47.5 -61.5 -160.5l-55 -362q191 75 279.5 183t88.5 225q0 75 -33.5 118.5t-104.5 43.5q-69 0 -113.5 -47.5z" glyph-name="lcaron" unicode="ľ" vert-adv-y="1980"/>
<glyph d="M1046 147q5 -10 5 -17q0 -12 -10 -22q-31 -31 -85.5 -61.5t-130.5 -51.5t-162 -21q-97 0 -179 32.5t-133.5 109.5t-51.5 203q0 43 8 101l3 17l-218 -76q-14 -5 -22 5.5t-6 26.5l19 133q4 26 32 36l224 77l71 477q29 198 135.5 282.5t252.5 84.5q112 0 190.5 -44 t117.5 -121t39 -174q0 -110 -54 -222t-174.5 -212.5t-310.5 -166.5l-68 -24l-18 -116q-5 -35 -5 -57q0 -96 55 -137t137 -41q126 0 247 79q13 8 22 8q15 0 24 -18zM684 1241.5q-44 -47.5 -61 -160.5l-55 -362q191 75 279.5 183t88.5 225q0 75 -33.5 118.5t-105.5 43.5 q-69 0 -113 -47.5zM705 -168q13 0 19.5 -7.5t4.5 -20.5l-9 -67q-19 -126 -43 -237t-48 -183q-7 -21 -35 -21h-110q-23 0 -23 19q0 6 1 10q42 193 58 332h-232q-12 0 -18.5 7.5t-5.5 20.5l17 119q2 13 11 20.5t21 7.5h392z" glyph-name="uni013C" unicode="ļ" vert-adv-y="1980"/>
<glyph d="M1009 147q5 -10 5 -17q0 -13 -11 -22q-31 -31 -85.5 -61.5t-130 -51.5t-161.5 -21q-98 0 -180 33t-133.5 110t-51.5 203q0 42 8 100l3 17l-218 -76q-14 -5 -22 5.5t-6 26.5l19 133q4 26 33 36l224 77l71 477q29 198 135.5 282.5t252.5 84.5q112 0 190 -44.5t117.5 -121 t39.5 -173.5q0 -110 -54 -222t-174.5 -212.5t-310.5 -166.5l-69 -24l-18 -116q-4 -27 -4 -56q0 -97 54.5 -138t137.5 -41q126 0 247 79q13 8 22 8q15 0 24 -18zM647 1241.5q-44 -47.5 -61 -160.5l-55 -362q191 75 279.5 183t88.5 225q0 75 -33.5 118.5t-105.5 43.5 q-69 0 -113 -47.5zM1078 622.5q35 -20.5 55.5 -55.5t20.5 -77t-20.5 -77t-55.5 -55.5t-77 -20.5t-77 20.5t-55.5 55.5t-20.5 77t20.5 77t55.5 55.5t77 20.5t77 -20.5z" glyph-name="ldot" unicode="ŀ" vert-adv-y="1980"/>
<glyph d="M1046 147q5 -10 5 -17q0 -12 -10 -22q-31 -31 -85.5 -61.5t-130.5 -51.5t-162 -21q-97 0 -179 32.5t-133.5 109.5t-51.5 203q0 43 8 101l3 17l-218 -76q-14 -5 -22 5.5t-6 26.5l19 133q4 26 32 36l224 77l18 122l-168 -64l28 197l170 64l23 158q29 198 135.5 282.5 t252.5 84.5q112 0 190.5 -44t117.5 -121t39 -174q0 -110 -54 -222t-174.5 -212.5t-310.5 -166.5l-68 -24l-18 -116q-5 -35 -5 -57q0 -96 55 -137t137 -41q126 0 247 79q13 8 22 8q15 0 24 -18zM618 1046l149 57l-27 -196l-152 -58l-20 -130q191 75 279.5 183t88.5 225 q0 75 -33.5 118.5t-105.5 43.5q-69 0 -113 -47.5t-61 -160.5z" glyph-name="lslash" unicode="ł" vert-adv-y="1980"/>
<glyph d="M902.5 29.5q-35.5 43.5 -35.5 121.5q0 31 4 58l57 371q12 80 12 128q0 55 -15 78.5t-45 23.5q-52 0 -94 -78t-80 -248t-79 -456q-4 -28 -32 -28h-118q-32 0 -28 32l78 548q11 82 11 125q0 57 -15.5 81t-50.5 24q-54 0 -96.5 -78t-81 -247.5t-80.5 -456.5q-4 -28 -32 -28 h-132q-15 0 -22.5 8t-5.5 24l133 928q4 30 33 30h123q15 0 22 -9t5 -25l-47 -311h13q34 143 75 223.5t85.5 112t97.5 31.5q142 0 142 -230q0 -63 -10 -137h13q49 208 115.5 287.5t152.5 79.5q82 0 127 -61t45 -183q0 -59 -12 -136l-57 -367q-5 -35 -5 -53q0 -62 41 -54 q15 3 23 -4.5t8 -23.5q0 -5 -2 -17q-8 -54 -41 -90.5t-98 -36.5q-66 0 -101.5 43.5z" glyph-name="m" unicode="m" vert-adv-y="1980"/>
<glyph d="M1061 166q12 0 19 -9t7 -26q0 -4 -2 -18q-9 -53 -51.5 -90t-102.5 -37q-48 0 -89 22.5t-65.5 65.5t-24.5 102q0 28 6 61l66 337q8 39 8 78q0 77 -34.5 117.5t-91.5 40.5q-84 0 -165.5 -90.5t-147.5 -267.5t-101 -424q-4 -28 -32 -28h-157q-32 0 -28 32l132 928 q4 30 33 30h148q17 0 23 -8.5t4 -25.5l-37 -326h19q79 187 182 284.5t227 97.5q72 0 130 -33t92 -96t34 -151q0 -44 -11 -101l-70 -355q-7 -40 -7 -59q0 -27 11.5 -41t37.5 -14q13 0 29 3q3 1 9 1z" glyph-name="n" unicode="n" vert-adv-y="1980"/>
<glyph d="M1061 166q12 0 19 -9t7 -26q0 -4 -2 -18q-9 -53 -51.5 -90t-102.5 -37q-48 0 -89 22.5t-65.5 65.5t-24.5 102q0 28 6 61l66 337q8 39 8 78q0 77 -34.5 117.5t-91.5 40.5q-84 0 -165.5 -90.5t-147.5 -267.5t-101 -424q-4 -28 -32 -28h-157q-32 0 -28 32l132 928 q4 30 33 30h148q17 0 23 -8.5t4 -25.5l-37 -326h19q79 187 182 284.5t227 97.5q72 0 130 -33t92 -96t34 -151q0 -44 -11 -101l-70 -355q-7 -40 -7 -59q0 -27 11.5 -41t37.5 -14q13 0 29 3q3 1 9 1zM656 1194q-11 0 -18 4.5t-7 12.5q0 7 6 17l153 252q8 13 17 18.5t21 5.5 h137q11 0 18 -4.5t7 -12.5q0 -6 -6 -17l-153 -252q-8 -13 -17 -18.5t-21 -5.5h-137z" glyph-name="nacute" unicode="ń" vert-adv-y="1980"/>
<glyph d="M1061 166q12 0 19 -9t7 -26q0 -4 -2 -18q-9 -53 -51.5 -90t-102.5 -37q-48 0 -89 22.5t-65.5 65.5t-24.5 102q0 28 6 61l66 337q8 39 8 78q0 77 -34.5 117.5t-91.5 40.5q-84 0 -165.5 -90.5t-147.5 -267.5t-101 -424q-4 -28 -32 -28h-157q-32 0 -28 32l132 928 q4 30 33 30h148q17 0 23 -8.5t4 -25.5l-37 -326h19q79 187 182 284.5t227 97.5q72 0 130 -33t92 -96t34 -151q0 -44 -11 -101l-70 -355q-7 -40 -7 -59q0 -27 11.5 -41t37.5 -14q13 0 29 3q3 1 9 1zM654 1192q-23 0 -34 16l-186 260q-6 9 -6 16q0 9 7.5 14.5t20.5 5.5h162 q22 0 34 -16l125 -171l173 171q17 16 38 16h166q11 0 17 -4t6 -11q0 -10 -11 -21l-259 -260q-9 -9 -18 -12.5t-20 -3.5h-215z" glyph-name="ncaron" unicode="ň" vert-adv-y="1980"/>
<glyph d="M1061 166q12 0 19 -9t7 -26q0 -4 -2 -18q-9 -53 -51.5 -90t-102.5 -37q-48 0 -89 22.5t-65.5 65.5t-24.5 102q0 28 6 61l66 337q8 39 8 78q0 77 -34.5 117.5t-91.5 40.5q-84 0 -165.5 -90.5t-147.5 -267.5t-101 -424q-4 -28 -32 -28h-157q-32 0 -28 32l132 928 q4 30 33 30h148q17 0 23 -8.5t4 -25.5l-37 -326h19q79 187 182 284.5t227 97.5q72 0 130 -33t92 -96t34 -151q0 -44 -11 -101l-70 -355q-7 -40 -7 -59q0 -27 11.5 -41t37.5 -14q13 0 29 3q3 1 9 1zM705 -168q13 0 19.5 -7.5t4.5 -20.5l-9 -67q-19 -126 -43 -237t-48 -183 q-7 -21 -35 -21h-110q-23 0 -23 19q0 6 1 10q42 193 58 332h-232q-12 0 -18.5 7.5t-5.5 20.5l17 119q2 13 11 20.5t21 7.5h392z" glyph-name="uni0146" unicode="ņ" vert-adv-y="1980"/>
<glyph d="M941.5 979q55.5 -33 87 -96.5t31.5 -153.5q0 -41 -10 -103l-112 -639q-34 -191 -140.5 -287t-269.5 -96q-11 0 -18 7t-9 16l-28 163q-1 4 -1 9q0 7 7 7q97 0 167 65t90 184l90 519q7 41 7 79q0 77 -31.5 117t-87.5 40q-84 0 -165.5 -90.5t-147.5 -267.5t-101 -424 q-4 -28 -32 -28h-157q-32 0 -28 32l132 928q4 30 33 30h148q17 0 23 -8.5t4 -25.5l-37 -326h19q79 187 182 284.5t227 97.5q72 0 127.5 -33z" glyph-name="eng" unicode="ŋ" vert-adv-y="1980"/>
<glyph d="M1061 166q12 0 19 -9t7 -26q0 -4 -2 -18q-9 -53 -51.5 -90t-102.5 -37q-48 0 -89 22.5t-65.5 65.5t-24.5 102q0 28 6 61l66 337q8 39 8 78q0 77 -34.5 117.5t-91.5 40.5q-84 0 -165.5 -90.5t-147.5 -267.5t-101 -424q-4 -28 -32 -28h-157q-32 0 -28 32l132 928 q4 30 33 30h148q17 0 23 -8.5t4 -25.5l-37 -326h19q79 187 182 284.5t227 97.5q72 0 130 -33t92 -96t34 -151q0 -44 -11 -101l-70 -355q-7 -40 -7 -59q0 -27 11.5 -41t37.5 -14q13 0 29 3q3 1 9 1zM790.5 1245.5q-37.5 20.5 -79.5 58.5q-36 31 -60.5 45.5t-57.5 14.5 q-37 0 -62 -17t-37 -41q-8 -17 -24 -17h-57q-8 0 -12.5 4.5t-4.5 12.5q0 5 1 8q24 88 83 134t142 46q54 0 91 -20t81 -58q35 -31 60 -46t58 -15q36 0 60.5 17t37.5 42q8 17 24 17h57q9 0 14 -5.5t3 -14.5q-17 -90 -79.5 -138t-145.5 -48q-55 0 -92.5 20.5z" glyph-name="ntilde" unicode="ñ" vert-adv-y="1980"/>
<glyph d="M320.5 32q-101.5 58 -158 161.5t-56.5 237.5q0 160 77.5 293t208.5 210.5t284 77.5q130 0 231.5 -57t158.5 -160t57 -236q0 -160 -77.5 -294.5t-208.5 -212.5t-284 -78q-131 0 -232.5 58zM742.5 222.5q77.5 46.5 123 129.5t45.5 186q0 85 -32 146.5t-89.5 93.5t-132.5 32 q-92 0 -169.5 -46.5t-123 -129.5t-45.5 -186q0 -85 32 -146.5t89.5 -93.5t132.5 -32q92 0 169.5 46.5z" glyph-name="o" unicode="o" vert-adv-y="1980"/>
<glyph d="M320.5 32q-101.5 58 -158 161.5t-56.5 237.5q0 160 77.5 293t208.5 210.5t284 77.5q130 0 231.5 -57t158.5 -160t57 -236q0 -160 -77.5 -294.5t-208.5 -212.5t-284 -78q-131 0 -232.5 58zM742.5 222.5q77.5 46.5 123 129.5t45.5 186q0 85 -32 146.5t-89.5 93.5t-132.5 32 q-92 0 -169.5 -46.5t-123 -129.5t-45.5 -186q0 -85 32 -146.5t89.5 -93.5t132.5 -32q92 0 169.5 46.5zM658 1194q-11 0 -18 4.5t-7 12.5q0 7 6 17l153 252q8 13 17 18.5t21 5.5h137q11 0 18 -4.5t7 -12.5q0 -6 -6 -17l-153 -252q-8 -13 -17 -18.5t-21 -5.5h-137z" glyph-name="oacute" unicode="ó" vert-adv-y="1980"/>
<glyph d="M320.5 32q-101.5 58 -158 161.5t-56.5 237.5q0 160 77.5 293t208.5 210.5t284 77.5q130 0 231.5 -57t158.5 -160t57 -236q0 -160 -77.5 -294.5t-208.5 -212.5t-284 -78q-131 0 -232.5 58zM742.5 222.5q77.5 46.5 123 129.5t45.5 186q0 85 -32 146.5t-89.5 93.5t-132.5 32 q-92 0 -169.5 -46.5t-123 -129.5t-45.5 -186q0 -85 32 -146.5t89.5 -93.5t132.5 -32q92 0 169.5 46.5zM655 1192q-23 0 -34 16l-186 260q-6 9 -6 16q0 9 7.5 14.5t20.5 5.5h162q22 0 34 -16l125 -171l173 171q17 16 38 16h166q11 0 17 -4t6 -11q0 -10 -11 -21l-259 -260 q-9 -9 -18 -12.5t-20 -3.5h-215z" glyph-name="uni01D2" unicode="ǒ" vert-adv-y="1980"/>
<glyph d="M320.5 32q-101.5 58 -158 161.5t-56.5 237.5q0 160 77.5 293t208.5 210.5t284 77.5q130 0 231.5 -57t158.5 -160t57 -236q0 -160 -77.5 -294.5t-208.5 -212.5t-284 -78q-131 0 -232.5 58zM742.5 222.5q77.5 46.5 123 129.5t45.5 186q0 85 -32 146.5t-89.5 93.5t-132.5 32 q-92 0 -169.5 -46.5t-123 -129.5t-45.5 -186q0 -85 32 -146.5t89.5 -93.5t132.5 -32q92 0 169.5 46.5zM427 1192q-11 0 -17 4t-6 11q0 10 11 21l259 260q9 9 18 12.5t20 3.5h216q11 0 19 -3.5t15 -12.5l185 -260q6 -9 6 -16q0 -9 -7.5 -14.5t-20.5 -5.5h-161q-22 0 -34 16 l-126 171l-173 -171q-17 -16 -38 -16h-166z" glyph-name="ocircumflex" unicode="ô" vert-adv-y="1980"/>
<glyph d="M320.5 32q-101.5 58 -158 161.5t-56.5 237.5q0 160 77.5 293t208.5 210.5t284 77.5q130 0 231.5 -57t158.5 -160t57 -236q0 -160 -77.5 -294.5t-208.5 -212.5t-284 -78q-131 0 -232.5 58zM742.5 222.5q77.5 46.5 123 129.5t45.5 186q0 85 -32 146.5t-89.5 93.5t-132.5 32 q-92 0 -169.5 -46.5t-123 -129.5t-45.5 -186q0 -85 32 -146.5t89.5 -93.5t132.5 -32q92 0 169.5 46.5zM471.5 1307q-33.5 34 -33.5 83q0 47 34 80.5t81 33.5t81.5 -33.5t34.5 -80.5q0 -49 -34 -83t-82 -34t-81.5 34zM878 1307q-34 34 -34 83q0 47 34.5 80.5t81.5 33.5 t81 -33.5t34 -80.5q0 -49 -33.5 -83t-81.5 -34t-82 34z" glyph-name="odieresis" unicode="ö" vert-adv-y="1980"/>
<glyph d="M320.5 32q-101.5 58 -158 161.5t-56.5 237.5q0 160 77.5 293t208.5 210.5t284 77.5q130 0 231.5 -57t158.5 -160t57 -236q0 -160 -77.5 -294.5t-208.5 -212.5t-284 -78q-131 0 -232.5 58zM742.5 222.5q77.5 46.5 123 129.5t45.5 186q0 85 -32 146.5t-89.5 93.5t-132.5 32 q-92 0 -169.5 -46.5t-123 -129.5t-45.5 -186q0 -85 32 -146.5t89.5 -93.5t132.5 -32q92 0 169.5 46.5zM679 1194q-12 0 -21 5.5t-17 18.5l-153 252q-6 11 -6 17q0 8 7 12.5t18 4.5h137q12 0 21 -5.5t17 -18.5l153 -252q6 -10 6 -17q0 -8 -7 -12.5t-18 -4.5h-137z" glyph-name="ograve" unicode="ò" vert-adv-y="1980"/>
<glyph d="M320.5 32q-101.5 58 -158 161.5t-56.5 237.5q0 160 77.5 293t208.5 210.5t284 77.5q130 0 231.5 -57t158.5 -160t57 -236q0 -160 -77.5 -294.5t-208.5 -212.5t-284 -78q-131 0 -232.5 58zM742.5 222.5q77.5 46.5 123 129.5t45.5 186q0 85 -32 146.5t-89.5 93.5t-132.5 32 q-92 0 -169.5 -46.5t-123 -129.5t-45.5 -186q0 -85 32 -146.5t89.5 -93.5t132.5 -32q92 0 169.5 46.5zM806 1194q-11 0 -18 4.5t-7 12.5q0 7 6 17l153 252q8 13 17 18.5t21 5.5h137q11 0 18 -4.5t7 -12.5q0 -6 -6 -17l-153 -252q-8 -13 -17 -18.5t-21 -5.5h-137zM470 1194 q-11 0 -18 4.5t-7 12.5q0 7 6 17l153 252q8 13 17 18.5t21 5.5h137q11 0 18 -4.5t7 -12.5q0 -6 -6 -17l-153 -252q-8 -13 -17 -18.5t-21 -5.5h-137z" glyph-name="ohungarumlaut" unicode="ő" vert-adv-y="1980"/>
<glyph d="M320.5 32q-101.5 58 -158 161.5t-56.5 237.5q0 160 77.5 293t208.5 210.5t284 77.5q130 0 231.5 -57t158.5 -160t57 -236q0 -160 -77.5 -294.5t-208.5 -212.5t-284 -78q-131 0 -232.5 58zM742.5 222.5q77.5 46.5 123 129.5t45.5 186q0 85 -32 146.5t-89.5 93.5t-132.5 32 q-92 0 -169.5 -46.5t-123 -129.5t-45.5 -186q0 -85 32 -146.5t89.5 -93.5t132.5 -32q92 0 169.5 46.5zM486 1331q-13 0 -20 8.5t-5 21.5l16 113q1 13 10.5 21.5t23.5 8.5h523q13 0 20.5 -8t5.5 -22l-16 -113q-2 -14 -11.5 -22t-23.5 -8h-523z" glyph-name="omacron" unicode="ō" vert-adv-y="1980"/>
<glyph d="M907.5 955q101.5 -57 158.5 -160t57 -236q0 -122 -45.5 -230t-126.5 -189t-186 -124v-5q-98 -38 -147.5 -80.5t-49.5 -97.5q0 -42 26 -67t75 -25q26 0 48 5v-142q-43 -20 -103 -20q-58 0 -110 21t-85.5 67.5t-33.5 118.5q0 107 93 188q-111 16 -195.5 77t-130.5 157.5 t-46 217.5q0 160 77.5 293t208.5 210.5t284 77.5q130 0 231.5 -57zM742.5 222.5q77.5 46.5 123 129.5t45.5 186q0 85 -32 146.5t-89.5 93.5t-132.5 32q-92 0 -169.5 -46.5t-123 -129.5t-45.5 -186q0 -85 32 -146.5t89.5 -93.5t132.5 -32q92 0 169.5 46.5z" glyph-name="uni01EB" unicode="ǫ" vert-adv-y="1980"/>
<glyph d="M961 919q77 -60 119.5 -153t42.5 -207q0 -160 -77.5 -294.5t-208.5 -212.5t-284 -78q-89 0 -168 28l-75 -120q-13 -22 -37 -22h-88q-24 0 -24 17q0 9 7 19l105 167q-80 62 -123.5 156.5t-43.5 211.5q0 160 77.5 293t208.5 210.5t284 77.5q95 0 173 -30l70 112 q13 22 37 22h89q24 0 24 -17q0 -9 -7 -19zM389 248l346 552q-34 10 -78 10q-92 0 -169.5 -46.5t-123 -129.5t-45.5 -186q0 -125 70 -200zM742.5 222.5q77.5 46.5 123 129.5t45.5 186q0 124 -66 196l-345 -549q34 -9 73 -9q92 0 169.5 46.5z" glyph-name="oslash" unicode="ø" vert-adv-y="1980"/>
<glyph d="M320.5 32q-101.5 58 -158 161.5t-56.5 237.5q0 160 77.5 293t208.5 210.5t284 77.5q130 0 231.5 -57t158.5 -160t57 -236q0 -160 -77.5 -294.5t-208.5 -212.5t-284 -78q-131 0 -232.5 58zM742.5 222.5q77.5 46.5 123 129.5t45.5 186q0 85 -32 146.5t-89.5 93.5t-132.5 32 q-92 0 -169.5 -46.5t-123 -129.5t-45.5 -186q0 -85 32 -146.5t89.5 -93.5t132.5 -32q92 0 169.5 46.5zM791.5 1245.5q-37.5 20.5 -79.5 58.5q-36 31 -60.5 45.5t-57.5 14.5q-37 0 -62 -17t-37 -41q-8 -17 -24 -17h-57q-8 0 -12.5 4.5t-4.5 12.5q0 5 1 8q24 88 83 134t142 46 q54 0 91 -20t81 -58q35 -31 60 -46t58 -15q36 0 60.5 17t37.5 42q8 17 24 17h57q9 0 14 -5.5t3 -14.5q-17 -90 -79.5 -138t-145.5 -48q-55 0 -92.5 20.5z" glyph-name="otilde" unicode="õ" vert-adv-y="1980"/>
<glyph d="M1149 925q58 -88 58 -242q0 -71 -13 -164q-9 -62 -25 -87t-55 -25h-419q-2 -34 -2 -48q0 -101 40.5 -155t132.5 -54q54 0 96.5 20t88.5 60l76 -108q-58 -71 -135 -109.5t-167 -38.5q-193 0 -248 182q-102 -182 -285 -182q-135 0 -200 94t-65 264q0 75 12 162 q34 241 134 380t265 139q183 0 234 -182q51 87 123 134.5t166 47.5q130 0 188 -88zM789.5 761q-49.5 -72 -74.5 -204h320q9 59 9 108q0 82 -29.5 125t-94.5 43q-81 0 -130.5 -72zM551 622q0 104 -33 157t-99 53q-84 0 -139 -86t-78 -253q-10 -70 -10 -130q0 -104 33 -157 t99 -53q83 0 138 86t79 254q10 69 10 129z" glyph-name="oe" unicode="œ" vert-adv-y="1980"/>
<glyph d="M978 970q63 -42 97.5 -124.5t34.5 -200.5q0 -183 -84 -336.5t-237 -244t-351 -90.5q-77 0 -152 15l-48 -341q-4 -28 -32 -28h-157q-32 0 -28 32l187 1310q4 28 32 28h158q15 0 22.5 -8.5t5.5 -23.5l-43 -298l-10 -33h18q171 385 438 385q86 0 149 -42zM692 230 q97 58 150.5 155.5t53.5 212.5q0 112 -45 164.5t-113 52.5q-96 0 -178 -83t-140 -203t-91 -240l-12 -82q24 -18 65 -26.5t88 -8.5q125 0 222 58z" glyph-name="p" unicode="p" vert-adv-y="1980"/>
<glyph d="M980 970q63 -42 97.5 -124.5t34.5 -200.5q0 -183 -84 -336.5t-237 -244t-351 -90.5h-1h-1q-73 0 -149 14l-49 -340q-4 -28 -32 -28h-157q-32 0 -28 32l61 428l-1 1l184 1291q4 28 32 28h158q15 0 22.5 -8.5t5.5 -23.5l-57 -398q2 -4 0 -12l-43 -298l-3 -11l-3 -22h13 q171 385 438 385h1v0q86 0 149 -42zM564 734q-81 -81 -139 -199t-92 -238l-13 -91q24 -18 65 -26t87 -8q129 0 233 64q91 57 142.5 153t51.5 209q0 112 -45.5 164.5t-113.5 52.5q-95 0 -176 -81z" glyph-name="thorn" unicode="þ" vert-adv-y="1980"/>
<glyph d="M1053 428l-110 -783q-2 -14 -10 -19.5t-24 -5.5h-154q-14 0 -22 10t-6 26l96 703h-10q-83 -189 -187.5 -287t-238.5 -98q-87 0 -151.5 42t-99.5 124.5t-35 199.5q0 182 83.5 336t236 245t349.5 91q106 0 202.5 -26t147.5 -77zM669 274q87 103 144.5 244t79.5 256 q-25 21 -67.5 30.5t-89.5 9.5q-123 0 -219 -58.5t-149 -156.5t-53 -213q0 -111 46.5 -163t116.5 -52q104 0 191 103z" glyph-name="q" unicode="q" vert-adv-y="1980"/>
<glyph d="M1171 215q15 -11 15 -27q0 -10 -4 -19q-34 -86 -108.5 -140.5t-169.5 -54.5q-67 0 -120.5 29t-84.5 85.5t-31 133.5q0 33 6 70l69 418q-53 -37 -125 -58t-150 -21q-47 0 -93 8l-46 -237q-6 -28 -32 -28h-149q-15 0 -22.5 8.5t-4.5 23.5l66 341q-48 63 -48 141 q0 51 21 95.5t59 70.5t85 26q51 0 84.5 -29.5t33.5 -75.5q0 -39 -23.5 -67t-59.5 -30q7 -26 42.5 -41.5t98.5 -15.5q69 0 133 19t110 52t63 73q10 25 34 25h153q15 0 22 -9t5 -24l-110 -652q-6 -30 -6 -56q0 -81 62 -81q35 0 62 24t53 71q8 15 21 15q11 0 20 -8z" glyph-name="r" unicode="r" vert-adv-y="1980"/>
<glyph d="M1171 215q15 -11 15 -27q0 -10 -4 -19q-34 -86 -108.5 -140.5t-169.5 -54.5q-67 0 -120.5 29t-84.5 85.5t-31 133.5q0 33 6 70l69 418q-53 -37 -125 -58t-150 -21q-47 0 -93 8l-46 -237q-6 -28 -32 -28h-149q-15 0 -22.5 8.5t-4.5 23.5l66 341q-48 63 -48 141 q0 51 21 95.5t59 70.5t85 26q51 0 84.5 -29.5t33.5 -75.5q0 -39 -23.5 -67t-59.5 -30q7 -26 42.5 -41.5t98.5 -15.5q69 0 133 19t110 52t63 73q10 25 34 25h153q15 0 22 -9t5 -24l-110 -652q-6 -30 -6 -56q0 -81 62 -81q35 0 62 24t53 71q8 15 21 15q11 0 20 -8zM642 1194 q-11 0 -18 4.5t-7 12.5q0 7 6 17l153 252q8 13 17 18.5t21 5.5h137q11 0 18 -4.5t7 -12.5q0 -6 -6 -17l-153 -252q-8 -13 -17 -18.5t-21 -5.5h-137z" glyph-name="racute" unicode="ŕ" vert-adv-y="1980"/>
<glyph d="M1171 215q15 -11 15 -27q0 -10 -4 -19q-34 -86 -108.5 -140.5t-169.5 -54.5q-67 0 -120.5 29t-84.5 85.5t-31 133.5q0 33 6 70l69 418q-53 -37 -125 -58t-150 -21q-47 0 -93 8l-46 -237q-6 -28 -32 -28h-149q-15 0 -22.5 8.5t-4.5 23.5l66 341q-48 63 -48 141 q0 51 21 95.5t59 70.5t85 26q51 0 84.5 -29.5t33.5 -75.5q0 -39 -23.5 -67t-59.5 -30q7 -26 42.5 -41.5t98.5 -15.5q69 0 133 19t110 52t63 73q10 25 34 25h153q15 0 22 -9t5 -24l-110 -652q-6 -30 -6 -56q0 -81 62 -81q35 0 62 24t53 71q8 15 21 15q11 0 20 -8zM640 1192 q-23 0 -34 16l-186 260q-6 9 -6 16q0 9 7.5 14.5t20.5 5.5h162q22 0 34 -16l125 -171l173 171q17 16 38 16h166q11 0 17 -4t6 -11q0 -10 -11 -21l-259 -260q-9 -9 -18 -12.5t-20 -3.5h-215z" glyph-name="rcaron" unicode="ř" vert-adv-y="1980"/>
<glyph d="M1171 215q15 -11 15 -27q0 -10 -4 -19q-34 -86 -108.5 -140.5t-169.5 -54.5q-67 0 -120.5 29t-84.5 85.5t-31 133.5q0 33 6 70l69 418q-53 -37 -125 -58t-150 -21q-47 0 -93 8l-46 -237q-6 -28 -32 -28h-149q-15 0 -22.5 8.5t-4.5 23.5l66 341q-48 63 -48 141 q0 51 21 95.5t59 70.5t85 26q51 0 84.5 -29.5t33.5 -75.5q0 -39 -23.5 -67t-59.5 -30q7 -26 42.5 -41.5t98.5 -15.5q69 0 133 19t110 52t63 73q10 25 34 25h153q15 0 22 -9t5 -24l-110 -652q-6 -30 -6 -56q0 -81 62 -81q35 0 62 24t53 71q8 15 21 15q11 0 20 -8zM698 -168 q13 0 19.5 -7.5t4.5 -20.5l-9 -67q-19 -126 -43 -237t-48 -183q-7 -21 -35 -21h-110q-23 0 -23 19q0 6 1 10q42 193 58 332h-232q-12 0 -18.5 7.5t-5.5 20.5l17 119q2 13 11 20.5t21 7.5h392z" glyph-name="uni0157" unicode="ŗ" vert-adv-y="1980"/>
<glyph d="M893 1013q0 -69 15.5 -127.5t37.5 -103.5t59 -108q33 -56 53 -95t33 -86.5t13 -101.5q0 -126 -73.5 -221t-198 -145.5t-273.5 -50.5q-137 0 -237 42t-151.5 113.5t-51.5 157.5q0 29 6 57q6 25 34 25h150q29 0 27 -31q-2 -48 27.5 -85.5t86 -58.5t129.5 -21q88 0 159 30.5 t111.5 87.5t40.5 134q0 54 -17.5 96.5t-55.5 108.5q-37 61 -57.5 107t-27.5 105l-256 -286q-18 -19 -41 -19q-36 0 -80 41q-40 37 -40 75q0 24 17 43l283 301q16 16 36 16h242z" glyph-name="s" unicode="s" vert-adv-y="1980"/>
<glyph d="M893 1013q0 -69 15.5 -127.5t37.5 -103.5t59 -108q33 -56 53 -95t33 -86.5t13 -101.5q0 -126 -73.5 -221t-198 -145.5t-273.5 -50.5q-137 0 -237 42t-151.5 113.5t-51.5 157.5q0 29 6 57q6 25 34 25h150q29 0 27 -31q-2 -48 27.5 -85.5t86 -58.5t129.5 -21q88 0 159 30.5 t111.5 87.5t40.5 134q0 54 -17.5 96.5t-55.5 108.5q-37 61 -57.5 107t-27.5 105l-256 -286q-18 -19 -41 -19q-36 0 -80 41q-40 37 -40 75q0 24 17 43l283 301q16 16 36 16h242zM619 1194q-11 0 -18 4.5t-7 12.5q0 7 6 17l153 252q8 13 17 18.5t21 5.5h137q11 0 18 -4.5 t7 -12.5q0 -6 -6 -17l-153 -252q-8 -13 -17 -18.5t-21 -5.5h-137z" glyph-name="sacute" unicode="ś" vert-adv-y="1980"/>
<glyph d="M893 1013q0 -69 15.5 -127.5t37.5 -103.5t59 -108q33 -56 53 -95t33 -86.5t13 -101.5q0 -126 -73.5 -221t-198 -145.5t-273.5 -50.5q-137 0 -237 42t-151.5 113.5t-51.5 157.5q0 29 6 57q6 25 34 25h150q29 0 27 -31q-2 -48 27.5 -85.5t86 -58.5t129.5 -21q88 0 159 30.5 t111.5 87.5t40.5 134q0 54 -17.5 96.5t-55.5 108.5q-37 61 -57.5 107t-27.5 105l-256 -286q-18 -19 -41 -19q-36 0 -80 41q-40 37 -40 75q0 24 17 43l283 301q16 16 36 16h242zM617 1192q-23 0 -34 16l-186 260q-6 9 -6 16q0 9 7.5 14.5t20.5 5.5h162q22 0 34 -16l125 -171 l173 171q17 16 38 16h166q11 0 17 -4t6 -11q0 -10 -11 -21l-259 -260q-9 -9 -18 -12.5t-20 -3.5h-215z" glyph-name="scaron" unicode="š" vert-adv-y="1980"/>
<glyph d="M1034.5 175q-69.5 -93 -189 -145t-263.5 -56l-54 -45q64 -6 107.5 -43t43.5 -96q0 -71 -39 -122t-104.5 -77t-142.5 -26q-38 0 -75 6q-18 3 -15 22l11 78q2 9 9 15t16 5q34 -4 51 -4q56 0 93 19t37 57q0 23 -23.5 39t-60.5 16q-38 0 -79 -17q-4 -2 -10 -2q-14 0 -12 16 l11 78q1 14 13 24l76 67q-100 17 -171.5 61t-108 106.5t-36.5 134.5q0 30 6 58q6 25 34 25h150q29 0 27 -31q-2 -48 27.5 -85.5t86 -58.5t129.5 -21q88 0 159 30.5t111.5 87.5t40.5 134q0 54 -17.5 96.5t-55.5 108.5q-37 61 -57.5 107t-27.5 105l-256 -286q-18 -19 -41 -19 q-36 0 -80 41q-40 37 -40 75q0 24 17 43l283 301q16 16 36 16h242q0 -69 15.5 -127.5t37.5 -103.5t59 -108q33 -56 53 -95t33 -86.5t13 -101.5q0 -123 -69.5 -216z" glyph-name="scedilla" unicode="ş" vert-adv-y="1980"/>
<glyph d="M893 1013q0 -69 15.5 -127.5t37.5 -103.5t59 -108q33 -56 53 -95t33 -86.5t13 -101.5q0 -126 -73.5 -221t-198 -145.5t-273.5 -50.5q-137 0 -237 42t-151.5 113.5t-51.5 157.5q0 29 6 57q6 25 34 25h150q29 0 27 -31q-2 -48 27.5 -85.5t86 -58.5t129.5 -21q88 0 159 30.5 t111.5 87.5t40.5 134q0 54 -17.5 96.5t-55.5 108.5q-37 61 -57.5 107t-27.5 105l-256 -286q-18 -19 -41 -19q-36 0 -80 41q-40 37 -40 75q0 24 17 43l283 301q16 16 36 16h242zM678 -168q13 0 19.5 -7.5t4.5 -20.5l-9 -67q-19 -126 -43 -237t-48 -183q-7 -21 -35 -21h-110 q-23 0 -23 19q0 6 1 10q42 193 58 332h-232q-12 0 -18.5 7.5t-5.5 20.5l17 119q2 13 11 20.5t21 7.5h392z" glyph-name="uni0219" unicode="ș" vert-adv-y="1980"/>
<glyph d="M898 702.5q13 -21.5 31.5 -39t54.5 -45.5q50 -38 82 -70.5t55 -82t23 -116.5q0 -113 -65.5 -191.5t-180 -118t-260.5 -39.5h-117q-13 0 -20 8.5t-5 21.5l15 115q2 14 11.5 22t22.5 8h97q139 0 211.5 47t72.5 130q0 43 -18 77t-45 58.5t-70 56.5q-42 32 -67.5 55 t-42.5 54.5t-17 70.5q0 47 21.5 82t65.5 83q32 36 49.5 59t30 54t12.5 68q0 132 -170 132q-102 0 -153.5 -50t-65.5 -152l-189 -1351q-2 -13 -11.5 -21.5t-23.5 -8.5h-159q-14 0 -20.5 8t-4.5 22l156 1112h-110q-14 0 -21 8.5t-5 21.5l16 119q2 14 12 22t23 8h110l10 72 q26 187 145 287.5t318 100.5q172 0 269.5 -75t97.5 -212q0 -59 -16.5 -104t-39.5 -75t-59 -67t-52.5 -61.5t-16.5 -55.5q0 -26 13 -47.5z" glyph-name="germandbls" unicode="ß" vert-adv-y="1980"/>
<glyph d="M1128 1471q65 -12 107.5 -35.5t42.5 -57.5q0 -6 -1 -10l-14 -79q-3 -16 -13 -24t-25 -8q-11 0 -22 4q-5 1 -31.5 9t-66.5 14t-83 6q-113 0 -173 -46.5t-74 -158.5l-138 -1087q-27 -214 -146.5 -301t-274.5 -87q-75 0 -133 17.5t-89 46t-26 58.5l12 80q2 17 11.5 25 t22.5 8q5 0 13 -2l23 -8q42 -15 75.5 -23.5t72.5 -8.5q84 0 147.5 53t79.5 179l87 701h-319q-15 0 -22.5 8.5t-5.5 23.5l17 119q4 28 32 28h320l26 213q24 190 145 272.5t291 82.5q67 0 132 -12z" glyph-name="longs" unicode="ſ" vert-adv-y="1980"/>
<glyph d="M644 807l-58 -409q-4 -28 -4 -57q0 -93 47.5 -133t118.5 -40q81 0 136.5 46.5t86.5 123.5q7 19 23 19q6 0 18 -5l101 -41q19 -8 19 -26q0 -6 -1 -10.5t-2 -7.5q-24 -87 -83 -153t-144 -103t-185 -37q-93 0 -174 32.5t-132.5 107t-51.5 191.5q0 37 6 80l60 422h-296 q-15 0 -22.5 8.5t-5.5 23.5l18 123q4 28 34 28h298l46 322q4 28 32 28h159q15 0 22.5 -8t5.5 -24l-45 -318h436q16 0 23.5 -8t5.5 -24l-18 -123q-4 -28 -32 -28h-442z" glyph-name="t" unicode="t" vert-adv-y="1980"/>
<glyph d="M644 807l-17 -119h445q15 0 22.5 -8t5.5 -24l-18 -121q-4 -28 -32 -28h-448l-16 -109q-4 -28 -4 -57q0 -93 47.5 -133t118.5 -40q81 0 136.5 46.5t86.5 123.5q7 19 23 19q6 0 18 -5l101 -41q19 -8 19 -26q0 -6 -1 -10.5t-2 -7.5q-24 -87 -83 -153t-144 -103t-185 -37 q-93 0 -174 32.5t-132.5 107t-51.5 191.5q0 37 6 80l17 122h-295q-15 0 -22.5 8.5t-5.5 23.5l18 121q4 28 32 28h299l17 119h-296q-15 0 -22.5 8.5t-5.5 23.5l18 123q4 28 34 28h298l46 322q4 28 32 28h159q15 0 22.5 -8t5.5 -24l-45 -318h436q16 0 23.5 -8t5.5 -24 l-18 -123q-4 -28 -32 -28h-442z" glyph-name="tbar" unicode="ŧ" vert-adv-y="1980"/>
<glyph d="M644 807l-58 -409q-4 -28 -4 -57q0 -93 47.5 -133t118.5 -40q81 0 136.5 46.5t86.5 123.5q7 19 23 19q6 0 18 -5l101 -41q19 -8 19 -26q0 -6 -1 -10.5t-2 -7.5q-24 -87 -83 -153t-144 -103t-185 -37q-93 0 -174 32.5t-132.5 107t-51.5 191.5q0 37 6 80l60 422h-296 q-15 0 -22.5 8.5t-5.5 23.5l18 123q4 28 34 28h298l46 322q4 28 32 28h159q15 0 22.5 -8t5.5 -24l-45 -318h436q16 0 23.5 -8t5.5 -24l-18 -123q-4 -28 -32 -28h-442zM999 1324q-11 0 -18 4.5t-7 12.5q0 7 6 17l153 252q8 13 17 18.5t21 5.5h137q11 0 18 -4.5t7 -12.5 q0 -6 -6 -17l-153 -252q-8 -13 -17 -18.5t-21 -5.5h-137z" glyph-name="tcaron" unicode="ť" vert-adv-y="1980"/>
<glyph d="M644 807l-58 -409q-4 -28 -4 -57q0 -93 47.5 -133t118.5 -40q81 0 136.5 46.5t86.5 123.5q7 19 23 19q6 0 18 -5l101 -41q19 -8 19 -26q0 -6 -1 -10.5t-2 -7.5q-24 -87 -83 -153t-144 -103t-185 -37q-16 0 -24 1l-54 -46q64 -6 107.5 -43t43.5 -96q0 -71 -39 -122 t-104.5 -77t-142.5 -26q-38 0 -75 6q-18 3 -15 22l11 78q2 9 9 15t16 5q34 -4 51 -4q56 0 93 19t37 57q0 23 -23.5 39t-60.5 16q-38 0 -79 -17q-4 -2 -10 -2q-14 0 -12 16l10 78q3 14 14 24l93 82q-92 33 -148 108t-56 197q0 38 6 81l60 422h-296q-15 0 -22.5 8.5t-5.5 23.5 l18 123q4 28 34 28h298l46 322q4 28 32 28h159q15 0 22.5 -8t5.5 -24l-45 -318h436q16 0 23.5 -8t5.5 -24l-18 -123q-4 -28 -32 -28h-442z" glyph-name="uni0163" unicode="ţ" vert-adv-y="1980"/>
<glyph d="M644 807l-58 -409q-4 -28 -4 -57q0 -93 47.5 -133t118.5 -40q81 0 136.5 46.5t86.5 123.5q7 19 23 19q6 0 18 -5l101 -41q19 -8 19 -26q0 -6 -1 -10.5t-2 -7.5q-24 -87 -83 -153t-144 -103t-185 -37q-93 0 -174 32.5t-132.5 107t-51.5 191.5q0 37 6 80l60 422h-296 q-15 0 -22.5 8.5t-5.5 23.5l18 123q4 28 34 28h298l46 322q4 28 32 28h159q15 0 22.5 -8t5.5 -24l-45 -318h436q16 0 23.5 -8t5.5 -24l-18 -123q-4 -28 -32 -28h-442zM844 -168q13 0 19.5 -7.5t4.5 -20.5l-9 -67q-19 -126 -43 -237t-48 -183q-7 -21 -35 -21h-110 q-23 0 -23 19q0 6 1 10q42 193 58 332h-232q-12 0 -18.5 7.5t-5.5 20.5l17 119q2 13 11 20.5t21 7.5h392z" glyph-name="uni021B" unicode="ț" vert-adv-y="1980"/>
<glyph d="M260 10q-56 32 -88 94.5t-32 149.5q0 52 12 110l67 350q7 39 7 58q0 28 -11.5 42t-37.5 14q-13 0 -30 -3q-3 -1 -9 -1q-12 0 -19 8.5t-7 24.5q0 38 20 71.5t56 54.5t80 21q49 0 90 -22.5t65.5 -65.5t24.5 -102q0 -28 -6 -61l-65 -337q-9 -45 -9 -82q0 -75 32 -114t87 -39 q84 0 165.5 90.5t147.5 267t103 423.5q4 28 32 28h156q32 0 28 -32l-97 -685q-6 -46 -6 -59q0 -28 10.5 -41.5t35.5 -13.5q14 0 30 3q3 1 8 1q12 0 19.5 -9t7.5 -27q0 -36 -20 -69.5t-56 -54t-80 -20.5q-76 0 -125 52.5t-49 146.5q0 15 4 51l17 127h-21 q-78 -186 -181.5 -284t-227.5 -98q-72 0 -128 32z" glyph-name="u" unicode="u" vert-adv-y="1980"/>
<glyph d="M260 10q-56 32 -88 94.5t-32 149.5q0 52 12 110l67 350q7 39 7 58q0 28 -11.5 42t-37.5 14q-13 0 -30 -3q-3 -1 -9 -1q-12 0 -19 8.5t-7 24.5q0 38 20 71.5t56 54.5t80 21q49 0 90 -22.5t65.5 -65.5t24.5 -102q0 -28 -6 -61l-65 -337q-9 -45 -9 -82q0 -75 32 -114t87 -39 q84 0 165.5 90.5t147.5 267t103 423.5q4 28 32 28h156q32 0 28 -32l-97 -685q-6 -46 -6 -59q0 -28 10.5 -41.5t35.5 -13.5q14 0 30 3q3 1 8 1q12 0 19.5 -9t7.5 -27q0 -36 -20 -69.5t-56 -54t-80 -20.5q-76 0 -125 52.5t-49 146.5q0 15 4 51l17 127h-21 q-78 -186 -181.5 -284t-227.5 -98q-72 0 -128 32zM607 1184q-11 0 -18 4.5t-7 12.5q0 7 6 17l153 252q8 13 17 18.5t21 5.5h137q11 0 18 -4.5t7 -12.5q0 -6 -6 -17l-153 -252q-8 -13 -17 -18.5t-21 -5.5h-137z" glyph-name="uacute" unicode="ú" vert-adv-y="1980"/>
<glyph d="M260 10q-56 32 -88 94.5t-32 149.5q0 52 12 110l67 350q7 39 7 58q0 28 -11.5 42t-37.5 14q-13 0 -30 -3q-3 -1 -9 -1q-12 0 -19 8.5t-7 24.5q0 38 20 71.5t56 54.5t80 21q49 0 90 -22.5t65.5 -65.5t24.5 -102q0 -28 -6 -61l-65 -337q-9 -45 -9 -82q0 -75 32 -114t87 -39 q84 0 165.5 90.5t147.5 267t103 423.5q4 28 32 28h156q32 0 28 -32l-97 -685q-6 -46 -6 -59q0 -28 10.5 -41.5t35.5 -13.5q14 0 30 3q3 1 8 1q12 0 19.5 -9t7.5 -27q0 -36 -20 -69.5t-56 -54t-80 -20.5q-76 0 -125 52.5t-49 146.5q0 15 4 51l17 127h-21 q-78 -186 -181.5 -284t-227.5 -98q-72 0 -128 32zM530 1227q-64 36 -95.5 98t-28.5 138q2 31 34 31h85q26 0 28 -29q4 -52 42.5 -88.5t104.5 -36.5t110 35.5t64 89.5q11 29 36 29h93q25 0 25 -20q0 -7 -1 -11q-18 -77 -64.5 -138.5t-117.5 -97.5t-161 -36t-154 36z" glyph-name="ubreve" unicode="ŭ" vert-adv-y="1980"/>
<glyph d="M260 10q-56 32 -88 94.5t-32 149.5q0 52 12 110l67 350q7 39 7 58q0 28 -11.5 42t-37.5 14q-13 0 -30 -3q-3 -1 -9 -1q-12 0 -19 8.5t-7 24.5q0 38 20 71.5t56 54.5t80 21q49 0 90 -22.5t65.5 -65.5t24.5 -102q0 -28 -6 -61l-65 -337q-9 -45 -9 -82q0 -75 32 -114t87 -39 q84 0 165.5 90.5t147.5 267t103 423.5q4 28 32 28h156q32 0 28 -32l-97 -685q-6 -46 -6 -59q0 -28 10.5 -41.5t35.5 -13.5q14 0 30 3q3 1 8 1q12 0 19.5 -9t7.5 -27q0 -36 -20 -69.5t-56 -54t-80 -20.5q-76 0 -125 52.5t-49 146.5q0 15 4 51l17 127h-21 q-78 -186 -181.5 -284t-227.5 -98q-72 0 -128 32zM604 1182q-23 0 -34 16l-186 260q-6 9 -6 16q0 9 7.5 14.5t20.5 5.5h162q22 0 34 -16l125 -171l173 171q17 16 38 16h166q11 0 17 -4t6 -11q0 -10 -11 -21l-259 -260q-9 -9 -18 -12.5t-20 -3.5h-215z" glyph-name="uni01D4" unicode="ǔ" vert-adv-y="1980"/>
<glyph d="M260 10q-56 32 -88 94.5t-32 149.5q0 52 12 110l67 350q7 39 7 58q0 28 -11.5 42t-37.5 14q-13 0 -30 -3q-3 -1 -9 -1q-12 0 -19 8.5t-7 24.5q0 38 20 71.5t56 54.5t80 21q49 0 90 -22.5t65.5 -65.5t24.5 -102q0 -28 -6 -61l-65 -337q-9 -45 -9 -82q0 -75 32 -114t87 -39 q84 0 165.5 90.5t147.5 267t103 423.5q4 28 32 28h156q32 0 28 -32l-97 -685q-6 -46 -6 -59q0 -28 10.5 -41.5t35.5 -13.5q14 0 30 3q3 1 8 1q12 0 19.5 -9t7.5 -27q0 -36 -20 -69.5t-56 -54t-80 -20.5q-76 0 -125 52.5t-49 146.5q0 15 4 51l17 127h-21 q-78 -186 -181.5 -284t-227.5 -98q-72 0 -128 32zM376 1182q-11 0 -17 4t-6 11q0 10 11 21l259 260q9 9 18 12.5t20 3.5h216q11 0 19 -3.5t15 -12.5l185 -260q6 -9 6 -16q0 -9 -7.5 -14.5t-20.5 -5.5h-161q-22 0 -34 16l-126 171l-173 -171q-17 -16 -38 -16h-166z" glyph-name="ucircumflex" unicode="û" vert-adv-y="1980"/>
<glyph d="M260 10q-56 32 -88 94.5t-32 149.5q0 52 12 110l67 350q7 39 7 58q0 28 -11.5 42t-37.5 14q-13 0 -30 -3q-3 -1 -9 -1q-12 0 -19 8.5t-7 24.5q0 38 20 71.5t56 54.5t80 21q49 0 90 -22.5t65.5 -65.5t24.5 -102q0 -28 -6 -61l-65 -337q-9 -45 -9 -82q0 -75 32 -114t87 -39 q84 0 165.5 90.5t147.5 267t103 423.5q4 28 32 28h156q32 0 28 -32l-97 -685q-6 -46 -6 -59q0 -28 10.5 -41.5t35.5 -13.5q14 0 30 3q3 1 8 1q12 0 19.5 -9t7.5 -27q0 -36 -20 -69.5t-56 -54t-80 -20.5q-76 0 -125 52.5t-49 146.5q0 15 4 51l17 127h-21 q-78 -186 -181.5 -284t-227.5 -98q-72 0 -128 32zM420.5 1297q-33.5 34 -33.5 83q0 47 34 80.5t81 33.5t81.5 -33.5t34.5 -80.5q0 -49 -34 -83t-82 -34t-81.5 34zM827 1297q-34 34 -34 83q0 47 34.5 80.5t81.5 33.5t81 -33.5t34 -80.5q0 -49 -33.5 -83t-81.5 -34t-82 34z " glyph-name="udieresis" unicode="ü" vert-adv-y="1980"/>
<glyph d="M260 10q-56 32 -88 94.5t-32 149.5q0 52 12 110l67 350q7 39 7 58q0 28 -11.5 42t-37.5 14q-13 0 -30 -3q-3 -1 -9 -1q-12 0 -19 8.5t-7 24.5q0 38 20 71.5t56 54.5t80 21q49 0 90 -22.5t65.5 -65.5t24.5 -102q0 -28 -6 -61l-65 -337q-9 -45 -9 -82q0 -75 32 -114t87 -39 q84 0 165.5 90.5t147.5 267t103 423.5q4 28 32 28h156q32 0 28 -32l-97 -685q-6 -46 -6 -59q0 -28 10.5 -41.5t35.5 -13.5q14 0 30 3q3 1 8 1q12 0 19.5 -9t7.5 -27q0 -36 -20 -69.5t-56 -54t-80 -20.5q-76 0 -125 52.5t-49 146.5q0 15 4 51l17 127h-21 q-78 -186 -181.5 -284t-227.5 -98q-72 0 -128 32zM628 1184q-12 0 -21 5.5t-17 18.5l-153 252q-6 11 -6 17q0 8 7 12.5t18 4.5h137q12 0 21 -5.5t17 -18.5l153 -252q6 -10 6 -17q0 -8 -7 -12.5t-18 -4.5h-137z" glyph-name="ugrave" unicode="ù" vert-adv-y="1980"/>
<glyph d="M260 10q-56 32 -88 94.5t-32 149.5q0 52 12 110l67 350q7 39 7 58q0 28 -11.5 42t-37.5 14q-13 0 -30 -3q-3 -1 -9 -1q-12 0 -19 8.5t-7 24.5q0 38 20 71.5t56 54.5t80 21q49 0 90 -22.5t65.5 -65.5t24.5 -102q0 -28 -6 -61l-65 -337q-9 -45 -9 -82q0 -75 32 -114t87 -39 q84 0 165.5 90.5t147.5 267t103 423.5q4 28 32 28h156q32 0 28 -32l-97 -685q-6 -46 -6 -59q0 -28 10.5 -41.5t35.5 -13.5q14 0 30 3q3 1 8 1q12 0 19.5 -9t7.5 -27q0 -36 -20 -69.5t-56 -54t-80 -20.5q-76 0 -125 52.5t-49 146.5q0 15 4 51l17 127h-21 q-78 -186 -181.5 -284t-227.5 -98q-72 0 -128 32zM755 1184q-11 0 -18 4.5t-7 12.5q0 7 6 17l153 252q8 13 17 18.5t21 5.5h137q11 0 18 -4.5t7 -12.5q0 -6 -6 -17l-153 -252q-8 -13 -17 -18.5t-21 -5.5h-137zM419 1184q-11 0 -18 4.5t-7 12.5q0 7 6 17l153 252 q8 13 17 18.5t21 5.5h137q11 0 18 -4.5t7 -12.5q0 -6 -6 -17l-153 -252q-8 -13 -17 -18.5t-21 -5.5h-137z" glyph-name="uhungarumlaut" unicode="ű" vert-adv-y="1980"/>
<glyph d="M260 10q-56 32 -88 94.5t-32 149.5q0 52 12 110l67 350q7 39 7 58q0 28 -11.5 42t-37.5 14q-13 0 -30 -3q-3 -1 -9 -1q-12 0 -19 8.5t-7 24.5q0 38 20 71.5t56 54.5t80 21q49 0 90 -22.5t65.5 -65.5t24.5 -102q0 -28 -6 -61l-65 -337q-9 -45 -9 -82q0 -75 32 -114t87 -39 q84 0 165.5 90.5t147.5 267t103 423.5q4 28 32 28h156q32 0 28 -32l-97 -685q-6 -46 -6 -59q0 -28 10.5 -41.5t35.5 -13.5q14 0 30 3q3 1 8 1q12 0 19.5 -9t7.5 -27q0 -36 -20 -69.5t-56 -54t-80 -20.5q-76 0 -125 52.5t-49 146.5q0 15 4 51l17 127h-21 q-78 -186 -181.5 -284t-227.5 -98q-72 0 -128 32zM435 1321q-13 0 -20 8.5t-5 21.5l16 113q1 13 10.5 21.5t23.5 8.5h523q13 0 20.5 -8t5.5 -22l-16 -113q-2 -14 -11.5 -22t-23.5 -8h-523z" glyph-name="umacron" unicode="ū" vert-adv-y="1980"/>
<glyph d="M1100 163q12 0 19.5 -9t7.5 -27q0 -36 -20 -69.5t-56 -54t-80 -20.5h-2q-68 -20 -106.5 -59.5t-38.5 -88.5q0 -43 26 -68.5t75 -25.5q25 0 48 5v-142q-43 -20 -104 -20q-58 0 -110 21t-85.5 67.5t-33.5 118.5q0 87 55 151t142 104q-40 53 -40 136q0 15 4 51l17 127h-21 q-78 -186 -181.5 -284t-227.5 -98q-72 0 -128 32t-88 94.5t-32 149.5q0 52 12 110l67 350q7 39 7 58q0 28 -11.5 42t-37.5 14q-13 0 -30 -3q-3 -1 -9 -1q-12 0 -19 8.5t-7 24.5q0 38 20 71.5t56 54.5t80 21q49 0 90 -22.5t65.5 -65.5t24.5 -102q0 -28 -6 -61l-65 -337 q-9 -45 -9 -82q0 -75 32 -114t87 -39q84 0 165.5 90.5t147.5 267t103 423.5q4 28 32 28h156q32 0 28 -32l-97 -685q-6 -46 -6 -59q0 -28 10.5 -41.5t35.5 -13.5q14 0 30 3q3 1 8 1z" glyph-name="uogonek" unicode="ų" vert-adv-y="1980"/>
<glyph d="M260 10q-56 32 -88 94.5t-32 149.5q0 52 12 110l67 350q7 39 7 58q0 28 -11.5 42t-37.5 14q-13 0 -30 -3q-3 -1 -9 -1q-12 0 -19 8.5t-7 24.5q0 38 20 71.5t56 54.5t80 21q49 0 90 -22.5t65.5 -65.5t24.5 -102q0 -28 -6 -61l-65 -337q-9 -45 -9 -82q0 -75 32 -114t87 -39 q84 0 165.5 90.5t147.5 267t103 423.5q4 28 32 28h156q32 0 28 -32l-97 -685q-6 -46 -6 -59q0 -28 10.5 -41.5t35.5 -13.5q14 0 30 3q3 1 8 1q12 0 19.5 -9t7.5 -27q0 -36 -20 -69.5t-56 -54t-80 -20.5q-76 0 -125 52.5t-49 146.5q0 15 4 51l17 127h-21 q-78 -186 -181.5 -284t-227.5 -98q-72 0 -128 32zM667 1141q-44 26 -69.5 69t-25.5 94t25.5 94.5t69.5 69.5t97 26t96.5 -26t69 -69.5t25.5 -94.5q0 -50 -25.5 -93.5t-69 -69.5t-96.5 -26t-97 26zM812 1257.5q20 18.5 20 45.5q0 29 -20 48.5t-48 19.5q-29 0 -48.5 -18.5 t-19.5 -47.5q0 -28 19.5 -47t48.5 -19q28 0 48 18.5z" glyph-name="uring" unicode="ů" vert-adv-y="1980"/>
<glyph d="M204 15q-50 41 -50 120q0 22 5 54l90 525q6 33 6 58q0 28 -11 42t-37 14q-12 0 -29 -3q-3 -1 -9 -1q-12 0 -19 9t-7 26q0 4 2 18q10 53 53 90t107 37q48 0 86.5 -22.5t61 -65.5t22.5 -103q0 -34 -5 -60l-99 -582q114 -2 245.5 103t221.5 287.5t90 402.5q0 13 9.5 19.5 t23.5 6.5h170q15 0 20.5 -8t5.5 -26q0 -252 -116.5 -479t-302.5 -365t-381 -138q-103 0 -153 41z" glyph-name="v" unicode="v" vert-adv-y="1980"/>
<glyph d="M221.5 2.5q-53.5 28.5 -84 85.5t-30.5 138q0 35 6 75l68 413q6 35 6 59q0 28 -10.5 41.5t-36.5 13.5q-13 0 -29 -3q-3 -1 -9 -1q-26 0 -26 34q0 37 20.5 71t57.5 54.5t84 20.5q73 0 117.5 -49.5t44.5 -138.5q0 -35 -5 -63l-72 -441q-4 -30 -4 -40q0 -45 20.5 -68.5 t60.5 -23.5q49 0 81 34t40 94l95 654q4 28 32 28h125q32 0 28 -32l-94 -655q-3 -21 -3 -40q0 -39 15 -61t44 -22q67 0 120 109.5t82.5 289t29.5 381.5q0 15 8 22.5t22 7.5h144q14 0 22 -7.5t8 -22.5q0 -263 -46 -487.5t-140 -361.5t-232 -137q-75 0 -123 41.5t-55 122.5h-20 q-40 -86 -103 -125t-138 -39q-67 0 -120.5 28.5z" glyph-name="w" unicode="w" vert-adv-y="1980"/>
<glyph d="M221.5 2.5q-53.5 28.5 -84 85.5t-30.5 138q0 35 6 75l68 413q6 35 6 59q0 28 -10.5 41.5t-36.5 13.5q-13 0 -29 -3q-3 -1 -9 -1q-26 0 -26 34q0 37 20.5 71t57.5 54.5t84 20.5q73 0 117.5 -49.5t44.5 -138.5q0 -35 -5 -63l-72 -441q-4 -30 -4 -40q0 -45 20.5 -68.5 t60.5 -23.5q49 0 81 34t40 94l95 654q4 28 32 28h125q32 0 28 -32l-94 -655q-3 -21 -3 -40q0 -39 15 -61t44 -22q67 0 120 109.5t82.5 289t29.5 381.5q0 15 8 22.5t22 7.5h144q14 0 22 -7.5t8 -22.5q0 -263 -46 -487.5t-140 -361.5t-232 -137q-75 0 -123 41.5t-55 122.5h-20 q-40 -86 -103 -125t-138 -39q-67 0 -120.5 28.5zM641 1184q-11 0 -18 4.5t-7 12.5q0 7 6 17l153 252q8 13 17 18.5t21 5.5h137q11 0 18 -4.5t7 -12.5q0 -6 -6 -17l-153 -252q-8 -13 -17 -18.5t-21 -5.5h-137z" glyph-name="wacute" unicode="ẃ" vert-adv-y="1980"/>
<glyph d="M221.5 2.5q-53.5 28.5 -84 85.5t-30.5 138q0 35 6 75l68 413q6 35 6 59q0 28 -10.5 41.5t-36.5 13.5q-13 0 -29 -3q-3 -1 -9 -1q-26 0 -26 34q0 37 20.5 71t57.5 54.5t84 20.5q73 0 117.5 -49.5t44.5 -138.5q0 -35 -5 -63l-72 -441q-4 -30 -4 -40q0 -45 20.5 -68.5 t60.5 -23.5q49 0 81 34t40 94l95 654q4 28 32 28h125q32 0 28 -32l-94 -655q-3 -21 -3 -40q0 -39 15 -61t44 -22q67 0 120 109.5t82.5 289t29.5 381.5q0 15 8 22.5t22 7.5h144q14 0 22 -7.5t8 -22.5q0 -263 -46 -487.5t-140 -361.5t-232 -137q-75 0 -123 41.5t-55 122.5h-20 q-40 -86 -103 -125t-138 -39q-67 0 -120.5 28.5zM410 1182q-11 0 -17 4t-6 11q0 10 11 21l259 260q9 9 18 12.5t20 3.5h216q11 0 19 -3.5t15 -12.5l185 -260q6 -9 6 -16q0 -9 -7.5 -14.5t-20.5 -5.5h-161q-22 0 -34 16l-126 171l-173 -171q-17 -16 -38 -16h-166z" glyph-name="wcircumflex" unicode="ŵ" vert-adv-y="1980"/>
<glyph d="M221.5 2.5q-53.5 28.5 -84 85.5t-30.5 138q0 35 6 75l68 413q6 35 6 59q0 28 -10.5 41.5t-36.5 13.5q-13 0 -29 -3q-3 -1 -9 -1q-26 0 -26 34q0 37 20.5 71t57.5 54.5t84 20.5q73 0 117.5 -49.5t44.5 -138.5q0 -35 -5 -63l-72 -441q-4 -30 -4 -40q0 -45 20.5 -68.5 t60.5 -23.5q49 0 81 34t40 94l95 654q4 28 32 28h125q32 0 28 -32l-94 -655q-3 -21 -3 -40q0 -39 15 -61t44 -22q67 0 120 109.5t82.5 289t29.5 381.5q0 15 8 22.5t22 7.5h144q14 0 22 -7.5t8 -22.5q0 -263 -46 -487.5t-140 -361.5t-232 -137q-75 0 -123 41.5t-55 122.5h-20 q-40 -86 -103 -125t-138 -39q-67 0 -120.5 28.5zM454.5 1297q-33.5 34 -33.5 83q0 47 34 80.5t81 33.5t81.5 -33.5t34.5 -80.5q0 -49 -34 -83t-82 -34t-81.5 34zM861 1297q-34 34 -34 83q0 47 34.5 80.5t81.5 33.5t81 -33.5t34 -80.5q0 -49 -33.5 -83t-81.5 -34t-82 34z" glyph-name="wdieresis" unicode="ẅ" vert-adv-y="1980"/>
<glyph d="M221.5 2.5q-53.5 28.5 -84 85.5t-30.5 138q0 35 6 75l68 413q6 35 6 59q0 28 -10.5 41.5t-36.5 13.5q-13 0 -29 -3q-3 -1 -9 -1q-26 0 -26 34q0 37 20.5 71t57.5 54.5t84 20.5q73 0 117.5 -49.5t44.5 -138.5q0 -35 -5 -63l-72 -441q-4 -30 -4 -40q0 -45 20.5 -68.5 t60.5 -23.5q49 0 81 34t40 94l95 654q4 28 32 28h125q32 0 28 -32l-94 -655q-3 -21 -3 -40q0 -39 15 -61t44 -22q67 0 120 109.5t82.5 289t29.5 381.5q0 15 8 22.5t22 7.5h144q14 0 22 -7.5t8 -22.5q0 -263 -46 -487.5t-140 -361.5t-232 -137q-75 0 -123 41.5t-55 122.5h-20 q-40 -86 -103 -125t-138 -39q-67 0 -120.5 28.5zM662 1184q-12 0 -21 5.5t-17 18.5l-153 252q-6 11 -6 17q0 8 7 12.5t18 4.5h137q12 0 21 -5.5t17 -18.5l153 -252q6 -10 6 -17q0 -8 -7 -12.5t-18 -4.5h-137z" glyph-name="wgrave" unicode="ẁ" vert-adv-y="1980"/>
<glyph d="M1138 990q12 0 18.5 -4.5t6.5 -11.5q0 -10 -10 -20l-423 -457l170 -257q34 -53 58 -76t50 -23q20 0 45 15q6 3 11 3q12 0 20 -15t8 -39q0 -37 -19.5 -68t-54.5 -49t-80 -18q-62 0 -108.5 38t-107.5 132l-135 203l-304 -328q-14 -15 -36 -15h-184q-12 0 -18.5 4t-6.5 11 q0 8 11 21l433 466l-154 233q-34 52 -58 75.5t-49 23.5q-21 0 -46 -16q-6 -3 -11 -3q-12 0 -20.5 15t-8.5 39q0 37 19.5 68t55 49t80.5 18q62 0 108.5 -38t107.5 -132l118 -178l296 318q15 16 36 16h182z" glyph-name="x" unicode="x" vert-adv-y="1980"/>
<glyph d="M237 -374.5q-86 21.5 -147 60.5q-11 7 -11 20q0 9 5 21l45 98q9 18 25 18q7 0 14 -3q62 -27 121.5 -40t128.5 -13q321 0 363 278l44 295h-20q-74 -155 -176 -240.5t-223 -85.5q-73 0 -129.5 31.5t-88 92t-31.5 146.5q0 49 10 100l58 310q7 32 7 60q0 27 -11 40.5 t-36 13.5q-14 0 -30 -3q-3 -1 -9 -1q-12 0 -19 8.5t-7 24.5q0 38 20 71.5t56 54.5t80 21q49 0 89.5 -22.5t64.5 -66t24 -103.5q0 -27 -6 -59l-55 -297q-8 -40 -8 -82q0 -76 31.5 -115t87.5 -39q84 0 164 88.5t144 256.5t98 397q4 28 32 28h157q32 0 28 -32l-130 -906 q-24 -168 -113 -268t-209 -140t-251 -40q-101 0 -187 21.5z" glyph-name="y" unicode="y" vert-adv-y="1980"/>
<glyph d="M237 -374.5q-86 21.5 -147 60.5q-11 7 -11 20q0 9 5 21l45 98q9 18 25 18q7 0 14 -3q62 -27 121.5 -40t128.5 -13q321 0 363 278l44 295h-20q-74 -155 -176 -240.5t-223 -85.5q-73 0 -129.5 31.5t-88 92t-31.5 146.5q0 49 10 100l58 310q7 32 7 60q0 27 -11 40.5 t-36 13.5q-14 0 -30 -3q-3 -1 -9 -1q-12 0 -19 8.5t-7 24.5q0 38 20 71.5t56 54.5t80 21q49 0 89.5 -22.5t64.5 -66t24 -103.5q0 -27 -6 -59l-55 -297q-8 -40 -8 -82q0 -76 31.5 -115t87.5 -39q84 0 164 88.5t144 256.5t98 397q4 28 32 28h157q32 0 28 -32l-130 -906 q-24 -168 -113 -268t-209 -140t-251 -40q-101 0 -187 21.5zM641 1184q-11 0 -18 4.5t-7 12.5q0 7 6 17l153 252q8 13 17 18.5t21 5.5h137q11 0 18 -4.5t7 -12.5q0 -6 -6 -17l-153 -252q-8 -13 -17 -18.5t-21 -5.5h-137z" glyph-name="yacute" unicode="ý" vert-adv-y="1980"/>
<glyph d="M237 -374.5q-86 21.5 -147 60.5q-11 7 -11 20q0 9 5 21l45 98q9 18 25 18q7 0 14 -3q62 -27 121.5 -40t128.5 -13q321 0 363 278l44 295h-20q-74 -155 -176 -240.5t-223 -85.5q-73 0 -129.5 31.5t-88 92t-31.5 146.5q0 49 10 100l58 310q7 32 7 60q0 27 -11 40.5 t-36 13.5q-14 0 -30 -3q-3 -1 -9 -1q-12 0 -19 8.5t-7 24.5q0 38 20 71.5t56 54.5t80 21q49 0 89.5 -22.5t64.5 -66t24 -103.5q0 -27 -6 -59l-55 -297q-8 -40 -8 -82q0 -76 31.5 -115t87.5 -39q84 0 164 88.5t144 256.5t98 397q4 28 32 28h157q32 0 28 -32l-130 -906 q-24 -168 -113 -268t-209 -140t-251 -40q-101 0 -187 21.5zM410 1182q-11 0 -17 4t-6 11q0 10 11 21l259 260q9 9 18 12.5t20 3.5h216q11 0 19 -3.5t15 -12.5l185 -260q6 -9 6 -16q0 -9 -7.5 -14.5t-20.5 -5.5h-161q-22 0 -34 16l-126 171l-173 -171q-17 -16 -38 -16h-166z " glyph-name="ycircumflex" unicode="ŷ" vert-adv-y="1980"/>
<glyph d="M237 -374.5q-86 21.5 -147 60.5q-11 7 -11 20q0 9 5 21l45 98q9 18 25 18q7 0 14 -3q62 -27 121.5 -40t128.5 -13q321 0 363 278l44 295h-20q-74 -155 -176 -240.5t-223 -85.5q-73 0 -129.5 31.5t-88 92t-31.5 146.5q0 49 10 100l58 310q7 32 7 60q0 27 -11 40.5 t-36 13.5q-14 0 -30 -3q-3 -1 -9 -1q-12 0 -19 8.5t-7 24.5q0 38 20 71.5t56 54.5t80 21q49 0 89.5 -22.5t64.5 -66t24 -103.5q0 -27 -6 -59l-55 -297q-8 -40 -8 -82q0 -76 31.5 -115t87.5 -39q84 0 164 88.5t144 256.5t98 397q4 28 32 28h157q32 0 28 -32l-130 -906 q-24 -168 -113 -268t-209 -140t-251 -40q-101 0 -187 21.5zM454.5 1297q-33.5 34 -33.5 83q0 47 34 80.5t81 33.5t81.5 -33.5t34.5 -80.5q0 -49 -34 -83t-82 -34t-81.5 34zM861 1297q-34 34 -34 83q0 47 34.5 80.5t81.5 33.5t81 -33.5t34 -80.5q0 -49 -33.5 -83t-81.5 -34 t-82 34z" glyph-name="ydieresis" unicode="ÿ" vert-adv-y="1980"/>
<glyph d="M237 -374.5q-86 21.5 -147 60.5q-11 7 -11 20q0 9 5 21l45 98q9 18 25 18q7 0 14 -3q62 -27 121.5 -40t128.5 -13q321 0 363 278l44 295h-20q-74 -155 -176 -240.5t-223 -85.5q-73 0 -129.5 31.5t-88 92t-31.5 146.5q0 49 10 100l58 310q7 32 7 60q0 27 -11 40.5 t-36 13.5q-14 0 -30 -3q-3 -1 -9 -1q-12 0 -19 8.5t-7 24.5q0 38 20 71.5t56 54.5t80 21q49 0 89.5 -22.5t64.5 -66t24 -103.5q0 -27 -6 -59l-55 -297q-8 -40 -8 -82q0 -76 31.5 -115t87.5 -39q84 0 164 88.5t144 256.5t98 397q4 28 32 28h157q32 0 28 -32l-130 -906 q-24 -168 -113 -268t-209 -140t-251 -40q-101 0 -187 21.5zM662 1184q-12 0 -21 5.5t-17 18.5l-153 252q-6 11 -6 17q0 8 7 12.5t18 4.5h137q12 0 21 -5.5t17 -18.5l153 -252q6 -10 6 -17q0 -8 -7 -12.5t-18 -4.5h-137z" glyph-name="ygrave" unicode="ỳ" vert-adv-y="1980"/>
<glyph d="M1082 989q14 0 23 -11.5t7 -24.5l-18 -129q-2 -13 -5.5 -22t-13.5 -17l-578 -525q17 4 42 4q45 0 87.5 -13t108.5 -40q68 -28 117 -43t102 -15q39 0 70 12q12 6 22 6q28 0 22 -29l-12 -62q-24 -115 -148 -115q-52 0 -105.5 16t-134.5 49q-84 34 -142 51t-116 17 q-68 0 -115.5 -23t-100.5 -63q-37 -30 -57 -37q-4 -2 -12 -2q-10 0 -16.5 8t-4.5 19l20 140q4 25 19 39l695 630h-606q-32 0 -28 32l17 120q4 28 31 28h830z" glyph-name="z" unicode="z" vert-adv-y="1980"/>
<glyph d="M1082 989q14 0 23 -11.5t7 -24.5l-18 -129q-2 -13 -5.5 -22t-13.5 -17l-578 -525q17 4 42 4q45 0 87.5 -13t108.5 -40q68 -28 117 -43t102 -15q39 0 70 12q12 6 22 6q28 0 22 -29l-12 -62q-24 -115 -148 -115q-52 0 -105.5 16t-134.5 49q-84 34 -142 51t-116 17 q-68 0 -115.5 -23t-100.5 -63q-37 -30 -57 -37q-4 -2 -12 -2q-10 0 -16.5 8t-4.5 19l20 140q4 25 19 39l695 630h-606q-32 0 -28 32l17 120q4 28 31 28h830zM641 1184q-11 0 -18 4.5t-7 12.5q0 7 6 17l153 252q8 13 17 18.5t21 5.5h137q11 0 18 -4.5t7 -12.5q0 -6 -6 -17 l-153 -252q-8 -13 -17 -18.5t-21 -5.5h-137z" glyph-name="zacute" unicode="ź" vert-adv-y="1980"/>
<glyph d="M1082 989q14 0 23 -11.5t7 -24.5l-18 -129q-2 -13 -5.5 -22t-13.5 -17l-578 -525q17 4 42 4q45 0 87.5 -13t108.5 -40q68 -28 117 -43t102 -15q39 0 70 12q12 6 22 6q28 0 22 -29l-12 -62q-24 -115 -148 -115q-52 0 -105.5 16t-134.5 49q-84 34 -142 51t-116 17 q-68 0 -115.5 -23t-100.5 -63q-37 -30 -57 -37q-4 -2 -12 -2q-10 0 -16.5 8t-4.5 19l20 140q4 25 19 39l695 630h-606q-32 0 -28 32l17 120q4 28 31 28h830zM639 1182q-23 0 -34 16l-186 260q-6 9 -6 16q0 9 7.5 14.5t20.5 5.5h162q22 0 34 -16l125 -171l173 171 q17 16 38 16h166q11 0 17 -4t6 -11q0 -10 -11 -21l-259 -260q-9 -9 -18 -12.5t-20 -3.5h-215z" glyph-name="zcaron" unicode="ž" vert-adv-y="1980"/>
<glyph d="M1082 989q14 0 23 -11.5t7 -24.5l-18 -129q-2 -13 -5.5 -22t-13.5 -17l-578 -525q17 4 42 4q45 0 87.5 -13t108.5 -40q68 -28 117 -43t102 -15q39 0 70 12q12 6 22 6q28 0 22 -29l-12 -62q-24 -115 -148 -115q-52 0 -105.5 16t-134.5 49q-84 34 -142 51t-116 17 q-68 0 -115.5 -23t-100.5 -63q-37 -30 -57 -37q-4 -2 -12 -2q-10 0 -16.5 8t-4.5 19l20 140q4 25 19 39l695 630h-606q-32 0 -28 32l17 120q4 28 31 28h830zM658.5 1297q-33.5 34 -33.5 83q0 47 34 80.5t81 33.5t81.5 -33.5t34.5 -80.5q0 -49 -34 -83t-82 -34t-81.5 34z" glyph-name="zdotaccent" unicode="ż" vert-adv-y="1980"/>
<glyph d="M1128 1471q65 -12 107.5 -35.5t42.5 -57.5q0 -6 -1 -10l-14 -79q-3 -16 -13 -24t-25 -8q-11 0 -22 4q-5 1 -31.5 9t-66.5 14t-83 6q-113 0 -173 -46.5t-74 -158.5l-22 -170h397q15 0 22.5 -8t5.5 -24l-17 -119q-4 -28 -32 -28h-398l-94 -738q-27 -214 -146.5 -301 t-274.5 -87q-75 0 -133 17.5t-89 46t-26 58.5l12 80q2 17 11.5 25t22.5 8q5 0 13 -2l23 -8q42 -15 75.5 -23.5t72.5 -8.5q84 0 147.5 53t79.5 179l87 701h-319q-15 0 -22.5 8.5t-5.5 23.5l17 119q4 28 32 28h320l26 213q24 190 145 272.5t291 82.5q67 0 132 -12z" glyph-name="f.ss01" vert-adv-y="1980"/>
<glyph d="M610.5 1246.5q-32.5 18.5 -51 51t-18.5 71.5q0 38 18.5 70.5t51 51t70.5 18.5q39 0 71.5 -18.5t51 -51t18.5 -70.5q0 -39 -18.5 -71.5t-51 -51t-71.5 -18.5q-38 0 -70.5 18.5zM508 54.5q-100 74.5 -100 243.5q0 47 9 102l66 407h-352q-15 0 -22.5 8.5t-5.5 23.5l17 123 q4 28 32 28h543q15 0 22 -8t5 -24l-84 -546q-6 -39 -6 -69q0 -169 168 -169q65 0 119 21.5t107 56.5q12 9 22 9q14 0 24 -19l46 -90q5 -10 5 -17q0 -13 -11 -22q-51 -51 -145 -92t-212 -41q-147 0 -247 74.5z" glyph-name="i.ss01" vert-adv-y="1980"/>
<glyph d="M501.5 57q-100.5 77 -100.5 256q0 49 9 107l124 797h-344q-32 0 -28 32l18 123q4 28 32 28h531q15 0 22.5 -8t5.5 -24l-146 -965q-5 -37 -5 -61q0 -93 50 -130.5t127 -37.5q67 0 122 21.5t107 56.5q13 8 22 8q15 0 24 -18l46 -90q5 -10 5 -17q0 -13 -11 -22 q-30 -31 -81.5 -61.5t-123.5 -51t-155 -20.5q-150 0 -250.5 77z" glyph-name="l.ss01" vert-adv-y="1980"/>
<glyph d="M988.5 977q61.5 -35 94.5 -98t33 -143q0 -32 -4 -57q-9 -67 -35 -96t-71 -29h-84q-18 0 -27.5 9t-7.5 27q3 24 3 44q0 62 -21 101t-53.5 56t-67.5 17q-94 0 -184 -113t-156.5 -293.5t-93.5 -373.5q-4 -28 -32 -28h-157q-32 0 -28 32l132 928q4 30 33 30h148q17 0 23 -8.5 t4 -25.5l-51 -412h15q85 244 194 356t249 112q83 0 144.5 -35z" glyph-name="r.ss01" vert-adv-y="1980"/>
<glyph d="M241 43.5q-115 69.5 -108 217.5q1 14 7.5 21t20.5 7h151q26 0 28 -29q4 -60 67 -87.5t165 -27.5q116 0 186 34.5t70 104.5q0 46 -27.5 72t-71.5 38.5t-119 22.5q-125 17 -208 41t-141 82t-58 162q0 97 52.5 166.5t152.5 106.5t241 37q194 0 301.5 -70t104.5 -215 q0 -16 -7.5 -22.5t-23.5 -6.5h-138q-32 0 -35 28q-9 115 -217 115q-218 0 -218 -134q0 -62 52.5 -91.5t155.5 -42.5q125 -15 212 -39.5t146.5 -83.5t59.5 -163q0 -99 -59 -169.5t-168 -107t-257 -36.5q-202 0 -317 69.5z" glyph-name="s.ss01" vert-adv-y="1980"/>
<glyph d="M241 43.5q-115 69.5 -108 217.5q1 14 7.5 21t20.5 7h151q26 0 28 -29q4 -60 67 -87.5t165 -27.5q116 0 186 34.5t70 104.5q0 46 -27.5 72t-71.5 38.5t-119 22.5q-125 17 -208 41t-141 82t-58 162q0 97 52.5 166.5t152.5 106.5t241 37q194 0 301.5 -70t104.5 -215 q0 -16 -7.5 -22.5t-23.5 -6.5h-138q-32 0 -35 28q-9 115 -217 115q-218 0 -218 -134q0 -62 52.5 -91.5t155.5 -42.5q125 -15 212 -39.5t146.5 -83.5t59.5 -163q0 -99 -59 -169.5t-168 -107t-257 -36.5q-202 0 -317 69.5zM619 1194q-11 0 -18 4.5t-7 12.5q0 7 6 17l153 252 q8 13 17 18.5t21 5.5h137q11 0 18 -4.5t7 -12.5q0 -6 -6 -17l-153 -252q-8 -13 -17 -18.5t-21 -5.5h-137z" glyph-name="sacute.ss01" vert-adv-y="1980"/>
<glyph d="M241 43.5q-115 69.5 -108 217.5q1 14 7.5 21t20.5 7h151q26 0 28 -29q4 -60 67 -87.5t165 -27.5q116 0 186 34.5t70 104.5q0 46 -27.5 72t-71.5 38.5t-119 22.5q-125 17 -208 41t-141 82t-58 162q0 97 52.5 166.5t152.5 106.5t241 37q194 0 301.5 -70t104.5 -215 q0 -16 -7.5 -22.5t-23.5 -6.5h-138q-32 0 -35 28q-9 115 -217 115q-218 0 -218 -134q0 -62 52.5 -91.5t155.5 -42.5q125 -15 212 -39.5t146.5 -83.5t59.5 -163q0 -99 -59 -169.5t-168 -107t-257 -36.5q-202 0 -317 69.5zM617 1192q-23 0 -34 16l-186 260q-6 9 -6 16 q0 9 7.5 14.5t20.5 5.5h162q22 0 34 -16l125 -171l173 171q17 16 38 16h166q11 0 17 -4t6 -11q0 -10 -11 -21l-259 -260q-9 -9 -18 -12.5t-20 -3.5h-215z" glyph-name="scaron.ss01" vert-adv-y="1980"/>
<glyph d="M950.5 942q107.5 -70 104.5 -215q0 -16 -7.5 -22.5t-23.5 -6.5h-138q-32 0 -35 28q-9 115 -217 115q-218 0 -218 -134q0 -62 52.5 -91.5t155.5 -42.5q125 -15 212 -39.5t146.5 -83.5t59.5 -163q0 -97 -56.5 -166.5t-161 -106.5t-246.5 -40l-54 -45q64 -6 107.5 -43 t43.5 -96q0 -71 -39 -122t-104.5 -77t-142.5 -26q-37 0 -75 6q-18 3 -15 22l11 78q2 9 9 15t16 5q34 -4 51 -4q56 0 93 19t37 57q0 23 -23.5 39t-60.5 16q-38 0 -79 -17q-4 -2 -10 -2q-14 0 -12 16l11 78q1 14 13 24l74 65q-145 20 -223.5 88.5t-72.5 190.5q1 14 7.5 21 t20.5 7h151q26 0 28 -29q4 -60 67 -87.5t165 -27.5q116 0 186 34.5t70 104.5q0 46 -27.5 72t-71.5 38.5t-119 22.5q-125 17 -208 41t-141 82t-58 162q0 97 52.5 166.5t152.5 106.5t241 37q194 0 301.5 -70z" glyph-name="scedilla.ss01" vert-adv-y="1980"/>
<glyph d="M241 43.5q-115 69.5 -108 217.5q1 14 7.5 21t20.5 7h151q26 0 28 -29q4 -60 67 -87.5t165 -27.5q116 0 186 34.5t70 104.5q0 46 -27.5 72t-71.5 38.5t-119 22.5q-125 17 -208 41t-141 82t-58 162q0 97 52.5 166.5t152.5 106.5t241 37q194 0 301.5 -70t104.5 -215 q0 -16 -7.5 -22.5t-23.5 -6.5h-138q-32 0 -35 28q-9 115 -217 115q-218 0 -218 -134q0 -62 52.5 -91.5t155.5 -42.5q125 -15 212 -39.5t146.5 -83.5t59.5 -163q0 -99 -59 -169.5t-168 -107t-257 -36.5q-202 0 -317 69.5zM674 -168q13 0 19.5 -7.5t4.5 -20.5l-9 -67 q-19 -126 -43 -237t-48 -183q-7 -21 -35 -21h-110q-23 0 -23 19q0 6 1 10q42 193 58 332h-232q-12 0 -18.5 7.5t-5.5 20.5l17 119q2 13 11 20.5t21 7.5h392z" glyph-name="uni0219.ss01" vert-adv-y="1980"/>
<glyph d="M1116 431q11 0 16.5 -7.5t4.5 -21.5l-18 -129q-3 -25 -30 -31q-127 -29 -238 -57q17 -63 17 -134q0 -138 -64.5 -239.5t-173 -154.5t-239.5 -53q-83 0 -157.5 23t-124.5 81t-50 156q0 83 45 152t160.5 137t320.5 136q-95 95 -302 95l36 189l358 239h-524q-15 0 -22.5 8 t-5.5 24l16 118q1 13 9.5 20.5t22.5 7.5h810l-33 -185l-448 -319q171 -37 264 -142q175 48 337 85q10 2 13 2zM660 131q-219 -68 -304.5 -127t-85.5 -122q0 -48 39 -73.5t105 -25.5q115 0 183 73.5t68 210.5q0 38 -5 64z" glyph-name="z.ss02" vert-adv-y="1980"/>
<glyph d="M1085 166q12 0 19 -9t7 -26q0 -4 -2 -18q-9 -53 -51.5 -90t-104.5 -37q-74 0 -119 53t-45 150q0 23 3 48l14 122h-20q-84 -190 -185.5 -287.5t-234.5 -97.5q-88 0 -153.5 42t-101.5 124t-36 201q0 182 83 335.5t235.5 244.5t351.5 91q105 0 201 -26t148 -77l-68 -482 l-21 -151q-5 -37 -5 -57q0 -29 10.5 -43t36.5 -14q13 0 29 3q3 1 9 1zM644.5 274q86.5 103 143 243.5t78.5 256.5q-22 21 -65 30.5t-91 9.5q-124 0 -220 -58.5t-148.5 -156.5t-52.5 -213q0 -112 47 -163.5t119 -51.5q103 0 189.5 103z" glyph-name="a.ss05" horiz-adv-x="1202" vert-adv-y="1980"/>
<glyph d="M337.5 28.5q-117.5 54.5 -184 158.5t-66.5 248q0 143 65.5 276t195.5 217t312 84q158 0 260 -68t102 -215q0 -60 -21 -138q-7 -26 -34 -26h-129q-16 0 -22.5 9t-3.5 26q8 32 8 65q0 79 -51.5 111.5t-131.5 32.5q-110 0 -185.5 -53t-112.5 -133.5t-37 -163.5 q0 -92 46 -156t128 -96t190 -32q64 0 124.5 10.5t108.5 30.5q8 3 14 3q10 0 15 -7.5t3 -20.5l-15 -102q-4 -24 -13.5 -38t-27.5 -24q-49 -25 -120.5 -39t-148.5 -14q-151 0 -268.5 54.5z" glyph-name="c.ss05" horiz-adv-x="1135" vert-adv-y="1980"/>
<glyph d="M989 162q10 -15 10 -27q0 -15 -14 -26q-76 -68 -183.5 -101.5t-227.5 -33.5q-154 0 -264 56t-167 157.5t-57 235.5q0 159 76.5 294t209 215t292.5 80q105 0 179.5 -35t111.5 -93.5t37 -126.5q0 -134 -155.5 -252t-513.5 -209q66 -141 277 -141q171 0 290 80q15 9 26 9 q13 0 24 -14zM480.5 782q-78.5 -45 -130 -128.5t-55.5 -194.5q182 53 288.5 95.5t156 83.5t49.5 87q0 43 -37.5 72.5t-108.5 29.5q-84 0 -162.5 -45z" glyph-name="e.ss05" horiz-adv-x="1124" vert-adv-y="1980"/>
<glyph d="M1053 166q12 0 19 -9t7 -26q0 -4 -2 -18q-9 -53 -51.5 -90t-102.5 -37q-48 0 -89 22.5t-65.5 65.5t-24.5 102q0 28 6 61l66 337q8 39 8 78q0 77 -34.5 117.5t-91.5 40.5q-84 0 -165.5 -90.5t-147.5 -267.5t-101 -424q-4 -28 -32 -28h-157q-32 0 -28 32l191 1340 q4 28 32 28h157q15 0 22.5 -8.5t5.5 -23.5l-105 -738h19q79 187 182 284.5t227 97.5q72 0 130 -33t92 -96t34 -151q0 -44 -11 -101l-70 -355q-7 -40 -7 -59q0 -27 11.5 -41t37.5 -14q13 0 29 3q3 1 9 1z" glyph-name="h.ss05" horiz-adv-x="1193" vert-adv-y="1980"/>
<glyph d="M606.5 1247q-32.5 19 -51.5 51t-19 71q0 38 19 70.5t51.5 51t70.5 18.5t70.5 -18.5t51 -51t18.5 -70.5q0 -39 -18.5 -71.5t-51 -51t-70.5 -18.5t-70.5 19zM1104 146q4 -8 4 -16q0 -13 -10 -23q-49 -51 -135 -92t-197 -41q-89 0 -166 31t-126 101t-49 182q0 50 10 104 l53 288q-44 -30 -102.5 -46t-125.5 -16q-90 0 -154 29q-24 10 -19 38l18 122q6 32 28 32q3 0 11 -2q64 -15 123 -15q103 0 174.5 39t97.5 104q10 25 34 25h151q15 0 22 -9t5 -24l-101 -569q-6 -33 -6 -60q0 -85 47 -122.5t116 -37.5q57 0 104.5 21.5t98.5 57.5q12 9 22 9 q15 0 25 -20z" glyph-name="i.ss05" horiz-adv-x="1185" vert-adv-y="1980"/>
<glyph d="M1043 147q5 -10 5 -17q0 -12 -10 -22q-31 -31 -85.5 -61.5t-130.5 -51.5t-162 -21q-97 0 -179 32.5t-133.5 109.5t-51.5 203q0 43 8 101l3 17l-218 -76q-14 -5 -22 5.5t-6 26.5l19 133q4 26 32 36l224 77l71 477q29 198 135.5 282.5t252.5 84.5q112 0 190.5 -44 t117.5 -121t39 -174q0 -110 -54 -222t-174.5 -212.5t-310.5 -166.5l-68 -24l-18 -116q-5 -35 -5 -57q0 -96 55 -137t137 -41q126 0 247 79q13 8 22 8q15 0 24 -18zM681 1241.5q-44 -47.5 -61 -160.5l-55 -362q191 75 279.5 183t88.5 225q0 75 -33.5 118.5t-105.5 43.5 q-69 0 -113 -47.5z" glyph-name="l.ss05" horiz-adv-x="1200" vert-adv-y="1980"/>
<glyph d="M1046 29q-36 43 -36 121q0 24 5 59l56 366q9 62 9 104q0 131 -78 131q-60 0 -107.5 -79.5t-89.5 -249.5t-86 -453q-4 -28 -32 -28h-118q-32 0 -28 32l77 543q8 59 8 95q0 74 -22.5 107t-59.5 33q-59 0 -106.5 -80t-91 -250.5t-88.5 -451.5q-4 -28 -32 -28h-131 q-15 0 -22.5 8t-5.5 24l132 928q4 30 34 30h122q16 0 23 -9t5 -25l-48 -311h14q51 204 125.5 285.5t158.5 81.5q73 0 118 -60.5t45 -190.5q0 -59 -8 -116h13q90 367 293 367q91 0 143 -65t52 -195q0 -57 -10 -120l-58 -367q-4 -27 -4 -51q0 -32 10 -46t31 -10q30 6 30 -29 q0 -10 -1 -16q-9 -54 -41.5 -90.5t-97.5 -36.5q-66 0 -102 43z" glyph-name="m.ss05" horiz-adv-x="1403" vert-adv-y="1980"/>
<glyph d="M1053 166q12 0 19 -9t7 -26q0 -4 -2 -18q-9 -53 -51.5 -90t-102.5 -37q-48 0 -89 22.5t-65.5 65.5t-24.5 102q0 28 6 61l66 337q8 39 8 78q0 77 -34.5 117.5t-91.5 40.5q-84 0 -165.5 -90.5t-147.5 -267.5t-101 -424q-4 -28 -32 -28h-157q-32 0 -28 32l132 928 q4 30 33 30h148q17 0 23 -8.5t4 -25.5l-37 -326h19q79 187 182 284.5t227 97.5q72 0 130 -33t92 -96t34 -151q0 -44 -11 -101l-70 -355q-7 -40 -7 -59q0 -27 11.5 -41t37.5 -14q13 0 29 3q3 1 9 1z" glyph-name="n.ss05" horiz-adv-x="1193" vert-adv-y="1980"/>
<glyph d="M312.5 34.5q-105.5 60.5 -164 168.5t-58.5 246q0 157 74 286t200 203t274 74q135 0 240.5 -60.5t164.5 -168.5t59 -246q0 -157 -74.5 -286t-200.5 -203t-275 -74q-134 0 -239.5 60.5zM728.5 221q74.5 45 118.5 124.5t44 180.5q0 88 -33.5 152t-93.5 98t-137 34 q-90 0 -164.5 -45t-118 -124.5t-43.5 -180.5q0 -88 33.5 -152t93.5 -98t137 -34q89 0 163.5 45z" glyph-name="o.ss05" horiz-adv-x="1192" vert-adv-y="1980"/>
<glyph d="M1223 215q15 -11 15 -28q0 -10 -4 -18q-35 -86 -109 -140.5t-170 -54.5q-67 0 -120.5 29t-84 85.5t-30.5 133.5q0 33 6 70l68 418q-53 -37 -127.5 -58t-162.5 -21q-61 0 -107 10l-49 -239q-6 -28 -32 -28h-149q-15 0 -22.5 8.5t-4.5 23.5l68 338q-51 63 -51 144 q0 51 21 95.5t59 70.5t86 26q51 0 84.5 -29.5t33.5 -75.5q0 -38 -23.5 -66t-59.5 -31q9 -26 47.5 -41.5t110.5 -15.5q76 0 143 19t114 52t65 73q10 25 34 25h153q15 0 21.5 -9t4.5 -24l-110 -652q-5 -32 -5 -54q0 -83 61 -83q36 0 63 24t52 71q9 15 22 15q11 0 20 -8z" glyph-name="r.ss05" horiz-adv-x="1282" vert-adv-y="1980"/>
<glyph d="M847 1013q0 -69 15.5 -127.5t37.5 -103.5t59 -108q33 -56 53 -95t33 -86.5t13 -101.5q0 -126 -73.5 -221t-198 -145.5t-273.5 -50.5q-137 0 -237 42t-151.5 113.5t-51.5 157.5q0 29 6 57q6 25 34 25h150q29 0 27 -31q-2 -48 27.5 -85.5t86 -58.5t129.5 -21q88 0 159 30.5 t111.5 87.5t40.5 134q0 54 -17.5 96.5t-55.5 108.5q-37 61 -57.5 107t-27.5 105l-256 -286q-18 -19 -41 -19q-36 0 -80 41q-40 37 -40 75q0 24 17 43l283 301q16 16 36 16h242z" glyph-name="s.ss05" horiz-adv-x="1167" vert-adv-y="1980"/>
<glyph d="M231.5 2.5q-55.5 28.5 -87 85.5t-31.5 138q0 35 6 74l68 414q6 35 6 59q0 28 -10.5 41.5t-36.5 13.5q-13 0 -29 -3q-3 -1 -9 -1q-26 0 -26 34q0 37 20.5 71t57.5 54.5t84 20.5q73 0 117.5 -49.5t44.5 -138.5q0 -35 -5 -63l-72 -441q-3 -19 -3 -36q0 -95 96 -95 q56 0 92 33.5t44 93.5l95 654q4 28 32 28h131q16 0 24 -8t6 -24l-96 -655q-2 -11 -2 -31q0 -42 19.5 -66.5t55.5 -24.5q77 0 132 108t83.5 286t28.5 385q0 15 8 22.5t22 7.5h144q14 0 22 -7.5t8 -22.5q0 -265 -46 -488.5t-144 -360.5t-245 -137q-81 0 -137 42t-62 123h-20 q-40 -87 -108.5 -126t-149.5 -39q-72 0 -127.5 28.5z" glyph-name="w.ss05" horiz-adv-x="1318" vert-adv-y="1980"/>
<glyph d="M476.5 725q-69.5 43 -107.5 117t-38 165q0 109 52 201.5t140 147t191 54.5q71 0 128.5 -27.5t86.5 -83.5l35 101h139l-102 -718h-134l-5 104q-40 -53 -99.5 -78.5t-126.5 -25.5q-90 0 -159.5 43zM789 870q53 31 85 84t32 115q0 54 -24.5 96t-67 65.5t-94.5 23.5 q-62 0 -115.5 -31.5t-85 -85t-31.5 -115.5q0 -54 24 -95.5t66.5 -64.5t95.5 -23q62 0 115 31z" glyph-name="ordfeminine" unicode="ª" vert-adv-y="1980"/>
<glyph d="M486 724.5q-75 42.5 -117 116.5t-42 166q0 107 56 200t150 148t200 55q93 0 167.5 -42.5t116.5 -116.5t42 -166q0 -107 -56 -200t-149 -148t-200 -55q-93 0 -168 42.5zM784.5 871q54.5 32 87 85.5t32.5 114.5q0 53 -24 94.5t-66.5 65t-95.5 23.5q-63 0 -116.5 -32.5 t-85 -86.5t-31.5 -115q0 -53 23.5 -94t65.5 -64t94 -23q62 0 116.5 32z" glyph-name="ordmasculine" unicode="º" vert-adv-y="1980"/>
<glyph d="M320 682q-14 0 -13 15l97 688q2 15 17 15h125q7 0 10.5 -4t2.5 -11l-29 -209h10q43 127 121.5 186.5t175.5 59.5q96 0 153 -57t57 -168q0 -28 -5 -68l-61 -431q-1 -16 -17 -16h-125q-14 0 -13 16l55 392q4 25 4 53q0 69 -30.5 105t-86.5 36q-223 0 -306 -587 q-1 -15 -17 -15h-125z" glyph-name="uni207F" unicode="ⁿ" vert-adv-y="1980"/>
<glyph d="M1094 34q2 -15 -5.5 -24.5t-23.5 -9.5h-168q-27 0 -30 24l-33 247h-500l-103 -247q-9 -24 -38 -24h-168q-23 0 -23 18q0 4 4 16l548 1282q6 12 16.5 18t22.5 6h282q13 0 21.5 -6t9.5 -18zM681 1105l-266 -638h392l-86 638h-40z" glyph-name="uni0410" unicode="А" vert-adv-y="1980"/>
<glyph d="M710 899q219 0 314 -83.5t95 -253.5q0 -50 -10 -125q-21 -150 -76 -245t-161 -143.5t-279 -48.5h-477q-32 0 -28 32l180 1280q4 28 32 28h704q32 0 28 -32l-20 -144q-4 -28 -32 -28h-510l-33 -237h273zM899 532q0 66 -25 101.5t-73.5 48.5t-129.5 13h-263l-69 -491h253 q92 0 152 21.5t97.5 77.5t51.5 158q6 41 6 71z" glyph-name="uni0411" unicode="Б" vert-adv-y="1980"/>
<glyph d="M861 713q129 -20 188 -93.5t59 -202.5q0 -211 -142 -314t-403 -103h-473q-13 0 -20.5 8t-5.5 22l180 1280q2 14 12 22t27 8h454q189 0 274 -77t85 -206q0 -80 -29 -147t-81.5 -113t-121.5 -64zM447 1136l-47 -330h241q111 0 172.5 50.5t61.5 142.5q0 75 -44 106t-143 31 h-241zM593 204q143 0 216 53.5t73 169.5q0 95 -54.5 141t-176.5 46h-278l-58 -410h278z" glyph-name="uni0412" unicode="В" vert-adv-y="1980"/>
<glyph d="M132 0q-32 0 -28 32l180 1280q4 28 32 28h851q32 0 28 -32l-20 -144q-4 -28 -32 -28h-656l-155 -1108q-4 -28 -32 -28h-168z" glyph-name="uni0413" unicode="Г" vert-adv-y="1980"/>
<glyph d="M132 0q-32 0 -28 32l180 1280q4 28 32 28h851q32 0 28 -32l-20 -144q-4 -28 -32 -28h-656l-155 -1108q-4 -28 -32 -28h-168zM693 1544q-11 0 -18 4.5t-7 12.5q0 7 6 17l153 252q8 13 17 18.5t21 5.5h137q11 0 18 -4.5t7 -12.5q0 -6 -6 -17l-153 -252q-8 -13 -17 -18.5 t-21 -5.5h-137z" glyph-name="uni0403" unicode="Ѓ" vert-adv-y="1980"/>
<glyph d="M132 0q-32 0 -28 32l180 1280q4 28 32 28h679l17 124q4 28 32 28h144q32 0 28 -32l-41 -296q-4 -28 -32 -28h-656l-155 -1108q-4 -28 -32 -28h-168z" glyph-name="uni0490" unicode="Ґ" vert-adv-y="1980"/>
<glyph d="M-21 -138q-32 0 -28 32l40 282q4 28 32 28h30q86 0 134 55.5t66 181.5l123 871q4 28 32 28h722q32 0 28 -32l-156 -1104h120q32 0 28 -32l-40 -282q-4 -28 -32 -28h-152q-15 0 -22.5 8.5t-5.5 23.5l15 106h-735l-15 -110q-4 -28 -32 -28h-152zM775 204l131 932h-327 l-99 -700q-13 -93 -38.5 -148t-72.5 -84h406z" glyph-name="uni0414" unicode="Д" vert-adv-y="1980"/>
<glyph d="M119 0q-13 0 -20 8t-5 22l180 1280q1 13 10.5 21.5t23.5 8.5h850q13 0 20.5 -8t5.5 -22l-21 -144q-1 -13 -10.5 -21.5t-23.5 -8.5h-652l-51 -356h608q14 0 21 -8.5t5 -21.5l-20 -143q-2 -14 -11.5 -22t-22.5 -8h-608l-52 -373h654q14 0 20.5 -8t4.5 -22l-19 -144 q-2 -13 -11.5 -21.5t-23.5 -8.5h-852z" glyph-name="uni0415" unicode="Е" vert-adv-y="1980"/>
<glyph d="M119 0q-13 0 -20 8t-5 22l180 1280q1 13 10.5 21.5t23.5 8.5h850q13 0 20.5 -8t5.5 -22l-21 -144q-1 -13 -10.5 -21.5t-23.5 -8.5h-652l-51 -356h608q14 0 21 -8.5t5 -21.5l-20 -143q-2 -14 -11.5 -22t-22.5 -8h-608l-52 -373h654q14 0 20.5 -8t4.5 -22l-19 -144 q-2 -13 -11.5 -21.5t-23.5 -8.5h-852zM505.5 1657q-33.5 34 -33.5 83q0 47 34 80.5t81 33.5t81.5 -33.5t34.5 -80.5q0 -49 -34 -83t-82 -34t-81.5 34zM912 1657q-34 34 -34 83q0 47 34.5 80.5t81.5 33.5t81 -33.5t34 -80.5q0 -49 -33.5 -83t-81.5 -34t-82 34z" glyph-name="uni0401" unicode="Ё" vert-adv-y="1980"/>
<glyph d="M1257 1340q21 0 21 -13q0 -8 -10 -23l-374 -559l223 -709q3 -7 3 -14q0 -22 -26 -22h-145q-29 0 -33 18l-154 530l-51 -75l-62 -443q-2 -13 -12 -21.5t-23 -8.5h-136q-13 0 -20 8t-5 22l61 436l-30 78l-298 -526q-10 -18 -39 -18h-150q-21 0 -21 15q0 7 7 21l424 709 l-217 559q-4 12 -4 17q0 19 25 19h150q28 0 33 -16l168 -516l71 502q2 14 11.5 22t22.5 8h136q14 0 21 -8.5t5 -21.5l-70 -495l307 509q9 16 36 16h155z" glyph-name="uni0416" unicode="Ж" vert-adv-y="1980"/>
<glyph d="M297 14q-100 40 -153 115.5t-53 179.5q0 33 4 61q2 14 11 22t22 8h152q31 0 28 -27q-1 -7 -1 -22q0 -87 66 -136t184 -49q88 0 157.5 27.5t112.5 78.5t52 118q2 20 2 31q0 91 -83 144.5t-255 53.5q-28 0 -25 29l14 107q5 30 36 30q131 0 212 32.5t116 83t35 109.5 q0 76 -63 118t-165 42q-118 0 -197.5 -55.5t-97.5 -152.5q-4 -27 -36 -27h-152q-27 0 -24 30q17 123 87 212t183.5 136.5t258.5 47.5q126 0 221.5 -36t148.5 -103.5t53 -158.5q0 -21 -3 -45q-15 -102 -85.5 -178t-188.5 -116l-4 -21q114 -31 178 -102.5t64 -179.5 q0 -29 -4 -53q-16 -118 -92 -207t-199.5 -138t-277.5 -49q-139 0 -239 40z" glyph-name="uni0417" unicode="З" vert-adv-y="1980"/>
<glyph d="M1188.5 1332q7.5 -8 5.5 -22l-180 -1280q-2 -13 -11.5 -21.5t-23.5 -8.5h-147q-13 0 -20 8.5t-5 21.5l136 968l-594 -978q-11 -20 -39 -20h-199q-13 0 -20 8.5t-5 21.5l180 1280q1 13 10.5 21.5t23.5 8.5h147q13 0 20.5 -8t5.5 -22l-135 -964l591 974q11 20 39 20h200 q13 0 20.5 -8z" glyph-name="uni0418" unicode="И" vert-adv-y="1980"/>
<glyph d="M622 1645q-64 36 -95.5 98t-28.5 138q2 31 34 31h85q26 0 28 -29q4 -52 42.5 -88.5t104.5 -36.5t110 35.5t64 89.5q11 29 36 29h93q25 0 25 -20q0 -7 -1 -11q-18 -77 -64.5 -138.5t-117.5 -97.5t-161 -36t-154 36zM1188.5 1332q7.5 -8 5.5 -22l-180 -1280 q-2 -13 -11.5 -21.5t-23.5 -8.5h-147q-13 0 -20 8.5t-5 21.5l136 968l-594 -978q-11 -20 -39 -20h-199q-13 0 -20 8.5t-5 21.5l180 1280q1 13 10.5 21.5t23.5 8.5h147q13 0 20.5 -8t5.5 -22l-135 -964l591 974q11 20 39 20h200q13 0 20.5 -8z" glyph-name="uni0419" unicode="Й" vert-adv-y="1980"/>
<glyph d="M1219 1340q11 0 17 -4t6 -11q0 -9 -12 -21l-550 -577l404 -691q4 -7 4 -15q0 -10 -7 -15.5t-20 -5.5h-185q-12 0 -19.5 4t-13.5 14l-320 544l-195 -204l-46 -328q-2 -14 -11.5 -22t-22.5 -8h-167q-14 0 -21 8.5t-5 21.5l180 1280q2 14 11.5 22t22.5 8h167q14 0 21 -8.5 t5 -21.5l-89 -636l603 650q15 16 38 16h205z" glyph-name="uni041A" unicode="К" vert-adv-y="1980"/>
<glyph d="M7 13l-26 157q-2 14 4.5 21t18.5 7q92 0 151.5 61.5t75.5 181.5l124 871q4 28 32 28h789q32 0 28 -32l-180 -1280q-4 -28 -32 -28h-167q-32 0 -28 32l155 1104h-395l-104 -741q-29 -202 -136 -303.5t-277 -101.5q-29 0 -33 23z" glyph-name="uni041B" unicode="Л" vert-adv-y="1980"/>
<glyph d="M90 0q-14 0 -21 8.5t-5 21.5l180 1280q2 14 11.5 22t22.5 8h183q13 0 23 -5t11 -15l95 -968h12l367 968q4 10 14.5 15t23.5 5h184q14 0 21 -8.5t5 -21.5l-180 -1280q-2 -14 -11.5 -22t-22.5 -8h-132q-14 0 -21 8.5t-5 21.5l120 843h-14l-295 -750q-4 -11 -14.5 -17 t-23.5 -6h-116q-13 0 -21.5 6t-9.5 17l-84 750h-13l-119 -843q-2 -14 -11.5 -22t-22.5 -8h-131z" glyph-name="uni041C" unicode="М" vert-adv-y="1980"/>
<glyph d="M1176 1340q14 0 21 -8.5t5 -21.5l-180 -1280q-2 -14 -11.5 -22t-23.5 -8h-168q-13 0 -20 8t-5 22l75 530h-488l-75 -530q-2 -13 -11.5 -21.5t-23.5 -8.5h-167q-13 0 -20 8t-5 22l180 1280q2 14 11.5 22t22.5 8h167q14 0 21 -8.5t5 -21.5l-77 -547h488l77 547 q2 14 11.5 22t22.5 8h168z" glyph-name="uni041D" unicode="Н" vert-adv-y="1980"/>
<glyph d="M239.5 104q-104.5 134 -104.5 370q0 91 15 191q48 325 194.5 510t386.5 185q202 0 307.5 -133.5t105.5 -369.5q0 -83 -16 -192q-49 -325 -195.5 -510t-386.5 -185q-202 0 -306.5 134zM720.5 244q67.5 56 116 163.5t71.5 257.5q12 81 12 149q0 104 -26 178t-74.5 112 t-113.5 38q-81 0 -148.5 -56t-115.5 -163t-72 -258q-12 -82 -12 -151q0 -155 57.5 -240.5t156.5 -85.5q81 0 148.5 56z" glyph-name="uni041E" unicode="О" vert-adv-y="1980"/>
<glyph d="M122 0q-32 0 -28 32l180 1280q4 28 32 28h851q32 0 28 -32l-180 -1280q-4 -28 -32 -28h-168q-32 0 -28 32l156 1104h-456l-155 -1108q-4 -28 -32 -28h-168z" glyph-name="uni041F" unicode="П" vert-adv-y="1980"/>
<glyph d="M749 1340q441 0 441 -355q0 -48 -7 -96q-64 -451 -560 -451h-216l-57 -408q-2 -14 -11.5 -22t-22.5 -8h-167q-14 0 -21 8.5t-5 21.5l180 1280q2 14 11.5 22t22.5 8h412zM633 641q149 0 230.5 55t100.5 193q5 35 5 59q0 103 -66.5 145.5t-199.5 42.5h-197l-69 -495h196z " glyph-name="uni0420" unicode="Р" vert-adv-y="1980"/>
<glyph d="M1019 85q-3 -23 -12 -37.5t-28 -24.5q-50 -25 -118 -39t-144 -14q-167 0 -291.5 70t-193 205t-68.5 326q0 192 69.5 373.5t211 298.5t344.5 117q148 0 244.5 -69t96.5 -217q0 -66 -22 -147q-6 -26 -33 -26h-149q-16 0 -22.5 9t-3.5 26q10 41 10 76q0 130 -146 130 q-125 0 -209.5 -85t-125.5 -211t-41 -250q0 -133 49 -224.5t139.5 -138t213.5 -46.5q53 0 109 9.5t103 26.5q8 3 14 3q10 0 14.5 -7.5t3.5 -20.5z" glyph-name="uni0421" unicode="С" vert-adv-y="1980"/>
<glyph d="M462 0q-13 0 -20.5 8t-5.5 22l156 1106h-367q-13 0 -20.5 8t-5.5 22l20 144q2 14 11.5 22t22.5 8h961q14 0 21 -8.5t5 -21.5l-20 -144q-1 -13 -10.5 -21.5t-23.5 -8.5h-366l-156 -1106q-1 -13 -10.5 -21.5t-23.5 -8.5h-168z" glyph-name="uni0422" unicode="Т" vert-adv-y="1980"/>
<glyph d="M1266 1340q23 0 23 -16q0 -9 -8 -20l-871 -1284q-14 -20 -39 -20h-180q-11 0 -17 4t-6 11q0 8 8 21l318 467l-317 801q-3 8 -3 13q0 11 7.5 17t20.5 6h173q26 0 33 -20l233 -600l408 600q13 20 39 20h178z" glyph-name="uni0423" unicode="У" vert-adv-y="1980"/>
<glyph d="M824 1203q197 0 286.5 -109t89.5 -292q0 -56 -10 -131q-33 -237 -158.5 -385t-357.5 -148h-5l-15 -107q-2 -13 -11.5 -21.5t-23.5 -8.5h-148q-13 0 -20 8.5t-5 21.5l15 107h-6q-197 0 -286 108.5t-89 292.5q0 57 10 132q33 236 158.5 384t356.5 148h6l15 108 q2 14 11.5 22t22.5 8h148q14 0 21 -8.5t5 -21.5l-15 -108h5zM490 342l92 657h-5q-88 0 -143.5 -38.5t-85 -109.5t-45.5 -180q-10 -72 -10 -119q0 -104 44 -157t147 -53h6zM986 789q0 104 -43.5 157t-147.5 53h-5l-92 -657h5q129 0 190.5 82t83.5 247q9 65 9 118z" glyph-name="uni0424" unicode="Ф" vert-adv-y="1980"/>
<glyph d="M1223 1340q11 0 17.5 -4.5t6.5 -11.5q0 -8 -9 -20l-475 -621l312 -647q4 -7 4 -14q0 -10 -7.5 -16t-21.5 -6h-177q-23 0 -33 20l-226 468l-358 -468q-14 -20 -39 -20h-176q-11 0 -17.5 4.5t-6.5 11.5q0 8 9 20l494 646l-301 622q-4 10 -4 14q0 10 7.5 16t21.5 6h177 q24 0 34 -20l214 -443l339 443q14 20 38 20h177z" glyph-name="uni0425" unicode="Х" vert-adv-y="1980"/>
<glyph d="M1217 1340q13 0 20.5 -8t5.5 -22l-180 -1280q-2 -13 -11.5 -21.5t-23.5 -8.5h-167q-13 0 -20 8.5t-5 21.5l63 448q-77 -79 -179 -124t-221 -45q-111 0 -194.5 40t-129 118.5t-45.5 190.5q0 40 6 83l81 569q1 13 10.5 21.5t23.5 8.5h167q13 0 20.5 -8t5.5 -22l-74 -523 q-3 -24 -3 -45q0 -100 65.5 -156t181.5 -56q87 0 157.5 30.5t115 88.5t55.5 138l74 523q1 13 10.5 21.5t23.5 8.5h167z" glyph-name="uni0427" unicode="Ч" vert-adv-y="1980"/>
<glyph d="M1126 1339q32 0 28 -32l-155 -1103h114q32 0 28 -32l-40 -282q-4 -28 -32 -28h-154q-15 0 -22.5 8.5t-5.5 23.5l15 106h-771q-32 0 -28 32l180 1279q4 28 32 28h167q32 0 28 -32l-156 -1103h417l156 1107q4 28 32 28h167z" glyph-name="uni0426" unicode="Ц" vert-adv-y="1980"/>
<glyph d="M77 0q-32 0 -28 32l179 1280q4 28 32 28h140q32 0 28 -32l-155 -1104h200l156 1108q4 28 32 28h140q32 0 28 -32l-155 -1104h200l156 1108q4 28 32 28h141q32 0 28 -32l-179 -1280q-4 -28 -32 -28h-943z" glyph-name="uni0428" unicode="Ш" vert-adv-y="1980"/>
<glyph d="M1163 1340q32 0 28 -32l-155 -1104h77q32 0 28 -32l-40 -282q-4 -28 -32 -28h-154q-15 0 -22.5 8.5t-5.5 23.5l15 106h-824q-32 0 -28 32l179 1280q4 28 32 28h140q32 0 28 -32l-155 -1104h180l156 1108q4 28 32 28h140q32 0 28 -32l-155 -1104h180l155 1108q4 28 32 28 h141z" glyph-name="uni0429" unicode="Щ" vert-adv-y="1980"/>
<glyph d="M116 0q-32 0 -28 32l180 1280q4 28 32 28h167q15 0 22.5 -8t5.5 -24l-59 -409h273q219 0 314.5 -84t95.5 -254q0 -51 -10 -124q-20 -150 -75 -245t-161 -143.5t-279 -48.5h-478zM601 204q91 0 147.5 19t93.5 75t52 164q6 42 6 74q0 68 -26 102.5t-73.5 45.5t-127.5 11 h-265l-69 -491h262z" glyph-name="uni042C" unicode="Ь" vert-adv-y="1980"/>
<glyph d="M734 899q220 0 315.5 -84t95.5 -254q0 -51 -10 -124q-20 -150 -75 -245t-161.5 -143.5t-279.5 -48.5h-477q-32 0 -28 32l155 1104h-105q-15 0 -22.5 8t-5.5 24l21 144q4 28 32 28h304q15 0 22.5 -8t5.5 -24l-60 -409h273zM926 534q0 69 -26 104t-73 46t-128 11h-266 l-68 -491h262q91 0 147.5 19t93.5 75t52 164q6 41 6 72z" glyph-name="uni042A" unicode="Ъ" vert-adv-y="1980"/>
<glyph d="M23 0q-32 0 -28 32l180 1280q4 28 32 28h161q15 0 22.5 -8t5.5 -24l-59 -409h130q202 0 287.5 -81.5t85.5 -244.5q0 -59 -11 -136q-21 -149 -69.5 -243t-146.5 -144t-262 -50h-328zM911 0q-32 0 -28 32l180 1280q4 28 32 28h161q32 0 28 -32l-180 -1280q-4 -28 -32 -28 h-161zM370 204q80 0 126.5 20.5t74 75t42.5 161.5q8 61 8 98q0 57 -17.5 86t-53.5 39.5t-101 10.5h-141l-69 -491h131z" glyph-name="uni042B" unicode="Ы" vert-adv-y="1980"/>
<glyph d="M1034.5 1290.5q96.5 -69.5 96.5 -217.5q0 -69 -21 -146q-7 -26 -34 -26h-149q-16 0 -22.5 9t-3.5 26q10 41 10 76q0 130 -146 130q-103 0 -179 -59.5t-122 -154t-64 -203.5h419q13 0 20 -8t5 -22l-12 -94q-1 -13 -11 -21.5t-24 -8.5h-408q7 -187 114 -285.5t288 -98.5 q53 0 109 9.5t103 26.5q8 3 14 3q10 0 14.5 -7.5t3.5 -20.5l-15 -113q-3 -23 -12 -37.5t-28 -24.5q-50 -25 -118 -39t-144 -14q-167 0 -291.5 70t-193 205t-68.5 326q0 192 69.5 373.5t211 298.5t344.5 117q148 0 244.5 -69.5z" glyph-name="uni0404" unicode="Є" vert-adv-y="1980"/>
<glyph d="M852.5 1290q124.5 -70 192.5 -205t68 -326q0 -192 -69.5 -373.5t-210.5 -298.5t-344 -117q-148 0 -244.5 69.5t-96.5 217.5q0 69 21 146q7 26 34 26h149q26 0 26 -24q0 -7 -1 -11q-10 -41 -10 -75q0 -131 147 -131q97 0 170.5 53.5t120 140t68.5 189.5h-396q-13 0 -20 8 t-5 22l12 94q1 13 11 21.5t24 8.5h391v9q0 133 -49 224.5t-139.5 138t-213.5 46.5q-54 0 -109.5 -9.5t-102.5 -26.5q-8 -3 -14 -3q-11 0 -15.5 7.5t-3.5 20.5l16 113q3 23 12 37.5t28 24.5q50 25 118 39t144 14q167 0 291.5 -70z" glyph-name="uni042D" unicode="Э" vert-adv-y="1980"/>
<glyph d="M98 0q-13 0 -22.5 11.5t-7.5 24.5l20 144q2 13 8.5 18.5t19.5 5.5h344l132 932h-335q-13 0 -22.5 11.5t-7.5 25.5l21 143q1 13 7.5 18.5t20.5 5.5h906q13 0 22 -11t7 -25l-20 -144q-1 -13 -7.5 -18.5t-20.5 -5.5h-344l-131 -932h334q14 0 23 -11.5t7 -24.5l-20 -144 q-2 -14 -8 -19t-20 -5h-906z" glyph-name="uni0406" unicode="І" vert-adv-y="1980"/>
<glyph d="M98 0q-13 0 -22.5 11.5t-7.5 24.5l20 144q2 13 8.5 18.5t19.5 5.5h344l132 932h-335q-13 0 -22.5 11.5t-7.5 25.5l21 143q1 13 7.5 18.5t20.5 5.5h906q13 0 22 -11t7 -25l-20 -144q-1 -13 -7.5 -18.5t-20.5 -5.5h-344l-131 -932h334q14 0 23 -11.5t7 -24.5l-20 -144 q-2 -14 -8 -19t-20 -5h-906zM505.5 1657q-33.5 34 -33.5 83q0 47 34 80.5t81 33.5t81.5 -33.5t34.5 -80.5q0 -49 -34 -83t-82 -34t-81.5 34zM912 1657q-34 34 -34 83q0 47 34.5 80.5t81.5 33.5t81 -33.5t34 -80.5q0 -49 -33.5 -83t-81.5 -34t-82 34z" glyph-name="uni0407" unicode="Ї" vert-adv-y="1980"/>
<glyph d="M1061 1319q72 -37 109.5 -126t37.5 -243q0 -115 -23 -285q-38 -269 -104 -419.5t-161.5 -211t-236.5 -60.5q-112 0 -182.5 37t-107 125t-36.5 239q0 96 13 210h-95l-78 -555q-2 -13 -11.5 -21.5t-23.5 -8.5h-138q-25 0 -20 30l180 1280q3 30 29 30h138q13 0 20.5 -8 t5.5 -22l-76 -538h96q40 224 103.5 351.5t154.5 180t222 52.5q112 0 184 -37zM1005 895q0 96 -19.5 148.5t-53 71.5t-84.5 19q-66 0 -114.5 -35.5t-87 -138t-65.5 -295.5q-20 -137 -20 -234q0 -94 19 -145.5t52.5 -70.5t83.5 -19q67 0 115.5 35.5t88 138t66.5 295.5 q19 137 19 230z" glyph-name="uni042E" unicode="Ю" vert-adv-y="1980"/>
<glyph d="M1168 1340q32 0 28 -32l-180 -1280q-4 -28 -32 -28h-167q-32 0 -28 32l57 410h-172l-368 -424q-9 -10 -16.5 -14t-19.5 -4h-185q-12 0 -19 5t-7 13q0 9 8 18l369 419q-139 29 -204.5 115t-65.5 226q0 46 8 107q31 217 154.5 327t371.5 110h468zM875 645l69 491h-254 q-90 0 -150 -21.5t-98 -76.5t-52 -154q-5 -40 -5 -66q0 -98 54.5 -135.5t171.5 -37.5h264z" glyph-name="uni042F" unicode="Я" vert-adv-y="1980"/>
<glyph d="M1111 166q12 0 19 -9t7 -26q0 -4 -2 -18q-9 -53 -51.5 -90t-104.5 -37q-74 0 -119 53t-45 150q0 23 3 48l14 122h-20q-84 -190 -185.5 -287.5t-234.5 -97.5q-88 0 -153.5 42t-101.5 124t-36 201q0 182 83 335.5t235.5 244.5t351.5 91q105 0 201 -26t148 -77l-68 -482 l-21 -151q-5 -37 -5 -57q0 -29 10.5 -43t36.5 -14q13 0 29 3q3 1 9 1zM670.5 274q86.5 103 143 243.5t78.5 256.5q-22 21 -65 30.5t-91 9.5q-124 0 -220 -58.5t-148.5 -156.5t-52.5 -213q0 -112 47 -163.5t119 -51.5q103 0 189.5 103z" glyph-name="uni0430" unicode="а" vert-adv-y="1980"/>
<glyph d="M235 1.5q-98 27.5 -150 79.5l138 986q25 175 111.5 254t251.5 79h256q69 0 96.5 9.5t35.5 32.5h183q-19 -95 -55 -143t-95 -65t-160 -17h-207q-99 0 -145.5 -43.5t-58.5 -138.5l-55 -408h13q171 385 438 385q88 0 152.5 -42t99.5 -124.5t35 -200.5q0 -183 -85 -336.5 t-239.5 -244t-354.5 -90.5q-107 0 -205 27.5zM699 230q99 58 153.5 155.5t54.5 212.5q0 112 -47 164.5t-118 52.5q-108 0 -197.5 -103t-148.5 -244t-81 -256q22 -21 65.5 -30.5t93.5 -9.5q126 0 225 58z" glyph-name="uni0431" unicode="б" vert-adv-y="1980"/>
<glyph d="M108 0q-13 0 -20 8t-5 22l130 930q2 13 12 21.5t23 8.5h541q97 0 168 -27t109.5 -76.5t38.5 -116.5q0 -17 -3 -35q-11 -76 -60 -129t-130 -69l-3 -20q101 -12 154.5 -65.5t53.5 -136.5q0 -23 -2 -35q-12 -85 -71.5 -148t-162.5 -97.5t-242 -34.5h-531zM714 598 q95 0 136 28.5t48 79.5q2 14 2 20q0 38 -32 60.5t-115 22.5h-343l-29 -211h333zM686 181q115 0 165 33.5t59 91.5q1 7 1 20q0 51 -44 81.5t-154 30.5h-354l-36 -257h363z" glyph-name="uni0432" unicode="в" vert-adv-y="1980"/>
<glyph d="M132 0q-13 0 -20 8t-5 22l130 930q2 13 12 21.5t23 8.5h846q14 0 20.5 -8t4.5 -22l-16 -121q-2 -14 -11.5 -22t-22.5 -8h-658l-109 -779q-2 -14 -11.5 -22t-23.5 -8h-159z" glyph-name="uni0433" unicode="г" vert-adv-y="1980"/>
<glyph d="M132 0q-13 0 -20 8t-5 22l130 930q2 13 12 21.5t23 8.5h846q14 0 20.5 -8t4.5 -22l-16 -121q-2 -14 -11.5 -22t-22.5 -8h-658l-109 -779q-2 -14 -11.5 -22t-23.5 -8h-159zM643 1194q-11 0 -18 4.5t-7 12.5q0 7 6 17l153 252q8 13 17 18.5t21 5.5h137q11 0 18 -4.5 t7 -12.5q0 -6 -6 -17l-153 -252q-8 -13 -17 -18.5t-21 -5.5h-137z" glyph-name="uni0453" unicode="ѓ" vert-adv-y="1980"/>
<glyph d="M1131 1104q15 0 22.5 -8t5.5 -24l-32 -233q-2 -14 -11.5 -22t-22.5 -8h-658l-109 -779q-2 -14 -11.5 -22t-23.5 -8h-159q-13 0 -20 8t-5 22l130 930q2 13 12 21.5t23 8.5h656l12 86q4 28 32 28h159z" glyph-name="uni0491" unicode="ґ" vert-adv-y="1980"/>
<glyph d="M1109 990q14 0 20.5 -8t4.5 -22l-109 -779h81q14 0 21 -8.5t5 -21.5l-37 -265q-2 -14 -11.5 -22t-22.5 -8h-145q-13 0 -20.5 8t-5.5 22l16 114h-722l-15 -114q-2 -14 -11.5 -22t-22.5 -8h-145q-14 0 -21 8.5t-5 21.5l40 287q2 12 6.5 16.5t15.5 4.5q94 0 158 60.5 t81 180.5l73 525q2 13 12 21.5t23 8.5h736zM813 181l89 628h-373l-53 -378q-23 -163 -113 -250h450z" glyph-name="uni0434" unicode="д" vert-adv-y="1980"/>
<glyph d="M1048 162q10 -15 10 -27q0 -15 -14 -26q-76 -68 -183.5 -101.5t-227.5 -33.5q-154 0 -264 56t-167 157.5t-57 235.5q0 159 76.5 294t209 215t292.5 80q105 0 179.5 -35t111.5 -93.5t37 -126.5q0 -134 -155.5 -252t-513.5 -209q66 -141 277 -141q171 0 290 80q15 9 26 9 q13 0 24 -14zM539.5 782q-78.5 -45 -130 -128.5t-55.5 -194.5q182 53 288.5 95.5t156 83.5t49.5 87q0 43 -37.5 72.5t-108.5 29.5q-84 0 -162.5 -45z" glyph-name="uni0435" unicode="е" vert-adv-y="1980"/>
<glyph d="M1048 162q10 -15 10 -27q0 -15 -14 -26q-76 -68 -183.5 -101.5t-227.5 -33.5q-154 0 -264 56t-167 157.5t-57 235.5q0 159 76.5 294t209 215t292.5 80q105 0 179.5 -35t111.5 -93.5t37 -126.5q0 -134 -155.5 -252t-513.5 -209q66 -141 277 -141q171 0 290 80q15 9 26 9 q13 0 24 -14zM539.5 782q-78.5 -45 -130 -128.5t-55.5 -194.5q182 53 288.5 95.5t156 83.5t49.5 87q0 43 -37.5 72.5t-108.5 29.5q-84 0 -162.5 -45zM456.5 1307q-33.5 34 -33.5 83q0 47 34 80.5t81 33.5t81.5 -33.5t34.5 -80.5q0 -49 -34 -83t-82 -34t-81.5 34zM863 1307 q-34 34 -34 83q0 47 34.5 80.5t81.5 33.5t81 -33.5t34 -80.5q0 -49 -33.5 -83t-81.5 -34t-82 34z" glyph-name="uni0451" unicode="ё" vert-adv-y="1980"/>
<glyph d="M1194 990q21 0 21 -13q0 -9 -11 -23l-324 -392l219 -526q4 -8 4 -17q0 -19 -26 -19h-136q-26 0 -33 16l-156 391l-74 -89l-40 -288q-2 -14 -11.5 -22t-23.5 -8h-116q-14 0 -20.5 8t-4.5 22l41 291l-46 82l-259 -387q-11 -16 -39 -16h-146q-21 0 -21 13q0 10 9 23l369 527 l-214 391q-5 12 -5 18q0 18 25 18h150q24 0 32 -19l183 -375l51 364q2 14 11.5 22t23.5 8h116q14 0 20.5 -8t4.5 -22l-51 -361l284 372q13 19 38 19h155z" glyph-name="uni0436" unicode="ж" vert-adv-y="1980"/>
<glyph d="M258.5 15q-111.5 41 -150.5 105q-11 16 -11 31q0 17 12 26l72 60q9 8 21 8q14 0 35 -14q42 -31 114.5 -52t179.5 -21q144 0 241 41.5t97 121.5q0 41 -31 66.5t-111 39t-223 13.5q-33 0 -32 30l7 94q1 28 33 28q377 0 377 134q0 104 -222 104q-110 0 -185.5 -22 t-134.5 -56q-15 -9 -31 -9q-23 0 -37 18l-49 67q-10 13 -10 27q0 19 18 34q62 51 178.5 87.5t263.5 36.5q132 0 224.5 -32t139.5 -89t47 -133q0 -155 -197 -240q80 -28 123.5 -83.5t43.5 -135.5q0 -105 -71.5 -178.5t-192 -110.5t-266.5 -37q-161 0 -272.5 41z" glyph-name="uni0437" unicode="з" vert-adv-y="1980"/>
<glyph d="M1118.5 982q6.5 -8 4.5 -22l-130 -930q-2 -13 -11.5 -21.5t-23.5 -8.5h-159q-13 0 -20 8t-5 22l91 654l-505 -664q-7 -9 -18 -14.5t-23 -5.5h-187q-13 0 -20 8t-5 22l130 930q2 13 12 21.5t23 8.5h159q14 0 20.5 -8t4.5 -22l-91 -654l505 664q7 9 18 14.5t23 5.5h187 q14 0 20.5 -8z" glyph-name="uni0438" unicode="и" vert-adv-y="1980"/>
</font>
</defs>
</svg>
