<?xml version="1.0" encoding="UTF-8"?>
<!DOCTYPE svg  PUBLIC '-//W3C//DTD SVG 1.1//EN'  'http://www.w3.org/Graphics/SVG/1.1/DTD/svg11.dtd'>
<svg version="1.1" xmlns="http://www.w3.org/2000/svg">
<defs>
<font id="CartographCF-Bold" horiz-adv-x="1230" vert-adv-y="2000">
<font-face font-family="Cartograph CF Bold" font-weight="700" ascent="1600" bbox="-853 -725 4770 2000" cap-height="1340" descent="-400" panose-1="0 0 8 9 0 0 0 0 0 0" underline-position="-100" underline-thickness="50" unicode-range="U+0020-FFFD" units-per-em="2000" x-height="990"/>
<missing-glyph d="M184 1600h628v-1980h-628v1980zM659 1402v65h-326v-65h128v-73h-130v-66h328v66h-130v73h130zM529 1073v139h-198v-206h328v67h-130zM396 1145h65v-72h-65v72zM659 887v66h-328v-66h130v-73h-130v-65h198v138h130zM659 636v198h-65v-131h-263v-67h328zM659 368v224h-198 v-111h68v46h65v-93h-198v158h-65v-224h328zM659 26v224h-328v-224h328zM396 184h198v-93h-198v93zM659 -85v65h-328v-65h138l-138 -93v-65h328v65h-202l139 93h63z" horiz-adv-x="990" vert-adv-y="1980"/>
<glyph d="M3564 990q26 0 26 -22l-2 -12l-224 -932q-3 -11 -13 -17.5t-23 -6.5h-195q-13 0 -23 6.5t-13 17.5l-145 618l-146 -618q-3 -11 -13 -17.5t-23 -6.5h-194q-13 0 -23.5 6.5t-12.5 17.5l-141 673l-142 -673q-2 -11 -12.5 -17.5t-23.5 -6.5h-195q-13 0 -23 6.5t-13 17.5 l-145 618l-145 -618q-3 -11 -13 -17.5t-23 -6.5h-195q-13 0 -23.5 6.5t-12.5 17.5l-141 673l-142 -673q-2 -11 -12.5 -17.5t-23.5 -6.5h-194q-13 0 -23 6.5t-13 17.5l-146 618l-145 -618q-3 -11 -13 -17.5t-23 -6.5h-195q-13 0 -23 6.5t-13 17.5l-224 932l-2 12q0 22 26 22 h159q13 0 23 -6.5t13 -17.5l157 -674l156 674q3 11 13 17.5t23 6.5h137q13 0 23 -6.5t13 -17.5l155 -674l158 674q3 11 13 17.5t23 6.5h200q13 0 23 -6.5t13 -17.5l157 -674l155 674q3 11 13 17.5t23 6.5h138q13 0 23 -6.5t13 -17.5l155 -674l157 674q3 11 13 17.5t23 6.5 h201q13 0 23 -6.5t13 -17.5l157 -674l155 674q3 11 13 17.5t23 6.5h137q13 0 23 -6.5t13 -17.5l156 -674l157 674q3 11 13 17.5t23 6.5h159z" glyph-name="w_w_w.liga" horiz-adv-x="3690" unicode="www" vert-adv-y="1980"/>
<glyph d="M2846 1091l129 131l565 -565l-565 -565l-129 130l352 341h-3048v187h3049z" glyph-name="hyphen_hyphen_greater.liga" horiz-adv-x="3690" unicode="--&gt;" vert-adv-y="1980"/>
<glyph d="M1616 1091l129 131l565 -565l-565 -565l-129 130l352 341h-1818v187h1819z" glyph-name="hyphen_greater.liga" horiz-adv-x="2460" unicode="-&gt;" vert-adv-y="1980"/>
<glyph d="M2206 1091l129 131l565 -565l-565 -565l-129 130l352 341h-2408v187h2409zM2846 1091l129 131l565 -565l-565 -565l-129 130l449 435z" glyph-name="hyphen_greater_greater.liga" horiz-adv-x="3690" unicode="-&gt;&gt;" vert-adv-y="1980"/>
<glyph d="M2846 1091l129 131l565 -565l-565 -565l-129 130l352 341h-3048v187h3049z" glyph-name="endash_endash_greater.liga" horiz-adv-x="3690" unicode="––&gt;" vert-adv-y="1980"/>
<glyph d="M1616 1091l129 131l565 -565l-565 -565l-129 130l352 341h-1818v187h1819z" glyph-name="endash_greater.liga" horiz-adv-x="2460" unicode="–&gt;" vert-adv-y="1980"/>
<glyph d="M2206 1091l129 131l565 -565l-565 -565l-129 130l352 341h-2408v187h2409zM2846 1091l129 131l565 -565l-565 -565l-129 130l449 435z" glyph-name="endash_greater_greater.liga" horiz-adv-x="3690" unicode="–&gt;&gt;" vert-adv-y="1980"/>
<glyph d="M533 468q-50 29 -79 79t-29 109t29 108.5t79 78.5t109 29t108.5 -29t78.5 -78.5t29 -108.5t-29 -109t-78.5 -79t-108.5 -29t-109 29zM2206 760q14 0 22 -8t8 -22v-147q0 -13 -8 -21.5t-22 -8.5h-940q-13 0 -21.5 8.5t-8.5 21.5v147q0 14 8.5 22t21.5 8h940z" glyph-name="period_hyphen.liga" horiz-adv-x="2460" unicode=".-" vert-adv-y="1980"/>
<glyph d="M533 468q-50 29 -79 79t-29 109t29 108.5t79 78.5t109 29t108.5 -29t78.5 -78.5t29 -108.5t-29 -109t-78.5 -79t-108.5 -29t-109 29zM2206 760q14 0 22 -8t8 -22v-147q0 -13 -8 -21.5t-22 -8.5h-940q-13 0 -21.5 8.5t-8.5 21.5v147q0 14 8.5 22t21.5 8h940z" glyph-name="period_endash.liga" horiz-adv-x="2460" unicode=".–" vert-adv-y="1980"/>
<glyph d="M1278 788q-13 0 -21.5 8.5t-8.5 21.5v129q0 14 8.5 22t21.5 8h928q14 0 22 -8t8 -22v-129q0 -13 -8 -21.5t-22 -8.5h-928zM533 468q-50 29 -79 79t-29 109t29 108.5t79 78.5t109 29t108.5 -29t78.5 -78.5t29 -108.5t-29 -109t-78.5 -79t-108.5 -29t-109 29zM1278 335 q-13 0 -21.5 8.5t-8.5 21.5v129q0 14 8.5 22t21.5 8h928q14 0 22 -8t8 -22v-129q0 -13 -8 -21.5t-22 -8.5h-928z" glyph-name="period_equal.liga" horiz-adv-x="2460" unicode=".=" vert-adv-y="1980"/>
<glyph d="M1570.5 0.5q-45.5 26.5 -72 71.5t-26.5 99t26.5 99t72 71t98.5 26t98.5 -26t72 -71t26.5 -99t-26.5 -99t-72 -71.5t-98.5 -26.5t-98.5 26.5zM1570.5 646.5q-45.5 26.5 -72 71.5t-26.5 99t26.5 99t72 71t98.5 26t98.5 -26t72 -71t26.5 -99t-26.5 -99t-72 -71.5 t-98.5 -26.5t-98.5 26.5zM692.5 0.5q-45.5 26.5 -72 71.5t-26.5 99t26.5 99t72 71t98.5 26t98.5 -26t72 -71t26.5 -99t-26.5 -99t-72 -71.5t-98.5 -26.5t-98.5 26.5zM692.5 646.5q-45.5 26.5 -72 71.5t-26.5 99t26.5 99t72 71t98.5 26t98.5 -26t72 -71t26.5 -99t-26.5 -99 t-72 -71.5t-98.5 -26.5t-98.5 26.5z" glyph-name="colon_colon.liga" horiz-adv-x="2460" unicode="::" vert-adv-y="1980"/>
<glyph d="M1746.5 0.5q-45.5 26.5 -72 71.5t-26.5 99t26.5 99t72 71t98.5 26t98.5 -26t72 -71t26.5 -99t-26.5 -99t-72 -71.5t-98.5 -26.5t-98.5 26.5zM1746.5 646.5q-45.5 26.5 -72 71.5t-26.5 99t26.5 99t72 71t98.5 26t98.5 -26t72 -71t26.5 -99t-26.5 -99t-72 -71.5 t-98.5 -26.5t-98.5 26.5zM2770.5 0.5q-45.5 26.5 -72 71.5t-26.5 99t26.5 99t72 71t98.5 26t98.5 -26t72 -71t26.5 -99t-26.5 -99t-72 -71.5t-98.5 -26.5t-98.5 26.5zM2770.5 646.5q-45.5 26.5 -72 71.5t-26.5 99t26.5 99t72 71t98.5 26t98.5 -26t72 -71t26.5 -99t-26.5 -99 t-72 -71.5t-98.5 -26.5t-98.5 26.5zM722.5 0.5q-45.5 26.5 -72 71.5t-26.5 99t26.5 99t72 71t98.5 26t98.5 -26t72 -71t26.5 -99t-26.5 -99t-72 -71.5t-98.5 -26.5t-98.5 26.5zM722.5 646.5q-45.5 26.5 -72 71.5t-26.5 99t26.5 99t72 71t98.5 26t98.5 -26t72 -71t26.5 -99 t-26.5 -99t-72 -71.5t-98.5 -26.5t-98.5 26.5z" glyph-name="colon_colon_colon.liga" horiz-adv-x="3690" unicode=":::" vert-adv-y="1980"/>
<glyph d="M1898 212q14 0 22 -8t8 -22v-87q0 -140 -10.5 -262t-28.5 -201q-5 -22 -36 -22h-139q-31 0 -29 32q15 157 15 317v41h-256q-13 0 -21.5 8.5t-8.5 21.5v152q0 14 8.5 22t21.5 8h454zM1568.5 646.5q-45.5 26.5 -72 71.5t-26.5 99t26.5 99t72 71t98.5 26t98.5 -26t72 -71 t26.5 -99t-26.5 -99t-72 -71.5t-98.5 -26.5t-98.5 26.5zM1025 212q14 0 22 -8t8 -22v-87q0 -140 -10.5 -262t-28.5 -201q-5 -22 -36 -22h-139q-31 0 -29 32q15 157 15 317v41h-256q-13 0 -21.5 8.5t-8.5 21.5v152q0 14 8.5 22t21.5 8h454zM695.5 646.5q-45.5 26.5 -72 71.5 t-26.5 99t26.5 99t72 71t98.5 26t98.5 -26t72 -71t26.5 -99t-26.5 -99t-72 -71.5t-98.5 -26.5t-98.5 26.5z" glyph-name="semicolon_semicolon.liga" horiz-adv-x="2460" unicode=";;" vert-adv-y="1980"/>
<glyph d="M1403 788l-111 -264h1017q14 0 22 -8t8 -22v-129q0 -13 -8 -21.5t-22 -8.5h-1097l-201 -475q-10 -24 -36 -24h-192q-27 0 -27 20q0 6 3 14l197 465h-805q-13 0 -21.5 8.5t-8.5 21.5v129q0 14 8.5 22t21.5 8h885l112 264h-997q-13 0 -21.5 8.5t-8.5 21.5v129q0 14 8.5 22 t21.5 8h1077l222 525q11 24 35 24h192q13 0 20 -5.5t7 -15.5q0 -5 -3 -13l-218 -515h826q14 0 22 -8t8 -22v-129q0 -13 -8 -21.5t-22 -8.5h-906z" glyph-name="exclam_equal.liga" horiz-adv-x="2460" unicode="!=" vert-adv-y="1980"/>
<glyph d="M2116 1007l-103 -245h1526q14 0 22 -8t8 -22v-129q0 -13 -8 -21.5t-22 -8.5h-1606l-104 -246h1710q14 0 22 -8t8 -22v-129q0 -13 -8 -21.5t-22 -8.5h-1790l-123 -291q-10 -24 -36 -24h-192q-27 0 -27 20q0 6 3 14l119 281h-1342q-13 0 -21.5 8.5t-8.5 21.5v129 q0 14 8.5 22t21.5 8h1422l104 246h-1526q-13 0 -21.5 8.5t-8.5 21.5v129q0 14 8.5 22t21.5 8h1606l104 245h-1710q-13 0 -21.5 8.5t-8.5 21.5v129q0 14 8.5 22t21.5 8h1790l124 294q10 23 35 23h192q13 0 20 -5.5t7 -15.5q0 -5 -3 -13l-120 -283h1343q14 0 22 -8t8 -22v-129 q0 -13 -8 -21.5t-22 -8.5h-1423z" glyph-name="exclam_equal_equal.liga" horiz-adv-x="3690" unicode="!==" vert-adv-y="1980"/>
<glyph d="M1335 974q2 -10 2 -15q0 -30 -36 -39l-281 -71l188 -240q13 -18 13 -31q0 -18 -22 -33l-138 -92q-15 -9 -27 -9q-20 0 -34 21l-167 247l-167 -247q-13 -21 -34 -21q-12 0 -27 9l-137 92q-22 16 -22 35q0 14 12 29l188 240l-281 71q-36 9 -36 39q0 5 2 15l40 155 q4 17 15 26t26 9q11 0 16 -2l287 -84l-9 307q0 20 12.5 32.5t32.5 12.5h158q20 0 32.5 -12.5t12.5 -32.5l-3 -307l287 84q5 2 16 2q15 0 26 -9t15 -26zM1348 -260q-27 0 -27 20q0 6 3 14l691 1632q11 24 35 24h192q13 0 20 -5.5t7 -15.5q0 -5 -3 -13l-690 -1632 q-10 -24 -36 -24h-192z" glyph-name="asterisk_slash.liga" horiz-adv-x="2460" unicode="*/" vert-adv-y="1980"/>
<glyph d="M158 -260q-27 0 -27 20q0 6 3 14l691 1632q11 24 35 24h192q13 0 20 -5.5t7 -15.5q0 -5 -3 -13l-690 -1632q-10 -24 -36 -24h-192zM2299 974q2 -10 2 -15q0 -30 -36 -39l-281 -71l188 -240q13 -18 13 -31q0 -18 -22 -33l-138 -92q-15 -9 -27 -9q-20 0 -34 21l-167 247 l-167 -247q-13 -21 -34 -21q-12 0 -27 9l-137 92q-22 16 -22 35q0 14 12 29l188 240l-281 71q-36 9 -36 39q0 5 2 15l40 155q4 17 15 26t26 9q11 0 16 -2l287 -84l-9 307q0 20 12.5 32.5t32.5 12.5h158q20 0 32.5 -12.5t12.5 -32.5l-3 -307l287 84q5 2 16 2q15 0 26 -9 t15 -26z" glyph-name="slash_asterisk.liga" horiz-adv-x="2460" unicode="/*" vert-adv-y="1980"/>
<glyph d="M2167 623q22 -13 22 -35v-140q0 -22 -22 -35l-709 -427q-7 -5 -17 -5q-14 0 -23 15l-78 131q-5 8 -5 16q0 16 16 26l598 349l-883 523l-541 -1277q-10 -24 -35 -24h-192q-13 0 -20 5.5t-7 15.5q0 5 3 13l691 1632q11 24 36 24h191q27 0 27 -20q0 -6 -3 -14l-70 -166z" glyph-name="slash_greater.liga" horiz-adv-x="2460" unicode="/&gt;" vert-adv-y="1980"/>
<glyph d="M1281 -260q-27 0 -27 20q0 6 3 14l691 1632q11 24 35 24h192q13 0 20 -5.5t7 -15.5q0 -5 -3 -13l-690 -1632q-10 -24 -36 -24h-192zM285 -260q-27 0 -27 20q0 6 3 14l691 1632q11 24 35 24h192q13 0 20 -5.5t7 -15.5q0 -5 -3 -13l-690 -1632q-10 -24 -36 -24h-192z" glyph-name="slash_slash.liga" horiz-adv-x="2460" unicode="//" vert-adv-y="1980"/>
<glyph d="M2460 -207h-2460v207h2460v-207z" glyph-name="underscore_underscore.liga" horiz-adv-x="2460" unicode="__" vert-adv-y="1980"/>
<glyph d="M151 788q-13 0 -21.5 8.5t-8.5 21.5v129q0 14 8.5 22t21.5 8h2158q14 0 22 -8t8 -22v-129q0 -13 -8 -21.5t-22 -8.5h-2158zM151 335q-13 0 -21.5 8.5t-8.5 21.5v129q0 14 8.5 22t21.5 8h2158q14 0 22 -8t8 -22v-129q0 -13 -8 -21.5t-22 -8.5h-2158z" glyph-name="equal_equal.liga" horiz-adv-x="2460" unicode="==" vert-adv-y="1980"/>
<glyph d="M151 1007q-13 0 -21.5 8.5t-8.5 21.5v129q0 14 8.5 22t21.5 8h3388q14 0 22 -8t8 -22v-129q0 -13 -8 -21.5t-22 -8.5h-3388zM151 573q-13 0 -21.5 8.5t-8.5 21.5v129q0 14 8.5 22t21.5 8h3388q14 0 22 -8t8 -22v-129q0 -13 -8 -21.5t-22 -8.5h-3388zM151 138 q-13 0 -21.5 8.5t-8.5 21.5v129q0 14 8.5 22t21.5 8h3388q14 0 22 -8t8 -22v-129q0 -13 -8 -21.5t-22 -8.5h-3388z" glyph-name="equal_equal_equal.liga" horiz-adv-x="3690" unicode="===" vert-adv-y="1980"/>
<glyph d="M2975 1222l565 -565l-565 -565l-129 130l117 113h-2812q-13 0 -21.5 8.5t-8.5 21.5v129q0 14 8.5 22t21.5 8h3007l137 133l-136 131h-3008q-13 0 -21.5 8.5t-8.5 21.5v129q0 14 8.5 22t21.5 8h2813l-118 114z" glyph-name="equal_equal_greater.liga" horiz-adv-x="3690" unicode="==&gt;" vert-adv-y="1980"/>
<glyph d="M1745 1222l565 -565l-565 -565l-129 130l117 113h-1582q-13 0 -21.5 8.5t-8.5 21.5v129q0 14 8.5 22t21.5 8h1777l137 133l-136 131h-1778q-13 0 -21.5 8.5t-8.5 21.5v129q0 14 8.5 22t21.5 8h1583l-118 114z" glyph-name="equal_greater.liga" horiz-adv-x="2460" unicode="=&gt;" vert-adv-y="1980"/>
<glyph d="M2335 1222l565 -565l-565 -565l-129 130l117 113h-2172q-13 0 -21.5 8.5t-8.5 21.5v129q0 14 8.5 22t21.5 8h2367l137 133l-136 131h-2368q-13 0 -21.5 8.5t-8.5 21.5v129q0 14 8.5 22t21.5 8h2173l-118 114zM2846 1091l129 131l565 -565l-565 -565l-129 130l449 435z " glyph-name="equal_greater_greater.liga" horiz-adv-x="3690" unicode="=&gt;&gt;" vert-adv-y="1980"/>
<glyph d="M2116 1007l-103 -245h1526q14 0 22 -8t8 -22v-129q0 -13 -8 -21.5t-22 -8.5h-1606l-104 -246h1710q14 0 22 -8t8 -22v-129q0 -13 -8 -21.5t-22 -8.5h-1790l-123 -291q-10 -24 -36 -24h-192q-27 0 -27 20q0 6 3 14l119 281h-1342q-13 0 -21.5 8.5t-8.5 21.5v129 q0 14 8.5 22t21.5 8h1422l104 246h-1526q-13 0 -21.5 8.5t-8.5 21.5v129q0 14 8.5 22t21.5 8h1606l104 245h-1710q-13 0 -21.5 8.5t-8.5 21.5v129q0 14 8.5 22t21.5 8h1790l124 294q10 23 35 23h192q13 0 20 -5.5t7 -15.5q0 -5 -3 -13l-120 -283h1343q14 0 22 -8t8 -22v-129 q0 -13 -8 -21.5t-22 -8.5h-1423z" glyph-name="equal_slash_equal.liga" horiz-adv-x="3690" unicode="=/=" vert-adv-y="1980"/>
<glyph d="M2846 1091l129 131l565 -565l-565 -565l-129 130l352 341h-2448l-471 -471l-129 130l449 435l-449 434l129 131l472 -472h2448z" glyph-name="greater_hyphen_greater.liga" horiz-adv-x="3690" unicode="&gt;-&gt;" vert-adv-y="1980"/>
<glyph d="M2846 1091l129 131l565 -565l-565 -565l-129 130l352 341h-2448l-471 -471l-129 130l449 435l-449 434l129 131l472 -472h2448z" glyph-name="greater_endash_greater.liga" horiz-adv-x="3690" unicode="&gt;–&gt;" vert-adv-y="1980"/>
<glyph d="M311 372q-9 -6 -17 -6q-13 0 -23 15l-78 131q-5 10 -5 17q0 14 16 24l599 350l-599 349q-16 10 -16 26q0 8 5 16l78 131q9 15 23 15q9 0 17 -5l709 -427q22 -13 22 -35v-140q0 -22 -22 -35zM311 -90q-9 -6 -17 -6q-13 0 -23 15l-78 131q-5 10 -5 17q0 14 16 24l713 424 q9 6 17 6q14 0 24 -15l77 -131q5 -10 5 -17q0 -14 -16 -24z" glyph-name="greater_equal.liga" unicode="&gt;=" vert-adv-y="1980"/>
<glyph d="M2846 1091l129 131l565 -565l-565 -565l-129 130l117 113h-2441l-243 -243l-129 130l449 435l-449 434l129 131l245 -245h2440zM844 657l-133 -133h2447l137 133l-136 131h-2446z" glyph-name="greater_equal_greater.liga" horiz-adv-x="3690" unicode="&gt;=&gt;" vert-adv-y="1980"/>
<glyph d="M491 750h1819v-187h-1818l352 -341l-129 -130l-565 565l565 565l129 -131z" glyph-name="less_hyphen.liga" horiz-adv-x="2460" unicode="&lt;-" vert-adv-y="1980"/>
<glyph d="M491 750h3049v-187h-3048l352 -341l-129 -130l-565 565l565 565l129 -131z" glyph-name="less_hyphen_hyphen.liga" horiz-adv-x="3690" unicode="&lt;--" vert-adv-y="1980"/>
<glyph d="M2846 1091l129 131l565 -565l-565 -565l-129 130l352 341h-2706l352 -341l-129 -130l-565 565l565 565l129 -131l-353 -341h2708z" glyph-name="less_hyphen_greater.liga" horiz-adv-x="3690" unicode="&lt;-&gt;" vert-adv-y="1980"/>
<glyph d="M3411 1222l129 -131l-449 -434l449 -435l-129 -130l-471 471h-2448l352 -341l-129 -130l-565 565l565 565l129 -131l-353 -341h2448z" glyph-name="less_hyphen_less.liga" horiz-adv-x="3690" unicode="&lt;-&lt;" vert-adv-y="1980"/>
<glyph d="M491 750h1819v-187h-1818l352 -341l-129 -130l-565 565l565 565l129 -131z" glyph-name="less_endash.liga" horiz-adv-x="2460" unicode="&lt;–" vert-adv-y="1980"/>
<glyph d="M491 750h3049v-187h-3048l352 -341l-129 -130l-565 565l565 565l129 -131z" glyph-name="less_endash_endash.liga" horiz-adv-x="3690" unicode="&lt;––" vert-adv-y="1980"/>
<glyph d="M2846 1091l129 131l565 -565l-565 -565l-129 130l352 341h-2706l352 -341l-129 -130l-565 565l565 565l129 -131l-353 -341h2708z" glyph-name="less_endash_greater.liga" horiz-adv-x="3690" unicode="&lt;–&gt;" vert-adv-y="1980"/>
<glyph d="M3411 1222l129 -131l-449 -434l449 -435l-129 -130l-471 471h-2448l352 -341l-129 -130l-565 565l565 565l129 -131l-353 -341h2448z" glyph-name="less_endash_less.liga" horiz-adv-x="3690" unicode="&lt;–&lt;" vert-adv-y="1980"/>
<glyph d="M1537 1176q-1 8 -1 24q0 49 21.5 85.5t57.5 56t80 19.5t80.5 -19.5t58 -56t21.5 -85.5q0 -16 -1 -24l-65 -626q-1 -14 -11.5 -22.5t-24.5 -8.5h-114q-14 0 -24 8t-11 23zM715 1222l129 -131l-353 -341h782v-187h-781l352 -341l-129 -130l-565 565zM2117 563v187h2653 v-187h-2653zM1790 323.5q43 -25.5 68 -68.5t25 -94t-25 -94t-68 -68t-94 -25t-94 25t-68 68t-25 94t25 94t68 68.5t94 25.5t94 -25.5z" glyph-name="less_exclam_hyphen_hyphen.liga" horiz-adv-x="4920" unicode="&lt;!--" vert-adv-y="1980"/>
<glyph d="M1537 1176q-1 8 -1 24q0 49 21.5 85.5t57.5 56t80 19.5t80.5 -19.5t58 -56t21.5 -85.5q0 -16 -1 -24l-65 -626q-1 -14 -11.5 -22.5t-24.5 -8.5h-114q-14 0 -24 8t-11 23zM715 1222l129 -131l-353 -341h782v-187h-781l352 -341l-129 -130l-565 565zM2117 563v187h2653 v-187h-2653zM1790 323.5q43 -25.5 68 -68.5t25 -94t-25 -94t-68 -68t-94 -25t-94 25t-68 68t-25 94t25 94t68 68.5t94 25.5t94 -25.5z" glyph-name="less_exclam_endash_endash.liga" horiz-adv-x="4920" unicode="&lt;!––" vert-adv-y="1980"/>
<glyph d="M210 798q-22 13 -22 35v140q0 22 22 35l709 427q8 5 17 5q14 0 23 -15l78 -131q5 -8 5 -16q0 -16 -16 -26l-598 -349l598 -350q16 -10 16 -24q0 -7 -5 -17l-78 -131q-10 -15 -23 -15q-8 0 -17 6zM206 334q-16 10 -16 24q0 7 5 17l77 131q10 15 24 15q8 0 17 -6l713 -424 q16 -10 16 -24q0 -7 -5 -17l-78 -131q-10 -15 -23 -15q-8 0 -17 6z" glyph-name="less_equal.liga" unicode="&lt;=" vert-adv-y="1980"/>
<glyph d="M531 788l-136 -131l137 -133h3007q14 0 22 -8t8 -22v-129q0 -13 -8 -21.5t-22 -8.5h-2812l117 -113l-129 -130l-565 565l565 565l129 -131l-118 -114h2813q14 0 22 -8t8 -22v-129q0 -13 -8 -21.5t-22 -8.5h-3008z" glyph-name="less_equal_equal.liga" horiz-adv-x="3690" unicode="&lt;==" vert-adv-y="1980"/>
<glyph d="M4076 1091l129 131l565 -565l-565 -565l-129 130l117 113h-3466l117 -113l-129 -130l-565 565l565 565l129 -131l-118 -114h3468zM395 657l137 -133h3856l137 133l-136 131h-3858z" glyph-name="less_equal_equal_greater.liga" horiz-adv-x="4920" unicode="&lt;==&gt;" vert-adv-y="1980"/>
<glyph d="M2846 1091l129 131l565 -565l-565 -565l-129 130l117 113h-2236l117 -113l-129 -130l-565 565l565 565l129 -131l-118 -114h2238zM395 657l137 -133h2626l137 133l-136 131h-2628z" glyph-name="less_equal_greater.liga" horiz-adv-x="3690" unicode="&lt;=&gt;" vert-adv-y="1980"/>
<glyph d="M3411 1222l129 -131l-449 -434l449 -435l-129 -130l-243 243h-2441l117 -113l-129 -130l-565 565l565 565l129 -131l-118 -114h2440zM395 657l137 -133h2447l-133 133l131 131h-2446z" glyph-name="less_equal_less.liga" horiz-adv-x="3690" unicode="&lt;=&lt;" vert-adv-y="1980"/>
<glyph d="M715 1222l129 -131l-449 -434l449 -435l-129 -130l-565 565zM1131 750h2409v-187h-2408l352 -341l-129 -130l-565 565l565 565l129 -131z" glyph-name="less_less_hyphen.liga" horiz-adv-x="3690" unicode="&lt;&lt;-" vert-adv-y="1980"/>
<glyph d="M715 1222l129 -131l-449 -434l449 -435l-129 -130l-565 565zM1131 750h2409v-187h-2408l352 -341l-129 -130l-565 565l565 565l129 -131z" glyph-name="less_less_endash.liga" horiz-adv-x="3690" unicode="&lt;&lt;–" vert-adv-y="1980"/>
<glyph d="M720 1222l129 -131l-449 -434l449 -435l-129 -130l-565 565zM1176 788l-136 -131l137 -133h2367q14 0 22 -8t8 -22v-129q0 -13 -8 -21.5t-22 -8.5h-2172l117 -113l-129 -130l-565 565l565 565l129 -131l-118 -114h2173q14 0 22 -8t8 -22v-129q0 -13 -8 -21.5t-22 -8.5 h-2368z" glyph-name="less_less_equal.liga" horiz-adv-x="3690" unicode="&lt;&lt;=" vert-adv-y="1980"/>
<glyph d="M2162 1430q13 0 20 -5.5t7 -15.5q0 -5 -3 -13l-690 -1632q-10 -24 -36 -24h-192q-27 0 -27 20q0 6 3 14l70 166l-1021 607q-22 13 -22 35v140q0 22 22 35l709 427q8 5 17 5q14 0 23 -15l78 -131q5 -8 5 -16q0 -16 -16 -26l-597 -349l882 -523l541 1277q10 24 35 24h192z " glyph-name="less_slash.liga" horiz-adv-x="2460" unicode="&lt;/" vert-adv-y="1980"/>
<glyph d="M3267 623q22 -13 22 -35v-140q0 -22 -22 -35l-709 -427q-7 -5 -17 -5q-14 0 -23 15l-78 131q-5 8 -5 16q0 16 16 26l598 349l-883 523l-540 -1277q-10 -24 -36 -24h-192q-27 0 -27 20q0 6 3 14l70 166l-1021 607q-22 13 -22 35v140q0 22 22 35l709 427q8 5 17 5 q14 0 23 -15l78 -131q5 -8 5 -16q0 -16 -16 -26l-597 -349l882 -523l541 1277q11 24 35 24h192q27 0 27 -20q0 -6 -3 -14l-70 -166z" glyph-name="less_slash_greater.liga" horiz-adv-x="3690" unicode="&lt;/&gt;" vert-adv-y="1980"/>
<glyph d="M184 1600h628v-1980h-628v1980zM659 1402v65h-326v-65h128v-73h-130v-66h328v66h-130v73h130zM529 1073v139h-198v-206h328v67h-130zM396 1145h65v-72h-65v72zM659 887v66h-328v-66h130v-73h-130v-65h198v138h130zM659 636v198h-65v-131h-263v-67h328zM659 368v224h-198 v-111h68v46h65v-93h-198v158h-65v-224h328zM659 26v224h-328v-224h328zM396 184h198v-93h-198v93zM659 -85v65h-328v-65h138l-138 -93v-65h328v65h-202l139 93h63z" glyph-name=".notdef" horiz-adv-x="990" vert-adv-y="1980"/>
<glyph glyph-name="space" unicode=" " vert-adv-y="1980"/>
<glyph d="M1162 34q2 -8 2 -11q0 -23 -26 -23h-204q-29 0 -34 24l-60 237h-450l-60 -237q-5 -24 -34 -24h-203q-12 0 -19 6t-7 16q0 4 2 12l349 1282q4 12 13.5 18t21.5 6h324q12 0 21.5 -6t13.5 -18zM597 1070l-150 -586h336l-150 586h-36z" glyph-name="A" unicode="A" vert-adv-y="1980"/>
<glyph d="M1162 34q2 -8 2 -11q0 -23 -26 -23h-204q-29 0 -34 24l-60 237h-450l-60 -237q-5 -24 -34 -24h-203q-12 0 -19 6t-7 16q0 4 2 12l349 1282q4 12 13.5 18t21.5 6h324q12 0 21.5 -6t13.5 -18zM597 1070l-150 -586h336l-150 586h-36zM538 1547q-13 0 -20.5 5t-7.5 15 q0 4 4 14l120 252q6 13 14 18.5t20 5.5h168q13 0 20.5 -5t7.5 -15q0 -4 -4 -14l-120 -252q-6 -13 -14 -18.5t-20 -5.5h-168z" glyph-name="Aacute" unicode="Á" vert-adv-y="1980"/>
<glyph d="M1162 34q2 -8 2 -11q0 -23 -26 -23h-204q-29 0 -34 24l-60 237h-450l-60 -237q-5 -24 -34 -24h-203q-12 0 -19 6t-7 16q0 4 2 12l349 1282q4 12 13.5 18t21.5 6h324q12 0 21.5 -6t13.5 -18zM597 1070l-150 -586h336l-150 586h-36zM450 1580.5q-71 37.5 -111 101.5 t-48 144q-3 31 29 31h105q26 0 32 -29q12 -50 53 -85.5t105 -35.5t105.5 35.5t52.5 85.5q6 29 32 29h105q33 0 30 -31q-8 -80 -48.5 -144t-111.5 -101.5t-165 -37.5t-165 37.5z" glyph-name="Abreve" unicode="Ă" vert-adv-y="1980"/>
<glyph d="M1162 34q2 -8 2 -11q0 -23 -26 -23h-204q-29 0 -34 24l-60 237h-450l-60 -237q-5 -24 -34 -24h-203q-12 0 -19 6t-7 16q0 4 2 12l349 1282q4 12 13.5 18t21.5 6h324q12 0 21.5 -6t13.5 -18zM597 1070l-150 -586h336l-150 586h-36zM486 1541q-11 0 -19 3.5t-17 12.5 l-223 264q-8 9 -8 19q0 8 7 12.5t19 4.5h193q23 0 36 -16l141 -160l141 160q13 16 36 16h193q12 0 19 -4.5t7 -12.5q0 -10 -8 -19l-223 -264q-9 -9 -17 -12.5t-19 -3.5h-258z" glyph-name="uni01CD" unicode="Ǎ" vert-adv-y="1980"/>
<glyph d="M1162 34q2 -8 2 -11q0 -23 -26 -23h-204q-29 0 -34 24l-60 237h-450l-60 -237q-5 -24 -34 -24h-203q-12 0 -19 6t-7 16q0 4 2 12l349 1282q4 12 13.5 18t21.5 6h324q12 0 21.5 -6t13.5 -18zM597 1070l-150 -586h336l-150 586h-36zM245 1541q-12 0 -19 4.5t-7 12.5 q0 10 8 19l223 264q8 10 16 13t20 3h258q12 0 20 -3t16 -13l223 -264q8 -9 8 -19q0 -8 -7 -12.5t-19 -4.5h-193q-23 0 -36 16l-141 161l-141 -161q-13 -16 -36 -16h-193z" glyph-name="Acircumflex" unicode="Â" vert-adv-y="1980"/>
<glyph d="M1162 34q2 -8 2 -11q0 -23 -26 -23h-204q-29 0 -34 24l-60 237h-450l-60 -237q-5 -24 -34 -24h-203q-12 0 -19 6t-7 16q0 4 2 12l349 1282q4 12 13.5 18t21.5 6h324q12 0 21.5 -6t13.5 -18zM597 1070l-150 -586h336l-150 586h-36zM338 1615.5q-29 17.5 -46.5 47.5 t-17.5 66q0 35 17.5 64.5t47 46.5t63.5 17q35 0 64.5 -17t47 -46.5t17.5 -64.5q0 -36 -17.5 -66t-47 -47.5t-64.5 -17.5t-64 17.5zM763.5 1615.5q-29.5 17.5 -47 47.5t-17.5 66q0 35 17.5 64.5t47 46.5t64.5 17t64.5 -17t47 -46.5t17.5 -64.5q0 -36 -17.5 -66t-47 -47.5 t-64.5 -17.5t-64.5 17.5z" glyph-name="Adieresis" unicode="Ä" vert-adv-y="1980"/>
<glyph d="M1162 34q2 -8 2 -11q0 -23 -26 -23h-204q-29 0 -34 24l-60 237h-450l-60 -237q-5 -24 -34 -24h-203q-12 0 -19 6t-7 16q0 4 2 12l349 1282q4 12 13.5 18t21.5 6h324q12 0 21.5 -6t13.5 -18zM597 1070l-150 -586h336l-150 586h-36zM526 1547q-12 0 -20 5.5t-14 18.5 l-120 252q-4 10 -4 14q0 10 7.5 15t20.5 5h168q12 0 20 -5.5t14 -18.5l120 -252q4 -10 4 -14q0 -10 -7.5 -15t-20.5 -5h-168z" glyph-name="Agrave" unicode="À" vert-adv-y="1980"/>
<glyph d="M1162 34q2 -8 2 -11q0 -23 -26 -23h-204q-29 0 -34 24l-60 237h-450l-60 -237q-5 -24 -34 -24h-203q-12 0 -19 6t-7 16q0 4 2 12l349 1282q4 12 13.5 18t21.5 6h324q12 0 21.5 -6t13.5 -18zM597 1070l-150 -586h336l-150 586h-36zM348 1660q-13 0 -21.5 8.5t-8.5 21.5 v137q0 14 8.5 22t21.5 8h534q14 0 22 -8t8 -22v-137q0 -13 -8 -21.5t-22 -8.5h-534z" glyph-name="Amacron" unicode="Ā" vert-adv-y="1980"/>
<glyph d="M1162 34q2 -8 2 -11q0 -23 -26 -23h-70q-87 0 -129.5 -30t-42.5 -81q0 -48 37 -76.5t104 -28.5h37q20 0 20 -20v-116q0 -20 -20 -20h-59q-122 0 -211.5 51.5t-89.5 175.5q0 162 174 216l-48 190h-450l-60 -237q-5 -24 -34 -24h-203q-12 0 -19 6t-7 16q0 4 2 12l349 1282 q4 12 13.5 18t21.5 6h324q12 0 21.5 -6t13.5 -18zM597 1070l-150 -586h336l-150 586h-36z" glyph-name="Aogonek" unicode="Ą" vert-adv-y="1980"/>
<glyph d="M1162 34q2 -8 2 -11q0 -23 -26 -23h-204q-29 0 -34 24l-60 237h-450l-60 -237q-5 -24 -34 -24h-203q-12 0 -19 6t-7 16q0 4 2 12l349 1282q4 12 13.5 18t21.5 6h324q12 0 21.5 -6t13.5 -18zM597 1070l-150 -586h336l-150 586h-36zM513.5 1490q-45.5 27 -72 72t-26.5 98 t26.5 98.5t72 72t101.5 26.5q55 0 100.5 -27t71.5 -72t26 -98q0 -52 -26 -97.5t-71.5 -72.5t-100.5 -27q-56 0 -101.5 27zM660 1615.5q19 16.5 19 42.5q0 28 -18.5 46.5t-45.5 18.5q-28 0 -46 -17t-18 -45t18 -45t46 -17q26 0 45 16.5z" glyph-name="Aring" unicode="Å" vert-adv-y="1980"/>
<glyph d="M1162 34q2 -8 2 -11q0 -23 -26 -23h-204q-29 0 -34 24l-60 237h-450l-60 -237q-5 -24 -34 -24h-203q-12 0 -19 6t-7 16q0 4 2 12l349 1282q4 12 13.5 18t21.5 6h324q12 0 21.5 -6t13.5 -18zM597 1070l-150 -586h336l-150 586h-36zM682.5 1589.5q-41.5 21.5 -92.5 61.5 q-40 32 -68 47.5t-62 15.5q-36 0 -59 -17.5t-33 -41.5q-6 -17 -22 -17h-94q-8 0 -13.5 6.5t-5.5 16.5q0 67 30 112t78 66.5t103 21.5q61 0 103.5 -21.5t92.5 -62.5q41 -32 68 -47t61 -15q36 0 59 17.5t33 42.5q6 16 22 16h94q10 0 15.5 -5.5t5.5 -14.5q-1 -68 -31.5 -114 t-79 -67.5t-103.5 -21.5q-60 0 -101.5 21.5z" glyph-name="Atilde" unicode="Ã" vert-adv-y="1980"/>
<glyph d="M1164 232q14 0 22 -8t8 -22v-172q0 -13 -8 -21.5t-22 -8.5h-525q-13 0 -21.5 8.5t-8.5 21.5v145h-264l-54 -151q-8 -24 -34 -24h-192q-13 0 -20 5.5t-7 15.5q0 6 3 13l491 1282q9 24 34 24h596q14 0 22 -8t8 -22v-172q0 -13 -8 -21.5t-22 -8.5h-301v-298h260q14 0 22 -8 t8 -22v-173q0 -13 -8 -21.5t-22 -8.5h-260v-345h303zM609 914l-184 -516h184v516z" glyph-name="AE" unicode="Æ" vert-adv-y="1980"/>
<glyph d="M153 0q-13 0 -21.5 8.5t-8.5 21.5v1280q0 14 8.5 22t21.5 8h498q210 0 307 -91.5t97 -237.5q0 -106 -53 -181t-168 -99v-20q150 -21 221 -108t71 -229q0 -185 -116.5 -279.5t-377.5 -94.5h-479zM626 815q98 0 140.5 38t42.5 116q0 75 -41.5 107t-141.5 32h-242v-293h242z M638 232q121 0 173.5 42t52.5 137q0 93 -53 139.5t-173 46.5h-254v-365h254z" glyph-name="B" unicode="B" vert-adv-y="1980"/>
<glyph d="M330 41q-115 71 -168.5 223.5t-53.5 400.5q0 249 53.5 401t168.5 223t302 71q153 0 257 -48t163.5 -160t68.5 -301q2 -33 -28 -33h-183q-29 0 -32 26q-12 107 -44.5 165t-82 79.5t-120.5 21.5q-93 0 -151 -37t-88.5 -134t-30.5 -274t30.5 -274t88.5 -134t151 -37 q73 0 122.5 18.5t81 64.5t43.5 127q3 26 32 26h183q30 0 28 -32q-13 -241 -137 -347.5t-352 -106.5q-187 0 -302 71z" glyph-name="C" unicode="C" vert-adv-y="1980"/>
<glyph d="M330 41q-115 71 -168.5 223.5t-53.5 400.5q0 249 53.5 401t168.5 223t302 71q153 0 257 -48t163.5 -160t68.5 -301q2 -33 -28 -33h-183q-29 0 -32 26q-12 107 -44.5 165t-82 79.5t-120.5 21.5q-93 0 -151 -37t-88.5 -134t-30.5 -274t30.5 -274t88.5 -134t151 -37 q73 0 122.5 18.5t81 64.5t43.5 127q3 26 32 26h183q30 0 28 -32q-13 -241 -137 -347.5t-352 -106.5q-187 0 -302 71zM555 1547q-13 0 -20.5 5t-7.5 15q0 4 4 14l120 252q6 13 14 18.5t20 5.5h168q13 0 20.5 -5t7.5 -15q0 -4 -4 -14l-120 -252q-6 -13 -14 -18.5t-20 -5.5 h-168z" glyph-name="Cacute" unicode="Ć" vert-adv-y="1980"/>
<glyph d="M330 41q-115 71 -168.5 223.5t-53.5 400.5q0 249 53.5 401t168.5 223t302 71q153 0 257 -48t163.5 -160t68.5 -301q2 -33 -28 -33h-183q-29 0 -32 26q-12 107 -44.5 165t-82 79.5t-120.5 21.5q-93 0 -151 -37t-88.5 -134t-30.5 -274t30.5 -274t88.5 -134t151 -37 q73 0 122.5 18.5t81 64.5t43.5 127q3 26 32 26h183q30 0 28 -32q-13 -241 -137 -347.5t-352 -106.5q-187 0 -302 71zM503 1541q-11 0 -19 3.5t-17 12.5l-223 264q-8 9 -8 19q0 8 7 12.5t19 4.5h193q23 0 36 -16l141 -160l141 160q13 16 36 16h193q12 0 19 -4.5t7 -12.5 q0 -10 -8 -19l-223 -264q-9 -9 -17 -12.5t-19 -3.5h-258z" glyph-name="Ccaron" unicode="Č" vert-adv-y="1980"/>
<glyph d="M1093 456q30 0 28 -32q-12 -228 -124 -335.5t-318 -117.5l-44 -40q46 -4 86.5 -24t65.5 -55.5t25 -83.5q0 -104 -74 -155.5t-187 -51.5q-45 0 -84 7q-18 3 -18 22v88q0 9 6 15t16 5q35 -5 58 -5q52 0 81 17t29 46q0 22 -25.5 38.5t-63.5 16.5q-37 0 -77 -17q-4 -2 -10 -2 q-14 0 -14 16v91q0 14 10 24l57 55q-145 21 -234.5 99.5t-131.5 222.5t-42 365q0 249 53.5 401t168.5 223t302 71q153 0 257 -48t163.5 -160t68.5 -301q2 -33 -28 -33h-183q-29 0 -32 26q-12 107 -44.5 165t-82 79.5t-120.5 21.5q-93 0 -151 -37t-88.5 -134t-30.5 -274 t30.5 -274t88.5 -134t151 -37q73 0 122.5 18.5t81 64.5t43.5 127q3 26 32 26h183z" glyph-name="Ccedilla" unicode="Ç" vert-adv-y="1980"/>
<glyph d="M330 41q-115 71 -168.5 223.5t-53.5 400.5q0 249 53.5 401t168.5 223t302 71q153 0 257 -48t163.5 -160t68.5 -301q2 -33 -28 -33h-183q-29 0 -32 26q-12 107 -44.5 165t-82 79.5t-120.5 21.5q-93 0 -151 -37t-88.5 -134t-30.5 -274t30.5 -274t88.5 -134t151 -37 q73 0 122.5 18.5t81 64.5t43.5 127q3 26 32 26h183q30 0 28 -32q-13 -241 -137 -347.5t-352 -106.5q-187 0 -302 71zM567.5 1615.5q-29.5 17.5 -47 47.5t-17.5 66q0 35 17.5 64.5t47 46.5t64.5 17t64.5 -17t47 -46.5t17.5 -64.5q0 -36 -17.5 -66t-47 -47.5t-64.5 -17.5 t-64.5 17.5z" glyph-name="Cdotaccent" unicode="Ċ" vert-adv-y="1980"/>
<glyph d="M158 0q-13 0 -21.5 8.5t-8.5 21.5v1280q0 14 8.5 22t21.5 8h420q211 0 335.5 -83.5t176 -231t51.5 -355.5t-51.5 -355.5t-176 -231t-335.5 -83.5h-420zM569 232q124 0 190.5 51t91 144.5t24.5 242.5t-24.5 242.5t-91 144.5t-190.5 51h-180v-876h180z" glyph-name="D" unicode="D" vert-adv-y="1980"/>
<glyph d="M596 1340q211 0 335 -83.5t175.5 -231t51.5 -355.5t-51.5 -355.5t-175.5 -231t-335 -83.5h-420q-13 0 -21.5 8.5t-8.5 21.5v541h-59q-13 0 -21.5 8.5t-8.5 21.5v138q0 14 8.5 22t21.5 8h59v541q0 14 8.5 22t21.5 8h420zM586 232q124 0 191 51t91.5 144.5t24.5 242.5 t-24.5 242.5t-91.5 144.5t-191 51h-179v-339h214q14 0 22 -8t8 -22v-138q0 -13 -8 -21.5t-22 -8.5h-214v-339h179z" glyph-name="Eth" unicode="Ð" vert-adv-y="1980"/>
<glyph d="M158 0q-13 0 -21.5 8.5t-8.5 21.5v1280q0 14 8.5 22t21.5 8h420q211 0 335.5 -83.5t176 -231t51.5 -355.5t-51.5 -355.5t-176 -231t-335.5 -83.5h-420zM569 232q124 0 190.5 51t91 144.5t24.5 242.5t-24.5 242.5t-91 144.5t-190.5 51h-180v-876h180zM486 1541 q-11 0 -19 3.5t-17 12.5l-223 264q-8 9 -8 19q0 8 7 12.5t19 4.5h193q23 0 36 -16l141 -160l141 160q13 16 36 16h193q12 0 19 -4.5t7 -12.5q0 -10 -8 -19l-223 -264q-9 -9 -17 -12.5t-19 -3.5h-258z" glyph-name="Dcaron" unicode="Ď" vert-adv-y="1980"/>
<glyph d="M596 1340q211 0 335 -83.5t175.5 -231t51.5 -355.5t-51.5 -355.5t-175.5 -231t-335 -83.5h-420q-13 0 -21.5 8.5t-8.5 21.5v541h-59q-13 0 -21.5 8.5t-8.5 21.5v138q0 14 8.5 22t21.5 8h59v541q0 14 8.5 22t21.5 8h420zM586 232q124 0 191 51t91.5 144.5t24.5 242.5 t-24.5 242.5t-91.5 144.5t-191 51h-179v-339h214q14 0 22 -8t8 -22v-138q0 -13 -8 -21.5t-22 -8.5h-214v-339h179z" glyph-name="Dcroat" unicode="Đ" vert-adv-y="1980"/>
<glyph d="M187 0q-13 0 -21.5 8.5t-8.5 21.5v1280q0 14 8.5 22t21.5 8h855q14 0 22 -8t8 -22v-172q0 -13 -8 -21.5t-22 -8.5h-624v-317h579q14 0 22 -8t8 -22v-172q0 -13 -8 -21.5t-22 -8.5h-579v-327h626q14 0 22 -8t8 -22v-172q0 -13 -8 -21.5t-22 -8.5h-857z" glyph-name="E" unicode="E" vert-adv-y="1980"/>
<glyph d="M187 0q-13 0 -21.5 8.5t-8.5 21.5v1280q0 14 8.5 22t21.5 8h855q14 0 22 -8t8 -22v-172q0 -13 -8 -21.5t-22 -8.5h-624v-317h579q14 0 22 -8t8 -22v-172q0 -13 -8 -21.5t-22 -8.5h-579v-327h626q14 0 22 -8t8 -22v-172q0 -13 -8 -21.5t-22 -8.5h-857zM538 1547 q-13 0 -20.5 5t-7.5 15q0 4 4 14l120 252q6 13 14 18.5t20 5.5h168q13 0 20.5 -5t7.5 -15q0 -4 -4 -14l-120 -252q-6 -13 -14 -18.5t-20 -5.5h-168z" glyph-name="Eacute" unicode="É" vert-adv-y="1980"/>
<glyph d="M187 0q-13 0 -21.5 8.5t-8.5 21.5v1280q0 14 8.5 22t21.5 8h855q14 0 22 -8t8 -22v-172q0 -13 -8 -21.5t-22 -8.5h-624v-317h579q14 0 22 -8t8 -22v-172q0 -13 -8 -21.5t-22 -8.5h-579v-327h626q14 0 22 -8t8 -22v-172q0 -13 -8 -21.5t-22 -8.5h-857zM486 1541 q-11 0 -19 3.5t-17 12.5l-223 264q-8 9 -8 19q0 8 7 12.5t19 4.5h193q23 0 36 -16l141 -160l141 160q13 16 36 16h193q12 0 19 -4.5t7 -12.5q0 -10 -8 -19l-223 -264q-9 -9 -17 -12.5t-19 -3.5h-258z" glyph-name="Ecaron" unicode="Ě" vert-adv-y="1980"/>
<glyph d="M187 0q-13 0 -21.5 8.5t-8.5 21.5v1280q0 14 8.5 22t21.5 8h855q14 0 22 -8t8 -22v-172q0 -13 -8 -21.5t-22 -8.5h-624v-317h579q14 0 22 -8t8 -22v-172q0 -13 -8 -21.5t-22 -8.5h-579v-327h626q14 0 22 -8t8 -22v-172q0 -13 -8 -21.5t-22 -8.5h-857zM245 1541 q-12 0 -19 4.5t-7 12.5q0 10 8 19l223 264q8 10 16 13t20 3h258q12 0 20 -3t16 -13l223 -264q8 -9 8 -19q0 -8 -7 -12.5t-19 -4.5h-193q-23 0 -36 16l-141 161l-141 -161q-13 -16 -36 -16h-193z" glyph-name="Ecircumflex" unicode="Ê" vert-adv-y="1980"/>
<glyph d="M187 0q-13 0 -21.5 8.5t-8.5 21.5v1280q0 14 8.5 22t21.5 8h855q14 0 22 -8t8 -22v-172q0 -13 -8 -21.5t-22 -8.5h-624v-317h579q14 0 22 -8t8 -22v-172q0 -13 -8 -21.5t-22 -8.5h-579v-327h626q14 0 22 -8t8 -22v-172q0 -13 -8 -21.5t-22 -8.5h-857zM338 1615.5 q-29 17.5 -46.5 47.5t-17.5 66q0 35 17.5 64.5t47 46.5t63.5 17q35 0 64.5 -17t47 -46.5t17.5 -64.5q0 -36 -17.5 -66t-47 -47.5t-64.5 -17.5t-64 17.5zM763.5 1615.5q-29.5 17.5 -47 47.5t-17.5 66q0 35 17.5 64.5t47 46.5t64.5 17t64.5 -17t47 -46.5t17.5 -64.5 q0 -36 -17.5 -66t-47 -47.5t-64.5 -17.5t-64.5 17.5z" glyph-name="Edieresis" unicode="Ë" vert-adv-y="1980"/>
<glyph d="M187 0q-13 0 -21.5 8.5t-8.5 21.5v1280q0 14 8.5 22t21.5 8h855q14 0 22 -8t8 -22v-172q0 -13 -8 -21.5t-22 -8.5h-624v-317h579q14 0 22 -8t8 -22v-172q0 -13 -8 -21.5t-22 -8.5h-579v-327h626q14 0 22 -8t8 -22v-172q0 -13 -8 -21.5t-22 -8.5h-857zM550.5 1615.5 q-29.5 17.5 -47 47.5t-17.5 66q0 35 17.5 64.5t47 46.5t64.5 17t64.5 -17t47 -46.5t17.5 -64.5q0 -36 -17.5 -66t-47 -47.5t-64.5 -17.5t-64.5 17.5z" glyph-name="Edotaccent" unicode="Ė" vert-adv-y="1980"/>
<glyph d="M187 0q-13 0 -21.5 8.5t-8.5 21.5v1280q0 14 8.5 22t21.5 8h855q14 0 22 -8t8 -22v-172q0 -13 -8 -21.5t-22 -8.5h-624v-317h579q14 0 22 -8t8 -22v-172q0 -13 -8 -21.5t-22 -8.5h-579v-327h626q14 0 22 -8t8 -22v-172q0 -13 -8 -21.5t-22 -8.5h-857zM526 1547 q-12 0 -20 5.5t-14 18.5l-120 252q-4 10 -4 14q0 10 7.5 15t20.5 5h168q12 0 20 -5.5t14 -18.5l120 -252q4 -10 4 -14q0 -10 -7.5 -15t-20.5 -5h-168z" glyph-name="Egrave" unicode="È" vert-adv-y="1980"/>
<glyph d="M187 0q-13 0 -21.5 8.5t-8.5 21.5v1280q0 14 8.5 22t21.5 8h855q14 0 22 -8t8 -22v-172q0 -13 -8 -21.5t-22 -8.5h-624v-317h579q14 0 22 -8t8 -22v-172q0 -13 -8 -21.5t-22 -8.5h-579v-327h626q14 0 22 -8t8 -22v-172q0 -13 -8 -21.5t-22 -8.5h-857zM348 1660 q-13 0 -21.5 8.5t-8.5 21.5v137q0 14 8.5 22t21.5 8h534q14 0 22 -8t8 -22v-137q0 -13 -8 -21.5t-22 -8.5h-534z" glyph-name="Emacron" unicode="Ē" vert-adv-y="1980"/>
<glyph d="M1060 -216q20 0 20 -20v-116q0 -20 -20 -20h-59q-123 0 -212.5 51.5t-89.5 175.5q0 88 52 145h-564q-13 0 -21.5 8.5t-8.5 21.5v1280q0 14 8.5 22t21.5 8h855q14 0 22 -8t8 -22v-172q0 -13 -8 -21.5t-22 -8.5h-624v-317h579q14 0 22 -8t8 -22v-172q0 -13 -8 -21.5 t-22 -8.5h-579v-327h626q14 0 22 -8t8 -22v-172q0 -10 -5.5 -18t-14.5 -11v-1q-88 0 -130 -30t-42 -81q0 -48 36.5 -76.5t104.5 -28.5h37z" glyph-name="Eogonek" unicode="Ę" vert-adv-y="1980"/>
<glyph d="M185 0q-13 0 -21.5 8.5t-8.5 21.5v1280q0 14 8.5 22t21.5 8h860q14 0 22 -8t8 -22v-172q0 -13 -8 -21.5t-22 -8.5h-629v-408h583q14 0 22 -8t8 -22v-173q0 -13 -8 -21.5t-22 -8.5h-583v-437q0 -13 -8 -21.5t-22 -8.5h-201z" glyph-name="F" unicode="F" vert-adv-y="1980"/>
<glyph d="M1124 711q8 -8 8 -22v-159q0 -197 -52.5 -320t-162 -181.5t-284.5 -58.5q-188 0 -303 71t-168.5 223.5t-53.5 400.5q0 249 53.5 401t168.5 223t302 71q153 0 257 -44.5t163.5 -147.5t67.5 -277q3 -33 -27 -33h-183q-30 0 -34 26q-16 128 -77 177t-168 49q-93 0 -151 -37 t-88.5 -134t-30.5 -274q0 -178 31 -274.5t91 -133.5t158 -37q84 0 137 25t80.5 88.5t27.5 176.5v5h-282q-13 0 -21.5 8.5t-8.5 21.5v144q0 14 8.5 22t21.5 8h498q14 0 22 -8z" glyph-name="G" unicode="G" vert-adv-y="1980"/>
<glyph d="M1124 711q8 -8 8 -22v-159q0 -197 -52.5 -320t-162 -181.5t-284.5 -58.5q-188 0 -303 71t-168.5 223.5t-53.5 400.5q0 249 53.5 401t168.5 223t302 71q153 0 257 -44.5t163.5 -147.5t67.5 -277q3 -33 -27 -33h-183q-30 0 -34 26q-16 128 -77 177t-168 49q-93 0 -151 -37 t-88.5 -134t-30.5 -274q0 -178 31 -274.5t91 -133.5t158 -37q84 0 137 25t80.5 88.5t27.5 176.5v5h-282q-13 0 -21.5 8.5t-8.5 21.5v144q0 14 8.5 22t21.5 8h498q14 0 22 -8zM460 1580.5q-71 37.5 -111 101.5t-48 144q-3 31 29 31h105q26 0 32 -29q12 -50 53 -85.5 t105 -35.5t105.5 35.5t52.5 85.5q6 29 32 29h105q33 0 30 -31q-8 -80 -48.5 -144t-111.5 -101.5t-165 -37.5t-165 37.5z" glyph-name="Gbreve" unicode="Ğ" vert-adv-y="1980"/>
<glyph d="M1124 711q8 -8 8 -22v-159q0 -197 -52.5 -320t-162 -181.5t-284.5 -58.5q-188 0 -303 71t-168.5 223.5t-53.5 400.5q0 249 53.5 401t168.5 223t302 71q153 0 257 -44.5t163.5 -147.5t67.5 -277q3 -33 -27 -33h-183q-30 0 -34 26q-16 128 -77 177t-168 49q-93 0 -151 -37 t-88.5 -134t-30.5 -274q0 -178 31 -274.5t91 -133.5t158 -37q84 0 137 25t80.5 88.5t27.5 176.5v5h-282q-13 0 -21.5 8.5t-8.5 21.5v144q0 14 8.5 22t21.5 8h498q14 0 22 -8zM835 -174q13 0 20.5 -7.5t7.5 -20.5v-79q0 -128 -9.5 -240t-26.5 -183q-4 -21 -32 -21h-128 q-29 0 -26 30q15 165 14 327h-234q-13 0 -20.5 7.5t-7.5 19.5v139q0 13 7.5 20.5t20.5 7.5h414z" glyph-name="uni0122" unicode="Ģ" vert-adv-y="1980"/>
<glyph d="M1124 711q8 -8 8 -22v-159q0 -197 -52.5 -320t-162 -181.5t-284.5 -58.5q-188 0 -303 71t-168.5 223.5t-53.5 400.5q0 249 53.5 401t168.5 223t302 71q153 0 257 -44.5t163.5 -147.5t67.5 -277q3 -33 -27 -33h-183q-30 0 -34 26q-16 128 -77 177t-168 49q-93 0 -151 -37 t-88.5 -134t-30.5 -274q0 -178 31 -274.5t91 -133.5t158 -37q84 0 137 25t80.5 88.5t27.5 176.5v5h-282q-13 0 -21.5 8.5t-8.5 21.5v144q0 14 8.5 22t21.5 8h498q14 0 22 -8zM560.5 1615.5q-29.5 17.5 -47 47.5t-17.5 66q0 35 17.5 64.5t47 46.5t64.5 17t64.5 -17t47 -46.5 t17.5 -64.5q0 -36 -17.5 -66t-47 -47.5t-64.5 -17.5t-64.5 17.5z" glyph-name="Gdotaccent" unicode="Ġ" vert-adv-y="1980"/>
<glyph d="M1062 1340q14 0 22 -8t8 -22v-1280q0 -13 -8 -21.5t-22 -8.5h-201q-13 0 -21.5 8.5t-8.5 21.5v513h-432v-513q0 -13 -8 -21.5t-22 -8.5h-201q-13 0 -21.5 8.5t-8.5 21.5v1280q0 14 8.5 22t21.5 8h201q14 0 22 -8t8 -22v-535h432v535q0 14 8.5 22t21.5 8h201z" glyph-name="H" unicode="H" vert-adv-y="1980"/>
<glyph d="M1062 1340q14 0 22 -8t8 -22v-1280q0 -13 -8 -21.5t-22 -8.5h-201q-13 0 -21.5 8.5t-8.5 21.5v513h-432v-513q0 -13 -8 -21.5t-22 -8.5h-201q-13 0 -21.5 8.5t-8.5 21.5v1280q0 14 8.5 22t21.5 8h201q14 0 22 -8t8 -22v-154h432v154q0 14 8.5 22t21.5 8h201zM399 943 v-168h432v168h-432z" glyph-name="Hbar" unicode="Ħ" vert-adv-y="1980"/>
<glyph d="M161 0q-13 0 -21.5 8.5t-8.5 21.5v172q0 14 8.5 22t21.5 8h323v876h-323q-13 0 -21.5 8.5t-8.5 21.5v172q0 14 8.5 22t21.5 8h908q14 0 22 -8t8 -22v-172q0 -13 -8 -21.5t-22 -8.5h-323v-876h323q14 0 22 -8t8 -22v-172q0 -13 -8 -21.5t-22 -8.5h-908z" glyph-name="I" unicode="I" vert-adv-y="1980"/>
<glyph d="M294 1340q14 0 22 -8t8 -22v-1280q0 -13 -8 -21.5t-22 -8.5h-201q-13 0 -21.5 8.5t-8.5 21.5v1280q0 14 8.5 22t21.5 8h201zM1160 1332q8 -8 8 -22v-814q0 -175 -64 -290t-173 -169.5t-245 -54.5q-70 0 -133 14t-108 42q-16 10 -16 25q0 9 4 17l66 150q8 17 23 17 q8 0 15 -3q52 -21 114 -21q114 0 184.5 73t70.5 245v567h-416q-13 0 -21.5 8.5t-8.5 21.5v172q0 14 8.5 22t21.5 8h648q14 0 22 -8z" glyph-name="IJ" unicode="Ĳ" vert-adv-y="1980"/>
<glyph d="M161 0q-13 0 -21.5 8.5t-8.5 21.5v172q0 14 8.5 22t21.5 8h323v876h-323q-13 0 -21.5 8.5t-8.5 21.5v172q0 14 8.5 22t21.5 8h908q14 0 22 -8t8 -22v-172q0 -13 -8 -21.5t-22 -8.5h-323v-876h323q14 0 22 -8t8 -22v-172q0 -13 -8 -21.5t-22 -8.5h-908zM538 1547 q-13 0 -20.5 5t-7.5 15q0 4 4 14l120 252q6 13 14 18.5t20 5.5h168q13 0 20.5 -5t7.5 -15q0 -4 -4 -14l-120 -252q-6 -13 -14 -18.5t-20 -5.5h-168z" glyph-name="Iacute" unicode="Í" vert-adv-y="1980"/>
<glyph d="M161 0q-13 0 -21.5 8.5t-8.5 21.5v172q0 14 8.5 22t21.5 8h323v876h-323q-13 0 -21.5 8.5t-8.5 21.5v172q0 14 8.5 22t21.5 8h908q14 0 22 -8t8 -22v-172q0 -13 -8 -21.5t-22 -8.5h-323v-876h323q14 0 22 -8t8 -22v-172q0 -13 -8 -21.5t-22 -8.5h-908zM486 1541 q-11 0 -19 3.5t-17 12.5l-223 264q-8 9 -8 19q0 8 7 12.5t19 4.5h193q23 0 36 -16l141 -160l141 160q13 16 36 16h193q12 0 19 -4.5t7 -12.5q0 -10 -8 -19l-223 -264q-9 -9 -17 -12.5t-19 -3.5h-258z" glyph-name="uni01CF" unicode="Ǐ" vert-adv-y="1980"/>
<glyph d="M161 0q-13 0 -21.5 8.5t-8.5 21.5v172q0 14 8.5 22t21.5 8h323v876h-323q-13 0 -21.5 8.5t-8.5 21.5v172q0 14 8.5 22t21.5 8h908q14 0 22 -8t8 -22v-172q0 -13 -8 -21.5t-22 -8.5h-323v-876h323q14 0 22 -8t8 -22v-172q0 -13 -8 -21.5t-22 -8.5h-908zM245 1541 q-12 0 -19 4.5t-7 12.5q0 10 8 19l223 264q8 10 16 13t20 3h258q12 0 20 -3t16 -13l223 -264q8 -9 8 -19q0 -8 -7 -12.5t-19 -4.5h-193q-23 0 -36 16l-141 161l-141 -161q-13 -16 -36 -16h-193z" glyph-name="Icircumflex" unicode="Î" vert-adv-y="1980"/>
<glyph d="M161 0q-13 0 -21.5 8.5t-8.5 21.5v172q0 14 8.5 22t21.5 8h323v876h-323q-13 0 -21.5 8.5t-8.5 21.5v172q0 14 8.5 22t21.5 8h908q14 0 22 -8t8 -22v-172q0 -13 -8 -21.5t-22 -8.5h-323v-876h323q14 0 22 -8t8 -22v-172q0 -13 -8 -21.5t-22 -8.5h-908zM338 1615.5 q-29 17.5 -46.5 47.5t-17.5 66q0 35 17.5 64.5t47 46.5t63.5 17q35 0 64.5 -17t47 -46.5t17.5 -64.5q0 -36 -17.5 -66t-47 -47.5t-64.5 -17.5t-64 17.5zM763.5 1615.5q-29.5 17.5 -47 47.5t-17.5 66q0 35 17.5 64.5t47 46.5t64.5 17t64.5 -17t47 -46.5t17.5 -64.5 q0 -36 -17.5 -66t-47 -47.5t-64.5 -17.5t-64.5 17.5z" glyph-name="Idieresis" unicode="Ï" vert-adv-y="1980"/>
<glyph d="M161 0q-13 0 -21.5 8.5t-8.5 21.5v172q0 14 8.5 22t21.5 8h323v876h-323q-13 0 -21.5 8.5t-8.5 21.5v172q0 14 8.5 22t21.5 8h908q14 0 22 -8t8 -22v-172q0 -13 -8 -21.5t-22 -8.5h-323v-876h323q14 0 22 -8t8 -22v-172q0 -13 -8 -21.5t-22 -8.5h-908zM550.5 1615.5 q-29.5 17.5 -47 47.5t-17.5 66q0 35 17.5 64.5t47 46.5t64.5 17t64.5 -17t47 -46.5t17.5 -64.5q0 -36 -17.5 -66t-47 -47.5t-64.5 -17.5t-64.5 17.5z" glyph-name="Idotaccent" unicode="İ" vert-adv-y="1980"/>
<glyph d="M161 0q-13 0 -21.5 8.5t-8.5 21.5v172q0 14 8.5 22t21.5 8h323v876h-323q-13 0 -21.5 8.5t-8.5 21.5v172q0 14 8.5 22t21.5 8h908q14 0 22 -8t8 -22v-172q0 -13 -8 -21.5t-22 -8.5h-323v-876h323q14 0 22 -8t8 -22v-172q0 -13 -8 -21.5t-22 -8.5h-908zM526 1547 q-12 0 -20 5.5t-14 18.5l-120 252q-4 10 -4 14q0 10 7.5 15t20.5 5h168q12 0 20 -5.5t14 -18.5l120 -252q4 -10 4 -14q0 -10 -7.5 -15t-20.5 -5h-168z" glyph-name="Igrave" unicode="Ì" vert-adv-y="1980"/>
<glyph d="M161 0q-13 0 -21.5 8.5t-8.5 21.5v172q0 14 8.5 22t21.5 8h323v876h-323q-13 0 -21.5 8.5t-8.5 21.5v172q0 14 8.5 22t21.5 8h908q14 0 22 -8t8 -22v-172q0 -13 -8 -21.5t-22 -8.5h-323v-876h323q14 0 22 -8t8 -22v-172q0 -13 -8 -21.5t-22 -8.5h-908zM348 1660 q-13 0 -21.5 8.5t-8.5 21.5v137q0 14 8.5 22t21.5 8h534q14 0 22 -8t8 -22v-137q0 -13 -8 -21.5t-22 -8.5h-534z" glyph-name="Imacron" unicode="Ī" vert-adv-y="1980"/>
<glyph d="M746 1108v-876h323q14 0 22 -8t8 -22v-172q0 -13 -8 -21.5t-22 -8.5h-262q-87 0 -129.5 -30t-42.5 -81q0 -48 37 -76.5t104 -28.5h37q20 0 20 -20v-116q0 -20 -20 -20h-59q-122 0 -211.5 51.5t-89.5 175.5q0 88 52 145h-344q-13 0 -21.5 8.5t-8.5 21.5v172q0 14 8.5 22 t21.5 8h323v876h-323q-13 0 -21.5 8.5t-8.5 21.5v172q0 14 8.5 22t21.5 8h908q14 0 22 -8t8 -22v-172q0 -13 -8 -21.5t-22 -8.5h-323z" glyph-name="Iogonek" unicode="Į" vert-adv-y="1980"/>
<glyph d="M1098 1332q8 -8 8 -22v-796q0 -180 -63 -302t-178.5 -182t-271.5 -60q-151 0 -263 56.5t-173.5 173.5t-61.5 292q0 15 8 22.5t22 7.5h196q29 0 30 -30q3 -137 67.5 -204.5t179.5 -67.5q246 0 246 302v586h-540q-13 0 -21.5 8.5t-8.5 21.5v172q0 14 8.5 22t21.5 8h772 q14 0 22 -8z" glyph-name="J" unicode="J" vert-adv-y="1980"/>
<glyph d="M1164 36q7 -10 7 -18t-6.5 -13t-18.5 -5h-222q-12 0 -20.5 4t-15.5 14l-366 518l-150 -190v-316q0 -13 -8 -21.5t-22 -8.5h-202q-13 0 -21.5 8.5t-8.5 21.5v1280q0 14 8.5 22t21.5 8h202q14 0 22 -8t8 -22v-602l464 616q12 16 36 16h242q12 0 18 -4.5t6 -12.5 q0 -10 -8 -19l-455 -575z" glyph-name="K" unicode="K" vert-adv-y="1980"/>
<glyph d="M1164 36q7 -10 7 -18t-6.5 -13t-18.5 -5h-222q-12 0 -20.5 4t-15.5 14l-366 518l-150 -190v-316q0 -13 -8 -21.5t-22 -8.5h-202q-13 0 -21.5 8.5t-8.5 21.5v1280q0 14 8.5 22t21.5 8h202q14 0 22 -8t8 -22v-602l464 616q12 16 36 16h242q12 0 18 -4.5t6 -12.5 q0 -10 -8 -19l-455 -575zM819 -174q13 0 20.5 -7.5t7.5 -20.5v-79q0 -128 -9.5 -240t-26.5 -183q-4 -21 -32 -21h-128q-29 0 -26 30q15 165 14 327h-234q-13 0 -20.5 7.5t-7.5 19.5v139q0 13 7.5 20.5t20.5 7.5h414z" glyph-name="uni0136" unicode="Ķ" vert-adv-y="1980"/>
<glyph d="M202 0q-13 0 -21.5 8.5t-8.5 21.5v1280q0 14 8.5 22t21.5 8h201q14 0 22 -8t8 -22v-1078h626q14 0 22 -8t8 -22v-172q0 -13 -8 -21.5t-22 -8.5h-857z" glyph-name="L" unicode="L" vert-adv-y="1980"/>
<glyph d="M202 0q-13 0 -21.5 8.5t-8.5 21.5v1280q0 14 8.5 22t21.5 8h201q14 0 22 -8t8 -22v-1078h626q14 0 22 -8t8 -22v-172q0 -13 -8 -21.5t-22 -8.5h-857zM212 1521q-13 0 -20.5 5t-7.5 15q0 4 4 14l120 252q6 13 14 18.5t20 5.5h168q13 0 20.5 -5t7.5 -15q0 -4 -4 -14 l-120 -252q-6 -13 -14 -18.5t-20 -5.5h-168z" glyph-name="Lacute" unicode="Ĺ" vert-adv-y="1980"/>
<glyph d="M202 0q-13 0 -21.5 8.5t-8.5 21.5v1280q0 14 8.5 22t21.5 8h201q14 0 22 -8t8 -22v-1078h626q14 0 22 -8t8 -22v-172q0 -13 -8 -21.5t-22 -8.5h-857zM1032 1340q14 0 22 -8t8 -22v-87q0 -140 -10.5 -262t-28.5 -201q-5 -22 -36 -22h-139q-31 0 -29 32q15 157 15 317v41 h-256q-13 0 -21.5 8.5t-8.5 21.5v152q0 14 8.5 22t21.5 8h454z" glyph-name="Lcaron" unicode="Ľ" vert-adv-y="1980"/>
<glyph d="M202 0q-13 0 -21.5 8.5t-8.5 21.5v1280q0 14 8.5 22t21.5 8h201q14 0 22 -8t8 -22v-1078h626q14 0 22 -8t8 -22v-172q0 -13 -8 -21.5t-22 -8.5h-857zM819 -174q13 0 20.5 -7.5t7.5 -20.5v-79q0 -128 -9.5 -240t-26.5 -183q-4 -21 -32 -21h-128q-29 0 -26 30 q15 165 14 327h-234q-13 0 -20.5 7.5t-7.5 19.5v139q0 13 7.5 20.5t20.5 7.5h414z" glyph-name="uni013B" unicode="Ļ" vert-adv-y="1980"/>
<glyph d="M202 0q-13 0 -21.5 8.5t-8.5 21.5v1280q0 14 8.5 22t21.5 8h201q14 0 22 -8t8 -22v-1078h626q14 0 22 -8t8 -22v-172q0 -13 -8 -21.5t-22 -8.5h-857zM685.5 618.5q-45.5 26.5 -72 71.5t-26.5 99t26.5 99t72 71t98.5 26t98.5 -26t72 -71t26.5 -99t-26.5 -99t-72 -71.5 t-98.5 -26.5t-98.5 26.5z" glyph-name="Ldot" unicode="Ŀ" vert-adv-y="1980"/>
<glyph d="M1014 232q14 0 22 -8t8 -22v-172q0 -13 -8 -21.5t-22 -8.5h-777q-13 0 -21.5 8.5t-8.5 21.5v426l-113 -111q-11 -11 -20 -11q-8 0 -12 7t-4 20v166q0 22 16 38l133 130v675q0 14 8.5 22t21.5 8h201q14 0 22 -8t8 -22v-420l159 156q11 11 20 11q8 0 12 -7t4 -20v-164 q0 -22 -16 -38l-179 -176v-480h546z" glyph-name="Lslash" unicode="Ł" vert-adv-y="1980"/>
<glyph d="M153 0q-13 0 -21.5 8.5t-8.5 21.5v1280q0 14 8.5 22t21.5 8h208q13 0 23.5 -5t12.5 -15l211 -926h14l211 926q2 10 12.5 15t23.5 5h208q14 0 22 -8t8 -22v-1280q0 -13 -8 -21.5t-22 -8.5h-155q-13 0 -21.5 8.5t-8.5 21.5v779h-14l-167 -685q-3 -12 -12.5 -18t-22.5 -6 h-121q-13 0 -23 6.5t-13 17.5l-167 685h-14v-779q0 -13 -8 -21.5t-22 -8.5h-155z" glyph-name="M" unicode="M" vert-adv-y="1980"/>
<glyph d="M1053 1340q14 0 22 -8t8 -22v-1280q0 -13 -8 -21.5t-22 -8.5h-228q-27 0 -36 20l-407 903v-893q0 -13 -8 -21.5t-22 -8.5h-175q-13 0 -21.5 8.5t-8.5 21.5v1280q0 14 8.5 22t21.5 8h229q27 0 36 -20l406 -902v892q0 14 8.5 22t21.5 8h175z" glyph-name="N" unicode="N" vert-adv-y="1980"/>
<glyph d="M1053 1340q14 0 22 -8t8 -22v-1280q0 -13 -8 -21.5t-22 -8.5h-228q-27 0 -36 20l-407 903v-893q0 -13 -8 -21.5t-22 -8.5h-175q-13 0 -21.5 8.5t-8.5 21.5v1280q0 14 8.5 22t21.5 8h229q27 0 36 -20l406 -902v892q0 14 8.5 22t21.5 8h175zM538 1547q-13 0 -20.5 5 t-7.5 15q0 4 4 14l120 252q6 13 14 18.5t20 5.5h168q13 0 20.5 -5t7.5 -15q0 -4 -4 -14l-120 -252q-6 -13 -14 -18.5t-20 -5.5h-168z" glyph-name="Nacute" unicode="Ń" vert-adv-y="1980"/>
<glyph d="M1053 1340q14 0 22 -8t8 -22v-1280q0 -13 -8 -21.5t-22 -8.5h-228q-27 0 -36 20l-407 903v-893q0 -13 -8 -21.5t-22 -8.5h-175q-13 0 -21.5 8.5t-8.5 21.5v1280q0 14 8.5 22t21.5 8h229q27 0 36 -20l406 -902v892q0 14 8.5 22t21.5 8h175zM486 1541q-11 0 -19 3.5 t-17 12.5l-223 264q-8 9 -8 19q0 8 7 12.5t19 4.5h193q23 0 36 -16l141 -160l141 160q13 16 36 16h193q12 0 19 -4.5t7 -12.5q0 -10 -8 -19l-223 -264q-9 -9 -17 -12.5t-19 -3.5h-258z" glyph-name="Ncaron" unicode="Ň" vert-adv-y="1980"/>
<glyph d="M1053 1340q14 0 22 -8t8 -22v-1280q0 -13 -8 -21.5t-22 -8.5h-228q-27 0 -36 20l-407 903v-893q0 -13 -8 -21.5t-22 -8.5h-175q-13 0 -21.5 8.5t-8.5 21.5v1280q0 14 8.5 22t21.5 8h229q27 0 36 -20l406 -902v892q0 14 8.5 22t21.5 8h175zM819 -174q13 0 20.5 -7.5 t7.5 -20.5v-79q0 -128 -9.5 -240t-26.5 -183q-4 -21 -32 -21h-128q-29 0 -26 30q15 165 14 327h-234q-13 0 -20.5 7.5t-7.5 19.5v139q0 13 7.5 20.5t20.5 7.5h414z" glyph-name="uni0145" unicode="Ņ" vert-adv-y="1980"/>
<glyph d="M1053 1340q14 0 22 -8t8 -22v-1310q0 -152 -60.5 -243t-178 -130.5t-297.5 -39.5v236q149 0 225 41.5t76 135.5h-23q-27 0 -36 20l-407 903v-893q0 -13 -8 -21.5t-22 -8.5h-175q-13 0 -21.5 8.5t-8.5 21.5v1280q0 14 8.5 22t21.5 8h229q27 0 36 -20l406 -902v892 q0 14 8.5 22t21.5 8h175z" glyph-name="Eng" unicode="Ŋ" vert-adv-y="1980"/>
<glyph d="M1053 1340q14 0 22 -8t8 -22v-1280q0 -13 -8 -21.5t-22 -8.5h-228q-27 0 -36 20l-407 903v-893q0 -13 -8 -21.5t-22 -8.5h-175q-13 0 -21.5 8.5t-8.5 21.5v1280q0 14 8.5 22t21.5 8h229q27 0 36 -20l406 -902v892q0 14 8.5 22t21.5 8h175zM682.5 1589.5 q-41.5 21.5 -92.5 61.5q-40 32 -68 47.5t-62 15.5q-36 0 -59 -17.5t-33 -41.5q-6 -17 -22 -17h-94q-8 0 -13.5 6.5t-5.5 16.5q0 67 30 112t78 66.5t103 21.5q61 0 103.5 -21.5t92.5 -62.5q41 -32 68 -47t61 -15q36 0 59 17.5t33 42.5q6 16 22 16h94q10 0 15.5 -5.5 t5.5 -14.5q-1 -68 -31.5 -114t-79 -67.5t-103.5 -21.5q-60 0 -101.5 21.5z" glyph-name="Ntilde" unicode="Ñ" vert-adv-y="1980"/>
<glyph d="M325 41.5q-111 71.5 -164 223.5t-53 400t53 400.5t164 223.5t290 71t290 -71t164 -223.5t53 -400.5t-53 -400t-164 -223.5t-290 -71.5t-290 71.5zM754.5 257q54.5 37 84.5 134.5t30 273.5t-30 273.5t-84.5 134.5t-139.5 37t-139.5 -37t-84.5 -134.5t-30 -273.5t30 -273.5 t84.5 -134.5t139.5 -37t139.5 37z" glyph-name="O" unicode="O" vert-adv-y="1980"/>
<glyph d="M325 41.5q-111 71.5 -164 223.5t-53 400t53 400.5t164 223.5t290 71t290 -71t164 -223.5t53 -400.5t-53 -400t-164 -223.5t-290 -71.5t-290 71.5zM754.5 257q54.5 37 84.5 134.5t30 273.5t-30 273.5t-84.5 134.5t-139.5 37t-139.5 -37t-84.5 -134.5t-30 -273.5t30 -273.5 t84.5 -134.5t139.5 -37t139.5 37zM538 1547q-13 0 -20.5 5t-7.5 15q0 4 4 14l120 252q6 13 14 18.5t20 5.5h168q13 0 20.5 -5t7.5 -15q0 -4 -4 -14l-120 -252q-6 -13 -14 -18.5t-20 -5.5h-168z" glyph-name="Oacute" unicode="Ó" vert-adv-y="1980"/>
<glyph d="M325 41.5q-111 71.5 -164 223.5t-53 400t53 400.5t164 223.5t290 71t290 -71t164 -223.5t53 -400.5t-53 -400t-164 -223.5t-290 -71.5t-290 71.5zM754.5 257q54.5 37 84.5 134.5t30 273.5t-30 273.5t-84.5 134.5t-139.5 37t-139.5 -37t-84.5 -134.5t-30 -273.5t30 -273.5 t84.5 -134.5t139.5 -37t139.5 37zM486 1541q-11 0 -19 3.5t-17 12.5l-223 264q-8 9 -8 19q0 8 7 12.5t19 4.5h193q23 0 36 -16l141 -160l141 160q13 16 36 16h193q12 0 19 -4.5t7 -12.5q0 -10 -8 -19l-223 -264q-9 -9 -17 -12.5t-19 -3.5h-258z" glyph-name="uni01D1" unicode="Ǒ" vert-adv-y="1980"/>
<glyph d="M325 41.5q-111 71.5 -164 223.5t-53 400t53 400.5t164 223.5t290 71t290 -71t164 -223.5t53 -400.5t-53 -400t-164 -223.5t-290 -71.5t-290 71.5zM754.5 257q54.5 37 84.5 134.5t30 273.5t-30 273.5t-84.5 134.5t-139.5 37t-139.5 -37t-84.5 -134.5t-30 -273.5t30 -273.5 t84.5 -134.5t139.5 -37t139.5 37zM245 1541q-12 0 -19 4.5t-7 12.5q0 10 8 19l223 264q8 10 16 13t20 3h258q12 0 20 -3t16 -13l223 -264q8 -9 8 -19q0 -8 -7 -12.5t-19 -4.5h-193q-23 0 -36 16l-141 161l-141 -161q-13 -16 -36 -16h-193z" glyph-name="Ocircumflex" unicode="Ô" vert-adv-y="1980"/>
<glyph d="M325 41.5q-111 71.5 -164 223.5t-53 400t53 400.5t164 223.5t290 71t290 -71t164 -223.5t53 -400.5t-53 -400t-164 -223.5t-290 -71.5t-290 71.5zM754.5 257q54.5 37 84.5 134.5t30 273.5t-30 273.5t-84.5 134.5t-139.5 37t-139.5 -37t-84.5 -134.5t-30 -273.5t30 -273.5 t84.5 -134.5t139.5 -37t139.5 37zM338 1615.5q-29 17.5 -46.5 47.5t-17.5 66q0 35 17.5 64.5t47 46.5t63.5 17q35 0 64.5 -17t47 -46.5t17.5 -64.5q0 -36 -17.5 -66t-47 -47.5t-64.5 -17.5t-64 17.5zM763.5 1615.5q-29.5 17.5 -47 47.5t-17.5 66q0 35 17.5 64.5t47 46.5 t64.5 17t64.5 -17t47 -46.5t17.5 -64.5q0 -36 -17.5 -66t-47 -47.5t-64.5 -17.5t-64.5 17.5z" glyph-name="Odieresis" unicode="Ö" vert-adv-y="1980"/>
<glyph d="M325 41.5q-111 71.5 -164 223.5t-53 400t53 400.5t164 223.5t290 71t290 -71t164 -223.5t53 -400.5t-53 -400t-164 -223.5t-290 -71.5t-290 71.5zM754.5 257q54.5 37 84.5 134.5t30 273.5t-30 273.5t-84.5 134.5t-139.5 37t-139.5 -37t-84.5 -134.5t-30 -273.5t30 -273.5 t84.5 -134.5t139.5 -37t139.5 37zM526 1547q-12 0 -20 5.5t-14 18.5l-120 252q-4 10 -4 14q0 10 7.5 15t20.5 5h168q12 0 20 -5.5t14 -18.5l120 -252q4 -10 4 -14q0 -10 -7.5 -15t-20.5 -5h-168z" glyph-name="Ograve" unicode="Ò" vert-adv-y="1980"/>
<glyph d="M325 41.5q-111 71.5 -164 223.5t-53 400t53 400.5t164 223.5t290 71t290 -71t164 -223.5t53 -400.5t-53 -400t-164 -223.5t-290 -71.5t-290 71.5zM754.5 257q54.5 37 84.5 134.5t30 273.5t-30 273.5t-84.5 134.5t-139.5 37t-139.5 -37t-84.5 -134.5t-30 -273.5t30 -273.5 t84.5 -134.5t139.5 -37t139.5 37zM707 1547q-13 0 -20.5 5t-7.5 15q0 4 4 14l120 252q6 13 14 18.5t20 5.5h168q13 0 20.5 -5t7.5 -15q0 -4 -4 -14l-120 -252q-6 -13 -14 -18.5t-20 -5.5h-168zM349 1547q-13 0 -20.5 5t-7.5 15q0 4 4 14l120 252q6 13 14 18.5t20 5.5h168 q13 0 20.5 -5t7.5 -15q0 -4 -4 -14l-120 -252q-6 -13 -14 -18.5t-20 -5.5h-168z" glyph-name="Ohungarumlaut" unicode="Ő" vert-adv-y="1980"/>
<glyph d="M325 41.5q-111 71.5 -164 223.5t-53 400t53 400.5t164 223.5t290 71t290 -71t164 -223.5t53 -400.5t-53 -400t-164 -223.5t-290 -71.5t-290 71.5zM754.5 257q54.5 37 84.5 134.5t30 273.5t-30 273.5t-84.5 134.5t-139.5 37t-139.5 -37t-84.5 -134.5t-30 -273.5t30 -273.5 t84.5 -134.5t139.5 -37t139.5 37zM348 1660q-13 0 -21.5 8.5t-8.5 21.5v137q0 14 8.5 22t21.5 8h534q14 0 22 -8t8 -22v-137q0 -13 -8 -21.5t-22 -8.5h-534z" glyph-name="Omacron" unicode="Ō" vert-adv-y="1980"/>
<glyph d="M812 -9q-87 -20 -125 -47t-38 -76q0 -46 33.5 -72.5t99.5 -26.5h46q20 0 20 -20v-116q0 -20 -20 -20h-60q-122 0 -211.5 49t-89.5 166q0 98 75 145q-152 14 -247.5 90.5t-141 224t-45.5 377.5q0 248 53 400.5t164 223.5t290 71t290 -71t164 -223.5t53 -400.5 q0 -293 -74.5 -454t-235.5 -214v-6zM391 391.5q30 -97.5 84.5 -134.5t139.5 -37t139.5 37t84.5 134.5t30 273.5t-30 273.5t-84.5 134.5t-139.5 37t-139.5 -37t-84.5 -134.5t-30 -273.5t30 -273.5z" glyph-name="uni01EA" unicode="Ǫ" vert-adv-y="1980"/>
<glyph d="M989 1215q68 -84 100.5 -219t32.5 -331q0 -248 -53 -400t-164 -223.5t-290 -71.5q-145 0 -242 45l-63 -123q-11 -22 -34 -22h-120q-12 0 -19 5.5t-7 14.5q0 8 4 16l108 210q-69 83 -101.5 218t-32.5 331q0 248 53 400.5t164 223.5t290 71q145 0 242 -45l63 123 q11 22 34 22h120q12 0 19 -5.5t7 -14.5q0 -8 -4 -16zM388 401l350 682q-47 27 -123 27q-85 0 -139.5 -37t-84.5 -134.5t-30 -273.5q0 -166 27 -264zM754.5 257q54.5 37 84.5 134.5t30 273.5q0 167 -27 264l-350 -682q47 -27 123 -27q85 0 139.5 37z" glyph-name="Oslash" unicode="Ø" vert-adv-y="1980"/>
<glyph d="M325 41.5q-111 71.5 -164 223.5t-53 400t53 400.5t164 223.5t290 71t290 -71t164 -223.5t53 -400.5t-53 -400t-164 -223.5t-290 -71.5t-290 71.5zM754.5 257q54.5 37 84.5 134.5t30 273.5t-30 273.5t-84.5 134.5t-139.5 37t-139.5 -37t-84.5 -134.5t-30 -273.5t30 -273.5 t84.5 -134.5t139.5 -37t139.5 37zM682.5 1589.5q-41.5 21.5 -92.5 61.5q-40 32 -68 47.5t-62 15.5q-36 0 -59 -17.5t-33 -41.5q-6 -17 -22 -17h-94q-8 0 -13.5 6.5t-5.5 16.5q0 67 30 112t78 66.5t103 21.5q61 0 103.5 -21.5t92.5 -62.5q41 -32 68 -47t61 -15q36 0 59 17.5 t33 42.5q6 16 22 16h94q10 0 15.5 -5.5t5.5 -14.5q-1 -68 -31.5 -114t-79 -67.5t-103.5 -21.5q-60 0 -101.5 21.5z" glyph-name="Otilde" unicode="Õ" vert-adv-y="1980"/>
<glyph d="M1112 232q14 0 22 -8t8 -22v-172q0 -13 -8 -21.5t-22 -8.5h-517q-188 -1 -297 58.5t-159.5 204t-50.5 403.5t50.5 405t160 208t296.5 61h515q14 0 22 -8t8 -22v-172q0 -13 -8 -21.5t-22 -8.5h-254v-317h213q14 0 22 -8t8 -22v-172q0 -13 -8 -21.5t-22 -8.5h-213v-327h256 zM595 1103q-99 0 -151.5 -30t-77.5 -123t-25 -284q0 -192 25 -283t76.5 -118.5t152.5 -26.5v865z" glyph-name="OE" unicode="Œ" vert-adv-y="1980"/>
<glyph d="M638 1340q252 0 369.5 -115.5t117.5 -334.5q0 -450 -487 -450h-237v-410q0 -13 -8 -21.5t-22 -8.5h-201q-13 0 -21.5 8.5t-8.5 21.5v1280q0 14 8.5 22t21.5 8h468zM624 672q126 0 188 49.5t62 168.5q0 120 -62 169t-188 49h-223v-436h223z" glyph-name="P" unicode="P" vert-adv-y="1980"/>
<glyph d="M623 1124q162 0 274.5 -54.5t170.5 -156.5t58 -243t-58 -243t-170.5 -156.5t-274.5 -54.5h-258v-186q0 -13 -8 -21.5t-22 -8.5h-201q-13 0 -21.5 8.5t-8.5 21.5v1280q0 14 8.5 22t21.5 8h201q14 0 22 -8t8 -22v-186h258zM604 448q131 0 201 50t70 172t-70 172t-201 50 h-239v-444h239z" glyph-name="Thorn" unicode="Þ" vert-adv-y="1980"/>
<glyph d="M325 41.5q-111 71.5 -164 223.5t-53 400t53 400.5t164 223.5t290 71t290 -71t164 -223.5t53 -400.5t-53 -400t-164 -223.5t-290 -71.5t-290 71.5zM754.5 257q54.5 37 84.5 134.5t30 273.5t-30 273.5t-84.5 134.5t-139.5 37t-139.5 -37t-84.5 -134.5t-30 -273.5t30 -273.5 t84.5 -134.5t139.5 -37t139.5 37zM1052 -371q-63 0 -109.5 11t-111.5 34q-64 24 -115.5 36t-121.5 12q-32 0 -32 28v143q0 14 8 23t24 9q73 1 126 -11t118 -35q67 -23 118.5 -34.5t123.5 -11.5q32 0 32 -28v-143q0 -14 -7.5 -22.5t-22.5 -9.5z" glyph-name="Q" unicode="Q" vert-adv-y="1980"/>
<glyph d="M1119 35q4 -8 4 -16q0 -19 -26 -19h-199q-13 0 -21 5.5t-14 17.5l-211 417h-9h-237v-410q0 -13 -8 -21.5t-22 -8.5h-201q-13 0 -21.5 8.5t-8.5 21.5v1280q0 14 8.5 22t21.5 8h468q252 0 369.5 -115.5t117.5 -334.5q0 -314 -238 -409zM406 1108v-436h223q126 0 188 49.5 t62 168.5q0 120 -62 169t-188 49h-223z" glyph-name="R" unicode="R" vert-adv-y="1980"/>
<glyph d="M1119 35q4 -8 4 -16q0 -19 -26 -19h-199q-13 0 -21 5.5t-14 17.5l-211 417h-9h-237v-410q0 -13 -8 -21.5t-22 -8.5h-201q-13 0 -21.5 8.5t-8.5 21.5v1280q0 14 8.5 22t21.5 8h468q252 0 369.5 -115.5t117.5 -334.5q0 -314 -238 -409zM406 1108v-436h223q126 0 188 49.5 t62 168.5q0 120 -62 169t-188 49h-223zM538 1547q-13 0 -20.5 5t-7.5 15q0 4 4 14l120 252q6 13 14 18.5t20 5.5h168q13 0 20.5 -5t7.5 -15q0 -4 -4 -14l-120 -252q-6 -13 -14 -18.5t-20 -5.5h-168z" glyph-name="Racute" unicode="Ŕ" vert-adv-y="1980"/>
<glyph d="M1119 35q4 -8 4 -16q0 -19 -26 -19h-199q-13 0 -21 5.5t-14 17.5l-211 417h-9h-237v-410q0 -13 -8 -21.5t-22 -8.5h-201q-13 0 -21.5 8.5t-8.5 21.5v1280q0 14 8.5 22t21.5 8h468q252 0 369.5 -115.5t117.5 -334.5q0 -314 -238 -409zM406 1108v-436h223q126 0 188 49.5 t62 168.5q0 120 -62 169t-188 49h-223zM486 1541q-11 0 -19 3.5t-17 12.5l-223 264q-8 9 -8 19q0 8 7 12.5t19 4.5h193q23 0 36 -16l141 -160l141 160q13 16 36 16h193q12 0 19 -4.5t7 -12.5q0 -10 -8 -19l-223 -264q-9 -9 -17 -12.5t-19 -3.5h-258z" glyph-name="Rcaron" unicode="Ř" vert-adv-y="1980"/>
<glyph d="M1119 35q4 -8 4 -16q0 -19 -26 -19h-199q-13 0 -21 5.5t-14 17.5l-211 417h-9h-237v-410q0 -13 -8 -21.5t-22 -8.5h-201q-13 0 -21.5 8.5t-8.5 21.5v1280q0 14 8.5 22t21.5 8h468q252 0 369.5 -115.5t117.5 -334.5q0 -314 -238 -409zM406 1108v-436h223q126 0 188 49.5 t62 168.5q0 120 -62 169t-188 49h-223zM819 -174q13 0 20.5 -7.5t7.5 -20.5v-79q0 -128 -9.5 -240t-26.5 -183q-4 -21 -32 -21h-128q-29 0 -26 30q15 165 14 327h-234q-13 0 -20.5 7.5t-7.5 19.5v139q0 13 7.5 20.5t20.5 7.5h414z" glyph-name="uni0156" unicode="Ŗ" vert-adv-y="1980"/>
<glyph d="M251.5 64.5q-127.5 94.5 -142.5 300.5q-1 15 7 25t21 10h187q24 0 29 -29q15 -83 82 -126.5t182 -43.5q113 0 180.5 41t67.5 132q0 49 -24.5 84t-84 62.5t-164.5 49.5q-133 28 -231.5 74t-160.5 129t-62 210q0 114 53 198.5t161 131.5t267 47q211 0 329 -90.5t136 -284.5 q1 -15 -6.5 -24.5t-21.5 -9.5h-173q-24 0 -29 28q-14 73 -74.5 111.5t-166.5 38.5q-108 0 -164.5 -40t-56.5 -115q0 -44 22.5 -78t81 -62.5t161.5 -50.5q148 -32 244 -71.5t158 -121.5t62 -220q0 -194 -131.5 -297t-382.5 -103q-228 0 -355.5 94.5z" glyph-name="S" unicode="S" vert-adv-y="1980"/>
<glyph d="M251.5 64.5q-127.5 94.5 -142.5 300.5q-1 15 7 25t21 10h187q24 0 29 -29q15 -83 82 -126.5t182 -43.5q113 0 180.5 41t67.5 132q0 49 -24.5 84t-84 62.5t-164.5 49.5q-133 28 -231.5 74t-160.5 129t-62 210q0 114 53 198.5t161 131.5t267 47q211 0 329 -90.5t136 -284.5 q1 -15 -6.5 -24.5t-21.5 -9.5h-173q-24 0 -29 28q-14 73 -74.5 111.5t-166.5 38.5q-108 0 -164.5 -40t-56.5 -115q0 -44 22.5 -78t81 -62.5t161.5 -50.5q148 -32 244 -71.5t158 -121.5t62 -220q0 -194 -131.5 -297t-382.5 -103q-228 0 -355.5 94.5zM539 1547q-13 0 -20.5 5 t-7.5 15q0 4 4 14l120 252q6 13 14 18.5t20 5.5h168q13 0 20.5 -5t7.5 -15q0 -4 -4 -14l-120 -252q-6 -13 -14 -18.5t-20 -5.5h-168z" glyph-name="Sacute" unicode="Ś" vert-adv-y="1980"/>
<glyph d="M251.5 64.5q-127.5 94.5 -142.5 300.5q-1 15 7 25t21 10h187q24 0 29 -29q15 -83 82 -126.5t182 -43.5q113 0 180.5 41t67.5 132q0 49 -24.5 84t-84 62.5t-164.5 49.5q-133 28 -231.5 74t-160.5 129t-62 210q0 114 53 198.5t161 131.5t267 47q211 0 329 -90.5t136 -284.5 q1 -15 -6.5 -24.5t-21.5 -9.5h-173q-24 0 -29 28q-14 73 -74.5 111.5t-166.5 38.5q-108 0 -164.5 -40t-56.5 -115q0 -44 22.5 -78t81 -62.5t161.5 -50.5q148 -32 244 -71.5t158 -121.5t62 -220q0 -194 -131.5 -297t-382.5 -103q-228 0 -355.5 94.5zM488 1541q-11 0 -19 3.5 t-17 12.5l-223 264q-8 9 -8 19q0 8 7 12.5t19 4.5h193q23 0 36 -16l141 -160l141 160q13 16 36 16h193q12 0 19 -4.5t7 -12.5q0 -10 -8 -19l-223 -264q-9 -9 -17 -12.5t-19 -3.5h-258z" glyph-name="Scaron" unicode="Š" vert-adv-y="1980"/>
<glyph d="M1007.5 88q-113.5 -102 -330.5 -116l-45 -41q46 -4 86.5 -24t65.5 -55.5t25 -83.5q0 -104 -74 -155.5t-187 -51.5q-45 0 -84 7q-18 3 -18 22v88q0 9 6 15t16 5q35 -5 58 -5q52 0 81 17t29 46q0 22 -25.5 38.5t-63.5 16.5q-37 0 -77 -17q-4 -2 -10 -2q-14 0 -14 16v91 q0 14 10 24l54 52q-183 18 -285 112.5t-116 277.5q-1 15 7 25t21 10h187q24 0 29 -29q15 -83 82 -126.5t182 -43.5q113 0 180.5 41t67.5 132q0 49 -24.5 84t-84 62.5t-164.5 49.5q-133 28 -231.5 74t-160.5 129t-62 210q0 114 53 198.5t161 131.5t267 47q211 0 329 -90.5 t136 -284.5q1 -15 -6.5 -24.5t-21.5 -9.5h-173q-24 0 -29 28q-14 73 -74.5 111.5t-166.5 38.5q-108 0 -164.5 -40t-56.5 -115q0 -44 22.5 -78t81 -62.5t161.5 -50.5q148 -32 244 -71.5t158 -121.5t62 -220q0 -180 -113.5 -282z" glyph-name="Scedilla" unicode="Ş" vert-adv-y="1980"/>
<glyph d="M251.5 64.5q-127.5 94.5 -142.5 300.5q-1 15 7 25t21 10h187q24 0 29 -29q15 -83 82 -126.5t182 -43.5q113 0 180.5 41t67.5 132q0 49 -24.5 84t-84 62.5t-164.5 49.5q-133 28 -231.5 74t-160.5 129t-62 210q0 114 53 198.5t161 131.5t267 47q211 0 329 -90.5t136 -284.5 q1 -15 -6.5 -24.5t-21.5 -9.5h-173q-24 0 -29 28q-14 73 -74.5 111.5t-166.5 38.5q-108 0 -164.5 -40t-56.5 -115q0 -44 22.5 -78t81 -62.5t161.5 -50.5q148 -32 244 -71.5t158 -121.5t62 -220q0 -194 -131.5 -297t-382.5 -103q-228 0 -355.5 94.5zM817 -174q13 0 20.5 -7.5 t7.5 -20.5v-79q0 -128 -9.5 -240t-26.5 -183q-4 -21 -32 -21h-128q-29 0 -26 30q15 165 14 327h-234q-13 0 -20.5 7.5t-7.5 19.5v139q0 13 7.5 20.5t20.5 7.5h414z" glyph-name="uni0218" unicode="Ș" vert-adv-y="1980"/>
<glyph d="M755 823q209 -33 322 -145.5t113 -302.5q0 -121 -47 -211t-141.5 -140t-231.5 -50q-367 0 -367 363q0 31 29 31h158q28 0 31 -29q5 -64 42.5 -99.5t107.5 -35.5q80 0 119 46.5t39 132.5q0 90 -42.5 144.5t-128.5 79t-220 24.5q-15 0 -22.5 8t-7.5 22v173l209 274h-219 q-65 0 -101 -18.5t-51 -59t-15 -111.5v-889q0 -13 -8 -21.5t-22 -8.5h-201q-13 0 -21.5 8.5t-8.5 21.5v908q0 147 41 234.5t130.5 127.5t237.5 40h601q12 0 19 -5t7 -13q0 -10 -7 -18z" glyph-name="uni1E9E" unicode="ẞ" vert-adv-y="1980"/>
<glyph d="M913.5 1297.5q109.5 -62.5 161 -213t51.5 -419.5q0 -267 -51 -417.5t-160.5 -214t-296.5 -63.5q-183 0 -295.5 55.5t-165.5 173.5t-53 308v175q0 14 8.5 22t21.5 8h739q-4 166 -34.5 251.5t-85 115t-145.5 29.5q-80 0 -128.5 -14.5t-77.5 -53.5t-41 -113 q-2 -13 -11.5 -19.5t-23.5 -6.5h-183q-30 0 -28 32q9 155 67 249t165 136t270 42q187 0 296.5 -62.5zM737.5 242q49.5 21 81.5 79.5t45 168.5h-514q2 -104 28.5 -162t82 -82.5t150.5 -24.5q77 0 126.5 21z" glyph-name="uni018F" unicode="Ə" vert-adv-y="1980"/>
<glyph d="M514 0q-13 0 -21.5 8.5t-8.5 21.5v1078h-354q-13 0 -21.5 8.5t-8.5 21.5v172q0 14 8.5 22t21.5 8h970q14 0 22 -8t8 -22v-172q0 -13 -8 -21.5t-22 -8.5h-354v-1078q0 -13 -8 -21.5t-22 -8.5h-202z" glyph-name="T" unicode="T" vert-adv-y="1980"/>
<glyph d="M1100 1340q14 0 22 -8t8 -22v-172q0 -13 -8 -21.5t-22 -8.5h-354v-195h200q14 0 22 -8t8 -22v-137q0 -13 -8 -21.5t-22 -8.5h-200v-686q0 -13 -8 -21.5t-22 -8.5h-202q-13 0 -21.5 8.5t-8.5 21.5v686h-200q-13 0 -21.5 8.5t-8.5 21.5v137q0 14 8.5 22t21.5 8h200v195 h-354q-13 0 -21.5 8.5t-8.5 21.5v172q0 14 8.5 22t21.5 8h970z" glyph-name="Tbar" unicode="Ŧ" vert-adv-y="1980"/>
<glyph d="M514 0q-13 0 -21.5 8.5t-8.5 21.5v1078h-354q-13 0 -21.5 8.5t-8.5 21.5v172q0 14 8.5 22t21.5 8h970q14 0 22 -8t8 -22v-172q0 -13 -8 -21.5t-22 -8.5h-354v-1078q0 -13 -8 -21.5t-22 -8.5h-202zM486 1541q-11 0 -19 3.5t-17 12.5l-223 264q-8 9 -8 19q0 8 7 12.5 t19 4.5h193q23 0 36 -16l141 -160l141 160q13 16 36 16h193q12 0 19 -4.5t7 -12.5q0 -10 -8 -19l-223 -264q-9 -9 -17 -12.5t-19 -3.5h-258z" glyph-name="Tcaron" unicode="Ť" vert-adv-y="1980"/>
<glyph d="M514 0q-13 0 -21.5 8.5t-8.5 21.5v1078h-354q-13 0 -21.5 8.5t-8.5 21.5v172q0 14 8.5 22t21.5 8h970q14 0 22 -8t8 -22v-172q0 -13 -8 -21.5t-22 -8.5h-354v-1078q0 -13 -8 -21.5t-22 -8.5h-202zM633 -69q46 -4 86.5 -24t65.5 -55.5t25 -83.5q0 -104 -74 -155.5 t-187 -51.5q-45 0 -84 7q-18 3 -18 22v88q0 9 6 15t16 5q35 -5 58 -5q52 0 81 17t29 46q0 22 -25.5 38.5t-63.5 16.5q-37 0 -77 -17q-4 -2 -10 -2q-14 0 -14 16v91q0 14 10 24l80 77h171z" glyph-name="uni0162" unicode="Ţ" vert-adv-y="1980"/>
<glyph d="M514 0q-13 0 -21.5 8.5t-8.5 21.5v1078h-354q-13 0 -21.5 8.5t-8.5 21.5v172q0 14 8.5 22t21.5 8h970q14 0 22 -8t8 -22v-172q0 -13 -8 -21.5t-22 -8.5h-354v-1078q0 -13 -8 -21.5t-22 -8.5h-202zM819 -174q13 0 20.5 -7.5t7.5 -20.5v-79q0 -128 -9.5 -240t-26.5 -183 q-4 -21 -32 -21h-128q-29 0 -26 30q15 165 14 327h-234q-13 0 -20.5 7.5t-7.5 19.5v139q0 13 7.5 20.5t20.5 7.5h414z" glyph-name="uni021A" unicode="Ț" vert-adv-y="1980"/>
<glyph d="M253 91.5q-125 121.5 -125 362.5v856q0 14 8.5 22t21.5 8h201q14 0 22 -8t8 -22v-835q0 -123 57 -189t169 -66t169 66t57 189v835q0 14 8.5 22t21.5 8h201q14 0 22 -8t8 -22v-856q0 -241 -125 -362.5t-362 -121.5t-362 121.5z" glyph-name="U" unicode="U" vert-adv-y="1980"/>
<glyph d="M253 91.5q-125 121.5 -125 362.5v856q0 14 8.5 22t21.5 8h201q14 0 22 -8t8 -22v-835q0 -123 57 -189t169 -66t169 66t57 189v835q0 14 8.5 22t21.5 8h201q14 0 22 -8t8 -22v-856q0 -241 -125 -362.5t-362 -121.5t-362 121.5zM538 1547q-13 0 -20.5 5t-7.5 15q0 4 4 14 l120 252q6 13 14 18.5t20 5.5h168q13 0 20.5 -5t7.5 -15q0 -4 -4 -14l-120 -252q-6 -13 -14 -18.5t-20 -5.5h-168z" glyph-name="Uacute" unicode="Ú" vert-adv-y="1980"/>
<glyph d="M253 91.5q-125 121.5 -125 362.5v856q0 14 8.5 22t21.5 8h201q14 0 22 -8t8 -22v-835q0 -123 57 -189t169 -66t169 66t57 189v835q0 14 8.5 22t21.5 8h201q14 0 22 -8t8 -22v-856q0 -241 -125 -362.5t-362 -121.5t-362 121.5zM450 1580.5q-71 37.5 -111 101.5t-48 144 q-3 31 29 31h105q26 0 32 -29q12 -50 53 -85.5t105 -35.5t105.5 35.5t52.5 85.5q6 29 32 29h105q33 0 30 -31q-8 -80 -48.5 -144t-111.5 -101.5t-165 -37.5t-165 37.5z" glyph-name="Ubreve" unicode="Ŭ" vert-adv-y="1980"/>
<glyph d="M253 91.5q-125 121.5 -125 362.5v856q0 14 8.5 22t21.5 8h201q14 0 22 -8t8 -22v-835q0 -123 57 -189t169 -66t169 66t57 189v835q0 14 8.5 22t21.5 8h201q14 0 22 -8t8 -22v-856q0 -241 -125 -362.5t-362 -121.5t-362 121.5zM486 1541q-11 0 -19 3.5t-17 12.5l-223 264 q-8 9 -8 19q0 8 7 12.5t19 4.5h193q23 0 36 -16l141 -160l141 160q13 16 36 16h193q12 0 19 -4.5t7 -12.5q0 -10 -8 -19l-223 -264q-9 -9 -17 -12.5t-19 -3.5h-258z" glyph-name="uni01D3" unicode="Ǔ" vert-adv-y="1980"/>
<glyph d="M253 91.5q-125 121.5 -125 362.5v856q0 14 8.5 22t21.5 8h201q14 0 22 -8t8 -22v-835q0 -123 57 -189t169 -66t169 66t57 189v835q0 14 8.5 22t21.5 8h201q14 0 22 -8t8 -22v-856q0 -241 -125 -362.5t-362 -121.5t-362 121.5zM245 1541q-12 0 -19 4.5t-7 12.5q0 10 8 19 l223 264q8 10 16 13t20 3h258q12 0 20 -3t16 -13l223 -264q8 -9 8 -19q0 -8 -7 -12.5t-19 -4.5h-193q-23 0 -36 16l-141 161l-141 -161q-13 -16 -36 -16h-193z" glyph-name="Ucircumflex" unicode="Û" vert-adv-y="1980"/>
<glyph d="M253 91.5q-125 121.5 -125 362.5v856q0 14 8.5 22t21.5 8h201q14 0 22 -8t8 -22v-835q0 -123 57 -189t169 -66t169 66t57 189v835q0 14 8.5 22t21.5 8h201q14 0 22 -8t8 -22v-856q0 -241 -125 -362.5t-362 -121.5t-362 121.5zM338 1615.5q-29 17.5 -46.5 47.5t-17.5 66 q0 35 17.5 64.5t47 46.5t63.5 17q35 0 64.5 -17t47 -46.5t17.5 -64.5q0 -36 -17.5 -66t-47 -47.5t-64.5 -17.5t-64 17.5zM763.5 1615.5q-29.5 17.5 -47 47.5t-17.5 66q0 35 17.5 64.5t47 46.5t64.5 17t64.5 -17t47 -46.5t17.5 -64.5q0 -36 -17.5 -66t-47 -47.5t-64.5 -17.5 t-64.5 17.5z" glyph-name="Udieresis" unicode="Ü" vert-adv-y="1980"/>
<glyph d="M253 91.5q-125 121.5 -125 362.5v856q0 14 8.5 22t21.5 8h201q14 0 22 -8t8 -22v-835q0 -123 57 -189t169 -66t169 66t57 189v835q0 14 8.5 22t21.5 8h201q14 0 22 -8t8 -22v-856q0 -241 -125 -362.5t-362 -121.5t-362 121.5zM526 1547q-12 0 -20 5.5t-14 18.5l-120 252 q-4 10 -4 14q0 10 7.5 15t20.5 5h168q12 0 20 -5.5t14 -18.5l120 -252q4 -10 4 -14q0 -10 -7.5 -15t-20.5 -5h-168z" glyph-name="Ugrave" unicode="Ù" vert-adv-y="1980"/>
<glyph d="M253 91.5q-125 121.5 -125 362.5v856q0 14 8.5 22t21.5 8h201q14 0 22 -8t8 -22v-835q0 -123 57 -189t169 -66t169 66t57 189v835q0 14 8.5 22t21.5 8h201q14 0 22 -8t8 -22v-856q0 -241 -125 -362.5t-362 -121.5t-362 121.5zM707 1547q-13 0 -20.5 5t-7.5 15q0 4 4 14 l120 252q6 13 14 18.5t20 5.5h168q13 0 20.5 -5t7.5 -15q0 -4 -4 -14l-120 -252q-6 -13 -14 -18.5t-20 -5.5h-168zM349 1547q-13 0 -20.5 5t-7.5 15q0 4 4 14l120 252q6 13 14 18.5t20 5.5h168q13 0 20.5 -5t7.5 -15q0 -4 -4 -14l-120 -252q-6 -13 -14 -18.5t-20 -5.5h-168z " glyph-name="Uhungarumlaut" unicode="Ű" vert-adv-y="1980"/>
<glyph d="M253 91.5q-125 121.5 -125 362.5v856q0 14 8.5 22t21.5 8h201q14 0 22 -8t8 -22v-835q0 -123 57 -189t169 -66t169 66t57 189v835q0 14 8.5 22t21.5 8h201q14 0 22 -8t8 -22v-856q0 -241 -125 -362.5t-362 -121.5t-362 121.5zM348 1660q-13 0 -21.5 8.5t-8.5 21.5v137 q0 14 8.5 22t21.5 8h534q14 0 22 -8t8 -22v-137q0 -13 -8 -21.5t-22 -8.5h-534z" glyph-name="Umacron" unicode="Ū" vert-adv-y="1980"/>
<glyph d="M1072 1340q14 0 22 -8t8 -22v-856q0 -190 -78 -306t-228 -156v-1q-80 -20 -116 -47.5t-36 -75.5q0 -46 33.5 -72.5t99.5 -26.5h46q20 0 20 -20v-116q0 -20 -20 -20h-60q-122 0 -211.5 49t-89.5 166q0 98 75 146q-200 19 -304.5 139.5t-104.5 340.5v856q0 14 8.5 22 t21.5 8h201q14 0 22 -8t8 -22v-835q0 -123 57 -189t169 -66t169 66t57 189v835q0 14 8.5 22t21.5 8h201z" glyph-name="Uogonek" unicode="Ų" vert-adv-y="1980"/>
<glyph d="M253 91.5q-125 121.5 -125 362.5v856q0 14 8.5 22t21.5 8h201q14 0 22 -8t8 -22v-835q0 -123 57 -189t169 -66t169 66t57 189v835q0 14 8.5 22t21.5 8h201q14 0 22 -8t8 -22v-856q0 -241 -125 -362.5t-362 -121.5t-362 121.5zM513.5 1490q-45.5 27 -72 72t-26.5 98 t26.5 98.5t72 72t101.5 26.5q55 0 100.5 -27t71.5 -72t26 -98q0 -52 -26 -97.5t-71.5 -72.5t-100.5 -27q-56 0 -101.5 27zM660 1615.5q19 16.5 19 42.5q0 28 -18.5 46.5t-45.5 18.5q-28 0 -46 -17t-18 -45t18 -45t46 -17q26 0 45 16.5z" glyph-name="Uring" unicode="Ů" vert-adv-y="1980"/>
<glyph d="M453 0q-12 0 -21.5 6t-13.5 18l-354 1282q-2 8 -2 12q0 10 7 16t19 6h203q29 0 34 -24l272 -1045h36l272 1045q5 24 34 24h204q26 0 26 -23q0 -3 -2 -11l-355 -1282q-4 -12 -13.5 -18t-21.5 -6h-324z" glyph-name="V" unicode="V" vert-adv-y="1980"/>
<glyph d="M1139 1340q29 0 24 -34l-151 -1282q-1 -11 -13 -17.5t-25 -6.5h-228q-13 0 -23 6.5t-11 17.5l-97 659l-97 -659q-1 -11 -11 -17.5t-23 -6.5h-228q-13 0 -25 6.5t-13 17.5l-151 1282q-2 17 3.5 25.5t20.5 8.5h181q13 0 23 -5.5t11 -18.5l90 -975l135 855q4 24 34 24h100 q30 0 34 -24l135 -855l90 975q1 13 10.5 18.5t23.5 5.5h181z" glyph-name="W" unicode="W" vert-adv-y="1980"/>
<glyph d="M1139 1340q29 0 24 -34l-151 -1282q-1 -11 -13 -17.5t-25 -6.5h-228q-13 0 -23 6.5t-11 17.5l-97 659l-97 -659q-1 -11 -11 -17.5t-23 -6.5h-228q-13 0 -25 6.5t-13 17.5l-151 1282q-2 17 3.5 25.5t20.5 8.5h181q13 0 23 -5.5t11 -18.5l90 -975l135 855q4 24 34 24h100 q30 0 34 -24l135 -855l90 975q1 13 10.5 18.5t23.5 5.5h181zM538 1547q-13 0 -20.5 5t-7.5 15q0 4 4 14l120 252q6 13 14 18.5t20 5.5h168q13 0 20.5 -5t7.5 -15q0 -4 -4 -14l-120 -252q-6 -13 -14 -18.5t-20 -5.5h-168z" glyph-name="Wacute" unicode="Ẃ" vert-adv-y="1980"/>
<glyph d="M1139 1340q29 0 24 -34l-151 -1282q-1 -11 -13 -17.5t-25 -6.5h-228q-13 0 -23 6.5t-11 17.5l-97 659l-97 -659q-1 -11 -11 -17.5t-23 -6.5h-228q-13 0 -25 6.5t-13 17.5l-151 1282q-2 17 3.5 25.5t20.5 8.5h181q13 0 23 -5.5t11 -18.5l90 -975l135 855q4 24 34 24h100 q30 0 34 -24l135 -855l90 975q1 13 10.5 18.5t23.5 5.5h181zM245 1541q-12 0 -19 4.5t-7 12.5q0 10 8 19l223 264q8 10 16 13t20 3h258q12 0 20 -3t16 -13l223 -264q8 -9 8 -19q0 -8 -7 -12.5t-19 -4.5h-193q-23 0 -36 16l-141 161l-141 -161q-13 -16 -36 -16h-193z" glyph-name="Wcircumflex" unicode="Ŵ" vert-adv-y="1980"/>
<glyph d="M1139 1340q29 0 24 -34l-151 -1282q-1 -11 -13 -17.5t-25 -6.5h-228q-13 0 -23 6.5t-11 17.5l-97 659l-97 -659q-1 -11 -11 -17.5t-23 -6.5h-228q-13 0 -25 6.5t-13 17.5l-151 1282q-2 17 3.5 25.5t20.5 8.5h181q13 0 23 -5.5t11 -18.5l90 -975l135 855q4 24 34 24h100 q30 0 34 -24l135 -855l90 975q1 13 10.5 18.5t23.5 5.5h181zM338 1615.5q-29 17.5 -46.5 47.5t-17.5 66q0 35 17.5 64.5t47 46.5t63.5 17q35 0 64.5 -17t47 -46.5t17.5 -64.5q0 -36 -17.5 -66t-47 -47.5t-64.5 -17.5t-64 17.5zM763.5 1615.5q-29.5 17.5 -47 47.5t-17.5 66 q0 35 17.5 64.5t47 46.5t64.5 17t64.5 -17t47 -46.5t17.5 -64.5q0 -36 -17.5 -66t-47 -47.5t-64.5 -17.5t-64.5 17.5z" glyph-name="Wdieresis" unicode="Ẅ" vert-adv-y="1980"/>
<glyph d="M1139 1340q29 0 24 -34l-151 -1282q-1 -11 -13 -17.5t-25 -6.5h-228q-13 0 -23 6.5t-11 17.5l-97 659l-97 -659q-1 -11 -11 -17.5t-23 -6.5h-228q-13 0 -25 6.5t-13 17.5l-151 1282q-2 17 3.5 25.5t20.5 8.5h181q13 0 23 -5.5t11 -18.5l90 -975l135 855q4 24 34 24h100 q30 0 34 -24l135 -855l90 975q1 13 10.5 18.5t23.5 5.5h181zM526 1547q-12 0 -20 5.5t-14 18.5l-120 252q-4 10 -4 14q0 10 7.5 15t20.5 5h168q12 0 20 -5.5t14 -18.5l120 -252q4 -10 4 -14q0 -10 -7.5 -15t-20.5 -5h-168z" glyph-name="Wgrave" unicode="Ẁ" vert-adv-y="1980"/>
<glyph d="M1143 36q6 -10 6 -18t-6.5 -13t-19.5 -5h-213q-25 0 -36 20l-259 430l-259 -430q-11 -20 -36 -20h-212q-13 0 -19.5 5t-6.5 13t6 18l388 645l-375 623q-6 11 -6 18q0 8 6.5 13t19.5 5h212q25 0 36 -20l246 -408l246 408q11 20 36 20h212q13 0 19.5 -5t6.5 -13 q0 -7 -6 -18l-375 -623z" glyph-name="X" unicode="X" vert-adv-y="1980"/>
<glyph d="M1141 1340q13 0 19.5 -5t6.5 -13q0 -7 -6 -18l-415 -786v-488q0 -13 -8 -21.5t-22 -8.5h-202q-13 0 -21.5 8.5t-8.5 21.5v492l-415 782q-6 11 -6 18q0 8 6.5 13t19.5 5h213q25 0 36 -20l277 -553l278 553q10 20 36 20h212z" glyph-name="Y" unicode="Y" vert-adv-y="1980"/>
<glyph d="M1141 1340q13 0 19.5 -5t6.5 -13q0 -7 -6 -18l-415 -786v-488q0 -13 -8 -21.5t-22 -8.5h-202q-13 0 -21.5 8.5t-8.5 21.5v492l-415 782q-6 11 -6 18q0 8 6.5 13t19.5 5h213q25 0 36 -20l277 -553l278 553q10 20 36 20h212zM538 1547q-13 0 -20.5 5t-7.5 15q0 4 4 14 l120 252q6 13 14 18.5t20 5.5h168q13 0 20.5 -5t7.5 -15q0 -4 -4 -14l-120 -252q-6 -13 -14 -18.5t-20 -5.5h-168z" glyph-name="Yacute" unicode="Ý" vert-adv-y="1980"/>
<glyph d="M1141 1340q13 0 19.5 -5t6.5 -13q0 -7 -6 -18l-415 -786v-488q0 -13 -8 -21.5t-22 -8.5h-202q-13 0 -21.5 8.5t-8.5 21.5v492l-415 782q-6 11 -6 18q0 8 6.5 13t19.5 5h213q25 0 36 -20l277 -553l278 553q10 20 36 20h212zM245 1541q-12 0 -19 4.5t-7 12.5q0 10 8 19 l223 264q8 10 16 13t20 3h258q12 0 20 -3t16 -13l223 -264q8 -9 8 -19q0 -8 -7 -12.5t-19 -4.5h-193q-23 0 -36 16l-141 161l-141 -161q-13 -16 -36 -16h-193z" glyph-name="Ycircumflex" unicode="Ŷ" vert-adv-y="1980"/>
<glyph d="M1141 1340q13 0 19.5 -5t6.5 -13q0 -7 -6 -18l-415 -786v-488q0 -13 -8 -21.5t-22 -8.5h-202q-13 0 -21.5 8.5t-8.5 21.5v492l-415 782q-6 11 -6 18q0 8 6.5 13t19.5 5h213q25 0 36 -20l277 -553l278 553q10 20 36 20h212zM338 1615.5q-29 17.5 -46.5 47.5t-17.5 66 q0 35 17.5 64.5t47 46.5t63.5 17q35 0 64.5 -17t47 -46.5t17.5 -64.5q0 -36 -17.5 -66t-47 -47.5t-64.5 -17.5t-64 17.5zM763.5 1615.5q-29.5 17.5 -47 47.5t-17.5 66q0 35 17.5 64.5t47 46.5t64.5 17t64.5 -17t47 -46.5t17.5 -64.5q0 -36 -17.5 -66t-47 -47.5t-64.5 -17.5 t-64.5 17.5z" glyph-name="Ydieresis" unicode="Ÿ" vert-adv-y="1980"/>
<glyph d="M1141 1340q13 0 19.5 -5t6.5 -13q0 -7 -6 -18l-415 -786v-488q0 -13 -8 -21.5t-22 -8.5h-202q-13 0 -21.5 8.5t-8.5 21.5v492l-415 782q-6 11 -6 18q0 8 6.5 13t19.5 5h213q25 0 36 -20l277 -553l278 553q10 20 36 20h212zM526 1547q-12 0 -20 5.5t-14 18.5l-120 252 q-4 10 -4 14q0 10 7.5 15t20.5 5h168q12 0 20 -5.5t14 -18.5l120 -252q4 -10 4 -14q0 -10 -7.5 -15t-20.5 -5h-168z" glyph-name="Ygrave" unicode="Ỳ" vert-adv-y="1980"/>
<glyph d="M157 0q-13 0 -21.5 8.5t-8.5 21.5v182q0 20 12 36l660 860h-622q-13 0 -21.5 8.5t-8.5 21.5v172q0 14 8.5 22t21.5 8h877q14 0 22 -8t8 -22v-182q0 -18 -12 -36l-661 -860h663q14 0 22 -8t8 -22v-172q0 -13 -8 -21.5t-22 -8.5h-917z" glyph-name="Z" unicode="Z" vert-adv-y="1980"/>
<glyph d="M157 0q-13 0 -21.5 8.5t-8.5 21.5v182q0 20 12 36l660 860h-622q-13 0 -21.5 8.5t-8.5 21.5v172q0 14 8.5 22t21.5 8h877q14 0 22 -8t8 -22v-182q0 -18 -12 -36l-661 -860h663q14 0 22 -8t8 -22v-172q0 -13 -8 -21.5t-22 -8.5h-917zM538 1547q-13 0 -20.5 5t-7.5 15 q0 4 4 14l120 252q6 13 14 18.5t20 5.5h168q13 0 20.5 -5t7.5 -15q0 -4 -4 -14l-120 -252q-6 -13 -14 -18.5t-20 -5.5h-168z" glyph-name="Zacute" unicode="Ź" vert-adv-y="1980"/>
<glyph d="M157 0q-13 0 -21.5 8.5t-8.5 21.5v182q0 20 12 36l660 860h-622q-13 0 -21.5 8.5t-8.5 21.5v172q0 14 8.5 22t21.5 8h877q14 0 22 -8t8 -22v-182q0 -18 -12 -36l-661 -860h663q14 0 22 -8t8 -22v-172q0 -13 -8 -21.5t-22 -8.5h-917zM486 1541q-11 0 -19 3.5t-17 12.5 l-223 264q-8 9 -8 19q0 8 7 12.5t19 4.5h193q23 0 36 -16l141 -160l141 160q13 16 36 16h193q12 0 19 -4.5t7 -12.5q0 -10 -8 -19l-223 -264q-9 -9 -17 -12.5t-19 -3.5h-258z" glyph-name="Zcaron" unicode="Ž" vert-adv-y="1980"/>
<glyph d="M157 0q-13 0 -21.5 8.5t-8.5 21.5v182q0 20 12 36l660 860h-622q-13 0 -21.5 8.5t-8.5 21.5v172q0 14 8.5 22t21.5 8h877q14 0 22 -8t8 -22v-182q0 -18 -12 -36l-661 -860h663q14 0 22 -8t8 -22v-172q0 -13 -8 -21.5t-22 -8.5h-917zM550.5 1615.5q-29.5 17.5 -47 47.5 t-17.5 66q0 35 17.5 64.5t47 46.5t64.5 17t64.5 -17t47 -46.5t17.5 -64.5q0 -36 -17.5 -66t-47 -47.5t-64.5 -17.5t-64.5 17.5z" glyph-name="Zdotaccent" unicode="Ż" vert-adv-y="1980"/>
<glyph d="M1291 34q2 -8 2 -12q0 -10 -7 -16t-19 -6h-209q-26 0 -34 24l-72 228h-551l-73 -228q-8 -24 -34 -24h-208q-12 0 -19 6t-7 16q0 4 2 12l418 1282q8 24 34 24h325q27 0 34 -24zM661 1070l-189 -594h409l-189 594h-31z" glyph-name="A.ss05" horiz-adv-x="1353" vert-adv-y="1980"/>
<glyph d="M437 65q-158 91 -247.5 250t-89.5 355q0 195 89.5 353t247.5 248t357 90q143 0 264 -46.5t208.5 -134t132.5 -208.5q2 -5 2 -13q0 -19 -20 -28l-165 -72q-7 -3 -15 -3q-18 0 -27 20q-45 108 -146 170.5t-232 62.5q-125 0 -224 -57.5t-154.5 -158t-55.5 -223.5 q0 -124 55.5 -225.5t153.5 -160t221 -58.5q134 0 235 69.5t147 190.5q8 20 26 20q7 0 14 -3l168 -74q20 -9 20 -25q0 -6 -3 -14q-45 -129 -132 -222.5t-208.5 -143.5t-265.5 -50q-198 0 -356 91z" glyph-name="C.ss05" horiz-adv-x="1517" vert-adv-y="1980"/>
<glyph d="M1032 1255q156 -85 234.5 -236.5t78.5 -348.5t-78.5 -348.5t-234.5 -236.5t-382 -85h-470q-13 0 -21.5 8.5t-8.5 21.5v1280q0 14 8.5 22t21.5 8h470q226 0 382 -85zM640 232q219 0 331 114t112 324t-112 324t-331 114h-229v-876h229z" glyph-name="D.ss05" horiz-adv-x="1445" vert-adv-y="1980"/>
<glyph d="M1412 764q14 0 22 -8t8 -22v-103q0 -183 -78.5 -332.5t-225.5 -237t-344 -87.5q-198 0 -356.5 91.5t-248 250.5t-89.5 354q0 196 89.5 353.5t247.5 247.5t356 90q290 0 502 -210q11 -11 11 -22q0 -10 -10 -20l-135 -125q-12 -10 -22 -10q-9 0 -20 9q-144 126 -325 126 q-126 0 -224.5 -57.5t-153 -157.5t-54.5 -224t55.5 -225.5t156 -160.5t231.5 -59q114 0 200 44t132.5 119t49.5 165h-388q-13 0 -21.5 8.5t-8.5 21.5v151q0 14 8.5 22t21.5 8h613z" glyph-name="G.ss05" horiz-adv-x="1542" vert-adv-y="1980"/>
<glyph d="M1231 1340q14 0 22 -8t8 -22v-1280q0 -13 -8 -21.5t-22 -8.5h-201q-13 0 -21.5 8.5t-8.5 21.5v513h-589v-513q0 -13 -8 -21.5t-22 -8.5h-201q-13 0 -21.5 8.5t-8.5 21.5v1280q0 14 8.5 22t21.5 8h201q14 0 22 -8t8 -22v-535h589v535q0 14 8.5 22t21.5 8h201z" glyph-name="H.ss05" horiz-adv-x="1411" vert-adv-y="1980"/>
<glyph d="M180 0q-13 0 -21.5 8.5t-8.5 21.5v1280q0 14 8.5 22t21.5 8h201q14 0 22 -8t8 -22v-1078h626q14 0 22 -8t8 -22v-172q0 -13 -8 -21.5t-22 -8.5h-857z" glyph-name="L.ss05" horiz-adv-x="1197" vert-adv-y="1980"/>
<glyph d="M1601 1332q8 -8 8 -22v-1280q0 -13 -8 -21.5t-22 -8.5h-201q-13 0 -21.5 8.5t-8.5 21.5v794l-341 -800q-10 -24 -36 -24h-184q-25 0 -36 24l-340 799v-793q0 -13 -8 -21.5t-22 -8.5h-201q-13 0 -21.5 8.5t-8.5 21.5v1280q0 14 8.5 22t21.5 8h233q27 0 36 -20l430 -1020 l430 1020q9 20 36 20h234q14 0 22 -8z" glyph-name="M.ss05" horiz-adv-x="1759" vert-adv-y="1980"/>
<glyph d="M1220 1340q14 0 22 -8t8 -22v-1280q0 -13 -8 -21.5t-22 -8.5h-239q-25 0 -36 20l-560 980v-970q0 -13 -8 -21.5t-22 -8.5h-175q-13 0 -21.5 8.5t-8.5 21.5v1280q0 14 8.5 22t21.5 8h238q25 0 36 -20l561 -982v972q0 14 8.5 22t21.5 8h175z" glyph-name="N.ss05" horiz-adv-x="1400" vert-adv-y="1980"/>
<glyph d="M443 65.5q-160 91.5 -251.5 250t-91.5 350.5q0 193 91.5 352t251.5 250.5t356 91.5q195 0 355 -91.5t251.5 -250.5t91.5 -352q0 -192 -91.5 -350.5t-251.5 -250t-355 -91.5q-196 0 -356 91.5zM1022.5 282.5q99.5 57.5 156 158.5t56.5 225q0 125 -56.5 226t-156 159 t-223.5 58q-125 0 -224.5 -58t-156 -159t-56.5 -226t56.5 -225.5t156 -158t224.5 -57.5q124 0 223.5 57.5z" glyph-name="O.ss05" horiz-adv-x="1597" vert-adv-y="1980"/>
<glyph d="M649 1340q252 0 369.5 -115.5t117.5 -334.5q0 -450 -487 -450h-237v-410q0 -13 -8 -21.5t-22 -8.5h-201q-13 0 -21.5 8.5t-8.5 21.5v1280q0 14 8.5 22t21.5 8h468zM635 672q126 0 188 49.5t62 168.5q0 120 -62 169t-188 49h-223v-436h223z" glyph-name="P.ss05" horiz-adv-x="1275" vert-adv-y="1980"/>
<glyph d="M443 65.5q-160 91.5 -251.5 250t-91.5 350.5q0 193 91.5 352t251.5 250.5t356 91.5q195 0 355 -91.5t251.5 -250.5t91.5 -352q0 -192 -91.5 -350.5t-251.5 -250t-355 -91.5q-196 0 -356 91.5zM1022.5 282.5q99.5 57.5 156 158.5t56.5 225q0 125 -56.5 226t-156 159 t-223.5 58q-125 0 -224.5 -58t-156 -159t-56.5 -226t56.5 -225.5t156 -158t224.5 -57.5q124 0 223.5 57.5zM1101 -371q-63 0 -109.5 11t-111.5 34q-66 24 -117 36t-121 12q-32 0 -32 28v143q0 14 8 23t24 9q73 1 126 -11t119 -35q67 -23 118.5 -34.5t123.5 -11.5 q32 0 32 -28v-143q0 -14 -7.5 -22.5t-22.5 -9.5z" glyph-name="Q.ss05" horiz-adv-x="1597" vert-adv-y="1980"/>
<glyph d="M1125 35q4 -8 4 -16q0 -19 -26 -19h-199q-13 0 -21 5.5t-14 17.5l-211 417h-9h-237v-410q0 -13 -8 -21.5t-22 -8.5h-201q-13 0 -21.5 8.5t-8.5 21.5v1280q0 14 8.5 22t21.5 8h468q252 0 369.5 -115.5t117.5 -334.5q0 -314 -238 -409zM412 1108v-436h223q126 0 188 49.5 t62 168.5q0 120 -62 169t-188 49h-223z" glyph-name="R.ss05" horiz-adv-x="1275" vert-adv-y="1980"/>
<glyph d="M1130 1340q14 0 22 -8t8 -22v-172q0 -13 -8 -21.5t-22 -8.5h-374v-1078q0 -13 -8 -21.5t-22 -8.5h-202q-13 0 -21.5 8.5t-8.5 21.5v1078h-374q-13 0 -21.5 8.5t-8.5 21.5v172q0 14 8.5 22t21.5 8h1010z" glyph-name="T.ss05" horiz-adv-x="1250" vert-adv-y="1980"/>
<glyph d="M401.5 32q-125.5 62 -193.5 180.5t-68 285.5v812q0 14 8.5 22t21.5 8h201q14 0 22 -8t8 -22v-783q0 -92 34.5 -161t101 -107.5t160.5 -38.5t160.5 38.5t101 107.5t34.5 161v783q0 14 8.5 22t21.5 8h201q14 0 22 -8t8 -22v-812q0 -167 -68 -285.5t-193.5 -180.5 t-295.5 -62t-295.5 62z" glyph-name="U.ss05" horiz-adv-x="1394" vert-adv-y="1980"/>
<glyph d="M519 0q-26 0 -34 24l-418 1282q-2 8 -2 12q0 10 7 16t19 6h208q26 0 34 -24l333 -1045h31l332 1045q8 24 34 24h209q12 0 19 -6t7 -16q0 -4 -2 -12l-418 -1282q-7 -24 -34 -24h-325z" glyph-name="V.ss05" horiz-adv-x="1363" vert-adv-y="1980"/>
<glyph d="M1672 1340q25 0 25 -23q0 -7 -1 -11l-270 -1282q-2 -11 -12 -17.5t-23 -6.5h-249q-13 0 -23 6.5t-12 17.5l-211 949l-211 -949q-3 -12 -12.5 -18t-22.5 -6h-249q-13 0 -23 6.5t-12 17.5l-270 1282q-1 4 -1 11q0 23 25 23h187q29 0 34 -24l207 -975l223 975q5 24 34 24 h191q29 0 34 -24l214 -975l208 975q5 24 34 24h186z" glyph-name="W.ss05" horiz-adv-x="1792" vert-adv-y="1980"/>
<glyph d="M1143 36q6 -10 6 -18t-6.5 -13t-19.5 -5h-213q-25 0 -36 20l-259 430l-259 -430q-11 -20 -36 -20h-212q-13 0 -19.5 5t-6.5 13t6 18l388 645l-375 623q-6 11 -6 18q0 8 6.5 13t19.5 5h212q25 0 36 -20l246 -408l246 408q11 20 36 20h212q13 0 19.5 -5t6.5 -13 q0 -7 -6 -18l-375 -623z" glyph-name="X.ss05" vert-adv-y="1980"/>
<glyph d="M1141 1340q13 0 19.5 -5t6.5 -13q0 -7 -6 -18l-415 -786v-488q0 -13 -8 -21.5t-22 -8.5h-202q-13 0 -21.5 8.5t-8.5 21.5v492l-415 782q-6 11 -6 18q0 8 6.5 13t19.5 5h213q25 0 36 -20l277 -553l278 553q10 20 36 20h212z" glyph-name="Y.ss05" vert-adv-y="1980"/>
<glyph d="M1118.5 143q8.5 -13 8.5 -39v-34q0 -47 -33 -66t-82 -19q-78 0 -129.5 44.5t-51.5 130.5v21h-16q-30 -87 -114 -146.5t-218 -59.5h-50q-148 0 -233 77.5t-85 218.5q0 129 76.5 203t235.5 84l377 25v53q0 67 -18.5 103.5t-61.5 52t-121 15.5q-97 0 -144.5 -24t-55.5 -82 q-3 -21 -28 -21h-182q-14 0 -22 7.5t-7 22.5q7 300 445 300q164 0 261 -42t139 -126t42 -215v-338q0 -56 8.5 -79t28.5 -38q22 -16 30.5 -29zM551 167q66 0 124 21.5t93.5 66.5t35.5 111v59l-315 -23q-129 -10 -129 -115q0 -120 161 -120h30z" glyph-name="a" unicode="a" vert-adv-y="1980"/>
<glyph d="M1118.5 143q8.5 -13 8.5 -39v-34q0 -47 -33 -66t-82 -19q-78 0 -129.5 44.5t-51.5 130.5v21h-16q-30 -87 -114 -146.5t-218 -59.5h-50q-148 0 -233 77.5t-85 218.5q0 129 76.5 203t235.5 84l377 25v53q0 67 -18.5 103.5t-61.5 52t-121 15.5q-97 0 -144.5 -24t-55.5 -82 q-3 -21 -28 -21h-182q-14 0 -22 7.5t-7 22.5q7 300 445 300q164 0 261 -42t139 -126t42 -215v-338q0 -56 8.5 -79t28.5 -38q22 -16 30.5 -29zM551 167q66 0 124 21.5t93.5 66.5t35.5 111v59l-315 -23q-129 -10 -129 -115q0 -120 161 -120h30zM547 1197q-13 0 -20.5 5 t-7.5 15q0 4 4 14l120 252q6 13 14 18.5t20 5.5h168q13 0 20.5 -5t7.5 -15q0 -4 -4 -14l-120 -252q-6 -13 -14 -18.5t-20 -5.5h-168z" glyph-name="aacute" unicode="á" vert-adv-y="1980"/>
<glyph d="M1118.5 143q8.5 -13 8.5 -39v-34q0 -47 -33 -66t-82 -19q-78 0 -129.5 44.5t-51.5 130.5v21h-16q-30 -87 -114 -146.5t-218 -59.5h-50q-148 0 -233 77.5t-85 218.5q0 129 76.5 203t235.5 84l377 25v53q0 67 -18.5 103.5t-61.5 52t-121 15.5q-97 0 -144.5 -24t-55.5 -82 q-3 -21 -28 -21h-182q-14 0 -22 7.5t-7 22.5q7 300 445 300q164 0 261 -42t139 -126t42 -215v-338q0 -56 8.5 -79t28.5 -38q22 -16 30.5 -29zM551 167q66 0 124 21.5t93.5 66.5t35.5 111v59l-315 -23q-129 -10 -129 -115q0 -120 161 -120h30zM459 1230.5 q-71 37.5 -111 101.5t-48 144q-3 31 29 31h105q26 0 32 -29q12 -50 53 -85.5t105 -35.5t105.5 35.5t52.5 85.5q6 29 32 29h105q33 0 30 -31q-8 -80 -48.5 -144t-111.5 -101.5t-165 -37.5t-165 37.5z" glyph-name="abreve" unicode="ă" vert-adv-y="1980"/>
<glyph d="M1118.5 143q8.5 -13 8.5 -39v-34q0 -47 -33 -66t-82 -19q-78 0 -129.5 44.5t-51.5 130.5v21h-16q-30 -87 -114 -146.5t-218 -59.5h-50q-148 0 -233 77.5t-85 218.5q0 129 76.5 203t235.5 84l377 25v53q0 67 -18.5 103.5t-61.5 52t-121 15.5q-97 0 -144.5 -24t-55.5 -82 q-3 -21 -28 -21h-182q-14 0 -22 7.5t-7 22.5q7 300 445 300q164 0 261 -42t139 -126t42 -215v-338q0 -56 8.5 -79t28.5 -38q22 -16 30.5 -29zM551 167q66 0 124 21.5t93.5 66.5t35.5 111v59l-315 -23q-129 -10 -129 -115q0 -120 161 -120h30zM495 1191q-11 0 -19 3.5 t-17 12.5l-223 264q-8 9 -8 19q0 8 7 12.5t19 4.5h193q23 0 36 -16l141 -160l141 160q13 16 36 16h193q12 0 19 -4.5t7 -12.5q0 -10 -8 -19l-223 -264q-9 -9 -17 -12.5t-19 -3.5h-258z" glyph-name="uni01CE" unicode="ǎ" vert-adv-y="1980"/>
<glyph d="M1118.5 143q8.5 -13 8.5 -39v-34q0 -47 -33 -66t-82 -19q-78 0 -129.5 44.5t-51.5 130.5v21h-16q-30 -87 -114 -146.5t-218 -59.5h-50q-148 0 -233 77.5t-85 218.5q0 129 76.5 203t235.5 84l377 25v53q0 67 -18.5 103.5t-61.5 52t-121 15.5q-97 0 -144.5 -24t-55.5 -82 q-3 -21 -28 -21h-182q-14 0 -22 7.5t-7 22.5q7 300 445 300q164 0 261 -42t139 -126t42 -215v-338q0 -56 8.5 -79t28.5 -38q22 -16 30.5 -29zM551 167q66 0 124 21.5t93.5 66.5t35.5 111v59l-315 -23q-129 -10 -129 -115q0 -120 161 -120h30zM254 1191q-12 0 -19 4.5 t-7 12.5q0 10 8 19l223 264q8 10 16 13t20 3h258q12 0 20 -3t16 -13l223 -264q8 -9 8 -19q0 -8 -7 -12.5t-19 -4.5h-193q-23 0 -36 16l-141 161l-141 -161q-13 -16 -36 -16h-193z" glyph-name="acircumflex" unicode="â" vert-adv-y="1980"/>
<glyph d="M1118.5 143q8.5 -13 8.5 -39v-34q0 -47 -33 -66t-82 -19q-78 0 -129.5 44.5t-51.5 130.5v21h-16q-30 -87 -114 -146.5t-218 -59.5h-50q-148 0 -233 77.5t-85 218.5q0 129 76.5 203t235.5 84l377 25v53q0 67 -18.5 103.5t-61.5 52t-121 15.5q-97 0 -144.5 -24t-55.5 -82 q-3 -21 -28 -21h-182q-14 0 -22 7.5t-7 22.5q7 300 445 300q164 0 261 -42t139 -126t42 -215v-338q0 -56 8.5 -79t28.5 -38q22 -16 30.5 -29zM551 167q66 0 124 21.5t93.5 66.5t35.5 111v59l-315 -23q-129 -10 -129 -115q0 -120 161 -120h30zM347 1265.5 q-29 17.5 -46.5 47.5t-17.5 66q0 35 17.5 64.5t47 46.5t63.5 17q35 0 64.5 -17t47 -46.5t17.5 -64.5q0 -36 -17.5 -66t-47 -47.5t-64.5 -17.5t-64 17.5zM772.5 1265.5q-29.5 17.5 -47 47.5t-17.5 66q0 35 17.5 64.5t47 46.5t64.5 17t64.5 -17t47 -46.5t17.5 -64.5 q0 -36 -17.5 -66t-47 -47.5t-64.5 -17.5t-64.5 17.5z" glyph-name="adieresis" unicode="ä" vert-adv-y="1980"/>
<glyph d="M1118.5 143q8.5 -13 8.5 -39v-34q0 -47 -33 -66t-82 -19q-78 0 -129.5 44.5t-51.5 130.5v21h-16q-30 -87 -114 -146.5t-218 -59.5h-50q-148 0 -233 77.5t-85 218.5q0 129 76.5 203t235.5 84l377 25v53q0 67 -18.5 103.5t-61.5 52t-121 15.5q-97 0 -144.5 -24t-55.5 -82 q-3 -21 -28 -21h-182q-14 0 -22 7.5t-7 22.5q7 300 445 300q164 0 261 -42t139 -126t42 -215v-338q0 -56 8.5 -79t28.5 -38q22 -16 30.5 -29zM551 167q66 0 124 21.5t93.5 66.5t35.5 111v59l-315 -23q-129 -10 -129 -115q0 -120 161 -120h30zM535 1197q-12 0 -20 5.5 t-14 18.5l-120 252q-4 10 -4 14q0 10 7.5 15t20.5 5h168q12 0 20 -5.5t14 -18.5l120 -252q4 -10 4 -14q0 -10 -7.5 -15t-20.5 -5h-168z" glyph-name="agrave" unicode="à" vert-adv-y="1980"/>
<glyph d="M1118.5 143q8.5 -13 8.5 -39v-34q0 -47 -33 -66t-82 -19q-78 0 -129.5 44.5t-51.5 130.5v21h-16q-30 -87 -114 -146.5t-218 -59.5h-50q-148 0 -233 77.5t-85 218.5q0 129 76.5 203t235.5 84l377 25v53q0 67 -18.5 103.5t-61.5 52t-121 15.5q-97 0 -144.5 -24t-55.5 -82 q-3 -21 -28 -21h-182q-14 0 -22 7.5t-7 22.5q7 300 445 300q164 0 261 -42t139 -126t42 -215v-338q0 -56 8.5 -79t28.5 -38q22 -16 30.5 -29zM551 167q66 0 124 21.5t93.5 66.5t35.5 111v59l-315 -23q-129 -10 -129 -115q0 -120 161 -120h30zM357 1310q-13 0 -21.5 8.5 t-8.5 21.5v137q0 14 8.5 22t21.5 8h534q14 0 22 -8t8 -22v-137q0 -13 -8 -21.5t-22 -8.5h-534z" glyph-name="amacron" unicode="ā" vert-adv-y="1980"/>
<glyph d="M1118.5 143q8.5 -13 8.5 -39v-34q0 -43 -28.5 -62.5t-72.5 -22.5q-87 0 -129.5 -30.5t-42.5 -80.5q0 -49 37 -77t104 -28h38q20 0 20 -20v-116q0 -20 -20 -20h-60q-123 0 -212 51.5t-89 175.5q0 168 186 219q-27 41 -27 101v21h-16q-30 -87 -114 -146.5t-218 -59.5h-50 q-148 0 -233 77.5t-85 218.5q0 129 76.5 203t235.5 84l377 25v53q0 67 -18.5 103.5t-61.5 52t-121 15.5q-97 0 -144.5 -24t-55.5 -82q-3 -21 -28 -21h-182q-14 0 -22 7.5t-7 22.5q7 300 445 300q164 0 261 -42t139 -126t42 -215v-338q0 -56 8.5 -79t28.5 -38 q22 -16 30.5 -29zM551 167q66 0 124 21.5t93.5 66.5t35.5 111v59l-315 -23q-129 -10 -129 -115q0 -120 161 -120h30z" glyph-name="aogonek" unicode="ą" vert-adv-y="1980"/>
<glyph d="M1118.5 143q8.5 -13 8.5 -39v-34q0 -47 -33 -66t-82 -19q-78 0 -129.5 44.5t-51.5 130.5v21h-16q-30 -87 -114 -146.5t-218 -59.5h-50q-148 0 -233 77.5t-85 218.5q0 129 76.5 203t235.5 84l377 25v53q0 67 -18.5 103.5t-61.5 52t-121 15.5q-97 0 -144.5 -24t-55.5 -82 q-3 -21 -28 -21h-182q-14 0 -22 7.5t-7 22.5q7 300 445 300q164 0 261 -42t139 -126t42 -215v-338q0 -56 8.5 -79t28.5 -38q22 -16 30.5 -29zM551 167q66 0 124 21.5t93.5 66.5t35.5 111v59l-315 -23q-129 -10 -129 -115q0 -120 161 -120h30zM523.5 1140q-45.5 27 -72 72 t-26.5 98t26.5 98.5t72 72t101.5 26.5q55 0 100.5 -27t71.5 -72t26 -98q0 -52 -26 -97.5t-71.5 -72.5t-100.5 -27q-56 0 -101.5 27zM670 1265.5q19 16.5 19 42.5q0 28 -18.5 46.5t-45.5 18.5q-28 0 -46 -17t-18 -45t18 -45t46 -17q26 0 45 16.5z" glyph-name="aring" unicode="å" vert-adv-y="1980"/>
<glyph d="M1118.5 143q8.5 -13 8.5 -39v-34q0 -47 -33 -66t-82 -19q-78 0 -129.5 44.5t-51.5 130.5v21h-16q-30 -87 -114 -146.5t-218 -59.5h-50q-148 0 -233 77.5t-85 218.5q0 129 76.5 203t235.5 84l377 25v53q0 67 -18.5 103.5t-61.5 52t-121 15.5q-97 0 -144.5 -24t-55.5 -82 q-3 -21 -28 -21h-182q-14 0 -22 7.5t-7 22.5q7 300 445 300q164 0 261 -42t139 -126t42 -215v-338q0 -56 8.5 -79t28.5 -38q22 -16 30.5 -29zM551 167q66 0 124 21.5t93.5 66.5t35.5 111v59l-315 -23q-129 -10 -129 -115q0 -120 161 -120h30zM692.5 1239.5 q-41.5 21.5 -92.5 61.5q-40 32 -68 47.5t-62 15.5q-36 0 -59 -17.5t-33 -41.5q-6 -17 -22 -17h-94q-8 0 -13.5 6.5t-5.5 16.5q0 67 30 112t78 66.5t103 21.5q61 0 103.5 -21.5t92.5 -62.5q41 -32 68 -47t61 -15q36 0 59 17.5t33 42.5q6 16 22 16h94q10 0 15.5 -5.5 t5.5 -14.5q-1 -68 -31.5 -114t-79 -67.5t-103.5 -21.5q-60 0 -101.5 21.5z" glyph-name="atilde" unicode="ã" vert-adv-y="1980"/>
<glyph d="M994.5 188q39.5 18 79.5 55l100 -120q-104 -149 -288 -149q-193 0 -277 164q-52 -80 -124 -122t-160 -42q-79 0 -142.5 33.5t-100.5 101t-37 165.5q0 131 70.5 211t219.5 80h191v85q0 86 -33 123.5t-101 37.5q-59 0 -91.5 -27.5t-36.5 -88.5q-2 -24 -27 -24h-122 q-14 0 -22.5 8.5t-7.5 23.5q6 164 86 236.5t222 72.5q95 0 154 -30.5t90 -92.5q83 123 233 123q167 0 241 -137t74 -366q0 -42 -6.5 -63t-25.5 -30t-58 -9h-393q9 -115 55 -176t146 -61q52 0 91.5 18zM746 748.5q-37 -62.5 -45 -183.5h299q0 124 -33 185t-107 61 q-77 0 -114 -62.5zM526 407h-156q-70 0 -99.5 -32t-29.5 -83q0 -52 29 -83t89 -31q53 0 98 26.5t69 87.5v115z" glyph-name="ae" unicode="æ" vert-adv-y="1980"/>
<glyph d="M920 943q108 -67 165.5 -185t57.5 -269q0 -145 -52.5 -262.5t-149.5 -184.5t-225 -67q-121 0 -204 59t-116 152h-25l-15 -156q-3 -30 -29 -30h-168q-13 0 -21.5 8.5t-8.5 21.5v1340q0 14 8.5 22t21.5 8h192q14 0 22 -8t8 -22v-478q42 53 112.5 85.5t173.5 32.5 q145 0 253 -67zM771.5 243q59.5 35 92.5 99.5t33 150.5t-33 150.5t-92.5 99t-138.5 34.5t-138.5 -34.5t-92 -98.5t-32.5 -151t32.5 -151t92 -99t138.5 -35t138.5 35z" glyph-name="b" unicode="b" vert-adv-y="1980"/>
<glyph d="M885 322q11 14 23 14q8 0 17 -6l134 -91q15 -10 15 -23q0 -8 -6 -17q-65 -103 -175 -163.5t-249 -60.5q-146 0 -264 67t-185.5 185t-67.5 266t67.5 266t185.5 184.5t264 66.5q139 0 249 -60.5t175 -163.5q6 -9 6 -17q0 -13 -16 -24l-133 -90q-9 -6 -17 -6q-12 0 -23 14 q-89 113 -233 113q-80 0 -143.5 -35.5t-100 -100t-36.5 -147.5t36.5 -148t100 -100.5t143.5 -35.5q144 0 233 113z" glyph-name="c" unicode="c" vert-adv-y="1980"/>
<glyph d="M885 322q11 14 23 14q8 0 17 -6l134 -91q15 -10 15 -23q0 -8 -6 -17q-65 -103 -175 -163.5t-249 -60.5q-146 0 -264 67t-185.5 185t-67.5 266t67.5 266t185.5 184.5t264 66.5q139 0 249 -60.5t175 -163.5q6 -9 6 -17q0 -13 -16 -24l-133 -90q-9 -6 -17 -6q-12 0 -23 14 q-89 113 -233 113q-80 0 -143.5 -35.5t-100 -100t-36.5 -147.5t36.5 -148t100 -100.5t143.5 -35.5q144 0 233 113zM580 1197q-13 0 -20.5 5t-7.5 15q0 4 4 14l120 252q6 13 14 18.5t20 5.5h168q13 0 20.5 -5t7.5 -15q0 -4 -4 -14l-120 -252q-6 -13 -14 -18.5t-20 -5.5h-168z " glyph-name="cacute" unicode="ć" vert-adv-y="1980"/>
<glyph d="M885 322q11 14 23 14q8 0 17 -6l134 -91q15 -10 15 -23q0 -8 -6 -17q-65 -103 -175 -163.5t-249 -60.5q-146 0 -264 67t-185.5 185t-67.5 266t67.5 266t185.5 184.5t264 66.5q139 0 249 -60.5t175 -163.5q6 -9 6 -17q0 -13 -16 -24l-133 -90q-9 -6 -17 -6q-12 0 -23 14 q-89 113 -233 113q-80 0 -143.5 -35.5t-100 -100t-36.5 -147.5t36.5 -148t100 -100.5t143.5 -35.5q144 0 233 113zM528 1191q-11 0 -19 3.5t-17 12.5l-223 264q-8 9 -8 19q0 8 7 12.5t19 4.5h193q23 0 36 -16l141 -160l141 160q13 16 36 16h193q12 0 19 -4.5t7 -12.5 q0 -10 -8 -19l-223 -264q-9 -9 -17 -12.5t-19 -3.5h-258z" glyph-name="ccaron" unicode="č" vert-adv-y="1980"/>
<glyph d="M1059 239q15 -10 15 -23q0 -8 -6 -17q-54 -86 -141 -143t-197 -75l-55 -50q46 -4 86.5 -24t65.5 -55.5t25 -83.5q0 -104 -74 -155.5t-187 -51.5q-45 0 -84 7q-18 3 -18 22v88q0 9 6 15t16 5q35 -5 58 -5q52 0 81 17t29 46q0 22 -25.5 38.5t-63.5 16.5q-37 0 -77 -17 q-4 -2 -10 -2q-14 0 -14 16v91q0 14 10 24l60 58q-125 18 -223.5 88.5t-153.5 180.5t-55 243q0 148 67.5 266t185.5 184.5t264 66.5q139 0 249 -60.5t175 -163.5q6 -9 6 -17q0 -13 -16 -24l-133 -90q-9 -6 -17 -6q-12 0 -23 14q-89 113 -233 113q-80 0 -143.5 -35.5 t-100 -100t-36.5 -147.5t36.5 -148t100 -100.5t143.5 -35.5q144 0 233 113q11 14 23 14q8 0 17 -6z" glyph-name="ccedilla" unicode="ç" vert-adv-y="1980"/>
<glyph d="M885 322q11 14 23 14q8 0 17 -6l134 -91q15 -10 15 -23q0 -8 -6 -17q-65 -103 -175 -163.5t-249 -60.5q-146 0 -264 67t-185.5 185t-67.5 266t67.5 266t185.5 184.5t264 66.5q139 0 249 -60.5t175 -163.5q6 -9 6 -17q0 -13 -16 -24l-133 -90q-9 -6 -17 -6q-12 0 -23 14 q-89 113 -233 113q-80 0 -143.5 -35.5t-100 -100t-36.5 -147.5t36.5 -148t100 -100.5t143.5 -35.5q144 0 233 113zM592.5 1265.5q-29.5 17.5 -47 47.5t-17.5 66q0 35 17.5 64.5t47 46.5t64.5 17t64.5 -17t47 -46.5t17.5 -64.5q0 -36 -17.5 -66t-47 -47.5t-64.5 -17.5 t-64.5 17.5z" glyph-name="cdotaccent" unicode="ċ" vert-adv-y="1980"/>
<glyph d="M1071 1400q14 0 22 -8t8 -22v-1340q0 -13 -8 -21.5t-22 -8.5h-168q-26 0 -29 30l-15 156h-25q-33 -93 -116 -152t-204 -59q-128 0 -225 67t-149.5 184.5t-52.5 262.5q0 151 57.5 269t165.5 185t253 67q103 0 173.5 -32.5t112.5 -85.5v478q0 14 8.5 22t21.5 8h192z M735.5 243q59.5 35 92 99t32.5 151t-32.5 151t-92 98.5t-138.5 34.5t-138.5 -34.5t-92.5 -99t-33 -150.5t33 -150.5t92.5 -99.5t138.5 -35t138.5 35z" glyph-name="d" unicode="d" vert-adv-y="1980"/>
<glyph d="M1172 1280q15 2 23.5 -5.5t8.5 -22.5v-76q0 -28 -28 -31l-75 -8v-1107q0 -13 -8 -21.5t-22 -8.5h-168q-26 0 -29 30l-15 156h-25q-33 -93 -116 -152t-204 -59q-128 0 -225 67t-149.5 184.5t-52.5 262.5q0 151 57.5 269t165.5 185t253 67q103 0 173.5 -32.5t112.5 -85.5 v218l-173 -19q-15 -2 -23.5 5t-8.5 22v76q0 14 7.5 22.5t20.5 9.5l177 19v125q0 14 8.5 22t21.5 8h192q14 0 22 -8t8 -22v-98zM735.5 243q59.5 35 92 99t32.5 151t-32.5 151t-92 98.5t-138.5 34.5t-138.5 -34.5t-92.5 -99t-33 -150.5t33 -150.5t92.5 -99.5t138.5 -35 t138.5 35z" glyph-name="eth" unicode="ð" vert-adv-y="1980"/>
<glyph d="M1071 1400q14 0 22 -8t8 -22v-1340q0 -13 -8 -21.5t-22 -8.5h-168q-26 0 -29 30l-15 156h-25q-33 -93 -116 -152t-204 -59q-128 0 -225 67t-149.5 184.5t-52.5 262.5q0 151 57.5 269t165.5 185t253 67q103 0 173.5 -32.5t112.5 -85.5v478q0 14 8.5 22t21.5 8h192z M735.5 243q59.5 35 92 99t32.5 151t-32.5 151t-92 98.5t-138.5 34.5t-138.5 -34.5t-92.5 -99t-33 -150.5t33 -150.5t92.5 -99.5t138.5 -35t138.5 35zM1253 1341q-13 0 -20.5 5t-7.5 15q0 4 4 14l120 252q6 13 14 18.5t20 5.5h168q13 0 20.5 -5t7.5 -15q0 -4 -4 -14 l-120 -252q-6 -13 -14 -18.5t-20 -5.5h-168z" glyph-name="dcaron" unicode="ď" vert-adv-y="1980"/>
<glyph d="M1155 1262q14 0 22 -8t8 -22v-75q0 -13 -8 -21.5t-22 -8.5h-54v-1097q0 -13 -8 -21.5t-22 -8.5h-168q-26 0 -29 30l-15 156h-25q-33 -93 -116 -152t-204 -59q-128 0 -225 67t-149.5 184.5t-52.5 262.5q0 151 57.5 269t165.5 185t253 67q103 0 173.5 -32.5t112.5 -85.5 v235h-258q-13 0 -21.5 8.5t-8.5 21.5v75q0 14 8.5 22t21.5 8h258v108q0 14 8.5 22t21.5 8h192q14 0 22 -8t8 -22v-108h54zM735.5 243q59.5 35 92 99t32.5 151t-32.5 151t-92 98.5t-138.5 34.5t-138.5 -34.5t-92.5 -99t-33 -150.5t33 -150.5t92.5 -99.5t138.5 -35t138.5 35z " glyph-name="dcroat" unicode="đ" vert-adv-y="1980"/>
<glyph d="M1101.5 465q-6.5 -21 -26 -31.5t-57.5 -10.5l-655 1q8 -118 93 -183t223 -65q66 0 125 15t106 41q17 9 29 9q13 0 26 -9.5t30 -31.5q33 -41 33 -64q0 -19 -22 -40q-56 -55 -149 -88t-206 -33q-157 0 -277 65.5t-186 183t-66 270.5q0 152 63.5 269t179 182t265.5 65 q148 0 256 -62.5t165 -173t57 -252.5q0 -36 -6.5 -57zM458.5 744.5q-68.5 -51.5 -86.5 -151.5h513q-14 99 -80 151t-171 52q-107 0 -175.5 -51.5z" glyph-name="e" unicode="e" vert-adv-y="1980"/>
<glyph d="M1101.5 465q-6.5 -21 -26 -31.5t-57.5 -10.5l-655 1q8 -118 93 -183t223 -65q66 0 125 15t106 41q17 9 29 9q13 0 26 -9.5t30 -31.5q33 -41 33 -64q0 -19 -22 -40q-56 -55 -149 -88t-206 -33q-157 0 -277 65.5t-186 183t-66 270.5q0 152 63.5 269t179 182t265.5 65 q148 0 256 -62.5t165 -173t57 -252.5q0 -36 -6.5 -57zM458.5 744.5q-68.5 -51.5 -86.5 -151.5h513q-14 99 -80 151t-171 52q-107 0 -175.5 -51.5zM538 1197q-13 0 -20.5 5t-7.5 15q0 4 4 14l120 252q6 13 14 18.5t20 5.5h168q13 0 20.5 -5t7.5 -15q0 -4 -4 -14l-120 -252 q-6 -13 -14 -18.5t-20 -5.5h-168z" glyph-name="eacute" unicode="é" vert-adv-y="1980"/>
<glyph d="M1101.5 465q-6.5 -21 -26 -31.5t-57.5 -10.5l-655 1q8 -118 93 -183t223 -65q66 0 125 15t106 41q17 9 29 9q13 0 26 -9.5t30 -31.5q33 -41 33 -64q0 -19 -22 -40q-56 -55 -149 -88t-206 -33q-157 0 -277 65.5t-186 183t-66 270.5q0 152 63.5 269t179 182t265.5 65 q148 0 256 -62.5t165 -173t57 -252.5q0 -36 -6.5 -57zM458.5 744.5q-68.5 -51.5 -86.5 -151.5h513q-14 99 -80 151t-171 52q-107 0 -175.5 -51.5zM486 1191q-11 0 -19 3.5t-17 12.5l-223 264q-8 9 -8 19q0 8 7 12.5t19 4.5h193q23 0 36 -16l141 -160l141 160q13 16 36 16 h193q12 0 19 -4.5t7 -12.5q0 -10 -8 -19l-223 -264q-9 -9 -17 -12.5t-19 -3.5h-258z" glyph-name="ecaron" unicode="ě" vert-adv-y="1980"/>
<glyph d="M1101.5 465q-6.5 -21 -26 -31.5t-57.5 -10.5l-655 1q8 -118 93 -183t223 -65q66 0 125 15t106 41q17 9 29 9q13 0 26 -9.5t30 -31.5q33 -41 33 -64q0 -19 -22 -40q-56 -55 -149 -88t-206 -33q-157 0 -277 65.5t-186 183t-66 270.5q0 152 63.5 269t179 182t265.5 65 q148 0 256 -62.5t165 -173t57 -252.5q0 -36 -6.5 -57zM458.5 744.5q-68.5 -51.5 -86.5 -151.5h513q-14 99 -80 151t-171 52q-107 0 -175.5 -51.5zM245 1191q-12 0 -19 4.5t-7 12.5q0 10 8 19l223 264q8 10 16 13t20 3h258q12 0 20 -3t16 -13l223 -264q8 -9 8 -19 q0 -8 -7 -12.5t-19 -4.5h-193q-23 0 -36 16l-141 161l-141 -161q-13 -16 -36 -16h-193z" glyph-name="ecircumflex" unicode="ê" vert-adv-y="1980"/>
<glyph d="M1101.5 465q-6.5 -21 -26 -31.5t-57.5 -10.5l-655 1q8 -118 93 -183t223 -65q66 0 125 15t106 41q17 9 29 9q13 0 26 -9.5t30 -31.5q33 -41 33 -64q0 -19 -22 -40q-56 -55 -149 -88t-206 -33q-157 0 -277 65.5t-186 183t-66 270.5q0 152 63.5 269t179 182t265.5 65 q148 0 256 -62.5t165 -173t57 -252.5q0 -36 -6.5 -57zM458.5 744.5q-68.5 -51.5 -86.5 -151.5h513q-14 99 -80 151t-171 52q-107 0 -175.5 -51.5zM338 1265.5q-29 17.5 -46.5 47.5t-17.5 66q0 35 17.5 64.5t47 46.5t63.5 17q35 0 64.5 -17t47 -46.5t17.5 -64.5 q0 -36 -17.5 -66t-47 -47.5t-64.5 -17.5t-64 17.5zM763.5 1265.5q-29.5 17.5 -47 47.5t-17.5 66q0 35 17.5 64.5t47 46.5t64.5 17t64.5 -17t47 -46.5t17.5 -64.5q0 -36 -17.5 -66t-47 -47.5t-64.5 -17.5t-64.5 17.5z" glyph-name="edieresis" unicode="ë" vert-adv-y="1980"/>
<glyph d="M1101.5 465q-6.5 -21 -26 -31.5t-57.5 -10.5l-655 1q8 -118 93 -183t223 -65q66 0 125 15t106 41q17 9 29 9q13 0 26 -9.5t30 -31.5q33 -41 33 -64q0 -19 -22 -40q-56 -55 -149 -88t-206 -33q-157 0 -277 65.5t-186 183t-66 270.5q0 152 63.5 269t179 182t265.5 65 q148 0 256 -62.5t165 -173t57 -252.5q0 -36 -6.5 -57zM458.5 744.5q-68.5 -51.5 -86.5 -151.5h513q-14 99 -80 151t-171 52q-107 0 -175.5 -51.5zM550.5 1265.5q-29.5 17.5 -47 47.5t-17.5 66q0 35 17.5 64.5t47 46.5t64.5 17t64.5 -17t47 -46.5t17.5 -64.5q0 -36 -17.5 -66 t-47 -47.5t-64.5 -17.5t-64.5 17.5z" glyph-name="edotaccent" unicode="ė" vert-adv-y="1980"/>
<glyph d="M1101.5 465q-6.5 -21 -26 -31.5t-57.5 -10.5l-655 1q8 -118 93 -183t223 -65q66 0 125 15t106 41q17 9 29 9q13 0 26 -9.5t30 -31.5q33 -41 33 -64q0 -19 -22 -40q-56 -55 -149 -88t-206 -33q-157 0 -277 65.5t-186 183t-66 270.5q0 152 63.5 269t179 182t265.5 65 q148 0 256 -62.5t165 -173t57 -252.5q0 -36 -6.5 -57zM458.5 744.5q-68.5 -51.5 -86.5 -151.5h513q-14 99 -80 151t-171 52q-107 0 -175.5 -51.5zM526 1197q-12 0 -20 5.5t-14 18.5l-120 252q-4 10 -4 14q0 10 7.5 15t20.5 5h168q12 0 20 -5.5t14 -18.5l120 -252 q4 -10 4 -14q0 -10 -7.5 -15t-20.5 -5h-168z" glyph-name="egrave" unicode="è" vert-adv-y="1980"/>
<glyph d="M1101.5 465q-6.5 -21 -26 -31.5t-57.5 -10.5l-655 1q8 -118 93 -183t223 -65q66 0 125 15t106 41q17 9 29 9q13 0 26 -9.5t30 -31.5q33 -41 33 -64q0 -19 -22 -40q-56 -55 -149 -88t-206 -33q-157 0 -277 65.5t-186 183t-66 270.5q0 152 63.5 269t179 182t265.5 65 q148 0 256 -62.5t165 -173t57 -252.5q0 -36 -6.5 -57zM458.5 744.5q-68.5 -51.5 -86.5 -151.5h513q-14 99 -80 151t-171 52q-107 0 -175.5 -51.5zM348 1310q-13 0 -21.5 8.5t-8.5 21.5v137q0 14 8.5 22t21.5 8h534q14 0 22 -8t8 -22v-137q0 -13 -8 -21.5t-22 -8.5h-534z" glyph-name="emacron" unicode="ē" vert-adv-y="1980"/>
<glyph d="M1101.5 465q-6.5 -21 -26 -31.5t-57.5 -10.5l-655 1q8 -118 93 -183t223 -65q66 0 125 15t106 41q17 9 29 9q13 0 26 -9.5t30 -31.5q33 -41 33 -64q0 -19 -22 -40q-43 -42 -108.5 -72t-146.5 -42q-61 -18 -89.5 -44.5t-28.5 -69.5q0 -47 33 -73t99 -26h46q20 0 20 -20 v-116q0 -20 -20 -20h-59q-122 0 -211.5 49t-89.5 166q0 109 92 156q-128 21 -223 90t-146.5 177t-51.5 243q0 152 63.5 269t179 182t265.5 65q148 0 256 -62.5t165 -173t57 -252.5q0 -36 -6.5 -57zM458.5 744.5q-68.5 -51.5 -86.5 -151.5h513q-14 99 -80 151t-171 52 q-107 0 -175.5 -51.5z" glyph-name="eogonek" unicode="ę" vert-adv-y="1980"/>
<glyph d="M856 949.5q120 -65.5 186 -183t66 -270.5q0 -152 -63.5 -269t-179 -182t-265.5 -65q-148 0 -256 62.5t-165 173t-57 252.5q0 36 6.5 57t26 31.5t57.5 10.5l655 -1q-8 118 -93 183t-223 65q-66 0 -125 -15t-106 -41q-17 -9 -29 -9q-13 0 -26 9.5t-30 31.5q-33 41 -33 64 q0 19 22 40q56 55 148.5 88t206.5 33q157 0 277 -65.5zM771.5 245.5q68.5 51.5 86.5 151.5h-513q14 -99 80 -151t171 -52q107 0 175.5 51.5z" glyph-name="uni0259" unicode="ə" vert-adv-y="1980"/>
<glyph d="M1098 1405v-142q0 -28 -28 -28q-2 0 -36 4q-77 12 -139 12q-81 0 -135 -20.5t-83.5 -73.5t-29.5 -149v-28h405q14 0 22 -8t8 -22v-144q0 -13 -8 -21.5t-22 -8.5h-405v-746q0 -13 -8 -21.5t-22 -8.5h-192q-13 0 -21.5 8.5t-8.5 21.5v746h-218q-13 0 -21.5 8.5t-8.5 21.5 v144q0 14 8.5 22t21.5 8h218v61q0 233 123.5 330t321.5 97q72 0 137.5 -10.5t101.5 -23.5q19 -9 19 -29z" glyph-name="f" unicode="f" vert-adv-y="1980"/>
<glyph d="M1076 990q14 0 22 -8t8 -22v-901q0 -173 -79 -274t-199.5 -141t-260.5 -40q-110 0 -208 22.5t-162 65.5q-15 9 -15 24q0 7 3 15l44 126q6 18 25 18q9 0 14 -2q65 -30 132 -43.5t143 -13.5q142 0 234 54.5t92 199.5v176h-29q-29 -90 -114.5 -142.5t-201.5 -52.5 q-124 0 -220 61t-149 168t-53 240q0 140 57.5 252t160.5 175t233 63q102 0 179.5 -38.5t131.5 -107.5l5 96q2 14 9.5 22t20.5 8h177zM733.5 298.5q57.5 32.5 90 91.5t32.5 134q0 76 -32 134t-89.5 89.5t-131.5 31.5t-132 -31.5t-90.5 -89.5t-32.5 -134q0 -75 32.5 -134 t90.5 -91.5t132 -32.5q73 0 130.5 32.5z" glyph-name="g" unicode="g" vert-adv-y="1980"/>
<glyph d="M1076 990q14 0 22 -8t8 -22v-901q0 -173 -79 -274t-199.5 -141t-260.5 -40q-110 0 -208 22.5t-162 65.5q-15 9 -15 24q0 7 3 15l44 126q6 18 25 18q9 0 14 -2q65 -30 132 -43.5t143 -13.5q142 0 234 54.5t92 199.5v176h-29q-29 -90 -114.5 -142.5t-201.5 -52.5 q-124 0 -220 61t-149 168t-53 240q0 140 57.5 252t160.5 175t233 63q102 0 179.5 -38.5t131.5 -107.5l5 96q2 14 9.5 22t20.5 8h177zM733.5 298.5q57.5 32.5 90 91.5t32.5 134q0 76 -32 134t-89.5 89.5t-131.5 31.5t-132 -31.5t-90.5 -89.5t-32.5 -134q0 -75 32.5 -134 t90.5 -91.5t132 -32.5q73 0 130.5 32.5zM450 1230.5q-71 37.5 -111 101.5t-48 144q-3 31 29 31h105q26 0 32 -29q12 -50 53 -85.5t105 -35.5t105.5 35.5t52.5 85.5q6 29 32 29h105q33 0 30 -31q-8 -80 -48.5 -144t-111.5 -101.5t-165 -37.5t-165 37.5z" glyph-name="gbreve" unicode="ğ" vert-adv-y="1980"/>
<glyph d="M425 1198q-13 0 -20.5 7.5t-7.5 20.5v79q0 127 9.5 239t26.5 184q4 20 32 20h127q15 0 21.5 -7t5.5 -22q-14 -154 -14 -290v-37h234q13 0 20.5 -7.5t7.5 -19.5v-139q0 -13 -7.5 -20.5t-20.5 -7.5h-414zM1076 990q14 0 22 -8t8 -22v-901q0 -173 -79 -274t-199.5 -141 t-260.5 -40q-110 0 -208 22.5t-162 65.5q-15 9 -15 24q0 7 3 15l44 126q6 18 25 18q9 0 14 -2q65 -30 132 -43.5t143 -13.5q142 0 234 54.5t92 199.5v176h-29q-29 -90 -114.5 -142.5t-201.5 -52.5q-124 0 -220 61t-149 168t-53 240q0 140 57.5 252t160.5 175t233 63 q102 0 179.5 -38.5t131.5 -107.5l5 96q2 14 9.5 22t20.5 8h177zM733.5 298.5q57.5 32.5 90 91.5t32.5 134q0 76 -32 134t-89.5 89.5t-131.5 31.5t-132 -31.5t-90.5 -89.5t-32.5 -134q0 -75 32.5 -134t90.5 -91.5t132 -32.5q73 0 130.5 32.5z" glyph-name="uni0123" unicode="ģ" vert-adv-y="1980"/>
<glyph d="M1076 990q14 0 22 -8t8 -22v-901q0 -173 -79 -274t-199.5 -141t-260.5 -40q-110 0 -208 22.5t-162 65.5q-15 9 -15 24q0 7 3 15l44 126q6 18 25 18q9 0 14 -2q65 -30 132 -43.5t143 -13.5q142 0 234 54.5t92 199.5v176h-29q-29 -90 -114.5 -142.5t-201.5 -52.5 q-124 0 -220 61t-149 168t-53 240q0 140 57.5 252t160.5 175t233 63q102 0 179.5 -38.5t131.5 -107.5l5 96q2 14 9.5 22t20.5 8h177zM733.5 298.5q57.5 32.5 90 91.5t32.5 134q0 76 -32 134t-89.5 89.5t-131.5 31.5t-132 -31.5t-90.5 -89.5t-32.5 -134q0 -75 32.5 -134 t90.5 -91.5t132 -32.5q73 0 130.5 32.5zM550.5 1265.5q-29.5 17.5 -47 47.5t-17.5 66q0 35 17.5 64.5t47 46.5t64.5 17t64.5 -17t47 -46.5t17.5 -64.5q0 -36 -17.5 -66t-47 -47.5t-64.5 -17.5t-64.5 17.5z" glyph-name="gdotaccent" unicode="ġ" vert-adv-y="1980"/>
<glyph d="M915.5 960q80.5 -50 125.5 -144.5t45 -223.5v-562q0 -13 -8 -21.5t-22 -8.5h-192q-13 0 -21.5 8.5t-8.5 21.5v514q0 108 -57.5 170.5t-161.5 62.5q-103 0 -161 -62.5t-58 -170.5v-514q0 -13 -8 -21.5t-22 -8.5h-192q-13 0 -21.5 8.5t-8.5 21.5v1340q0 14 8.5 22t21.5 8 h192q14 0 22 -8t8 -22v-553h31q38 85 115.5 139t187.5 54q105 0 185.5 -50z" glyph-name="h" unicode="h" vert-adv-y="1980"/>
<glyph d="M915.5 960q80.5 -50 125.5 -144.5t45 -223.5v-562q0 -13 -8 -21.5t-22 -8.5h-192q-13 0 -21.5 8.5t-8.5 21.5v514q0 108 -57.5 170.5t-161.5 62.5q-103 0 -161 -62.5t-58 -170.5v-514q0 -13 -8 -21.5t-22 -8.5h-192q-13 0 -21.5 8.5t-8.5 21.5v1082h-106q-13 0 -21.5 8.5 t-8.5 21.5v102q0 14 8.5 22t21.5 8h106v96q0 14 8.5 22t21.5 8h192q14 0 22 -8t8 -22v-96h318q14 0 22 -8t8 -22v-102q0 -13 -8 -21.5t-22 -8.5h-318v-295h31q38 85 115.5 139t187.5 54q105 0 185.5 -50z" glyph-name="hbar" unicode="ħ" vert-adv-y="1980"/>
<glyph d="M530.5 1243q-34.5 20 -54.5 54t-20 75t20 75.5t54.5 54.5t75.5 20t75.5 -20t54.5 -54.5t20 -75.5t-20 -75t-54.5 -54t-75.5 -20t-75.5 20zM1048 207q14 0 22 -8t8 -22v-147q0 -13 -8 -21.5t-22 -8.5h-252q-146 0 -223 81t-77 229v473h-309q-13 0 -21.5 8.5t-8.5 21.5v147 q0 14 8.5 22t21.5 8h531q14 0 22 -8t8 -22v-604q0 -75 36 -112t111 -37h153z" glyph-name="i" unicode="i" vert-adv-y="1980"/>
<glyph d="M1048 207q14 0 22 -8t8 -22v-147q0 -13 -8 -21.5t-22 -8.5h-252q-146 0 -223 81t-77 229v473h-309q-13 0 -21.5 8.5t-8.5 21.5v147q0 14 8.5 22t21.5 8h531q14 0 22 -8t8 -22v-604q0 -75 36 -112t111 -37h153z" glyph-name="dotlessi" unicode="ı" vert-adv-y="1980"/>
<glyph d="M1048 207q14 0 22 -8t8 -22v-147q0 -13 -8 -21.5t-22 -8.5h-252q-146 0 -223 81t-77 229v473h-309q-13 0 -21.5 8.5t-8.5 21.5v147q0 14 8.5 22t21.5 8h531q14 0 22 -8t8 -22v-604q0 -75 36 -112t111 -37h153zM528 1197q-13 0 -20.5 5t-7.5 15q0 4 4 14l120 252 q6 13 14 18.5t20 5.5h168q13 0 20.5 -5t7.5 -15q0 -4 -4 -14l-120 -252q-6 -13 -14 -18.5t-20 -5.5h-168z" glyph-name="iacute" unicode="í" vert-adv-y="1980"/>
<glyph d="M1048 207q14 0 22 -8t8 -22v-147q0 -13 -8 -21.5t-22 -8.5h-252q-146 0 -223 81t-77 229v473h-309q-13 0 -21.5 8.5t-8.5 21.5v147q0 14 8.5 22t21.5 8h531q14 0 22 -8t8 -22v-604q0 -75 36 -112t111 -37h153zM476 1191q-11 0 -19 3.5t-17 12.5l-223 264q-8 9 -8 19 q0 8 7 12.5t19 4.5h193q23 0 36 -16l141 -160l141 160q13 16 36 16h193q12 0 19 -4.5t7 -12.5q0 -10 -8 -19l-223 -264q-9 -9 -17 -12.5t-19 -3.5h-258z" glyph-name="uni01D0" unicode="ǐ" vert-adv-y="1980"/>
<glyph d="M1048 207q14 0 22 -8t8 -22v-147q0 -13 -8 -21.5t-22 -8.5h-252q-146 0 -223 81t-77 229v473h-309q-13 0 -21.5 8.5t-8.5 21.5v147q0 14 8.5 22t21.5 8h531q14 0 22 -8t8 -22v-604q0 -75 36 -112t111 -37h153zM235 1191q-12 0 -19 4.5t-7 12.5q0 10 8 19l223 264 q8 10 16 13t20 3h258q12 0 20 -3t16 -13l223 -264q8 -9 8 -19q0 -8 -7 -12.5t-19 -4.5h-193q-23 0 -36 16l-141 161l-141 -161q-13 -16 -36 -16h-193z" glyph-name="icircumflex" unicode="î" vert-adv-y="1980"/>
<glyph d="M1048 207q14 0 22 -8t8 -22v-147q0 -13 -8 -21.5t-22 -8.5h-252q-146 0 -223 81t-77 229v473h-309q-13 0 -21.5 8.5t-8.5 21.5v147q0 14 8.5 22t21.5 8h531q14 0 22 -8t8 -22v-604q0 -75 36 -112t111 -37h153zM328 1265.5q-29 17.5 -46.5 47.5t-17.5 66q0 35 17.5 64.5 t47 46.5t63.5 17q35 0 64.5 -17t47 -46.5t17.5 -64.5q0 -36 -17.5 -66t-47 -47.5t-64.5 -17.5t-64 17.5zM753.5 1265.5q-29.5 17.5 -47 47.5t-17.5 66q0 35 17.5 64.5t47 46.5t64.5 17t64.5 -17t47 -46.5t17.5 -64.5q0 -36 -17.5 -66t-47 -47.5t-64.5 -17.5t-64.5 17.5z" glyph-name="idieresis" unicode="ï" vert-adv-y="1980"/>
<glyph d="M1048 207q14 0 22 -8t8 -22v-147q0 -13 -8 -21.5t-22 -8.5h-252q-146 0 -223 81t-77 229v473h-309q-13 0 -21.5 8.5t-8.5 21.5v147q0 14 8.5 22t21.5 8h531q14 0 22 -8t8 -22v-604q0 -75 36 -112t111 -37h153zM540.5 1265.5q-29.5 17.5 -47 47.5t-17.5 66q0 35 17.5 64.5 t47 46.5t64.5 17t64.5 -17t47 -46.5t17.5 -64.5q0 -36 -17.5 -66t-47 -47.5t-64.5 -17.5t-64.5 17.5z" glyph-name="i.loclTRK" vert-adv-y="1980"/>
<glyph d="M1048 207q14 0 22 -8t8 -22v-147q0 -13 -8 -21.5t-22 -8.5h-252q-146 0 -223 81t-77 229v473h-309q-13 0 -21.5 8.5t-8.5 21.5v147q0 14 8.5 22t21.5 8h531q14 0 22 -8t8 -22v-604q0 -75 36 -112t111 -37h153zM516 1197q-12 0 -20 5.5t-14 18.5l-120 252q-4 10 -4 14 q0 10 7.5 15t20.5 5h168q12 0 20 -5.5t14 -18.5l120 -252q4 -10 4 -14q0 -10 -7.5 -15t-20.5 -5h-168z" glyph-name="igrave" unicode="ì" vert-adv-y="1980"/>
<glyph d="M952.5 1243q-34.5 20 -54.5 54t-20 75t20 75.5t54.5 54.5t75.5 20t75.5 -20t54.5 -54.5t20 -75.5t-20 -75t-54.5 -54t-75.5 -20t-75.5 20zM149.5 1233q-34.5 20 -54.5 54t-20 75t20 75.5t54.5 54.5t75.5 20t75.5 -20t54.5 -54.5t20 -75.5t-20 -75t-54.5 -54t-75.5 -20 t-75.5 20zM128 2q-13 0 -21.5 8.5t-8.5 21.5v930q0 14 8.5 22t21.5 8h192q14 0 22 -8t8 -22v-930q0 -13 -8 -21.5t-22 -8.5h-192zM541 -358.5q-81 26.5 -128 63.5t-47 67q0 10 4 15l72 120q9 15 24 15q10 0 23 -8q48 -31 96 -49.5t113 -18.5q93 0 156 52t63 179v706h-439 q-13 0 -21.5 8.5t-8.5 21.5v147q0 14 8.5 22t21.5 8h661q14 0 22 -8t8 -22v-910q0 -159 -67.5 -256.5t-169 -138t-212.5 -40.5q-98 0 -179 26.5z" glyph-name="ij" unicode="ĳ" vert-adv-y="1980"/>
<glyph d="M1048 207q14 0 22 -8t8 -22v-147q0 -13 -8 -21.5t-22 -8.5h-252q-146 0 -223 81t-77 229v473h-309q-13 0 -21.5 8.5t-8.5 21.5v147q0 14 8.5 22t21.5 8h531q14 0 22 -8t8 -22v-604q0 -75 36 -112t111 -37h153zM338 1310q-13 0 -21.5 8.5t-8.5 21.5v137q0 14 8.5 22 t21.5 8h534q14 0 22 -8t8 -22v-137q0 -13 -8 -21.5t-22 -8.5h-534z" glyph-name="imacron" unicode="ī" vert-adv-y="1980"/>
<glyph d="M540.5 1265.5q-29.5 17.5 -47 47.5t-17.5 66q0 35 17.5 64.5t47 46.5t64.5 17t64.5 -17t47 -46.5t17.5 -64.5q0 -36 -17.5 -66t-47 -47.5t-64.5 -17.5t-64.5 17.5zM1048 207q14 0 22 -8t8 -22v-147q0 -13 -8 -21.5t-22 -8.5h-230q-87 0 -129.5 -30t-42.5 -81 q0 -48 37 -76.5t104 -28.5h37q20 0 20 -20v-116q0 -20 -20 -20h-59q-122 0 -211.5 51.5t-89.5 175.5q0 143 136 202q-51 39 -77.5 103.5t-26.5 149.5v473h-309q-13 0 -21.5 8.5t-8.5 21.5v147q0 14 8.5 22t21.5 8h531q14 0 22 -8t8 -22v-604q0 -75 36 -112t111 -37h153z" glyph-name="iogonek" unicode="į" vert-adv-y="1980"/>
<glyph d="M733.5 1243q-34.5 20 -54.5 54t-20 75t20 75.5t54.5 54.5t75.5 20t75.5 -20t54.5 -54.5t20 -75.5t-20 -75t-54.5 -54t-75.5 -20t-75.5 20zM322 -358.5q-81 26.5 -128 63.5t-47 67q0 10 4 15l72 120q9 15 24 15q10 0 23 -8q47 -31 96 -49.5t113 -18.5q93 0 156 52t63 179 v706h-438q-13 0 -21.5 8.5t-8.5 21.5v147q0 14 8.5 22t21.5 8h660q14 0 22 -8t8 -22v-910q0 -159 -67.5 -256.5t-169 -138t-212.5 -40.5q-98 0 -179 26.5z" glyph-name="j" unicode="j" vert-adv-y="1980"/>
<glyph d="M322 -358.5q-81 26.5 -128 63.5t-47 67q0 10 4 15l72 120q9 15 24 15q10 0 23 -8q47 -31 96 -49.5t113 -18.5q93 0 156 52t63 179v706h-438q-13 0 -21.5 8.5t-8.5 21.5v147q0 14 8.5 22t21.5 8h660q14 0 22 -8t8 -22v-910q0 -159 -67.5 -256.5t-169 -138t-212.5 -40.5 q-98 0 -179 26.5z" glyph-name="uni0237" unicode="ȷ" vert-adv-y="1980"/>
<glyph d="M1121 36q8 -11 8 -18q0 -8 -7 -13t-19 -5h-219q-12 0 -20 4t-16 14l-301 374l-134 -145v-217q0 -13 -8 -21.5t-22 -8.5h-192q-13 0 -21.5 8.5t-8.5 21.5v1340q0 14 8.5 22t21.5 8h192q14 0 22 -8t8 -22v-812l370 416q15 16 36 16h233q12 0 19 -4.5t7 -12.5q0 -9 -10 -19 l-367 -396z" glyph-name="k" unicode="k" vert-adv-y="1980"/>
<glyph d="M1121 36q8 -11 8 -18q0 -8 -7 -13t-19 -5h-219q-12 0 -20 4t-16 14l-301 374l-134 -145v-217q0 -13 -8 -21.5t-22 -8.5h-192q-13 0 -21.5 8.5t-8.5 21.5v1340q0 14 8.5 22t21.5 8h192q14 0 22 -8t8 -22v-812l370 416q15 16 36 16h233q12 0 19 -4.5t7 -12.5q0 -9 -10 -19 l-367 -396zM819 -174q13 0 20.5 -7.5t7.5 -20.5v-79q0 -128 -9.5 -240t-26.5 -183q-4 -21 -32 -21h-128q-29 0 -26 30q15 165 14 327h-234q-13 0 -20.5 7.5t-7.5 19.5v139q0 13 7.5 20.5t20.5 7.5h414z" glyph-name="uni0137" unicode="ķ" vert-adv-y="1980"/>
<glyph d="M810 0q-152 0 -236 88t-84 242v863h-333q-13 0 -21.5 8.5t-8.5 21.5v147q0 14 8.5 22t21.5 8h555q14 0 22 -8t8 -22v-1003q0 -75 42 -117.5t117 -42.5h168q14 0 22 -8t8 -22v-147q0 -13 -8 -21.5t-22 -8.5h-259z" glyph-name="l" unicode="l" vert-adv-y="1980"/>
<glyph d="M810 0q-152 0 -236 88t-84 242v863h-333q-13 0 -21.5 8.5t-8.5 21.5v147q0 14 8.5 22t21.5 8h555q14 0 22 -8t8 -22v-1003q0 -75 42 -117.5t117 -42.5h168q14 0 22 -8t8 -22v-147q0 -13 -8 -21.5t-22 -8.5h-259zM538 1624q-13 0 -20.5 5t-7.5 15q0 4 4 14l120 252 q6 13 14 18.5t20 5.5h168q13 0 20.5 -5t7.5 -15q0 -4 -4 -14l-120 -252q-6 -13 -14 -18.5t-20 -5.5h-168z" glyph-name="lacute" unicode="ĺ" vert-adv-y="1980"/>
<glyph d="M1164 1403q11 0 18.5 -8.5t7.5 -21.5v-86q0 -139 -9 -262t-24 -201q-4 -23 -30 -23h-116q-27 0 -24 32q12 166 12 312v46h-214q-11 0 -18 8.5t-7 21.5v152q0 14 7 22t18 8h379zM721 0q-152 0 -236 88t-84 242v863h-333q-13 0 -21.5 8.5t-8.5 21.5v147q0 14 8.5 22t21.5 8 h555q14 0 22 -8t8 -22v-1003q0 -75 42 -117.5t117 -42.5h168q14 0 22 -8t8 -22v-147q0 -13 -8 -21.5t-22 -8.5h-259z" glyph-name="lcaron" unicode="ľ" vert-adv-y="1980"/>
<glyph d="M810 0q-152 0 -236 88t-84 242v863h-333q-13 0 -21.5 8.5t-8.5 21.5v147q0 14 8.5 22t21.5 8h555q14 0 22 -8t8 -22v-1003q0 -75 42 -117.5t117 -42.5h168q14 0 22 -8t8 -22v-147q0 -13 -8 -21.5t-22 -8.5h-259zM819 -174q13 0 20.5 -7.5t7.5 -20.5v-79q0 -128 -9.5 -240 t-26.5 -183q-4 -21 -32 -21h-128q-29 0 -26 30q15 165 14 327h-234q-13 0 -20.5 7.5t-7.5 19.5v139q0 13 7.5 20.5t20.5 7.5h414z" glyph-name="uni013C" unicode="ļ" vert-adv-y="1980"/>
<glyph d="M810 0q-152 0 -236 88t-84 242v863h-333q-13 0 -21.5 8.5t-8.5 21.5v147q0 14 8.5 22t21.5 8h555q14 0 22 -8t8 -22v-1003q0 -75 42 -117.5t117 -42.5h168q14 0 22 -8t8 -22v-147q0 -13 -8 -21.5t-22 -8.5h-259zM923.5 654.5q-35.5 20.5 -56 56t-20.5 77.5t20.5 77.5 t56 56t77.5 20.5t77.5 -20.5t56 -56t20.5 -77.5t-20.5 -77.5t-56 -56t-77.5 -20.5t-77.5 20.5z" glyph-name="ldot" unicode="ŀ" vert-adv-y="1980"/>
<glyph d="M1074 207q14 0 22 -8t8 -22v-147q0 -13 -8 -21.5t-22 -8.5h-258q-152 0 -236 88t-84 242v188l-154 -138v220l154 138v455h-334q-13 0 -21.5 8.5t-8.5 21.5v147q0 14 8.5 22t21.5 8h556q14 0 22 -8t8 -22v-407l165 148l2 -218l-167 -150v-376q0 -75 41.5 -117.5 t116.5 -42.5h168z" glyph-name="lslash" unicode="ł" vert-adv-y="1980"/>
<glyph d="M120 0q-13 0 -21.5 8.5t-8.5 21.5v930q0 14 8.5 22t21.5 8h165q13 0 21 -8t9 -22l5 -109h19q41 159 190 159q68 0 114 -37t71 -122h15q45 159 196 159q106 0 160.5 -76.5t54.5 -224.5v-679q0 -13 -8 -21.5t-22 -8.5h-169q-13 0 -21.5 8.5t-8.5 21.5v640q0 51 -25 80 t-71 29q-45 0 -70 -29t-25 -80v-640q0 -13 -8 -21.5t-22 -8.5h-150q-13 0 -21.5 8.5t-8.5 21.5v640q0 51 -25 80t-70 29q-46 0 -71 -29t-25 -80v-640q0 -13 -8 -21.5t-22 -8.5h-169z" glyph-name="m" unicode="m" vert-adv-y="1980"/>
<glyph d="M915.5 960q80.5 -50 125.5 -144.5t45 -223.5v-562q0 -13 -8 -21.5t-22 -8.5h-192q-13 0 -21.5 8.5t-8.5 21.5v514q0 108 -57.5 170.5t-161.5 62.5q-103 0 -161 -62.5t-58 -170.5v-514q0 -13 -8 -21.5t-22 -8.5h-192q-13 0 -21.5 8.5t-8.5 21.5v930q0 14 8.5 22t21.5 8 h184q13 0 21 -8t9 -22l8 -143h31q38 85 115.5 139t187.5 54q105 0 185.5 -50z" glyph-name="n" unicode="n" vert-adv-y="1980"/>
<glyph d="M915.5 960q80.5 -50 125.5 -144.5t45 -223.5v-562q0 -13 -8 -21.5t-22 -8.5h-192q-13 0 -21.5 8.5t-8.5 21.5v514q0 108 -57.5 170.5t-161.5 62.5q-103 0 -161 -62.5t-58 -170.5v-514q0 -13 -8 -21.5t-22 -8.5h-192q-13 0 -21.5 8.5t-8.5 21.5v930q0 14 8.5 22t21.5 8 h184q13 0 21 -8t9 -22l8 -143h31q38 85 115.5 139t187.5 54q105 0 185.5 -50zM538 1197q-13 0 -20.5 5t-7.5 15q0 4 4 14l120 252q6 13 14 18.5t20 5.5h168q13 0 20.5 -5t7.5 -15q0 -4 -4 -14l-120 -252q-6 -13 -14 -18.5t-20 -5.5h-168z" glyph-name="nacute" unicode="ń" vert-adv-y="1980"/>
<glyph d="M915.5 960q80.5 -50 125.5 -144.5t45 -223.5v-562q0 -13 -8 -21.5t-22 -8.5h-192q-13 0 -21.5 8.5t-8.5 21.5v514q0 108 -57.5 170.5t-161.5 62.5q-103 0 -161 -62.5t-58 -170.5v-514q0 -13 -8 -21.5t-22 -8.5h-192q-13 0 -21.5 8.5t-8.5 21.5v930q0 14 8.5 22t21.5 8 h184q13 0 21 -8t9 -22l8 -143h31q38 85 115.5 139t187.5 54q105 0 185.5 -50zM486 1191q-11 0 -19 3.5t-17 12.5l-223 264q-8 9 -8 19q0 8 7 12.5t19 4.5h193q23 0 36 -16l141 -160l141 160q13 16 36 16h193q12 0 19 -4.5t7 -12.5q0 -10 -8 -19l-223 -264q-9 -9 -17 -12.5 t-19 -3.5h-258z" glyph-name="ncaron" unicode="ň" vert-adv-y="1980"/>
<glyph d="M915.5 960q80.5 -50 125.5 -144.5t45 -223.5v-562q0 -13 -8 -21.5t-22 -8.5h-192q-13 0 -21.5 8.5t-8.5 21.5v514q0 108 -57.5 170.5t-161.5 62.5q-103 0 -161 -62.5t-58 -170.5v-514q0 -13 -8 -21.5t-22 -8.5h-192q-13 0 -21.5 8.5t-8.5 21.5v930q0 14 8.5 22t21.5 8 h184q13 0 21 -8t9 -22l8 -143h31q38 85 115.5 139t187.5 54q105 0 185.5 -50zM819 -174q13 0 20.5 -7.5t7.5 -20.5v-79q0 -128 -9.5 -240t-26.5 -183q-4 -21 -32 -21h-128q-29 0 -26 30q15 165 14 327h-234q-13 0 -20.5 7.5t-7.5 19.5v139q0 13 7.5 20.5t20.5 7.5h414z" glyph-name="uni0146" unicode="ņ" vert-adv-y="1980"/>
<glyph d="M915.5 960q80.5 -50 125.5 -144.5t45 -223.5v-573q0 -135 -48.5 -228t-136.5 -140t-206 -47q-18 0 -23 16l-60 196q-1 3 -1 7q0 7 4 11t11 4q57 0 104.5 24.5t75.5 75t28 125.5v481q0 108 -57.5 170.5t-161.5 62.5q-103 0 -161 -62.5t-58 -170.5v-514q0 -13 -8 -21.5 t-22 -8.5h-192q-13 0 -21.5 8.5t-8.5 21.5v930q0 14 8.5 22t21.5 8h184q13 0 21 -8t9 -22l8 -143h31q38 85 115.5 139t187.5 54q105 0 185.5 -50z" glyph-name="eng" unicode="ŋ" vert-adv-y="1980"/>
<glyph d="M915.5 960q80.5 -50 125.5 -144.5t45 -223.5v-562q0 -13 -8 -21.5t-22 -8.5h-192q-13 0 -21.5 8.5t-8.5 21.5v514q0 108 -57.5 170.5t-161.5 62.5q-103 0 -161 -62.5t-58 -170.5v-514q0 -13 -8 -21.5t-22 -8.5h-192q-13 0 -21.5 8.5t-8.5 21.5v930q0 14 8.5 22t21.5 8 h184q13 0 21 -8t9 -22l8 -143h31q38 85 115.5 139t187.5 54q105 0 185.5 -50zM682.5 1239.5q-41.5 21.5 -92.5 61.5q-40 32 -68 47.5t-62 15.5q-36 0 -59 -17.5t-33 -41.5q-6 -17 -22 -17h-94q-8 0 -13.5 6.5t-5.5 16.5q0 67 30 112t78 66.5t103 21.5q61 0 103.5 -21.5 t92.5 -62.5q41 -32 68 -47t61 -15q36 0 59 17.5t33 42.5q6 16 22 16h94q10 0 15.5 -5.5t5.5 -14.5q-1 -68 -31.5 -114t-79 -67.5t-103.5 -21.5q-60 0 -101.5 21.5z" glyph-name="ntilde" unicode="ñ" vert-adv-y="1980"/>
<glyph d="M354 43q-116 68 -182 186.5t-66 263.5t65.5 263.5t182 186t261.5 67.5t261.5 -67.5t182.5 -186t66 -263.5t-66 -263.5t-182.5 -186.5t-261.5 -68t-261 68zM751 245q60 36 94 100.5t34 147.5t-34 147.5t-94 100t-136 35.5t-136 -35.5t-94 -100t-34 -147.5t34 -147.5 t94 -100.5t136 -36t136 36z" glyph-name="o" unicode="o" vert-adv-y="1980"/>
<glyph d="M354 43q-116 68 -182 186.5t-66 263.5t65.5 263.5t182 186t261.5 67.5t261.5 -67.5t182.5 -186t66 -263.5t-66 -263.5t-182.5 -186.5t-261.5 -68t-261 68zM751 245q60 36 94 100.5t34 147.5t-34 147.5t-94 100t-136 35.5t-136 -35.5t-94 -100t-34 -147.5t34 -147.5 t94 -100.5t136 -36t136 36zM538 1197q-13 0 -20.5 5t-7.5 15q0 4 4 14l120 252q6 13 14 18.5t20 5.5h168q13 0 20.5 -5t7.5 -15q0 -4 -4 -14l-120 -252q-6 -13 -14 -18.5t-20 -5.5h-168z" glyph-name="oacute" unicode="ó" vert-adv-y="1980"/>
<glyph d="M354 43q-116 68 -182 186.5t-66 263.5t65.5 263.5t182 186t261.5 67.5t261.5 -67.5t182.5 -186t66 -263.5t-66 -263.5t-182.5 -186.5t-261.5 -68t-261 68zM751 245q60 36 94 100.5t34 147.5t-34 147.5t-94 100t-136 35.5t-136 -35.5t-94 -100t-34 -147.5t34 -147.5 t94 -100.5t136 -36t136 36zM486 1191q-11 0 -19 3.5t-17 12.5l-223 264q-8 9 -8 19q0 8 7 12.5t19 4.5h193q23 0 36 -16l141 -160l141 160q13 16 36 16h193q12 0 19 -4.5t7 -12.5q0 -10 -8 -19l-223 -264q-9 -9 -17 -12.5t-19 -3.5h-258z" glyph-name="uni01D2" unicode="ǒ" vert-adv-y="1980"/>
<glyph d="M354 43q-116 68 -182 186.5t-66 263.5t65.5 263.5t182 186t261.5 67.5t261.5 -67.5t182.5 -186t66 -263.5t-66 -263.5t-182.5 -186.5t-261.5 -68t-261 68zM751 245q60 36 94 100.5t34 147.5t-34 147.5t-94 100t-136 35.5t-136 -35.5t-94 -100t-34 -147.5t34 -147.5 t94 -100.5t136 -36t136 36zM245 1191q-12 0 -19 4.5t-7 12.5q0 10 8 19l223 264q8 10 16 13t20 3h258q12 0 20 -3t16 -13l223 -264q8 -9 8 -19q0 -8 -7 -12.5t-19 -4.5h-193q-23 0 -36 16l-141 161l-141 -161q-13 -16 -36 -16h-193z" glyph-name="ocircumflex" unicode="ô" vert-adv-y="1980"/>
<glyph d="M354 43q-116 68 -182 186.5t-66 263.5t65.5 263.5t182 186t261.5 67.5t261.5 -67.5t182.5 -186t66 -263.5t-66 -263.5t-182.5 -186.5t-261.5 -68t-261 68zM751 245q60 36 94 100.5t34 147.5t-34 147.5t-94 100t-136 35.5t-136 -35.5t-94 -100t-34 -147.5t34 -147.5 t94 -100.5t136 -36t136 36zM338 1265.5q-29 17.5 -46.5 47.5t-17.5 66q0 35 17.5 64.5t47 46.5t63.5 17q35 0 64.5 -17t47 -46.5t17.5 -64.5q0 -36 -17.5 -66t-47 -47.5t-64.5 -17.5t-64 17.5zM763.5 1265.5q-29.5 17.5 -47 47.5t-17.5 66q0 35 17.5 64.5t47 46.5t64.5 17 t64.5 -17t47 -46.5t17.5 -64.5q0 -36 -17.5 -66t-47 -47.5t-64.5 -17.5t-64.5 17.5z" glyph-name="odieresis" unicode="ö" vert-adv-y="1980"/>
<glyph d="M354 43q-116 68 -182 186.5t-66 263.5t65.5 263.5t182 186t261.5 67.5t261.5 -67.5t182.5 -186t66 -263.5t-66 -263.5t-182.5 -186.5t-261.5 -68t-261 68zM751 245q60 36 94 100.5t34 147.5t-34 147.5t-94 100t-136 35.5t-136 -35.5t-94 -100t-34 -147.5t34 -147.5 t94 -100.5t136 -36t136 36zM526 1197q-12 0 -20 5.5t-14 18.5l-120 252q-4 10 -4 14q0 10 7.5 15t20.5 5h168q12 0 20 -5.5t14 -18.5l120 -252q4 -10 4 -14q0 -10 -7.5 -15t-20.5 -5h-168z" glyph-name="ograve" unicode="ò" vert-adv-y="1980"/>
<glyph d="M354 43q-116 68 -182 186.5t-66 263.5t65.5 263.5t182 186t261.5 67.5t261.5 -67.5t182.5 -186t66 -263.5t-66 -263.5t-182.5 -186.5t-261.5 -68t-261 68zM751 245q60 36 94 100.5t34 147.5t-34 147.5t-94 100t-136 35.5t-136 -35.5t-94 -100t-34 -147.5t34 -147.5 t94 -100.5t136 -36t136 36zM707 1197q-13 0 -20.5 5t-7.5 15q0 4 4 14l120 252q6 13 14 18.5t20 5.5h168q13 0 20.5 -5t7.5 -15q0 -4 -4 -14l-120 -252q-6 -13 -14 -18.5t-20 -5.5h-168zM349 1197q-13 0 -20.5 5t-7.5 15q0 4 4 14l120 252q6 13 14 18.5t20 5.5h168 q13 0 20.5 -5t7.5 -15q0 -4 -4 -14l-120 -252q-6 -13 -14 -18.5t-20 -5.5h-168z" glyph-name="ohungarumlaut" unicode="ő" vert-adv-y="1980"/>
<glyph d="M354 43q-116 68 -182 186.5t-66 263.5t65.5 263.5t182 186t261.5 67.5t261.5 -67.5t182.5 -186t66 -263.5t-66 -263.5t-182.5 -186.5t-261.5 -68t-261 68zM751 245q60 36 94 100.5t34 147.5t-34 147.5t-94 100t-136 35.5t-136 -35.5t-94 -100t-34 -147.5t34 -147.5 t94 -100.5t136 -36t136 36zM348 1310q-13 0 -21.5 8.5t-8.5 21.5v137q0 14 8.5 22t21.5 8h534q14 0 22 -8t8 -22v-137q0 -13 -8 -21.5t-22 -8.5h-534z" glyph-name="omacron" unicode="ō" vert-adv-y="1980"/>
<glyph d="M752 -9q-79 -19 -115.5 -46.5t-36.5 -76.5q0 -46 33.5 -72.5t99.5 -26.5h46q20 0 20 -20v-116q0 -20 -20 -20h-60q-122 0 -211.5 49t-89.5 166q0 110 94 157q-119 22 -211 93.5t-143.5 179t-51.5 235.5q0 145 65.5 263.5t182 186t261.5 67.5t261.5 -67.5t182.5 -186 t66 -263.5q0 -121 -47 -225t-131.5 -175.5t-194.5 -100.5v-1zM385 345.5q34 -64.5 94 -100.5t136 -36t136 36t94 100.5t34 147.5t-34 147.5t-94 100t-136 35.5t-136 -35.5t-94 -100t-34 -147.5t34 -147.5z" glyph-name="uni01EB" unicode="ǫ" vert-adv-y="1980"/>
<glyph d="M910 921q101 -70 158 -181.5t57 -246.5q0 -145 -66 -263.5t-182.5 -186.5t-261.5 -68q-82 0 -156 23l-57 -116q-6 -12 -14 -17t-20 -5h-103q-12 0 -19 5.5t-7 14.5q0 8 4 16l81 166q-102 69 -160 181.5t-58 249.5q0 145 65.5 263.5t182 186t261.5 67.5q83 0 160 -23 l52 107q6 12 14 17t20 5h105q12 0 19 -5.5t7 -14.5q0 -8 -4 -16zM372 374q21 -54 59 -92l239 489q-30 5 -55 5q-76 0 -136 -35.5t-94 -100t-34 -147.5q0 -65 21 -119zM751 245q60 36 94 100.5t34 147.5q0 63 -20 116t-57 91l-238 -487q32 -4 51 -4q76 0 136 36z" glyph-name="oslash" unicode="ø" vert-adv-y="1980"/>
<glyph d="M354 43q-116 68 -182 186.5t-66 263.5t65.5 263.5t182 186t261.5 67.5t261.5 -67.5t182.5 -186t66 -263.5t-66 -263.5t-182.5 -186.5t-261.5 -68t-261 68zM751 245q60 36 94 100.5t34 147.5t-34 147.5t-94 100t-136 35.5t-136 -35.5t-94 -100t-34 -147.5t34 -147.5 t94 -100.5t136 -36t136 36zM682.5 1239.5q-41.5 21.5 -92.5 61.5q-40 32 -68 47.5t-62 15.5q-36 0 -59 -17.5t-33 -41.5q-6 -17 -22 -17h-94q-8 0 -13.5 6.5t-5.5 16.5q0 67 30 112t78 66.5t103 21.5q61 0 103.5 -21.5t92.5 -62.5q41 -32 68 -47t61 -15q36 0 59 17.5 t33 42.5q6 16 22 16h94q10 0 15.5 -5.5t5.5 -14.5q-1 -68 -31.5 -114t-79 -67.5t-103.5 -21.5q-60 0 -101.5 21.5z" glyph-name="otilde" unicode="õ" vert-adv-y="1980"/>
<glyph d="M1004 189.5q39 17.5 78 53.5l101 -120q-50 -72 -123.5 -110.5t-164.5 -38.5q-189 0 -272 172q-79 -172 -258 -172q-164 0 -246 138.5t-82 381.5t82 381t246 138q180 0 259 -173q39 83 103.5 128t156.5 45q165 0 237.5 -136.5t72.5 -362.5q0 -63 -13.5 -90t-55.5 -27h-410 q11 -110 57 -167.5t142 -57.5q51 0 90 17.5zM756.5 747q-36.5 -63 -43.5 -184h296q0 123 -33 185t-108 62t-111.5 -63zM492 254q41 78 41 238t-41 238t-118 78t-118.5 -78t-41.5 -238t41.5 -238t118.5 -78t118 78z" glyph-name="oe" unicode="œ" vert-adv-y="1980"/>
<glyph d="M926 943q100 -67 153 -184.5t53 -265.5t-53 -266t-153 -185t-235 -67q-108 0 -181 43t-111 116h-27v-484q0 -14 -8 -22t-22 -8h-185q-13 0 -21.5 8t-8.5 22v1310q0 14 8.5 22t21.5 8h192q14 0 22 -8t8 -22v-99h20q38 67 111.5 108t180.5 41q135 0 235 -67zM764 243 q59 35 91 99t32 151q0 86 -32 150.5t-91 99t-137 34.5t-137 -34.5t-90.5 -98.5t-31.5 -151t32 -151t90.5 -99t136.5 -35t137 35z" glyph-name="p" unicode="p" vert-adv-y="1980"/>
<glyph d="M1111.5 687.5q29.5 -91.5 29.5 -198.5q0 -145 -52.5 -262.5t-149.5 -184.5t-225 -67h-11h-12q-108 0 -181 43t-111 116h-27v-484q0 -14 -8 -22t-22 -8h-185q-13 0 -21.5 8t-8.5 22v1720q0 14 8.5 22t21.5 8h192q14 0 22 -8t8 -22v-477q42 52 112.5 84.5t172.5 32.5h14h13 q107 0 192 -42.5t143 -119.5q56 -69 85.5 -160.5zM400 342.5q32 -64.5 91.5 -99.5t137.5 -35q77 0 135.5 35t90.5 99.5t32 150.5t-32 150t-90 99t-136 35q-79 0 -138 -35t-91 -99t-32 -150t32 -150.5z" glyph-name="thorn" unicode="þ" vert-adv-y="1980"/>
<glyph d="M1074 990q14 0 22 -8t8 -22v-1310q0 -14 -8 -22t-22 -8h-186q-13 0 -21.5 8t-8.5 22v484h-27q-37 -73 -110.5 -116t-181.5 -43q-135 0 -235 67t-153 185t-53 266t53 265.5t153 184.5t235 67q107 0 181 -41t111 -108h21v99q0 14 8.5 22t21.5 8h192zM740.5 242.5 q58.5 34.5 90 99t31.5 151.5t-31.5 151t-90 98.5t-137.5 34.5q-78 0 -137 -34.5t-91 -99t-32 -150.5q0 -87 32 -151t91 -99t137 -35q79 0 137.5 34.5z" glyph-name="q" unicode="q" vert-adv-y="1980"/>
<glyph d="M963 964q79 -46 122 -125.5t43 -176.5q0 -70 -23 -99t-67 -29h-111q-20 0 -31.5 9.5t-12.5 28.5q-4 111 -64.5 158t-149.5 47q-117 0 -184 -75t-67 -226v-446q0 -13 -8 -21.5t-22 -8.5h-192q-13 0 -21.5 8.5t-8.5 21.5v930q0 14 8.5 22t21.5 8h184q13 0 20.5 -8t9.5 -22 l8 -170h35q36 100 121.5 160t205.5 60q104 0 183 -46z" glyph-name="r" unicode="r" vert-adv-y="1980"/>
<glyph d="M963 964q79 -46 122 -125.5t43 -176.5q0 -70 -23 -99t-67 -29h-111q-20 0 -31.5 9.5t-12.5 28.5q-4 111 -64.5 158t-149.5 47q-117 0 -184 -75t-67 -226v-446q0 -13 -8 -21.5t-22 -8.5h-192q-13 0 -21.5 8.5t-8.5 21.5v930q0 14 8.5 22t21.5 8h184q13 0 20.5 -8t9.5 -22 l8 -170h35q36 100 121.5 160t205.5 60q104 0 183 -46zM558 1197q-13 0 -20.5 5t-7.5 15q0 4 4 14l120 252q6 13 14 18.5t20 5.5h168q13 0 20.5 -5t7.5 -15q0 -4 -4 -14l-120 -252q-6 -13 -14 -18.5t-20 -5.5h-168z" glyph-name="racute" unicode="ŕ" vert-adv-y="1980"/>
<glyph d="M963 964q79 -46 122 -125.5t43 -176.5q0 -70 -23 -99t-67 -29h-111q-20 0 -31.5 9.5t-12.5 28.5q-4 111 -64.5 158t-149.5 47q-117 0 -184 -75t-67 -226v-446q0 -13 -8 -21.5t-22 -8.5h-192q-13 0 -21.5 8.5t-8.5 21.5v930q0 14 8.5 22t21.5 8h184q13 0 20.5 -8t9.5 -22 l8 -170h35q36 100 121.5 160t205.5 60q104 0 183 -46zM506 1191q-11 0 -19 3.5t-17 12.5l-223 264q-8 9 -8 19q0 8 7 12.5t19 4.5h193q23 0 36 -16l141 -160l141 160q13 16 36 16h193q12 0 19 -4.5t7 -12.5q0 -10 -8 -19l-223 -264q-9 -9 -17 -12.5t-19 -3.5h-258z" glyph-name="rcaron" unicode="ř" vert-adv-y="1980"/>
<glyph d="M963 964q79 -46 122 -125.5t43 -176.5q0 -70 -23 -99t-67 -29h-111q-20 0 -31.5 9.5t-12.5 28.5q-4 111 -64.5 158t-149.5 47q-117 0 -184 -75t-67 -226v-446q0 -13 -8 -21.5t-22 -8.5h-192q-13 0 -21.5 8.5t-8.5 21.5v930q0 14 8.5 22t21.5 8h184q13 0 20.5 -8t9.5 -22 l8 -170h35q36 100 121.5 160t205.5 60q104 0 183 -46zM455 -174q13 0 20.5 -7.5t7.5 -20.5v-79q0 -128 -9.5 -240t-26.5 -183q-4 -21 -32 -21h-128q-29 0 -26 30q15 165 14 327h-234q-13 0 -20.5 7.5t-7.5 19.5v139q0 13 7.5 20.5t20.5 7.5h414z" glyph-name="uni0157" unicode="ŗ" vert-adv-y="1980"/>
<glyph d="M853 546q88 -23 155.5 -85.5t67.5 -178.5q0 -145 -118 -226t-344 -81q-199 0 -322.5 65.5t-137.5 201.5q-1 14 7.5 22t22.5 8h181q24 0 30 -21q14 -41 69.5 -63t153.5 -22q212 0 212 114q0 40 -26 63t-74 35t-134 23q-125 15 -212 40t-149 87t-62 175q0 144 112 225.5 t326 81.5q186 0 307.5 -64.5t135.5 -196.5q1 -14 -7 -22t-22 -8h-181q-24 0 -30 21q-11 36 -67.5 57.5t-141.5 21.5q-90 0 -138.5 -26t-48.5 -84q0 -40 23 -63.5t68.5 -37t122.5 -22.5q133 -17 221 -40z" glyph-name="s" unicode="s" vert-adv-y="1980"/>
<glyph d="M853 546q88 -23 155.5 -85.5t67.5 -178.5q0 -145 -118 -226t-344 -81q-199 0 -322.5 65.5t-137.5 201.5q-1 14 7.5 22t22.5 8h181q24 0 30 -21q14 -41 69.5 -63t153.5 -22q212 0 212 114q0 40 -26 63t-74 35t-134 23q-125 15 -212 40t-149 87t-62 175q0 144 112 225.5 t326 81.5q186 0 307.5 -64.5t135.5 -196.5q1 -14 -7 -22t-22 -8h-181q-24 0 -30 21q-11 36 -67.5 57.5t-141.5 21.5q-90 0 -138.5 -26t-48.5 -84q0 -40 23 -63.5t68.5 -37t122.5 -22.5q133 -17 221 -40zM538 1197q-13 0 -20.5 5t-7.5 15q0 4 4 14l120 252q6 13 14 18.5 t20 5.5h168q13 0 20.5 -5t7.5 -15q0 -4 -4 -14l-120 -252q-6 -13 -14 -18.5t-20 -5.5h-168z" glyph-name="sacute" unicode="ś" vert-adv-y="1980"/>
<glyph d="M853 546q88 -23 155.5 -85.5t67.5 -178.5q0 -145 -118 -226t-344 -81q-199 0 -322.5 65.5t-137.5 201.5q-1 14 7.5 22t22.5 8h181q24 0 30 -21q14 -41 69.5 -63t153.5 -22q212 0 212 114q0 40 -26 63t-74 35t-134 23q-125 15 -212 40t-149 87t-62 175q0 144 112 225.5 t326 81.5q186 0 307.5 -64.5t135.5 -196.5q1 -14 -7 -22t-22 -8h-181q-24 0 -30 21q-11 36 -67.5 57.5t-141.5 21.5q-90 0 -138.5 -26t-48.5 -84q0 -40 23 -63.5t68.5 -37t122.5 -22.5q133 -17 221 -40zM486 1191q-11 0 -19 3.5t-17 12.5l-223 264q-8 9 -8 19q0 8 7 12.5 t19 4.5h193q23 0 36 -16l141 -160l141 160q13 16 36 16h193q12 0 19 -4.5t7 -12.5q0 -10 -8 -19l-223 -264q-9 -9 -17 -12.5t-19 -3.5h-258z" glyph-name="scaron" unicode="š" vert-adv-y="1980"/>
<glyph d="M976 69.5q-100 -79.5 -293 -92.5l-50 -46q46 -4 86.5 -24t65.5 -55.5t25 -83.5q0 -104 -74 -155.5t-187 -51.5q-45 0 -84 7q-18 3 -18 22v88q0 9 6 15t16 5q35 -5 58 -5q52 0 81 17t29 46q0 22 -25.5 38.5t-63.5 16.5q-37 0 -77 -17q-4 -2 -10 -2q-14 0 -14 16v91 q0 14 10 24l59 56q-158 15 -254 80t-108 183q-1 14 7.5 22t22.5 8h181q24 0 30 -21q14 -41 69.5 -63t153.5 -22q212 0 212 114q0 40 -26 63t-74 35t-134 23q-125 15 -212 40t-149 87t-62 175q0 144 112 225.5t326 81.5q186 0 307.5 -64.5t135.5 -196.5q1 -14 -7 -22t-22 -8 h-181q-24 0 -30 21q-11 36 -67.5 57.5t-141.5 21.5q-90 0 -138.5 -26t-48.5 -84q0 -40 23 -63.5t68.5 -37t122.5 -22.5q133 -17 221 -40t155.5 -85.5t67.5 -178.5q0 -133 -100 -212.5z" glyph-name="scedilla" unicode="ş" vert-adv-y="1980"/>
<glyph d="M853 546q88 -23 155.5 -85.5t67.5 -178.5q0 -145 -118 -226t-344 -81q-199 0 -322.5 65.5t-137.5 201.5q-1 14 7.5 22t22.5 8h181q24 0 30 -21q14 -41 69.5 -63t153.5 -22q212 0 212 114q0 40 -26 63t-74 35t-134 23q-125 15 -212 40t-149 87t-62 175q0 144 112 225.5 t326 81.5q186 0 307.5 -64.5t135.5 -196.5q1 -14 -7 -22t-22 -8h-181q-24 0 -30 21q-11 36 -67.5 57.5t-141.5 21.5q-90 0 -138.5 -26t-48.5 -84q0 -40 23 -63.5t68.5 -37t122.5 -22.5q133 -17 221 -40zM819 -174q13 0 20.5 -7.5t7.5 -20.5v-79q0 -128 -9.5 -240t-26.5 -183 q-4 -21 -32 -21h-128q-29 0 -26 30q15 165 14 327h-234q-13 0 -20.5 7.5t-7.5 19.5v139q0 13 7.5 20.5t20.5 7.5h414z" glyph-name="uni0219" unicode="ș" vert-adv-y="1980"/>
<glyph d="M904 684q27 -29 85 -69q58 -41 95 -75t63.5 -87.5t26.5 -127.5q0 -154 -120 -239.5t-348 -85.5h-101q-13 0 -21.5 8.5t-8.5 21.5v138q0 14 8.5 22t21.5 8h81q236 0 236 145q0 44 -20.5 79t-49.5 60t-79 60q-48 33 -77 57.5t-48.5 57.5t-19.5 75q0 38 14.5 65.5t44.5 64.5 q33 41 50 75t17 84q0 151 -174 151q-91 0 -134 -45t-43 -141v-956q0 -13 -8 -21.5t-22 -8.5h-192q-13 0 -21.5 8.5t-8.5 21.5v706h-99q-13 0 -21.5 8.5t-8.5 21.5v144q0 14 8.5 22t21.5 8h99v59q0 130 52.5 220t149.5 135.5t230 45.5q127 0 222 -40.5t147.5 -117.5 t52.5 -184q0 -73 -21.5 -118t-59.5 -92q-24 -30 -35.5 -50.5t-11.5 -45.5q0 -39 27 -68z" glyph-name="germandbls" unicode="ß" vert-adv-y="1980"/>
<glyph d="M1115 1411v-142q0 -28 -27 -28q-4 0 -36 4q-5 1 -45.5 6t-93.5 5q-129 0 -198 -47t-69 -167v-1012q0 -13 -8 -21.5t-22 -8.5h-192q-13 0 -21.5 8.5t-8.5 21.5v744h-249q-13 0 -21.5 8.5t-8.5 21.5v146q0 14 8.5 22t21.5 8h249v92q0 215 129 307.5t331 92.5 q72 0 139.5 -10t102.5 -23q19 -7 19 -28z" glyph-name="longs" unicode="ſ" vert-adv-y="1980"/>
<glyph d="M1131 208.5q11 -18.5 11 -34.5t-17 -42q-20 -29 -67.5 -65.5t-122 -64t-168.5 -27.5q-96 0 -183 35t-145.5 124.5t-58.5 240.5v400h-275q-13 0 -21.5 8.5t-8.5 21.5v145q0 14 8.5 22t21.5 8h275v280q0 14 8.5 22t21.5 8h192q14 0 22 -8t8 -22v-280h414q14 0 22 -8t8 -22 v-145q0 -13 -8 -21.5t-22 -8.5h-414v-362q0 -117 53 -164.5t131 -47.5q62 0 107 21.5t83 53.5q17 15 30 15q11 0 24.5 -9t34.5 -30q25 -25 36 -43.5z" glyph-name="t" unicode="t" vert-adv-y="1980"/>
<glyph d="M1131 208.5q11 -18.5 11 -34.5t-17 -42q-20 -29 -67.5 -65.5t-122 -64t-168.5 -27.5q-96 0 -183 35t-145.5 124.5t-58.5 240.5v121h-275q-13 0 -21.5 8.5t-8.5 21.5v124q0 14 8.5 22t21.5 8h275v95h-275q-13 0 -21.5 8.5t-8.5 21.5v145q0 14 8.5 22t21.5 8h275v280 q0 14 8.5 22t21.5 8h192q14 0 22 -8t8 -22v-280h414q14 0 22 -8t8 -22v-145q0 -13 -8 -21.5t-22 -8.5h-414v-95h412q14 0 22 -8t8 -22v-124q0 -13 -8 -21.5t-22 -8.5h-412v-83q0 -117 53 -164.5t131 -47.5q62 0 107 21.5t83 53.5q17 15 30 15q11 0 24.5 -9t34.5 -30 q25 -25 36 -43.5z" glyph-name="tbar" unicode="ŧ" vert-adv-y="1980"/>
<glyph d="M1131 208.5q11 -18.5 11 -34.5t-17 -42q-20 -29 -67.5 -65.5t-122 -64t-168.5 -27.5q-96 0 -183 35t-145.5 124.5t-58.5 240.5v400h-275q-13 0 -21.5 8.5t-8.5 21.5v145q0 14 8.5 22t21.5 8h275v280q0 14 8.5 22t21.5 8h192q14 0 22 -8t8 -22v-280h414q14 0 22 -8t8 -22 v-145q0 -13 -8 -21.5t-22 -8.5h-414v-362q0 -117 53 -164.5t131 -47.5q62 0 107 21.5t83 53.5q17 15 30 15q11 0 24.5 -9t34.5 -30q25 -25 36 -43.5zM865 1341q-13 0 -20.5 5t-7.5 15q0 4 4 14l120 252q6 13 14 18.5t20 5.5h168q13 0 20.5 -5t7.5 -15q0 -4 -4 -14l-120 -252 q-6 -13 -14 -18.5t-20 -5.5h-168z" glyph-name="tcaron" unicode="ť" vert-adv-y="1980"/>
<glyph d="M1131 208.5q11 -18.5 11 -34.5t-17 -42q-17 -25 -55 -56.5t-98 -58.5t-134 -37l-53 -49q46 -4 86.5 -24t65.5 -55.5t25 -83.5q0 -104 -74 -155.5t-187 -51.5q-45 0 -84 7q-18 3 -18 22v88q0 9 6 15t16 5q35 -5 58 -5q52 0 81 17t29 46q0 22 -25.5 38.5t-63.5 16.5 q-37 0 -77 -17q-4 -2 -10 -2q-14 0 -14 16v91q0 14 10 24l63 61q-126 24 -209 116.5t-83 274.5v400h-275q-13 0 -21.5 8.5t-8.5 21.5v145q0 14 8.5 22t21.5 8h275v280q0 14 8.5 22t21.5 8h192q14 0 22 -8t8 -22v-280h414q14 0 22 -8t8 -22v-145q0 -13 -8 -21.5t-22 -8.5 h-414v-362q0 -117 53 -164.5t131 -47.5q62 0 107 21.5t83 53.5q17 15 30 15q11 0 24.5 -9t34.5 -30q25 -25 36 -43.5z" glyph-name="uni0163" unicode="ţ" vert-adv-y="1980"/>
<glyph d="M1131 208.5q11 -18.5 11 -34.5t-17 -42q-20 -29 -67.5 -65.5t-122 -64t-168.5 -27.5q-96 0 -183 35t-145.5 124.5t-58.5 240.5v400h-275q-13 0 -21.5 8.5t-8.5 21.5v145q0 14 8.5 22t21.5 8h275v280q0 14 8.5 22t21.5 8h192q14 0 22 -8t8 -22v-280h414q14 0 22 -8t8 -22 v-145q0 -13 -8 -21.5t-22 -8.5h-414v-362q0 -117 53 -164.5t131 -47.5q62 0 107 21.5t83 53.5q17 15 30 15q11 0 24.5 -9t34.5 -30q25 -25 36 -43.5zM971 -174q13 0 20.5 -7.5t7.5 -20.5v-79q0 -128 -9.5 -240t-26.5 -183q-4 -21 -32 -21h-128q-29 0 -26 30q15 165 14 327 h-234q-13 0 -20.5 7.5t-7.5 19.5v139q0 13 7.5 20.5t20.5 7.5h414z" glyph-name="uni021B" unicode="ț" vert-adv-y="1980"/>
<glyph d="M1056 990q14 0 22 -8t8 -22v-930q0 -13 -8 -21.5t-22 -8.5h-184q-13 0 -21 8t-9 22l-8 143h-31q-38 -85 -115.5 -139t-187.5 -54q-105 0 -185.5 50t-125.5 144.5t-45 223.5v562q0 14 8.5 22t21.5 8h192q14 0 22 -8t8 -22v-514q0 -108 57.5 -170.5t161.5 -62.5 q103 0 161 62.5t58 170.5v514q0 14 8.5 22t21.5 8h192z" glyph-name="u" unicode="u" vert-adv-y="1980"/>
<glyph d="M1056 990q14 0 22 -8t8 -22v-930q0 -13 -8 -21.5t-22 -8.5h-184q-13 0 -21 8t-9 22l-8 143h-31q-38 -85 -115.5 -139t-187.5 -54q-105 0 -185.5 50t-125.5 144.5t-45 223.5v562q0 14 8.5 22t21.5 8h192q14 0 22 -8t8 -22v-514q0 -108 57.5 -170.5t161.5 -62.5 q103 0 161 62.5t58 170.5v514q0 14 8.5 22t21.5 8h192zM538 1197q-13 0 -20.5 5t-7.5 15q0 4 4 14l120 252q6 13 14 18.5t20 5.5h168q13 0 20.5 -5t7.5 -15q0 -4 -4 -14l-120 -252q-6 -13 -14 -18.5t-20 -5.5h-168z" glyph-name="uacute" unicode="ú" vert-adv-y="1980"/>
<glyph d="M1056 990q14 0 22 -8t8 -22v-930q0 -13 -8 -21.5t-22 -8.5h-184q-13 0 -21 8t-9 22l-8 143h-31q-38 -85 -115.5 -139t-187.5 -54q-105 0 -185.5 50t-125.5 144.5t-45 223.5v562q0 14 8.5 22t21.5 8h192q14 0 22 -8t8 -22v-514q0 -108 57.5 -170.5t161.5 -62.5 q103 0 161 62.5t58 170.5v514q0 14 8.5 22t21.5 8h192zM450 1230.5q-71 37.5 -111 101.5t-48 144q-3 31 29 31h105q26 0 32 -29q12 -50 53 -85.5t105 -35.5t105.5 35.5t52.5 85.5q6 29 32 29h105q33 0 30 -31q-8 -80 -48.5 -144t-111.5 -101.5t-165 -37.5t-165 37.5z" glyph-name="ubreve" unicode="ŭ" vert-adv-y="1980"/>
<glyph d="M1056 990q14 0 22 -8t8 -22v-930q0 -13 -8 -21.5t-22 -8.5h-184q-13 0 -21 8t-9 22l-8 143h-31q-38 -85 -115.5 -139t-187.5 -54q-105 0 -185.5 50t-125.5 144.5t-45 223.5v562q0 14 8.5 22t21.5 8h192q14 0 22 -8t8 -22v-514q0 -108 57.5 -170.5t161.5 -62.5 q103 0 161 62.5t58 170.5v514q0 14 8.5 22t21.5 8h192zM486 1191q-11 0 -19 3.5t-17 12.5l-223 264q-8 9 -8 19q0 8 7 12.5t19 4.5h193q23 0 36 -16l141 -160l141 160q13 16 36 16h193q12 0 19 -4.5t7 -12.5q0 -10 -8 -19l-223 -264q-9 -9 -17 -12.5t-19 -3.5h-258z" glyph-name="uni01D4" unicode="ǔ" vert-adv-y="1980"/>
<glyph d="M1056 990q14 0 22 -8t8 -22v-930q0 -13 -8 -21.5t-22 -8.5h-184q-13 0 -21 8t-9 22l-8 143h-31q-38 -85 -115.5 -139t-187.5 -54q-105 0 -185.5 50t-125.5 144.5t-45 223.5v562q0 14 8.5 22t21.5 8h192q14 0 22 -8t8 -22v-514q0 -108 57.5 -170.5t161.5 -62.5 q103 0 161 62.5t58 170.5v514q0 14 8.5 22t21.5 8h192zM245 1191q-12 0 -19 4.5t-7 12.5q0 10 8 19l223 264q8 10 16 13t20 3h258q12 0 20 -3t16 -13l223 -264q8 -9 8 -19q0 -8 -7 -12.5t-19 -4.5h-193q-23 0 -36 16l-141 161l-141 -161q-13 -16 -36 -16h-193z" glyph-name="ucircumflex" unicode="û" vert-adv-y="1980"/>
<glyph d="M1056 990q14 0 22 -8t8 -22v-930q0 -13 -8 -21.5t-22 -8.5h-184q-13 0 -21 8t-9 22l-8 143h-31q-38 -85 -115.5 -139t-187.5 -54q-105 0 -185.5 50t-125.5 144.5t-45 223.5v562q0 14 8.5 22t21.5 8h192q14 0 22 -8t8 -22v-514q0 -108 57.5 -170.5t161.5 -62.5 q103 0 161 62.5t58 170.5v514q0 14 8.5 22t21.5 8h192zM338 1265.5q-29 17.5 -46.5 47.5t-17.5 66q0 35 17.5 64.5t47 46.5t63.5 17q35 0 64.5 -17t47 -46.5t17.5 -64.5q0 -36 -17.5 -66t-47 -47.5t-64.5 -17.5t-64 17.5zM763.5 1265.5q-29.5 17.5 -47 47.5t-17.5 66 q0 35 17.5 64.5t47 46.5t64.5 17t64.5 -17t47 -46.5t17.5 -64.5q0 -36 -17.5 -66t-47 -47.5t-64.5 -17.5t-64.5 17.5z" glyph-name="udieresis" unicode="ü" vert-adv-y="1980"/>
<glyph d="M1056 990q14 0 22 -8t8 -22v-930q0 -13 -8 -21.5t-22 -8.5h-184q-13 0 -21 8t-9 22l-8 143h-31q-38 -85 -115.5 -139t-187.5 -54q-105 0 -185.5 50t-125.5 144.5t-45 223.5v562q0 14 8.5 22t21.5 8h192q14 0 22 -8t8 -22v-514q0 -108 57.5 -170.5t161.5 -62.5 q103 0 161 62.5t58 170.5v514q0 14 8.5 22t21.5 8h192zM526 1197q-12 0 -20 5.5t-14 18.5l-120 252q-4 10 -4 14q0 10 7.5 15t20.5 5h168q12 0 20 -5.5t14 -18.5l120 -252q4 -10 4 -14q0 -10 -7.5 -15t-20.5 -5h-168z" glyph-name="ugrave" unicode="ù" vert-adv-y="1980"/>
<glyph d="M1056 990q14 0 22 -8t8 -22v-930q0 -13 -8 -21.5t-22 -8.5h-184q-13 0 -21 8t-9 22l-8 143h-31q-38 -85 -115.5 -139t-187.5 -54q-105 0 -185.5 50t-125.5 144.5t-45 223.5v562q0 14 8.5 22t21.5 8h192q14 0 22 -8t8 -22v-514q0 -108 57.5 -170.5t161.5 -62.5 q103 0 161 62.5t58 170.5v514q0 14 8.5 22t21.5 8h192zM707 1197q-13 0 -20.5 5t-7.5 15q0 4 4 14l120 252q6 13 14 18.5t20 5.5h168q13 0 20.5 -5t7.5 -15q0 -4 -4 -14l-120 -252q-6 -13 -14 -18.5t-20 -5.5h-168zM349 1197q-13 0 -20.5 5t-7.5 15q0 4 4 14l120 252 q6 13 14 18.5t20 5.5h168q13 0 20.5 -5t7.5 -15q0 -4 -4 -14l-120 -252q-6 -13 -14 -18.5t-20 -5.5h-168z" glyph-name="uhungarumlaut" unicode="ű" vert-adv-y="1980"/>
<glyph d="M1056 990q14 0 22 -8t8 -22v-930q0 -13 -8 -21.5t-22 -8.5h-184q-13 0 -21 8t-9 22l-8 143h-31q-38 -85 -115.5 -139t-187.5 -54q-105 0 -185.5 50t-125.5 144.5t-45 223.5v562q0 14 8.5 22t21.5 8h192q14 0 22 -8t8 -22v-514q0 -108 57.5 -170.5t161.5 -62.5 q103 0 161 62.5t58 170.5v514q0 14 8.5 22t21.5 8h192zM348 1310q-13 0 -21.5 8.5t-8.5 21.5v137q0 14 8.5 22t21.5 8h534q14 0 22 -8t8 -22v-137q0 -13 -8 -21.5t-22 -8.5h-534z" glyph-name="umacron" unicode="ū" vert-adv-y="1980"/>
<glyph d="M926.5 -30q-42.5 -30 -42.5 -81q0 -48 37 -76.5t104 -28.5h37q20 0 20 -20v-116q0 -20 -20 -20h-59q-122 0 -211.5 51.5t-89.5 175.5q0 77 37 126.5t101 76.5l-6 115h-31q-38 -85 -115.5 -139t-187.5 -54q-105 0 -185.5 50t-125.5 144.5t-45 223.5v562q0 14 8.5 22 t21.5 8h192q14 0 22 -8t8 -22v-514q0 -108 57.5 -170.5t161.5 -62.5q103 0 161 62.5t58 170.5v514q0 14 8.5 22t21.5 8h192q14 0 22 -8t8 -22v-930q0 -13 -8 -21.5t-22 -8.5q-87 0 -129.5 -30z" glyph-name="uogonek" unicode="ų" vert-adv-y="1980"/>
<glyph d="M1056 990q14 0 22 -8t8 -22v-930q0 -13 -8 -21.5t-22 -8.5h-184q-13 0 -21 8t-9 22l-8 143h-31q-38 -85 -115.5 -139t-187.5 -54q-105 0 -185.5 50t-125.5 144.5t-45 223.5v562q0 14 8.5 22t21.5 8h192q14 0 22 -8t8 -22v-514q0 -108 57.5 -170.5t161.5 -62.5 q103 0 161 62.5t58 170.5v514q0 14 8.5 22t21.5 8h192zM513.5 1140q-45.5 27 -72 72t-26.5 98t26.5 98.5t72 72t101.5 26.5q55 0 100.5 -27t71.5 -72t26 -98q0 -52 -26 -97.5t-71.5 -72.5t-100.5 -27q-56 0 -101.5 27zM660 1265.5q19 16.5 19 42.5q0 28 -18.5 46.5 t-45.5 18.5q-28 0 -46 -17t-18 -45t18 -45t46 -17q26 0 45 16.5z" glyph-name="uring" unicode="ů" vert-adv-y="1980"/>
<glyph d="M875 966q4 12 14 18t22 6h192q27 0 27 -20q0 -6 -3 -14l-377 -932q-4 -12 -14 -18t-22 -6h-198q-12 0 -22 6t-14 18l-377 932q-3 8 -3 14q0 20 27 20h192q12 0 22 -6t14 -18l260 -681z" glyph-name="v" unicode="v" vert-adv-y="1980"/>
<glyph d="M1139 990q25 0 25 -23q0 -7 -1 -11l-174 -932q-2 -11 -12.5 -17.5t-23.5 -6.5h-187q-13 0 -23 6.5t-13 17.5l-115 609l-115 -609q-3 -11 -13 -17.5t-23 -6.5h-187q-13 0 -23.5 6.5t-12.5 17.5l-174 932q-1 4 -1 11q0 23 25 23h159q13 0 24 -6.5t12 -17.5l99 -674l134 664 q2 11 12.5 17.5t23.5 6.5h120q13 0 23.5 -6.5t12.5 -17.5l134 -664l99 674q1 11 12 17.5t24 6.5h159z" glyph-name="w" unicode="w" vert-adv-y="1980"/>
<glyph d="M1139 990q25 0 25 -23q0 -7 -1 -11l-174 -932q-2 -11 -12.5 -17.5t-23.5 -6.5h-187q-13 0 -23 6.5t-13 17.5l-115 609l-115 -609q-3 -11 -13 -17.5t-23 -6.5h-187q-13 0 -23.5 6.5t-12.5 17.5l-174 932q-1 4 -1 11q0 23 25 23h159q13 0 24 -6.5t12 -17.5l99 -674l134 664 q2 11 12.5 17.5t23.5 6.5h120q13 0 23.5 -6.5t12.5 -17.5l134 -664l99 674q1 11 12 17.5t24 6.5h159zM536 1197q-13 0 -20.5 5t-7.5 15q0 4 4 14l120 252q6 13 14 18.5t20 5.5h168q13 0 20.5 -5t7.5 -15q0 -4 -4 -14l-120 -252q-6 -13 -14 -18.5t-20 -5.5h-168z" glyph-name="wacute" unicode="ẃ" vert-adv-y="1980"/>
<glyph d="M1139 990q25 0 25 -23q0 -7 -1 -11l-174 -932q-2 -11 -12.5 -17.5t-23.5 -6.5h-187q-13 0 -23 6.5t-13 17.5l-115 609l-115 -609q-3 -11 -13 -17.5t-23 -6.5h-187q-13 0 -23.5 6.5t-12.5 17.5l-174 932q-1 4 -1 11q0 23 25 23h159q13 0 24 -6.5t12 -17.5l99 -674l134 664 q2 11 12.5 17.5t23.5 6.5h120q13 0 23.5 -6.5t12.5 -17.5l134 -664l99 674q1 11 12 17.5t24 6.5h159zM243 1191q-12 0 -19 4.5t-7 12.5q0 10 8 19l223 264q8 10 16 13t20 3h258q12 0 20 -3t16 -13l223 -264q8 -9 8 -19q0 -8 -7 -12.5t-19 -4.5h-193q-23 0 -36 16l-141 161 l-141 -161q-13 -16 -36 -16h-193z" glyph-name="wcircumflex" unicode="ŵ" vert-adv-y="1980"/>
<glyph d="M1139 990q25 0 25 -23q0 -7 -1 -11l-174 -932q-2 -11 -12.5 -17.5t-23.5 -6.5h-187q-13 0 -23 6.5t-13 17.5l-115 609l-115 -609q-3 -11 -13 -17.5t-23 -6.5h-187q-13 0 -23.5 6.5t-12.5 17.5l-174 932q-1 4 -1 11q0 23 25 23h159q13 0 24 -6.5t12 -17.5l99 -674l134 664 q2 11 12.5 17.5t23.5 6.5h120q13 0 23.5 -6.5t12.5 -17.5l134 -664l99 674q1 11 12 17.5t24 6.5h159zM336 1265.5q-29 17.5 -46.5 47.5t-17.5 66q0 35 17.5 64.5t47 46.5t63.5 17q35 0 64.5 -17t47 -46.5t17.5 -64.5q0 -36 -17.5 -66t-47 -47.5t-64.5 -17.5t-64 17.5z M761.5 1265.5q-29.5 17.5 -47 47.5t-17.5 66q0 35 17.5 64.5t47 46.5t64.5 17t64.5 -17t47 -46.5t17.5 -64.5q0 -36 -17.5 -66t-47 -47.5t-64.5 -17.5t-64.5 17.5z" glyph-name="wdieresis" unicode="ẅ" vert-adv-y="1980"/>
<glyph d="M1139 990q25 0 25 -23q0 -7 -1 -11l-174 -932q-2 -11 -12.5 -17.5t-23.5 -6.5h-187q-13 0 -23 6.5t-13 17.5l-115 609l-115 -609q-3 -11 -13 -17.5t-23 -6.5h-187q-13 0 -23.5 6.5t-12.5 17.5l-174 932q-1 4 -1 11q0 23 25 23h159q13 0 24 -6.5t12 -17.5l99 -674l134 664 q2 11 12.5 17.5t23.5 6.5h120q13 0 23.5 -6.5t12.5 -17.5l134 -664l99 674q1 11 12 17.5t24 6.5h159zM524 1197q-12 0 -20 5.5t-14 18.5l-120 252q-4 10 -4 14q0 10 7.5 15t20.5 5h168q12 0 20 -5.5t14 -18.5l120 -252q4 -10 4 -14q0 -10 -7.5 -15t-20.5 -5h-168z" glyph-name="wgrave" unicode="ẁ" vert-adv-y="1980"/>
<glyph d="M1144 36q8 -11 8 -18q0 -8 -7 -13t-19 -5h-221q-12 0 -20.5 4t-15.5 14l-254 319l-254 -319q-8 -10 -16 -14t-20 -4h-221q-12 0 -19 5t-7 13q0 7 8 18l388 476l-359 442q-8 11 -8 18q0 8 7 13t19 5h220q12 0 20 -4t16 -14l226 -285l226 285q8 10 16 14t20 4h220 q12 0 19 -5t7 -13q0 -7 -8 -18l-357 -442z" glyph-name="x" unicode="x" vert-adv-y="1980"/>
<glyph d="M1103 990q27 0 27 -20q0 -6 -3 -14l-524 -1312q-4 -12 -14 -18t-22 -6h-192q-27 0 -27 20q0 6 3 14l139 343l-387 959q-3 8 -3 14q0 20 27 20h192q12 0 22 -6t14 -18l260 -681l260 681q4 12 14 18t22 6h192z" glyph-name="y" unicode="y" vert-adv-y="1980"/>
<glyph d="M1103 990q27 0 27 -20q0 -6 -3 -14l-524 -1312q-4 -12 -14 -18t-22 -6h-192q-27 0 -27 20q0 6 3 14l139 343l-387 959q-3 8 -3 14q0 20 27 20h192q12 0 22 -6t14 -18l260 -681l260 681q4 12 14 18t22 6h192zM538 1197q-13 0 -20.5 5t-7.5 15q0 4 4 14l120 252 q6 13 14 18.5t20 5.5h168q13 0 20.5 -5t7.5 -15q0 -4 -4 -14l-120 -252q-6 -13 -14 -18.5t-20 -5.5h-168z" glyph-name="yacute" unicode="ý" vert-adv-y="1980"/>
<glyph d="M1103 990q27 0 27 -20q0 -6 -3 -14l-524 -1312q-4 -12 -14 -18t-22 -6h-192q-27 0 -27 20q0 6 3 14l139 343l-387 959q-3 8 -3 14q0 20 27 20h192q12 0 22 -6t14 -18l260 -681l260 681q4 12 14 18t22 6h192zM245 1191q-12 0 -19 4.5t-7 12.5q0 10 8 19l223 264 q8 10 16 13t20 3h258q12 0 20 -3t16 -13l223 -264q8 -9 8 -19q0 -8 -7 -12.5t-19 -4.5h-193q-23 0 -36 16l-141 161l-141 -161q-13 -16 -36 -16h-193z" glyph-name="ycircumflex" unicode="ŷ" vert-adv-y="1980"/>
<glyph d="M1103 990q27 0 27 -20q0 -6 -3 -14l-524 -1312q-4 -12 -14 -18t-22 -6h-192q-27 0 -27 20q0 6 3 14l139 343l-387 959q-3 8 -3 14q0 20 27 20h192q12 0 22 -6t14 -18l260 -681l260 681q4 12 14 18t22 6h192zM338 1265.5q-29 17.5 -46.5 47.5t-17.5 66q0 35 17.5 64.5 t47 46.5t63.5 17q35 0 64.5 -17t47 -46.5t17.5 -64.5q0 -36 -17.5 -66t-47 -47.5t-64.5 -17.5t-64 17.5zM763.5 1265.5q-29.5 17.5 -47 47.5t-17.5 66q0 35 17.5 64.5t47 46.5t64.5 17t64.5 -17t47 -46.5t17.5 -64.5q0 -36 -17.5 -66t-47 -47.5t-64.5 -17.5t-64.5 17.5z" glyph-name="ydieresis" unicode="ÿ" vert-adv-y="1980"/>
<glyph d="M1103 990q27 0 27 -20q0 -6 -3 -14l-524 -1312q-4 -12 -14 -18t-22 -6h-192q-27 0 -27 20q0 6 3 14l139 343l-387 959q-3 8 -3 14q0 20 27 20h192q12 0 22 -6t14 -18l260 -681l260 681q4 12 14 18t22 6h192zM526 1197q-12 0 -20 5.5t-14 18.5l-120 252q-4 10 -4 14 q0 10 7.5 15t20.5 5h168q12 0 20 -5.5t14 -18.5l120 -252q4 -10 4 -14q0 -10 -7.5 -15t-20.5 -5h-168z" glyph-name="ygrave" unicode="ỳ" vert-adv-y="1980"/>
<glyph d="M1047 806q0 -24 -14 -38l-555 -562h544q14 0 22 -8t8 -22v-146q0 -13 -8 -21.5t-22 -8.5h-814q-13 0 -21.5 8.5t-8.5 21.5v154q0 24 14 38l555 562h-544q-13 0 -21.5 8.5t-8.5 21.5v146q0 14 8.5 22t21.5 8h814q14 0 22 -8t8 -22v-154z" glyph-name="z" unicode="z" vert-adv-y="1980"/>
<glyph d="M1047 806q0 -24 -14 -38l-555 -562h544q14 0 22 -8t8 -22v-146q0 -13 -8 -21.5t-22 -8.5h-814q-13 0 -21.5 8.5t-8.5 21.5v154q0 24 14 38l555 562h-544q-13 0 -21.5 8.5t-8.5 21.5v146q0 14 8.5 22t21.5 8h814q14 0 22 -8t8 -22v-154zM538 1197q-13 0 -20.5 5t-7.5 15 q0 4 4 14l120 252q6 13 14 18.5t20 5.5h168q13 0 20.5 -5t7.5 -15q0 -4 -4 -14l-120 -252q-6 -13 -14 -18.5t-20 -5.5h-168z" glyph-name="zacute" unicode="ź" vert-adv-y="1980"/>
<glyph d="M1047 806q0 -24 -14 -38l-555 -562h544q14 0 22 -8t8 -22v-146q0 -13 -8 -21.5t-22 -8.5h-814q-13 0 -21.5 8.5t-8.5 21.5v154q0 24 14 38l555 562h-544q-13 0 -21.5 8.5t-8.5 21.5v146q0 14 8.5 22t21.5 8h814q14 0 22 -8t8 -22v-154zM486 1191q-11 0 -19 3.5t-17 12.5 l-223 264q-8 9 -8 19q0 8 7 12.5t19 4.5h193q23 0 36 -16l141 -160l141 160q13 16 36 16h193q12 0 19 -4.5t7 -12.5q0 -10 -8 -19l-223 -264q-9 -9 -17 -12.5t-19 -3.5h-258z" glyph-name="zcaron" unicode="ž" vert-adv-y="1980"/>
<glyph d="M1047 806q0 -24 -14 -38l-555 -562h544q14 0 22 -8t8 -22v-146q0 -13 -8 -21.5t-22 -8.5h-814q-13 0 -21.5 8.5t-8.5 21.5v154q0 24 14 38l555 562h-544q-13 0 -21.5 8.5t-8.5 21.5v146q0 14 8.5 22t21.5 8h814q14 0 22 -8t8 -22v-154zM550.5 1265.5q-29.5 17.5 -47 47.5 t-17.5 66q0 35 17.5 64.5t47 46.5t64.5 17t64.5 -17t47 -46.5t17.5 -64.5q0 -36 -17.5 -66t-47 -47.5t-64.5 -17.5t-64.5 17.5z" glyph-name="zdotaccent" unicode="ż" vert-adv-y="1980"/>
<glyph d="M298.5 38q-85.5 63 -130.5 175t-45 256q0 154 56.5 276t178.5 193.5t310 71.5q100 0 213 -23t227 -79v-878q0 -13 -8 -21.5t-22 -8.5h-166q-25 0 -30 30l-29 167h-35q-38 -98 -118.5 -160t-198.5 -62q-117 0 -202.5 63zM797.5 273.5q68.5 68.5 68.5 194.5v272 q-100 40 -207 40q-150 0 -220 -80.5t-70 -217.5q0 -134 64 -205.5t181 -71.5q115 0 183.5 68.5z" glyph-name="a.ss01" vert-adv-y="1980"/>
<glyph d="M1126 990q14 0 22 -8t8 -22v-111q0 -29 -30 -28l-138 8q36 -44 50 -89t14 -100q0 -147 -92.5 -222.5t-288.5 -75.5h-252q-50 0 -76.5 -23t-26.5 -66q0 -46 32 -68t105 -22h370q154 0 224 -67t70 -192q0 -111 -49.5 -175.5t-159.5 -93.5t-300 -29q-187 0 -300 29.5 t-163.5 87t-50.5 145.5q0 83 41 137t115 71q-63 18 -97.5 57.5t-34.5 113.5q0 69 35 110.5t117 61.5q-127 70 -127 254q0 105 44 175t144 106t265 36h530zM742 530q51 14 71 45t20 86q0 54 -20 85.5t-71 46t-146 14.5q-93 0 -143.5 -14.5t-70.5 -46t-20 -85.5 q0 -55 20 -85.5t70.5 -45t143.5 -14.5q95 0 146 14zM356 -17q-30 -28 -30 -79q0 -44 25 -69t86 -36.5t171 -11.5q108 0 168.5 11t86 36t25.5 68q0 30 -11 47t-38.5 25.5t-79.5 8.5h-403z" glyph-name="g.ss02" vert-adv-y="1980"/>
<glyph d="M1126 990q14 0 22 -8t8 -22v-111q0 -29 -30 -28l-138 8q36 -44 50 -89t14 -100q0 -147 -92.5 -222.5t-288.5 -75.5h-252q-50 0 -76.5 -23t-26.5 -66q0 -46 32 -68t105 -22h370q154 0 224 -67t70 -192q0 -111 -49.5 -175.5t-159.5 -93.5t-300 -29q-187 0 -300 29.5 t-163.5 87t-50.5 145.5q0 83 41 137t115 71q-63 18 -97.5 57.5t-34.5 113.5q0 69 35 110.5t117 61.5q-127 70 -127 254q0 105 44 175t144 106t265 36h530zM742 530q51 14 71 45t20 86q0 54 -20 85.5t-71 46t-146 14.5q-93 0 -143.5 -14.5t-70.5 -46t-20 -85.5 q0 -55 20 -85.5t70.5 -45t143.5 -14.5q95 0 146 14zM356 -17q-30 -28 -30 -79q0 -44 25 -69t86 -36.5t171 -11.5q108 0 168.5 11t86 36t25.5 68q0 30 -11 47t-38.5 25.5t-79.5 8.5h-403zM450 1230.5q-71 37.5 -111 101.5t-48 144q-3 31 29 31h105q26 0 32 -29 q12 -50 53 -85.5t105 -35.5t105.5 35.5t52.5 85.5q6 29 32 29h105q33 0 30 -31q-8 -80 -48.5 -144t-111.5 -101.5t-165 -37.5t-165 37.5z" glyph-name="gbreve.ss02" vert-adv-y="1980"/>
<glyph d="M415 1208q-12 0 -19.5 7.5t-7.5 20.5v79q0 127 9.5 239t25.5 184q6 21 33 21h127q15 0 21.5 -7.5t4.5 -22.5q-13 -167 -13 -289v-38h234q12 0 19.5 -7.5t7.5 -19.5v-139q0 -13 -7.5 -20.5t-19.5 -7.5h-415zM1126 990q14 0 22 -8t8 -22v-111q0 -29 -30 -28l-138 8 q36 -44 50 -89t14 -100q0 -147 -92.5 -222.5t-288.5 -75.5h-252q-50 0 -76.5 -23t-26.5 -66q0 -46 32 -68t105 -22h370q154 0 224 -67t70 -192q0 -111 -49.5 -175.5t-159.5 -93.5t-300 -29q-187 0 -300 29.5t-163.5 87t-50.5 145.5q0 83 41 137t115 71q-63 18 -97.5 57.5 t-34.5 113.5q0 69 35 110.5t117 61.5q-127 70 -127 254q0 105 44 175t144 106t265 36h530zM742 530q51 14 71 45t20 86q0 54 -20 85.5t-71 46t-146 14.5q-93 0 -143.5 -14.5t-70.5 -46t-20 -85.5q0 -55 20 -85.5t70.5 -45t143.5 -14.5q95 0 146 14zM356 -17q-30 -28 -30 -79 q0 -44 25 -69t86 -36.5t171 -11.5q108 0 168.5 11t86 36t25.5 68q0 30 -11 47t-38.5 25.5t-79.5 8.5h-403z" glyph-name="uni0123.ss02" vert-adv-y="1980"/>
<glyph d="M1126 990q14 0 22 -8t8 -22v-111q0 -29 -30 -28l-138 8q36 -44 50 -89t14 -100q0 -147 -92.5 -222.5t-288.5 -75.5h-252q-50 0 -76.5 -23t-26.5 -66q0 -46 32 -68t105 -22h370q154 0 224 -67t70 -192q0 -111 -49.5 -175.5t-159.5 -93.5t-300 -29q-187 0 -300 29.5 t-163.5 87t-50.5 145.5q0 83 41 137t115 71q-63 18 -97.5 57.5t-34.5 113.5q0 69 35 110.5t117 61.5q-127 70 -127 254q0 105 44 175t144 106t265 36h530zM742 530q51 14 71 45t20 86q0 54 -20 85.5t-71 46t-146 14.5q-93 0 -143.5 -14.5t-70.5 -46t-20 -85.5 q0 -55 20 -85.5t70.5 -45t143.5 -14.5q95 0 146 14zM356 -17q-30 -28 -30 -79q0 -44 25 -69t86 -36.5t171 -11.5q108 0 168.5 11t86 36t25.5 68q0 30 -11 47t-38.5 25.5t-79.5 8.5h-403zM550.5 1265.5q-29.5 17.5 -47 47.5t-17.5 66q0 35 17.5 64.5t47 46.5t64.5 17 t64.5 -17t47 -46.5t17.5 -64.5q0 -36 -17.5 -66t-47 -47.5t-64.5 -17.5t-64.5 17.5z" glyph-name="gdotaccent.ss02" vert-adv-y="1980"/>
<glyph d="M560.5 1233q-34.5 20 -54.5 54t-20 75t20 75.5t54.5 54.5t75.5 20t75.5 -20t54.5 -54.5t20 -75.5t-20 -75t-54.5 -54t-75.5 -20t-75.5 20zM1034 207q14 0 22 -8t8 -22v-147q0 -13 -8 -21.5t-22 -8.5h-847q-13 0 -21.5 8.5t-8.5 21.5v147q0 14 8.5 22t21.5 8h338v576h-278 q-13 0 -21.5 8.5t-8.5 21.5v147q0 14 8.5 22t21.5 8h500q14 0 22 -8t8 -22v-753h257z" glyph-name="i.ss03" vert-adv-y="1980"/>
<glyph d="M1069 207q14 0 22 -8t8 -22v-147q0 -13 -8 -21.5t-22 -8.5h-892q-13 0 -21.5 8.5t-8.5 21.5v147q0 14 8.5 22t21.5 8h328v986h-303q-13 0 -21.5 8.5t-8.5 21.5v147q0 14 8.5 22t21.5 8h525q14 0 22 -8t8 -22v-1163h312z" glyph-name="l.ss03" vert-adv-y="1980"/>
<glyph d="M1124.5 143q8.5 -13 8.5 -39v-34q0 -47 -33 -66t-82 -19q-78 0 -129.5 44.5t-51.5 130.5v21h-16q-30 -87 -114 -146.5t-218 -59.5h-50q-148 0 -233 77.5t-85 218.5q0 129 76.5 203t235.5 84l377 25v53q0 67 -18.5 103.5t-61.5 52t-121 15.5q-97 0 -144.5 -24t-55.5 -82 q-3 -21 -28 -21h-182q-14 0 -22 7.5t-7 22.5q7 300 445 300q164 0 261 -42t139 -126t42 -215v-338q0 -56 8.5 -79t28.5 -38q22 -16 30.5 -29zM557 167q66 0 124 21.5t93.5 66.5t35.5 111v59l-315 -23q-129 -10 -129 -115q0 -120 161 -120h30z" glyph-name="a.ss05" horiz-adv-x="1223" vert-adv-y="1980"/>
<glyph d="M858 322q11 14 23 14q8 0 17 -6l134 -91q15 -10 15 -23q0 -8 -6 -17q-65 -103 -175 -163.5t-249 -60.5q-146 0 -264 67t-185.5 185t-67.5 266t67.5 266t185.5 184.5t264 66.5q139 0 249 -60.5t175 -163.5q6 -9 6 -17q0 -13 -16 -24l-133 -90q-9 -6 -17 -6q-12 0 -23 14 q-89 113 -233 113q-80 0 -143.5 -35.5t-100 -100t-36.5 -147.5t36.5 -148t100 -100.5t143.5 -35.5q144 0 233 113z" glyph-name="c.ss05" horiz-adv-x="1147" vert-adv-y="1980"/>
<glyph d="M1079.5 465q-6.5 -21 -26 -31.5t-57.5 -10.5l-655 1q8 -118 93 -183t223 -65q66 0 125 15t106 41q17 9 29 9q13 0 26 -9.5t30 -31.5q33 -41 33 -64q0 -19 -22 -40q-56 -55 -149 -88t-206 -33q-157 0 -277 65.5t-186 183t-66 270.5q0 152 63.5 269t179 182t265.5 65 q148 0 256 -62.5t165 -173t57 -252.5q0 -36 -6.5 -57zM436.5 744.5q-68.5 -51.5 -86.5 -151.5h513q-14 99 -80 151t-171 52q-107 0 -175.5 -51.5z" glyph-name="e.ss05" horiz-adv-x="1186" vert-adv-y="1980"/>
<glyph d="M483.5 1243q-34.5 20 -54.5 54t-20 75t20 75.5t54.5 54.5t75.5 20t75.5 -20t54.5 -54.5t20 -75.5t-20 -75t-54.5 -54t-75.5 -20t-75.5 20zM1001 207q14 0 22 -8t8 -22v-147q0 -13 -8 -21.5t-22 -8.5h-252q-146 0 -223 81t-77 229v473h-309q-13 0 -21.5 8.5t-8.5 21.5v147 q0 14 8.5 22t21.5 8h531q14 0 22 -8t8 -22v-604q0 -75 36 -112t111 -37h153z" glyph-name="i.ss05" horiz-adv-x="1141" vert-adv-y="1980"/>
<glyph d="M758 0q-152 0 -236 88t-84 242v863h-333q-13 0 -21.5 8.5t-8.5 21.5v147q0 14 8.5 22t21.5 8h555q14 0 22 -8t8 -22v-1003q0 -75 42 -117.5t117 -42.5h168q14 0 22 -8t8 -22v-147q0 -13 -8 -21.5t-22 -8.5h-259z" glyph-name="l.ss05" horiz-adv-x="1172" vert-adv-y="1980"/>
<glyph d="M1505 962q78 -50 121.5 -144.5t43.5 -223.5v-564q0 -13 -8 -21.5t-22 -8.5h-192q-13 0 -21.5 8.5t-8.5 21.5v516q0 108 -50 170.5t-139 62.5q-88 0 -138 -62.5t-50 -170.5v-516q0 -13 -8 -21.5t-22 -8.5h-192q-13 0 -21.5 8.5t-8.5 21.5v516q0 108 -50 170.5t-139 62.5 q-87 0 -137.5 -62.5t-50.5 -170.5v-516q0 -13 -8 -21.5t-22 -8.5h-192q-13 0 -21.5 8.5t-8.5 21.5v930q0 14 8.5 22t21.5 8h184q13 0 21 -8t9 -22l8 -141h29q31 84 103 138.5t175 54.5q95 0 168 -50t113 -143h30q31 87 110.5 140t185.5 53q101 0 179 -50z" glyph-name="m.ss05" horiz-adv-x="1830" vert-adv-y="1980"/>
<glyph d="M348 43q-116 68 -182 186.5t-66 263.5t65.5 263.5t182 186t261.5 67.5t261.5 -67.5t182.5 -186t66 -263.5t-66 -263.5t-182.5 -186.5t-261.5 -68t-261 68zM745 245q60 36 94 100.5t34 147.5t-34 147.5t-94 100t-136 35.5t-136 -35.5t-94 -100t-34 -147.5t34 -147.5 t94 -100.5t136 -36t136 36z" glyph-name="o.ss05" horiz-adv-x="1219" vert-adv-y="1980"/>
<glyph d="M1609 990q26 0 26 -21q0 -3 -2 -13l-272 -932q-4 -12 -13.5 -18t-22.5 -6h-201q-13 0 -22.5 6t-13.5 18l-215 736l-216 -736q-4 -12 -13.5 -18t-22.5 -6h-201q-13 0 -22.5 6t-13.5 18l-272 932q-2 10 -2 13q0 21 26 21h176q11 0 17 -5.5t10 -18.5l200 -656l191 656 q5 13 10.5 18.5t16.5 5.5h231q11 0 16.5 -5.5t10.5 -18.5l191 -656l200 656q4 13 10 18.5t17 5.5h176z" glyph-name="w.ss05" horiz-adv-x="1745" vert-adv-y="1980"/>
<glyph d="M960 1400q19 0 19 -19v-680q0 -19 -19 -19h-124q-18 0 -22 17l-11 58q-91 -75 -211 -75q-96 0 -174 48.5t-122.5 132t-44.5 183.5t44.5 183.5t123 132t174.5 48.5q119 0 210 -75l10 49q4 16 22 16h125zM719 884q43 24 67.5 66.5t24.5 95.5t-24.5 95.5t-67.5 67t-95 24.5 t-94.5 -24t-67 -67t-24.5 -96t24.5 -95.5t67 -66.5t94.5 -24t95 24z" glyph-name="ordfeminine" unicode="ª" vert-adv-y="1980"/>
<glyph d="M432.5 731q-83.5 49 -132.5 132.5t-49 182.5t49 182.5t132.5 132.5t182.5 49t182.5 -49t132.5 -132.5t49 -182.5t-49 -182.5t-132.5 -132.5t-182.5 -49t-182.5 49zM709 884.5q43 24.5 68 67t25 94.5t-25 94.5t-68 67.5t-94 25t-94 -25t-67.5 -67.5t-24.5 -94.5 t24.5 -94.5t67.5 -67t94 -24.5t94 24.5z" glyph-name="ordmasculine" unicode="º" vert-adv-y="1980"/>
<glyph d="M822 1389.5q63 -32.5 101 -98.5t38 -164v-429q0 -16 -15 -16h-145q-15 0 -15 16v384q0 88 -45 136.5t-119 48.5q-53 0 -93.5 -24.5t-62.5 -67t-22 -93.5v-385q0 -15 -15 -15h-145q-15 0 -15 15v688q0 15 15 15h145q7 0 11 -4t4 -11v-98h11q29 57 87.5 96t142.5 39 q74 0 137 -32.5z" glyph-name="uni207F" unicode="ⁿ" vert-adv-y="1980"/>
<glyph d="M1162 34q2 -8 2 -11q0 -23 -26 -23h-204q-29 0 -34 24l-60 237h-450l-60 -237q-5 -24 -34 -24h-203q-12 0 -19 6t-7 16q0 4 2 12l349 1282q4 12 13.5 18t21.5 6h324q12 0 21.5 -6t13.5 -18zM597 1070l-150 -586h336l-150 586h-36z" glyph-name="uni0410" unicode="А" vert-adv-y="1980"/>
<glyph d="M638 901q487 0 487 -451q0 -219 -117.5 -334.5t-369.5 -115.5h-468q-13 0 -21.5 8.5t-8.5 21.5v1280q0 14 8.5 22t21.5 8h724q14 0 22 -8t8 -22v-172q0 -13 -8 -21.5t-22 -8.5h-493v-207h237zM624 232q126 0 188 49t62 169q0 119 -62 168.5t-188 49.5h-223v-436h223z" glyph-name="uni0411" unicode="Б" vert-adv-y="1980"/>
<glyph d="M153 0q-13 0 -21.5 8.5t-8.5 21.5v1280q0 14 8.5 22t21.5 8h498q210 0 307 -91.5t97 -237.5q0 -106 -53 -181t-168 -99v-20q150 -21 221 -108t71 -229q0 -185 -116.5 -279.5t-377.5 -94.5h-479zM626 815q98 0 140.5 38t42.5 116q0 75 -41.5 107t-141.5 32h-242v-293h242z M638 232q121 0 173.5 42t52.5 137q0 93 -53 139.5t-173 46.5h-254v-365h254z" glyph-name="uni0412" unicode="В" vert-adv-y="1980"/>
<glyph d="M1076 1332q8 -8 8 -22v-172q0 -13 -8 -21.5t-22 -8.5h-626v-1078q0 -13 -8 -21.5t-22 -8.5h-201q-13 0 -21.5 8.5t-8.5 21.5v1280q0 14 8.5 22t21.5 8h857q14 0 22 -8z" glyph-name="uni0413" unicode="Г" vert-adv-y="1980"/>
<glyph d="M1076 1332q8 -8 8 -22v-172q0 -13 -8 -21.5t-22 -8.5h-626v-1078q0 -13 -8 -21.5t-22 -8.5h-201q-13 0 -21.5 8.5t-8.5 21.5v1280q0 14 8.5 22t21.5 8h857q14 0 22 -8zM538 1547q-13 0 -20.5 5t-7.5 15q0 4 4 14l120 252q6 13 14 18.5t20 5.5h168q13 0 20.5 -5t7.5 -15 q0 -4 -4 -14l-120 -252q-6 -13 -14 -18.5t-20 -5.5h-168z" glyph-name="uni0403" unicode="Ѓ" vert-adv-y="1980"/>
<glyph d="M1054 1502q14 0 22 -8t8 -22v-334q0 -13 -8 -21.5t-22 -8.5h-626v-1078q0 -13 -8 -21.5t-22 -8.5h-201q-13 0 -21.5 8.5t-8.5 21.5v1280q0 14 8.5 22t21.5 8h654v132q0 14 8.5 22t21.5 8h173z" glyph-name="uni0490" unicode="Ґ" vert-adv-y="1980"/>
<glyph d="M1165 232q14 0 22 -8t8 -22v-310q0 -14 -8 -22t-22 -8h-183q-13 0 -21.5 8t-8.5 22v108h-674v-108q0 -14 -8 -22t-22 -8h-183q-13 0 -21.5 8t-8.5 22v310q0 14 8.5 22t21.5 8q89 0 142.5 53t53.5 164v861q0 14 8.5 22t21.5 8h725q14 0 22 -8t8 -22v-1078h119zM522 447 q0 -130 -64 -215h326v876h-262v-661z" glyph-name="uni0414" unicode="Д" vert-adv-y="1980"/>
<glyph d="M187 0q-13 0 -21.5 8.5t-8.5 21.5v1280q0 14 8.5 22t21.5 8h855q14 0 22 -8t8 -22v-172q0 -13 -8 -21.5t-22 -8.5h-624v-317h579q14 0 22 -8t8 -22v-172q0 -13 -8 -21.5t-22 -8.5h-579v-327h626q14 0 22 -8t8 -22v-172q0 -13 -8 -21.5t-22 -8.5h-857z" glyph-name="uni0415" unicode="Е" vert-adv-y="1980"/>
<glyph d="M187 0q-13 0 -21.5 8.5t-8.5 21.5v1280q0 14 8.5 22t21.5 8h855q14 0 22 -8t8 -22v-172q0 -13 -8 -21.5t-22 -8.5h-624v-317h579q14 0 22 -8t8 -22v-172q0 -13 -8 -21.5t-22 -8.5h-579v-327h626q14 0 22 -8t8 -22v-172q0 -13 -8 -21.5t-22 -8.5h-857zM338 1615.5 q-29 17.5 -46.5 47.5t-17.5 66q0 35 17.5 64.5t47 46.5t63.5 17q35 0 64.5 -17t47 -46.5t17.5 -64.5q0 -36 -17.5 -66t-47 -47.5t-64.5 -17.5t-64 17.5zM763.5 1615.5q-29.5 17.5 -47 47.5t-17.5 66q0 35 17.5 64.5t47 46.5t64.5 17t64.5 -17t47 -46.5t17.5 -64.5 q0 -36 -17.5 -66t-47 -47.5t-64.5 -17.5t-64.5 17.5z" glyph-name="uni0401" unicode="Ё" vert-adv-y="1980"/>
<glyph d="M1187 36q5 -12 5 -18q0 -18 -23 -18h-176q-30 0 -36 18l-204 498l-25 -49v-437q0 -13 -8 -21.5t-22 -8.5h-166q-13 0 -21.5 8.5t-8.5 21.5v437l-25 49l-203 -498q-8 -18 -36 -18h-177q-23 0 -23 18q0 6 5 18l314 711l-289 557q-6 12 -6 21q0 15 22 15h183q28 0 35 -16 l200 -457v443q0 14 8.5 22t21.5 8h166q14 0 22 -8t8 -22v-443l200 457q7 16 35 16h183q22 0 22 -15q0 -9 -6 -21l-289 -557z" glyph-name="uni0416" unicode="Ж" vert-adv-y="1980"/>
<glyph d="M858 699q132 -37 204 -121t72 -209q0 -118 -66 -207.5t-185.5 -138.5t-276.5 -49q-154 0 -267 48.5t-173.5 141t-60.5 222.5q0 14 7.5 22t20.5 8h183q32 0 33 -27q4 -95 73.5 -144.5t182.5 -49.5q120 0 190 53.5t70 146.5q0 92 -80 149.5t-260 57.5q-15 0 -22.5 8 t-7.5 21v128q0 14 8 22t23 8q173 0 243 52t70 129q0 81 -65 125.5t-165 44.5q-105 0 -173 -50t-72 -144q-1 -26 -33 -26h-183q-13 0 -20.5 7.5t-7.5 20.5q0 130 60.5 223t171 141.5t258.5 48.5q137 0 244.5 -41.5t168 -120t60.5 -185.5q0 -100 -56 -174.5t-169 -117.5v-23z " glyph-name="uni0417" unicode="З" vert-adv-y="1980"/>
<glyph d="M1075 1332q8 -8 8 -22v-1280q0 -13 -8 -21.5t-22 -8.5h-175q-13 0 -21.5 8.5t-8.5 21.5v893l-407 -903q-9 -20 -36 -20h-228q-13 0 -21.5 8.5t-8.5 21.5v1280q0 14 8.5 22t21.5 8h175q14 0 22 -8t8 -22v-892l406 902q10 20 36 20h229q14 0 22 -8z" glyph-name="uni0418" unicode="И" vert-adv-y="1980"/>
<glyph d="M450 1638.5q-71 37.5 -111 101.5t-48 144q-3 31 29 31h105q26 0 32 -29q12 -50 53 -85.5t105 -35.5t105.5 35.5t52.5 85.5q6 29 32 29h105q33 0 30 -31q-8 -80 -48.5 -144t-111.5 -101.5t-165 -37.5t-165 37.5zM1075 1332q8 -8 8 -22v-1280q0 -13 -8 -21.5t-22 -8.5h-175 q-13 0 -21.5 8.5t-8.5 21.5v893l-407 -903q-9 -20 -36 -20h-228q-13 0 -21.5 8.5t-8.5 21.5v1280q0 14 8.5 22t21.5 8h175q14 0 22 -8t8 -22v-892l406 902q10 20 36 20h229q14 0 22 -8z" glyph-name="uni0419" unicode="Й" vert-adv-y="1980"/>
<glyph d="M1164 36q7 -10 7 -18t-6.5 -13t-18.5 -5h-222q-12 0 -20.5 4t-15.5 14l-366 518l-150 -190v-316q0 -13 -8 -21.5t-22 -8.5h-202q-13 0 -21.5 8.5t-8.5 21.5v1280q0 14 8.5 22t21.5 8h202q14 0 22 -8t8 -22v-602l464 616q12 16 36 16h242q12 0 18 -4.5t6 -12.5 q0 -10 -8 -19l-455 -575z" glyph-name="uni041A" unicode="К" vert-adv-y="1980"/>
<glyph d="M1086 1332q8 -8 8 -22v-1280q0 -13 -8 -21.5t-22 -8.5h-202q-13 0 -21.5 8.5t-8.5 21.5v1078h-329v-707q0 -135 -51 -227.5t-141 -138.5t-209 -46q-18 0 -23 16l-60 197q-1 3 -1 7q0 6 4 10t11 5q100 7 154 59t54 163v864q0 14 8.5 22t21.5 8h793q14 0 22 -8z" glyph-name="uni041B" unicode="Л" vert-adv-y="1980"/>
<glyph d="M153 0q-13 0 -21.5 8.5t-8.5 21.5v1280q0 14 8.5 22t21.5 8h208q13 0 23.5 -5t12.5 -15l211 -926h14l211 926q2 10 12.5 15t23.5 5h208q14 0 22 -8t8 -22v-1280q0 -13 -8 -21.5t-22 -8.5h-155q-13 0 -21.5 8.5t-8.5 21.5v779h-14l-167 -685q-3 -12 -12.5 -18t-22.5 -6 h-121q-13 0 -23 6.5t-13 17.5l-167 685h-14v-779q0 -13 -8 -21.5t-22 -8.5h-155z" glyph-name="uni041C" unicode="М" vert-adv-y="1980"/>
<glyph d="M1062 1340q14 0 22 -8t8 -22v-1280q0 -13 -8 -21.5t-22 -8.5h-201q-13 0 -21.5 8.5t-8.5 21.5v513h-432v-513q0 -13 -8 -21.5t-22 -8.5h-201q-13 0 -21.5 8.5t-8.5 21.5v1280q0 14 8.5 22t21.5 8h201q14 0 22 -8t8 -22v-535h432v535q0 14 8.5 22t21.5 8h201z" glyph-name="uni041D" unicode="Н" vert-adv-y="1980"/>
<glyph d="M325 41.5q-111 71.5 -164 223.5t-53 400t53 400.5t164 223.5t290 71t290 -71t164 -223.5t53 -400.5t-53 -400t-164 -223.5t-290 -71.5t-290 71.5zM754.5 257q54.5 37 84.5 134.5t30 273.5t-30 273.5t-84.5 134.5t-139.5 37t-139.5 -37t-84.5 -134.5t-30 -273.5t30 -273.5 t84.5 -134.5t139.5 -37t139.5 37z" glyph-name="uni041E" unicode="О" vert-adv-y="1980"/>
<glyph d="M1066 1334q8 -8 8 -22v-1282q0 -13 -8 -21.5t-22 -8.5h-202q-13 0 -21.5 8.5t-8.5 21.5v1079h-394v-1079q0 -13 -8 -21.5t-22 -8.5h-201q-13 0 -21.5 8.5t-8.5 21.5v1282q0 14 8.5 22t21.5 8h857q14 0 22 -8z" glyph-name="uni041F" unicode="П" vert-adv-y="1980"/>
<glyph d="M638 1340q252 0 369.5 -115.5t117.5 -334.5q0 -450 -487 -450h-237v-410q0 -13 -8 -21.5t-22 -8.5h-201q-13 0 -21.5 8.5t-8.5 21.5v1280q0 14 8.5 22t21.5 8h468zM624 672q126 0 188 49.5t62 168.5q0 120 -62 169t-188 49h-223v-436h223z" glyph-name="uni0420" unicode="Р" vert-adv-y="1980"/>
<glyph d="M330 41q-115 71 -168.5 223.5t-53.5 400.5q0 249 53.5 401t168.5 223t302 71q153 0 257 -48t163.5 -160t68.5 -301q2 -33 -28 -33h-183q-29 0 -32 26q-12 107 -44.5 165t-82 79.5t-120.5 21.5q-93 0 -151 -37t-88.5 -134t-30.5 -274t30.5 -274t88.5 -134t151 -37 q73 0 122.5 18.5t81 64.5t43.5 127q3 26 32 26h183q30 0 28 -32q-13 -241 -137 -347.5t-352 -106.5q-187 0 -302 71z" glyph-name="uni0421" unicode="С" vert-adv-y="1980"/>
<glyph d="M514 0q-13 0 -21.5 8.5t-8.5 21.5v1078h-354q-13 0 -21.5 8.5t-8.5 21.5v172q0 14 8.5 22t21.5 8h970q14 0 22 -8t8 -22v-172q0 -13 -8 -21.5t-22 -8.5h-354v-1078q0 -13 -8 -21.5t-22 -8.5h-202z" glyph-name="uni0422" unicode="Т" vert-adv-y="1980"/>
<glyph d="M1156 1340q12 0 18.5 -5t6.5 -14q0 -7 -5 -17l-681 -1284q-10 -20 -36 -20h-212q-25 0 -25 18q0 6 5 18l248 467l-420 801q-5 10 -5 17q0 9 6.5 14t18.5 5h210q26 0 36 -20l289 -563l299 563q10 20 36 20h211z" glyph-name="uni0423" unicode="У" vert-adv-y="1980"/>
<glyph d="M736 1201q225 0 327 -148t102 -383t-102 -383t-327 -148h-3v-109q0 -13 -8 -21.5t-22 -8.5h-176q-13 0 -21.5 8.5t-8.5 21.5v109h-3q-225 0 -327 148t-102 383t102 383t327 148h3v109q0 14 8.5 22t21.5 8h176q14 0 22 -8t8 -22v-109h3zM497 372v597h-3q-74 0 -114.5 -35 t-56 -99.5t-15.5 -164.5t15.5 -164.5t56 -99t114.5 -34.5h3zM736 372q74 0 114.5 34.5t56 99t15.5 164.5t-15.5 164.5t-56 99.5t-114.5 35h-3v-597h3z" glyph-name="uni0424" unicode="Ф" vert-adv-y="1980"/>
<glyph d="M1143 36q6 -10 6 -18t-6.5 -13t-19.5 -5h-213q-25 0 -36 20l-259 430l-259 -430q-11 -20 -36 -20h-212q-13 0 -19.5 5t-6.5 13t6 18l388 645l-375 623q-6 11 -6 18q0 8 6.5 13t19.5 5h212q25 0 36 -20l246 -408l246 408q11 20 36 20h212q13 0 19.5 -5t6.5 -13 q0 -7 -6 -18l-375 -623z" glyph-name="uni0425" unicode="Х" vert-adv-y="1980"/>
<glyph d="M1109 1340q14 0 22 -8t8 -22v-1280q0 -13 -8 -21.5t-22 -8.5h-201q-13 0 -21.5 8.5t-8.5 21.5v446q-66 -79 -160.5 -124t-208.5 -45q-121 0 -216 51.5t-148.5 151.5t-53.5 240v560q0 14 8.5 22t21.5 8h201q14 0 22 -8t8 -22v-506q0 -115 71.5 -178.5t188.5 -63.5 q78 0 138 28.5t94 83t34 131.5v505q0 14 8.5 22t21.5 8h201z" glyph-name="uni0427" unicode="Ч" vert-adv-y="1980"/>
<glyph d="M1162 232q14 0 22 -8t8 -22v-310q0 -14 -8 -22t-22 -8h-184q-13 0 -21.5 8t-8.5 22v108h-758q-13 0 -21.5 8.5t-8.5 21.5v1280q0 14 8.5 22t21.5 8h201q14 0 22 -8t8 -22v-1078h354v1078q0 14 8.5 22t21.5 8h202q14 0 22 -8t8 -22v-1078h125z" glyph-name="uni0426" unicode="Ц" vert-adv-y="1980"/>
<glyph d="M138 0q-13 0 -21.5 8.5t-8.5 21.5v1280q0 14 8.5 22t21.5 8h166q14 0 22 -8t8 -22v-1078h168v1078q0 14 8.5 22t21.5 8h166q14 0 22 -8t8 -22v-1078h168v1078q0 14 8.5 22t21.5 8h166q14 0 22 -8t8 -22v-1280q0 -13 -8 -21.5t-22 -8.5h-954z" glyph-name="uni0428" unicode="Ш" vert-adv-y="1980"/>
<glyph d="M1162 232q14 0 22 -8t8 -22v-310q0 -14 -8 -22t-22 -8h-184q-13 0 -21.5 8t-8.5 22v108h-810q-13 0 -21.5 8.5t-8.5 21.5v1280q0 14 8.5 22t21.5 8h166q14 0 22 -8t8 -22v-1078h148v1078q0 14 8.5 22t21.5 8h166q14 0 22 -8t8 -22v-1078h148v1078q0 14 8.5 22t21.5 8h166 q14 0 22 -8t8 -22v-1078h80z" glyph-name="uni0429" unicode="Щ" vert-adv-y="1980"/>
<glyph d="M170 0q-13 0 -21.5 8.5t-8.5 21.5v1280q0 14 8.5 22t21.5 8h201q14 0 22 -8t8 -22v-409h237q487 0 487 -451q0 -219 -117.5 -334.5t-369.5 -115.5h-468zM401 668v-436h223q126 0 188 49t62 169q0 119 -62 168.5t-188 49.5h-223z" glyph-name="uni042C" unicode="Ь" vert-adv-y="1980"/>
<glyph d="M664 915q181 0 286.5 -53.5t149.5 -153.5t44 -250t-44 -250.5t-149.5 -154t-286.5 -53.5h-411q-13 0 -21.5 8.5t-8.5 21.5v1078h-136q-13 0 -21.5 8.5t-8.5 21.5v172q0 14 8.5 22t21.5 8h367q14 0 22 -8t8 -22v-395h180zM645 232q91 0 143.5 18t78.5 66.5t26 141.5 q0 92 -26 140.5t-78.5 66.5t-143.5 18h-161v-451h161z" glyph-name="uni042A" unicode="Ъ" vert-adv-y="1980"/>
<glyph d="M80 0q-13 0 -21.5 8.5t-8.5 21.5v1340q0 14 8.5 22t21.5 8h193q14 0 22 -8t8 -22v-455h99q161 0 257 -52t137 -152.5t41 -252.5q0 -153 -41 -253.5t-137 -152.5t-257 -52h-322zM957 0q-13 0 -21.5 8.5t-8.5 21.5v1340q0 14 8.5 22t21.5 8h193q14 0 22 -8t8 -22v-1340 q0 -13 -8 -21.5t-22 -8.5h-193zM303 683v-451h97q70 0 109 16.5t58.5 65t19.5 144.5t-19.5 144t-59 64.5t-108.5 16.5h-97z" glyph-name="uni042B" unicode="Ы" vert-adv-y="1980"/>
<glyph d="M1112 456q30 0 28 -32q-13 -241 -136.5 -347.5t-351.5 -106.5q-187 0 -302 71t-169 223.5t-54 400.5q0 249 54 401t168.5 223t302.5 71q153 0 257 -48t163 -160t68 -301q2 -33 -28 -33h-182q-29 0 -33 26q-12 107 -44.5 165t-81.5 79.5t-120 21.5q-87 0 -143 -32 t-88 -114t-38 -231h374q14 0 22 -8t8 -22v-109q0 -13 -8 -21.5t-22 -8.5h-372q8 -135 41 -210t88 -104.5t138 -29.5q73 0 122.5 18.5t80.5 64.5t43 127q4 26 33 26h182z" glyph-name="uni0404" unicode="Є" vert-adv-y="1980"/>
<glyph d="M898.5 1289q114.5 -71 168.5 -223t54 -401q0 -248 -54 -400.5t-169 -223.5t-302 -71q-228 0 -351.5 106.5t-136.5 347.5q-2 32 28 32h182q29 0 33 -26q12 -81 43 -127t80.5 -64.5t122.5 -18.5q83 0 138 29.5t88 104.5t41 210h-372q-13 0 -21.5 8.5t-8.5 21.5v109 q0 14 8.5 22t21.5 8h374q-6 149 -38 231t-88 114t-143 32q-71 0 -120 -21.5t-81.5 -79.5t-44.5 -165q-4 -26 -33 -26h-182q-30 0 -28 33q9 189 68 301t163 160t257 48q188 0 302.5 -71z" glyph-name="uni042D" unicode="Э" vert-adv-y="1980"/>
<glyph d="M161 0q-13 0 -21.5 8.5t-8.5 21.5v172q0 14 8.5 22t21.5 8h323v876h-323q-13 0 -21.5 8.5t-8.5 21.5v172q0 14 8.5 22t21.5 8h908q14 0 22 -8t8 -22v-172q0 -13 -8 -21.5t-22 -8.5h-323v-876h323q14 0 22 -8t8 -22v-172q0 -13 -8 -21.5t-22 -8.5h-908z" glyph-name="uni0406" unicode="І" vert-adv-y="1980"/>
<glyph d="M161 0q-13 0 -21.5 8.5t-8.5 21.5v172q0 14 8.5 22t21.5 8h323v876h-323q-13 0 -21.5 8.5t-8.5 21.5v172q0 14 8.5 22t21.5 8h908q14 0 22 -8t8 -22v-172q0 -13 -8 -21.5t-22 -8.5h-323v-876h323q14 0 22 -8t8 -22v-172q0 -13 -8 -21.5t-22 -8.5h-908zM338 1615.5 q-29 17.5 -46.5 47.5t-17.5 66q0 35 17.5 64.5t47 46.5t63.5 17q35 0 64.5 -17t47 -46.5t17.5 -64.5q0 -36 -17.5 -66t-47 -47.5t-64.5 -17.5t-64 17.5zM763.5 1615.5q-29.5 17.5 -47 47.5t-17.5 66q0 35 17.5 64.5t47 46.5t64.5 17t64.5 -17t47 -46.5t17.5 -64.5 q0 -36 -17.5 -66t-47 -47.5t-64.5 -17.5t-64.5 17.5z" glyph-name="uni0407" unicode="Ї" vert-adv-y="1980"/>
<glyph d="M991 1294.5q87 -61.5 130 -212t43 -417.5t-43 -417.5t-130 -212t-231 -61.5q-134 0 -216.5 55.5t-125.5 187t-49 362.5h-86v-549q0 -13 -8 -21.5t-22 -8.5h-165q-13 0 -17 7.5t-4 22.5v1280q0 15 4 22.5t17 7.5h165q14 0 22 -8t8 -22v-524h87q9 217 52.5 341t125 176.5 t212.5 52.5q144 0 231 -61.5zM860 263q36 33 56.5 128t20.5 274t-20.5 274t-56.5 128t-94 33t-94 -33t-56.5 -128t-20.5 -274t20.5 -274t56.5 -128t94 -33t94 33z" glyph-name="uni042E" unicode="Ю" vert-adv-y="1980"/>
<glyph d="M1056 1340q14 0 22 -8t8 -22v-1280q0 -13 -8 -21.5t-22 -8.5h-202q-13 0 -21.5 8.5t-8.5 21.5v410h-237h-9l-211 -417q-6 -12 -14 -17.5t-21 -5.5h-199q-26 0 -26 19q0 8 4 16l227 446q-238 95 -238 409q0 219 117.5 334.5t369.5 115.5h469zM824 672v436h-223 q-126 0 -188 -49t-62 -169q0 -119 62 -168.5t188 -49.5h223z" glyph-name="uni042F" unicode="Я" vert-adv-y="1980"/>
<glyph d="M1118.5 143q8.5 -13 8.5 -39v-34q0 -47 -33 -66t-82 -19q-78 0 -129.5 44.5t-51.5 130.5v21h-16q-30 -87 -114 -146.5t-218 -59.5h-50q-148 0 -233 77.5t-85 218.5q0 129 76.5 203t235.5 84l377 25v53q0 67 -18.5 103.5t-61.5 52t-121 15.5q-97 0 -144.5 -24t-55.5 -82 q-3 -21 -28 -21h-182q-14 0 -22 7.5t-7 22.5q7 300 445 300q164 0 261 -42t139 -126t42 -215v-338q0 -56 8.5 -79t28.5 -38q22 -16 30.5 -29zM551 167q66 0 124 21.5t93.5 66.5t35.5 111v59l-315 -23q-129 -10 -129 -115q0 -120 161 -120h30z" glyph-name="uni0430" unicode="а" vert-adv-y="1980"/>
<glyph d="M929 945q100 -68 153 -185.5t53 -264.5q0 -148 -54 -266.5t-156 -186.5t-240 -68q-100 0 -178.5 37t-135.5 102l-7 -83q-2 -14 -9.5 -22t-20.5 -8h-172q-13 0 -21.5 8.5t-8.5 21.5v1027q0 173 81 258t250 85h235q62 0 88 9.5t40 30.5h199q-3 -96 -43.5 -150t-110.5 -75.5 t-174 -21.5h-168q-82 0 -114.5 -39t-32.5 -122v-170h22q37 68 111.5 109.5t179.5 41.5q134 0 234 -68zM825.5 282.5q66.5 78.5 66.5 212.5t-66 211t-187 77q-120 0 -188.5 -77.5t-68.5 -210.5q0 -88 31 -153.5t89 -101.5t137 -36q120 0 186.5 78.5z" glyph-name="uni0431" unicode="б" vert-adv-y="1980"/>
<glyph d="M920 512q111 -14 173 -76.5t62 -157.5q0 -88 -54 -150.5t-153.5 -95t-236.5 -32.5h-541q-13 0 -21.5 8.5t-8.5 21.5v930q0 14 8.5 22t21.5 8h551q104 0 185.5 -31t127.5 -90t46 -139q0 -75 -41.5 -127.5t-118.5 -70.5v-20zM822 759.5q-29 24.5 -111 24.5h-319v-183h316 q82 0 112.5 25t30.5 68q0 41 -29 65.5zM743 206q96 0 133.5 28.5t37.5 77.5q0 50 -38 79.5t-136 29.5h-348v-215h351z" glyph-name="uni0432" unicode="в" vert-adv-y="1980"/>
<glyph d="M1081 982q8 -8 8 -22v-146q0 -13 -8 -21.5t-22 -8.5h-646v-754q0 -13 -8 -21.5t-22 -8.5h-192q-13 0 -21.5 8.5t-8.5 21.5v930q0 14 8.5 22t21.5 8h868q14 0 22 -8z" glyph-name="uni0433" unicode="г" vert-adv-y="1980"/>
<glyph d="M1081 982q8 -8 8 -22v-146q0 -13 -8 -21.5t-22 -8.5h-646v-754q0 -13 -8 -21.5t-22 -8.5h-192q-13 0 -21.5 8.5t-8.5 21.5v930q0 14 8.5 22t21.5 8h868q14 0 22 -8zM538 1197q-13 0 -20.5 5t-7.5 15q0 4 4 14l120 252q6 13 14 18.5t20 5.5h168q13 0 20.5 -5t7.5 -15 q0 -4 -4 -14l-120 -252q-6 -13 -14 -18.5t-20 -5.5h-168z" glyph-name="uni0453" unicode="ѓ" vert-adv-y="1980"/>
<glyph d="M1059 1104q14 0 22 -8t8 -22v-260q0 -13 -8 -21.5t-22 -8.5h-646v-754q0 -13 -8 -21.5t-22 -8.5h-192q-13 0 -21.5 8.5t-8.5 21.5v930q0 14 8.5 22t21.5 8h646v84q0 14 8.5 22t21.5 8h192z" glyph-name="uni0491" unicode="ґ" vert-adv-y="1980"/>
<glyph d="M1154 206q14 0 22 -8t8 -22v-293q0 -14 -8 -22t-22 -8h-175q-13 0 -21.5 8t-8.5 22v117h-668v-117q0 -14 -8 -22t-22 -8h-174q-13 0 -21.5 8t-8.5 22v323q0 10 3.5 14.5t12.5 4.5q57 0 104.5 24t75.5 74.5t28 125.5v511q0 14 8.5 22t21.5 8h738q14 0 22 -8t8 -22v-754h85 zM513 784v-337q0 -157 -79 -241h392v578h-313z" glyph-name="uni0434" unicode="д" vert-adv-y="1980"/>
<glyph d="M1101.5 465q-6.5 -21 -26 -31.5t-57.5 -10.5l-655 1q8 -118 93 -183t223 -65q66 0 125 15t106 41q17 9 29 9q13 0 26 -9.5t30 -31.5q33 -41 33 -64q0 -19 -22 -40q-56 -55 -149 -88t-206 -33q-157 0 -277 65.5t-186 183t-66 270.5q0 152 63.5 269t179 182t265.5 65 q148 0 256 -62.5t165 -173t57 -252.5q0 -36 -6.5 -57zM458.5 744.5q-68.5 -51.5 -86.5 -151.5h513q-14 99 -80 151t-171 52q-107 0 -175.5 -51.5z" glyph-name="uni0435" unicode="е" vert-adv-y="1980"/>
<glyph d="M1101.5 465q-6.5 -21 -26 -31.5t-57.5 -10.5l-655 1q8 -118 93 -183t223 -65q66 0 125 15t106 41q17 9 29 9q13 0 26 -9.5t30 -31.5q33 -41 33 -64q0 -19 -22 -40q-56 -55 -149 -88t-206 -33q-157 0 -277 65.5t-186 183t-66 270.5q0 152 63.5 269t179 182t265.5 65 q148 0 256 -62.5t165 -173t57 -252.5q0 -36 -6.5 -57zM458.5 744.5q-68.5 -51.5 -86.5 -151.5h513q-14 99 -80 151t-171 52q-107 0 -175.5 -51.5zM319 1265.5q-29 17.5 -46.5 47.5t-17.5 66q0 35 17.5 64.5t47 46.5t63.5 17q35 0 64.5 -17t47 -46.5t17.5 -64.5 q0 -36 -17.5 -66t-47 -47.5t-64.5 -17.5t-64 17.5zM744.5 1265.5q-29.5 17.5 -47 47.5t-17.5 66q0 35 17.5 64.5t47 46.5t64.5 17t64.5 -17t47 -46.5t17.5 -64.5q0 -36 -17.5 -66t-47 -47.5t-64.5 -17.5t-64.5 17.5z" glyph-name="uni0451" unicode="ё" vert-adv-y="1980"/>
<glyph d="M1167 36q6 -10 6 -20q0 -16 -23 -16h-168q-28 0 -36 16l-196 363l-36 -53v-296q0 -13 -8 -21.5t-22 -8.5h-138q-13 0 -21.5 8.5t-8.5 21.5v297l-36 52l-196 -363q-8 -16 -36 -16h-168q-23 0 -23 16q0 10 6 20l295 523l-269 395q-9 12 -9 21q0 15 24 15h180q25 0 36 -20 l196 -325v315q0 14 8.5 22t21.5 8h138q14 0 22 -8t8 -22v-315l196 325q11 20 36 20h180q24 0 24 -16q0 -9 -8 -20l-270 -396z" glyph-name="uni0436" unicode="ж" vert-adv-y="1980"/>
<glyph d="M888 513q99 -28 150 -89.5t51 -147.5q0 -91 -58 -159t-170 -105.5t-269 -37.5q-164 0 -275.5 38t-160.5 98q-13 16 -13 30q0 15 13 29l76 87q9 10 22 10q16 0 32 -14q34 -28 108 -48t188 -20q133 0 207.5 31t74.5 93q0 57 -81.5 88.5t-290.5 31.5q-23 0 -36 11.5 t-13 31.5v81q0 22 13 33.5t36 11.5q134 0 207.5 13t101 36t27.5 56q0 103 -228 103q-177 0 -290 -61q-24 -12 -39 -12q-19 0 -31 16l-55 76q-14 17 -14 31q0 13 12 26q51 56 159 94t264 38q141 0 243 -33t155.5 -94t53.5 -142q0 -75 -44.5 -129t-125.5 -82v-20z" glyph-name="uni0437" unicode="з" vert-adv-y="1980"/>
<glyph d="M1061 982q8 -8 8 -22v-930q0 -13 -8 -21.5t-22 -8.5h-192q-13 0 -21.5 8.5t-8.5 21.5v601l-377 -611q-6 -9 -16 -14.5t-22 -5.5h-211q-13 0 -21.5 8.5t-8.5 21.5v930q0 14 8.5 22t21.5 8h192q14 0 22 -8t8 -22v-601l377 611q6 9 16 14.5t22 5.5h211q14 0 22 -8z" glyph-name="uni0438" unicode="и" vert-adv-y="1980"/>
<glyph d="M1061 982q8 -8 8 -22v-930q0 -13 -8 -21.5t-22 -8.5h-192q-13 0 -21.5 8.5t-8.5 21.5v601l-377 -611q-6 -9 -16 -14.5t-22 -5.5h-211q-13 0 -21.5 8.5t-8.5 21.5v930q0 14 8.5 22t21.5 8h192q14 0 22 -8t8 -22v-601l377 611q6 9 16 14.5t22 5.5h211q14 0 22 -8z M450 1230.5q-71 37.5 -111 101.5t-48 144q-3 31 29 31h105q26 0 32 -29q12 -50 53 -85.5t105 -35.5t105.5 35.5t52.5 85.5q6 29 32 29h105q33 0 30 -31q-8 -80 -48.5 -144t-111.5 -101.5t-165 -37.5t-165 37.5z" glyph-name="uni0439" unicode="й" vert-adv-y="1980"/>
<glyph d="M1155 36q9 -10 9 -18t-7 -13t-20 -5h-233q-23 0 -36 16l-329 377l-149 -153v-210q0 -13 -8 -21.5t-22 -8.5h-192q-13 0 -21.5 8.5t-8.5 21.5v930q0 14 8.5 22t21.5 8h192q14 0 22 -8t8 -22v-413l409 427q16 16 38 16h232q12 0 19 -4.5t7 -12.5q0 -9 -10 -19l-387 -397z " glyph-name="uni043A" unicode="к" vert-adv-y="1980"/>
<glyph d="M1124 982q8 -8 8 -22v-930q0 -13 -8 -21.5t-22 -8.5h-192q-13 0 -21.5 8.5t-8.5 21.5v754h-379v-452q0 -188 -106.5 -265t-307.5 -77q-17 0 -24.5 4.5t-7.5 15.5v191q0 11 6 17t17 6q86 0 128.5 39.5t42.5 142.5v554q0 14 8.5 22t21.5 8h823q14 0 22 -8z" glyph-name="uni043B" unicode="л" vert-adv-y="1980"/>
<glyph d="M1084 982q8 -8 8 -22v-930q0 -13 -8 -21.5t-22 -8.5h-179q-13 0 -21.5 8.5t-8.5 21.5v514l-142 -472q-3 -10 -12.5 -16t-21.5 -6h-124q-12 0 -21.5 6t-12.5 16l-142 472v-514q0 -13 -8 -21.5t-22 -8.5h-179q-13 0 -21.5 8.5t-8.5 21.5v930q0 14 8.5 22t21.5 8h195 q27 0 34 -22l218 -671l218 671q7 22 34 22h195q14 0 22 -8z" glyph-name="uni043C" unicode="м" vert-adv-y="1980"/>
<glyph d="M1039 990q14 0 22 -8t8 -22v-930q0 -13 -8 -21.5t-22 -8.5h-192q-13 0 -21.5 8.5t-8.5 21.5v357h-404v-357q0 -13 -8 -21.5t-22 -8.5h-192q-13 0 -21.5 8.5t-8.5 21.5v930q0 14 8.5 22t21.5 8h192q14 0 22 -8t8 -22v-367h404v367q0 14 8.5 22t21.5 8h192z" glyph-name="uni043D" unicode="н" vert-adv-y="1980"/>
<glyph d="M354 43q-116 68 -182 186.5t-66 263.5t65.5 263.5t182 186t261.5 67.5t261.5 -67.5t182.5 -186t66 -263.5t-66 -263.5t-182.5 -186.5t-261.5 -68t-261 68zM751 245q60 36 94 100.5t34 147.5t-34 147.5t-94 100t-136 35.5t-136 -35.5t-94 -100t-34 -147.5t34 -147.5 t94 -100.5t136 -36t136 36z" glyph-name="uni043E" unicode="о" vert-adv-y="1980"/>
<glyph d="M1061 982q8 -8 8 -22v-930q0 -13 -8 -21.5t-22 -8.5h-192q-13 0 -21.5 8.5t-8.5 21.5v754h-404v-754q0 -13 -8 -21.5t-22 -8.5h-192q-13 0 -21.5 8.5t-8.5 21.5v930q0 14 8.5 22t21.5 8h848q14 0 22 -8z" glyph-name="uni043F" unicode="п" vert-adv-y="1980"/>
<glyph d="M926 943q100 -67 153 -184.5t53 -265.5t-53 -266t-153 -185t-235 -67q-108 0 -181 43t-111 116h-27v-484q0 -14 -8 -22t-22 -8h-185q-13 0 -21.5 8t-8.5 22v1310q0 14 8.5 22t21.5 8h192q14 0 22 -8t8 -22v-99h20q38 67 111.5 108t180.5 41q135 0 235 -67zM764 243 q59 35 91 99t32 151q0 86 -32 150.5t-91 99t-137 34.5t-137 -34.5t-90.5 -98.5t-31.5 -151t32 -151t90.5 -99t136.5 -35t137 35z" glyph-name="uni0440" unicode="р" vert-adv-y="1980"/>
<glyph d="M885 322q11 14 23 14q8 0 17 -6l134 -91q15 -10 15 -23q0 -8 -6 -17q-65 -103 -175 -163.5t-249 -60.5q-146 0 -264 67t-185.5 185t-67.5 266t67.5 266t185.5 184.5t264 66.5q139 0 249 -60.5t175 -163.5q6 -9 6 -17q0 -13 -16 -24l-133 -90q-9 -6 -17 -6q-12 0 -23 14 q-89 113 -233 113q-80 0 -143.5 -35.5t-100 -100t-36.5 -147.5t36.5 -148t100 -100.5t143.5 -35.5q144 0 233 113z" glyph-name="uni0441" unicode="с" vert-adv-y="1980"/>
<glyph d="M518 0q-13 0 -21.5 8.5t-8.5 21.5v754h-366q-13 0 -21.5 8.5t-8.5 21.5v146q0 14 8.5 22t21.5 8h987q14 0 22 -8t8 -22v-146q0 -13 -8 -21.5t-22 -8.5h-369v-754q0 -13 -8 -21.5t-22 -8.5h-192z" glyph-name="uni0442" unicode="т" vert-adv-y="1980"/>
<glyph d="M1103 990q27 0 27 -20q0 -6 -3 -14l-524 -1312q-4 -12 -14 -18t-22 -6h-192q-27 0 -27 20q0 6 3 14l139 343l-387 959q-3 8 -3 14q0 20 27 20h192q12 0 22 -6t14 -18l260 -681l260 681q4 12 14 18t22 6h192z" glyph-name="uni0443" unicode="у" vert-adv-y="1980"/>
<glyph d="M1046.5 138q-109.5 -132 -314.5 -161v-327q0 -14 -8 -22t-22 -8h-174q-13 0 -21.5 8t-8.5 22v327q-205 29 -314 161t-109 353t109 353t314 161v326q0 14 8.5 22t21.5 8h174q14 0 22 -8t8 -22v-326q205 -29 314.5 -161t109.5 -353t-109.5 -353zM732 211q103 21 148 89 t45 191t-45 191t-148 90v-561zM350 300.5q45 -67.5 148 -89.5v560q-103 -21 -148 -89t-45 -191t45 -190.5z" glyph-name="uni0444" unicode="ф" vert-adv-y="1980"/>
<glyph d="M1144 36q8 -11 8 -18q0 -8 -7 -13t-19 -5h-221q-12 0 -20.5 4t-15.5 14l-254 319l-254 -319q-8 -10 -16 -14t-20 -4h-221q-12 0 -19 5t-7 13q0 7 8 18l388 476l-359 442q-8 11 -8 18q0 8 7 13t19 5h220q12 0 20 -4t16 -14l226 -285l226 285q8 10 16 14t20 4h220 q12 0 19 -5t7 -13q0 -7 -8 -18l-357 -442z" glyph-name="uni0445" unicode="х" vert-adv-y="1980"/>
<glyph d="M1039 990q14 0 22 -8t8 -22v-930q0 -13 -8 -21.5t-22 -8.5h-192q-13 0 -21.5 8.5t-8.5 21.5v281q-53 -59 -132.5 -94t-172.5 -35q-103 0 -193 46.5t-145.5 143t-55.5 240.5v348q0 14 8.5 22t21.5 8h192q14 0 22 -8t8 -22v-319q0 -111 56 -179t162 -68q72 0 123.5 31.5 t78.5 87.5t27 128v319q0 14 8.5 22t21.5 8h192z" glyph-name="uni0447" unicode="ч" vert-adv-y="1980"/>
<glyph d="M1162 206q14 0 22 -8t8 -22v-267q0 -14 -8 -22t-22 -8h-182q-13 0 -21.5 8t-8.5 22v91h-759q-13 0 -21.5 8.5t-8.5 21.5v930q0 14 8.5 22t21.5 8h192q14 0 22 -8t8 -22v-754h404v754q0 14 8.5 22t21.5 8h192q14 0 22 -8t8 -22v-754h93z" glyph-name="uni0446" unicode="ц" vert-adv-y="1980"/>
<glyph d="M1064 990q14 0 22 -8t8 -22v-930q0 -13 -8 -21.5t-22 -8.5h-897q-13 0 -21.5 8.5t-8.5 21.5v930q0 14 8.5 22t21.5 8h174q14 0 22 -8t8 -22v-754h137v754q0 14 8.5 22t21.5 8h154q14 0 22 -8t8 -22v-754h137v754q0 14 8.5 22t21.5 8h175z" glyph-name="uni0448" unicode="ш" vert-adv-y="1980"/>
<glyph d="M1162 206q14 0 22 -8t8 -22v-267q0 -14 -8 -22t-22 -8h-182q-13 0 -21.5 8t-8.5 22v91h-783q-13 0 -21.5 8.5t-8.5 21.5v930q0 14 8.5 22t21.5 8h174q14 0 22 -8t8 -22v-754h137v754q0 14 8.5 22t21.5 8h154q14 0 22 -8t8 -22v-754h137v754q0 14 8.5 22t21.5 8h175 q14 0 22 -8t8 -22v-754h68z" glyph-name="uni0449" unicode="щ" vert-adv-y="1980"/>
<glyph d="M699 689q141 0 229.5 -35t131 -110.5t42.5 -198.5q0 -124 -42.5 -199.5t-131 -110.5t-229.5 -35h-508q-13 0 -21.5 8.5t-8.5 21.5v930q0 14 8.5 22t21.5 8h192q14 0 22 -8t8 -22v-271h286zM703 190q62 0 95 14.5t47 47.5t14 93q0 59 -14 92t-47.5 48t-94.5 15h-290v-310 h290z" glyph-name="uni044C" unicode="ь" vert-adv-y="1980"/>
<glyph d="M699 689q141 0 229.5 -35t131 -110.5t42.5 -198.5q0 -124 -42.5 -199.5t-131 -110.5t-229.5 -35h-414q-13 0 -21.5 8.5t-8.5 21.5v754h-138q-13 0 -21.5 8.5t-8.5 21.5v146q0 14 8.5 22t21.5 8h360q14 0 22 -8t8 -22v-271h192zM703 190q62 0 95 14.5t47 47.5t14 93 q0 59 -14 92t-47.5 48t-94.5 15h-196v-310h196z" glyph-name="uni044A" unicode="ъ" vert-adv-y="1980"/>
<glyph d="M128 0q-13 0 -21.5 8.5t-8.5 21.5v930q0 14 8.5 22t21.5 8h174q14 0 22 -8t8 -22v-271h117q141 0 219.5 -34.5t111 -108t32.5 -201.5t-32.5 -202t-110.5 -108.5t-220 -34.5h-321zM928 0q-13 0 -21.5 8.5t-8.5 21.5v930q0 14 8.5 22t21.5 8h174q14 0 22 -8t8 -22v-930 q0 -13 -8 -21.5t-22 -8.5h-174zM453 190q53 0 81.5 14.5t40.5 47.5t12 93q0 59 -12 92t-41 48t-81 15h-121v-310h121z" glyph-name="uni044B" unicode="ы" vert-adv-y="1980"/>
<glyph d="M1059 239q15 -10 15 -23q0 -8 -6 -17q-65 -103 -175 -163.5t-249 -60.5q-146 0 -264 67t-185.5 185t-67.5 266t67.5 266t185.5 184.5t264 66.5q139 0 249 -60.5t175 -163.5q6 -9 6 -17q0 -13 -16 -24l-133 -90q-9 -6 -17 -6q-12 0 -23 14q-89 113 -233 113 q-101 0 -174 -55t-97 -149h313q14 0 22 -8t8 -22v-108q0 -13 -8 -21.5t-22 -8.5h-310q25 -90 97.5 -142.5t170.5 -52.5q144 0 233 113q11 14 23 14q8 0 17 -6z" glyph-name="uni0454" unicode="є" vert-adv-y="1980"/>
<glyph d="M864 943.5q118 -66.5 185.5 -184.5t67.5 -266t-67.5 -266t-185.5 -185t-264 -67q-139 0 -249.5 61t-174.5 163q-6 9 -6 17q0 13 15 23l134 91q9 6 17 6q12 0 23 -14q89 -113 232 -113q98 0 171 52.5t98 142.5h-311q-13 0 -21.5 8.5t-8.5 21.5v108q0 14 8.5 22t21.5 8h314 q-24 94 -97.5 149t-174.5 55q-143 0 -232 -113q-11 -14 -23 -14q-8 0 -17 6l-133 90q-16 11 -16 24q0 8 6 17q64 103 174 163.5t250 60.5q146 0 264 -66.5z" glyph-name="uni044D" unicode="э" vert-adv-y="1980"/>
<glyph d="M1048 207q14 0 22 -8t8 -22v-147q0 -13 -8 -21.5t-22 -8.5h-252q-146 0 -223 81t-77 229v473h-309q-13 0 -21.5 8.5t-8.5 21.5v147q0 14 8.5 22t21.5 8h531q14 0 22 -8t8 -22v-604q0 -75 36 -112t111 -37h153zM328 1265.5q-29 17.5 -46.5 47.5t-17.5 66q0 35 17.5 64.5 t47 46.5t63.5 17q35 0 64.5 -17t47 -46.5t17.5 -64.5q0 -36 -17.5 -66t-47 -47.5t-64.5 -17.5t-64 17.5zM753.5 1265.5q-29.5 17.5 -47 47.5t-17.5 66q0 35 17.5 64.5t47 46.5t64.5 17t64.5 -17t47 -46.5t17.5 -64.5q0 -36 -17.5 -66t-47 -47.5t-64.5 -17.5t-64.5 17.5z" glyph-name="uni0457" unicode="ї" vert-adv-y="1980"/>
<glyph d="M1061.5 875q83.5 -137 83.5 -382t-83.5 -382t-290.5 -137q-183 0 -269.5 108t-101.5 304h-81v-356q0 -13 -8 -21.5t-22 -8.5h-174q-13 0 -21.5 8.5t-8.5 21.5v930q0 14 8.5 22t21.5 8h174q14 0 22 -8t8 -22v-368h80q15 199 101 309.5t271 110.5q207 0 290.5 -137z M895.5 279q33.5 72 33.5 214t-33.5 214t-124.5 72q-92 0 -125 -72t-33 -214t33 -214t125 -72q91 0 124.5 72z" glyph-name="uni044E" unicode="ю" vert-adv-y="1980"/>
<glyph d="M1061 982q8 -8 8 -22v-930q0 -13 -8 -21.5t-22 -8.5h-192q-13 0 -21.5 8.5t-8.5 21.5v298h-151l-270 -312q-13 -16 -36 -16h-212q-12 0 -18.5 4.5t-6.5 12.5q0 9 9 19l270 301q-136 23 -208.5 104.5t-72.5 217.5q0 162 102.5 246.5t291.5 84.5h524q14 0 22 -8zM817 518 v283h-284q-85 0 -127 -35t-42 -107t42 -106.5t127 -34.5h284z" glyph-name="uni044F" unicode="я" vert-adv-y="1980"/>
<glyph d="M1162 34q2 -8 2 -11q0 -23 -26 -23h-204q-29 0 -34 24l-60 237h-450l-60 -237q-5 -24 -34 -24h-203q-12 0 -19 6t-7 16q0 4 2 12l349 1282q4 12 13.5 18t21.5 6h324q12 0 21.5 -6t13.5 -18zM597 1070l-150 -586h336l-150 586h-36z" glyph-name="Alpha" unicode="Α" vert-adv-y="1980"/>
<glyph d="M153 0q-13 0 -21.5 8.5t-8.5 21.5v1280q0 14 8.5 22t21.5 8h498q210 0 307 -91.5t97 -237.5q0 -106 -53 -181t-168 -99v-20q150 -21 221 -108t71 -229q0 -185 -116.5 -279.5t-377.5 -94.5h-479zM626 815q98 0 140.5 38t42.5 116q0 75 -41.5 107t-141.5 32h-242v-293h242z M638 232q121 0 173.5 42t52.5 137q0 93 -53 139.5t-173 46.5h-254v-365h254z" glyph-name="Beta" unicode="Β" vert-adv-y="1980"/>
<glyph d="M1076 1332q8 -8 8 -22v-172q0 -13 -8 -21.5t-22 -8.5h-626v-1078q0 -13 -8 -21.5t-22 -8.5h-201q-13 0 -21.5 8.5t-8.5 21.5v1280q0 14 8.5 22t21.5 8h857q14 0 22 -8z" glyph-name="Gamma" unicode="Γ" vert-adv-y="1980"/>
<glyph d="M1167 34q2 -8 2 -11q0 -23 -26 -23h-1055q-12 0 -19 6t-7 16q0 4 2 12l354 1282q4 12 13.5 18t21.5 6h324q12 0 21.5 -6t13.5 -18zM633 1070h-36l-225 -864h486z" glyph-name="uni0394" unicode="Δ" vert-adv-y="1980"/>
<glyph d="M187 0q-13 0 -21.5 8.5t-8.5 21.5v1280q0 14 8.5 22t21.5 8h855q14 0 22 -8t8 -22v-172q0 -13 -8 -21.5t-22 -8.5h-624v-317h579q14 0 22 -8t8 -22v-172q0 -13 -8 -21.5t-22 -8.5h-579v-327h626q14 0 22 -8t8 -22v-172q0 -13 -8 -21.5t-22 -8.5h-857z" glyph-name="Epsilon" unicode="Ε" vert-adv-y="1980"/>
<glyph d="M157 0q-13 0 -21.5 8.5t-8.5 21.5v182q0 20 12 36l660 860h-622q-13 0 -21.5 8.5t-8.5 21.5v172q0 14 8.5 22t21.5 8h877q14 0 22 -8t8 -22v-182q0 -18 -12 -36l-661 -860h663q14 0 22 -8t8 -22v-172q0 -13 -8 -21.5t-22 -8.5h-917z" glyph-name="Zeta" unicode="Ζ" vert-adv-y="1980"/>
<glyph d="M1062 1340q14 0 22 -8t8 -22v-1280q0 -13 -8 -21.5t-22 -8.5h-201q-13 0 -21.5 8.5t-8.5 21.5v513h-432v-513q0 -13 -8 -21.5t-22 -8.5h-201q-13 0 -21.5 8.5t-8.5 21.5v1280q0 14 8.5 22t21.5 8h201q14 0 22 -8t8 -22v-535h432v535q0 14 8.5 22t21.5 8h201z" glyph-name="Eta" unicode="Η" vert-adv-y="1980"/>
<glyph d="M325 41.5q-111 71.5 -164 223.5t-53 400t53 400.5t164 223.5t290 71t290 -71t164 -223.5t53 -400.5t-53 -400t-164 -223.5t-290 -71.5t-290 71.5zM754.5 257q54.5 37 84.5 134.5t30 273.5t-30 273.5t-84.5 134.5t-139.5 37t-139.5 -37t-84.5 -134.5t-30 -273.5t30 -273.5 t84.5 -134.5t139.5 -37t139.5 37zM458 566q-13 0 -21.5 8.5t-8.5 21.5v138q0 14 8.5 22t21.5 8h315q14 0 22 -8t8 -22v-138q0 -13 -8 -21.5t-22 -8.5h-315z" glyph-name="Theta" unicode="Θ" vert-adv-y="1980"/>
<glyph d="M161 0q-13 0 -21.5 8.5t-8.5 21.5v172q0 14 8.5 22t21.5 8h323v876h-323q-13 0 -21.5 8.5t-8.5 21.5v172q0 14 8.5 22t21.5 8h908q14 0 22 -8t8 -22v-172q0 -13 -8 -21.5t-22 -8.5h-323v-876h323q14 0 22 -8t8 -22v-172q0 -13 -8 -21.5t-22 -8.5h-908z" glyph-name="Iota" unicode="Ι" vert-adv-y="1980"/>
<glyph d="M1164 36q7 -10 7 -18t-6.5 -13t-18.5 -5h-222q-12 0 -20.5 4t-15.5 14l-366 518l-150 -190v-316q0 -13 -8 -21.5t-22 -8.5h-202q-13 0 -21.5 8.5t-8.5 21.5v1280q0 14 8.5 22t21.5 8h202q14 0 22 -8t8 -22v-602l464 616q12 16 36 16h242q12 0 18 -4.5t6 -12.5 q0 -10 -8 -19l-455 -575z" glyph-name="Kappa" unicode="Κ" vert-adv-y="1980"/>
<glyph d="M777 1340q12 0 21.5 -6t13.5 -18l355 -1282q2 -8 2 -11q0 -23 -26 -23h-204q-29 0 -34 24l-272 1046h-36l-272 -1046q-5 -24 -34 -24h-203q-12 0 -19 6t-7 16q0 4 2 12l354 1282q4 12 13.5 18t21.5 6h324z" glyph-name="Lambda" unicode="Λ" vert-adv-y="1980"/>
<glyph d="M153 0q-13 0 -21.5 8.5t-8.5 21.5v1280q0 14 8.5 22t21.5 8h208q13 0 23.5 -5t12.5 -15l211 -926h14l211 926q2 10 12.5 15t23.5 5h208q14 0 22 -8t8 -22v-1280q0 -13 -8 -21.5t-22 -8.5h-155q-13 0 -21.5 8.5t-8.5 21.5v779h-14l-167 -685q-3 -12 -12.5 -18t-22.5 -6 h-121q-13 0 -23 6.5t-13 17.5l-167 685h-14v-779q0 -13 -8 -21.5t-22 -8.5h-155z" glyph-name="Mu" unicode="Μ" vert-adv-y="1980"/>
<glyph d="M1053 1340q14 0 22 -8t8 -22v-1280q0 -13 -8 -21.5t-22 -8.5h-228q-27 0 -36 20l-407 903v-893q0 -13 -8 -21.5t-22 -8.5h-175q-13 0 -21.5 8.5t-8.5 21.5v1280q0 14 8.5 22t21.5 8h229q27 0 36 -20l406 -902v892q0 14 8.5 22t21.5 8h175z" glyph-name="Nu" unicode="Ν" vert-adv-y="1980"/>
<glyph d="M147 1108q-13 0 -21.5 8.5t-8.5 21.5v172q0 14 8.5 22t21.5 8h936q14 0 22 -8t8 -22v-172q0 -13 -8 -21.5t-22 -8.5h-936zM198 570q-13 0 -21.5 8.5t-8.5 21.5v173q0 14 8.5 22t21.5 8h834q14 0 22 -8t8 -22v-173q0 -13 -8 -21.5t-22 -8.5h-834zM145 0q-13 0 -21.5 8.5 t-8.5 21.5v172q0 14 8.5 22t21.5 8h940q14 0 22 -8t8 -22v-172q0 -13 -8 -21.5t-22 -8.5h-940z" glyph-name="Xi" unicode="Ξ" vert-adv-y="1980"/>
<glyph d="M325 41.5q-111 71.5 -164 223.5t-53 400t53 400.5t164 223.5t290 71t290 -71t164 -223.5t53 -400.5t-53 -400t-164 -223.5t-290 -71.5t-290 71.5zM754.5 257q54.5 37 84.5 134.5t30 273.5t-30 273.5t-84.5 134.5t-139.5 37t-139.5 -37t-84.5 -134.5t-30 -273.5t30 -273.5 t84.5 -134.5t139.5 -37t139.5 37z" glyph-name="Omicron" unicode="Ο" vert-adv-y="1980"/>
<glyph d="M1066 1334q8 -8 8 -22v-1282q0 -13 -8 -21.5t-22 -8.5h-202q-13 0 -21.5 8.5t-8.5 21.5v1079h-394v-1079q0 -13 -8 -21.5t-22 -8.5h-201q-13 0 -21.5 8.5t-8.5 21.5v1282q0 14 8.5 22t21.5 8h857q14 0 22 -8z" glyph-name="Pi" unicode="Π" vert-adv-y="1980"/>
<glyph d="M638 1340q252 0 369.5 -115.5t117.5 -334.5q0 -450 -487 -450h-237v-410q0 -13 -8 -21.5t-22 -8.5h-201q-13 0 -21.5 8.5t-8.5 21.5v1280q0 14 8.5 22t21.5 8h468zM624 672q126 0 188 49.5t62 168.5q0 120 -62 169t-188 49h-223v-436h223z" glyph-name="Rho" unicode="Ρ" vert-adv-y="1980"/>
<glyph d="M177 0q-13 0 -21.5 8.5t-8.5 21.5v182q0 21 12 36l346 422l-346 422q-12 15 -12 36v182q0 14 8.5 22t21.5 8h877q14 0 22 -8t8 -22v-172q0 -13 -8 -21.5t-22 -8.5h-623l355 -438l-355 -438h623q14 0 22 -8t8 -22v-172q0 -13 -8 -21.5t-22 -8.5h-877z" glyph-name="Sigma" unicode="Σ" vert-adv-y="1980"/>
<glyph d="M514 0q-13 0 -21.5 8.5t-8.5 21.5v1078h-354q-13 0 -21.5 8.5t-8.5 21.5v172q0 14 8.5 22t21.5 8h970q14 0 22 -8t8 -22v-172q0 -13 -8 -21.5t-22 -8.5h-354v-1078q0 -13 -8 -21.5t-22 -8.5h-202z" glyph-name="Tau" unicode="Τ" vert-adv-y="1980"/>
<glyph d="M1141 1340q13 0 19.5 -5t6.5 -13q0 -7 -6 -18l-415 -786v-488q0 -13 -8 -21.5t-22 -8.5h-202q-13 0 -21.5 8.5t-8.5 21.5v492l-415 782q-6 11 -6 18q0 8 6.5 13t19.5 5h213q25 0 36 -20l277 -553l278 553q10 20 36 20h212z" glyph-name="Upsilon" unicode="Υ" vert-adv-y="1980"/>
<glyph d="M736 1201q225 0 327 -148t102 -383t-102 -383t-327 -148h-3v-109q0 -13 -8 -21.5t-22 -8.5h-176q-13 0 -21.5 8.5t-8.5 21.5v109h-3q-225 0 -327 148t-102 383t102 383t327 148h3v109q0 14 8.5 22t21.5 8h176q14 0 22 -8t8 -22v-109h3zM497 372v597h-3q-74 0 -114.5 -35 t-56 -99.5t-15.5 -164.5t15.5 -164.5t56 -99t114.5 -34.5h3zM736 372q74 0 114.5 34.5t56 99t15.5 164.5t-15.5 164.5t-56 99.5t-114.5 35h-3v-597h3z" glyph-name="Phi" unicode="Φ" vert-adv-y="1980"/>
<glyph d="M1143 36q6 -10 6 -18t-6.5 -13t-19.5 -5h-213q-25 0 -36 20l-259 430l-259 -430q-11 -20 -36 -20h-212q-13 0 -19.5 5t-6.5 13t6 18l388 645l-375 623q-6 11 -6 18q0 8 6.5 13t19.5 5h212q25 0 36 -20l246 -408l246 408q11 20 36 20h212q13 0 19.5 -5t6.5 -13 q0 -7 -6 -18l-375 -623z" glyph-name="Chi" unicode="Χ" vert-adv-y="1980"/>
<glyph d="M1140 1340q14 0 22 -8t8 -22v-481q0 -164 -50.5 -263.5t-143 -146.5t-230.5 -59v-330q0 -13 -8 -21.5t-22 -8.5h-202q-13 0 -21.5 8.5t-8.5 21.5v330q-138 12 -230.5 59t-143 146.5t-50.5 263.5v481q0 14 8.5 22t21.5 8h202q14 0 22 -8t8 -22v-484q0 -76 14.5 -118 t49 -63t98.5 -28v693q0 14 8.5 22t21.5 8h202q14 0 22 -8t8 -22v-693q64 7 98.5 28t49 63t14.5 118v484q0 14 8.5 22t21.5 8h202z" glyph-name="Psi" unicode="Ψ" vert-adv-y="1980"/>
<glyph d="M127 0q-28 0 -28 29v149q0 14 7.5 21.5t20.5 7.5h173v33q-202 107 -202 516q0 306 123.5 455t393.5 149t393.5 -149t123.5 -455q0 -409 -202 -516v-33h173q13 0 20.5 -7.5t7.5 -21.5v-149q0 -29 -28 -29h-394q-14 0 -21.5 7.5t-7.5 21.5v312q65 21 108.5 63.5t67 124 t23.5 214.5q0 108 -20.5 187.5t-78.5 129t-165 49.5q-106 0 -164.5 -49.5t-79 -129t-20.5 -187.5q0 -133 23.5 -214.5t67 -124t108.5 -63.5v-312q0 -14 -7.5 -21.5t-21.5 -7.5h-394z" glyph-name="uni03A9" unicode="Ω" vert-adv-y="1980"/>
<glyph d="M1162 34q2 -8 2 -11q0 -23 -26 -23h-204q-29 0 -34 24l-60 237h-450l-60 -237q-5 -24 -34 -24h-203q-12 0 -19 6t-7 16q0 4 2 12l349 1282q4 12 13.5 18t21.5 6h324q12 0 21.5 -6t13.5 -18zM597 1070l-150 -586h336l-150 586h-36zM-16 1030q-13 0 -20.5 5t-7.5 15 q0 4 4 14l120 252q6 13 14 18.5t20 5.5h168q13 0 20.5 -5t7.5 -15q0 -4 -4 -14l-120 -252q-6 -13 -14 -18.5t-20 -5.5h-168z" glyph-name="Alphatonos" unicode="Ά" vert-adv-y="1980"/>
<glyph d="M187 0q-13 0 -21.5 8.5t-8.5 21.5v1280q0 14 8.5 22t21.5 8h855q14 0 22 -8t8 -22v-172q0 -13 -8 -21.5t-22 -8.5h-624v-317h579q14 0 22 -8t8 -22v-172q0 -13 -8 -21.5t-22 -8.5h-579v-327h626q14 0 22 -8t8 -22v-172q0 -13 -8 -21.5t-22 -8.5h-857zM-253 1030 q-13 0 -20.5 5t-7.5 15q0 4 4 14l120 252q6 13 14 18.5t20 5.5h168q13 0 20.5 -5t7.5 -15q0 -4 -4 -14l-120 -252q-6 -13 -14 -18.5t-20 -5.5h-168z" glyph-name="Epsilontonos" unicode="Έ" vert-adv-y="1980"/>
<glyph d="M1062 1340q14 0 22 -8t8 -22v-1280q0 -13 -8 -21.5t-22 -8.5h-201q-13 0 -21.5 8.5t-8.5 21.5v513h-432v-513q0 -13 -8 -21.5t-22 -8.5h-201q-13 0 -21.5 8.5t-8.5 21.5v1280q0 14 8.5 22t21.5 8h201q14 0 22 -8t8 -22v-535h432v535q0 14 8.5 22t21.5 8h201zM-272 1030 q-13 0 -20.5 5t-7.5 15q0 4 4 14l120 252q6 13 14 18.5t20 5.5h168q13 0 20.5 -5t7.5 -15q0 -4 -4 -14l-120 -252q-6 -13 -14 -18.5t-20 -5.5h-168z" glyph-name="Etatonos" unicode="Ή" vert-adv-y="1980"/>
<glyph d="M161 0q-13 0 -21.5 8.5t-8.5 21.5v172q0 14 8.5 22t21.5 8h323v876h-323q-13 0 -21.5 8.5t-8.5 21.5v172q0 14 8.5 22t21.5 8h908q14 0 22 -8t8 -22v-172q0 -13 -8 -21.5t-22 -8.5h-323v-876h323q14 0 22 -8t8 -22v-172q0 -13 -8 -21.5t-22 -8.5h-908zM-273 1030 q-13 0 -20.5 5t-7.5 15q0 4 4 14l120 252q6 13 14 18.5t20 5.5h168q13 0 20.5 -5t7.5 -15q0 -4 -4 -14l-120 -252q-6 -13 -14 -18.5t-20 -5.5h-168z" glyph-name="Iotatonos" unicode="Ί" vert-adv-y="1980"/>
<glyph d="M325 41.5q-111 71.5 -164 223.5t-53 400t53 400.5t164 223.5t290 71t290 -71t164 -223.5t53 -400.5t-53 -400t-164 -223.5t-290 -71.5t-290 71.5zM754.5 257q54.5 37 84.5 134.5t30 273.5t-30 273.5t-84.5 134.5t-139.5 37t-139.5 -37t-84.5 -134.5t-30 -273.5t30 -273.5 t84.5 -134.5t139.5 -37t139.5 37zM-185 1030q-13 0 -20.5 5t-7.5 15q0 4 4 14l120 252q6 13 14 18.5t20 5.5h168q13 0 20.5 -5t7.5 -15q0 -4 -4 -14l-120 -252q-6 -13 -14 -18.5t-20 -5.5h-168z" glyph-name="Omicrontonos" unicode="Ό" vert-adv-y="1980"/>
<glyph d="M1141 1340q13 0 19.5 -5t6.5 -13q0 -7 -6 -18l-415 -786v-488q0 -13 -8 -21.5t-22 -8.5h-202q-13 0 -21.5 8.5t-8.5 21.5v492l-415 782q-6 11 -6 18q0 8 6.5 13t19.5 5h213q25 0 36 -20l277 -553l278 553q10 20 36 20h212zM-346 1030q-13 0 -20.5 5t-7.5 15q0 4 4 14 l120 252q6 13 14 18.5t20 5.5h168q13 0 20.5 -5t7.5 -15q0 -4 -4 -14l-120 -252q-6 -13 -14 -18.5t-20 -5.5h-168z" glyph-name="Upsilontonos" unicode="Ύ" vert-adv-y="1980"/>
<glyph d="M127 0q-28 0 -28 29v149q0 14 7.5 21.5t20.5 7.5h173v33q-202 107 -202 516q0 306 123.5 455t393.5 149t393.5 -149t123.5 -455q0 -409 -202 -516v-33h173q13 0 20.5 -7.5t7.5 -21.5v-149q0 -29 -28 -29h-394q-14 0 -21.5 7.5t-7.5 21.5v312q65 21 108.5 63.5t67 124 t23.5 214.5q0 108 -20.5 187.5t-78.5 129t-165 49.5q-106 0 -164.5 -49.5t-79 -129t-20.5 -187.5q0 -133 23.5 -214.5t67 -124t108.5 -63.5v-312q0 -14 -7.5 -21.5t-21.5 -7.5h-394zM-185 1030q-13 0 -20.5 5t-7.5 15q0 4 4 14l120 252q6 13 14 18.5t20 5.5h168 q13 0 20.5 -5t7.5 -15q0 -4 -4 -14l-120 -252q-6 -13 -14 -18.5t-20 -5.5h-168z" glyph-name="Omegatonos" unicode="Ώ" vert-adv-y="1980"/>
<glyph d="M161 0q-13 0 -21.5 8.5t-8.5 21.5v172q0 14 8.5 22t21.5 8h323v876h-323q-13 0 -21.5 8.5t-8.5 21.5v172q0 14 8.5 22t21.5 8h908q14 0 22 -8t8 -22v-172q0 -13 -8 -21.5t-22 -8.5h-323v-876h323q14 0 22 -8t8 -22v-172q0 -13 -8 -21.5t-22 -8.5h-908zM338 1615.5 q-29 17.5 -46.5 47.5t-17.5 66q0 35 17.5 64.5t47 46.5t63.5 17q35 0 64.5 -17t47 -46.5t17.5 -64.5q0 -36 -17.5 -66t-47 -47.5t-64.5 -17.5t-64 17.5zM763.5 1615.5q-29.5 17.5 -47 47.5t-17.5 66q0 35 17.5 64.5t47 46.5t64.5 17t64.5 -17t47 -46.5t17.5 -64.5 q0 -36 -17.5 -66t-47 -47.5t-64.5 -17.5t-64.5 17.5z" glyph-name="Iotadieresis" unicode="Ϊ" vert-adv-y="1980"/>
<glyph d="M1141 1340q13 0 19.5 -5t6.5 -13q0 -7 -6 -18l-415 -786v-488q0 -13 -8 -21.5t-22 -8.5h-202q-13 0 -21.5 8.5t-8.5 21.5v492l-415 782q-6 11 -6 18q0 8 6.5 13t19.5 5h213q25 0 36 -20l277 -553l278 553q10 20 36 20h212zM338 1615.5q-29 17.5 -46.5 47.5t-17.5 66 q0 35 17.5 64.5t47 46.5t63.5 17q35 0 64.5 -17t47 -46.5t17.5 -64.5q0 -36 -17.5 -66t-47 -47.5t-64.5 -17.5t-64 17.5zM763.5 1615.5q-29.5 17.5 -47 47.5t-17.5 66q0 35 17.5 64.5t47 46.5t64.5 17t64.5 -17t47 -46.5t17.5 -64.5q0 -36 -17.5 -66t-47 -47.5t-64.5 -17.5 t-64.5 17.5z" glyph-name="Upsilondieresis" unicode="Ϋ" vert-adv-y="1980"/>
<glyph d="M1167 15q1 -145 -65 -234.5t-167 -127.5t-212 -38q-98 0 -180 26.5t-130 64t-48 66.5q0 10 4 15l74 122q11 15 24 15q10 0 23 -8q51 -33 98.5 -52.5t113.5 -19.5q53 0 97 14.5t69.5 40t25.5 57.5q0 26 -17 52l-9 8l-329 377l-149 -153v-210q0 -13 -8 -21.5t-22 -8.5h-192 q-13 0 -21.5 8.5t-8.5 21.5v930q0 14 8.5 22t21.5 8h192q14 0 22 -8t8 -22v-413l409 427q16 16 38 16h232q12 0 19 -4.5t7 -12.5q0 -9 -10 -19l-387 -397l457 -521q10 -11 8 -21h4z" glyph-name="uni03CF" unicode="Ϗ" vert-adv-y="1980"/>
<glyph d="M1191 166v-152q0 -40 -100 -40q-93 0 -140.5 58.5t-52.5 150.5q-54 -99 -144 -154t-207 -55q-131 0 -234 68t-160 186.5t-57 264.5t57 264.5t160 186.5t234 68q96 0 174.5 -37.5t133.5 -106.5v92q0 14 8.5 22t21.5 8h192q14 0 22 -8t8 -22v-667q0 -52 14.5 -77.5 t50.5 -30.5q19 -2 19 -19zM729.5 243q58.5 36 92 101t33.5 149t-33.5 149t-92 101t-132.5 36q-73 0 -132 -36t-93 -101t-34 -149t34 -149t93 -101t132 -36q74 0 132.5 36z" glyph-name="alpha" unicode="α" vert-adv-y="1980"/>
<glyph d="M1034 629.5q86 -82.5 86 -249.5q0 -199 -131.5 -289.5t-399.5 -90.5h-227v-350q0 -14 -8 -22t-22 -8h-192q-13 0 -21.5 8t-8.5 22v1339q0 201 124.5 306t344.5 105q140 0 243.5 -42.5t160.5 -125t57 -199.5q0 -90 -33 -154.5t-86.5 -101t-113.5 -44.5q141 -21 227 -103.5 zM578 198q102 0 167 17.5t98.5 60.5t33.5 119q0 118 -80 164.5t-240 46.5h-67q-13 0 -21.5 8.5t-8.5 21.5v137q0 14 8.5 22t21.5 8h67q125 0 182.5 51.5t57.5 142.5q0 89 -53.5 132t-166.5 43q-112 0 -163.5 -43t-51.5 -140v-791h216z" glyph-name="beta" unicode="β" vert-adv-y="1980"/>
<glyph d="M1101 628q0 -183 -67 -307t-152 -190t-181 -112l-4 -2v-367q0 -14 -8 -22t-22 -8h-192q-13 0 -21.5 8t-8.5 22v428l-327 878q-3 8 -3 14q0 20 27 20h192q12 0 22 -6t14 -18l265 -726q104 46 161 154.5t57 251.5q0 160 -71 316q-3 8 -3 13q0 15 18 15h211q18 0 24 -15 q69 -159 69 -347z" glyph-name="gamma" unicode="γ" vert-adv-y="1980"/>
<glyph d="M1071.5 732q53.5 -109 53.5 -239q0 -145 -66 -263.5t-182.5 -186.5t-261.5 -68t-261 68t-182 186.5t-66 263.5q0 119 45 221t126 173.5t188 101.5q-59 42 -102 81t-74 92t-31 115q0 57 27 106t78 78t120 29h458q14 0 21.5 -7.5t7.5 -20.5v-162q0 -14 -7.5 -21.5 t-21.5 -7.5h-349q-30 0 -45.5 -11.5t-15.5 -30.5q0 -18 13 -34.5t38 -35t53 -37.5l289 -210q94 -71 147.5 -180zM751 245q60 36 94 100.5t34 147.5t-34 147.5t-94 100t-136 35.5t-136 -35.5t-94 -100t-34 -147.5t34 -147.5t94 -100.5t136 -36t136 36z" glyph-name="delta" unicode="δ" vert-adv-y="1980"/>
</font>
</defs>
</svg>
