<?xml version="1.0" encoding="UTF-8"?>
<!DOCTYPE svg  PUBLIC '-//W3C//DTD SVG 1.1//EN'  'http://www.w3.org/Graphics/SVG/1.1/DTD/svg11.dtd'>
<svg version="1.1" xmlns="http://www.w3.org/2000/svg">
<defs>
<font id="CartographCF-ExtraBold" horiz-adv-x="1230" vert-adv-y="2000">
<font-face font-family="Cartograph CF Extra Bold" font-weight="800" ascent="1600" bbox="-862 -743 4770 2000" cap-height="1340" descent="-400" panose-1="0 0 9 9 0 0 0 0 0 0" underline-position="-100" underline-thickness="50" unicode-range="U+0020-FFFD" units-per-em="2000" x-height="990"/>
<missing-glyph d="M184 1600h628v-1980h-628v1980zM659 1402v65h-326v-65h128v-73h-130v-66h328v66h-130v73h130zM529 1073v139h-198v-206h328v67h-130zM396 1145h65v-72h-65v72zM659 887v66h-328v-66h130v-73h-130v-65h198v138h130zM659 636v198h-65v-131h-263v-67h328zM659 368v224h-198 v-111h68v46h65v-93h-198v158h-65v-224h328zM659 26v224h-328v-224h328zM396 184h198v-93h-198v93zM659 -85v65h-328v-65h138l-138 -93v-65h328v65h-202l139 93h63z" horiz-adv-x="990" vert-adv-y="1980"/>
<glyph d="M3564 990q26 0 26 -22l-2 -12l-217 -932q-3 -11 -13 -17.5t-23 -6.5h-220q-13 0 -23 6.5t-13 17.5l-132 578l-131 -578q-3 -11 -13 -17.5t-23 -6.5h-220q-13 0 -23.5 6.5t-12.5 17.5l-128 637l-127 -637q-2 -11 -12.5 -17.5t-23.5 -6.5h-221q-13 0 -23 6.5t-13 17.5 l-131 578l-131 -578q-3 -11 -13 -17.5t-23 -6.5h-221q-13 0 -23.5 6.5t-12.5 17.5l-127 637l-128 -637q-1 -11 -12 -17.5t-24 -6.5h-220q-13 0 -23 6.5t-13 17.5l-131 578l-132 -578q-3 -11 -13 -17.5t-23 -6.5h-220q-13 0 -23 6.5t-13 17.5l-217 932l-2 12q0 22 26 22h181 q13 0 23 -6.5t13 -17.5l145 -637l140 637q3 11 13 17.5t23 6.5h158q13 0 23 -6.5t13 -17.5l140 -637l145 637q3 11 13 17.5t23 6.5h230q13 0 23 -6.5t13 -17.5l145 -637l140 637q3 11 13 17.5t23 6.5h158q13 0 23 -6.5t13 -17.5l140 -637l145 637q3 11 13 17.5t23 6.5h230 q13 0 23 -6.5t13 -17.5l145 -637l140 637q3 11 13 17.5t23 6.5h158q13 0 23 -6.5t13 -17.5l140 -637l145 637q3 11 13 17.5t23 6.5h181z" glyph-name="w_w_w.liga" horiz-adv-x="3690" unicode="www" vert-adv-y="1980"/>
<glyph d="M2838 1081l137 138l565 -565l-565 -565l-137 138l340 328h-3028v198h3028z" glyph-name="hyphen_hyphen_greater.liga" horiz-adv-x="3690" unicode="--&gt;" vert-adv-y="1980"/>
<glyph d="M1608 1081l137 138l565 -565l-565 -565l-137 138l340 328h-1798v198h1798z" glyph-name="hyphen_greater.liga" horiz-adv-x="2460" unicode="-&gt;" vert-adv-y="1980"/>
<glyph d="M2188 1081l137 138l565 -565l-565 -565l-137 138l340 328h-2378v198h2378zM2838 1081l137 138l565 -565l-565 -565l-137 138l442 427z" glyph-name="hyphen_greater_greater.liga" horiz-adv-x="3690" unicode="-&gt;&gt;" vert-adv-y="1980"/>
<glyph d="M2838 1081l137 138l565 -565l-565 -565l-137 138l340 328h-3028v198h3028z" glyph-name="endash_endash_greater.liga" horiz-adv-x="3690" unicode="––&gt;" vert-adv-y="1980"/>
<glyph d="M1608 1081l137 138l565 -565l-565 -565l-137 138l340 328h-1798v198h1798z" glyph-name="endash_greater.liga" horiz-adv-x="2460" unicode="–&gt;" vert-adv-y="1980"/>
<glyph d="M2188 1081l137 138l565 -565l-565 -565l-137 138l340 328h-2378v198h2378zM2838 1081l137 138l565 -565l-565 -565l-137 138l442 427z" glyph-name="endash_greater_greater.liga" horiz-adv-x="3690" unicode="–&gt;&gt;" vert-adv-y="1980"/>
<glyph d="M531 456.5q-52 30.5 -83 82.5t-31 114q0 61 31 113.5t83 83t113 30.5t113 -30.5t83 -83t31 -113.5q0 -62 -31 -114t-83 -82.5t-113 -30.5t-113 30.5zM2213 769q14 0 22 -8t8 -22v-169q0 -13 -8 -21.5t-22 -8.5h-940q-13 0 -21.5 8.5t-8.5 21.5v169q0 14 8.5 22t21.5 8 h940z" glyph-name="period_hyphen.liga" horiz-adv-x="2460" unicode=".-" vert-adv-y="1980"/>
<glyph d="M531 456.5q-52 30.5 -83 82.5t-31 114q0 61 31 113.5t83 83t113 30.5t113 -30.5t83 -83t31 -113.5q0 -62 -31 -114t-83 -82.5t-113 -30.5t-113 30.5zM2213 769q14 0 22 -8t8 -22v-169q0 -13 -8 -21.5t-22 -8.5h-940q-13 0 -21.5 8.5t-8.5 21.5v169q0 14 8.5 22t21.5 8 h940z" glyph-name="period_endash.liga" horiz-adv-x="2460" unicode=".–" vert-adv-y="1980"/>
<glyph d="M1265 783q-13 0 -21.5 8.5t-8.5 21.5v148q0 14 8.5 22t21.5 8h948q14 0 22 -8t8 -22v-148q0 -13 -8 -21.5t-22 -8.5h-948zM531 456.5q-52 30.5 -83 82.5t-31 114q0 61 31 113.5t83 83t113 30.5t113 -30.5t83 -83t31 -113.5q0 -62 -31 -114t-83 -82.5t-113 -30.5 t-113 30.5zM1265 315q-13 0 -21.5 8.5t-8.5 21.5v148q0 14 8.5 22t21.5 8h948q14 0 22 -8t8 -22v-148q0 -13 -8 -21.5t-22 -8.5h-948z" glyph-name="period_equal.liga" horiz-adv-x="2460" unicode=".=" vert-adv-y="1980"/>
<glyph d="M1564 1.5q-47 27.5 -75 75t-28 103.5t28 103t75 74.5t103 27.5t103 -27.5t75 -74.5t28 -103t-28 -103.5t-75 -75t-103 -27.5t-103 27.5zM1564 629.5q-47 27.5 -75 75t-28 103.5t28 103t75 74.5t103 27.5t103 -27.5t75 -74.5t28 -103t-28 -103.5t-75 -75t-103 -27.5 t-103 27.5zM690 1.5q-47 27.5 -75 75t-28 103.5t28 103t75 74.5t103 27.5t103 -27.5t75 -74.5t28 -103t-28 -103.5t-75 -75t-103 -27.5t-103 27.5zM690 629.5q-47 27.5 -75 75t-28 103.5t28 103t75 74.5t103 27.5t103 -27.5t75 -74.5t28 -103t-28 -103.5t-75 -75t-103 -27.5 t-103 27.5z" glyph-name="colon_colon.liga" horiz-adv-x="2460" unicode="::" vert-adv-y="1980"/>
<glyph d="M1742 1.5q-47 27.5 -75 75t-28 103.5t28 103t75 74.5t103 27.5t103 -27.5t75 -74.5t28 -103t-28 -103.5t-75 -75t-103 -27.5t-103 27.5zM1742 629.5q-47 27.5 -75 75t-28 103.5t28 103t75 74.5t103 27.5t103 -27.5t75 -74.5t28 -103t-28 -103.5t-75 -75t-103 -27.5 t-103 27.5zM2764 1.5q-47 27.5 -75 75t-28 103.5t28 103t75 74.5t103 27.5t103 -27.5t75 -74.5t28 -103t-28 -103.5t-75 -75t-103 -27.5t-103 27.5zM2764 629.5q-47 27.5 -75 75t-28 103.5t28 103t75 74.5t103 27.5t103 -27.5t75 -74.5t28 -103t-28 -103.5t-75 -75 t-103 -27.5t-103 27.5zM720 1.5q-47 27.5 -75 75t-28 103.5t28 103t75 74.5t103 27.5t103 -27.5t75 -74.5t28 -103t-28 -103.5t-75 -75t-103 -27.5t-103 27.5zM720 629.5q-47 27.5 -75 75t-28 103.5t28 103t75 74.5t103 27.5t103 -27.5t75 -74.5t28 -103t-28 -103.5t-75 -75 t-103 -27.5t-103 27.5z" glyph-name="colon_colon_colon.liga" horiz-adv-x="3690" unicode=":::" vert-adv-y="1980"/>
<glyph d="M1911 234q14 0 22 -8t8 -22v-101q0 -142 -12 -267t-32 -204q-7 -22 -37 -22h-157q-32 0 -29 32q17 183 17 324v34h-261q-13 0 -21.5 8.5t-8.5 21.5v174q0 14 8.5 22t21.5 8h481zM1561 629.5q-47 27.5 -75 75t-28 103.5t28 103t75 74.5t103 27.5t103 -27.5t75 -74.5 t28 -103t-28 -103.5t-75 -75t-103 -27.5t-103 27.5zM1043 234q14 0 22 -8t8 -22v-101q0 -142 -12 -267t-32 -204q-7 -22 -37 -22h-157q-32 0 -29 32q17 183 17 324v34h-261q-13 0 -21.5 8.5t-8.5 21.5v174q0 14 8.5 22t21.5 8h481zM693 629.5q-47 27.5 -75 75t-28 103.5 t28 103t75 74.5t103 27.5t103 -27.5t75 -74.5t28 -103t-28 -103.5t-75 -75t-103 -27.5t-103 27.5z" glyph-name="semicolon_semicolon.liga" horiz-adv-x="2460" unicode=";;" vert-adv-y="1980"/>
<glyph d="M1414 783l-109 -260h1014q14 0 22 -8t8 -22v-148q0 -13 -8 -21.5t-22 -8.5h-1101l-190 -455q-10 -24 -36 -24h-219q-27 0 -27 20q0 6 3 14l186 445h-794q-13 0 -21.5 8.5t-8.5 21.5v148q0 14 8.5 22t21.5 8h881l109 260h-990q-13 0 -21.5 8.5t-8.5 21.5v147q0 14 8 22 t22 8h1077l214 512q11 24 36 24h219q13 0 20 -5.5t7 -15.5q0 -5 -3 -13l-210 -502h818q14 0 22 -8t8 -22v-147q0 -13 -8 -21.5t-22 -8.5h-905z" glyph-name="exclam_equal.liga" horiz-adv-x="2460" unicode="!=" vert-adv-y="1980"/>
<glyph d="M2130 1007l-101 -240h1520q14 0 22 -8t8 -22v-147q0 -13 -8 -21.5t-22 -8.5h-1606l-100 -240h1706q14 0 22 -8t8 -22v-147q0 -13 -8 -21.5t-22 -8.5h-1793l-113 -270q-10 -24 -36 -24h-219q-27 0 -27 20q0 6 3 14l109 260h-1332q-13 0 -21.5 8.5t-8.5 21.5v147 q0 14 8.5 22t21.5 8h1418l101 240h-1519q-13 0 -21.5 8.5t-8.5 21.5v147q0 14 8.5 22t21.5 8h1606l100 240h-1706q-13 0 -21.5 8.5t-8.5 21.5v147q0 14 8.5 22t21.5 8h1793l113 271q11 25 36 25h219q13 0 20 -5.5t7 -15.5q0 -5 -3 -13l-110 -262h1333q14 0 22 -8t8 -22v-147 q0 -13 -8 -21.5t-22 -8.5h-1419z" glyph-name="exclam_equal_equal.liga" horiz-adv-x="3690" unicode="!==" vert-adv-y="1980"/>
<glyph d="M1326 957q2 -10 2 -14q0 -28 -35 -38l-256 -63l175 -221q12 -15 12 -30q0 -17 -21 -31l-166 -111q-12 -8 -25 -8q-21 0 -33 20l-154 230l-154 -230q-12 -20 -33 -20q-13 0 -25 8l-166 111q-20 14 -20 32q0 14 12 29l174 221l-256 63q-35 10 -35 38q0 4 2 14l49 187 q4 16 14 24.5t25 8.5q10 0 15 -2l267 -77l-9 288q0 20 12 32t31 12h188q19 0 31 -12t12 -32l-2 -288l266 77q5 2 15 2q15 0 25 -8.5t14 -24.5zM1338 -260q-27 0 -27 20q0 6 3 14l683 1632q11 24 36 24h219q13 0 20 -5.5t7 -15.5q0 -5 -3 -13l-683 -1632q-10 -24 -36 -24 h-219z" glyph-name="asterisk_slash.liga" horiz-adv-x="2460" unicode="*/" vert-adv-y="1980"/>
<glyph d="M148 -260q-27 0 -27 20q0 6 3 14l683 1632q11 24 36 24h219q13 0 20 -5.5t7 -15.5q0 -5 -3 -13l-683 -1632q-10 -24 -36 -24h-219zM2306 957q2 -10 2 -14q0 -28 -35 -38l-256 -63l175 -221q12 -15 12 -30q0 -17 -21 -31l-166 -111q-12 -8 -25 -8q-21 0 -33 20l-154 230 l-154 -230q-12 -20 -33 -20q-13 0 -25 8l-166 111q-20 14 -20 32q0 14 12 29l174 221l-256 63q-35 10 -35 38q0 4 2 14l49 187q4 16 14 24.5t25 8.5q10 0 15 -2l267 -77l-9 288q0 20 12 32t31 12h188q19 0 31 -12t12 -32l-2 -288l266 77q5 2 15 2q15 0 25 -8.5t14 -24.5z " glyph-name="slash_asterisk.liga" horiz-adv-x="2460" unicode="/*" vert-adv-y="1980"/>
<glyph d="M2177 625q22 -13 22 -34v-153q0 -11 -5.5 -19t-16.5 -14l-708 -429q-9 -6 -17 -6q-15 0 -24 14l-88 148q-5 8 -5 17q0 17 16 27l580 339l-859 513l-529 -1264q-10 -24 -36 -24h-219q-13 0 -20 5.5t-7 15.5q0 5 3 13l683 1632q11 24 36 24h219q27 0 27 -20q0 -6 -3 -14 l-68 -163z" glyph-name="slash_greater.liga" horiz-adv-x="2460" unicode="/&gt;" vert-adv-y="1980"/>
<glyph d="M1266 -260q-27 0 -27 20q0 6 3 14l683 1632q11 24 36 24h219q13 0 20 -5.5t7 -15.5q0 -5 -3 -13l-683 -1632q-10 -24 -36 -24h-219zM280 -260q-27 0 -27 20q0 6 3 14l683 1632q11 24 36 24h219q13 0 20 -5.5t7 -15.5q0 -5 -3 -13l-683 -1632q-10 -24 -36 -24h-219z" glyph-name="slash_slash.liga" horiz-adv-x="2460" unicode="//" vert-adv-y="1980"/>
<glyph d="M2460 -229h-2460v229h2460v-229z" glyph-name="underscore_underscore.liga" horiz-adv-x="2460" unicode="__" vert-adv-y="1980"/>
<glyph d="M141 783q-13 0 -21.5 8.5t-8.5 21.5v147q0 14 8 22t22 8h2178q14 0 22 -8t8 -22v-147q0 -13 -8 -21.5t-22 -8.5h-2178zM141 315q-13 0 -21.5 8.5t-8.5 21.5v148q0 14 8.5 22t21.5 8h2178q14 0 22 -8t8 -22v-148q0 -13 -8 -21.5t-22 -8.5h-2178z" glyph-name="equal_equal.liga" horiz-adv-x="2460" unicode="==" vert-adv-y="1980"/>
<glyph d="M141 1007q-13 0 -21.5 8.5t-8.5 21.5v147q0 14 8.5 22t21.5 8h3408q14 0 22 -8t8 -22v-147q0 -13 -8 -21.5t-22 -8.5h-3408zM141 560q-13 0 -21.5 8.5t-8.5 21.5v147q0 14 8.5 22t21.5 8h3408q14 0 22 -8t8 -22v-147q0 -13 -8 -21.5t-22 -8.5h-3408zM141 113 q-13 0 -21.5 8.5t-8.5 21.5v147q0 14 8.5 22t21.5 8h3408q14 0 22 -8t8 -22v-147q0 -13 -8 -21.5t-22 -8.5h-3408z" glyph-name="equal_equal_equal.liga" horiz-adv-x="3690" unicode="===" vert-adv-y="1980"/>
<glyph d="M2975 1219l565 -565l-565 -565l-137 138l91 88h-2788q-13 0 -21.5 8.5t-8.5 21.5v148q0 14 8.5 22t21.5 8h3003l136 131l-134 129h-3005q-13 0 -21.5 8.5t-8.5 21.5v147q0 14 8 22t22 8h2791l-94 91z" glyph-name="equal_equal_greater.liga" horiz-adv-x="3690" unicode="==&gt;" vert-adv-y="1980"/>
<glyph d="M1745 1219l565 -565l-565 -565l-137 138l91 88h-1558q-13 0 -21.5 8.5t-8.5 21.5v148q0 14 8.5 22t21.5 8h1773l136 131l-134 129h-1775q-13 0 -21.5 8.5t-8.5 21.5v147q0 14 8 22t22 8h1561l-94 91z" glyph-name="equal_greater.liga" horiz-adv-x="2460" unicode="=&gt;" vert-adv-y="1980"/>
<glyph d="M2325 1219l565 -565l-565 -565l-137 138l91 88h-2138q-13 0 -21.5 8.5t-8.5 21.5v148q0 14 8.5 22t21.5 8h2353l136 131l-134 129h-2355q-13 0 -21.5 8.5t-8.5 21.5v147q0 14 8 22t22 8h2141l-94 91zM2838 1081l137 138l565 -565l-565 -565l-137 138l442 427z" glyph-name="equal_greater_greater.liga" horiz-adv-x="3690" unicode="=&gt;&gt;" vert-adv-y="1980"/>
<glyph d="M2130 1007l-101 -240h1520q14 0 22 -8t8 -22v-147q0 -13 -8 -21.5t-22 -8.5h-1606l-100 -240h1706q14 0 22 -8t8 -22v-147q0 -13 -8 -21.5t-22 -8.5h-1793l-113 -270q-10 -24 -36 -24h-219q-27 0 -27 20q0 6 3 14l109 260h-1332q-13 0 -21.5 8.5t-8.5 21.5v147 q0 14 8.5 22t21.5 8h1418l101 240h-1519q-13 0 -21.5 8.5t-8.5 21.5v147q0 14 8.5 22t21.5 8h1606l100 240h-1706q-13 0 -21.5 8.5t-8.5 21.5v147q0 14 8.5 22t21.5 8h1793l113 271q11 25 36 25h219q13 0 20 -5.5t7 -15.5q0 -5 -3 -13l-110 -262h1333q14 0 22 -8t8 -22v-147 q0 -13 -8 -21.5t-22 -8.5h-1419z" glyph-name="equal_slash_equal.liga" horiz-adv-x="3690" unicode="=/=" vert-adv-y="1980"/>
<glyph d="M2838 1081l137 138l565 -565l-565 -565l-137 138l340 328h-2425l-466 -466l-137 138l442 427l-442 427l137 138l466 -466h2425z" glyph-name="greater_hyphen_greater.liga" horiz-adv-x="3690" unicode="&gt;-&gt;" vert-adv-y="1980"/>
<glyph d="M2838 1081l137 138l565 -565l-565 -565l-137 138l340 328h-2425l-466 -466l-137 138l442 427l-442 427l137 138l466 -466h2425z" glyph-name="greater_endash_greater.liga" horiz-adv-x="3690" unicode="&gt;–&gt;" vert-adv-y="1980"/>
<glyph d="M317 374q-9 -6 -17 -6q-14 0 -24 15l-88 148q-5 10 -5 17q0 14 16 24l581 341l-581 339q-16 10 -16 27q0 9 5 17l88 147q10 15 24 15q8 0 17 -6l708 -429q22 -13 22 -34v-152q0 -21 -22 -34zM317 -105q-9 -6 -17 -6q-14 0 -24 15l-88 148q-5 10 -5 17q0 14 16 24l713 425 q9 6 17 6q14 0 24 -15l88 -147q6 -9 6 -18q0 -13 -16 -23z" glyph-name="greater_equal.liga" unicode="&gt;=" vert-adv-y="1980"/>
<glyph d="M2838 1081l137 138l565 -565l-565 -565l-137 138l91 88h-2416l-226 -226l-137 138l442 427l-442 427l137 138l229 -229h2416zM852 654l-131 -131h2423l136 131l-134 129h-2423z" glyph-name="greater_equal_greater.liga" horiz-adv-x="3690" unicode="&gt;=&gt;" vert-adv-y="1980"/>
<glyph d="M512 753h1798v-198h-1798l340 -328l-137 -138l-565 565l565 565l137 -138z" glyph-name="less_hyphen.liga" horiz-adv-x="2460" unicode="&lt;-" vert-adv-y="1980"/>
<glyph d="M512 753h3028v-198h-3028l340 -328l-137 -138l-565 565l565 565l137 -138z" glyph-name="less_hyphen_hyphen.liga" horiz-adv-x="3690" unicode="&lt;--" vert-adv-y="1980"/>
<glyph d="M2838 1081l137 138l565 -565l-565 -565l-137 138l340 328h-2666l340 -328l-137 -138l-565 565l565 565l137 -138l-340 -328h2666z" glyph-name="less_hyphen_greater.liga" horiz-adv-x="3690" unicode="&lt;-&gt;" vert-adv-y="1980"/>
<glyph d="M3403 1219l137 -138l-442 -427l442 -427l-137 -138l-466 466h-2425l340 -328l-137 -138l-565 565l565 565l137 -138l-340 -328h2425z" glyph-name="less_hyphen_less.liga" horiz-adv-x="3690" unicode="&lt;-&lt;" vert-adv-y="1980"/>
<glyph d="M512 753h1798v-198h-1798l340 -328l-137 -138l-565 565l565 565l137 -138z" glyph-name="less_endash.liga" horiz-adv-x="2460" unicode="&lt;–" vert-adv-y="1980"/>
<glyph d="M512 753h3028v-198h-3028l340 -328l-137 -138l-565 565l565 565l137 -138z" glyph-name="less_endash_endash.liga" horiz-adv-x="3690" unicode="&lt;––" vert-adv-y="1980"/>
<glyph d="M2838 1081l137 138l565 -565l-565 -565l-137 138l340 328h-2666l340 -328l-137 -138l-565 565l565 565l137 -138l-340 -328h2666z" glyph-name="less_endash_greater.liga" horiz-adv-x="3690" unicode="&lt;–&gt;" vert-adv-y="1980"/>
<glyph d="M3403 1219l137 -138l-442 -427l442 -427l-137 -138l-466 466h-2425l340 -328l-137 -138l-565 565l565 565l137 -138l-340 -328h2425z" glyph-name="less_endash_less.liga" horiz-adv-x="3690" unicode="&lt;–&lt;" vert-adv-y="1980"/>
<glyph d="M1542 1155q-2 20 -2 29q0 54 23.5 94.5t63 61.5t88.5 21q48 0 88 -21.5t63.5 -61.5t23.5 -94q0 -9 -2 -29l-70 -595q-2 -15 -12.5 -23.5t-24.5 -8.5h-130q-14 0 -25 9t-12 23zM715 1219l137 -138l-340 -328h763v-198h-763l340 -328l-137 -138l-565 565zM2154 555v198 h2616v-198h-2616zM1813.5 340q44.5 -26 71 -71t26.5 -99q0 -53 -26.5 -98t-71 -71.5t-97.5 -26.5t-98 26.5t-71.5 71.5t-26.5 98q0 54 26.5 99t71.5 71t98 26t97.5 -26z" glyph-name="less_exclam_hyphen_hyphen.liga" horiz-adv-x="4920" unicode="&lt;!--" vert-adv-y="1980"/>
<glyph d="M1542 1155q-2 20 -2 29q0 54 23.5 94.5t63 61.5t88.5 21q48 0 88 -21.5t63.5 -61.5t23.5 -94q0 -9 -2 -29l-70 -595q-2 -15 -12.5 -23.5t-24.5 -8.5h-130q-14 0 -25 9t-12 23zM715 1219l137 -138l-340 -328h763v-198h-763l340 -328l-137 -138l-565 565zM2154 555v198 h2616v-198h-2616zM1813.5 340q44.5 -26 71 -71t26.5 -99q0 -53 -26.5 -98t-71 -71.5t-97.5 -26.5t-98 26.5t-71.5 71.5t-26.5 98q0 54 26.5 99t71.5 71t98 26t97.5 -26z" glyph-name="less_exclam_endash_endash.liga" horiz-adv-x="4920" unicode="&lt;!––" vert-adv-y="1980"/>
<glyph d="M205 803q-22 13 -22 34v152q0 21 22 34l708 429q9 6 17 6q14 0 24 -15l88 -147q5 -8 5 -17q0 -17 -16 -27l-581 -339l581 -341q16 -10 16 -24q0 -7 -5 -17l-88 -148q-10 -15 -24 -15q-8 0 -17 6zM200 321q-16 10 -16 24q0 7 5 17l88 147q10 15 24 15q8 0 17 -6l713 -425 q16 -10 16 -24q0 -7 -5 -17l-88 -148q-10 -15 -24 -15q-8 0 -17 6z" glyph-name="less_equal.liga" unicode="&lt;=" vert-adv-y="1980"/>
<glyph d="M544 783l-134 -129l136 -131h3003q14 0 22 -8t8 -22v-148q0 -13 -8 -21.5t-22 -8.5h-2788l91 -88l-137 -138l-565 565l565 565l137 -138l-94 -91h2791q14 0 22 -8t8 -22v-147q0 -13 -8 -21.5t-22 -8.5h-3005z" glyph-name="less_equal_equal.liga" horiz-adv-x="3690" unicode="&lt;==" vert-adv-y="1980"/>
<glyph d="M4068 1081l137 138l565 -565l-565 -565l-137 138l91 88h-3398l91 -88l-137 -138l-565 565l565 565l137 -138l-94 -91h3404zM410 654l136 -131h3828l136 131l-134 129h-3832z" glyph-name="less_equal_equal_greater.liga" horiz-adv-x="4920" unicode="&lt;==&gt;" vert-adv-y="1980"/>
<glyph d="M2838 1081l137 138l565 -565l-565 -565l-137 138l91 88h-2168l91 -88l-137 -138l-565 565l565 565l137 -138l-94 -91h2174zM410 654l136 -131h2598l136 131l-134 129h-2602z" glyph-name="less_equal_greater.liga" horiz-adv-x="3690" unicode="&lt;=&gt;" vert-adv-y="1980"/>
<glyph d="M3403 1219l137 -138l-442 -427l442 -427l-137 -138l-226 226h-2416l91 -88l-137 -138l-565 565l565 565l137 -138l-94 -91h2416zM410 654l136 -131h2423l-131 131l129 129h-2423z" glyph-name="less_equal_less.liga" horiz-adv-x="3690" unicode="&lt;=&lt;" vert-adv-y="1980"/>
<glyph d="M715 1219l137 -138l-442 -427l442 -427l-137 -138l-565 565zM1162 753h2378v-198h-2378l340 -328l-137 -138l-565 565l565 565l137 -138z" glyph-name="less_less_hyphen.liga" horiz-adv-x="3690" unicode="&lt;&lt;-" vert-adv-y="1980"/>
<glyph d="M715 1219l137 -138l-442 -427l442 -427l-137 -138l-565 565zM1162 753h2378v-198h-2378l340 -328l-137 -138l-565 565l565 565l137 -138z" glyph-name="less_less_endash.liga" horiz-adv-x="3690" unicode="&lt;&lt;–" vert-adv-y="1980"/>
<glyph d="M720 1219l137 -138l-442 -427l442 -427l-137 -138l-565 565zM1199 783l-134 -129l136 -131h2353q14 0 22 -8t8 -22v-148q0 -13 -8 -21.5t-22 -8.5h-2138l91 -88l-137 -138l-565 565l565 565l137 -138l-94 -91h2141q14 0 22 -8t8 -22v-147q0 -13 -8 -21.5t-22 -8.5h-2355z " glyph-name="less_less_equal.liga" horiz-adv-x="3690" unicode="&lt;&lt;=" vert-adv-y="1980"/>
<glyph d="M2172 1430q13 0 20 -5.5t7 -15.5q0 -5 -3 -13l-683 -1632q-10 -24 -36 -24h-219q-27 0 -27 20q0 6 3 14l68 163l-1019 608q-22 13 -22 34v153q0 21 22 34l708 428q9 6 17 6q15 0 24 -14l88 -148q5 -8 5 -17q0 -16 -16 -26l-580 -340l859 -513l529 1264q11 24 36 24h219z " glyph-name="less_slash.liga" horiz-adv-x="2460" unicode="&lt;/" vert-adv-y="1980"/>
<glyph d="M3277 625q22 -13 22 -34v-153q0 -11 -5.5 -19t-16.5 -14l-708 -429q-9 -6 -17 -6q-15 0 -24 14l-88 148q-5 8 -5 17q0 17 16 27l580 339l-859 513l-529 -1264q-10 -24 -36 -24h-219q-27 0 -27 20q0 6 3 14l68 163l-1019 608q-22 13 -22 34v153q0 21 22 34l708 428 q9 6 17 6q15 0 24 -14l88 -148q5 -8 5 -17q0 -16 -16 -26l-580 -340l859 -513l529 1264q11 24 36 24h219q27 0 27 -20q0 -6 -3 -14l-68 -163z" glyph-name="less_slash_greater.liga" horiz-adv-x="3690" unicode="&lt;/&gt;" vert-adv-y="1980"/>
<glyph d="M184 1600h628v-1980h-628v1980zM659 1402v65h-326v-65h128v-73h-130v-66h328v66h-130v73h130zM529 1073v139h-198v-206h328v67h-130zM396 1145h65v-72h-65v72zM659 887v66h-328v-66h130v-73h-130v-65h198v138h130zM659 636v198h-65v-131h-263v-67h328zM659 368v224h-198 v-111h68v46h65v-93h-198v158h-65v-224h328zM659 26v224h-328v-224h328zM396 184h198v-93h-198v93zM659 -85v65h-328v-65h138l-138 -93v-65h328v65h-202l139 93h63z" glyph-name=".notdef" horiz-adv-x="990" vert-adv-y="1980"/>
<glyph glyph-name="space" unicode=" " vert-adv-y="1980"/>
<glyph d="M1164 34q2 -8 2 -11q0 -23 -26 -23h-236q-29 0 -34 24l-52 222h-406l-52 -222q-5 -24 -34 -24h-236q-26 0 -26 23q0 3 2 11l333 1282q3 12 12 18t22 6h364q12 0 21.5 -6t12.5 -18zM599 1037l-128 -543h288l-128 543h-32z" glyph-name="A" unicode="A" vert-adv-y="1980"/>
<glyph d="M1164 34q2 -8 2 -11q0 -23 -26 -23h-236q-29 0 -34 24l-52 222h-406l-52 -222q-5 -24 -34 -24h-236q-26 0 -26 23q0 3 2 11l333 1282q3 12 12 18t22 6h364q12 0 21.5 -6t12.5 -18zM599 1037l-128 -543h288l-128 543h-32zM523 1550q-13 0 -20.5 5t-7.5 15q0 4 4 14 l120 252q6 13 14 18.5t20 5.5h198q13 0 20.5 -5t7.5 -15q0 -4 -4 -14l-120 -252q-6 -13 -14 -18.5t-20 -5.5h-198z" glyph-name="Aacute" unicode="Á" vert-adv-y="1980"/>
<glyph d="M1164 34q2 -8 2 -11q0 -23 -26 -23h-236q-29 0 -34 24l-52 222h-406l-52 -222q-5 -24 -34 -24h-236q-26 0 -26 23q0 3 2 11l333 1282q3 12 12 18t22 6h364q12 0 21.5 -6t12.5 -18zM599 1037l-128 -543h288l-128 543h-32zM443.5 1575q-73.5 39 -115.5 105t-50 148 q-2 15 6 23.5t24 8.5h120q25 0 32 -30q11 -47 52 -81.5t103 -34.5t103 34.5t52 81.5q7 30 32 30h120q16 0 24 -8.5t6 -23.5q-8 -82 -50 -148t-115.5 -105t-171.5 -39t-171.5 39z" glyph-name="Abreve" unicode="Ă" vert-adv-y="1980"/>
<glyph d="M1164 34q2 -8 2 -11q0 -23 -26 -23h-236q-29 0 -34 24l-52 222h-406l-52 -222q-5 -24 -34 -24h-236q-26 0 -26 23q0 3 2 11l333 1282q3 12 12 18t22 6h364q12 0 21.5 -6t12.5 -18zM599 1037l-128 -543h288l-128 543h-32zM467 1541q-11 0 -19 3t-17 13l-224 267 q-8 9 -8 19q0 8 7 12.5t19 4.5h223q23 0 36 -16l131 -151l131 151q13 16 36 16h223q12 0 19 -4.5t7 -12.5q0 -10 -8 -19l-224 -267q-9 -10 -17 -13t-19 -3h-296z" glyph-name="uni01CD" unicode="Ǎ" vert-adv-y="1980"/>
<glyph d="M1164 34q2 -8 2 -11q0 -23 -26 -23h-236q-29 0 -34 24l-52 222h-406l-52 -222q-5 -24 -34 -24h-236q-26 0 -26 23q0 3 2 11l333 1282q3 12 12 18t22 6h364q12 0 21.5 -6t12.5 -18zM599 1037l-128 -543h288l-128 543h-32zM225 1541q-12 0 -19 4.5t-7 12.5q0 10 8 19 l224 267q9 10 17 13t19 3h296q11 0 19 -3t17 -13l224 -267q8 -9 8 -19q0 -8 -7 -12.5t-19 -4.5h-223q-23 0 -36 16l-131 151l-131 -151q-13 -16 -36 -16h-223z" glyph-name="Acircumflex" unicode="Â" vert-adv-y="1980"/>
<glyph d="M1164 34q2 -8 2 -11q0 -23 -26 -23h-236q-29 0 -34 24l-52 222h-406l-52 -222q-5 -24 -34 -24h-236q-26 0 -26 23q0 3 2 11l333 1282q3 12 12 18t22 6h364q12 0 21.5 -6t12.5 -18zM599 1037l-128 -543h288l-128 543h-32zM323 1595q-32 19 -51 51.5t-19 72.5q0 39 19 71 t51 51t70 19t70.5 -19t51.5 -51t19 -71q0 -40 -19 -72.5t-51.5 -51.5t-70.5 -19t-70 19zM766 1595q-32 19 -51 51.5t-19 72.5q0 39 19 71t51 51t70 19t70.5 -19t51.5 -51t19 -71q0 -40 -19 -72.5t-51.5 -51.5t-70.5 -19t-70 19z" glyph-name="Adieresis" unicode="Ä" vert-adv-y="1980"/>
<glyph d="M1164 34q2 -8 2 -11q0 -23 -26 -23h-236q-29 0 -34 24l-52 222h-406l-52 -222q-5 -24 -34 -24h-236q-26 0 -26 23q0 3 2 11l333 1282q3 12 12 18t22 6h364q12 0 21.5 -6t12.5 -18zM599 1037l-128 -543h288l-128 543h-32zM511 1550q-12 0 -20 5.5t-14 18.5l-120 252 q-4 10 -4 14q0 10 7.5 15t20.5 5h198q12 0 20 -5.5t14 -18.5l120 -252q4 -10 4 -14q0 -10 -7.5 -15t-20.5 -5h-198z" glyph-name="Agrave" unicode="À" vert-adv-y="1980"/>
<glyph d="M1164 34q2 -8 2 -11q0 -23 -26 -23h-236q-29 0 -34 24l-52 222h-406l-52 -222q-5 -24 -34 -24h-236q-26 0 -26 23q0 3 2 11l333 1282q3 12 12 18t22 6h364q12 0 21.5 -6t12.5 -18zM599 1037l-128 -543h288l-128 543h-32zM343 1642q-13 0 -21.5 8.5t-8.5 21.5v158 q0 14 8.5 22t21.5 8h544q14 0 22 -8t8 -22v-158q0 -13 -8 -21.5t-22 -8.5h-544z" glyph-name="Amacron" unicode="Ā" vert-adv-y="1980"/>
<glyph d="M1164 34q2 -8 2 -11q0 -23 -26 -23h-77q-78 0 -116.5 -29t-38.5 -74q0 -43 34 -70.5t95 -27.5h42q20 0 20 -20v-131q0 -20 -20 -20h-61q-129 0 -219.5 52.5t-90.5 177.5q0 154 152 210l-42 178h-406l-52 -222q-5 -24 -34 -24h-236q-26 0 -26 23q0 3 2 11l333 1282 q3 12 12 18t22 6h364q12 0 21.5 -6t12.5 -18zM599 1037l-128 -543h288l-128 543h-32z" glyph-name="Aogonek" unicode="Ą" vert-adv-y="1980"/>
<glyph d="M1164 34q2 -8 2 -11q0 -23 -26 -23h-236q-29 0 -34 24l-52 222h-406l-52 -222q-5 -24 -34 -24h-236q-26 0 -26 23q0 3 2 11l333 1282q3 12 12 18t22 6h364q12 0 21.5 -6t12.5 -18zM599 1037l-128 -543h288l-128 543h-32zM510.5 1480.5q-47.5 27.5 -75 74t-27.5 100.5 q0 55 27.5 102.5t75 75t104.5 27.5t104 -27.5t74 -75t27 -102.5q0 -54 -27 -100.5t-74 -74t-104 -27.5t-104.5 27.5zM658 1614.5q18 15.5 18 40.5q0 27 -17.5 44t-43.5 17t-43 -16t-17 -42q0 -27 16.5 -43t43.5 -16q25 0 43 15.5z" glyph-name="Aring" unicode="Å" vert-adv-y="1980"/>
<glyph d="M1164 34q2 -8 2 -11q0 -23 -26 -23h-236q-29 0 -34 24l-52 222h-406l-52 -222q-5 -24 -34 -24h-236q-26 0 -26 23q0 3 2 11l333 1282q3 12 12 18t22 6h364q12 0 21.5 -6t12.5 -18zM599 1037l-128 -543h288l-128 543h-32zM713 1569.5q-35 11.5 -60 27.5t-62 44 q-41 32 -69.5 47.5t-64.5 15.5t-59 -17t-34 -42q-7 -15 -21 -15h-103q-10 0 -15 7.5t-5 20.5q0 70 31 116t80.5 67.5t105.5 21.5q61 0 104.5 -21.5t96.5 -62.5q42 -32 71 -47.5t64 -15.5q36 0 60 17.5t33 41.5q6 16 22 16h102q10 0 15 -6t5 -16q0 -72 -31.5 -119.5 t-81.5 -69.5t-106 -22q-43 0 -78 11.5z" glyph-name="Atilde" unicode="Ã" vert-adv-y="1980"/>
<glyph d="M1166 258q14 0 22 -8t8 -22v-198q0 -13 -8 -21.5t-22 -8.5h-534q-13 0 -21.5 8.5t-8.5 21.5v130h-237l-47 -136q-8 -24 -34 -24h-222q-13 0 -20 5.5t-7 15.5q0 6 3 13l482 1282q9 24 34 24h610q14 0 22 -8t8 -22v-198q0 -13 -8 -21.5t-22 -8.5h-280v-265h240q14 0 22 -8 t8 -22v-198q0 -13 -8 -21.5t-22 -8.5h-240v-301h282zM602 849l-152 -441h152v441z" glyph-name="AE" unicode="Æ" vert-adv-y="1980"/>
<glyph d="M148 0q-13 0 -21.5 8.5t-8.5 21.5v1280q0 14 8.5 22t21.5 8h505q210 0 308.5 -91t98.5 -240q0 -107 -53.5 -182t-168.5 -98v-20q150 -20 222.5 -105.5t72.5 -228.5q0 -183 -118.5 -279t-382.5 -96h-484zM626 823q90 0 125.5 31.5t35.5 102.5q0 47 -15 74t-50 39t-96 12 h-216v-259h216zM642 258q107 0 153 39t46 123q0 83 -46.5 122.5t-152.5 39.5h-232v-324h232z" glyph-name="B" unicode="B" vert-adv-y="1980"/>
<glyph d="M323 43q-116 73 -168 224.5t-52 397.5t52 398t168 224.5t309 72.5q160 0 266 -50.5t164.5 -167.5t65.5 -312q2 -32 -28 -32h-210q-29 0 -33 26q-11 103 -40.5 159t-75 76.5t-112.5 20.5q-86 0 -138 -34.5t-78.5 -124.5t-26.5 -256t26.5 -256t78.5 -124.5t138 -34.5 q70 0 115.5 18t73.5 62t39 122q4 26 33 26h210q30 0 28 -32q-11 -251 -134.5 -363.5t-361.5 -112.5q-193 0 -309 73z" glyph-name="C" unicode="C" vert-adv-y="1980"/>
<glyph d="M323 43q-116 73 -168 224.5t-52 397.5t52 398t168 224.5t309 72.5q160 0 266 -50.5t164.5 -167.5t65.5 -312q2 -32 -28 -32h-210q-29 0 -33 26q-11 103 -40.5 159t-75 76.5t-112.5 20.5q-86 0 -138 -34.5t-78.5 -124.5t-26.5 -256t26.5 -256t78.5 -124.5t138 -34.5 q70 0 115.5 18t73.5 62t39 122q4 26 33 26h210q30 0 28 -32q-11 -251 -134.5 -363.5t-361.5 -112.5q-193 0 -309 73zM540 1550q-13 0 -20.5 5t-7.5 15q0 4 4 14l120 252q6 13 14 18.5t20 5.5h198q13 0 20.5 -5t7.5 -15q0 -4 -4 -14l-120 -252q-6 -13 -14 -18.5t-20 -5.5 h-198z" glyph-name="Cacute" unicode="Ć" vert-adv-y="1980"/>
<glyph d="M323 43q-116 73 -168 224.5t-52 397.5t52 398t168 224.5t309 72.5q160 0 266 -50.5t164.5 -167.5t65.5 -312q2 -32 -28 -32h-210q-29 0 -33 26q-11 103 -40.5 159t-75 76.5t-112.5 20.5q-86 0 -138 -34.5t-78.5 -124.5t-26.5 -256t26.5 -256t78.5 -124.5t138 -34.5 q70 0 115.5 18t73.5 62t39 122q4 26 33 26h210q30 0 28 -32q-11 -251 -134.5 -363.5t-361.5 -112.5q-193 0 -309 73zM484 1541q-11 0 -19 3t-17 13l-224 267q-8 9 -8 19q0 8 7 12.5t19 4.5h223q23 0 36 -16l131 -151l131 151q13 16 36 16h223q12 0 19 -4.5t7 -12.5 q0 -10 -8 -19l-224 -267q-9 -10 -17 -13t-19 -3h-296z" glyph-name="Ccaron" unicode="Č" vert-adv-y="1980"/>
<glyph d="M1100 478q30 0 28 -32q-10 -239 -122.5 -352t-327.5 -123l-42 -37q47 -4 88.5 -24.5t67 -56.5t25.5 -85q0 -105 -76 -157.5t-193 -52.5q-46 0 -88 7q-18 3 -18 22v98q0 9 6 15t16 5q37 -5 61 -5q50 0 77 15.5t27 40.5q0 18 -24 33t-61 15q-38 0 -78 -17q-4 -2 -10 -2 q-14 0 -14 16v103q0 14 10 24l54 51q-145 22 -233.5 102t-129 223.5t-40.5 360.5q0 246 52 398t168 224.5t309 72.5q160 0 266 -50.5t164.5 -167.5t65.5 -312q2 -32 -28 -32h-210q-29 0 -33 26q-11 103 -40.5 159t-75 76.5t-112.5 20.5q-86 0 -138 -34.5t-78.5 -124.5 t-26.5 -256t26.5 -256t78.5 -124.5t138 -34.5q70 0 115.5 18t73.5 62t39 122q4 26 33 26h210z" glyph-name="Ccedilla" unicode="Ç" vert-adv-y="1980"/>
<glyph d="M323 43q-116 73 -168 224.5t-52 397.5t52 398t168 224.5t309 72.5q160 0 266 -50.5t164.5 -167.5t65.5 -312q2 -32 -28 -32h-210q-29 0 -33 26q-11 103 -40.5 159t-75 76.5t-112.5 20.5q-86 0 -138 -34.5t-78.5 -124.5t-26.5 -256t26.5 -256t78.5 -124.5t138 -34.5 q70 0 115.5 18t73.5 62t39 122q4 26 33 26h210q30 0 28 -32q-11 -251 -134.5 -363.5t-361.5 -112.5q-193 0 -309 73zM561.5 1595q-32.5 19 -51.5 51.5t-19 72.5q0 39 19 71t51.5 51t70.5 19t70.5 -19t51.5 -51t19 -71q0 -40 -19 -72.5t-51.5 -51.5t-70.5 -19t-70.5 19z" glyph-name="Cdotaccent" unicode="Ċ" vert-adv-y="1980"/>
<glyph d="M153 0q-13 0 -21.5 8.5t-8.5 21.5v1280q0 14 8.5 22t21.5 8h444q301 0 426 -176.5t125 -493.5t-125 -493.5t-426 -176.5h-444zM586 258q107 0 165 48t79 136t21 228t-21 228t-79 136t-165 48h-171v-824h171z" glyph-name="D" unicode="D" vert-adv-y="1980"/>
<glyph d="M618 1340q301 0 426.5 -177t125.5 -493t-125.5 -493t-426.5 -177h-443q-13 0 -21.5 8.5t-8.5 21.5v531h-61q-13 0 -21.5 8.5t-8.5 21.5v158q0 14 8.5 22t21.5 8h61v531q0 14 8.5 22t21.5 8h443zM608 258q107 0 165 48t79 136t21 228t-21 228t-79 136t-165 48h-171v-303 h191q14 0 22 -8t8 -22v-158q0 -13 -8 -21.5t-22 -8.5h-191v-303h171z" glyph-name="Eth" unicode="Ð" vert-adv-y="1980"/>
<glyph d="M153 0q-13 0 -21.5 8.5t-8.5 21.5v1280q0 14 8.5 22t21.5 8h444q301 0 426 -176.5t125 -493.5t-125 -493.5t-426 -176.5h-444zM586 258q107 0 165 48t79 136t21 228t-21 228t-79 136t-165 48h-171v-824h171zM467 1541q-11 0 -19 3t-17 13l-224 267q-8 9 -8 19q0 8 7 12.5 t19 4.5h223q23 0 36 -16l131 -151l131 151q13 16 36 16h223q12 0 19 -4.5t7 -12.5q0 -10 -8 -19l-224 -267q-9 -10 -17 -13t-19 -3h-296z" glyph-name="Dcaron" unicode="Ď" vert-adv-y="1980"/>
<glyph d="M618 1340q301 0 426.5 -177t125.5 -493t-125.5 -493t-426.5 -177h-443q-13 0 -21.5 8.5t-8.5 21.5v531h-61q-13 0 -21.5 8.5t-8.5 21.5v158q0 14 8.5 22t21.5 8h61v531q0 14 8.5 22t21.5 8h443zM608 258q107 0 165 48t79 136t21 228t-21 228t-79 136t-165 48h-171v-303 h191q14 0 22 -8t8 -22v-158q0 -13 -8 -21.5t-22 -8.5h-191v-303h171z" glyph-name="Dcroat" unicode="Đ" vert-adv-y="1980"/>
<glyph d="M184 0q-13 0 -21.5 8.5t-8.5 21.5v1280q0 14 8.5 22t21.5 8h860q14 0 22 -8t8 -22v-198q0 -13 -8 -21.5t-22 -8.5h-598v-281h553q14 0 22 -8t8 -22v-198q0 -13 -8 -21.5t-22 -8.5h-553v-285h600q14 0 22 -8t8 -22v-198q0 -13 -8 -21.5t-22 -8.5h-862z" glyph-name="E" unicode="E" vert-adv-y="1980"/>
<glyph d="M184 0q-13 0 -21.5 8.5t-8.5 21.5v1280q0 14 8.5 22t21.5 8h860q14 0 22 -8t8 -22v-198q0 -13 -8 -21.5t-22 -8.5h-598v-281h553q14 0 22 -8t8 -22v-198q0 -13 -8 -21.5t-22 -8.5h-553v-285h600q14 0 22 -8t8 -22v-198q0 -13 -8 -21.5t-22 -8.5h-862zM523 1550 q-13 0 -20.5 5t-7.5 15q0 4 4 14l120 252q6 13 14 18.5t20 5.5h198q13 0 20.5 -5t7.5 -15q0 -4 -4 -14l-120 -252q-6 -13 -14 -18.5t-20 -5.5h-198z" glyph-name="Eacute" unicode="É" vert-adv-y="1980"/>
<glyph d="M184 0q-13 0 -21.5 8.5t-8.5 21.5v1280q0 14 8.5 22t21.5 8h860q14 0 22 -8t8 -22v-198q0 -13 -8 -21.5t-22 -8.5h-598v-281h553q14 0 22 -8t8 -22v-198q0 -13 -8 -21.5t-22 -8.5h-553v-285h600q14 0 22 -8t8 -22v-198q0 -13 -8 -21.5t-22 -8.5h-862zM467 1541 q-11 0 -19 3t-17 13l-224 267q-8 9 -8 19q0 8 7 12.5t19 4.5h223q23 0 36 -16l131 -151l131 151q13 16 36 16h223q12 0 19 -4.5t7 -12.5q0 -10 -8 -19l-224 -267q-9 -10 -17 -13t-19 -3h-296z" glyph-name="Ecaron" unicode="Ě" vert-adv-y="1980"/>
<glyph d="M184 0q-13 0 -21.5 8.5t-8.5 21.5v1280q0 14 8.5 22t21.5 8h860q14 0 22 -8t8 -22v-198q0 -13 -8 -21.5t-22 -8.5h-598v-281h553q14 0 22 -8t8 -22v-198q0 -13 -8 -21.5t-22 -8.5h-553v-285h600q14 0 22 -8t8 -22v-198q0 -13 -8 -21.5t-22 -8.5h-862zM225 1541 q-12 0 -19 4.5t-7 12.5q0 10 8 19l224 267q9 10 17 13t19 3h296q11 0 19 -3t17 -13l224 -267q8 -9 8 -19q0 -8 -7 -12.5t-19 -4.5h-223q-23 0 -36 16l-131 151l-131 -151q-13 -16 -36 -16h-223z" glyph-name="Ecircumflex" unicode="Ê" vert-adv-y="1980"/>
<glyph d="M184 0q-13 0 -21.5 8.5t-8.5 21.5v1280q0 14 8.5 22t21.5 8h860q14 0 22 -8t8 -22v-198q0 -13 -8 -21.5t-22 -8.5h-598v-281h553q14 0 22 -8t8 -22v-198q0 -13 -8 -21.5t-22 -8.5h-553v-285h600q14 0 22 -8t8 -22v-198q0 -13 -8 -21.5t-22 -8.5h-862zM323 1595 q-32 19 -51 51.5t-19 72.5q0 39 19 71t51 51t70 19t70.5 -19t51.5 -51t19 -71q0 -40 -19 -72.5t-51.5 -51.5t-70.5 -19t-70 19zM766 1595q-32 19 -51 51.5t-19 72.5q0 39 19 71t51 51t70 19t70.5 -19t51.5 -51t19 -71q0 -40 -19 -72.5t-51.5 -51.5t-70.5 -19t-70 19z" glyph-name="Edieresis" unicode="Ë" vert-adv-y="1980"/>
<glyph d="M184 0q-13 0 -21.5 8.5t-8.5 21.5v1280q0 14 8.5 22t21.5 8h860q14 0 22 -8t8 -22v-198q0 -13 -8 -21.5t-22 -8.5h-598v-281h553q14 0 22 -8t8 -22v-198q0 -13 -8 -21.5t-22 -8.5h-553v-285h600q14 0 22 -8t8 -22v-198q0 -13 -8 -21.5t-22 -8.5h-862zM544.5 1595 q-32.5 19 -51.5 51.5t-19 72.5q0 39 19 71t51.5 51t70.5 19t70.5 -19t51.5 -51t19 -71q0 -40 -19 -72.5t-51.5 -51.5t-70.5 -19t-70.5 19z" glyph-name="Edotaccent" unicode="Ė" vert-adv-y="1980"/>
<glyph d="M184 0q-13 0 -21.5 8.5t-8.5 21.5v1280q0 14 8.5 22t21.5 8h860q14 0 22 -8t8 -22v-198q0 -13 -8 -21.5t-22 -8.5h-598v-281h553q14 0 22 -8t8 -22v-198q0 -13 -8 -21.5t-22 -8.5h-553v-285h600q14 0 22 -8t8 -22v-198q0 -13 -8 -21.5t-22 -8.5h-862zM511 1550 q-12 0 -20 5.5t-14 18.5l-120 252q-4 10 -4 14q0 10 7.5 15t20.5 5h198q12 0 20 -5.5t14 -18.5l120 -252q4 -10 4 -14q0 -10 -7.5 -15t-20.5 -5h-198z" glyph-name="Egrave" unicode="È" vert-adv-y="1980"/>
<glyph d="M184 0q-13 0 -21.5 8.5t-8.5 21.5v1280q0 14 8.5 22t21.5 8h860q14 0 22 -8t8 -22v-198q0 -13 -8 -21.5t-22 -8.5h-598v-281h553q14 0 22 -8t8 -22v-198q0 -13 -8 -21.5t-22 -8.5h-553v-285h600q14 0 22 -8t8 -22v-198q0 -13 -8 -21.5t-22 -8.5h-862zM343 1642 q-13 0 -21.5 8.5t-8.5 21.5v158q0 14 8.5 22t21.5 8h544q14 0 22 -8t8 -22v-158q0 -13 -8 -21.5t-22 -8.5h-544z" glyph-name="Emacron" unicode="Ē" vert-adv-y="1980"/>
<glyph d="M1072 -201q20 0 20 -20v-131q0 -20 -20 -20h-61q-129 0 -219.5 52.5t-90.5 177.5q0 86 48 142h-565q-13 0 -21.5 8.5t-8.5 21.5v1280q0 14 8.5 22t21.5 8h860q14 0 22 -8t8 -22v-198q0 -13 -8 -21.5t-22 -8.5h-598v-281h553q14 0 22 -8t8 -22v-198q0 -13 -8 -21.5 t-22 -8.5h-553v-285h600q14 0 22 -8t8 -22v-198q0 -10 -5.5 -18t-14.5 -11v-1q-78 0 -116.5 -29t-38.5 -74q0 -43 34 -70.5t95 -27.5h42z" glyph-name="Eogonek" unicode="Ę" vert-adv-y="1980"/>
<glyph d="M185 0q-13 0 -21.5 8.5t-8.5 21.5v1280q0 14 8.5 22t21.5 8h860q14 0 22 -8t8 -22v-198q0 -13 -8 -21.5t-22 -8.5h-598v-375h552q14 0 22 -8t8 -22v-198q0 -13 -8 -21.5t-22 -8.5h-552v-419q0 -13 -8 -21.5t-22 -8.5h-232z" glyph-name="F" unicode="F" vert-adv-y="1980"/>
<glyph d="M1129 718q8 -8 8 -22v-173q0 -195 -53.5 -316.5t-164.5 -179t-288 -57.5q-193 0 -308.5 73t-167.5 224.5t-52 397.5t52 398t168 224.5t309 72.5q159 0 265.5 -46.5t165 -152.5t65.5 -283q2 -32 -28 -32h-210q-30 0 -34 26q-16 118 -71.5 163t-155.5 45q-86 0 -138 -34.5 t-78.5 -124.5t-26.5 -256q0 -167 27 -256.5t82 -124t147 -34.5q74 0 121.5 21.5t72.5 75t25 148.5v6h-254q-13 0 -21.5 8.5t-8.5 21.5v165q0 14 8.5 22t21.5 8h500q14 0 22 -8z" glyph-name="G" unicode="G" vert-adv-y="1980"/>
<glyph d="M1129 718q8 -8 8 -22v-173q0 -195 -53.5 -316.5t-164.5 -179t-288 -57.5q-193 0 -308.5 73t-167.5 224.5t-52 397.5t52 398t168 224.5t309 72.5q159 0 265.5 -46.5t165 -152.5t65.5 -283q2 -32 -28 -32h-210q-30 0 -34 26q-16 118 -71.5 163t-155.5 45q-86 0 -138 -34.5 t-78.5 -124.5t-26.5 -256q0 -167 27 -256.5t82 -124t147 -34.5q74 0 121.5 21.5t72.5 75t25 148.5v6h-254q-13 0 -21.5 8.5t-8.5 21.5v165q0 14 8.5 22t21.5 8h500q14 0 22 -8zM453.5 1575q-73.5 39 -115.5 105t-50 148q-2 15 6 23.5t24 8.5h120q25 0 32 -30 q11 -47 52 -81.5t103 -34.5t103 34.5t52 81.5q7 30 32 30h120q16 0 24 -8.5t6 -23.5q-8 -82 -50 -148t-115.5 -105t-171.5 -39t-171.5 39z" glyph-name="Gbreve" unicode="Ğ" vert-adv-y="1980"/>
<glyph d="M1129 718q8 -8 8 -22v-173q0 -195 -53.5 -316.5t-164.5 -179t-288 -57.5q-193 0 -308.5 73t-167.5 224.5t-52 397.5t52 398t168 224.5t309 72.5q159 0 265.5 -46.5t165 -152.5t65.5 -283q2 -32 -28 -32h-210q-30 0 -34 26q-16 118 -71.5 163t-155.5 45q-86 0 -138 -34.5 t-78.5 -124.5t-26.5 -256q0 -167 27 -256.5t82 -124t147 -34.5q74 0 121.5 21.5t72.5 75t25 148.5v6h-254q-13 0 -21.5 8.5t-8.5 21.5v165q0 14 8.5 22t21.5 8h500q14 0 22 -8zM849 -180q12 0 19.5 -7.5t7.5 -19.5v-91q0 -130 -10.5 -242t-29.5 -183q-5 -20 -33 -20h-142 q-29 0 -26 29q15 163 15 289v34h-236q-12 0 -19.5 7.5t-7.5 19.5v157q0 12 7.5 19.5t19.5 7.5h435z" glyph-name="uni0122" unicode="Ģ" vert-adv-y="1980"/>
<glyph d="M1129 718q8 -8 8 -22v-173q0 -195 -53.5 -316.5t-164.5 -179t-288 -57.5q-193 0 -308.5 73t-167.5 224.5t-52 397.5t52 398t168 224.5t309 72.5q159 0 265.5 -46.5t165 -152.5t65.5 -283q2 -32 -28 -32h-210q-30 0 -34 26q-16 118 -71.5 163t-155.5 45q-86 0 -138 -34.5 t-78.5 -124.5t-26.5 -256q0 -167 27 -256.5t82 -124t147 -34.5q74 0 121.5 21.5t72.5 75t25 148.5v6h-254q-13 0 -21.5 8.5t-8.5 21.5v165q0 14 8.5 22t21.5 8h500q14 0 22 -8zM554.5 1595q-32.5 19 -51.5 51.5t-19 72.5q0 39 19 71t51.5 51t70.5 19t70.5 -19t51.5 -51 t19 -71q0 -40 -19 -72.5t-51.5 -51.5t-70.5 -19t-70.5 19z" glyph-name="Gdotaccent" unicode="Ġ" vert-adv-y="1980"/>
<glyph d="M1067 1340q14 0 22 -8t8 -22v-1280q0 -13 -8 -21.5t-22 -8.5h-232q-13 0 -21.5 8.5t-8.5 21.5v498h-380v-498q0 -13 -8 -21.5t-22 -8.5h-232q-13 0 -21.5 8.5t-8.5 21.5v1280q0 14 8.5 22t21.5 8h232q14 0 22 -8t8 -22v-524h380v524q0 14 8.5 22t21.5 8h232z" glyph-name="H" unicode="H" vert-adv-y="1980"/>
<glyph d="M1067 1340q14 0 22 -8t8 -22v-1280q0 -13 -8 -21.5t-22 -8.5h-232q-13 0 -21.5 8.5t-8.5 21.5v498h-380v-498q0 -13 -8 -21.5t-22 -8.5h-232q-13 0 -21.5 8.5t-8.5 21.5v1280q0 14 8.5 22t21.5 8h232q14 0 22 -8t8 -22v-137h380v137q0 14 8.5 22t21.5 8h232zM425 938 v-152h380v152h-380z" glyph-name="Hbar" unicode="Ħ" vert-adv-y="1980"/>
<glyph d="M160 0q-13 0 -21.5 8.5t-8.5 21.5v198q0 14 8.5 22t21.5 8h309v824h-309q-13 0 -21.5 8.5t-8.5 21.5v198q0 14 8.5 22t21.5 8h911q14 0 22 -8t8 -22v-198q0 -13 -8 -21.5t-22 -8.5h-310v-824h310q14 0 22 -8t8 -22v-198q0 -13 -8 -21.5t-22 -8.5h-911z" glyph-name="I" unicode="I" vert-adv-y="1980"/>
<glyph d="M312 1340q14 0 22 -8t8 -22v-1280q0 -13 -8 -21.5t-22 -8.5h-232q-13 0 -21.5 8.5t-8.5 21.5v1280q0 14 8.5 22t21.5 8h232zM1172 1332q8 -8 8 -22v-804q0 -180 -64 -297t-173 -172t-247 -55q-73 0 -136.5 15t-109.5 44q-16 10 -16 25q0 9 4 17l74 172q8 17 23 17 q8 0 15 -3q50 -19 103 -19q235 0 235 309v523h-393q-13 0 -21.5 8.5t-8.5 21.5v198q0 14 8.5 22t21.5 8h655q14 0 22 -8z" glyph-name="IJ" unicode="Ĳ" vert-adv-y="1980"/>
<glyph d="M160 0q-13 0 -21.5 8.5t-8.5 21.5v198q0 14 8.5 22t21.5 8h309v824h-309q-13 0 -21.5 8.5t-8.5 21.5v198q0 14 8.5 22t21.5 8h911q14 0 22 -8t8 -22v-198q0 -13 -8 -21.5t-22 -8.5h-310v-824h310q14 0 22 -8t8 -22v-198q0 -13 -8 -21.5t-22 -8.5h-911zM523 1550 q-13 0 -20.5 5t-7.5 15q0 4 4 14l120 252q6 13 14 18.5t20 5.5h198q13 0 20.5 -5t7.5 -15q0 -4 -4 -14l-120 -252q-6 -13 -14 -18.5t-20 -5.5h-198z" glyph-name="Iacute" unicode="Í" vert-adv-y="1980"/>
<glyph d="M160 0q-13 0 -21.5 8.5t-8.5 21.5v198q0 14 8.5 22t21.5 8h309v824h-309q-13 0 -21.5 8.5t-8.5 21.5v198q0 14 8.5 22t21.5 8h911q14 0 22 -8t8 -22v-198q0 -13 -8 -21.5t-22 -8.5h-310v-824h310q14 0 22 -8t8 -22v-198q0 -13 -8 -21.5t-22 -8.5h-911zM467 1541 q-11 0 -19 3t-17 13l-224 267q-8 9 -8 19q0 8 7 12.5t19 4.5h223q23 0 36 -16l131 -151l131 151q13 16 36 16h223q12 0 19 -4.5t7 -12.5q0 -10 -8 -19l-224 -267q-9 -10 -17 -13t-19 -3h-296z" glyph-name="uni01CF" unicode="Ǐ" vert-adv-y="1980"/>
<glyph d="M160 0q-13 0 -21.5 8.5t-8.5 21.5v198q0 14 8.5 22t21.5 8h309v824h-309q-13 0 -21.5 8.5t-8.5 21.5v198q0 14 8.5 22t21.5 8h911q14 0 22 -8t8 -22v-198q0 -13 -8 -21.5t-22 -8.5h-310v-824h310q14 0 22 -8t8 -22v-198q0 -13 -8 -21.5t-22 -8.5h-911zM225 1541 q-12 0 -19 4.5t-7 12.5q0 10 8 19l224 267q9 10 17 13t19 3h296q11 0 19 -3t17 -13l224 -267q8 -9 8 -19q0 -8 -7 -12.5t-19 -4.5h-223q-23 0 -36 16l-131 151l-131 -151q-13 -16 -36 -16h-223z" glyph-name="Icircumflex" unicode="Î" vert-adv-y="1980"/>
<glyph d="M160 0q-13 0 -21.5 8.5t-8.5 21.5v198q0 14 8.5 22t21.5 8h309v824h-309q-13 0 -21.5 8.5t-8.5 21.5v198q0 14 8.5 22t21.5 8h911q14 0 22 -8t8 -22v-198q0 -13 -8 -21.5t-22 -8.5h-310v-824h310q14 0 22 -8t8 -22v-198q0 -13 -8 -21.5t-22 -8.5h-911zM323 1595 q-32 19 -51 51.5t-19 72.5q0 39 19 71t51 51t70 19t70.5 -19t51.5 -51t19 -71q0 -40 -19 -72.5t-51.5 -51.5t-70.5 -19t-70 19zM766 1595q-32 19 -51 51.5t-19 72.5q0 39 19 71t51 51t70 19t70.5 -19t51.5 -51t19 -71q0 -40 -19 -72.5t-51.5 -51.5t-70.5 -19t-70 19z" glyph-name="Idieresis" unicode="Ï" vert-adv-y="1980"/>
<glyph d="M160 0q-13 0 -21.5 8.5t-8.5 21.5v198q0 14 8.5 22t21.5 8h309v824h-309q-13 0 -21.5 8.5t-8.5 21.5v198q0 14 8.5 22t21.5 8h911q14 0 22 -8t8 -22v-198q0 -13 -8 -21.5t-22 -8.5h-310v-824h310q14 0 22 -8t8 -22v-198q0 -13 -8 -21.5t-22 -8.5h-911zM544.5 1595 q-32.5 19 -51.5 51.5t-19 72.5q0 39 19 71t51.5 51t70.5 19t70.5 -19t51.5 -51t19 -71q0 -40 -19 -72.5t-51.5 -51.5t-70.5 -19t-70.5 19z" glyph-name="Idotaccent" unicode="İ" vert-adv-y="1980"/>
<glyph d="M160 0q-13 0 -21.5 8.5t-8.5 21.5v198q0 14 8.5 22t21.5 8h309v824h-309q-13 0 -21.5 8.5t-8.5 21.5v198q0 14 8.5 22t21.5 8h911q14 0 22 -8t8 -22v-198q0 -13 -8 -21.5t-22 -8.5h-310v-824h310q14 0 22 -8t8 -22v-198q0 -13 -8 -21.5t-22 -8.5h-911zM511 1550 q-12 0 -20 5.5t-14 18.5l-120 252q-4 10 -4 14q0 10 7.5 15t20.5 5h198q12 0 20 -5.5t14 -18.5l120 -252q4 -10 4 -14q0 -10 -7.5 -15t-20.5 -5h-198z" glyph-name="Igrave" unicode="Ì" vert-adv-y="1980"/>
<glyph d="M160 0q-13 0 -21.5 8.5t-8.5 21.5v198q0 14 8.5 22t21.5 8h309v824h-309q-13 0 -21.5 8.5t-8.5 21.5v198q0 14 8.5 22t21.5 8h911q14 0 22 -8t8 -22v-198q0 -13 -8 -21.5t-22 -8.5h-310v-824h310q14 0 22 -8t8 -22v-198q0 -13 -8 -21.5t-22 -8.5h-911zM343 1642 q-13 0 -21.5 8.5t-8.5 21.5v158q0 14 8.5 22t21.5 8h544q14 0 22 -8t8 -22v-158q0 -13 -8 -21.5t-22 -8.5h-544z" glyph-name="Imacron" unicode="Ī" vert-adv-y="1980"/>
<glyph d="M761 1082v-824h310q14 0 22 -8t8 -22v-198q0 -13 -8 -21.5t-22 -8.5h-267q-78 0 -116.5 -29t-38.5 -74q0 -43 34 -70.5t95 -27.5h42q20 0 20 -20v-131q0 -20 -20 -20h-61q-129 0 -219.5 52.5t-90.5 177.5q0 86 48 142h-337q-13 0 -21.5 8.5t-8.5 21.5v198q0 14 8.5 22 t21.5 8h309v824h-309q-13 0 -21.5 8.5t-8.5 21.5v198q0 14 8.5 22t21.5 8h911q14 0 22 -8t8 -22v-198q0 -13 -8 -21.5t-22 -8.5h-310z" glyph-name="Iogonek" unicode="Į" vert-adv-y="1980"/>
<glyph d="M1105 1332q8 -8 8 -22v-780q0 -187 -63.5 -312t-180 -186.5t-276.5 -61.5q-237 0 -371.5 133.5t-134.5 404.5q0 15 8 22.5t22 7.5h226q14 0 22 -7.5t8 -22.5q3 -133 61 -195.5t164 -62.5q110 0 166.5 68.5t56.5 219.5v544h-527q-13 0 -21.5 8.5t-8.5 21.5v198 q0 14 8.5 22t21.5 8h789q14 0 22 -8z" glyph-name="J" unicode="J" vert-adv-y="1980"/>
<glyph d="M1179 36q7 -10 7 -18t-6.5 -13t-18.5 -5h-254q-12 0 -20.5 4t-15.5 14l-340 494l-137 -178v-304q0 -13 -8 -21.5t-22 -8.5h-232q-13 0 -21.5 8.5t-8.5 21.5v1280q0 14 8.5 22t21.5 8h232q14 0 22 -8t8 -22v-567l420 581q12 16 36 16h277q12 0 18 -4.5t6 -12.5t-8 -19 l-442 -573z" glyph-name="K" unicode="K" vert-adv-y="1980"/>
<glyph d="M1179 36q7 -10 7 -18t-6.5 -13t-18.5 -5h-254q-12 0 -20.5 4t-15.5 14l-340 494l-137 -178v-304q0 -13 -8 -21.5t-22 -8.5h-232q-13 0 -21.5 8.5t-8.5 21.5v1280q0 14 8.5 22t21.5 8h232q14 0 22 -8t8 -22v-567l420 581q12 16 36 16h277q12 0 18 -4.5t6 -12.5t-8 -19 l-442 -573zM830 -180q12 0 19.5 -7.5t7.5 -19.5v-91q0 -130 -10.5 -242t-29.5 -183q-5 -20 -33 -20h-142q-29 0 -26 29q15 163 15 289v34h-236q-12 0 -19.5 7.5t-7.5 19.5v157q0 12 7.5 19.5t19.5 7.5h435z" glyph-name="uni0136" unicode="Ķ" vert-adv-y="1980"/>
<glyph d="M199 0q-13 0 -21.5 8.5t-8.5 21.5v1280q0 14 8.5 22t21.5 8h232q14 0 22 -8t8 -22v-1052h600q14 0 22 -8t8 -22v-198q0 -13 -8 -21.5t-22 -8.5h-862z" glyph-name="L" unicode="L" vert-adv-y="1980"/>
<glyph d="M199 0q-13 0 -21.5 8.5t-8.5 21.5v1280q0 14 8.5 22t21.5 8h232q14 0 22 -8t8 -22v-1052h600q14 0 22 -8t8 -22v-198q0 -13 -8 -21.5t-22 -8.5h-862zM210 1524q-13 0 -20.5 5t-7.5 15q0 4 4 14l120 252q6 13 14 18.5t20 5.5h198q13 0 20.5 -5t7.5 -15q0 -4 -4 -14 l-120 -252q-6 -13 -14 -18.5t-20 -5.5h-198z" glyph-name="Lacute" unicode="Ĺ" vert-adv-y="1980"/>
<glyph d="M199 0q-13 0 -21.5 8.5t-8.5 21.5v1280q0 14 8.5 22t21.5 8h232q14 0 22 -8t8 -22v-1052h600q14 0 22 -8t8 -22v-198q0 -13 -8 -21.5t-22 -8.5h-862zM1071 1340q14 0 22 -8t8 -22v-101q0 -142 -12 -267t-32 -204q-7 -22 -37 -22h-157q-32 0 -29 32q17 183 17 324v34h-261 q-13 0 -21.5 8.5t-8.5 21.5v174q0 14 8.5 22t21.5 8h481z" glyph-name="Lcaron" unicode="Ľ" vert-adv-y="1980"/>
<glyph d="M199 0q-13 0 -21.5 8.5t-8.5 21.5v1280q0 14 8.5 22t21.5 8h232q14 0 22 -8t8 -22v-1052h600q14 0 22 -8t8 -22v-198q0 -13 -8 -21.5t-22 -8.5h-862zM830 -180q12 0 19.5 -7.5t7.5 -19.5v-91q0 -130 -10.5 -242t-29.5 -183q-5 -20 -33 -20h-142q-29 0 -26 29 q15 163 15 289v34h-236q-12 0 -19.5 7.5t-7.5 19.5v157q0 12 7.5 19.5t19.5 7.5h435z" glyph-name="uni013B" unicode="Ļ" vert-adv-y="1980"/>
<glyph d="M199 0q-13 0 -21.5 8.5t-8.5 21.5v1280q0 14 8.5 22t21.5 8h232q14 0 22 -8t8 -22v-1052h600q14 0 22 -8t8 -22v-198q0 -13 -8 -21.5t-22 -8.5h-862zM696 609.5q-47 27.5 -75 75t-28 103.5t28 103t75 74.5t103 27.5t103 -27.5t75 -74.5t28 -103t-28 -103.5t-75 -75 t-103 -27.5t-103 27.5z" glyph-name="Ldot" unicode="Ŀ" vert-adv-y="1980"/>
<glyph d="M1016 258q14 0 22 -8t8 -22v-198q0 -13 -8 -21.5t-22 -8.5h-782q-13 0 -21.5 8.5t-8.5 21.5v413l-115 -113q-11 -11 -20 -11q-8 0 -12 7t-4 20v186q0 22 16 38l135 132v668q0 14 8.5 22t21.5 8h232q14 0 22 -8t8 -22v-382l151 148q11 11 20 11q8 0 12 -7t4 -20v-184 q0 -22 -16 -38l-171 -168v-472h520z" glyph-name="Lslash" unicode="Ł" vert-adv-y="1980"/>
<glyph d="M148 0q-13 0 -21.5 8.5t-8.5 21.5v1280q0 14 8.5 22t21.5 8h231q13 0 23.5 -5t12.5 -15l193 -888h14l193 888q2 10 12.5 15t23.5 5h231q14 0 22 -8t8 -22v-1280q0 -13 -8 -21.5t-22 -8.5h-177q-13 0 -21.5 8.5t-8.5 21.5v721h-14l-147 -627q-3 -11 -13 -17.5t-23 -6.5 h-126q-13 0 -23 6.5t-13 17.5l-147 627h-14v-721q0 -13 -8 -21.5t-22 -8.5h-177z" glyph-name="M" unicode="M" vert-adv-y="1980"/>
<glyph d="M1057 1340q14 0 22 -8t8 -22v-1280q0 -13 -8 -21.5t-22 -8.5h-255q-27 0 -36 20l-362 831v-821q0 -13 -8 -21.5t-22 -8.5h-200q-13 0 -21.5 8.5t-8.5 21.5v1280q0 14 8.5 22t21.5 8h254q27 0 36 -20l362 -831v821q0 14 8.5 22t21.5 8h201z" glyph-name="N" unicode="N" vert-adv-y="1980"/>
<glyph d="M1057 1340q14 0 22 -8t8 -22v-1280q0 -13 -8 -21.5t-22 -8.5h-255q-27 0 -36 20l-362 831v-821q0 -13 -8 -21.5t-22 -8.5h-200q-13 0 -21.5 8.5t-8.5 21.5v1280q0 14 8.5 22t21.5 8h254q27 0 36 -20l362 -831v821q0 14 8.5 22t21.5 8h201zM523 1550q-13 0 -20.5 5 t-7.5 15q0 4 4 14l120 252q6 13 14 18.5t20 5.5h198q13 0 20.5 -5t7.5 -15q0 -4 -4 -14l-120 -252q-6 -13 -14 -18.5t-20 -5.5h-198z" glyph-name="Nacute" unicode="Ń" vert-adv-y="1980"/>
<glyph d="M1057 1340q14 0 22 -8t8 -22v-1280q0 -13 -8 -21.5t-22 -8.5h-255q-27 0 -36 20l-362 831v-821q0 -13 -8 -21.5t-22 -8.5h-200q-13 0 -21.5 8.5t-8.5 21.5v1280q0 14 8.5 22t21.5 8h254q27 0 36 -20l362 -831v821q0 14 8.5 22t21.5 8h201zM467 1541q-11 0 -19 3t-17 13 l-224 267q-8 9 -8 19q0 8 7 12.5t19 4.5h223q23 0 36 -16l131 -151l131 151q13 16 36 16h223q12 0 19 -4.5t7 -12.5q0 -10 -8 -19l-224 -267q-9 -10 -17 -13t-19 -3h-296z" glyph-name="Ncaron" unicode="Ň" vert-adv-y="1980"/>
<glyph d="M1057 1340q14 0 22 -8t8 -22v-1280q0 -13 -8 -21.5t-22 -8.5h-255q-27 0 -36 20l-362 831v-821q0 -13 -8 -21.5t-22 -8.5h-200q-13 0 -21.5 8.5t-8.5 21.5v1280q0 14 8.5 22t21.5 8h254q27 0 36 -20l362 -831v821q0 14 8.5 22t21.5 8h201zM830 -180q12 0 19.5 -7.5 t7.5 -19.5v-91q0 -130 -10.5 -242t-29.5 -183q-5 -20 -33 -20h-142q-29 0 -26 29q15 163 15 289v34h-236q-12 0 -19.5 7.5t-7.5 19.5v157q0 12 7.5 19.5t19.5 7.5h435z" glyph-name="uni0145" unicode="Ņ" vert-adv-y="1980"/>
<glyph d="M1057 1340q14 0 22 -8t8 -22v-1310q0 -155 -62.5 -246.5t-182.5 -130t-305 -38.5v263q143 0 216 35t73 117h-24q-27 0 -36 20l-362 831v-821q0 -13 -8 -21.5t-22 -8.5h-200q-13 0 -21.5 8.5t-8.5 21.5v1280q0 14 8.5 22t21.5 8h254q27 0 36 -20l362 -831v821q0 14 8.5 22 t21.5 8h201z" glyph-name="Eng" unicode="Ŋ" vert-adv-y="1980"/>
<glyph d="M1057 1340q14 0 22 -8t8 -22v-1280q0 -13 -8 -21.5t-22 -8.5h-255q-27 0 -36 20l-362 831v-821q0 -13 -8 -21.5t-22 -8.5h-200q-13 0 -21.5 8.5t-8.5 21.5v1280q0 14 8.5 22t21.5 8h254q27 0 36 -20l362 -831v821q0 14 8.5 22t21.5 8h201zM713 1569.5q-35 11.5 -60 27.5 t-62 44q-41 32 -69.5 47.5t-64.5 15.5t-59 -17t-34 -42q-7 -15 -21 -15h-103q-10 0 -15 7.5t-5 20.5q0 70 31 116t80.5 67.5t105.5 21.5q61 0 104.5 -21.5t96.5 -62.5q42 -32 71 -47.5t64 -15.5q36 0 60 17.5t33 41.5q6 16 22 16h102q10 0 15 -6t5 -16q0 -72 -31.5 -119.5 t-81.5 -69.5t-106 -22q-43 0 -78 11.5z" glyph-name="Ntilde" unicode="Ñ" vert-adv-y="1980"/>
<glyph d="M318 43q-112 73 -163.5 225t-51.5 397q0 246 51.5 398t163.5 224.5t297 72.5t297 -72.5t163.5 -224.5t51.5 -398q0 -245 -51.5 -397t-163.5 -225t-297 -73t-297 73zM743 284.5q49 34.5 75 125t26 255.5t-26 255.5t-75 125t-128 34.5t-128 -34.5t-75 -125t-26 -255.5 t26 -255.5t75 -125t128 -34.5t128 34.5z" glyph-name="O" unicode="O" vert-adv-y="1980"/>
<glyph d="M318 43q-112 73 -163.5 225t-51.5 397q0 246 51.5 398t163.5 224.5t297 72.5t297 -72.5t163.5 -224.5t51.5 -398q0 -245 -51.5 -397t-163.5 -225t-297 -73t-297 73zM743 284.5q49 34.5 75 125t26 255.5t-26 255.5t-75 125t-128 34.5t-128 -34.5t-75 -125t-26 -255.5 t26 -255.5t75 -125t128 -34.5t128 34.5zM523 1550q-13 0 -20.5 5t-7.5 15q0 4 4 14l120 252q6 13 14 18.5t20 5.5h198q13 0 20.5 -5t7.5 -15q0 -4 -4 -14l-120 -252q-6 -13 -14 -18.5t-20 -5.5h-198z" glyph-name="Oacute" unicode="Ó" vert-adv-y="1980"/>
<glyph d="M318 43q-112 73 -163.5 225t-51.5 397q0 246 51.5 398t163.5 224.5t297 72.5t297 -72.5t163.5 -224.5t51.5 -398q0 -245 -51.5 -397t-163.5 -225t-297 -73t-297 73zM743 284.5q49 34.5 75 125t26 255.5t-26 255.5t-75 125t-128 34.5t-128 -34.5t-75 -125t-26 -255.5 t26 -255.5t75 -125t128 -34.5t128 34.5zM467 1541q-11 0 -19 3t-17 13l-224 267q-8 9 -8 19q0 8 7 12.5t19 4.5h223q23 0 36 -16l131 -151l131 151q13 16 36 16h223q12 0 19 -4.5t7 -12.5q0 -10 -8 -19l-224 -267q-9 -10 -17 -13t-19 -3h-296z" glyph-name="uni01D1" unicode="Ǒ" vert-adv-y="1980"/>
<glyph d="M318 43q-112 73 -163.5 225t-51.5 397q0 246 51.5 398t163.5 224.5t297 72.5t297 -72.5t163.5 -224.5t51.5 -398q0 -245 -51.5 -397t-163.5 -225t-297 -73t-297 73zM743 284.5q49 34.5 75 125t26 255.5t-26 255.5t-75 125t-128 34.5t-128 -34.5t-75 -125t-26 -255.5 t26 -255.5t75 -125t128 -34.5t128 34.5zM225 1541q-12 0 -19 4.5t-7 12.5q0 10 8 19l224 267q9 10 17 13t19 3h296q11 0 19 -3t17 -13l224 -267q8 -9 8 -19q0 -8 -7 -12.5t-19 -4.5h-223q-23 0 -36 16l-131 151l-131 -151q-13 -16 -36 -16h-223z" glyph-name="Ocircumflex" unicode="Ô" vert-adv-y="1980"/>
<glyph d="M318 43q-112 73 -163.5 225t-51.5 397q0 246 51.5 398t163.5 224.5t297 72.5t297 -72.5t163.5 -224.5t51.5 -398q0 -245 -51.5 -397t-163.5 -225t-297 -73t-297 73zM743 284.5q49 34.5 75 125t26 255.5t-26 255.5t-75 125t-128 34.5t-128 -34.5t-75 -125t-26 -255.5 t26 -255.5t75 -125t128 -34.5t128 34.5zM323 1595q-32 19 -51 51.5t-19 72.5q0 39 19 71t51 51t70 19t70.5 -19t51.5 -51t19 -71q0 -40 -19 -72.5t-51.5 -51.5t-70.5 -19t-70 19zM766 1595q-32 19 -51 51.5t-19 72.5q0 39 19 71t51 51t70 19t70.5 -19t51.5 -51t19 -71 q0 -40 -19 -72.5t-51.5 -51.5t-70.5 -19t-70 19z" glyph-name="Odieresis" unicode="Ö" vert-adv-y="1980"/>
<glyph d="M318 43q-112 73 -163.5 225t-51.5 397q0 246 51.5 398t163.5 224.5t297 72.5t297 -72.5t163.5 -224.5t51.5 -398q0 -245 -51.5 -397t-163.5 -225t-297 -73t-297 73zM743 284.5q49 34.5 75 125t26 255.5t-26 255.5t-75 125t-128 34.5t-128 -34.5t-75 -125t-26 -255.5 t26 -255.5t75 -125t128 -34.5t128 34.5zM511 1550q-12 0 -20 5.5t-14 18.5l-120 252q-4 10 -4 14q0 10 7.5 15t20.5 5h198q12 0 20 -5.5t14 -18.5l120 -252q4 -10 4 -14q0 -10 -7.5 -15t-20.5 -5h-198z" glyph-name="Ograve" unicode="Ò" vert-adv-y="1980"/>
<glyph d="M318 43q-112 73 -163.5 225t-51.5 397q0 246 51.5 398t163.5 224.5t297 72.5t297 -72.5t163.5 -224.5t51.5 -398q0 -245 -51.5 -397t-163.5 -225t-297 -73t-297 73zM743 284.5q49 34.5 75 125t26 255.5t-26 255.5t-75 125t-128 34.5t-128 -34.5t-75 -125t-26 -255.5 t26 -255.5t75 -125t128 -34.5t128 34.5zM707 1550q-13 0 -20.5 5t-7.5 15q0 4 4 14l120 252q6 13 14 18.5t20 5.5h198q13 0 20.5 -5t7.5 -15q0 -4 -4 -14l-120 -252q-6 -13 -14 -18.5t-20 -5.5h-198zM329 1550q-13 0 -20.5 5t-7.5 15q0 4 4 14l120 252q6 13 14 18.5t20 5.5 h198q13 0 20.5 -5t7.5 -15q0 -4 -4 -14l-120 -252q-6 -13 -14 -18.5t-20 -5.5h-198z" glyph-name="Ohungarumlaut" unicode="Ő" vert-adv-y="1980"/>
<glyph d="M318 43q-112 73 -163.5 225t-51.5 397q0 246 51.5 398t163.5 224.5t297 72.5t297 -72.5t163.5 -224.5t51.5 -398q0 -245 -51.5 -397t-163.5 -225t-297 -73t-297 73zM743 284.5q49 34.5 75 125t26 255.5t-26 255.5t-75 125t-128 34.5t-128 -34.5t-75 -125t-26 -255.5 t26 -255.5t75 -125t128 -34.5t128 34.5zM343 1642q-13 0 -21.5 8.5t-8.5 21.5v158q0 14 8.5 22t21.5 8h544q14 0 22 -8t8 -22v-158q0 -13 -8 -21.5t-22 -8.5h-544z" glyph-name="Omacron" unicode="Ō" vert-adv-y="1980"/>
<glyph d="M812 -9q-78 -18 -113 -44.5t-35 -70.5q0 -42 29 -67t89 -25h53q20 0 20 -20v-131q0 -20 -20 -20h-60q-129 0 -220 50t-91 167q0 97 72 144q-155 14 -250 92.5t-139 225t-44 373.5q0 246 51.5 398t163.5 224.5t297 72.5t297 -72.5t163.5 -224.5t51.5 -398 q0 -195 -32 -330.5t-101.5 -219.5t-181.5 -119v-5zM412 409.5q26 -90.5 75 -125t128 -34.5t128 34.5t75 125t26 255.5t-26 255.5t-75 125t-128 34.5t-128 -34.5t-75 -125t-26 -255.5t26 -255.5z" glyph-name="uni01EA" unicode="Ǫ" vert-adv-y="1980"/>
<glyph d="M999 1208q66 -83 97 -217t31 -326q0 -245 -51.5 -397t-163.5 -225t-297 -73q-144 0 -242 43l-64 -121q-11 -22 -34 -22h-135q-13 0 -20 5.5t-7 14.5q0 8 4 16l114 217q-66 83 -97 217t-31 325q0 246 51.5 398t163.5 224.5t297 72.5q144 0 242 -43l64 121q11 22 34 22h136 q12 0 19 -5.5t7 -14.5q0 -8 -4 -16zM402 450l320 609q-43 21 -107 21q-79 0 -128 -34.5t-75 -125t-26 -255.5q0 -125 16 -215zM743 284.5q49 34.5 75 125t26 255.5q0 125 -16 215l-320 -609q43 -21 107 -21q79 0 128 34.5z" glyph-name="Oslash" unicode="Ø" vert-adv-y="1980"/>
<glyph d="M318 43q-112 73 -163.5 225t-51.5 397q0 246 51.5 398t163.5 224.5t297 72.5t297 -72.5t163.5 -224.5t51.5 -398q0 -245 -51.5 -397t-163.5 -225t-297 -73t-297 73zM743 284.5q49 34.5 75 125t26 255.5t-26 255.5t-75 125t-128 34.5t-128 -34.5t-75 -125t-26 -255.5 t26 -255.5t75 -125t128 -34.5t128 34.5zM713 1569.5q-35 11.5 -60 27.5t-62 44q-41 32 -69.5 47.5t-64.5 15.5t-59 -17t-34 -42q-7 -15 -21 -15h-103q-10 0 -15 7.5t-5 20.5q0 70 31 116t80.5 67.5t105.5 21.5q61 0 104.5 -21.5t96.5 -62.5q42 -32 71 -47.5t64 -15.5 q36 0 60 17.5t33 41.5q6 16 22 16h102q10 0 15 -6t5 -16q0 -72 -31.5 -119.5t-81.5 -69.5t-106 -22q-43 0 -78 11.5z" glyph-name="Otilde" unicode="Õ" vert-adv-y="1980"/>
<glyph d="M1117 258q14 0 22 -8t8 -22v-198q0 -13 -8 -21.5t-22 -8.5h-522q-191 -1 -301.5 59.5t-160.5 205t-50 401.5t50 403t161 209t301 62h520q14 0 22 -8t8 -22v-198q0 -13 -8 -21.5t-22 -8.5h-228v-281h189q14 0 22 -8t8 -22v-198q0 -13 -8 -21.5t-22 -8.5h-189v-285h230z M595 1075q-92 0 -139 -27.5t-68.5 -114t-21.5 -267.5q0 -182 21.5 -266.5t68 -110t139.5 -24.5v810z" glyph-name="OE" unicode="Œ" vert-adv-y="1980"/>
<glyph d="M636 1340q259 0 378.5 -115.5t119.5 -340.5q0 -223 -120 -340t-378 -117h-212v-397q0 -13 -8 -21.5t-22 -8.5h-232q-13 0 -21.5 8.5t-8.5 21.5v1280q0 14 8.5 22t21.5 8h474zM624 685q116 0 173 45t57 154q0 110 -56.5 154t-173.5 44h-200v-397h200z" glyph-name="P" unicode="P" vert-adv-y="1980"/>
<glyph d="M626 1130q165 0 280.5 -54t175 -157t59.5 -249t-59.5 -249t-175 -157t-280.5 -54h-245v-180q0 -13 -8 -21.5t-22 -8.5h-232q-13 0 -21.5 8.5t-8.5 21.5v1280q0 14 8.5 22t21.5 8h232q14 0 22 -8t8 -22v-180h245zM606 468q125 0 190 44t65 158t-65 158t-190 44h-225v-404 h225z" glyph-name="Thorn" unicode="Þ" vert-adv-y="1980"/>
<glyph d="M318 43q-112 73 -163.5 225t-51.5 397q0 246 51.5 398t163.5 224.5t297 72.5t297 -72.5t163.5 -224.5t51.5 -398q0 -245 -51.5 -397t-163.5 -225t-297 -73t-297 73zM743 284.5q49 34.5 75 125t26 255.5t-26 255.5t-75 125t-128 34.5t-128 -34.5t-75 -125t-26 -255.5 t26 -255.5t75 -125t128 -34.5t128 34.5zM1051 -383q-63 0 -109 11t-109 33q-63 23 -114 34.5t-123 11.5q-32 0 -32 28v163q0 14 8 23t24 9q74 0 124 -11t120 -34q67 -22 119 -33t126 -11q32 0 32 -28v-163q0 -29 -30 -32q-13 -1 -36 -1z" glyph-name="Q" unicode="Q" vert-adv-y="1980"/>
<glyph d="M1130 35q4 -8 4 -15q0 -9 -7 -14.5t-20 -5.5h-227q-13 0 -21 5.5t-14 17.5l-201 404h-3h-212v-397q0 -13 -8 -21.5t-22 -8.5h-232q-13 0 -21.5 8.5t-8.5 21.5v1280q0 14 8.5 22t21.5 8h474q259 0 378.5 -115.5t119.5 -340.5q0 -313 -229 -410zM429 1082v-397h200 q116 0 173 45t57 154q0 110 -56.5 154t-173.5 44h-200z" glyph-name="R" unicode="R" vert-adv-y="1980"/>
<glyph d="M1130 35q4 -8 4 -15q0 -9 -7 -14.5t-20 -5.5h-227q-13 0 -21 5.5t-14 17.5l-201 404h-3h-212v-397q0 -13 -8 -21.5t-22 -8.5h-232q-13 0 -21.5 8.5t-8.5 21.5v1280q0 14 8.5 22t21.5 8h474q259 0 378.5 -115.5t119.5 -340.5q0 -313 -229 -410zM429 1082v-397h200 q116 0 173 45t57 154q0 110 -56.5 154t-173.5 44h-200zM523 1550q-13 0 -20.5 5t-7.5 15q0 4 4 14l120 252q6 13 14 18.5t20 5.5h198q13 0 20.5 -5t7.5 -15q0 -4 -4 -14l-120 -252q-6 -13 -14 -18.5t-20 -5.5h-198z" glyph-name="Racute" unicode="Ŕ" vert-adv-y="1980"/>
<glyph d="M1130 35q4 -8 4 -15q0 -9 -7 -14.5t-20 -5.5h-227q-13 0 -21 5.5t-14 17.5l-201 404h-3h-212v-397q0 -13 -8 -21.5t-22 -8.5h-232q-13 0 -21.5 8.5t-8.5 21.5v1280q0 14 8.5 22t21.5 8h474q259 0 378.5 -115.5t119.5 -340.5q0 -313 -229 -410zM429 1082v-397h200 q116 0 173 45t57 154q0 110 -56.5 154t-173.5 44h-200zM467 1541q-11 0 -19 3t-17 13l-224 267q-8 9 -8 19q0 8 7 12.5t19 4.5h223q23 0 36 -16l131 -151l131 151q13 16 36 16h223q12 0 19 -4.5t7 -12.5q0 -10 -8 -19l-224 -267q-9 -10 -17 -13t-19 -3h-296z" glyph-name="Rcaron" unicode="Ř" vert-adv-y="1980"/>
<glyph d="M1130 35q4 -8 4 -15q0 -9 -7 -14.5t-20 -5.5h-227q-13 0 -21 5.5t-14 17.5l-201 404h-3h-212v-397q0 -13 -8 -21.5t-22 -8.5h-232q-13 0 -21.5 8.5t-8.5 21.5v1280q0 14 8.5 22t21.5 8h474q259 0 378.5 -115.5t119.5 -340.5q0 -313 -229 -410zM429 1082v-397h200 q116 0 173 45t57 154q0 110 -56.5 154t-173.5 44h-200zM830 -180q12 0 19.5 -7.5t7.5 -19.5v-91q0 -130 -10.5 -242t-29.5 -183q-5 -20 -33 -20h-142q-29 0 -26 29q15 163 15 289v34h-236q-12 0 -19.5 7.5t-7.5 19.5v157q0 12 7.5 19.5t19.5 7.5h435z" glyph-name="uni0156" unicode="Ŗ" vert-adv-y="1980"/>
<glyph d="M247 66.5q-128 96.5 -144 313.5q-1 15 6.5 24.5t21.5 9.5h213q24 0 29 -28q17 -82 78.5 -120t165.5 -38q102 0 163.5 35.5t61.5 117.5q0 41 -20.5 72t-75 57.5t-154.5 46.5q-206 41 -333.5 135.5t-127.5 283.5q0 116 54 202t164 134t272 48q214 0 332 -91.5t137 -296.5 q1 -15 -6.5 -24.5t-21.5 -9.5h-198q-23 0 -28 28q-15 68 -69.5 102t-151.5 34q-100 0 -149.5 -35.5t-49.5 -102.5q0 -38 20 -68.5t75 -57t155 -46.5q145 -30 240.5 -69t158.5 -122t63 -225q0 -199 -133.5 -302.5t-387.5 -103.5q-232 0 -360 96.5z" glyph-name="S" unicode="S" vert-adv-y="1980"/>
<glyph d="M247 66.5q-128 96.5 -144 313.5q-1 15 6.5 24.5t21.5 9.5h213q24 0 29 -28q17 -82 78.5 -120t165.5 -38q102 0 163.5 35.5t61.5 117.5q0 41 -20.5 72t-75 57.5t-154.5 46.5q-206 41 -333.5 135.5t-127.5 283.5q0 116 54 202t164 134t272 48q214 0 332 -91.5t137 -296.5 q1 -15 -6.5 -24.5t-21.5 -9.5h-198q-23 0 -28 28q-15 68 -69.5 102t-151.5 34q-100 0 -149.5 -35.5t-49.5 -102.5q0 -38 20 -68.5t75 -57t155 -46.5q145 -30 240.5 -69t158.5 -122t63 -225q0 -199 -133.5 -302.5t-387.5 -103.5q-232 0 -360 96.5zM527 1550q-13 0 -20.5 5 t-7.5 15q0 4 4 14l120 252q6 13 14 18.5t20 5.5h198q13 0 20.5 -5t7.5 -15q0 -4 -4 -14l-120 -252q-6 -13 -14 -18.5t-20 -5.5h-198z" glyph-name="Sacute" unicode="Ś" vert-adv-y="1980"/>
<glyph d="M247 66.5q-128 96.5 -144 313.5q-1 15 6.5 24.5t21.5 9.5h213q24 0 29 -28q17 -82 78.5 -120t165.5 -38q102 0 163.5 35.5t61.5 117.5q0 41 -20.5 72t-75 57.5t-154.5 46.5q-206 41 -333.5 135.5t-127.5 283.5q0 116 54 202t164 134t272 48q214 0 332 -91.5t137 -296.5 q1 -15 -6.5 -24.5t-21.5 -9.5h-198q-23 0 -28 28q-15 68 -69.5 102t-151.5 34q-100 0 -149.5 -35.5t-49.5 -102.5q0 -38 20 -68.5t75 -57t155 -46.5q145 -30 240.5 -69t158.5 -122t63 -225q0 -199 -133.5 -302.5t-387.5 -103.5q-232 0 -360 96.5zM471 1541q-11 0 -19 3 t-17 13l-224 267q-8 9 -8 19q0 8 7 12.5t19 4.5h223q23 0 36 -16l131 -151l131 151q13 16 36 16h223q12 0 19 -4.5t7 -12.5q0 -10 -8 -19l-224 -267q-9 -10 -17 -13t-19 -3h-296z" glyph-name="Scaron" unicode="Š" vert-adv-y="1980"/>
<glyph d="M1014 90.5q-114 -102.5 -331 -117.5l-44 -39q47 -4 88.5 -24.5t67 -56.5t25.5 -85q0 -105 -76 -157.5t-193 -52.5q-46 0 -88 7q-18 3 -18 22v98q0 9 6 15t16 5q37 -5 61 -5q50 0 77 15.5t27 40.5q0 18 -24 33t-61 15q-38 0 -78 -17q-4 -2 -10 -2q-14 0 -14 16v103 q0 14 10 24l50 47q-184 19 -286 116t-116 289q-1 15 6.5 24.5t21.5 9.5h213q24 0 29 -28q17 -82 78.5 -120t165.5 -38q102 0 163.5 35.5t61.5 117.5q0 41 -20.5 72t-75 57.5t-154.5 46.5q-206 41 -333.5 135.5t-127.5 283.5q0 116 54 202t164 134t272 48q214 0 332 -91.5 t137 -296.5q1 -15 -6.5 -24.5t-21.5 -9.5h-198q-23 0 -28 28q-15 68 -69.5 102t-151.5 34q-100 0 -149.5 -35.5t-49.5 -102.5q0 -38 20 -68.5t75 -57t155 -46.5q145 -30 240.5 -69t158.5 -122t63 -225q0 -183 -114 -285.5z" glyph-name="Scedilla" unicode="Ş" vert-adv-y="1980"/>
<glyph d="M247 66.5q-128 96.5 -144 313.5q-1 15 6.5 24.5t21.5 9.5h213q24 0 29 -28q17 -82 78.5 -120t165.5 -38q102 0 163.5 35.5t61.5 117.5q0 41 -20.5 72t-75 57.5t-154.5 46.5q-206 41 -333.5 135.5t-127.5 283.5q0 116 54 202t164 134t272 48q214 0 332 -91.5t137 -296.5 q1 -15 -6.5 -24.5t-21.5 -9.5h-198q-23 0 -28 28q-15 68 -69.5 102t-151.5 34q-100 0 -149.5 -35.5t-49.5 -102.5q0 -38 20 -68.5t75 -57t155 -46.5q145 -30 240.5 -69t158.5 -122t63 -225q0 -199 -133.5 -302.5t-387.5 -103.5q-232 0 -360 96.5zM831 -180q12 0 19.5 -7.5 t7.5 -19.5v-91q0 -130 -10.5 -242t-29.5 -183q-5 -20 -33 -20h-142q-29 0 -26 29q15 163 15 289v34h-236q-12 0 -19.5 7.5t-7.5 19.5v157q0 12 7.5 19.5t19.5 7.5h435z" glyph-name="uni0218" unicode="Ș" vert-adv-y="1980"/>
<glyph d="M772 824q205 -35 316 -149t111 -302q0 -119 -46 -209t-140 -140t-233 -50q-192 0 -277 94t-85 274q0 15 8 23t22 8h182q28 0 31 -29q6 -55 34 -84t85 -29q126 0 126 152q0 85 -40 135t-121 71.5t-211 21.5q-15 0 -22.5 8t-7.5 22v196l182 245h-186q-57 0 -88 -16 t-44.5 -53.5t-13.5 -105.5v-877q0 -13 -8 -21.5t-22 -8.5h-232q-13 0 -21.5 8.5t-8.5 21.5v898q0 155 43 244.5t133.5 128.5t240.5 39h606q12 0 19 -5t7 -13q0 -10 -7 -18z" glyph-name="uni1E9E" unicode="ẞ" vert-adv-y="1980"/>
<glyph d="M916.5 1296.5q110.5 -63.5 162.5 -214t52 -417.5q0 -265 -51.5 -416t-162.5 -215t-299 -64q-186 0 -299.5 55.5t-166.5 172.5t-53 307v194q0 14 8.5 22t21.5 8h718q-5 145 -33 220.5t-77.5 102t-130.5 26.5q-73 0 -117.5 -14t-71.5 -52t-39 -110q-4 -26 -35 -26h-210 q-30 0 -28 32q7 164 66 263.5t169 144t277 44.5q189 0 299.5 -63.5zM722 269.5q44 18.5 73.5 69t42.5 144.5h-463q2 -90 26.5 -140.5t74.5 -71t135 -20.5q67 0 111 18.5z" glyph-name="uni018F" unicode="Ə" vert-adv-y="1980"/>
<glyph d="M499 0q-13 0 -21.5 8.5t-8.5 21.5v1052h-339q-13 0 -21.5 8.5t-8.5 21.5v198q0 14 8.5 22t21.5 8h970q14 0 22 -8t8 -22v-198q0 -13 -8 -21.5t-22 -8.5h-339v-1052q0 -13 -8 -21.5t-22 -8.5h-232z" glyph-name="T" unicode="T" vert-adv-y="1980"/>
<glyph d="M1100 1340q14 0 22 -8t8 -22v-198q0 -13 -8 -21.5t-22 -8.5h-339v-174h191q14 0 22 -8t8 -22v-159q0 -14 -8 -22t-22 -8h-191v-659q0 -13 -8 -21.5t-22 -8.5h-232q-13 0 -21.5 8.5t-8.5 21.5v659h-191q-14 0 -22.5 8.5t-8.5 21.5v159q0 13 8.5 21.5t22.5 8.5h191v174 h-339q-13 0 -21.5 8.5t-8.5 21.5v198q0 14 8.5 22t21.5 8h970z" glyph-name="Tbar" unicode="Ŧ" vert-adv-y="1980"/>
<glyph d="M499 0q-13 0 -21.5 8.5t-8.5 21.5v1052h-339q-13 0 -21.5 8.5t-8.5 21.5v198q0 14 8.5 22t21.5 8h970q14 0 22 -8t8 -22v-198q0 -13 -8 -21.5t-22 -8.5h-339v-1052q0 -13 -8 -21.5t-22 -8.5h-232zM467 1541q-11 0 -19 3t-17 13l-224 267q-8 9 -8 19q0 8 7 12.5t19 4.5 h223q23 0 36 -16l131 -151l131 151q13 16 36 16h223q12 0 19 -4.5t7 -12.5q0 -10 -8 -19l-224 -267q-9 -10 -17 -13t-19 -3h-296z" glyph-name="Tcaron" unicode="Ť" vert-adv-y="1980"/>
<glyph d="M499 0q-13 0 -21.5 8.5t-8.5 21.5v1052h-339q-13 0 -21.5 8.5t-8.5 21.5v198q0 14 8.5 22t21.5 8h970q14 0 22 -8t8 -22v-198q0 -13 -8 -21.5t-22 -8.5h-339v-1052q0 -13 -8 -21.5t-22 -8.5h-232zM638 -66q47 -4 88.5 -24.5t67 -56.5t25.5 -85q0 -105 -76 -157.5 t-193 -52.5q-46 0 -88 7q-18 3 -18 22v98q0 9 6 15t16 5q37 -5 61 -5q50 0 77 15.5t27 40.5q0 18 -24 33t-61 15q-38 0 -78 -17q-4 -2 -10 -2q-14 0 -14 16v103q0 14 10 24l77 72h182z" glyph-name="uni0162" unicode="Ţ" vert-adv-y="1980"/>
<glyph d="M499 0q-13 0 -21.5 8.5t-8.5 21.5v1052h-339q-13 0 -21.5 8.5t-8.5 21.5v198q0 14 8.5 22t21.5 8h970q14 0 22 -8t8 -22v-198q0 -13 -8 -21.5t-22 -8.5h-339v-1052q0 -13 -8 -21.5t-22 -8.5h-232zM830 -180q12 0 19.5 -7.5t7.5 -19.5v-91q0 -130 -10.5 -242t-29.5 -183 q-5 -20 -33 -20h-142q-29 0 -26 29q15 163 15 289v34h-236q-12 0 -19.5 7.5t-7.5 19.5v157q0 12 7.5 19.5t19.5 7.5h435z" glyph-name="uni021A" unicode="Ț" vert-adv-y="1980"/>
<glyph d="M248 92.5q-125 122.5 -125 368.5v849q0 14 8.5 22t21.5 8h232q14 0 22 -8t8 -22v-827q0 -113 49.5 -173t150.5 -60t150.5 60t49.5 173v827q0 14 8.5 22t21.5 8h232q14 0 22 -8t8 -22v-849q0 -246 -125 -368.5t-367 -122.5t-367 122.5z" glyph-name="U" unicode="U" vert-adv-y="1980"/>
<glyph d="M248 92.5q-125 122.5 -125 368.5v849q0 14 8.5 22t21.5 8h232q14 0 22 -8t8 -22v-827q0 -113 49.5 -173t150.5 -60t150.5 60t49.5 173v827q0 14 8.5 22t21.5 8h232q14 0 22 -8t8 -22v-849q0 -246 -125 -368.5t-367 -122.5t-367 122.5zM523 1550q-13 0 -20.5 5t-7.5 15 q0 4 4 14l120 252q6 13 14 18.5t20 5.5h198q13 0 20.5 -5t7.5 -15q0 -4 -4 -14l-120 -252q-6 -13 -14 -18.5t-20 -5.5h-198z" glyph-name="Uacute" unicode="Ú" vert-adv-y="1980"/>
<glyph d="M248 92.5q-125 122.5 -125 368.5v849q0 14 8.5 22t21.5 8h232q14 0 22 -8t8 -22v-827q0 -113 49.5 -173t150.5 -60t150.5 60t49.5 173v827q0 14 8.5 22t21.5 8h232q14 0 22 -8t8 -22v-849q0 -246 -125 -368.5t-367 -122.5t-367 122.5zM443.5 1575q-73.5 39 -115.5 105 t-50 148q-2 15 6 23.5t24 8.5h120q25 0 32 -30q11 -47 52 -81.5t103 -34.5t103 34.5t52 81.5q7 30 32 30h120q16 0 24 -8.5t6 -23.5q-8 -82 -50 -148t-115.5 -105t-171.5 -39t-171.5 39z" glyph-name="Ubreve" unicode="Ŭ" vert-adv-y="1980"/>
<glyph d="M248 92.5q-125 122.5 -125 368.5v849q0 14 8.5 22t21.5 8h232q14 0 22 -8t8 -22v-827q0 -113 49.5 -173t150.5 -60t150.5 60t49.5 173v827q0 14 8.5 22t21.5 8h232q14 0 22 -8t8 -22v-849q0 -246 -125 -368.5t-367 -122.5t-367 122.5zM467 1541q-11 0 -19 3t-17 13 l-224 267q-8 9 -8 19q0 8 7 12.5t19 4.5h223q23 0 36 -16l131 -151l131 151q13 16 36 16h223q12 0 19 -4.5t7 -12.5q0 -10 -8 -19l-224 -267q-9 -10 -17 -13t-19 -3h-296z" glyph-name="uni01D3" unicode="Ǔ" vert-adv-y="1980"/>
<glyph d="M248 92.5q-125 122.5 -125 368.5v849q0 14 8.5 22t21.5 8h232q14 0 22 -8t8 -22v-827q0 -113 49.5 -173t150.5 -60t150.5 60t49.5 173v827q0 14 8.5 22t21.5 8h232q14 0 22 -8t8 -22v-849q0 -246 -125 -368.5t-367 -122.5t-367 122.5zM225 1541q-12 0 -19 4.5t-7 12.5 q0 10 8 19l224 267q9 10 17 13t19 3h296q11 0 19 -3t17 -13l224 -267q8 -9 8 -19q0 -8 -7 -12.5t-19 -4.5h-223q-23 0 -36 16l-131 151l-131 -151q-13 -16 -36 -16h-223z" glyph-name="Ucircumflex" unicode="Û" vert-adv-y="1980"/>
<glyph d="M248 92.5q-125 122.5 -125 368.5v849q0 14 8.5 22t21.5 8h232q14 0 22 -8t8 -22v-827q0 -113 49.5 -173t150.5 -60t150.5 60t49.5 173v827q0 14 8.5 22t21.5 8h232q14 0 22 -8t8 -22v-849q0 -246 -125 -368.5t-367 -122.5t-367 122.5zM323 1595q-32 19 -51 51.5t-19 72.5 q0 39 19 71t51 51t70 19t70.5 -19t51.5 -51t19 -71q0 -40 -19 -72.5t-51.5 -51.5t-70.5 -19t-70 19zM766 1595q-32 19 -51 51.5t-19 72.5q0 39 19 71t51 51t70 19t70.5 -19t51.5 -51t19 -71q0 -40 -19 -72.5t-51.5 -51.5t-70.5 -19t-70 19z" glyph-name="Udieresis" unicode="Ü" vert-adv-y="1980"/>
<glyph d="M248 92.5q-125 122.5 -125 368.5v849q0 14 8.5 22t21.5 8h232q14 0 22 -8t8 -22v-827q0 -113 49.5 -173t150.5 -60t150.5 60t49.5 173v827q0 14 8.5 22t21.5 8h232q14 0 22 -8t8 -22v-849q0 -246 -125 -368.5t-367 -122.5t-367 122.5zM511 1550q-12 0 -20 5.5t-14 18.5 l-120 252q-4 10 -4 14q0 10 7.5 15t20.5 5h198q12 0 20 -5.5t14 -18.5l120 -252q4 -10 4 -14q0 -10 -7.5 -15t-20.5 -5h-198z" glyph-name="Ugrave" unicode="Ù" vert-adv-y="1980"/>
<glyph d="M248 92.5q-125 122.5 -125 368.5v849q0 14 8.5 22t21.5 8h232q14 0 22 -8t8 -22v-827q0 -113 49.5 -173t150.5 -60t150.5 60t49.5 173v827q0 14 8.5 22t21.5 8h232q14 0 22 -8t8 -22v-849q0 -246 -125 -368.5t-367 -122.5t-367 122.5zM707 1550q-13 0 -20.5 5t-7.5 15 q0 4 4 14l120 252q6 13 14 18.5t20 5.5h198q13 0 20.5 -5t7.5 -15q0 -4 -4 -14l-120 -252q-6 -13 -14 -18.5t-20 -5.5h-198zM329 1550q-13 0 -20.5 5t-7.5 15q0 4 4 14l120 252q6 13 14 18.5t20 5.5h198q13 0 20.5 -5t7.5 -15q0 -4 -4 -14l-120 -252q-6 -13 -14 -18.5 t-20 -5.5h-198z" glyph-name="Uhungarumlaut" unicode="Ű" vert-adv-y="1980"/>
<glyph d="M248 92.5q-125 122.5 -125 368.5v849q0 14 8.5 22t21.5 8h232q14 0 22 -8t8 -22v-827q0 -113 49.5 -173t150.5 -60t150.5 60t49.5 173v827q0 14 8.5 22t21.5 8h232q14 0 22 -8t8 -22v-849q0 -246 -125 -368.5t-367 -122.5t-367 122.5zM343 1642q-13 0 -21.5 8.5 t-8.5 21.5v158q0 14 8.5 22t21.5 8h544q14 0 22 -8t8 -22v-158q0 -13 -8 -21.5t-22 -8.5h-544z" glyph-name="Umacron" unicode="Ū" vert-adv-y="1980"/>
<glyph d="M1077 1340q14 0 22 -8t8 -22v-849q0 -195 -79 -312.5t-232 -157.5q-71 -18 -104 -44.5t-33 -70.5q0 -42 29 -67t89 -25h53q20 0 20 -20v-131q0 -20 -20 -20h-60q-129 0 -220 50t-91 167q0 97 72 144q-201 20 -304.5 141.5t-103.5 345.5v849q0 14 8.5 22t21.5 8h232 q14 0 22 -8t8 -22v-827q0 -113 49.5 -173t150.5 -60t150.5 60t49.5 173v827q0 14 8.5 22t21.5 8h232z" glyph-name="Uogonek" unicode="Ų" vert-adv-y="1980"/>
<glyph d="M248 92.5q-125 122.5 -125 368.5v849q0 14 8.5 22t21.5 8h232q14 0 22 -8t8 -22v-827q0 -113 49.5 -173t150.5 -60t150.5 60t49.5 173v827q0 14 8.5 22t21.5 8h232q14 0 22 -8t8 -22v-849q0 -246 -125 -368.5t-367 -122.5t-367 122.5zM510.5 1480.5q-47.5 27.5 -75 74 t-27.5 100.5q0 55 27.5 102.5t75 75t104.5 27.5t104 -27.5t74 -75t27 -102.5q0 -54 -27 -100.5t-74 -74t-104 -27.5t-104.5 27.5zM658 1614.5q18 15.5 18 40.5q0 27 -17.5 44t-43.5 17t-43 -16t-17 -42q0 -27 16.5 -43t43.5 -16q25 0 43 15.5z" glyph-name="Uring" unicode="Ů" vert-adv-y="1980"/>
<glyph d="M433 0q-12 0 -21.5 6t-12.5 18l-338 1282q-2 8 -2 11q0 23 26 23h236q29 0 34 -24l244 -1013h32l244 1013q5 24 34 24h236q26 0 26 -23q0 -3 -2 -11l-338 -1282q-3 -12 -12 -18t-22 -6h-364z" glyph-name="V" unicode="V" vert-adv-y="1980"/>
<glyph d="M1142 1340q15 0 20.5 -8.5t3.5 -25.5l-142 -1282q-1 -11 -13 -17.5t-25 -6.5h-258q-13 0 -23 6.5t-11 17.5l-79 574l-79 -574q-1 -11 -11 -17.5t-23 -6.5h-258q-13 0 -25 6.5t-13 17.5l-142 1282q-2 17 3.5 25.5t20.5 8.5h209q13 0 23 -5.5t11 -18.5l73 -930l120 810 q4 24 34 24h114q30 0 34 -24l120 -810l73 930q1 13 10.5 18.5t23.5 5.5h209z" glyph-name="W" unicode="W" vert-adv-y="1980"/>
<glyph d="M1142 1340q15 0 20.5 -8.5t3.5 -25.5l-142 -1282q-1 -11 -13 -17.5t-25 -6.5h-258q-13 0 -23 6.5t-11 17.5l-79 574l-79 -574q-1 -11 -11 -17.5t-23 -6.5h-258q-13 0 -25 6.5t-13 17.5l-142 1282q-2 17 3.5 25.5t20.5 8.5h209q13 0 23 -5.5t11 -18.5l73 -930l120 810 q4 24 34 24h114q30 0 34 -24l120 -810l73 930q1 13 10.5 18.5t23.5 5.5h209zM523 1550q-13 0 -20.5 5t-7.5 15q0 4 4 14l120 252q6 13 14 18.5t20 5.5h198q13 0 20.5 -5t7.5 -15q0 -4 -4 -14l-120 -252q-6 -13 -14 -18.5t-20 -5.5h-198z" glyph-name="Wacute" unicode="Ẃ" vert-adv-y="1980"/>
<glyph d="M1142 1340q15 0 20.5 -8.5t3.5 -25.5l-142 -1282q-1 -11 -13 -17.5t-25 -6.5h-258q-13 0 -23 6.5t-11 17.5l-79 574l-79 -574q-1 -11 -11 -17.5t-23 -6.5h-258q-13 0 -25 6.5t-13 17.5l-142 1282q-2 17 3.5 25.5t20.5 8.5h209q13 0 23 -5.5t11 -18.5l73 -930l120 810 q4 24 34 24h114q30 0 34 -24l120 -810l73 930q1 13 10.5 18.5t23.5 5.5h209zM225 1541q-12 0 -19 4.5t-7 12.5q0 10 8 19l224 267q9 10 17 13t19 3h296q11 0 19 -3t17 -13l224 -267q8 -9 8 -19q0 -8 -7 -12.5t-19 -4.5h-223q-23 0 -36 16l-131 151l-131 -151 q-13 -16 -36 -16h-223z" glyph-name="Wcircumflex" unicode="Ŵ" vert-adv-y="1980"/>
<glyph d="M1142 1340q15 0 20.5 -8.5t3.5 -25.5l-142 -1282q-1 -11 -13 -17.5t-25 -6.5h-258q-13 0 -23 6.5t-11 17.5l-79 574l-79 -574q-1 -11 -11 -17.5t-23 -6.5h-258q-13 0 -25 6.5t-13 17.5l-142 1282q-2 17 3.5 25.5t20.5 8.5h209q13 0 23 -5.5t11 -18.5l73 -930l120 810 q4 24 34 24h114q30 0 34 -24l120 -810l73 930q1 13 10.5 18.5t23.5 5.5h209zM323 1595q-32 19 -51 51.5t-19 72.5q0 39 19 71t51 51t70 19t70.5 -19t51.5 -51t19 -71q0 -40 -19 -72.5t-51.5 -51.5t-70.5 -19t-70 19zM766 1595q-32 19 -51 51.5t-19 72.5q0 39 19 71t51 51 t70 19t70.5 -19t51.5 -51t19 -71q0 -40 -19 -72.5t-51.5 -51.5t-70.5 -19t-70 19z" glyph-name="Wdieresis" unicode="Ẅ" vert-adv-y="1980"/>
<glyph d="M1142 1340q15 0 20.5 -8.5t3.5 -25.5l-142 -1282q-1 -11 -13 -17.5t-25 -6.5h-258q-13 0 -23 6.5t-11 17.5l-79 574l-79 -574q-1 -11 -11 -17.5t-23 -6.5h-258q-13 0 -25 6.5t-13 17.5l-142 1282q-2 17 3.5 25.5t20.5 8.5h209q13 0 23 -5.5t11 -18.5l73 -930l120 810 q4 24 34 24h114q30 0 34 -24l120 -810l73 930q1 13 10.5 18.5t23.5 5.5h209zM511 1550q-12 0 -20 5.5t-14 18.5l-120 252q-4 10 -4 14q0 10 7.5 15t20.5 5h198q12 0 20 -5.5t14 -18.5l120 -252q4 -10 4 -14q0 -10 -7.5 -15t-20.5 -5h-198z" glyph-name="Wgrave" unicode="Ẁ" vert-adv-y="1980"/>
<glyph d="M1145 36q6 -10 6 -18t-6.5 -13t-19.5 -5h-245q-25 0 -36 20l-229 393l-229 -393q-11 -20 -36 -20h-245q-13 0 -19.5 5t-6.5 13t6 18l375 643l-364 625q-6 11 -6 18q0 8 6.5 13t19.5 5h245q25 0 36 -20l218 -374l218 374q11 20 36 20h245q13 0 19.5 -5t6.5 -13 q0 -7 -6 -18l-364 -625z" glyph-name="X" unicode="X" vert-adv-y="1980"/>
<glyph d="M1146 1340q13 0 19.5 -5t6.5 -13q0 -7 -6 -18l-405 -787v-487q0 -13 -8 -21.5t-22 -8.5h-232q-13 0 -21.5 8.5t-8.5 21.5v491l-405 783q-6 11 -6 18q0 8 6.5 13t19.5 5h245q26 0 36 -20l250 -524l250 524q10 20 36 20h245z" glyph-name="Y" unicode="Y" vert-adv-y="1980"/>
<glyph d="M1146 1340q13 0 19.5 -5t6.5 -13q0 -7 -6 -18l-405 -787v-487q0 -13 -8 -21.5t-22 -8.5h-232q-13 0 -21.5 8.5t-8.5 21.5v491l-405 783q-6 11 -6 18q0 8 6.5 13t19.5 5h245q26 0 36 -20l250 -524l250 524q10 20 36 20h245zM523 1550q-13 0 -20.5 5t-7.5 15q0 4 4 14 l120 252q6 13 14 18.5t20 5.5h198q13 0 20.5 -5t7.5 -15q0 -4 -4 -14l-120 -252q-6 -13 -14 -18.5t-20 -5.5h-198z" glyph-name="Yacute" unicode="Ý" vert-adv-y="1980"/>
<glyph d="M1146 1340q13 0 19.5 -5t6.5 -13q0 -7 -6 -18l-405 -787v-487q0 -13 -8 -21.5t-22 -8.5h-232q-13 0 -21.5 8.5t-8.5 21.5v491l-405 783q-6 11 -6 18q0 8 6.5 13t19.5 5h245q26 0 36 -20l250 -524l250 524q10 20 36 20h245zM225 1541q-12 0 -19 4.5t-7 12.5q0 10 8 19 l224 267q9 10 17 13t19 3h296q11 0 19 -3t17 -13l224 -267q8 -9 8 -19q0 -8 -7 -12.5t-19 -4.5h-223q-23 0 -36 16l-131 151l-131 -151q-13 -16 -36 -16h-223z" glyph-name="Ycircumflex" unicode="Ŷ" vert-adv-y="1980"/>
<glyph d="M1146 1340q13 0 19.5 -5t6.5 -13q0 -7 -6 -18l-405 -787v-487q0 -13 -8 -21.5t-22 -8.5h-232q-13 0 -21.5 8.5t-8.5 21.5v491l-405 783q-6 11 -6 18q0 8 6.5 13t19.5 5h245q26 0 36 -20l250 -524l250 524q10 20 36 20h245zM323 1595q-32 19 -51 51.5t-19 72.5q0 39 19 71 t51 51t70 19t70.5 -19t51.5 -51t19 -71q0 -40 -19 -72.5t-51.5 -51.5t-70.5 -19t-70 19zM766 1595q-32 19 -51 51.5t-19 72.5q0 39 19 71t51 51t70 19t70.5 -19t51.5 -51t19 -71q0 -40 -19 -72.5t-51.5 -51.5t-70.5 -19t-70 19z" glyph-name="Ydieresis" unicode="Ÿ" vert-adv-y="1980"/>
<glyph d="M1146 1340q13 0 19.5 -5t6.5 -13q0 -7 -6 -18l-405 -787v-487q0 -13 -8 -21.5t-22 -8.5h-232q-13 0 -21.5 8.5t-8.5 21.5v491l-405 783q-6 11 -6 18q0 8 6.5 13t19.5 5h245q26 0 36 -20l250 -524l250 524q10 20 36 20h245zM511 1550q-12 0 -20 5.5t-14 18.5l-120 252 q-4 10 -4 14q0 10 7.5 15t20.5 5h198q12 0 20 -5.5t14 -18.5l120 -252q4 -10 4 -14q0 -10 -7.5 -15t-20.5 -5h-198z" glyph-name="Ygrave" unicode="Ỳ" vert-adv-y="1980"/>
<glyph d="M154 0q-13 0 -21.5 8.5t-8.5 21.5v208q0 20 12 36l633 808h-595q-13 0 -21.5 8.5t-8.5 21.5v198q0 14 8.5 22t21.5 8h882q14 0 22 -8t8 -22v-208q0 -20 -12 -36l-633 -808h635q14 0 22 -8t8 -22v-198q0 -13 -8 -21.5t-22 -8.5h-922z" glyph-name="Z" unicode="Z" vert-adv-y="1980"/>
<glyph d="M154 0q-13 0 -21.5 8.5t-8.5 21.5v208q0 20 12 36l633 808h-595q-13 0 -21.5 8.5t-8.5 21.5v198q0 14 8.5 22t21.5 8h882q14 0 22 -8t8 -22v-208q0 -20 -12 -36l-633 -808h635q14 0 22 -8t8 -22v-198q0 -13 -8 -21.5t-22 -8.5h-922zM523 1550q-13 0 -20.5 5t-7.5 15 q0 4 4 14l120 252q6 13 14 18.5t20 5.5h198q13 0 20.5 -5t7.5 -15q0 -4 -4 -14l-120 -252q-6 -13 -14 -18.5t-20 -5.5h-198z" glyph-name="Zacute" unicode="Ź" vert-adv-y="1980"/>
<glyph d="M154 0q-13 0 -21.5 8.5t-8.5 21.5v208q0 20 12 36l633 808h-595q-13 0 -21.5 8.5t-8.5 21.5v198q0 14 8.5 22t21.5 8h882q14 0 22 -8t8 -22v-208q0 -20 -12 -36l-633 -808h635q14 0 22 -8t8 -22v-198q0 -13 -8 -21.5t-22 -8.5h-922zM467 1541q-11 0 -19 3t-17 13 l-224 267q-8 9 -8 19q0 8 7 12.5t19 4.5h223q23 0 36 -16l131 -151l131 151q13 16 36 16h223q12 0 19 -4.5t7 -12.5q0 -10 -8 -19l-224 -267q-9 -10 -17 -13t-19 -3h-296z" glyph-name="Zcaron" unicode="Ž" vert-adv-y="1980"/>
<glyph d="M154 0q-13 0 -21.5 8.5t-8.5 21.5v208q0 20 12 36l633 808h-595q-13 0 -21.5 8.5t-8.5 21.5v198q0 14 8.5 22t21.5 8h882q14 0 22 -8t8 -22v-208q0 -20 -12 -36l-633 -808h635q14 0 22 -8t8 -22v-198q0 -13 -8 -21.5t-22 -8.5h-922zM544.5 1595q-32.5 19 -51.5 51.5 t-19 72.5q0 39 19 71t51.5 51t70.5 19t70.5 -19t51.5 -51t19 -71q0 -40 -19 -72.5t-51.5 -51.5t-70.5 -19t-70.5 19z" glyph-name="Zdotaccent" unicode="Ż" vert-adv-y="1980"/>
<glyph d="M1303 34q2 -8 2 -12q0 -10 -7 -16t-19 -6h-240q-26 0 -34 24l-64 211h-517l-64 -211q-8 -24 -34 -24h-240q-12 0 -19 6t-7 16q0 4 2 12l405 1282q8 24 34 24h363q27 0 34 -24zM668 1037l-168 -554h365l-168 554h-29z" glyph-name="A.ss05" horiz-adv-x="1365" vert-adv-y="1980"/>
<glyph d="M436 65q-158 91 -247 250t-89 355t89 354t247 247.5t358 89.5q142 0 262 -45.5t207.5 -132t132.5 -207.5q3 -7 3 -14q0 -18 -21 -28l-192 -84q-7 -3 -14 -3q-19 0 -28 22q-42 99 -135.5 154.5t-212.5 55.5q-116 0 -207.5 -53t-143 -146.5t-51.5 -209.5q0 -115 51 -210 t142 -149.5t205 -54.5q122 0 215 63.5t137 176.5q8 20 27 20q6 0 15 -3l193 -84q20 -9 20 -26q0 -6 -3 -14q-45 -130 -132 -223t-207.5 -142.5t-263.5 -49.5q-199 0 -357 91z" glyph-name="C.ss05" horiz-adv-x="1514" vert-adv-y="1980"/>
<glyph d="M1048 1254.5q155 -85.5 234.5 -237t79.5 -347.5t-79.5 -347.5t-234.5 -237t-373 -85.5h-495q-13 0 -21.5 8.5t-8.5 21.5v1280q0 14 8.5 22t21.5 8h495q218 0 373 -85.5zM665 258q196 0 300 107.5t104 304.5t-104 304.5t-300 107.5h-223v-824h223z" glyph-name="D.ss05" horiz-adv-x="1462" vert-adv-y="1980"/>
<glyph d="M1409 779q14 0 22 -8t8 -22v-116q0 -182 -78.5 -332.5t-225.5 -238.5t-344 -88t-354.5 91.5t-247 250.5t-89.5 354q0 196 89 354t246.5 247.5t354.5 89.5q293 0 503 -213q10 -10 10 -22q0 -11 -10 -20l-155 -144q-12 -10 -22 -10q-12 0 -20 8q-67 57 -141 88t-164 31 q-117 0 -207.5 -53t-140 -146t-49.5 -210q0 -116 50.5 -210.5t143.5 -149.5t216 -55q105 0 182.5 39.5t119.5 105.5t46 145h-354q-13 0 -21.5 8.5t-8.5 21.5v174q0 14 8.5 22t21.5 8h611z" glyph-name="G.ss05" horiz-adv-x="1539" vert-adv-y="1980"/>
<glyph d="M1246 1340q14 0 22 -8t8 -22v-1280q0 -13 -8 -21.5t-22 -8.5h-232q-13 0 -21.5 8.5t-8.5 21.5v498h-542v-498q0 -13 -8 -21.5t-22 -8.5h-232q-13 0 -21.5 8.5t-8.5 21.5v1280q0 14 8.5 22t21.5 8h232q14 0 22 -8t8 -22v-524h542v524q0 14 8.5 22t21.5 8h232z" glyph-name="H.ss05" horiz-adv-x="1426" vert-adv-y="1980"/>
<glyph d="M180 0q-13 0 -21.5 8.5t-8.5 21.5v1280q0 14 8.5 22t21.5 8h232q14 0 22 -8t8 -22v-1052h600q14 0 22 -8t8 -22v-198q0 -13 -8 -21.5t-22 -8.5h-862z" glyph-name="L.ss05" horiz-adv-x="1202" vert-adv-y="1980"/>
<glyph d="M1611 1332q8 -8 8 -22v-1280q0 -13 -8 -21.5t-22 -8.5h-232q-13 0 -21.5 8.5t-8.5 21.5v715l-302 -721q-10 -24 -36 -24h-210q-25 0 -36 24l-301 720v-714q0 -13 -8 -21.5t-22 -8.5h-232q-13 0 -21.5 8.5t-8.5 21.5v1280q0 14 8.5 22t21.5 8h264q27 0 36 -20l404 -983 l405 983q9 20 36 20h264q14 0 22 -8z" glyph-name="M.ss05" horiz-adv-x="1769" vert-adv-y="1980"/>
<glyph d="M1237 1340q14 0 22 -8t8 -22v-1280q0 -13 -8 -21.5t-22 -8.5h-266q-25 0 -36 20l-525 931v-921q0 -13 -8 -21.5t-22 -8.5h-200q-13 0 -21.5 8.5t-8.5 21.5v1280q0 14 8.5 22t21.5 8h266q25 0 36 -20l525 -931v921q0 14 8.5 22t21.5 8h200z" glyph-name="N.ss05" horiz-adv-x="1417" vert-adv-y="1980"/>
<glyph d="M445.5 65.5q-160.5 91.5 -253 250t-92.5 350.5q0 193 92.5 352t253 250.5t355.5 91.5t355.5 -91.5t253 -250.5t92.5 -352q0 -192 -92.5 -350.5t-253 -250t-355.5 -91.5t-355.5 91.5zM1010 308q93 53 145.5 147t52.5 211t-52.5 211.5t-145.5 148t-209 53.5t-209 -53.5 t-145.5 -148t-52.5 -211.5t52.5 -211t145.5 -147t209 -53t209 53z" glyph-name="O.ss05" horiz-adv-x="1602" vert-adv-y="1980"/>
<glyph d="M654 1340q259 0 378.5 -115.5t119.5 -340.5q0 -223 -120 -340t-378 -117h-212v-397q0 -13 -8 -21.5t-22 -8.5h-232q-13 0 -21.5 8.5t-8.5 21.5v1280q0 14 8.5 22t21.5 8h474zM642 685q116 0 173 45t57 154q0 110 -56.5 154t-173.5 44h-200v-397h200z" glyph-name="P.ss05" horiz-adv-x="1292" vert-adv-y="1980"/>
<glyph d="M445.5 65.5q-160.5 91.5 -253 250t-92.5 350.5q0 193 92.5 352t253 250.5t355.5 91.5t355.5 -91.5t253 -250.5t92.5 -352q0 -192 -92.5 -350.5t-253 -250t-355.5 -91.5t-355.5 91.5zM1010 308q93 53 145.5 147t52.5 211t-52.5 211.5t-145.5 148t-209 53.5t-209 -53.5 t-145.5 -148t-52.5 -211.5t52.5 -211t145.5 -147t209 -53t209 53zM1102 -383q-63 0 -109.5 11t-108.5 33q-63 23 -114 34.5t-123 11.5q-32 0 -32 28v163q0 14 8 23t24 9q74 0 124 -11t120 -34q67 -22 119 -33t126 -11q32 0 32 -28v-163q0 -29 -30 -32q-13 -1 -36 -1z" glyph-name="Q.ss05" horiz-adv-x="1602" vert-adv-y="1980"/>
<glyph d="M1143 35q4 -8 4 -15q0 -9 -7 -14.5t-20 -5.5h-227q-13 0 -21 5.5t-14 17.5l-201 404h-3h-212v-397q0 -13 -8 -21.5t-22 -8.5h-232q-13 0 -21.5 8.5t-8.5 21.5v1280q0 14 8.5 22t21.5 8h474q259 0 378.5 -115.5t119.5 -340.5q0 -313 -229 -410zM442 1082v-397h200 q116 0 173 45t57 154q0 110 -56.5 154t-173.5 44h-200z" glyph-name="R.ss05" horiz-adv-x="1292" vert-adv-y="1980"/>
<glyph d="M1130 1340q14 0 22 -8t8 -22v-198q0 -13 -8 -21.5t-22 -8.5h-359v-1052q0 -13 -8 -21.5t-22 -8.5h-232q-13 0 -21.5 8.5t-8.5 21.5v1052h-359q-13 0 -21.5 8.5t-8.5 21.5v198q0 14 8.5 22t21.5 8h1010z" glyph-name="T.ss05" horiz-adv-x="1250" vert-adv-y="1980"/>
<glyph d="M402 32q-126 62 -194 182t-68 289v807q0 14 8.5 22t21.5 8h232q14 0 22 -8t8 -22v-778q0 -83 30.5 -146.5t91.5 -99.5t148 -36t148 36t91.5 99.5t30.5 146.5v778q0 14 8.5 22t21.5 8h232q14 0 22 -8t8 -22v-807q0 -169 -68 -289t-194 -182t-300 -62t-300 62z" glyph-name="U.ss05" horiz-adv-x="1404" vert-adv-y="1980"/>
<glyph d="M506 0q-26 0 -34 24l-405 1282q-2 8 -2 12q0 10 7 16t19 6h240q26 0 34 -24l308 -1013h29l308 1013q8 24 34 24h240q12 0 19 -6t7 -16q0 -4 -2 -12l-405 -1282q-7 -24 -34 -24h-363z" glyph-name="V.ss05" horiz-adv-x="1375" vert-adv-y="1980"/>
<glyph d="M1677 1340q25 0 25 -23q0 -7 -1 -11l-262 -1282q-1 -11 -11 -17.5t-23 -6.5h-284q-13 0 -22.5 6.5t-11.5 17.5l-188 897l-189 -897q-2 -12 -11 -18t-22 -6h-284q-13 0 -23 6.5t-12 17.5l-262 1282q-1 4 -1 11q0 23 25 23h214q29 0 34 -24l193 -930l200 930q5 24 34 24 h219q29 0 34 -24l188 -930l193 930q5 24 34 24h214z" glyph-name="W.ss05" horiz-adv-x="1797" vert-adv-y="1980"/>
<glyph d="M1145 36q6 -10 6 -18t-6.5 -13t-19.5 -5h-245q-25 0 -36 20l-229 393l-229 -393q-11 -20 -36 -20h-245q-13 0 -19.5 5t-6.5 13t6 18l375 643l-364 625q-6 11 -6 18q0 8 6.5 13t19.5 5h245q25 0 36 -20l218 -374l218 374q11 20 36 20h245q13 0 19.5 -5t6.5 -13 q0 -7 -6 -18l-364 -625z" glyph-name="X.ss05" vert-adv-y="1980"/>
<glyph d="M1146 1340q13 0 19.5 -5t6.5 -13q0 -7 -6 -18l-405 -787v-487q0 -13 -8 -21.5t-22 -8.5h-232q-13 0 -21.5 8.5t-8.5 21.5v491l-405 783q-6 11 -6 18q0 8 6.5 13t19.5 5h245q26 0 36 -20l250 -524l250 524q10 20 36 20h245z" glyph-name="Y.ss05" vert-adv-y="1980"/>
<glyph d="M1123.5 161.5q8.5 -13.5 8.5 -42.5v-39q0 -53 -35.5 -74t-89.5 -21q-84 0 -141 45t-57 135v13h-21q-26 -84 -103.5 -143.5t-209.5 -59.5h-50q-146 0 -232 77t-86 221q0 269 317 289l357 23v48q0 60 -16.5 92.5t-55 46t-108.5 13.5q-89 0 -130.5 -20.5t-49.5 -70.5 q-3 -19 -27 -19h-209q-14 0 -22 7.5t-9 22.5q5 305 455 305q165 0 263 -42t141 -127.5t43 -222.5v-309q0 -40 4 -61.5t11.5 -32.5t21.5 -23q22 -17 30.5 -30.5zM554 187q60 0 112 20t83.5 61t31.5 99v48l-290 -23q-109 -8 -109 -100q0 -105 144 -105h28z" glyph-name="a" unicode="a" vert-adv-y="1980"/>
<glyph d="M1123.5 161.5q8.5 -13.5 8.5 -42.5v-39q0 -53 -35.5 -74t-89.5 -21q-84 0 -141 45t-57 135v13h-21q-26 -84 -103.5 -143.5t-209.5 -59.5h-50q-146 0 -232 77t-86 221q0 269 317 289l357 23v48q0 60 -16.5 92.5t-55 46t-108.5 13.5q-89 0 -130.5 -20.5t-49.5 -70.5 q-3 -19 -27 -19h-209q-14 0 -22 7.5t-9 22.5q5 305 455 305q165 0 263 -42t141 -127.5t43 -222.5v-309q0 -40 4 -61.5t11.5 -32.5t21.5 -23q22 -17 30.5 -30.5zM554 187q60 0 112 20t83.5 61t31.5 99v48l-290 -23q-109 -8 -109 -100q0 -105 144 -105h28zM534 1200 q-13 0 -20.5 5t-7.5 15q0 4 4 14l120 252q6 13 14 18.5t20 5.5h198q13 0 20.5 -5t7.5 -15q0 -4 -4 -14l-120 -252q-6 -13 -14 -18.5t-20 -5.5h-198z" glyph-name="aacute" unicode="á" vert-adv-y="1980"/>
<glyph d="M1123.5 161.5q8.5 -13.5 8.5 -42.5v-39q0 -53 -35.5 -74t-89.5 -21q-84 0 -141 45t-57 135v13h-21q-26 -84 -103.5 -143.5t-209.5 -59.5h-50q-146 0 -232 77t-86 221q0 269 317 289l357 23v48q0 60 -16.5 92.5t-55 46t-108.5 13.5q-89 0 -130.5 -20.5t-49.5 -70.5 q-3 -19 -27 -19h-209q-14 0 -22 7.5t-9 22.5q5 305 455 305q165 0 263 -42t141 -127.5t43 -222.5v-309q0 -40 4 -61.5t11.5 -32.5t21.5 -23q22 -17 30.5 -30.5zM554 187q60 0 112 20t83.5 61t31.5 99v48l-290 -23q-109 -8 -109 -100q0 -105 144 -105h28zM454.5 1225 q-73.5 39 -115.5 105t-50 148q-2 15 6 23.5t24 8.5h120q25 0 32 -30q11 -47 52 -81.5t103 -34.5t103 34.5t52 81.5q7 30 32 30h120q16 0 24 -8.5t6 -23.5q-8 -82 -50 -148t-115.5 -105t-171.5 -39t-171.5 39z" glyph-name="abreve" unicode="ă" vert-adv-y="1980"/>
<glyph d="M1123.5 161.5q8.5 -13.5 8.5 -42.5v-39q0 -53 -35.5 -74t-89.5 -21q-84 0 -141 45t-57 135v13h-21q-26 -84 -103.5 -143.5t-209.5 -59.5h-50q-146 0 -232 77t-86 221q0 269 317 289l357 23v48q0 60 -16.5 92.5t-55 46t-108.5 13.5q-89 0 -130.5 -20.5t-49.5 -70.5 q-3 -19 -27 -19h-209q-14 0 -22 7.5t-9 22.5q5 305 455 305q165 0 263 -42t141 -127.5t43 -222.5v-309q0 -40 4 -61.5t11.5 -32.5t21.5 -23q22 -17 30.5 -30.5zM554 187q60 0 112 20t83.5 61t31.5 99v48l-290 -23q-109 -8 -109 -100q0 -105 144 -105h28zM478 1191 q-11 0 -19 3t-17 13l-224 267q-8 9 -8 19q0 8 7 12.5t19 4.5h223q23 0 36 -16l131 -151l131 151q13 16 36 16h223q12 0 19 -4.5t7 -12.5q0 -10 -8 -19l-224 -267q-9 -10 -17 -13t-19 -3h-296z" glyph-name="uni01CE" unicode="ǎ" vert-adv-y="1980"/>
<glyph d="M1123.5 161.5q8.5 -13.5 8.5 -42.5v-39q0 -53 -35.5 -74t-89.5 -21q-84 0 -141 45t-57 135v13h-21q-26 -84 -103.5 -143.5t-209.5 -59.5h-50q-146 0 -232 77t-86 221q0 269 317 289l357 23v48q0 60 -16.5 92.5t-55 46t-108.5 13.5q-89 0 -130.5 -20.5t-49.5 -70.5 q-3 -19 -27 -19h-209q-14 0 -22 7.5t-9 22.5q5 305 455 305q165 0 263 -42t141 -127.5t43 -222.5v-309q0 -40 4 -61.5t11.5 -32.5t21.5 -23q22 -17 30.5 -30.5zM554 187q60 0 112 20t83.5 61t31.5 99v48l-290 -23q-109 -8 -109 -100q0 -105 144 -105h28zM236 1191 q-12 0 -19 4.5t-7 12.5q0 10 8 19l224 267q9 10 17 13t19 3h296q11 0 19 -3t17 -13l224 -267q8 -9 8 -19q0 -8 -7 -12.5t-19 -4.5h-223q-23 0 -36 16l-131 151l-131 -151q-13 -16 -36 -16h-223z" glyph-name="acircumflex" unicode="â" vert-adv-y="1980"/>
<glyph d="M1123.5 161.5q8.5 -13.5 8.5 -42.5v-39q0 -53 -35.5 -74t-89.5 -21q-84 0 -141 45t-57 135v13h-21q-26 -84 -103.5 -143.5t-209.5 -59.5h-50q-146 0 -232 77t-86 221q0 269 317 289l357 23v48q0 60 -16.5 92.5t-55 46t-108.5 13.5q-89 0 -130.5 -20.5t-49.5 -70.5 q-3 -19 -27 -19h-209q-14 0 -22 7.5t-9 22.5q5 305 455 305q165 0 263 -42t141 -127.5t43 -222.5v-309q0 -40 4 -61.5t11.5 -32.5t21.5 -23q22 -17 30.5 -30.5zM554 187q60 0 112 20t83.5 61t31.5 99v48l-290 -23q-109 -8 -109 -100q0 -105 144 -105h28zM334 1245 q-32 19 -51 51.5t-19 72.5q0 39 19 71t51 51t70 19t70.5 -19t51.5 -51t19 -71q0 -40 -19 -72.5t-51.5 -51.5t-70.5 -19t-70 19zM777 1245q-32 19 -51 51.5t-19 72.5q0 39 19 71t51 51t70 19t70.5 -19t51.5 -51t19 -71q0 -40 -19 -72.5t-51.5 -51.5t-70.5 -19t-70 19z" glyph-name="adieresis" unicode="ä" vert-adv-y="1980"/>
<glyph d="M1123.5 161.5q8.5 -13.5 8.5 -42.5v-39q0 -53 -35.5 -74t-89.5 -21q-84 0 -141 45t-57 135v13h-21q-26 -84 -103.5 -143.5t-209.5 -59.5h-50q-146 0 -232 77t-86 221q0 269 317 289l357 23v48q0 60 -16.5 92.5t-55 46t-108.5 13.5q-89 0 -130.5 -20.5t-49.5 -70.5 q-3 -19 -27 -19h-209q-14 0 -22 7.5t-9 22.5q5 305 455 305q165 0 263 -42t141 -127.5t43 -222.5v-309q0 -40 4 -61.5t11.5 -32.5t21.5 -23q22 -17 30.5 -30.5zM554 187q60 0 112 20t83.5 61t31.5 99v48l-290 -23q-109 -8 -109 -100q0 -105 144 -105h28zM522 1200 q-12 0 -20 5.5t-14 18.5l-120 252q-4 10 -4 14q0 10 7.5 15t20.5 5h198q12 0 20 -5.5t14 -18.5l120 -252q4 -10 4 -14q0 -10 -7.5 -15t-20.5 -5h-198z" glyph-name="agrave" unicode="à" vert-adv-y="1980"/>
<glyph d="M1123.5 161.5q8.5 -13.5 8.5 -42.5v-39q0 -53 -35.5 -74t-89.5 -21q-84 0 -141 45t-57 135v13h-21q-26 -84 -103.5 -143.5t-209.5 -59.5h-50q-146 0 -232 77t-86 221q0 269 317 289l357 23v48q0 60 -16.5 92.5t-55 46t-108.5 13.5q-89 0 -130.5 -20.5t-49.5 -70.5 q-3 -19 -27 -19h-209q-14 0 -22 7.5t-9 22.5q5 305 455 305q165 0 263 -42t141 -127.5t43 -222.5v-309q0 -40 4 -61.5t11.5 -32.5t21.5 -23q22 -17 30.5 -30.5zM554 187q60 0 112 20t83.5 61t31.5 99v48l-290 -23q-109 -8 -109 -100q0 -105 144 -105h28zM354 1292 q-13 0 -21.5 8.5t-8.5 21.5v158q0 14 8.5 22t21.5 8h544q14 0 22 -8t8 -22v-158q0 -13 -8 -21.5t-22 -8.5h-544z" glyph-name="amacron" unicode="ā" vert-adv-y="1980"/>
<glyph d="M1123.5 161.5q8.5 -13.5 8.5 -42.5v-39q0 -89 -113 -95q-78 0 -116.5 -29t-38.5 -74q0 -43 34 -70.5t95 -27.5h42q20 0 20 -20v-131q0 -20 -20 -20h-60q-130 0 -220.5 52.5t-90.5 177.5q0 164 174 218q-29 44 -29 104v13h-21q-26 -84 -103.5 -143.5t-209.5 -59.5h-50 q-146 0 -232 77t-86 221q0 269 317 289l357 23v48q0 60 -16.5 92.5t-55 46t-108.5 13.5q-89 0 -130.5 -20.5t-49.5 -70.5q-3 -19 -27 -19h-209q-14 0 -22 7.5t-9 22.5q5 305 455 305q165 0 263 -42t141 -127.5t43 -222.5v-309q0 -40 4 -61.5t11.5 -32.5t21.5 -23 q22 -17 30.5 -30.5zM554 187q60 0 112 20t83.5 61t31.5 99v48l-290 -23q-109 -8 -109 -100q0 -105 144 -105h28z" glyph-name="aogonek" unicode="ą" vert-adv-y="1980"/>
<glyph d="M1123.5 161.5q8.5 -13.5 8.5 -42.5v-39q0 -53 -35.5 -74t-89.5 -21q-84 0 -141 45t-57 135v13h-21q-26 -84 -103.5 -143.5t-209.5 -59.5h-50q-146 0 -232 77t-86 221q0 269 317 289l357 23v48q0 60 -16.5 92.5t-55 46t-108.5 13.5q-89 0 -130.5 -20.5t-49.5 -70.5 q-3 -19 -27 -19h-209q-14 0 -22 7.5t-9 22.5q5 305 455 305q165 0 263 -42t141 -127.5t43 -222.5v-309q0 -40 4 -61.5t11.5 -32.5t21.5 -23q22 -17 30.5 -30.5zM554 187q60 0 112 20t83.5 61t31.5 99v48l-290 -23q-109 -8 -109 -100q0 -105 144 -105h28zM520.5 1130.5 q-47.5 27.5 -75 74t-27.5 100.5q0 55 27.5 102.5t75 75t104.5 27.5t104 -27.5t74 -75t27 -102.5q0 -54 -27 -100.5t-74 -74t-104 -27.5t-104.5 27.5zM668 1264.5q18 15.5 18 40.5q0 27 -17.5 44t-43.5 17t-43 -16t-17 -42q0 -27 16.5 -43t43.5 -16q25 0 43 15.5z" glyph-name="aring" unicode="å" vert-adv-y="1980"/>
<glyph d="M1123.5 161.5q8.5 -13.5 8.5 -42.5v-39q0 -53 -35.5 -74t-89.5 -21q-84 0 -141 45t-57 135v13h-21q-26 -84 -103.5 -143.5t-209.5 -59.5h-50q-146 0 -232 77t-86 221q0 269 317 289l357 23v48q0 60 -16.5 92.5t-55 46t-108.5 13.5q-89 0 -130.5 -20.5t-49.5 -70.5 q-3 -19 -27 -19h-209q-14 0 -22 7.5t-9 22.5q5 305 455 305q165 0 263 -42t141 -127.5t43 -222.5v-309q0 -40 4 -61.5t11.5 -32.5t21.5 -23q22 -17 30.5 -30.5zM554 187q60 0 112 20t83.5 61t31.5 99v48l-290 -23q-109 -8 -109 -100q0 -105 144 -105h28zM723 1219.5 q-35 11.5 -60 27.5t-62 44q-41 32 -69.5 47.5t-64.5 15.5t-59 -17t-34 -42q-7 -15 -21 -15h-103q-10 0 -15 7.5t-5 20.5q0 70 31 116t80.5 67.5t105.5 21.5q61 0 104.5 -21.5t96.5 -62.5q42 -32 71 -47.5t64 -15.5q36 0 60 17.5t33 41.5q6 16 22 16h102q10 0 15 -6t5 -16 q0 -72 -31.5 -119.5t-81.5 -69.5t-106 -22q-43 0 -78 11.5z" glyph-name="atilde" unicode="ã" vert-adv-y="1980"/>
<glyph d="M988 206q40 16 78 49l109 -131q-108 -150 -294 -150q-193 0 -277 160q-51 -78 -121.5 -119t-156.5 -41q-77 0 -140.5 33.5t-102 102t-38.5 168.5q0 132 72.5 212t221.5 80h177v83q0 72 -30 105t-92 33q-111 0 -115 -99q-2 -23 -27 -23h-137q-14 0 -22.5 8.5t-7.5 23.5 q6 167 86 239t225 72q94 0 152 -28t89 -85q83 113 226 113q169 0 245.5 -139t76.5 -369q0 -43 -6.5 -64.5t-26 -31t-60.5 -9.5h-385q10 -103 54.5 -156t138.5 -53q48 0 88 16zM748 736q-34 -55 -41 -166h275q-1 113 -31.5 167t-98.5 54q-70 0 -104 -55zM516 399h-141 q-63 0 -89 -29t-26 -73q0 -46 26 -72.5t78 -26.5q47 0 88 24.5t64 82.5v94z" glyph-name="ae" unicode="æ" vert-adv-y="1980"/>
<glyph d="M925.5 943q107.5 -67 164.5 -185.5t57 -268.5q0 -145 -51.5 -262t-146.5 -184.5t-220 -67.5q-119 0 -199.5 59.5t-110.5 150.5h-26l-17 -155q-3 -30 -29 -30h-194q-13 0 -21.5 8.5t-8.5 21.5v1340q0 14 8.5 22t21.5 8h222q14 0 22 -8t8 -22v-464q40 47 105.5 75.5 t161.5 28.5q146 0 253.5 -67zM757.5 267q54.5 31 84.5 89t30 137t-30 136.5t-84.5 88.5t-125.5 31t-124.5 -30.5t-83 -88.5t-29.5 -137t29.5 -137t83 -89t124.5 -31t125.5 31z" glyph-name="b" unicode="b" vert-adv-y="1980"/>
<glyph d="M865 340q12 14 24 14q7 0 16 -6l156 -106q15 -10 15 -23q0 -8 -6 -17q-63 -103 -174 -165t-252 -62q-146 0 -265 67t-187 185t-68 266t68 266t187 184.5t265 66.5q141 0 252.5 -62t173.5 -165q6 -9 6 -17q0 -13 -16 -24l-155 -105q-9 -6 -16 -6q-12 0 -24 14 q-82 103 -211 103q-73 0 -131 -32t-91 -90t-33 -133t33 -133.5t91 -90.5t131 -32q129 0 211 103z" glyph-name="c" unicode="c" vert-adv-y="1980"/>
<glyph d="M865 340q12 14 24 14q7 0 16 -6l156 -106q15 -10 15 -23q0 -8 -6 -17q-63 -103 -174 -165t-252 -62q-146 0 -265 67t-187 185t-68 266t68 266t187 184.5t265 66.5q141 0 252.5 -62t173.5 -165q6 -9 6 -17q0 -13 -16 -24l-155 -105q-9 -6 -16 -6q-12 0 -24 14 q-82 103 -211 103q-73 0 -131 -32t-91 -90t-33 -133t33 -133.5t91 -90.5t131 -32q129 0 211 103zM570 1200q-13 0 -20.5 5t-7.5 15q0 4 4 14l120 252q6 13 14 18.5t20 5.5h198q13 0 20.5 -5t7.5 -15q0 -4 -4 -14l-120 -252q-6 -13 -14 -18.5t-20 -5.5h-198z" glyph-name="cacute" unicode="ć" vert-adv-y="1980"/>
<glyph d="M865 340q12 14 24 14q7 0 16 -6l156 -106q15 -10 15 -23q0 -8 -6 -17q-63 -103 -174 -165t-252 -62q-146 0 -265 67t-187 185t-68 266t68 266t187 184.5t265 66.5q141 0 252.5 -62t173.5 -165q6 -9 6 -17q0 -13 -16 -24l-155 -105q-9 -6 -16 -6q-12 0 -24 14 q-82 103 -211 103q-73 0 -131 -32t-91 -90t-33 -133t33 -133.5t91 -90.5t131 -32q129 0 211 103zM514 1191q-11 0 -19 3t-17 13l-224 267q-8 9 -8 19q0 8 7 12.5t19 4.5h223q23 0 36 -16l131 -151l131 151q13 16 36 16h223q12 0 19 -4.5t7 -12.5q0 -10 -8 -19l-224 -267 q-9 -10 -17 -13t-19 -3h-296z" glyph-name="ccaron" unicode="č" vert-adv-y="1980"/>
<glyph d="M1061 242q15 -10 15 -23q0 -8 -6 -17q-51 -84 -136.5 -142t-193.5 -77l-56 -49q47 -4 88.5 -24.5t67 -56.5t25.5 -85q0 -105 -76 -157.5t-193 -52.5q-46 0 -88 7q-18 3 -18 22v98q0 9 6 15t16 5q37 -5 61 -5q50 0 77 15.5t27 40.5q0 18 -24 33t-61 15q-38 0 -78 -17 q-4 -2 -10 -2q-14 0 -14 16v103q0 14 10 24l57 53q-125 19 -223.5 89.5t-154 180t-55.5 242.5q0 148 68 266t187 184.5t265 66.5q141 0 252.5 -62t173.5 -165q6 -9 6 -17q0 -13 -16 -24l-155 -105q-9 -6 -16 -6q-12 0 -24 14q-82 103 -211 103q-73 0 -131 -32t-91 -90 t-33 -133t33 -133.5t91 -90.5t131 -32q129 0 211 103q12 14 24 14q7 0 16 -6z" glyph-name="ccedilla" unicode="ç" vert-adv-y="1980"/>
<glyph d="M865 340q12 14 24 14q7 0 16 -6l156 -106q15 -10 15 -23q0 -8 -6 -17q-63 -103 -174 -165t-252 -62q-146 0 -265 67t-187 185t-68 266t68 266t187 184.5t265 66.5q141 0 252.5 -62t173.5 -165q6 -9 6 -17q0 -13 -16 -24l-155 -105q-9 -6 -16 -6q-12 0 -24 14 q-82 103 -211 103q-73 0 -131 -32t-91 -90t-33 -133t33 -133.5t91 -90.5t131 -32q129 0 211 103zM591.5 1245q-32.5 19 -51.5 51.5t-19 72.5q0 39 19 71t51.5 51t70.5 19t70.5 -19t51.5 -51t19 -71q0 -40 -19 -72.5t-51.5 -51.5t-70.5 -19t-70.5 19z" glyph-name="cdotaccent" unicode="ċ" vert-adv-y="1980"/>
<glyph d="M1078 1400q14 0 22 -8t8 -22v-1340q0 -13 -8 -21.5t-22 -8.5h-195q-26 0 -29 30l-17 155h-26q-30 -91 -110.5 -150.5t-199.5 -59.5q-125 0 -219.5 67.5t-146 184.5t-51.5 262q0 151 57 269t164 185t253 67q96 0 162 -29t106 -76v465q0 14 8.5 22t21.5 8h222zM723 267 q53 31 82.5 89t29.5 137t-29 137t-82.5 88.5t-124.5 30.5t-126 -31t-85 -88.5t-30 -136.5t30 -137t85 -89t126 -31t124 31z" glyph-name="d" unicode="d" vert-adv-y="1980"/>
<glyph d="M1174 1283q15 2 23.5 -5.5t8.5 -22.5v-86q0 -14 -7.5 -22.5t-20.5 -9.5l-70 -7v-1100q0 -13 -8 -21.5t-22 -8.5h-195q-26 0 -29 30l-17 155h-26q-30 -91 -110.5 -150.5t-199.5 -59.5q-125 0 -219.5 67.5t-146 184.5t-51.5 262q0 151 57 269t164 185t253 67q96 0 162 -29 t106 -76v195l-168 -17q-15 -2 -23.5 5.5t-8.5 22.5v86q0 14 7.5 22.5t20.5 9.5l172 18v123q0 14 8.5 22t21.5 8h222q14 0 22 -8t8 -22v-94zM723 267q53 31 82.5 89t29.5 137t-29 137t-82.5 88.5t-124.5 30.5t-126 -31t-85 -88.5t-30 -136.5t30 -137t85 -89t126 -31t124 31z " glyph-name="eth" unicode="ð" vert-adv-y="1980"/>
<glyph d="M1078 1400q14 0 22 -8t8 -22v-1340q0 -13 -8 -21.5t-22 -8.5h-195q-26 0 -29 30l-17 155h-26q-30 -91 -110.5 -150.5t-199.5 -59.5q-125 0 -219.5 67.5t-146 184.5t-51.5 262q0 151 57 269t164 185t253 67q96 0 162 -29t106 -76v465q0 14 8.5 22t21.5 8h222zM723 267 q53 31 82.5 89t29.5 137t-29 137t-82.5 88.5t-124.5 30.5t-126 -31t-85 -88.5t-30 -136.5t30 -137t85 -89t126 -31t124 31zM1253 1344q-13 0 -20.5 5t-7.5 15q0 4 4 14l120 252q6 13 14 18.5t20 5.5h198q13 0 20.5 -5t7.5 -15q0 -4 -4 -14l-120 -252q-6 -13 -14 -18.5 t-20 -5.5h-198z" glyph-name="dcaron" unicode="ď" vert-adv-y="1980"/>
<glyph d="M1155 1262q14 0 22 -8t8 -22v-84q0 -13 -8 -21.5t-22 -8.5h-47v-1088q0 -13 -8 -21.5t-22 -8.5h-195q-26 0 -29 30l-17 155h-26q-30 -91 -110.5 -150.5t-199.5 -59.5q-125 0 -219.5 67.5t-146 184.5t-51.5 262q0 151 57 269t164 185t253 67q96 0 162 -29t106 -76v213 h-245q-13 0 -21.5 8.5t-8.5 21.5v84q0 14 8.5 22t21.5 8h245v108q0 14 8.5 22t21.5 8h222q14 0 22 -8t8 -22v-108h47zM723 267q53 31 82.5 89t29.5 137t-29 137t-82.5 88.5t-124.5 30.5t-126 -31t-85 -88.5t-30 -136.5t30 -137t85 -89t126 -31t124 31z" glyph-name="dcroat" unicode="đ" vert-adv-y="1980"/>
<glyph d="M1104 455.5q-7 -21.5 -27.5 -33t-60.5 -11.5l-629 1q11 -103 91 -159t205 -56q115 0 215 49q20 10 32 10q13 0 27.5 -10.5t34.5 -36.5q18 -23 26.5 -39t8.5 -30q0 -22 -23 -44q-54 -54 -146 -87.5t-207 -33.5q-159 0 -279.5 65.5t-186.5 183t-66 270.5q0 151 64 268 t180 182.5t267 65.5q148 0 257 -63t166.5 -175.5t57.5 -256.5q0 -38 -7 -59.5zM476.5 727.5q-60.5 -44.5 -79.5 -131.5h464q-15 89 -76 132.5t-156 43.5q-92 0 -152.5 -44.5z" glyph-name="e" unicode="e" vert-adv-y="1980"/>
<glyph d="M1104 455.5q-7 -21.5 -27.5 -33t-60.5 -11.5l-629 1q11 -103 91 -159t205 -56q115 0 215 49q20 10 32 10q13 0 27.5 -10.5t34.5 -36.5q18 -23 26.5 -39t8.5 -30q0 -22 -23 -44q-54 -54 -146 -87.5t-207 -33.5q-159 0 -279.5 65.5t-186.5 183t-66 270.5q0 151 64 268 t180 182.5t267 65.5q148 0 257 -63t166.5 -175.5t57.5 -256.5q0 -38 -7 -59.5zM476.5 727.5q-60.5 -44.5 -79.5 -131.5h464q-15 89 -76 132.5t-156 43.5q-92 0 -152.5 -44.5zM523 1200q-13 0 -20.5 5t-7.5 15q0 4 4 14l120 252q6 13 14 18.5t20 5.5h198q13 0 20.5 -5 t7.5 -15q0 -4 -4 -14l-120 -252q-6 -13 -14 -18.5t-20 -5.5h-198z" glyph-name="eacute" unicode="é" vert-adv-y="1980"/>
<glyph d="M1104 455.5q-7 -21.5 -27.5 -33t-60.5 -11.5l-629 1q11 -103 91 -159t205 -56q115 0 215 49q20 10 32 10q13 0 27.5 -10.5t34.5 -36.5q18 -23 26.5 -39t8.5 -30q0 -22 -23 -44q-54 -54 -146 -87.5t-207 -33.5q-159 0 -279.5 65.5t-186.5 183t-66 270.5q0 151 64 268 t180 182.5t267 65.5q148 0 257 -63t166.5 -175.5t57.5 -256.5q0 -38 -7 -59.5zM476.5 727.5q-60.5 -44.5 -79.5 -131.5h464q-15 89 -76 132.5t-156 43.5q-92 0 -152.5 -44.5zM467 1191q-11 0 -19 3t-17 13l-224 267q-8 9 -8 19q0 8 7 12.5t19 4.5h223q23 0 36 -16l131 -151 l131 151q13 16 36 16h223q12 0 19 -4.5t7 -12.5q0 -10 -8 -19l-224 -267q-9 -10 -17 -13t-19 -3h-296z" glyph-name="ecaron" unicode="ě" vert-adv-y="1980"/>
<glyph d="M1104 455.5q-7 -21.5 -27.5 -33t-60.5 -11.5l-629 1q11 -103 91 -159t205 -56q115 0 215 49q20 10 32 10q13 0 27.5 -10.5t34.5 -36.5q18 -23 26.5 -39t8.5 -30q0 -22 -23 -44q-54 -54 -146 -87.5t-207 -33.5q-159 0 -279.5 65.5t-186.5 183t-66 270.5q0 151 64 268 t180 182.5t267 65.5q148 0 257 -63t166.5 -175.5t57.5 -256.5q0 -38 -7 -59.5zM476.5 727.5q-60.5 -44.5 -79.5 -131.5h464q-15 89 -76 132.5t-156 43.5q-92 0 -152.5 -44.5zM225 1191q-12 0 -19 4.5t-7 12.5q0 10 8 19l224 267q9 10 17 13t19 3h296q11 0 19 -3t17 -13 l224 -267q8 -9 8 -19q0 -8 -7 -12.5t-19 -4.5h-223q-23 0 -36 16l-131 151l-131 -151q-13 -16 -36 -16h-223z" glyph-name="ecircumflex" unicode="ê" vert-adv-y="1980"/>
<glyph d="M1104 455.5q-7 -21.5 -27.5 -33t-60.5 -11.5l-629 1q11 -103 91 -159t205 -56q115 0 215 49q20 10 32 10q13 0 27.5 -10.5t34.5 -36.5q18 -23 26.5 -39t8.5 -30q0 -22 -23 -44q-54 -54 -146 -87.5t-207 -33.5q-159 0 -279.5 65.5t-186.5 183t-66 270.5q0 151 64 268 t180 182.5t267 65.5q148 0 257 -63t166.5 -175.5t57.5 -256.5q0 -38 -7 -59.5zM476.5 727.5q-60.5 -44.5 -79.5 -131.5h464q-15 89 -76 132.5t-156 43.5q-92 0 -152.5 -44.5zM323 1245q-32 19 -51 51.5t-19 72.5q0 39 19 71t51 51t70 19t70.5 -19t51.5 -51t19 -71 q0 -40 -19 -72.5t-51.5 -51.5t-70.5 -19t-70 19zM766 1245q-32 19 -51 51.5t-19 72.5q0 39 19 71t51 51t70 19t70.5 -19t51.5 -51t19 -71q0 -40 -19 -72.5t-51.5 -51.5t-70.5 -19t-70 19z" glyph-name="edieresis" unicode="ë" vert-adv-y="1980"/>
<glyph d="M1104 455.5q-7 -21.5 -27.5 -33t-60.5 -11.5l-629 1q11 -103 91 -159t205 -56q115 0 215 49q20 10 32 10q13 0 27.5 -10.5t34.5 -36.5q18 -23 26.5 -39t8.5 -30q0 -22 -23 -44q-54 -54 -146 -87.5t-207 -33.5q-159 0 -279.5 65.5t-186.5 183t-66 270.5q0 151 64 268 t180 182.5t267 65.5q148 0 257 -63t166.5 -175.5t57.5 -256.5q0 -38 -7 -59.5zM476.5 727.5q-60.5 -44.5 -79.5 -131.5h464q-15 89 -76 132.5t-156 43.5q-92 0 -152.5 -44.5zM544.5 1245q-32.5 19 -51.5 51.5t-19 72.5q0 39 19 71t51.5 51t70.5 19t70.5 -19t51.5 -51t19 -71 q0 -40 -19 -72.5t-51.5 -51.5t-70.5 -19t-70.5 19z" glyph-name="edotaccent" unicode="ė" vert-adv-y="1980"/>
<glyph d="M1104 455.5q-7 -21.5 -27.5 -33t-60.5 -11.5l-629 1q11 -103 91 -159t205 -56q115 0 215 49q20 10 32 10q13 0 27.5 -10.5t34.5 -36.5q18 -23 26.5 -39t8.5 -30q0 -22 -23 -44q-54 -54 -146 -87.5t-207 -33.5q-159 0 -279.5 65.5t-186.5 183t-66 270.5q0 151 64 268 t180 182.5t267 65.5q148 0 257 -63t166.5 -175.5t57.5 -256.5q0 -38 -7 -59.5zM476.5 727.5q-60.5 -44.5 -79.5 -131.5h464q-15 89 -76 132.5t-156 43.5q-92 0 -152.5 -44.5zM511 1200q-12 0 -20 5.5t-14 18.5l-120 252q-4 10 -4 14q0 10 7.5 15t20.5 5h198q12 0 20 -5.5 t14 -18.5l120 -252q4 -10 4 -14q0 -10 -7.5 -15t-20.5 -5h-198z" glyph-name="egrave" unicode="è" vert-adv-y="1980"/>
<glyph d="M1104 455.5q-7 -21.5 -27.5 -33t-60.5 -11.5l-629 1q11 -103 91 -159t205 -56q115 0 215 49q20 10 32 10q13 0 27.5 -10.5t34.5 -36.5q18 -23 26.5 -39t8.5 -30q0 -22 -23 -44q-54 -54 -146 -87.5t-207 -33.5q-159 0 -279.5 65.5t-186.5 183t-66 270.5q0 151 64 268 t180 182.5t267 65.5q148 0 257 -63t166.5 -175.5t57.5 -256.5q0 -38 -7 -59.5zM476.5 727.5q-60.5 -44.5 -79.5 -131.5h464q-15 89 -76 132.5t-156 43.5q-92 0 -152.5 -44.5zM343 1292q-13 0 -21.5 8.5t-8.5 21.5v158q0 14 8.5 22t21.5 8h544q14 0 22 -8t8 -22v-158 q0 -13 -8 -21.5t-22 -8.5h-544z" glyph-name="emacron" unicode="ē" vert-adv-y="1980"/>
<glyph d="M1104 455.5q-7 -21.5 -27.5 -33t-60.5 -11.5l-629 1q11 -103 91 -159t205 -56q115 0 215 49q20 10 32 10q13 0 27.5 -10.5t34.5 -36.5q18 -23 26.5 -39t8.5 -30q0 -22 -23 -44q-41 -41 -105 -71t-144 -42q-55 -17 -81 -42.5t-26 -64.5q0 -42 29 -67t90 -25h52 q20 0 20 -20v-131q0 -20 -20 -20h-60q-129 0 -220 50t-91 167q0 109 89 154q-128 22 -222 91.5t-145 177t-51 241.5q0 151 64 268t180 182.5t267 65.5q148 0 257 -63t166.5 -175.5t57.5 -256.5q0 -38 -7 -59.5zM476.5 727.5q-60.5 -44.5 -79.5 -131.5h464q-15 89 -76 132.5 t-156 43.5q-92 0 -152.5 -44.5z" glyph-name="eogonek" unicode="ę" vert-adv-y="1980"/>
<glyph d="M858.5 949.5q120.5 -65.5 186.5 -183t66 -270.5q0 -151 -64 -268t-180 -182.5t-267 -65.5q-148 0 -257 63t-166.5 175.5t-57.5 256.5q0 38 7 59.5t27.5 33t60.5 11.5l629 -1q-11 103 -91 159t-205 56q-115 0 -215 -49q-20 -10 -32 -10q-13 0 -27.5 10.5t-34.5 36.5 q-18 23 -26.5 39t-8.5 30q0 22 23 44q54 54 146.5 87.5t206.5 33.5q159 0 279.5 -65.5zM753.5 262.5q60.5 44.5 79.5 131.5h-464q15 -89 76 -132.5t156 -43.5q92 0 152.5 44.5z" glyph-name="uni0259" unicode="ə" vert-adv-y="1980"/>
<glyph d="M1102 1405v-162q0 -14 -8 -22t-22 -8q-4 0 -36 4q-68 11 -129 11q-80 0 -131 -19.5t-78.5 -70t-27.5 -140.5v-18h387q14 0 22 -8t8 -22v-167q0 -13 -8 -21.5t-22 -8.5h-387v-723q0 -13 -8 -21.5t-22 -8.5h-222q-13 0 -21.5 8.5t-8.5 21.5v723h-214q-13 0 -21.5 8.5 t-8.5 21.5v167q0 14 8.5 22t21.5 8h214v56q0 235 125.5 333.5t328.5 98.5q73 0 140 -10.5t102 -24.5q18 -8 18 -28z" glyph-name="f" unicode="f" vert-adv-y="1980"/>
<glyph d="M1083 990q14 0 22 -8t8 -22v-899q0 -175 -81.5 -276.5t-204 -141t-262.5 -39.5q-113 0 -214 23.5t-167 69.5q-14 9 -14 24q0 7 3 15l51 146q6 18 24 18q6 0 15 -3q126 -58 275 -58q308 0 308 233v172h-28q-28 -89 -111 -141t-196 -52q-122 0 -216 61t-145.5 167 t-51.5 238q0 142 57 254t159 175.5t231 63.5q96 0 170.5 -36t125.5 -99l5 85q2 14 9.5 22t20.5 8h207zM721 319.5q52 28.5 81 81t29 121.5q0 70 -29 121.5t-81 79.5t-118 28q-67 0 -119 -28t-81.5 -79.5t-29.5 -121.5q0 -69 29.5 -121.5t82 -81t118.5 -28.5t118 28.5z" glyph-name="g" unicode="g" vert-adv-y="1980"/>
<glyph d="M1083 990q14 0 22 -8t8 -22v-899q0 -175 -81.5 -276.5t-204 -141t-262.5 -39.5q-113 0 -214 23.5t-167 69.5q-14 9 -14 24q0 7 3 15l51 146q6 18 24 18q6 0 15 -3q126 -58 275 -58q308 0 308 233v172h-28q-28 -89 -111 -141t-196 -52q-122 0 -216 61t-145.5 167 t-51.5 238q0 142 57 254t159 175.5t231 63.5q96 0 170.5 -36t125.5 -99l5 85q2 14 9.5 22t20.5 8h207zM721 319.5q52 28.5 81 81t29 121.5q0 70 -29 121.5t-81 79.5t-118 28q-67 0 -119 -28t-81.5 -79.5t-29.5 -121.5q0 -69 29.5 -121.5t82 -81t118.5 -28.5t118 28.5z M443.5 1225q-73.5 39 -115.5 105t-50 148q-2 15 6 23.5t24 8.5h120q25 0 32 -30q11 -47 52 -81.5t103 -34.5t103 34.5t52 81.5q7 30 32 30h120q16 0 24 -8.5t6 -23.5q-8 -82 -50 -148t-115.5 -105t-171.5 -39t-171.5 39z" glyph-name="gbreve" unicode="ğ" vert-adv-y="1980"/>
<glyph d="M418 1201q-12 0 -19.5 7.5t-7.5 19.5v91q0 129 10.5 241.5t28.5 183.5q5 20 33 20h142q15 0 21.5 -7t5.5 -22q-17 -164 -16 -323h236q12 0 19.5 -7.5t7.5 -19.5v-157q0 -12 -7.5 -19.5t-19.5 -7.5h-434zM1083 990q14 0 22 -8t8 -22v-899q0 -175 -81.5 -276.5t-204 -141 t-262.5 -39.5q-113 0 -214 23.5t-167 69.5q-14 9 -14 24q0 7 3 15l51 146q6 18 24 18q6 0 15 -3q126 -58 275 -58q308 0 308 233v172h-28q-28 -89 -111 -141t-196 -52q-122 0 -216 61t-145.5 167t-51.5 238q0 142 57 254t159 175.5t231 63.5q96 0 170.5 -36t125.5 -99l5 85 q2 14 9.5 22t20.5 8h207zM721 319.5q52 28.5 81 81t29 121.5q0 70 -29 121.5t-81 79.5t-118 28q-67 0 -119 -28t-81.5 -79.5t-29.5 -121.5q0 -69 29.5 -121.5t82 -81t118.5 -28.5t118 28.5z" glyph-name="uni0123" unicode="ģ" vert-adv-y="1980"/>
<glyph d="M1083 990q14 0 22 -8t8 -22v-899q0 -175 -81.5 -276.5t-204 -141t-262.5 -39.5q-113 0 -214 23.5t-167 69.5q-14 9 -14 24q0 7 3 15l51 146q6 18 24 18q6 0 15 -3q126 -58 275 -58q308 0 308 233v172h-28q-28 -89 -111 -141t-196 -52q-122 0 -216 61t-145.5 167 t-51.5 238q0 142 57 254t159 175.5t231 63.5q96 0 170.5 -36t125.5 -99l5 85q2 14 9.5 22t20.5 8h207zM721 319.5q52 28.5 81 81t29 121.5q0 70 -29 121.5t-81 79.5t-118 28q-67 0 -119 -28t-81.5 -79.5t-29.5 -121.5q0 -69 29.5 -121.5t82 -81t118.5 -28.5t118 28.5z M544.5 1245q-32.5 19 -51.5 51.5t-19 72.5q0 39 19 71t51.5 51t70.5 19t70.5 -19t51.5 -51t19 -71q0 -40 -19 -72.5t-51.5 -51.5t-70.5 -19t-70.5 19z" glyph-name="gdotaccent" unicode="ġ" vert-adv-y="1980"/>
<glyph d="M929.5 959q78.5 -51 122 -146t43.5 -225v-558q0 -13 -8 -21.5t-22 -8.5h-222q-13 0 -21.5 8.5t-8.5 21.5v504q0 101 -51.5 158t-146.5 57q-96 0 -147 -57t-51 -158v-504q0 -13 -8 -21.5t-22 -8.5h-222q-13 0 -21.5 8.5t-8.5 21.5v1340q0 14 8.5 22t21.5 8h222q14 0 22 -8 t8 -22v-554h35q38 85 111.5 139.5t183.5 54.5q104 0 182.5 -51z" glyph-name="h" unicode="h" vert-adv-y="1980"/>
<glyph d="M929.5 959q78.5 -51 122 -146t43.5 -225v-558q0 -13 -8 -21.5t-22 -8.5h-222q-13 0 -21.5 8.5t-8.5 21.5v504q0 101 -51.5 158t-146.5 57q-96 0 -147 -57t-51 -158v-504q0 -13 -8 -21.5t-22 -8.5h-222q-13 0 -21.5 8.5t-8.5 21.5v1075h-102q-13 0 -21.5 8.5t-8.5 21.5 v116q0 14 8.5 22t21.5 8h102v89q0 14 8.5 22t21.5 8h222q14 0 22 -8t8 -22v-89h299q14 0 22 -8t8 -22v-116q0 -13 -8 -21.5t-22 -8.5h-299v-289h35q38 85 111.5 139.5t183.5 54.5q104 0 182.5 -51z" glyph-name="hbar" unicode="ħ" vert-adv-y="1980"/>
<glyph d="M529.5 1229.5q-36.5 21.5 -57.5 58t-21 79.5t21 79.5t57.5 57.5t79.5 21t79.5 -21t58 -57.5t21.5 -79.5t-21.5 -79.5t-58 -58t-79.5 -21.5t-79.5 21.5zM1052 229q14 0 22 -8t8 -22v-169q0 -13 -8 -21.5t-22 -8.5h-261q-151 0 -231 84t-80 238v439h-296q-13 0 -21.5 8.5 t-8.5 21.5v169q0 14 8.5 22t21.5 8h548q14 0 22 -8t8 -22v-584q0 -75 35 -111t110 -36h145z" glyph-name="i" unicode="i" vert-adv-y="1980"/>
<glyph d="M1052 229q14 0 22 -8t8 -22v-169q0 -13 -8 -21.5t-22 -8.5h-261q-151 0 -231 84t-80 238v439h-296q-13 0 -21.5 8.5t-8.5 21.5v169q0 14 8.5 22t21.5 8h548q14 0 22 -8t8 -22v-584q0 -75 35 -111t110 -36h145z" glyph-name="dotlessi" unicode="ı" vert-adv-y="1980"/>
<glyph d="M1052 229q14 0 22 -8t8 -22v-169q0 -13 -8 -21.5t-22 -8.5h-261q-151 0 -231 84t-80 238v439h-296q-13 0 -21.5 8.5t-8.5 21.5v169q0 14 8.5 22t21.5 8h548q14 0 22 -8t8 -22v-584q0 -75 35 -111t110 -36h145zM513 1200q-13 0 -20.5 5t-7.5 15q0 4 4 14l120 252 q6 13 14 18.5t20 5.5h198q13 0 20.5 -5t7.5 -15q0 -4 -4 -14l-120 -252q-6 -13 -14 -18.5t-20 -5.5h-198z" glyph-name="iacute" unicode="í" vert-adv-y="1980"/>
<glyph d="M1052 229q14 0 22 -8t8 -22v-169q0 -13 -8 -21.5t-22 -8.5h-261q-151 0 -231 84t-80 238v439h-296q-13 0 -21.5 8.5t-8.5 21.5v169q0 14 8.5 22t21.5 8h548q14 0 22 -8t8 -22v-584q0 -75 35 -111t110 -36h145zM457 1191q-11 0 -19 3t-17 13l-224 267q-8 9 -8 19 q0 8 7 12.5t19 4.5h223q23 0 36 -16l131 -151l131 151q13 16 36 16h223q12 0 19 -4.5t7 -12.5q0 -10 -8 -19l-224 -267q-9 -10 -17 -13t-19 -3h-296z" glyph-name="uni01D0" unicode="ǐ" vert-adv-y="1980"/>
<glyph d="M1052 229q14 0 22 -8t8 -22v-169q0 -13 -8 -21.5t-22 -8.5h-261q-151 0 -231 84t-80 238v439h-296q-13 0 -21.5 8.5t-8.5 21.5v169q0 14 8.5 22t21.5 8h548q14 0 22 -8t8 -22v-584q0 -75 35 -111t110 -36h145zM215 1191q-12 0 -19 4.5t-7 12.5q0 10 8 19l224 267 q9 10 17 13t19 3h296q11 0 19 -3t17 -13l224 -267q8 -9 8 -19q0 -8 -7 -12.5t-19 -4.5h-223q-23 0 -36 16l-131 151l-131 -151q-13 -16 -36 -16h-223z" glyph-name="icircumflex" unicode="î" vert-adv-y="1980"/>
<glyph d="M1052 229q14 0 22 -8t8 -22v-169q0 -13 -8 -21.5t-22 -8.5h-261q-151 0 -231 84t-80 238v439h-296q-13 0 -21.5 8.5t-8.5 21.5v169q0 14 8.5 22t21.5 8h548q14 0 22 -8t8 -22v-584q0 -75 35 -111t110 -36h145zM313 1245q-32 19 -51 51.5t-19 72.5q0 39 19 71t51 51t70 19 t70.5 -19t51.5 -51t19 -71q0 -40 -19 -72.5t-51.5 -51.5t-70.5 -19t-70 19zM756 1245q-32 19 -51 51.5t-19 72.5q0 39 19 71t51 51t70 19t70.5 -19t51.5 -51t19 -71q0 -40 -19 -72.5t-51.5 -51.5t-70.5 -19t-70 19z" glyph-name="idieresis" unicode="ï" vert-adv-y="1980"/>
<glyph d="M1052 229q14 0 22 -8t8 -22v-169q0 -13 -8 -21.5t-22 -8.5h-261q-151 0 -231 84t-80 238v439h-296q-13 0 -21.5 8.5t-8.5 21.5v169q0 14 8.5 22t21.5 8h548q14 0 22 -8t8 -22v-584q0 -75 35 -111t110 -36h145zM534.5 1245q-32.5 19 -51.5 51.5t-19 72.5q0 39 19 71 t51.5 51t70.5 19t70.5 -19t51.5 -51t19 -71q0 -40 -19 -72.5t-51.5 -51.5t-70.5 -19t-70.5 19z" glyph-name="i.loclTRK" vert-adv-y="1980"/>
<glyph d="M1052 229q14 0 22 -8t8 -22v-169q0 -13 -8 -21.5t-22 -8.5h-261q-151 0 -231 84t-80 238v439h-296q-13 0 -21.5 8.5t-8.5 21.5v169q0 14 8.5 22t21.5 8h548q14 0 22 -8t8 -22v-584q0 -75 35 -111t110 -36h145zM501 1200q-12 0 -20 5.5t-14 18.5l-120 252q-4 10 -4 14 q0 10 7.5 15t20.5 5h198q12 0 20 -5.5t14 -18.5l120 -252q4 -10 4 -14q0 -10 -7.5 -15t-20.5 -5h-198z" glyph-name="igrave" unicode="ì" vert-adv-y="1980"/>
<glyph d="M952.5 1229.5q-36.5 21.5 -58 58t-21.5 79.5t21.5 79.5t58 57.5t79.5 21t79 -21t57.5 -57.5t21.5 -79.5t-21.5 -79.5t-57.5 -58t-79 -21.5t-79.5 21.5zM145.5 1219.5q-36.5 21.5 -58 58t-21.5 79.5t21.5 79.5t58 57.5t79.5 21t79.5 -21t57.5 -57.5t21 -79.5t-21 -79.5 t-57.5 -58t-79.5 -21.5t-79.5 21.5zM542.5 -358.5q-83.5 26.5 -131.5 65t-48 69.5q0 9 4 16l80 135q9 16 26 16q9 0 23 -7q47 -31 94.5 -48t107.5 -17q88 0 146 48.5t58 165.5v676h-428q-13 0 -21.5 8.5t-8.5 21.5v169q0 14 8.5 22t21.5 8h680q14 0 22 -8t8 -22v-907 q0 -160 -68.5 -258t-172.5 -139t-218 -41q-99 0 -182.5 26.5zM113 -2q-13 0 -21.5 8.5t-8.5 21.5v930q0 14 8 22t22 8h222q14 0 22 -8t8 -22v-930q0 -13 -8 -21.5t-22 -8.5h-222z" glyph-name="ij" unicode="ĳ" vert-adv-y="1980"/>
<glyph d="M1052 229q14 0 22 -8t8 -22v-169q0 -13 -8 -21.5t-22 -8.5h-261q-151 0 -231 84t-80 238v439h-296q-13 0 -21.5 8.5t-8.5 21.5v169q0 14 8.5 22t21.5 8h548q14 0 22 -8t8 -22v-584q0 -75 35 -111t110 -36h145zM333 1292q-13 0 -21.5 8.5t-8.5 21.5v158q0 14 8.5 22 t21.5 8h544q14 0 22 -8t8 -22v-158q0 -13 -8 -21.5t-22 -8.5h-544z" glyph-name="imacron" unicode="ī" vert-adv-y="1980"/>
<glyph d="M534.5 1245q-32.5 19 -51.5 51.5t-19 72.5q0 39 19 71t51.5 51t70.5 19t70.5 -19t51.5 -51t19 -71q0 -40 -19 -72.5t-51.5 -51.5t-70.5 -19t-70.5 19zM1052 229q14 0 22 -8t8 -22v-169q0 -13 -8 -21.5t-22 -8.5h-229q-78 0 -116.5 -29t-38.5 -74q0 -43 34 -70.5t95 -27.5 h42q20 0 20 -20v-131q0 -20 -20 -20h-61q-129 0 -219.5 52.5t-90.5 177.5q0 139 124 198q-55 40 -83.5 107.5t-28.5 158.5v439h-296q-13 0 -21.5 8.5t-8.5 21.5v169q0 14 8.5 22t21.5 8h548q14 0 22 -8t8 -22v-584q0 -75 35 -111t110 -36h145z" glyph-name="iogonek" unicode="į" vert-adv-y="1980"/>
<glyph d="M736.5 1229.5q-36.5 21.5 -58 58t-21.5 79.5t21.5 79.5t58 57.5t79.5 21t79.5 -21t57.5 -57.5t21 -79.5t-21 -79.5t-57.5 -58t-79.5 -21.5t-79.5 21.5zM326.5 -358.5q-83.5 26.5 -131.5 65t-48 69.5q0 9 4 16l81 135q9 16 25 16q9 0 23 -7q47 -31 94.5 -48t107.5 -17 q88 0 146 48.5t58 165.5v676h-427q-13 0 -21.5 8.5t-8.5 21.5v169q0 14 8.5 22t21.5 8h679q14 0 22 -8t8 -22v-907q0 -160 -68.5 -258t-172.5 -139t-218 -41q-99 0 -182.5 26.5z" glyph-name="j" unicode="j" vert-adv-y="1980"/>
<glyph d="M326.5 -358.5q-83.5 26.5 -131.5 65t-48 69.5q0 9 4 16l81 135q9 16 25 16q9 0 23 -7q47 -31 94.5 -48t107.5 -17q88 0 146 48.5t58 165.5v676h-427q-13 0 -21.5 8.5t-8.5 21.5v169q0 14 8.5 22t21.5 8h679q14 0 22 -8t8 -22v-907q0 -160 -68.5 -258t-172.5 -139 t-218 -41q-99 0 -182.5 26.5z" glyph-name="uni0237" unicode="ȷ" vert-adv-y="1980"/>
<glyph d="M1131 36q8 -11 8 -18q0 -8 -7 -13t-19 -5h-249q-12 0 -20 4t-16 14l-284 357l-111 -120v-225q0 -13 -8 -21.5t-22 -8.5h-222q-13 0 -21.5 8.5t-8.5 21.5v1340q0 14 8.5 22t21.5 8h222q14 0 22 -8t8 -22v-769l327 373q15 16 36 16h266q12 0 18.5 -4.5t6.5 -12.5t-9 -19 l-363 -394z" glyph-name="k" unicode="k" vert-adv-y="1980"/>
<glyph d="M1131 36q8 -11 8 -18q0 -8 -7 -13t-19 -5h-249q-12 0 -20 4t-16 14l-284 357l-111 -120v-225q0 -13 -8 -21.5t-22 -8.5h-222q-13 0 -21.5 8.5t-8.5 21.5v1340q0 14 8.5 22t21.5 8h222q14 0 22 -8t8 -22v-769l327 373q15 16 36 16h266q12 0 18.5 -4.5t6.5 -12.5t-9 -19 l-363 -394zM830 -180q12 0 19.5 -7.5t7.5 -19.5v-91q0 -130 -10.5 -242t-29.5 -183q-5 -20 -33 -20h-142q-29 0 -26 29q15 163 15 289v34h-236q-12 0 -19.5 7.5t-7.5 19.5v157q0 12 7.5 19.5t19.5 7.5h435z" glyph-name="uni0137" unicode="ķ" vert-adv-y="1980"/>
<glyph d="M807 0q-159 0 -245.5 90t-86.5 252v829h-321q-13 0 -21.5 8.5t-8.5 21.5v169q0 14 8.5 22t21.5 8h573q14 0 22 -8t8 -22v-985q0 -75 39.5 -115.5t114.5 -40.5h160q14 0 22 -8t8 -22v-169q0 -13 -8 -21.5t-22 -8.5h-264z" glyph-name="l" unicode="l" vert-adv-y="1980"/>
<glyph d="M807 0q-159 0 -245.5 90t-86.5 252v829h-321q-13 0 -21.5 8.5t-8.5 21.5v169q0 14 8.5 22t21.5 8h573q14 0 22 -8t8 -22v-985q0 -75 39.5 -115.5t114.5 -40.5h160q14 0 22 -8t8 -22v-169q0 -13 -8 -21.5t-22 -8.5h-264zM523 1632q-13 0 -20.5 5t-7.5 15q0 4 4 14l120 252 q6 13 14 18.5t20 5.5h198q13 0 20.5 -5t7.5 -15q0 -4 -4 -14l-120 -252q-6 -13 -14 -18.5t-20 -5.5h-198z" glyph-name="lacute" unicode="ĺ" vert-adv-y="1980"/>
<glyph d="M1183 1403q11 0 17.5 -8.5t6.5 -21.5v-101q0 -144 -9.5 -269t-26.5 -202q-4 -22 -29 -22h-129q-26 0 -23 32q13 154 13 312v46h-212q-11 0 -18 8.5t-7 21.5v174q0 14 7 22t18 8h392zM708 0q-159 0 -245.5 90t-86.5 252v829h-321q-13 0 -21.5 8.5t-8.5 21.5v169 q0 14 8.5 22t21.5 8h573q14 0 22 -8t8 -22v-985q0 -75 39.5 -115.5t114.5 -40.5h160q14 0 22 -8t8 -22v-169q0 -13 -8 -21.5t-22 -8.5h-264z" glyph-name="lcaron" unicode="ľ" vert-adv-y="1980"/>
<glyph d="M807 0q-159 0 -245.5 90t-86.5 252v829h-321q-13 0 -21.5 8.5t-8.5 21.5v169q0 14 8.5 22t21.5 8h573q14 0 22 -8t8 -22v-985q0 -75 39.5 -115.5t114.5 -40.5h160q14 0 22 -8t8 -22v-169q0 -13 -8 -21.5t-22 -8.5h-264zM830 -180q12 0 19.5 -7.5t7.5 -19.5v-91 q0 -130 -10.5 -242t-29.5 -183q-5 -20 -33 -20h-142q-29 0 -26 29q15 163 15 289v34h-236q-12 0 -19.5 7.5t-7.5 19.5v157q0 12 7.5 19.5t19.5 7.5h435z" glyph-name="uni013C" unicode="ļ" vert-adv-y="1980"/>
<glyph d="M807 0q-159 0 -245.5 90t-86.5 252v829h-321q-13 0 -21.5 8.5t-8.5 21.5v169q0 14 8.5 22t21.5 8h573q14 0 22 -8t8 -22v-985q0 -75 39.5 -115.5t114.5 -40.5h160q14 0 22 -8t8 -22v-169q0 -13 -8 -21.5t-22 -8.5h-264zM941 642.5q-37 21.5 -59 58.5t-22 81t22 81 t59 58.5t80 21.5t80 -21.5t59 -58.5t22 -81t-22 -81t-59 -58.5t-80 -21.5t-80 21.5z" glyph-name="ldot" unicode="ŀ" vert-adv-y="1980"/>
<glyph d="M1071 229q14 0 22 -8t8 -22v-169q0 -13 -8 -21.5t-22 -8.5h-265q-159 0 -245 90t-86 252v163l-145 -125v240l145 125v426h-321q-13 0 -21.5 8.5t-8.5 21.5v169q0 14 8.5 22t21.5 8h573q14 0 22 -8t8 -22v-381l159 137l2 -238l-161 -139v-364q0 -75 39.5 -115.5 t114.5 -40.5h160z" glyph-name="lslash" unicode="ł" vert-adv-y="1980"/>
<glyph d="M113 0q-13 0 -21.5 8.5t-8.5 21.5v930q0 14 8.5 22t21.5 8h192q13 0 21 -8t9 -22l4 -114h22q41 164 187 164q65 0 111 -37.5t69 -126.5h16q43 164 193 164q105 0 157.5 -77.5t52.5 -223.5v-679q0 -13 -8 -21.5t-22 -8.5h-194q-13 0 -21.5 8.5t-8.5 21.5v635q0 40 -21 63 t-60 23t-60.5 -23t-21.5 -63v-635q0 -13 -8 -21.5t-22 -8.5h-170q-13 0 -21.5 8.5t-8.5 21.5v635q0 40 -21 63t-60 23t-60.5 -23t-21.5 -63v-635q0 -13 -8 -21.5t-22 -8.5h-194z" glyph-name="m" unicode="m" vert-adv-y="1980"/>
<glyph d="M929.5 959q78.5 -51 122 -146t43.5 -225v-558q0 -13 -8 -21.5t-22 -8.5h-222q-13 0 -21.5 8.5t-8.5 21.5v504q0 101 -51.5 158t-146.5 57q-96 0 -147 -57t-51 -158v-504q0 -13 -8 -21.5t-22 -8.5h-222q-13 0 -21.5 8.5t-8.5 21.5v930q0 14 8.5 22t21.5 8h214q13 0 21 -8 t9 -22l8 -144h35q38 85 111.5 139.5t183.5 54.5q104 0 182.5 -51z" glyph-name="n" unicode="n" vert-adv-y="1980"/>
<glyph d="M929.5 959q78.5 -51 122 -146t43.5 -225v-558q0 -13 -8 -21.5t-22 -8.5h-222q-13 0 -21.5 8.5t-8.5 21.5v504q0 101 -51.5 158t-146.5 57q-96 0 -147 -57t-51 -158v-504q0 -13 -8 -21.5t-22 -8.5h-222q-13 0 -21.5 8.5t-8.5 21.5v930q0 14 8.5 22t21.5 8h214q13 0 21 -8 t9 -22l8 -144h35q38 85 111.5 139.5t183.5 54.5q104 0 182.5 -51zM523 1200q-13 0 -20.5 5t-7.5 15q0 4 4 14l120 252q6 13 14 18.5t20 5.5h198q13 0 20.5 -5t7.5 -15q0 -4 -4 -14l-120 -252q-6 -13 -14 -18.5t-20 -5.5h-198z" glyph-name="nacute" unicode="ń" vert-adv-y="1980"/>
<glyph d="M929.5 959q78.5 -51 122 -146t43.5 -225v-558q0 -13 -8 -21.5t-22 -8.5h-222q-13 0 -21.5 8.5t-8.5 21.5v504q0 101 -51.5 158t-146.5 57q-96 0 -147 -57t-51 -158v-504q0 -13 -8 -21.5t-22 -8.5h-222q-13 0 -21.5 8.5t-8.5 21.5v930q0 14 8.5 22t21.5 8h214q13 0 21 -8 t9 -22l8 -144h35q38 85 111.5 139.5t183.5 54.5q104 0 182.5 -51zM467 1191q-11 0 -19 3t-17 13l-224 267q-8 9 -8 19q0 8 7 12.5t19 4.5h223q23 0 36 -16l131 -151l131 151q13 16 36 16h223q12 0 19 -4.5t7 -12.5q0 -10 -8 -19l-224 -267q-9 -10 -17 -13t-19 -3h-296z" glyph-name="ncaron" unicode="ň" vert-adv-y="1980"/>
<glyph d="M929.5 959q78.5 -51 122 -146t43.5 -225v-558q0 -13 -8 -21.5t-22 -8.5h-222q-13 0 -21.5 8.5t-8.5 21.5v504q0 101 -51.5 158t-146.5 57q-96 0 -147 -57t-51 -158v-504q0 -13 -8 -21.5t-22 -8.5h-222q-13 0 -21.5 8.5t-8.5 21.5v930q0 14 8.5 22t21.5 8h214q13 0 21 -8 t9 -22l8 -144h35q38 85 111.5 139.5t183.5 54.5q104 0 182.5 -51zM830 -180q12 0 19.5 -7.5t7.5 -19.5v-91q0 -130 -10.5 -242t-29.5 -183q-5 -20 -33 -20h-142q-29 0 -26 29q15 163 15 289v34h-236q-12 0 -19.5 7.5t-7.5 19.5v157q0 12 7.5 19.5t19.5 7.5h435z" glyph-name="uni0146" unicode="ņ" vert-adv-y="1980"/>
<glyph d="M929.5 959q78.5 -51 122 -146t43.5 -225v-567q0 -135 -51.5 -228.5t-143.5 -141t-215 -47.5q-18 0 -24 16l-70 226q-1 3 -1 7q0 15 14 15q54 0 101.5 22t77.5 69t30 116v459q0 101 -51.5 158t-146.5 57q-96 0 -147 -57t-51 -158v-504q0 -13 -8 -21.5t-22 -8.5h-222 q-13 0 -21.5 8.5t-8.5 21.5v930q0 14 8.5 22t21.5 8h214q13 0 21 -8t9 -22l8 -144h35q38 85 111.5 139.5t183.5 54.5q104 0 182.5 -51z" glyph-name="eng" unicode="ŋ" vert-adv-y="1980"/>
<glyph d="M929.5 959q78.5 -51 122 -146t43.5 -225v-558q0 -13 -8 -21.5t-22 -8.5h-222q-13 0 -21.5 8.5t-8.5 21.5v504q0 101 -51.5 158t-146.5 57q-96 0 -147 -57t-51 -158v-504q0 -13 -8 -21.5t-22 -8.5h-222q-13 0 -21.5 8.5t-8.5 21.5v930q0 14 8.5 22t21.5 8h214q13 0 21 -8 t9 -22l8 -144h35q38 85 111.5 139.5t183.5 54.5q104 0 182.5 -51zM713 1219.5q-35 11.5 -60 27.5t-62 44q-41 32 -69.5 47.5t-64.5 15.5t-59 -17t-34 -42q-7 -15 -21 -15h-103q-10 0 -15 7.5t-5 20.5q0 70 31 116t80.5 67.5t105.5 21.5q61 0 104.5 -21.5t96.5 -62.5 q42 -32 71 -47.5t64 -15.5q36 0 60 17.5t33 41.5q6 16 22 16h102q10 0 15 -6t5 -16q0 -72 -31.5 -119.5t-81.5 -69.5t-106 -22q-43 0 -78 11.5z" glyph-name="ntilde" unicode="ñ" vert-adv-y="1980"/>
<glyph d="M352.5 43q-116.5 68 -183 186.5t-66.5 263.5t66.5 263.5t183 186t262.5 67.5t263 -67.5t183 -186t66 -263.5t-66 -263.5t-183 -186.5t-263 -68t-262.5 68zM737 269.5q54 32.5 84.5 90.5t30.5 133t-30.5 133t-84.5 90t-122 32t-122 -32t-84.5 -90t-30.5 -133t30.5 -133 t84.5 -90.5t122 -32.5t122 32.5z" glyph-name="o" unicode="o" vert-adv-y="1980"/>
<glyph d="M352.5 43q-116.5 68 -183 186.5t-66.5 263.5t66.5 263.5t183 186t262.5 67.5t263 -67.5t183 -186t66 -263.5t-66 -263.5t-183 -186.5t-263 -68t-262.5 68zM737 269.5q54 32.5 84.5 90.5t30.5 133t-30.5 133t-84.5 90t-122 32t-122 -32t-84.5 -90t-30.5 -133t30.5 -133 t84.5 -90.5t122 -32.5t122 32.5zM523 1200q-13 0 -20.5 5t-7.5 15q0 4 4 14l120 252q6 13 14 18.5t20 5.5h198q13 0 20.5 -5t7.5 -15q0 -4 -4 -14l-120 -252q-6 -13 -14 -18.5t-20 -5.5h-198z" glyph-name="oacute" unicode="ó" vert-adv-y="1980"/>
<glyph d="M352.5 43q-116.5 68 -183 186.5t-66.5 263.5t66.5 263.5t183 186t262.5 67.5t263 -67.5t183 -186t66 -263.5t-66 -263.5t-183 -186.5t-263 -68t-262.5 68zM737 269.5q54 32.5 84.5 90.5t30.5 133t-30.5 133t-84.5 90t-122 32t-122 -32t-84.5 -90t-30.5 -133t30.5 -133 t84.5 -90.5t122 -32.5t122 32.5zM467 1191q-11 0 -19 3t-17 13l-224 267q-8 9 -8 19q0 8 7 12.5t19 4.5h223q23 0 36 -16l131 -151l131 151q13 16 36 16h223q12 0 19 -4.5t7 -12.5q0 -10 -8 -19l-224 -267q-9 -10 -17 -13t-19 -3h-296z" glyph-name="uni01D2" unicode="ǒ" vert-adv-y="1980"/>
<glyph d="M352.5 43q-116.5 68 -183 186.5t-66.5 263.5t66.5 263.5t183 186t262.5 67.5t263 -67.5t183 -186t66 -263.5t-66 -263.5t-183 -186.5t-263 -68t-262.5 68zM737 269.5q54 32.5 84.5 90.5t30.5 133t-30.5 133t-84.5 90t-122 32t-122 -32t-84.5 -90t-30.5 -133t30.5 -133 t84.5 -90.5t122 -32.5t122 32.5zM225 1191q-12 0 -19 4.5t-7 12.5q0 10 8 19l224 267q9 10 17 13t19 3h296q11 0 19 -3t17 -13l224 -267q8 -9 8 -19q0 -8 -7 -12.5t-19 -4.5h-223q-23 0 -36 16l-131 151l-131 -151q-13 -16 -36 -16h-223z" glyph-name="ocircumflex" unicode="ô" vert-adv-y="1980"/>
<glyph d="M352.5 43q-116.5 68 -183 186.5t-66.5 263.5t66.5 263.5t183 186t262.5 67.5t263 -67.5t183 -186t66 -263.5t-66 -263.5t-183 -186.5t-263 -68t-262.5 68zM737 269.5q54 32.5 84.5 90.5t30.5 133t-30.5 133t-84.5 90t-122 32t-122 -32t-84.5 -90t-30.5 -133t30.5 -133 t84.5 -90.5t122 -32.5t122 32.5zM323 1245q-32 19 -51 51.5t-19 72.5q0 39 19 71t51 51t70 19t70.5 -19t51.5 -51t19 -71q0 -40 -19 -72.5t-51.5 -51.5t-70.5 -19t-70 19zM766 1245q-32 19 -51 51.5t-19 72.5q0 39 19 71t51 51t70 19t70.5 -19t51.5 -51t19 -71 q0 -40 -19 -72.5t-51.5 -51.5t-70.5 -19t-70 19z" glyph-name="odieresis" unicode="ö" vert-adv-y="1980"/>
<glyph d="M352.5 43q-116.5 68 -183 186.5t-66.5 263.5t66.5 263.5t183 186t262.5 67.5t263 -67.5t183 -186t66 -263.5t-66 -263.5t-183 -186.5t-263 -68t-262.5 68zM737 269.5q54 32.5 84.5 90.5t30.5 133t-30.5 133t-84.5 90t-122 32t-122 -32t-84.5 -90t-30.5 -133t30.5 -133 t84.5 -90.5t122 -32.5t122 32.5zM511 1200q-12 0 -20 5.5t-14 18.5l-120 252q-4 10 -4 14q0 10 7.5 15t20.5 5h198q12 0 20 -5.5t14 -18.5l120 -252q4 -10 4 -14q0 -10 -7.5 -15t-20.5 -5h-198z" glyph-name="ograve" unicode="ò" vert-adv-y="1980"/>
<glyph d="M352.5 43q-116.5 68 -183 186.5t-66.5 263.5t66.5 263.5t183 186t262.5 67.5t263 -67.5t183 -186t66 -263.5t-66 -263.5t-183 -186.5t-263 -68t-262.5 68zM737 269.5q54 32.5 84.5 90.5t30.5 133t-30.5 133t-84.5 90t-122 32t-122 -32t-84.5 -90t-30.5 -133t30.5 -133 t84.5 -90.5t122 -32.5t122 32.5zM707 1200q-13 0 -20.5 5t-7.5 15q0 4 4 14l120 252q6 13 14 18.5t20 5.5h198q13 0 20.5 -5t7.5 -15q0 -4 -4 -14l-120 -252q-6 -13 -14 -18.5t-20 -5.5h-198zM329 1200q-13 0 -20.5 5t-7.5 15q0 4 4 14l120 252q6 13 14 18.5t20 5.5h198 q13 0 20.5 -5t7.5 -15q0 -4 -4 -14l-120 -252q-6 -13 -14 -18.5t-20 -5.5h-198z" glyph-name="ohungarumlaut" unicode="ő" vert-adv-y="1980"/>
<glyph d="M352.5 43q-116.5 68 -183 186.5t-66.5 263.5t66.5 263.5t183 186t262.5 67.5t263 -67.5t183 -186t66 -263.5t-66 -263.5t-183 -186.5t-263 -68t-262.5 68zM737 269.5q54 32.5 84.5 90.5t30.5 133t-30.5 133t-84.5 90t-122 32t-122 -32t-84.5 -90t-30.5 -133t30.5 -133 t84.5 -90.5t122 -32.5t122 32.5zM343 1292q-13 0 -21.5 8.5t-8.5 21.5v158q0 14 8.5 22t21.5 8h544q14 0 22 -8t8 -22v-158q0 -13 -8 -21.5t-22 -8.5h-544z" glyph-name="omacron" unicode="ō" vert-adv-y="1980"/>
<glyph d="M646 -53q-33 -27 -33 -71q0 -42 29 -67t90 -25h52q20 0 20 -20v-131q0 -20 -20 -20h-60q-129 0 -220 50t-91 167q0 109 92 156q-118 24 -209.5 95.5t-142 178.5t-50.5 233q0 145 66.5 263.5t183 186t262.5 67.5t263 -67.5t183 -186t66 -263.5q0 -122 -47 -226 t-132.5 -176t-197.5 -100q-71 -17 -104 -44zM408.5 360q30.5 -58 84.5 -90.5t122 -32.5t122 32.5t84.5 90.5t30.5 133t-30.5 133t-84.5 90t-122 32t-122 -32t-84.5 -90t-30.5 -133t30.5 -133z" glyph-name="uni01EB" unicode="ǫ" vert-adv-y="1980"/>
<glyph d="M916 918q99 -70 155 -181t56 -244q0 -145 -66 -263.5t-183 -186.5t-263 -68q-79 0 -150 21l-56 -114q-7 -12 -14.5 -17t-19.5 -5h-118q-12 0 -19 5.5t-7 14.5q0 8 4 16l83 169q-101 70 -158 182t-57 246q0 145 66.5 263.5t183 186t262.5 67.5q80 0 155 -22l52 106 q6 12 14 17t20 5h117q12 0 19 -5.5t7 -14.5q0 -8 -4 -16zM394 393.5q16 -45.5 46 -79.5l211 432q-22 2 -36 2q-68 0 -122 -32t-84.5 -90t-30.5 -133q0 -54 16 -99.5zM737 269.5q54 32.5 84.5 90.5t30.5 133q0 52 -15 96.5t-43 78.5l-210 -429q20 -2 31 -2q68 0 122 32.5z " glyph-name="oslash" unicode="ø" vert-adv-y="1980"/>
<glyph d="M352.5 43q-116.5 68 -183 186.5t-66.5 263.5t66.5 263.5t183 186t262.5 67.5t263 -67.5t183 -186t66 -263.5t-66 -263.5t-183 -186.5t-263 -68t-262.5 68zM737 269.5q54 32.5 84.5 90.5t30.5 133t-30.5 133t-84.5 90t-122 32t-122 -32t-84.5 -90t-30.5 -133t30.5 -133 t84.5 -90.5t122 -32.5t122 32.5zM713 1219.5q-35 11.5 -60 27.5t-62 44q-41 32 -69.5 47.5t-64.5 15.5t-59 -17t-34 -42q-7 -15 -21 -15h-103q-10 0 -15 7.5t-5 20.5q0 70 31 116t80.5 67.5t105.5 21.5q61 0 104.5 -21.5t96.5 -62.5q42 -32 71 -47.5t64 -15.5q36 0 60 17.5 t33 41.5q6 16 22 16h102q10 0 15 -6t5 -16q0 -72 -31.5 -119.5t-81.5 -69.5t-106 -22q-43 0 -78 11.5z" glyph-name="otilde" unicode="õ" vert-adv-y="1980"/>
<glyph d="M1000 207q39 15 77 48l109 -131q-52 -73 -127 -111.5t-167 -38.5q-187 0 -270 165q-82 -165 -257 -165q-164 0 -247.5 137.5t-83.5 382.5q0 244 83.5 381.5t247.5 137.5q177 0 258 -167q82 167 258 167q166 0 240.5 -138t74.5 -365q0 -66 -14 -94t-57 -28h-402 q13 -96 57.5 -146t133.5 -50q47 0 86 15zM760 734.5q-33 -54.5 -41 -166.5h274q0 113 -30.5 167t-99.5 54q-70 0 -103 -54.5zM526 492q0 294 -150 294q-71 0 -111 -70.5t-40 -223.5q0 -154 40 -225t111 -71q150 0 150 296z" glyph-name="oe" unicode="œ" vert-adv-y="1980"/>
<glyph d="M935 943q98 -67 150 -184.5t52 -265.5q0 -147 -52 -265t-150 -185.5t-231 -67.5q-102 0 -171 40t-104 109h-29v-474q0 -14 -8 -22t-22 -8h-216q-13 0 -21.5 8t-8.5 22v1310q0 14 8.5 22t21.5 8h222q14 0 22 -8t8 -22v-87h23q36 62 105 99.5t170 37.5q133 0 231 -67z M751 267q53 31 82 89t29 137t-29 137t-82 88.5t-124 30.5q-106 0 -168.5 -68.5t-62.5 -187.5t62.5 -188t168.5 -69q71 0 124 31z" glyph-name="p" unicode="p" vert-adv-y="1980"/>
<glyph d="M1116.5 694q31.5 -94 31.5 -205q0 -144 -51.5 -261.5t-146.5 -185t-219 -67.5h-13h-14q-102 0 -171 40t-104 109h-29v-474q0 -14 -8 -22t-22 -8h-216q-13 0 -21.5 8t-8.5 22v1720q0 14 8.5 22t21.5 8h222q14 0 22 -8t8 -22v-465q88 105 268 105h16h14q102 0 183.5 -39.5 t138.5 -112.5q59 -70 90.5 -164zM425 357q29 -58 82 -89.5t123 -31.5t122.5 31.5t81 89.5t28.5 136t-28.5 136t-81 89t-122.5 31t-123 -31t-82 -89t-29 -136t29 -136z" glyph-name="thorn" unicode="þ" vert-adv-y="1980"/>
<glyph d="M1076 990q14 0 22 -8t8 -22v-1310q0 -14 -8 -22t-22 -8h-216q-13 0 -21.5 8t-8.5 22v474h-29q-35 -69 -104 -109t-171 -40q-133 0 -231 67.5t-150 185.5t-52 265q0 148 52 265.5t150 184.5t231 67q101 0 170 -37.5t105 -99.5h23v87q0 14 8.5 22t21.5 8h222zM771.5 305 q62.5 69 62.5 188t-62.5 187.5t-168.5 68.5q-71 0 -124 -30.5t-82 -88.5t-29 -137t29 -137t82 -89t124 -31q106 0 168.5 69z" glyph-name="q" unicode="q" vert-adv-y="1980"/>
<glyph d="M979 962q78 -48 119.5 -128.5t41.5 -177.5q0 -76 -25.5 -107.5t-72.5 -31.5h-130q-20 0 -32.5 10t-13.5 30q-5 107 -61 149.5t-138 42.5q-107 0 -168 -69.5t-61 -218.5v-431q0 -13 -8 -21.5t-22 -8.5h-222q-13 0 -21.5 8.5t-8.5 21.5v930q0 14 8.5 22t21.5 8h214 q13 0 20.5 -8t9.5 -22l8 -173h40q33 100 116 161.5t203 61.5q104 0 182 -48z" glyph-name="r" unicode="r" vert-adv-y="1980"/>
<glyph d="M979 962q78 -48 119.5 -128.5t41.5 -177.5q0 -76 -25.5 -107.5t-72.5 -31.5h-130q-20 0 -32.5 10t-13.5 30q-5 107 -61 149.5t-138 42.5q-107 0 -168 -69.5t-61 -218.5v-431q0 -13 -8 -21.5t-22 -8.5h-222q-13 0 -21.5 8.5t-8.5 21.5v930q0 14 8.5 22t21.5 8h214 q13 0 20.5 -8t9.5 -22l8 -173h40q33 100 116 161.5t203 61.5q104 0 182 -48zM543 1200q-13 0 -20.5 5t-7.5 15q0 4 4 14l120 252q6 13 14 18.5t20 5.5h198q13 0 20.5 -5t7.5 -15q0 -4 -4 -14l-120 -252q-6 -13 -14 -18.5t-20 -5.5h-198z" glyph-name="racute" unicode="ŕ" vert-adv-y="1980"/>
<glyph d="M979 962q78 -48 119.5 -128.5t41.5 -177.5q0 -76 -25.5 -107.5t-72.5 -31.5h-130q-20 0 -32.5 10t-13.5 30q-5 107 -61 149.5t-138 42.5q-107 0 -168 -69.5t-61 -218.5v-431q0 -13 -8 -21.5t-22 -8.5h-222q-13 0 -21.5 8.5t-8.5 21.5v930q0 14 8.5 22t21.5 8h214 q13 0 20.5 -8t9.5 -22l8 -173h40q33 100 116 161.5t203 61.5q104 0 182 -48zM487 1191q-11 0 -19 3t-17 13l-224 267q-8 9 -8 19q0 8 7 12.5t19 4.5h223q23 0 36 -16l131 -151l131 151q13 16 36 16h223q12 0 19 -4.5t7 -12.5q0 -10 -8 -19l-224 -267q-9 -10 -17 -13t-19 -3 h-296z" glyph-name="rcaron" unicode="ř" vert-adv-y="1980"/>
<glyph d="M979 962q78 -48 119.5 -128.5t41.5 -177.5q0 -76 -25.5 -107.5t-72.5 -31.5h-130q-20 0 -32.5 10t-13.5 30q-5 107 -61 149.5t-138 42.5q-107 0 -168 -69.5t-61 -218.5v-431q0 -13 -8 -21.5t-22 -8.5h-222q-13 0 -21.5 8.5t-8.5 21.5v930q0 14 8.5 22t21.5 8h214 q13 0 20.5 -8t9.5 -22l8 -173h40q33 100 116 161.5t203 61.5q104 0 182 -48zM470 -180q12 0 19.5 -7.5t7.5 -19.5v-91q0 -130 -10.5 -242t-29.5 -183q-5 -20 -33 -20h-142q-29 0 -26 29q15 163 15 289v34h-236q-12 0 -19.5 7.5t-7.5 19.5v157q0 12 7.5 19.5t19.5 7.5h435z " glyph-name="uni0157" unicode="ŗ" vert-adv-y="1980"/>
<glyph d="M853 555.5q87 -22.5 157 -86.5t70 -183q0 -147 -119.5 -229t-346.5 -82q-201 0 -325.5 66.5t-138.5 205.5q-1 14 8 22t23 8h207q23 0 30 -19q14 -34 62.5 -54t137.5 -20q187 0 187 99q0 36 -23.5 56.5t-67 31t-121.5 20.5q-126 17 -211 40t-149.5 86.5t-64.5 179.5 q0 148 114 230.5t329 82.5q188 0 311 -65t137 -199q1 -14 -7.5 -22t-22.5 -8h-208q-23 0 -30 19q-12 29 -61 47.5t-123 18.5q-79 0 -121.5 -22.5t-42.5 -74.5q0 -50 44 -73t147 -36q132 -17 219 -39.5z" glyph-name="s" unicode="s" vert-adv-y="1980"/>
<glyph d="M853 555.5q87 -22.5 157 -86.5t70 -183q0 -147 -119.5 -229t-346.5 -82q-201 0 -325.5 66.5t-138.5 205.5q-1 14 8 22t23 8h207q23 0 30 -19q14 -34 62.5 -54t137.5 -20q187 0 187 99q0 36 -23.5 56.5t-67 31t-121.5 20.5q-126 17 -211 40t-149.5 86.5t-64.5 179.5 q0 148 114 230.5t329 82.5q188 0 311 -65t137 -199q1 -14 -7.5 -22t-22.5 -8h-208q-23 0 -30 19q-12 29 -61 47.5t-123 18.5q-79 0 -121.5 -22.5t-42.5 -74.5q0 -50 44 -73t147 -36q132 -17 219 -39.5zM523 1200q-13 0 -20.5 5t-7.5 15q0 4 4 14l120 252q6 13 14 18.5 t20 5.5h198q13 0 20.5 -5t7.5 -15q0 -4 -4 -14l-120 -252q-6 -13 -14 -18.5t-20 -5.5h-198z" glyph-name="sacute" unicode="ś" vert-adv-y="1980"/>
<glyph d="M853 555.5q87 -22.5 157 -86.5t70 -183q0 -147 -119.5 -229t-346.5 -82q-201 0 -325.5 66.5t-138.5 205.5q-1 14 8 22t23 8h207q23 0 30 -19q14 -34 62.5 -54t137.5 -20q187 0 187 99q0 36 -23.5 56.5t-67 31t-121.5 20.5q-126 17 -211 40t-149.5 86.5t-64.5 179.5 q0 148 114 230.5t329 82.5q188 0 311 -65t137 -199q1 -14 -7.5 -22t-22.5 -8h-208q-23 0 -30 19q-12 29 -61 47.5t-123 18.5q-79 0 -121.5 -22.5t-42.5 -74.5q0 -50 44 -73t147 -36q132 -17 219 -39.5zM467 1191q-11 0 -19 3t-17 13l-224 267q-8 9 -8 19q0 8 7 12.5t19 4.5 h223q23 0 36 -16l131 -151l131 151q13 16 36 16h223q12 0 19 -4.5t7 -12.5q0 -10 -8 -19l-224 -267q-9 -10 -17 -13t-19 -3h-296z" glyph-name="scaron" unicode="š" vert-adv-y="1980"/>
<glyph d="M979.5 70.5q-100.5 -80.5 -292.5 -93.5l-49 -43q47 -4 88.5 -24.5t67 -56.5t25.5 -85q0 -105 -76 -157.5t-193 -52.5q-46 0 -88 7q-18 3 -18 22v98q0 9 6 15t16 5q37 -5 61 -5q50 0 77 15.5t27 40.5q0 18 -24 33t-61 15q-38 0 -78 -17q-4 -2 -10 -2q-14 0 -14 16v103 q0 14 10 24l56 52q-158 16 -253 81.5t-107 185.5q-1 14 8 22t23 8h207q23 0 30 -19q14 -34 62.5 -54t137.5 -20q187 0 187 99q0 36 -23.5 56.5t-67 31t-121.5 20.5q-126 17 -211 40t-149.5 86.5t-64.5 179.5q0 148 114 230.5t329 82.5q188 0 311 -65t137 -199 q1 -14 -7.5 -22t-22.5 -8h-208q-23 0 -30 19q-12 29 -61 47.5t-123 18.5q-79 0 -121.5 -22.5t-42.5 -74.5q0 -50 44 -73t147 -36q132 -17 219 -39.5t157 -86.5t70 -183q0 -135 -100.5 -215.5z" glyph-name="scedilla" unicode="ş" vert-adv-y="1980"/>
<glyph d="M853 555.5q87 -22.5 157 -86.5t70 -183q0 -147 -119.5 -229t-346.5 -82q-201 0 -325.5 66.5t-138.5 205.5q-1 14 8 22t23 8h207q23 0 30 -19q14 -34 62.5 -54t137.5 -20q187 0 187 99q0 36 -23.5 56.5t-67 31t-121.5 20.5q-126 17 -211 40t-149.5 86.5t-64.5 179.5 q0 148 114 230.5t329 82.5q188 0 311 -65t137 -199q1 -14 -7.5 -22t-22.5 -8h-208q-23 0 -30 19q-12 29 -61 47.5t-123 18.5q-79 0 -121.5 -22.5t-42.5 -74.5q0 -50 44 -73t147 -36q132 -17 219 -39.5zM830 -180q12 0 19.5 -7.5t7.5 -19.5v-91q0 -130 -10.5 -242t-29.5 -183 q-5 -20 -33 -20h-142q-29 0 -26 29q15 163 15 289v34h-236q-12 0 -19.5 7.5t-7.5 19.5v157q0 12 7.5 19.5t19.5 7.5h435z" glyph-name="uni0219" unicode="ș" vert-adv-y="1980"/>
<glyph d="M917.5 699.5q13.5 -22.5 34 -40t58.5 -46.5q55 -41 89.5 -74t59.5 -85.5t25 -123.5q0 -103 -54.5 -177t-161.5 -113.5t-262 -39.5h-86q-13 0 -21.5 8.5t-8.5 21.5v158q0 14 8.5 22t21.5 8h66q216 0 216 133q0 41 -19 73.5t-46 57t-74 58.5q-45 33 -72.5 57t-46 56 t-18.5 72q0 35 13.5 61.5t41.5 62.5q31 41 47 74t16 80q0 142 -159 142q-81 0 -122.5 -40t-41.5 -132v-943q0 -13 -8 -21.5t-22 -8.5h-222q-13 0 -21.5 8.5t-8.5 21.5v683h-90q-14 0 -22.5 8.5t-8.5 21.5v167q0 13 8.5 21.5t22.5 8.5h90v47q0 136 56.5 228.5t157.5 138.5 t235 46q129 0 228 -41t154.5 -121t55.5 -192q0 -72 -20.5 -115.5t-56.5 -88.5q-24 -31 -34.5 -49.5t-10.5 -43.5q0 -27 13.5 -49.5z" glyph-name="germandbls" unicode="ß" vert-adv-y="1980"/>
<glyph d="M1115 1409v-162q0 -28 -29 -28q-4 0 -34 4q-75 10 -129 10q-123 0 -187.5 -45t-64.5 -156v-1002q0 -13 -8 -21.5t-22 -8.5h-222q-13 0 -21.5 8.5t-8.5 21.5v721h-244q-13 0 -21.5 8.5t-8.5 21.5v169q0 14 8.5 22t21.5 8h244v85q0 218 130 312.5t335 94.5q74 0 142 -10.5 t102 -24.5q17 -8 17 -28z" glyph-name="longs" unicode="ſ" vert-adv-y="1980"/>
<glyph d="M1136.5 219q11.5 -20 11.5 -38q0 -20 -18 -46q-21 -30 -68.5 -67t-123.5 -65t-171 -28q-98 0 -186.5 35.5t-148.5 126.5t-60 246v371h-275q-13 0 -21.5 8.5t-8.5 21.5v166q0 14 8.5 22t21.5 8h275v280q0 14 8.5 22t21.5 8h222q14 0 22 -8t8 -22v-280h391q14 0 22 -8 t8 -22v-166q0 -13 -8 -21.5t-22 -8.5h-391v-330q0 -109 49 -153.5t121 -44.5q56 0 98.5 20t78.5 50q19 16 31 16q11 0 26 -10.5t39 -34.5q28 -28 39.5 -48z" glyph-name="t" unicode="t" vert-adv-y="1980"/>
<glyph d="M1136.5 219q11.5 -20 11.5 -38q0 -20 -18 -46q-21 -30 -68.5 -67t-123.5 -65t-171 -28q-98 0 -186.5 35.5t-148.5 126.5t-60 246v85h-275q-13 0 -21.5 8.5t-8.5 21.5v142q0 14 8.5 22t21.5 8h275v84h-275q-13 0 -21.5 8.5t-8.5 21.5v166q0 14 8.5 22t21.5 8h275v280 q0 14 8.5 22t21.5 8h222q14 0 22 -8t8 -22v-280h391q14 0 22 -8t8 -22v-166q0 -13 -8 -21.5t-22 -8.5h-391v-84h388q14 0 22 -8t8 -22v-142q0 -13 -8 -21.5t-22 -8.5h-388v-44q0 -109 49 -153.5t121 -44.5q56 0 98.5 20t78.5 50q19 16 31 16q11 0 26 -10.5t39 -34.5 q28 -28 39.5 -48z" glyph-name="tbar" unicode="ŧ" vert-adv-y="1980"/>
<glyph d="M1136.5 219q11.5 -20 11.5 -38q0 -20 -18 -46q-21 -30 -68.5 -67t-123.5 -65t-171 -28q-98 0 -186.5 35.5t-148.5 126.5t-60 246v371h-275q-13 0 -21.5 8.5t-8.5 21.5v166q0 14 8.5 22t21.5 8h275v280q0 14 8.5 22t21.5 8h222q14 0 22 -8t8 -22v-280h391q14 0 22 -8 t8 -22v-166q0 -13 -8 -21.5t-22 -8.5h-391v-330q0 -109 49 -153.5t121 -44.5q56 0 98.5 20t78.5 50q19 16 31 16q11 0 26 -10.5t39 -34.5q28 -28 39.5 -48zM845 1344q-13 0 -20.5 5t-7.5 15q0 4 4 14l120 252q6 13 14 18.5t20 5.5h198q13 0 20.5 -5t7.5 -15q0 -4 -4 -14 l-120 -252q-6 -13 -14 -18.5t-20 -5.5h-198z" glyph-name="tcaron" unicode="ť" vert-adv-y="1980"/>
<glyph d="M1136.5 219q11.5 -20 11.5 -38q0 -20 -18 -46q-17 -25 -55.5 -57t-98 -59.5t-133.5 -38.5l-53 -46q47 -4 88.5 -24.5t67 -56.5t25.5 -85q0 -105 -76 -157.5t-193 -52.5q-46 0 -88 7q-18 3 -18 22v98q0 9 6 15t16 5q37 -5 61 -5q50 0 77 15.5t27 40.5q0 18 -24 33t-61 15 q-38 0 -78 -17q-4 -2 -10 -2q-14 0 -14 16v103q0 14 10 24l60 56q-127 25 -210.5 119.5t-83.5 279.5v371h-275q-13 0 -21.5 8.5t-8.5 21.5v166q0 14 8.5 22t21.5 8h275v280q0 14 8.5 22t21.5 8h222q14 0 22 -8t8 -22v-280h391q14 0 22 -8t8 -22v-166q0 -13 -8 -21.5 t-22 -8.5h-391v-330q0 -109 49 -153.5t121 -44.5q56 0 98.5 20t78.5 50q19 16 31 16q11 0 26 -10.5t39 -34.5q28 -28 39.5 -48z" glyph-name="uni0163" unicode="ţ" vert-adv-y="1980"/>
<glyph d="M1136.5 219q11.5 -20 11.5 -38q0 -20 -18 -46q-21 -30 -68.5 -67t-123.5 -65t-171 -28q-98 0 -186.5 35.5t-148.5 126.5t-60 246v371h-275q-13 0 -21.5 8.5t-8.5 21.5v166q0 14 8.5 22t21.5 8h275v280q0 14 8.5 22t21.5 8h222q14 0 22 -8t8 -22v-280h391q14 0 22 -8 t8 -22v-166q0 -13 -8 -21.5t-22 -8.5h-391v-330q0 -109 49 -153.5t121 -44.5q56 0 98.5 20t78.5 50q19 16 31 16q11 0 26 -10.5t39 -34.5q28 -28 39.5 -48zM982 -180q12 0 19.5 -7.5t7.5 -19.5v-91q0 -130 -10.5 -242t-29.5 -183q-5 -20 -33 -20h-142q-29 0 -26 29 q15 163 15 289v34h-236q-12 0 -19.5 7.5t-7.5 19.5v157q0 12 7.5 19.5t19.5 7.5h435z" glyph-name="uni021B" unicode="ț" vert-adv-y="1980"/>
<glyph d="M1065 990q14 0 22 -8t8 -22v-930q0 -13 -8 -21.5t-22 -8.5h-214q-13 0 -21 8t-9 22l-8 144h-35q-38 -85 -111.5 -139.5t-183.5 -54.5q-104 0 -182.5 51t-122 146t-43.5 225v558q0 14 8.5 22t21.5 8h222q14 0 22 -8t8 -22v-504q0 -101 51.5 -158t146.5 -57q96 0 147 57 t51 158v504q0 14 8.5 22t21.5 8h222z" glyph-name="u" unicode="u" vert-adv-y="1980"/>
<glyph d="M1065 990q14 0 22 -8t8 -22v-930q0 -13 -8 -21.5t-22 -8.5h-214q-13 0 -21 8t-9 22l-8 144h-35q-38 -85 -111.5 -139.5t-183.5 -54.5q-104 0 -182.5 51t-122 146t-43.5 225v558q0 14 8.5 22t21.5 8h222q14 0 22 -8t8 -22v-504q0 -101 51.5 -158t146.5 -57q96 0 147 57 t51 158v504q0 14 8.5 22t21.5 8h222zM523 1200q-13 0 -20.5 5t-7.5 15q0 4 4 14l120 252q6 13 14 18.5t20 5.5h198q13 0 20.5 -5t7.5 -15q0 -4 -4 -14l-120 -252q-6 -13 -14 -18.5t-20 -5.5h-198z" glyph-name="uacute" unicode="ú" vert-adv-y="1980"/>
<glyph d="M1065 990q14 0 22 -8t8 -22v-930q0 -13 -8 -21.5t-22 -8.5h-214q-13 0 -21 8t-9 22l-8 144h-35q-38 -85 -111.5 -139.5t-183.5 -54.5q-104 0 -182.5 51t-122 146t-43.5 225v558q0 14 8.5 22t21.5 8h222q14 0 22 -8t8 -22v-504q0 -101 51.5 -158t146.5 -57q96 0 147 57 t51 158v504q0 14 8.5 22t21.5 8h222zM443.5 1225q-73.5 39 -115.5 105t-50 148q-2 15 6 23.5t24 8.5h120q25 0 32 -30q11 -47 52 -81.5t103 -34.5t103 34.5t52 81.5q7 30 32 30h120q16 0 24 -8.5t6 -23.5q-8 -82 -50 -148t-115.5 -105t-171.5 -39t-171.5 39z" glyph-name="ubreve" unicode="ŭ" vert-adv-y="1980"/>
<glyph d="M1065 990q14 0 22 -8t8 -22v-930q0 -13 -8 -21.5t-22 -8.5h-214q-13 0 -21 8t-9 22l-8 144h-35q-38 -85 -111.5 -139.5t-183.5 -54.5q-104 0 -182.5 51t-122 146t-43.5 225v558q0 14 8.5 22t21.5 8h222q14 0 22 -8t8 -22v-504q0 -101 51.5 -158t146.5 -57q96 0 147 57 t51 158v504q0 14 8.5 22t21.5 8h222zM467 1191q-11 0 -19 3t-17 13l-224 267q-8 9 -8 19q0 8 7 12.5t19 4.5h223q23 0 36 -16l131 -151l131 151q13 16 36 16h223q12 0 19 -4.5t7 -12.5q0 -10 -8 -19l-224 -267q-9 -10 -17 -13t-19 -3h-296z" glyph-name="uni01D4" unicode="ǔ" vert-adv-y="1980"/>
<glyph d="M1065 990q14 0 22 -8t8 -22v-930q0 -13 -8 -21.5t-22 -8.5h-214q-13 0 -21 8t-9 22l-8 144h-35q-38 -85 -111.5 -139.5t-183.5 -54.5q-104 0 -182.5 51t-122 146t-43.5 225v558q0 14 8.5 22t21.5 8h222q14 0 22 -8t8 -22v-504q0 -101 51.5 -158t146.5 -57q96 0 147 57 t51 158v504q0 14 8.5 22t21.5 8h222zM225 1191q-12 0 -19 4.5t-7 12.5q0 10 8 19l224 267q9 10 17 13t19 3h296q11 0 19 -3t17 -13l224 -267q8 -9 8 -19q0 -8 -7 -12.5t-19 -4.5h-223q-23 0 -36 16l-131 151l-131 -151q-13 -16 -36 -16h-223z" glyph-name="ucircumflex" unicode="û" vert-adv-y="1980"/>
<glyph d="M1065 990q14 0 22 -8t8 -22v-930q0 -13 -8 -21.5t-22 -8.5h-214q-13 0 -21 8t-9 22l-8 144h-35q-38 -85 -111.5 -139.5t-183.5 -54.5q-104 0 -182.5 51t-122 146t-43.5 225v558q0 14 8.5 22t21.5 8h222q14 0 22 -8t8 -22v-504q0 -101 51.5 -158t146.5 -57q96 0 147 57 t51 158v504q0 14 8.5 22t21.5 8h222zM323 1245q-32 19 -51 51.5t-19 72.5q0 39 19 71t51 51t70 19t70.5 -19t51.5 -51t19 -71q0 -40 -19 -72.5t-51.5 -51.5t-70.5 -19t-70 19zM766 1245q-32 19 -51 51.5t-19 72.5q0 39 19 71t51 51t70 19t70.5 -19t51.5 -51t19 -71 q0 -40 -19 -72.5t-51.5 -51.5t-70.5 -19t-70 19z" glyph-name="udieresis" unicode="ü" vert-adv-y="1980"/>
<glyph d="M1065 990q14 0 22 -8t8 -22v-930q0 -13 -8 -21.5t-22 -8.5h-214q-13 0 -21 8t-9 22l-8 144h-35q-38 -85 -111.5 -139.5t-183.5 -54.5q-104 0 -182.5 51t-122 146t-43.5 225v558q0 14 8.5 22t21.5 8h222q14 0 22 -8t8 -22v-504q0 -101 51.5 -158t146.5 -57q96 0 147 57 t51 158v504q0 14 8.5 22t21.5 8h222zM511 1200q-12 0 -20 5.5t-14 18.5l-120 252q-4 10 -4 14q0 10 7.5 15t20.5 5h198q12 0 20 -5.5t14 -18.5l120 -252q4 -10 4 -14q0 -10 -7.5 -15t-20.5 -5h-198z" glyph-name="ugrave" unicode="ù" vert-adv-y="1980"/>
<glyph d="M1065 990q14 0 22 -8t8 -22v-930q0 -13 -8 -21.5t-22 -8.5h-214q-13 0 -21 8t-9 22l-8 144h-35q-38 -85 -111.5 -139.5t-183.5 -54.5q-104 0 -182.5 51t-122 146t-43.5 225v558q0 14 8.5 22t21.5 8h222q14 0 22 -8t8 -22v-504q0 -101 51.5 -158t146.5 -57q96 0 147 57 t51 158v504q0 14 8.5 22t21.5 8h222zM707 1200q-13 0 -20.5 5t-7.5 15q0 4 4 14l120 252q6 13 14 18.5t20 5.5h198q13 0 20.5 -5t7.5 -15q0 -4 -4 -14l-120 -252q-6 -13 -14 -18.5t-20 -5.5h-198zM329 1200q-13 0 -20.5 5t-7.5 15q0 4 4 14l120 252q6 13 14 18.5t20 5.5h198 q13 0 20.5 -5t7.5 -15q0 -4 -4 -14l-120 -252q-6 -13 -14 -18.5t-20 -5.5h-198z" glyph-name="uhungarumlaut" unicode="ű" vert-adv-y="1980"/>
<glyph d="M1065 990q14 0 22 -8t8 -22v-930q0 -13 -8 -21.5t-22 -8.5h-214q-13 0 -21 8t-9 22l-8 144h-35q-38 -85 -111.5 -139.5t-183.5 -54.5q-104 0 -182.5 51t-122 146t-43.5 225v558q0 14 8.5 22t21.5 8h222q14 0 22 -8t8 -22v-504q0 -101 51.5 -158t146.5 -57q96 0 147 57 t51 158v504q0 14 8.5 22t21.5 8h222zM343 1292q-13 0 -21.5 8.5t-8.5 21.5v158q0 14 8.5 22t21.5 8h544q14 0 22 -8t8 -22v-158q0 -13 -8 -21.5t-22 -8.5h-544z" glyph-name="umacron" unicode="ū" vert-adv-y="1980"/>
<glyph d="M1080 -201q20 0 20 -20v-131q0 -20 -20 -20h-61q-129 0 -219.5 52.5t-90.5 177.5q0 131 111 192l-7 124h-35q-38 -85 -111.5 -139.5t-183.5 -54.5q-104 0 -182.5 51t-122 146t-43.5 225v558q0 14 8.5 22t21.5 8h222q14 0 22 -8t8 -22v-504q0 -101 51.5 -158t146.5 -57 q96 0 147 57t51 158v504q0 14 8.5 22t21.5 8h222q14 0 22 -8t8 -22v-930q0 -13 -8 -21.5t-22 -8.5h-1q-78 0 -116.5 -29t-38.5 -74q0 -43 34 -70.5t95 -27.5h42z" glyph-name="uogonek" unicode="ų" vert-adv-y="1980"/>
<glyph d="M1065 990q14 0 22 -8t8 -22v-930q0 -13 -8 -21.5t-22 -8.5h-214q-13 0 -21 8t-9 22l-8 144h-35q-38 -85 -111.5 -139.5t-183.5 -54.5q-104 0 -182.5 51t-122 146t-43.5 225v558q0 14 8.5 22t21.5 8h222q14 0 22 -8t8 -22v-504q0 -101 51.5 -158t146.5 -57q96 0 147 57 t51 158v504q0 14 8.5 22t21.5 8h222zM510.5 1130.5q-47.5 27.5 -75 74t-27.5 100.5q0 55 27.5 102.5t75 75t104.5 27.5t104 -27.5t74 -75t27 -102.5q0 -54 -27 -100.5t-74 -74t-104 -27.5t-104.5 27.5zM658 1264.5q18 15.5 18 40.5q0 27 -17.5 44t-43.5 17t-43 -16t-17 -42 q0 -27 16.5 -43t43.5 -16q25 0 43 15.5z" glyph-name="uring" unicode="ů" vert-adv-y="1980"/>
<glyph d="M852 966q4 12 14 18t22 6h222q27 0 27 -20q0 -6 -3 -14l-370 -932q-4 -12 -14 -18t-22 -6h-225q-13 0 -22.5 6t-13.5 18l-370 932q-3 8 -3 14q0 20 27 20h221q13 0 22.5 -6t13.5 -18l237 -646z" glyph-name="v" unicode="v" vert-adv-y="1980"/>
<glyph d="M1141 990q25 0 25 -23q0 -7 -1 -11l-167 -932q-2 -11 -12.5 -17.5t-23.5 -6.5h-210q-13 0 -23.5 6.5t-12.5 17.5l-101 571l-101 -571q-2 -11 -12.5 -17.5t-23.5 -6.5h-210q-13 0 -23.5 6.5t-12.5 17.5l-167 932q-1 4 -1 11q0 23 25 23h181q13 0 24 -6.5t12 -17.5l84 -637 l121 627q2 11 12.5 17.5t23.5 6.5h136q13 0 23.5 -6.5t12.5 -17.5l121 -627l84 637q1 11 12 17.5t24 6.5h181z" glyph-name="w" unicode="w" vert-adv-y="1980"/>
<glyph d="M1141 990q25 0 25 -23q0 -7 -1 -11l-167 -932q-2 -11 -12.5 -17.5t-23.5 -6.5h-210q-13 0 -23.5 6.5t-12.5 17.5l-101 571l-101 -571q-2 -11 -12.5 -17.5t-23.5 -6.5h-210q-13 0 -23.5 6.5t-12.5 17.5l-167 932q-1 4 -1 11q0 23 25 23h181q13 0 24 -6.5t12 -17.5l84 -637 l121 627q2 11 12.5 17.5t23.5 6.5h136q13 0 23.5 -6.5t12.5 -17.5l121 -627l84 637q1 11 12 17.5t24 6.5h181zM521 1200q-13 0 -20.5 5t-7.5 15q0 4 4 14l120 252q6 13 14 18.5t20 5.5h198q13 0 20.5 -5t7.5 -15q0 -4 -4 -14l-120 -252q-6 -13 -14 -18.5t-20 -5.5h-198z" glyph-name="wacute" unicode="ẃ" vert-adv-y="1980"/>
<glyph d="M1141 990q25 0 25 -23q0 -7 -1 -11l-167 -932q-2 -11 -12.5 -17.5t-23.5 -6.5h-210q-13 0 -23.5 6.5t-12.5 17.5l-101 571l-101 -571q-2 -11 -12.5 -17.5t-23.5 -6.5h-210q-13 0 -23.5 6.5t-12.5 17.5l-167 932q-1 4 -1 11q0 23 25 23h181q13 0 24 -6.5t12 -17.5l84 -637 l121 627q2 11 12.5 17.5t23.5 6.5h136q13 0 23.5 -6.5t12.5 -17.5l121 -627l84 637q1 11 12 17.5t24 6.5h181zM223 1191q-12 0 -19 4.5t-7 12.5q0 10 8 19l224 267q9 10 17 13t19 3h296q11 0 19 -3t17 -13l224 -267q8 -9 8 -19q0 -8 -7 -12.5t-19 -4.5h-223q-23 0 -36 16 l-131 151l-131 -151q-13 -16 -36 -16h-223z" glyph-name="wcircumflex" unicode="ŵ" vert-adv-y="1980"/>
<glyph d="M1141 990q25 0 25 -23q0 -7 -1 -11l-167 -932q-2 -11 -12.5 -17.5t-23.5 -6.5h-210q-13 0 -23.5 6.5t-12.5 17.5l-101 571l-101 -571q-2 -11 -12.5 -17.5t-23.5 -6.5h-210q-13 0 -23.5 6.5t-12.5 17.5l-167 932q-1 4 -1 11q0 23 25 23h181q13 0 24 -6.5t12 -17.5l84 -637 l121 627q2 11 12.5 17.5t23.5 6.5h136q13 0 23.5 -6.5t12.5 -17.5l121 -627l84 637q1 11 12 17.5t24 6.5h181zM321 1245q-32 19 -51 51.5t-19 72.5q0 39 19 71t51 51t70 19t70.5 -19t51.5 -51t19 -71q0 -40 -19 -72.5t-51.5 -51.5t-70.5 -19t-70 19zM764 1245 q-32 19 -51 51.5t-19 72.5q0 39 19 71t51 51t70 19t70.5 -19t51.5 -51t19 -71q0 -40 -19 -72.5t-51.5 -51.5t-70.5 -19t-70 19z" glyph-name="wdieresis" unicode="ẅ" vert-adv-y="1980"/>
<glyph d="M1141 990q25 0 25 -23q0 -7 -1 -11l-167 -932q-2 -11 -12.5 -17.5t-23.5 -6.5h-210q-13 0 -23.5 6.5t-12.5 17.5l-101 571l-101 -571q-2 -11 -12.5 -17.5t-23.5 -6.5h-210q-13 0 -23.5 6.5t-12.5 17.5l-167 932q-1 4 -1 11q0 23 25 23h181q13 0 24 -6.5t12 -17.5l84 -637 l121 627q2 11 12.5 17.5t23.5 6.5h136q13 0 23.5 -6.5t12.5 -17.5l121 -627l84 637q1 11 12 17.5t24 6.5h181zM509 1200q-12 0 -20 5.5t-14 18.5l-120 252q-4 10 -4 14q0 10 7.5 15t20.5 5h198q12 0 20 -5.5t14 -18.5l120 -252q4 -10 4 -14q0 -10 -7.5 -15t-20.5 -5h-198z " glyph-name="wgrave" unicode="ẁ" vert-adv-y="1980"/>
<glyph d="M1149 36q8 -11 8 -18q0 -8 -7 -13t-19 -5h-252q-13 0 -20.5 3.5t-15.5 14.5l-228 299l-227 -299q-9 -11 -16.5 -14.5t-19.5 -3.5h-253q-12 0 -19 5t-7 13q0 7 8 18l378 478l-347 440q-8 11 -8 18q0 8 7 13t19 5h250q12 0 20 -4t16 -14l199 -262l199 262q8 10 16 14t20 4 h251q12 0 18.5 -5t6.5 -13t-7 -18l-346 -440z" glyph-name="x" unicode="x" vert-adv-y="1980"/>
<glyph d="M1110 990q27 0 27 -20q0 -6 -3 -14l-513 -1312q-4 -12 -13.5 -18t-22.5 -6h-221q-27 0 -27 20q0 6 3 14l136 343l-379 959q-3 8 -3 14q0 20 27 20h221q13 0 22.5 -6t13.5 -18l237 -646l237 646q4 12 14 18t22 6h222z" glyph-name="y" unicode="y" vert-adv-y="1980"/>
<glyph d="M1110 990q27 0 27 -20q0 -6 -3 -14l-513 -1312q-4 -12 -13.5 -18t-22.5 -6h-221q-27 0 -27 20q0 6 3 14l136 343l-379 959q-3 8 -3 14q0 20 27 20h221q13 0 22.5 -6t13.5 -18l237 -646l237 646q4 12 14 18t22 6h222zM523 1200q-13 0 -20.5 5t-7.5 15q0 4 4 14l120 252 q6 13 14 18.5t20 5.5h198q13 0 20.5 -5t7.5 -15q0 -4 -4 -14l-120 -252q-6 -13 -14 -18.5t-20 -5.5h-198z" glyph-name="yacute" unicode="ý" vert-adv-y="1980"/>
<glyph d="M1110 990q27 0 27 -20q0 -6 -3 -14l-513 -1312q-4 -12 -13.5 -18t-22.5 -6h-221q-27 0 -27 20q0 6 3 14l136 343l-379 959q-3 8 -3 14q0 20 27 20h221q13 0 22.5 -6t13.5 -18l237 -646l237 646q4 12 14 18t22 6h222zM225 1191q-12 0 -19 4.5t-7 12.5q0 10 8 19l224 267 q9 10 17 13t19 3h296q11 0 19 -3t17 -13l224 -267q8 -9 8 -19q0 -8 -7 -12.5t-19 -4.5h-223q-23 0 -36 16l-131 151l-131 -151q-13 -16 -36 -16h-223z" glyph-name="ycircumflex" unicode="ŷ" vert-adv-y="1980"/>
<glyph d="M1110 990q27 0 27 -20q0 -6 -3 -14l-513 -1312q-4 -12 -13.5 -18t-22.5 -6h-221q-27 0 -27 20q0 6 3 14l136 343l-379 959q-3 8 -3 14q0 20 27 20h221q13 0 22.5 -6t13.5 -18l237 -646l237 646q4 12 14 18t22 6h222zM323 1245q-32 19 -51 51.5t-19 72.5q0 39 19 71t51 51 t70 19t70.5 -19t51.5 -51t19 -71q0 -40 -19 -72.5t-51.5 -51.5t-70.5 -19t-70 19zM766 1245q-32 19 -51 51.5t-19 72.5q0 39 19 71t51 51t70 19t70.5 -19t51.5 -51t19 -71q0 -40 -19 -72.5t-51.5 -51.5t-70.5 -19t-70 19z" glyph-name="ydieresis" unicode="ÿ" vert-adv-y="1980"/>
<glyph d="M1110 990q27 0 27 -20q0 -6 -3 -14l-513 -1312q-4 -12 -13.5 -18t-22.5 -6h-221q-27 0 -27 20q0 6 3 14l136 343l-379 959q-3 8 -3 14q0 20 27 20h221q13 0 22.5 -6t13.5 -18l237 -646l237 646q4 12 14 18t22 6h222zM511 1200q-12 0 -20 5.5t-14 18.5l-120 252 q-4 10 -4 14q0 10 7.5 15t20.5 5h198q12 0 20 -5.5t14 -18.5l120 -252q4 -10 4 -14q0 -10 -7.5 -15t-20.5 -5h-198z" glyph-name="ygrave" unicode="ỳ" vert-adv-y="1980"/>
<glyph d="M1052 783q0 -24 -14 -38l-529 -516h518q14 0 22 -8t8 -22v-169q0 -13 -8 -21.5t-22 -8.5h-824q-13 0 -21.5 8.5t-8.5 21.5v177q0 24 14 38l529 516h-518q-13 0 -21.5 8.5t-8.5 21.5v169q0 14 8.5 22t21.5 8h824q14 0 22 -8t8 -22v-177z" glyph-name="z" unicode="z" vert-adv-y="1980"/>
<glyph d="M1052 783q0 -24 -14 -38l-529 -516h518q14 0 22 -8t8 -22v-169q0 -13 -8 -21.5t-22 -8.5h-824q-13 0 -21.5 8.5t-8.5 21.5v177q0 24 14 38l529 516h-518q-13 0 -21.5 8.5t-8.5 21.5v169q0 14 8.5 22t21.5 8h824q14 0 22 -8t8 -22v-177zM523 1200q-13 0 -20.5 5t-7.5 15 q0 4 4 14l120 252q6 13 14 18.5t20 5.5h198q13 0 20.5 -5t7.5 -15q0 -4 -4 -14l-120 -252q-6 -13 -14 -18.5t-20 -5.5h-198z" glyph-name="zacute" unicode="ź" vert-adv-y="1980"/>
<glyph d="M1052 783q0 -24 -14 -38l-529 -516h518q14 0 22 -8t8 -22v-169q0 -13 -8 -21.5t-22 -8.5h-824q-13 0 -21.5 8.5t-8.5 21.5v177q0 24 14 38l529 516h-518q-13 0 -21.5 8.5t-8.5 21.5v169q0 14 8.5 22t21.5 8h824q14 0 22 -8t8 -22v-177zM467 1191q-11 0 -19 3t-17 13 l-224 267q-8 9 -8 19q0 8 7 12.5t19 4.5h223q23 0 36 -16l131 -151l131 151q13 16 36 16h223q12 0 19 -4.5t7 -12.5q0 -10 -8 -19l-224 -267q-9 -10 -17 -13t-19 -3h-296z" glyph-name="zcaron" unicode="ž" vert-adv-y="1980"/>
<glyph d="M1052 783q0 -24 -14 -38l-529 -516h518q14 0 22 -8t8 -22v-169q0 -13 -8 -21.5t-22 -8.5h-824q-13 0 -21.5 8.5t-8.5 21.5v177q0 24 14 38l529 516h-518q-13 0 -21.5 8.5t-8.5 21.5v169q0 14 8.5 22t21.5 8h824q14 0 22 -8t8 -22v-177zM544.5 1245q-32.5 19 -51.5 51.5 t-19 72.5q0 39 19 71t51.5 51t70.5 19t70.5 -19t51.5 -51t19 -71q0 -40 -19 -72.5t-51.5 -51.5t-70.5 -19t-70.5 19z" glyph-name="zdotaccent" unicode="ż" vert-adv-y="1980"/>
<glyph d="M287.5 38q-82.5 63 -126 174.5t-43.5 254.5q0 155 56.5 277t179 194t312.5 72q230 0 446 -102v-878q0 -13 -8 -21.5t-22 -8.5h-193q-25 0 -30 30l-32 168h-40q-38 -99 -114 -161t-190 -62q-113 0 -195.5 63zM778.5 292.5q60.5 60.5 60.5 175.5v252q-92 32 -186 32 q-133 0 -196.5 -72.5t-63.5 -197.5q0 -121 58 -185.5t165 -64.5q102 0 162.5 60.5z" glyph-name="a.ss01" vert-adv-y="1980"/>
<glyph d="M1133 990q14 0 22 -8t8 -22v-126q0 -30 -30 -29l-125 9q28 -44 39.5 -85.5t11.5 -88.5q0 -147 -92 -221t-288 -74h-259q-44 0 -67.5 -22t-23.5 -61q0 -42 30 -63t102 -21h361q300 0 300 -268q0 -114 -49.5 -179.5t-160.5 -95t-303 -29.5q-186 0 -300.5 29.5t-167.5 88.5 t-53 149q0 87 43.5 143t118.5 70q-66 16 -102.5 55t-36.5 115q0 66 34 107t115 61q-122 73 -122 253q0 105 43.5 173.5t144.5 104t270 35.5h537zM732 549.5q47 13.5 65 40.5t18 73t-18 73t-65 40t-136 13q-87 0 -133 -13t-63.5 -40t-17.5 -73t17.5 -73t63.5 -40.5t133 -13.5 q89 0 136 13.5zM366 -19q-20 -26 -20 -70q0 -41 25 -64t81 -32.5t157 -9.5q99 0 155 9.5t80 32t24 61.5q0 27 -10.5 42.5t-38.5 23t-81 7.5h-372z" glyph-name="g.ss02" vert-adv-y="1980"/>
<glyph d="M1133 990q14 0 22 -8t8 -22v-126q0 -30 -30 -29l-125 9q28 -44 39.5 -85.5t11.5 -88.5q0 -147 -92 -221t-288 -74h-259q-44 0 -67.5 -22t-23.5 -61q0 -42 30 -63t102 -21h361q300 0 300 -268q0 -114 -49.5 -179.5t-160.5 -95t-303 -29.5q-186 0 -300.5 29.5t-167.5 88.5 t-53 149q0 87 43.5 143t118.5 70q-66 16 -102.5 55t-36.5 115q0 66 34 107t115 61q-122 73 -122 253q0 105 43.5 173.5t144.5 104t270 35.5h537zM732 549.5q47 13.5 65 40.5t18 73t-18 73t-65 40t-136 13q-87 0 -133 -13t-63.5 -40t-17.5 -73t17.5 -73t63.5 -40.5t133 -13.5 q89 0 136 13.5zM366 -19q-20 -26 -20 -70q0 -41 25 -64t81 -32.5t157 -9.5q99 0 155 9.5t80 32t24 61.5q0 27 -10.5 42.5t-38.5 23t-81 7.5h-372zM443.5 1225q-73.5 39 -115.5 105t-50 148q-2 15 6 23.5t24 8.5h120q25 0 32 -30q11 -47 52 -81.5t103 -34.5t103 34.5t52 81.5 q7 30 32 30h120q16 0 24 -8.5t6 -23.5q-8 -82 -50 -148t-115.5 -105t-171.5 -39t-171.5 39z" glyph-name="gbreve.ss02" vert-adv-y="1980"/>
<glyph d="M404 1214q-12 0 -19.5 7.5t-7.5 19.5v91q0 130 10.5 242t29.5 183q5 20 33 20h142q29 0 26 -29q-15 -141 -15 -286v-37h235q13 0 20 -7.5t7 -19.5v-157q0 -12 -7 -19.5t-20 -7.5h-434zM1133 990q14 0 22 -8t8 -22v-126q0 -30 -30 -29l-125 9q28 -44 39.5 -85.5 t11.5 -88.5q0 -147 -92 -221t-288 -74h-259q-44 0 -67.5 -22t-23.5 -61q0 -42 30 -63t102 -21h361q300 0 300 -268q0 -114 -49.5 -179.5t-160.5 -95t-303 -29.5q-186 0 -300.5 29.5t-167.5 88.5t-53 149q0 87 43.5 143t118.5 70q-66 16 -102.5 55t-36.5 115q0 66 34 107 t115 61q-122 73 -122 253q0 105 43.5 173.5t144.5 104t270 35.5h537zM732 549.5q47 13.5 65 40.5t18 73t-18 73t-65 40t-136 13q-87 0 -133 -13t-63.5 -40t-17.5 -73t17.5 -73t63.5 -40.5t133 -13.5q89 0 136 13.5zM366 -19q-20 -26 -20 -70q0 -41 25 -64t81 -32.5t157 -9.5 q99 0 155 9.5t80 32t24 61.5q0 27 -10.5 42.5t-38.5 23t-81 7.5h-372z" glyph-name="uni0123.ss02" vert-adv-y="1980"/>
<glyph d="M1133 990q14 0 22 -8t8 -22v-126q0 -30 -30 -29l-125 9q28 -44 39.5 -85.5t11.5 -88.5q0 -147 -92 -221t-288 -74h-259q-44 0 -67.5 -22t-23.5 -61q0 -42 30 -63t102 -21h361q300 0 300 -268q0 -114 -49.5 -179.5t-160.5 -95t-303 -29.5q-186 0 -300.5 29.5t-167.5 88.5 t-53 149q0 87 43.5 143t118.5 70q-66 16 -102.5 55t-36.5 115q0 66 34 107t115 61q-122 73 -122 253q0 105 43.5 173.5t144.5 104t270 35.5h537zM732 549.5q47 13.5 65 40.5t18 73t-18 73t-65 40t-136 13q-87 0 -133 -13t-63.5 -40t-17.5 -73t17.5 -73t63.5 -40.5t133 -13.5 q89 0 136 13.5zM366 -19q-20 -26 -20 -70q0 -41 25 -64t81 -32.5t157 -9.5q99 0 155 9.5t80 32t24 61.5q0 27 -10.5 42.5t-38.5 23t-81 7.5h-372zM544.5 1245q-32.5 19 -51.5 51.5t-19 72.5q0 39 19 71t51.5 51t70.5 19t70.5 -19t51.5 -51t19 -71q0 -40 -19 -72.5 t-51.5 -51.5t-70.5 -19t-70.5 19z" glyph-name="gdotaccent.ss02" vert-adv-y="1980"/>
<glyph d="M560.5 1219.5q-36.5 21.5 -58 58t-21.5 79.5t21.5 79.5t58 57.5t79.5 21t79 -21t57.5 -57.5t21.5 -79.5t-21.5 -79.5t-57.5 -58t-79 -21.5t-79.5 21.5zM1036 229q14 0 22 -8t8 -22v-169q0 -13 -8 -21.5t-22 -8.5h-852q-13 0 -21.5 8.5t-8.5 21.5v169q0 14 8.5 22t21.5 8 h326v532h-266q-13 0 -21.5 8.5t-8.5 21.5v169q0 14 8.5 22t21.5 8h518q14 0 22 -8t8 -22v-731h244z" glyph-name="i.ss03" vert-adv-y="1980"/>
<glyph d="M1071 229q14 0 22 -8t8 -22v-169q0 -13 -8 -21.5t-22 -8.5h-897q-13 0 -21.5 8.5t-8.5 21.5v169q0 14 8.5 22t21.5 8h316v942h-289q-13 0 -21.5 8.5t-8.5 21.5v169q0 14 8.5 22t21.5 8h541q14 0 22 -8t8 -22v-1141h299z" glyph-name="l.ss03" vert-adv-y="1980"/>
<glyph d="M1136.5 161.5q8.5 -13.5 8.5 -42.5v-39q0 -53 -35.5 -74t-89.5 -21q-84 0 -141 45t-57 135v13h-21q-26 -84 -103.5 -143.5t-209.5 -59.5h-50q-146 0 -232 77t-86 221q0 269 317 289l357 23v48q0 60 -16.5 92.5t-55 46t-108.5 13.5q-89 0 -130.5 -20.5t-49.5 -70.5 q-3 -19 -27 -19h-209q-14 0 -22 7.5t-9 22.5q5 305 455 305q165 0 263 -42t141 -127.5t43 -222.5v-309q0 -40 4 -61.5t11.5 -32.5t21.5 -23q22 -17 30.5 -30.5zM567 187q60 0 112 20t83.5 61t31.5 99v48l-290 -23q-109 -8 -109 -100q0 -105 144 -105h28z" glyph-name="a.ss05" horiz-adv-x="1235" vert-adv-y="1980"/>
<glyph d="M841 340q12 14 24 14q7 0 16 -6l156 -106q15 -10 15 -23q0 -8 -6 -17q-63 -103 -174 -165t-252 -62q-146 0 -265 67t-187 185t-68 266t68 266t187 184.5t265 66.5q141 0 252.5 -62t173.5 -165q6 -9 6 -17q0 -13 -16 -24l-155 -105q-9 -6 -16 -6q-12 0 -24 14 q-82 103 -211 103q-73 0 -131 -32t-91 -90t-33 -133t33 -133.5t91 -90.5t131 -32q129 0 211 103z" glyph-name="c.ss05" horiz-adv-x="1152" vert-adv-y="1980"/>
<glyph d="M1085 455.5q-7 -21.5 -27.5 -33t-60.5 -11.5l-629 1q11 -103 91 -159t205 -56q115 0 215 49q20 10 32 10q13 0 27.5 -10.5t34.5 -36.5q18 -23 26.5 -39t8.5 -30q0 -22 -23 -44q-54 -54 -146 -87.5t-207 -33.5q-159 0 -279.5 65.5t-186.5 183t-66 270.5q0 151 64 268 t180 182.5t267 65.5q148 0 257 -63t166.5 -175.5t57.5 -256.5q0 -38 -7 -59.5zM457.5 727.5q-60.5 -44.5 -79.5 -131.5h464q-15 89 -76 132.5t-156 43.5q-92 0 -152.5 -44.5z" glyph-name="e.ss05" horiz-adv-x="1193" vert-adv-y="1980"/>
<glyph d="M485.5 1229.5q-36.5 21.5 -57.5 58t-21 79.5t21 79.5t57.5 57.5t79.5 21t79.5 -21t58 -57.5t21.5 -79.5t-21.5 -79.5t-58 -58t-79.5 -21.5t-79.5 21.5zM1008 229q14 0 22 -8t8 -22v-169q0 -13 -8 -21.5t-22 -8.5h-261q-151 0 -231 84t-80 238v439h-296q-13 0 -21.5 8.5 t-8.5 21.5v169q0 14 8.5 22t21.5 8h548q14 0 22 -8t8 -22v-584q0 -75 35 -111t110 -36h145z" glyph-name="i.ss05" horiz-adv-x="1148" vert-adv-y="1980"/>
<glyph d="M758 0q-159 0 -245.5 90t-86.5 252v829h-321q-13 0 -21.5 8.5t-8.5 21.5v169q0 14 8.5 22t21.5 8h573q14 0 22 -8t8 -22v-985q0 -75 39.5 -115.5t114.5 -40.5h160q14 0 22 -8t8 -22v-169q0 -13 -8 -21.5t-22 -8.5h-264z" glyph-name="l.ss05" horiz-adv-x="1177" vert-adv-y="1980"/>
<glyph d="M1529.5 961q77.5 -51 120.5 -146.5t43 -224.5v-560q0 -13 -8 -21.5t-22 -8.5h-222q-13 0 -21.5 8.5t-8.5 21.5v506q0 100 -45.5 157.5t-126.5 57.5t-126 -57.5t-45 -157.5v-506q0 -13 -8 -21.5t-22 -8.5h-222q-13 0 -21.5 8.5t-8.5 21.5v506q0 100 -45.5 157.5 t-127.5 57.5q-81 0 -126 -57.5t-45 -157.5v-506q0 -13 -8 -21.5t-22 -8.5h-222q-13 0 -21.5 8.5t-8.5 21.5v930q0 14 8.5 22t21.5 8h214q13 0 21 -8t9 -22l8 -142h32q29 83 100 138.5t175 55.5q96 0 168 -50.5t111 -143.5h32q29 86 107 140t184 54q101 0 178.5 -51z" glyph-name="m.ss05" horiz-adv-x="1853" vert-adv-y="1980"/>
<glyph d="M349.5 43q-116.5 68 -183 186.5t-66.5 263.5t66.5 263.5t183 186t262.5 67.5t263 -67.5t183 -186t66 -263.5t-66 -263.5t-183 -186.5t-263 -68t-262.5 68zM734 269.5q54 32.5 84.5 90.5t30.5 133t-30.5 133t-84.5 90t-122 32t-122 -32t-84.5 -90t-30.5 -133t30.5 -133 t84.5 -90.5t122 -32.5t122 32.5z" glyph-name="o.ss05" horiz-adv-x="1224" vert-adv-y="1980"/>
<glyph d="M1609 990q26 0 26 -21q0 -3 -2 -13l-265 -932q-4 -12 -13.5 -18t-22.5 -6h-227q-13 0 -22.5 6t-13.5 18l-196 707l-197 -707q-4 -12 -13.5 -18t-22.5 -6h-227q-13 0 -22.5 6t-13.5 18l-265 932q-2 10 -2 13q0 21 26 21h201q11 0 17 -5.5t10 -18.5l185 -609l166 609 q4 13 10 18.5t17 5.5h261q11 0 17 -5.5t10 -18.5l166 -609l185 609q4 13 10 18.5t17 5.5h201z" glyph-name="w.ss05" horiz-adv-x="1745" vert-adv-y="1980"/>
<glyph d="M960 1400q20 0 20 -20v-677q0 -21 -20 -21h-137q-20 0 -24 17l-12 51q-87 -68 -199 -68q-94 0 -172 48.5t-122.5 132t-44.5 183.5t44.5 183.5t122 132t172.5 48.5q111 0 199 -67l11 41q4 16 24 16h138zM711 901q38 21 60 59t22 86t-22 86.5t-60 60t-85 21.5t-85.5 -21.5 t-60.5 -60t-22 -86.5t22 -86t60.5 -59t85.5 -21t85 21z" glyph-name="ordfeminine" unicode="ª" vert-adv-y="1980"/>
<glyph d="M432.5 731q-83.5 49 -132.5 132.5t-49 182.5t49 182.5t132.5 132.5t182.5 49t182.5 -49t132.5 -132.5t49 -182.5t-49 -182.5t-132.5 -132.5t-182.5 -49t-182.5 49zM699.5 902q38.5 22 61 60t22.5 84t-22.5 84.5t-61 61t-84.5 22.5t-84 -22.5t-60 -61t-22 -84.5t22 -84 t60 -60t84 -22t84.5 22z" glyph-name="ordmasculine" unicode="º" vert-adv-y="1980"/>
<glyph d="M828.5 1389.5q62.5 -32.5 100.5 -99.5t38 -166v-426q0 -16 -15 -16h-163q-15 0 -15 16v376q0 84 -42 131t-111 47q-47 0 -84.5 -22.5t-59 -63t-21.5 -92.5v-377q0 -15 -15 -15h-163q-15 0 -15 15v688q0 15 15 15h163q7 0 11 -4t4 -11v-98h11q29 57 87 96t139 39 q73 0 135.5 -32.5z" glyph-name="uni207F" unicode="ⁿ" vert-adv-y="1980"/>
<glyph d="M1164 34q2 -8 2 -11q0 -23 -26 -23h-236q-29 0 -34 24l-52 222h-406l-52 -222q-5 -24 -34 -24h-236q-26 0 -26 23q0 3 2 11l333 1282q3 12 12 18t22 6h364q12 0 21.5 -6t12.5 -18zM599 1037l-128 -543h288l-128 543h-32z" glyph-name="uni0410" unicode="А" vert-adv-y="1980"/>
<glyph d="M636 913q258 0 378 -117t120 -339q0 -225 -119.5 -341t-378.5 -116h-474q-13 0 -21.5 8.5t-8.5 21.5v1280q0 14 8.5 22t21.5 8h743q14 0 22 -8t8 -22v-198q0 -13 -8 -21.5t-22 -8.5h-481v-169h212zM624 258q117 0 173.5 44t56.5 155q0 109 -57 153.5t-173 44.5h-200v-397 h200z" glyph-name="uni0411" unicode="Б" vert-adv-y="1980"/>
<glyph d="M148 0q-13 0 -21.5 8.5t-8.5 21.5v1280q0 14 8.5 22t21.5 8h505q210 0 308.5 -91t98.5 -240q0 -107 -53.5 -182t-168.5 -98v-20q150 -20 222.5 -105.5t72.5 -228.5q0 -183 -118.5 -279t-382.5 -96h-484zM626 823q90 0 125.5 31.5t35.5 102.5q0 47 -15 74t-50 39t-96 12 h-216v-259h216zM642 258q107 0 153 39t46 123q0 83 -46.5 122.5t-152.5 39.5h-232v-324h232z" glyph-name="uni0412" unicode="В" vert-adv-y="1980"/>
<glyph d="M1078 1332q8 -8 8 -22v-198q0 -13 -8 -21.5t-22 -8.5h-600v-1052q0 -13 -8 -21.5t-22 -8.5h-232q-13 0 -21.5 8.5t-8.5 21.5v1280q0 14 8.5 22t21.5 8h862q14 0 22 -8z" glyph-name="uni0413" unicode="Г" vert-adv-y="1980"/>
<glyph d="M1078 1332q8 -8 8 -22v-198q0 -13 -8 -21.5t-22 -8.5h-600v-1052q0 -13 -8 -21.5t-22 -8.5h-232q-13 0 -21.5 8.5t-8.5 21.5v1280q0 14 8.5 22t21.5 8h862q14 0 22 -8zM523 1550q-13 0 -20.5 5t-7.5 15q0 4 4 14l120 252q6 13 14 18.5t20 5.5h198q13 0 20.5 -5t7.5 -15 q0 -4 -4 -14l-120 -252q-6 -13 -14 -18.5t-20 -5.5h-198z" glyph-name="uni0403" unicode="Ѓ" vert-adv-y="1980"/>
<glyph d="M1056 1502q14 0 22 -8t8 -22v-360q0 -13 -8 -21.5t-22 -8.5h-600v-1052q0 -13 -8 -21.5t-22 -8.5h-232q-13 0 -21.5 8.5t-8.5 21.5v1280q0 14 8.5 22t21.5 8h634v132q0 14 8.5 22t21.5 8h198z" glyph-name="uni0490" unicode="Ґ" vert-adv-y="1980"/>
<glyph d="M1165 258q14 0 22 -8t8 -22v-336q0 -14 -8 -22t-22 -8h-211q-13 0 -21.5 8t-8.5 22v108h-618v-108q0 -14 -8 -22t-22 -8h-211q-13 0 -21.5 8t-8.5 22v336q0 14 8.5 22t21.5 8q83 0 139.5 50.5t56.5 152.5v849q0 14 8.5 22t21.5 8h727q14 0 22 -8t8 -22v-1052h117z M554 462q0 -123 -60 -204h262v824h-202v-620z" glyph-name="uni0414" unicode="Д" vert-adv-y="1980"/>
<glyph d="M184 0q-13 0 -21.5 8.5t-8.5 21.5v1280q0 14 8.5 22t21.5 8h860q14 0 22 -8t8 -22v-198q0 -13 -8 -21.5t-22 -8.5h-598v-281h553q14 0 22 -8t8 -22v-198q0 -13 -8 -21.5t-22 -8.5h-553v-285h600q14 0 22 -8t8 -22v-198q0 -13 -8 -21.5t-22 -8.5h-862z" glyph-name="uni0415" unicode="Е" vert-adv-y="1980"/>
<glyph d="M184 0q-13 0 -21.5 8.5t-8.5 21.5v1280q0 14 8.5 22t21.5 8h860q14 0 22 -8t8 -22v-198q0 -13 -8 -21.5t-22 -8.5h-598v-281h553q14 0 22 -8t8 -22v-198q0 -13 -8 -21.5t-22 -8.5h-553v-285h600q14 0 22 -8t8 -22v-198q0 -13 -8 -21.5t-22 -8.5h-862zM323 1595 q-32 19 -51 51.5t-19 72.5q0 39 19 71t51 51t70 19t70.5 -19t51.5 -51t19 -71q0 -40 -19 -72.5t-51.5 -51.5t-70.5 -19t-70 19zM766 1595q-32 19 -51 51.5t-19 72.5q0 39 19 71t51 51t70 19t70.5 -19t51.5 -51t19 -71q0 -40 -19 -72.5t-51.5 -51.5t-70.5 -19t-70 19z" glyph-name="uni0401" unicode="Ё" vert-adv-y="1980"/>
<glyph d="M1192 36q5 -12 5 -18q0 -18 -23 -18h-204q-30 0 -36 18l-180 469l-12 -23v-434q0 -13 -8 -21.5t-22 -8.5h-193q-13 0 -21.5 8.5t-8.5 21.5v432l-13 25l-180 -469q-6 -18 -36 -18h-204q-23 0 -23 18q0 6 5 18l307 710l-284 558q-6 12 -6 21q0 15 22 15h210q12 0 23 -4 t14 -12l165 -401v387q0 14 8.5 22t21.5 8h193q14 0 22 -8t8 -22v-384l164 398q3 8 14 12t23 4h210q22 0 22 -15q0 -9 -6 -21l-283 -557z" glyph-name="uni0416" unicode="Ж" vert-adv-y="1980"/>
<glyph d="M875 696q132 -41 200.5 -123t68.5 -202q0 -118 -67.5 -208t-189 -139.5t-279.5 -49.5q-156 0 -271 49.5t-177.5 145.5t-62.5 232q0 13 7.5 21t20.5 8h211q34 0 35 -27q5 -94 69 -137.5t165 -43.5q108 0 171.5 47t63.5 131q0 82 -70.5 134.5t-245.5 52.5q-15 0 -22.5 8 t-7.5 21v148q0 29 32 29q169 0 232 47.5t63 116.5q0 77 -60.5 116.5t-149.5 39.5q-94 0 -157.5 -45t-69.5 -137q-1 -26 -35 -26h-211q-13 0 -20.5 7.5t-7.5 20.5q0 137 62.5 233.5t175.5 145.5t264 49q138 0 248 -41.5t172.5 -121t62.5 -189.5q0 -202 -220 -289v-24z" glyph-name="uni0417" unicode="З" vert-adv-y="1980"/>
<glyph d="M1079 1332q8 -8 8 -22v-1280q0 -13 -8 -21.5t-22 -8.5h-201q-13 0 -21.5 8.5t-8.5 21.5v821l-362 -831q-9 -20 -36 -20h-254q-13 0 -21.5 8.5t-8.5 21.5v1280q0 14 8.5 22t21.5 8h200q14 0 22 -8t8 -22v-821l362 831q9 20 36 20h255q14 0 22 -8z" glyph-name="uni0418" unicode="И" vert-adv-y="1980"/>
<glyph d="M443.5 1633q-73.5 39 -115.5 105t-50 148q-2 15 6 23.5t24 8.5h120q25 0 32 -30q11 -47 52 -81.5t103 -34.5t103 34.5t52 81.5q7 30 32 30h120q16 0 24 -8.5t6 -23.5q-8 -82 -50 -148t-115.5 -105t-171.5 -39t-171.5 39zM1079 1332q8 -8 8 -22v-1280q0 -13 -8 -21.5 t-22 -8.5h-201q-13 0 -21.5 8.5t-8.5 21.5v821l-362 -831q-9 -20 -36 -20h-254q-13 0 -21.5 8.5t-8.5 21.5v1280q0 14 8.5 22t21.5 8h200q14 0 22 -8t8 -22v-821l362 831q9 20 36 20h255q14 0 22 -8z" glyph-name="uni0419" unicode="Й" vert-adv-y="1980"/>
<glyph d="M1179 36q7 -10 7 -18t-6.5 -13t-18.5 -5h-254q-12 0 -20.5 4t-15.5 14l-340 494l-137 -178v-304q0 -13 -8 -21.5t-22 -8.5h-232q-13 0 -21.5 8.5t-8.5 21.5v1280q0 14 8.5 22t21.5 8h232q14 0 22 -8t8 -22v-567l420 581q12 16 36 16h277q12 0 18 -4.5t6 -12.5t-8 -19 l-442 -573z" glyph-name="uni041A" unicode="К" vert-adv-y="1980"/>
<glyph d="M1088 1332q8 -8 8 -22v-1280q0 -13 -8 -21.5t-22 -8.5h-232q-13 0 -21.5 8.5t-8.5 21.5v1052h-274v-673q0 -134 -53.5 -228t-148.5 -142t-218 -48q-18 0 -24 15l-70 226q-1 3 -1 7q0 6 4 10t11 5q208 16 208 209v847q0 14 8.5 22t21.5 8h798q14 0 22 -8z" glyph-name="uni041B" unicode="Л" vert-adv-y="1980"/>
<glyph d="M148 0q-13 0 -21.5 8.5t-8.5 21.5v1280q0 14 8.5 22t21.5 8h231q13 0 23.5 -5t12.5 -15l193 -888h14l193 888q2 10 12.5 15t23.5 5h231q14 0 22 -8t8 -22v-1280q0 -13 -8 -21.5t-22 -8.5h-177q-13 0 -21.5 8.5t-8.5 21.5v721h-14l-147 -627q-3 -11 -13 -17.5t-23 -6.5 h-126q-13 0 -23 6.5t-13 17.5l-147 627h-14v-721q0 -13 -8 -21.5t-22 -8.5h-177z" glyph-name="uni041C" unicode="М" vert-adv-y="1980"/>
<glyph d="M1067 1340q14 0 22 -8t8 -22v-1280q0 -13 -8 -21.5t-22 -8.5h-232q-13 0 -21.5 8.5t-8.5 21.5v498h-380v-498q0 -13 -8 -21.5t-22 -8.5h-232q-13 0 -21.5 8.5t-8.5 21.5v1280q0 14 8.5 22t21.5 8h232q14 0 22 -8t8 -22v-524h380v524q0 14 8.5 22t21.5 8h232z" glyph-name="uni041D" unicode="Н" vert-adv-y="1980"/>
<glyph d="M318 43q-112 73 -163.5 225t-51.5 397q0 246 51.5 398t163.5 224.5t297 72.5t297 -72.5t163.5 -224.5t51.5 -398q0 -245 -51.5 -397t-163.5 -225t-297 -73t-297 73zM743 284.5q49 34.5 75 125t26 255.5t-26 255.5t-75 125t-128 34.5t-128 -34.5t-75 -125t-26 -255.5 t26 -255.5t75 -125t128 -34.5t128 34.5z" glyph-name="uni041E" unicode="О" vert-adv-y="1980"/>
<glyph d="M1068 1331q8 -8 8 -22v-1279q0 -13 -8 -21.5t-22 -8.5h-232q-13 0 -21.5 8.5t-8.5 21.5v1051h-338v-1051q0 -13 -8 -21.5t-22 -8.5h-232q-13 0 -21.5 8.5t-8.5 21.5v1279q0 14 8.5 22t21.5 8h862q14 0 22 -8z" glyph-name="uni041F" unicode="П" vert-adv-y="1980"/>
<glyph d="M636 1340q259 0 378.5 -115.5t119.5 -340.5q0 -223 -120 -340t-378 -117h-212v-397q0 -13 -8 -21.5t-22 -8.5h-232q-13 0 -21.5 8.5t-8.5 21.5v1280q0 14 8.5 22t21.5 8h474zM624 685q116 0 173 45t57 154q0 110 -56.5 154t-173.5 44h-200v-397h200z" glyph-name="uni0420" unicode="Р" vert-adv-y="1980"/>
<glyph d="M323 43q-116 73 -168 224.5t-52 397.5t52 398t168 224.5t309 72.5q160 0 266 -50.5t164.5 -167.5t65.5 -312q2 -32 -28 -32h-210q-29 0 -33 26q-11 103 -40.5 159t-75 76.5t-112.5 20.5q-86 0 -138 -34.5t-78.5 -124.5t-26.5 -256t26.5 -256t78.5 -124.5t138 -34.5 q70 0 115.5 18t73.5 62t39 122q4 26 33 26h210q30 0 28 -32q-11 -251 -134.5 -363.5t-361.5 -112.5q-193 0 -309 73z" glyph-name="uni0421" unicode="С" vert-adv-y="1980"/>
<glyph d="M499 0q-13 0 -21.5 8.5t-8.5 21.5v1052h-339q-13 0 -21.5 8.5t-8.5 21.5v198q0 14 8.5 22t21.5 8h970q14 0 22 -8t8 -22v-198q0 -13 -8 -21.5t-22 -8.5h-339v-1052q0 -13 -8 -21.5t-22 -8.5h-232z" glyph-name="uni0422" unicode="Т" vert-adv-y="1980"/>
<glyph d="M1163 1340q12 0 18.5 -5t6.5 -14q0 -7 -5 -17l-668 -1284q-10 -20 -36 -20h-245q-25 0 -25 18q0 6 5 18l244 468l-411 800q-5 10 -5 17q0 9 6.5 14t18.5 5h243q26 0 36 -20l262 -528l276 528q10 20 36 20h243z" glyph-name="uni0423" unicode="У" vert-adv-y="1980"/>
<glyph d="M747 1199q149 0 242 -71.5t134.5 -190t41.5 -267.5t-41.5 -267.5t-134.5 -190t-242 -71.5h-1v-111q0 -13 -8 -21.5t-22 -8.5h-202q-13 0 -21.5 8.5t-8.5 21.5v111h-1q-149 0 -242 71.5t-134.5 190t-41.5 267.5t41.5 267.5t134.5 190t242 71.5h1v111q0 14 8.5 22t21.5 8 h202q14 0 22 -8t8 -22v-111h1zM484 399v542h-1q-60 0 -92 -31.5t-44 -89t-12 -150.5t12 -150.5t44 -89t92 -31.5h1zM747 399q60 0 92 31.5t44 89t12 150.5t-12 150.5t-44 89t-92 31.5h-1v-542h1z" glyph-name="uni0424" unicode="Ф" vert-adv-y="1980"/>
<glyph d="M1145 36q6 -10 6 -18t-6.5 -13t-19.5 -5h-245q-25 0 -36 20l-229 393l-229 -393q-11 -20 -36 -20h-245q-13 0 -19.5 5t-6.5 13t6 18l375 643l-364 625q-6 11 -6 18q0 8 6.5 13t19.5 5h245q25 0 36 -20l218 -374l218 374q11 20 36 20h245q13 0 19.5 -5t6.5 -13 q0 -7 -6 -18l-364 -625z" glyph-name="uni0425" unicode="Х" vert-adv-y="1980"/>
<glyph d="M1119 1340q14 0 22 -8t8 -22v-1280q0 -13 -8 -21.5t-22 -8.5h-232q-13 0 -21.5 8.5t-8.5 21.5v444q-67 -79 -160 -124t-203 -45q-119 0 -212.5 53.5t-147 155.5t-53.5 243v553q0 14 8.5 22t21.5 8h232q14 0 22 -8t8 -22v-490q0 -73 31.5 -124.5t86 -77.5t123.5 -26 t124 26t87 78t32 126v488q0 14 8.5 22t21.5 8h232z" glyph-name="uni0427" unicode="Ч" vert-adv-y="1980"/>
<glyph d="M1167 258q14 0 22 -8t8 -22v-336q0 -14 -8 -22t-22 -8h-211q-13 0 -21.5 8t-8.5 22v108h-744q-13 0 -21.5 8.5t-8.5 21.5v1280q0 14 8.5 22t21.5 8h232q14 0 22 -8t8 -22v-1052h298v1052q0 14 8.5 22t21.5 8h232q14 0 22 -8t8 -22v-1052h133z" glyph-name="uni0426" unicode="Ц" vert-adv-y="1980"/>
<glyph d="M133 0q-13 0 -21.5 8.5t-8.5 21.5v1280q0 14 8.5 22t21.5 8h189q14 0 22 -8t8 -22v-1052h138v1052q0 14 8.5 22t21.5 8h190q14 0 22 -8t8 -22v-1052h138v1052q0 14 8.5 22t21.5 8h189q14 0 22 -8t8 -22v-1280q0 -13 -8 -21.5t-22 -8.5h-964z" glyph-name="uni0428" unicode="Ш" vert-adv-y="1980"/>
<glyph d="M1167 258q14 0 22 -8t8 -22v-336q0 -14 -8 -22t-22 -8h-211q-13 0 -21.5 8t-8.5 22v108h-793q-13 0 -21.5 8.5t-8.5 21.5v1280q0 14 8.5 22t21.5 8h189q14 0 22 -8t8 -22v-1052h118v1052q0 14 8.5 22t21.5 8h190q14 0 22 -8t8 -22v-1052h118v1052q0 14 8.5 22t21.5 8h189 q14 0 22 -8t8 -22v-1052h80z" glyph-name="uni0429" unicode="Щ" vert-adv-y="1980"/>
<glyph d="M162 0q-13 0 -21.5 8.5t-8.5 21.5v1280q0 14 8.5 22t21.5 8h232q14 0 22 -8t8 -22v-397h212q258 0 378 -117t120 -339q0 -225 -119.5 -341t-378.5 -116h-474zM424 655v-397h200q117 0 173.5 44t56.5 155q0 109 -57 153.5t-173 44.5h-200z" glyph-name="uni042C" unicode="Ь" vert-adv-y="1980"/>
<glyph d="M656 930q186 0 293.5 -54.5t152 -156t44.5 -254.5t-44.5 -254.5t-152 -156t-293.5 -54.5h-410q-13 0 -21.5 8.5t-8.5 21.5v1052h-132q-13 0 -21.5 8.5t-8.5 21.5v198q0 14 8.5 22t21.5 8h395q14 0 22 -8t8 -22v-380h147zM635 258q85 0 133.5 16t73 60.5t24.5 130.5 t-24.5 130.5t-73 60.5t-133.5 16h-126v-414h126z" glyph-name="uni042A" unicode="Ъ" vert-adv-y="1980"/>
<glyph d="M71 0q-13 0 -21 8t-8 22v1340q0 14 8 22t21 8h222q14 0 22 -8t8 -22v-440h68q160 0 257 -52.5t139.5 -155t42.5 -257.5t-42.5 -257.5t-139.5 -155t-257 -52.5h-320zM937 0q-13 0 -21.5 8.5t-8.5 21.5v1340q0 14 8.5 22t21.5 8h222q14 0 22 -8t8 -22v-1340q0 -13 -8 -21.5 t-22 -8.5h-222zM323 672v-414h69q59 0 92 14t50 58.5t17 134.5t-17 134.5t-50 58.5t-92 14h-69z" glyph-name="uni042B" unicode="Ы" vert-adv-y="1980"/>
<glyph d="M1120 478q30 0 28 -32q-11 -252 -134.5 -364t-361.5 -112q-193 0 -309 73t-168 224.5t-52 397.5t52 398t168 224.5t309 72.5q160 0 266 -50.5t164.5 -167t65.5 -312.5q2 -32 -28 -32h-210q-29 0 -33 26q-11 103 -40 159t-74.5 76.5t-112.5 20.5q-79 0 -129 -28.5 t-78.5 -102.5t-34.5 -208h330q14 0 22 -8t8 -22v-124q0 -13 -8 -21.5t-22 -8.5h-329q8 -121 37.5 -188t78.5 -93t125 -26q70 0 115.5 18t73 62t38.5 122q4 26 33 26h210z" glyph-name="uni0404" unicode="Є" vert-adv-y="1980"/>
<glyph d="M908 1287.5q116 -72.5 168 -224.5t52 -398t-52 -397.5t-168 -224.5t-309 -73q-238 0 -361.5 112.5t-134.5 363.5q-2 32 28 32h210q29 0 33 -26q11 -78 39 -122t73.5 -62t115.5 -18q76 0 124.5 26t78 93t37.5 188h-328q-13 0 -21.5 8.5t-8.5 21.5v124q0 14 8.5 22t21.5 8 h329q-6 134 -34 208t-78 102.5t-129 28.5q-67 0 -112.5 -20.5t-75 -76.5t-40.5 -159q-4 -26 -33 -26h-210q-30 0 -28 32q7 195 65.5 312t164.5 167.5t266 50.5q193 0 309 -72.5z" glyph-name="uni042D" unicode="Э" vert-adv-y="1980"/>
<glyph d="M160 0q-13 0 -21.5 8.5t-8.5 21.5v198q0 14 8.5 22t21.5 8h309v824h-309q-13 0 -21.5 8.5t-8.5 21.5v198q0 14 8.5 22t21.5 8h911q14 0 22 -8t8 -22v-198q0 -13 -8 -21.5t-22 -8.5h-310v-824h310q14 0 22 -8t8 -22v-198q0 -13 -8 -21.5t-22 -8.5h-911z" glyph-name="uni0406" unicode="І" vert-adv-y="1980"/>
<glyph d="M160 0q-13 0 -21.5 8.5t-8.5 21.5v198q0 14 8.5 22t21.5 8h309v824h-309q-13 0 -21.5 8.5t-8.5 21.5v198q0 14 8.5 22t21.5 8h911q14 0 22 -8t8 -22v-198q0 -13 -8 -21.5t-22 -8.5h-310v-824h310q14 0 22 -8t8 -22v-198q0 -13 -8 -21.5t-22 -8.5h-911zM323 1595 q-32 19 -51 51.5t-19 72.5q0 39 19 71t51 51t70 19t70.5 -19t51.5 -51t19 -71q0 -40 -19 -72.5t-51.5 -51.5t-70.5 -19t-70 19zM766 1595q-32 19 -51 51.5t-19 72.5q0 39 19 71t51 51t70 19t70.5 -19t51.5 -51t19 -71q0 -40 -19 -72.5t-51.5 -51.5t-70.5 -19t-70 19z" glyph-name="uni0407" unicode="Ї" vert-adv-y="1980"/>
<glyph d="M997 1293.5q86 -62.5 127.5 -212.5t41.5 -416q0 -265 -41.5 -415.5t-127.5 -213t-229 -62.5q-136 0 -218 56t-122.5 186t-47.5 358h-77v-544q0 -13 -8 -21.5t-22 -8.5h-190q-12 0 -15.5 7t-3.5 23v1280q0 16 3.5 23t15.5 7h190q14 0 22 -8t8 -22v-511h79q9 211 51 332 t122.5 173t211.5 52q144 0 230 -62.5zM852.5 291q30.5 31 46.5 119t16 255t-16 255t-46.5 119t-79.5 31q-50 0 -80.5 -31t-46.5 -119t-16 -255t16 -255t46.5 -119t80.5 -31q49 0 79.5 31z" glyph-name="uni042E" unicode="Ю" vert-adv-y="1980"/>
<glyph d="M1063 1340q14 0 22 -8t8 -22v-1280q0 -13 -8 -21.5t-22 -8.5h-232q-13 0 -21.5 8.5t-8.5 21.5v397h-212h-3l-201 -404q-6 -12 -14 -17.5t-21 -5.5h-227q-13 0 -20 5.5t-7 14.5q0 7 4 15l220 439q-228 99 -228 410q0 225 119 340.5t378 115.5h474zM801 685v397h-200 q-117 0 -173.5 -44t-56.5 -154q0 -109 57 -154t173 -45h200z" glyph-name="uni042F" unicode="Я" vert-adv-y="1980"/>
<glyph d="M1123.5 161.5q8.5 -13.5 8.5 -42.5v-39q0 -53 -35.5 -74t-89.5 -21q-84 0 -141 45t-57 135v13h-21q-26 -84 -103.5 -143.5t-209.5 -59.5h-50q-146 0 -232 77t-86 221q0 269 317 289l357 23v48q0 60 -16.5 92.5t-55 46t-108.5 13.5q-89 0 -130.5 -20.5t-49.5 -70.5 q-3 -19 -27 -19h-209q-14 0 -22 7.5t-9 22.5q5 305 455 305q165 0 263 -42t141 -127.5t43 -222.5v-309q0 -40 4 -61.5t11.5 -32.5t21.5 -23q22 -17 30.5 -30.5zM554 187q60 0 112 20t83.5 61t31.5 99v48l-290 -23q-109 -8 -109 -100q0 -105 144 -105h28z" glyph-name="uni0430" unicode="а" vert-adv-y="1980"/>
<glyph d="M939.5 944.5q98.5 -68.5 151.5 -186.5t53 -263q0 -147 -53.5 -265.5t-154.5 -187t-238 -68.5q-181 0 -302 129l-6 -73q-2 -14 -9.5 -22t-20.5 -8h-201q-13 0 -21.5 8.5t-8.5 21.5v1009q0 184 84 272.5t255 88.5h220q64 0 90.5 9.5t41.5 30.5h216q-2 -103 -45 -162.5 t-118 -83t-184 -23.5h-145q-75 0 -105 -38t-30 -116v-143h25q35 62 105 100.5t169 38.5q133 0 231.5 -68.5zM812.5 302q59.5 71 59.5 193q0 123 -59.5 192t-168.5 69q-110 0 -171 -69.5t-61 -191.5t61.5 -193t170.5 -71t168.5 71z" glyph-name="uni0431" unicode="б" vert-adv-y="1980"/>
<glyph d="M933 508q109 -15 170 -76t61 -156q0 -136 -122.5 -206t-328.5 -70h-551q-13 0 -21.5 8.5t-8.5 21.5v930q0 14 8.5 22t21.5 8h561q104 0 187.5 -30.5t131.5 -90t48 -143.5q0 -75 -40 -126.5t-117 -71.5v-20zM810.5 740.5q-25.5 20.5 -97.5 20.5h-299v-158h301 q71 0 96 22.5t25 58.5t-25.5 56.5zM755 229q78 0 108.5 23.5t30.5 65.5t-30 65t-107 23h-343v-177h341z" glyph-name="uni0432" unicode="в" vert-adv-y="1980"/>
<glyph d="M1091 982q8 -8 8 -22v-169q0 -13 -8 -21.5t-22 -8.5h-636v-731q0 -13 -8 -21.5t-22 -8.5h-222q-13 0 -21.5 8.5t-8.5 21.5v930q0 14 8.5 22t21.5 8h888q14 0 22 -8z" glyph-name="uni0433" unicode="г" vert-adv-y="1980"/>
<glyph d="M1091 982q8 -8 8 -22v-169q0 -13 -8 -21.5t-22 -8.5h-636v-731q0 -13 -8 -21.5t-22 -8.5h-222q-13 0 -21.5 8.5t-8.5 21.5v930q0 14 8.5 22t21.5 8h888q14 0 22 -8zM523 1200q-13 0 -20.5 5t-7.5 15q0 4 4 14l120 252q6 13 14 18.5t20 5.5h198q13 0 20.5 -5t7.5 -15 q0 -4 -4 -14l-120 -252q-6 -13 -14 -18.5t-20 -5.5h-198z" glyph-name="uni0453" unicode="ѓ" vert-adv-y="1980"/>
<glyph d="M1069 1104q14 0 22 -8t8 -22v-283q0 -13 -8 -21.5t-22 -8.5h-636v-731q0 -13 -8 -21.5t-22 -8.5h-222q-13 0 -21.5 8.5t-8.5 21.5v930q0 14 8.5 22t21.5 8h636v84q0 14 8.5 22t21.5 8h222z" glyph-name="uni0491" unicode="ґ" vert-adv-y="1980"/>
<glyph d="M1156 229q14 0 22 -8t8 -22v-318q0 -14 -8 -22t-22 -8h-201q-13 0 -21.5 8t-8.5 22v119h-620v-119q0 -14 -8 -22t-22 -8h-201q-13 0 -21.5 8t-8.5 22v355q0 17 15 17q53 0 101 22.5t78 69.5t30 116v499q0 14 8.5 22t21.5 8h741q14 0 22 -8t8 -22v-731h87zM539 761v-299 q0 -151 -79 -233h338v532h-259z" glyph-name="uni0434" unicode="д" vert-adv-y="1980"/>
<glyph d="M1104 455.5q-7 -21.5 -27.5 -33t-60.5 -11.5l-629 1q11 -103 91 -159t205 -56q115 0 215 49q20 10 32 10q13 0 27.5 -10.5t34.5 -36.5q18 -23 26.5 -39t8.5 -30q0 -22 -23 -44q-54 -54 -146 -87.5t-207 -33.5q-159 0 -279.5 65.5t-186.5 183t-66 270.5q0 151 64 268 t180 182.5t267 65.5q148 0 257 -63t166.5 -175.5t57.5 -256.5q0 -38 -7 -59.5zM476.5 727.5q-60.5 -44.5 -79.5 -131.5h464q-15 89 -76 132.5t-156 43.5q-92 0 -152.5 -44.5z" glyph-name="uni0435" unicode="е" vert-adv-y="1980"/>
<glyph d="M1104 455.5q-7 -21.5 -27.5 -33t-60.5 -11.5l-629 1q11 -103 91 -159t205 -56q115 0 215 49q20 10 32 10q13 0 27.5 -10.5t34.5 -36.5q18 -23 26.5 -39t8.5 -30q0 -22 -23 -44q-54 -54 -146 -87.5t-207 -33.5q-159 0 -279.5 65.5t-186.5 183t-66 270.5q0 151 64 268 t180 182.5t267 65.5q148 0 257 -63t166.5 -175.5t57.5 -256.5q0 -38 -7 -59.5zM476.5 727.5q-60.5 -44.5 -79.5 -131.5h464q-15 89 -76 132.5t-156 43.5q-92 0 -152.5 -44.5zM304 1245q-32 19 -51 51.5t-19 72.5q0 39 19 71t51 51t70 19t70.5 -19t51.5 -51t19 -71 q0 -40 -19 -72.5t-51.5 -51.5t-70.5 -19t-70 19zM747 1245q-32 19 -51 51.5t-19 72.5q0 39 19 71t51 51t70 19t70.5 -19t51.5 -51t19 -71q0 -40 -19 -72.5t-51.5 -51.5t-70.5 -19t-70 19z" glyph-name="uni0451" unicode="ё" vert-adv-y="1980"/>
<glyph d="M1170 36q6 -10 6 -19q0 -17 -24 -17h-192q-28 0 -36 16l-184 342l-16 -24v-304q0 -13 -8 -21.5t-22 -8.5h-158q-13 0 -21.5 8.5t-8.5 21.5v304l-16 24l-184 -342q-8 -16 -36 -16h-192q-24 0 -24 17q0 9 6 19l296 519l-270 399q-8 11 -8 20q0 16 24 16h206q25 0 36 -20 l162 -281v271q0 14 8.5 22t21.5 8h158q14 0 22 -8t8 -22v-271l162 281q13 20 37 20h205q24 0 24 -16q0 -9 -8 -20l-270 -399z" glyph-name="uni0436" unicode="ж" vert-adv-y="1980"/>
<glyph d="M898 511q95 -30 144 -90.5t49 -144.5q0 -92 -59 -160t-172 -105t-271 -37q-165 0 -276 38t-160 98q-14 17 -14 32t13 28l90 102q9 10 21 10q17 0 33 -13q33 -26 103 -44t178 -18q121 0 192.5 25.5t71.5 80.5q0 48 -75 76.5t-272 28.5q-24 0 -37.5 11.5t-13.5 33.5v93 q0 22 13.5 34t37.5 12q126 0 194 11.5t92.5 31t24.5 47.5q0 90 -208 90q-164 0 -277 -53q-26 -12 -42 -12q-19 0 -31 16l-63 89q-14 21 -14 34t11 25q52 56 159 94t266 38q141 0 243.5 -32.5t157 -93.5t54.5 -144q0 -74 -42.5 -128t-120.5 -83v-21z" glyph-name="uni0437" unicode="з" vert-adv-y="1980"/>
<glyph d="M1071 982q8 -8 8 -22v-930q0 -13 -8 -21.5t-22 -8.5h-222q-13 0 -21.5 8.5t-8.5 21.5v551l-345 -561q-6 -9 -16 -14.5t-22 -5.5h-233q-13 0 -21.5 8.5t-8.5 21.5v930q0 14 8.5 22t21.5 8h222q14 0 22 -8t8 -22v-551l345 561q6 9 16 14.5t22 5.5h233q14 0 22 -8z" glyph-name="uni0438" unicode="и" vert-adv-y="1980"/>
<glyph d="M1071 982q8 -8 8 -22v-930q0 -13 -8 -21.5t-22 -8.5h-222q-13 0 -21.5 8.5t-8.5 21.5v551l-345 -561q-6 -9 -16 -14.5t-22 -5.5h-233q-13 0 -21.5 8.5t-8.5 21.5v930q0 14 8.5 22t21.5 8h222q14 0 22 -8t8 -22v-551l345 561q6 9 16 14.5t22 5.5h233q14 0 22 -8z M443.5 1225q-73.5 39 -115.5 105t-50 148q-2 15 6 23.5t24 8.5h120q25 0 32 -30q11 -47 52 -81.5t103 -34.5t103 34.5t52 81.5q7 30 32 30h120q16 0 24 -8.5t6 -23.5q-8 -82 -50 -148t-115.5 -105t-171.5 -39t-171.5 39z" glyph-name="uni0439" unicode="й" vert-adv-y="1980"/>
<glyph d="M1165 36q9 -10 9 -18t-7 -13t-20 -5h-268q-23 0 -36 16l-311 356l-117 -121v-221q0 -13 -8 -21.5t-22 -8.5h-222q-13 0 -21.5 8.5t-8.5 21.5v930q0 14 8.5 22t21.5 8h222q14 0 22 -8t8 -22v-365l357 379q16 16 38 16h266q12 0 19 -4.5t7 -12.5q0 -9 -10 -19l-383 -398z " glyph-name="uni043A" unicode="к" vert-adv-y="1980"/>
<glyph d="M1129 982q8 -8 8 -22v-930q0 -13 -8 -21.5t-22 -8.5h-222q-13 0 -21.5 8.5t-8.5 21.5v731h-324v-422q0 -189 -115 -269t-327 -80q-19 0 -26.5 4.5t-7.5 15.5v221q0 11 6 17t17 6q82 0 126.5 37t44.5 132v537q0 14 8.5 22t21.5 8h828q14 0 22 -8z" glyph-name="uni043B" unicode="л" vert-adv-y="1980"/>
<glyph d="M1089 982q8 -8 8 -22v-930q0 -13 -8 -21.5t-22 -8.5h-206q-13 0 -21.5 8.5t-8.5 21.5v438l-113 -396q-3 -10 -12.5 -16t-21.5 -6h-138q-12 0 -21.5 6t-12.5 16l-113 396v-438q0 -13 -8 -21.5t-22 -8.5h-206q-13 0 -21.5 8.5t-8.5 21.5v930q0 14 8.5 22t21.5 8h213 q15 0 23 -5t12 -17l204 -646l204 646q4 12 12 17t23 5h213q14 0 22 -8z" glyph-name="uni043C" unicode="м" vert-adv-y="1980"/>
<glyph d="M1049 990q14 0 22 -8t8 -22v-930q0 -13 -8 -21.5t-22 -8.5h-222q-13 0 -21.5 8.5t-8.5 21.5v345h-364v-345q0 -13 -8 -21.5t-22 -8.5h-222q-13 0 -21.5 8.5t-8.5 21.5v930q0 14 8.5 22t21.5 8h222q14 0 22 -8t8 -22v-355h364v355q0 14 8.5 22t21.5 8h222z" glyph-name="uni043D" unicode="н" vert-adv-y="1980"/>
<glyph d="M352.5 43q-116.5 68 -183 186.5t-66.5 263.5t66.5 263.5t183 186t262.5 67.5t263 -67.5t183 -186t66 -263.5t-66 -263.5t-183 -186.5t-263 -68t-262.5 68zM737 269.5q54 32.5 84.5 90.5t30.5 133t-30.5 133t-84.5 90t-122 32t-122 -32t-84.5 -90t-30.5 -133t30.5 -133 t84.5 -90.5t122 -32.5t122 32.5z" glyph-name="uni043E" unicode="о" vert-adv-y="1980"/>
<glyph d="M1071 982q8 -8 8 -22v-930q0 -13 -8 -21.5t-22 -8.5h-222q-13 0 -21.5 8.5t-8.5 21.5v731h-364v-731q0 -13 -8 -21.5t-22 -8.5h-222q-13 0 -21.5 8.5t-8.5 21.5v930q0 14 8.5 22t21.5 8h868q14 0 22 -8z" glyph-name="uni043F" unicode="п" vert-adv-y="1980"/>
<glyph d="M935 943q98 -67 150 -184.5t52 -265.5q0 -147 -52 -265t-150 -185.5t-231 -67.5q-102 0 -171 40t-104 109h-29v-474q0 -14 -8 -22t-22 -8h-216q-13 0 -21.5 8t-8.5 22v1310q0 14 8.5 22t21.5 8h222q14 0 22 -8t8 -22v-87h23q36 62 105 99.5t170 37.5q133 0 231 -67z M751 267q53 31 82 89t29 137t-29 137t-82 88.5t-124 30.5q-106 0 -168.5 -68.5t-62.5 -187.5t62.5 -188t168.5 -69q71 0 124 31z" glyph-name="uni0440" unicode="р" vert-adv-y="1980"/>
<glyph d="M865 340q12 14 24 14q7 0 16 -6l156 -106q15 -10 15 -23q0 -8 -6 -17q-63 -103 -174 -165t-252 -62q-146 0 -265 67t-187 185t-68 266t68 266t187 184.5t265 66.5q141 0 252.5 -62t173.5 -165q6 -9 6 -17q0 -13 -16 -24l-155 -105q-9 -6 -16 -6q-12 0 -24 14 q-82 103 -211 103q-73 0 -131 -32t-91 -90t-33 -133t33 -133.5t91 -90.5t131 -32q129 0 211 103z" glyph-name="uni0441" unicode="с" vert-adv-y="1980"/>
<glyph d="M503 0q-13 0 -21.5 8.5t-8.5 21.5v731h-354q-13 0 -21.5 8.5t-8.5 21.5v169q0 14 8.5 22t21.5 8h992q14 0 22 -8t8 -22v-169q0 -13 -8 -21.5t-22 -8.5h-356v-731q0 -13 -8 -21.5t-22 -8.5h-222z" glyph-name="uni0442" unicode="т" vert-adv-y="1980"/>
<glyph d="M1110 990q27 0 27 -20q0 -6 -3 -14l-513 -1312q-4 -12 -13.5 -18t-22.5 -6h-221q-27 0 -27 20q0 6 3 14l136 343l-379 959q-3 8 -3 14q0 20 27 20h221q13 0 22.5 -6t13.5 -18l237 -646l237 646q4 12 14 18t22 6h222z" glyph-name="uni0443" unicode="у" vert-adv-y="1980"/>
<glyph d="M1055 141.5q-108 -131.5 -310 -162.5v-329q0 -14 -8 -22t-22 -8h-200q-13 0 -21.5 8t-8.5 22v329q-202 31 -310 162.5t-108 349.5t108 349.5t310 162.5v328q0 14 8.5 22t21.5 8h200q14 0 22 -8t8 -22v-328q202 -31 310 -162.5t108 -349.5t-108 -349.5zM745 241 q88 23 125 83.5t37 166.5t-37 166.5t-125 83.5v-500zM360.5 324.5q37.5 -60.5 124.5 -82.5v498q-87 -22 -124.5 -82.5t-37.5 -166.5t37.5 -166.5z" glyph-name="uni0444" unicode="ф" vert-adv-y="1980"/>
<glyph d="M1149 36q8 -11 8 -18q0 -8 -7 -13t-19 -5h-252q-13 0 -20.5 3.5t-15.5 14.5l-228 299l-227 -299q-9 -11 -16.5 -14.5t-19.5 -3.5h-253q-12 0 -19 5t-7 13q0 7 8 18l378 478l-347 440q-8 11 -8 18q0 8 7 13t19 5h250q12 0 20 -4t16 -14l199 -262l199 262q8 10 16 14t20 4 h251q12 0 18.5 -5t6.5 -13t-7 -18l-346 -440z" glyph-name="uni0445" unicode="х" vert-adv-y="1980"/>
<glyph d="M1049 990q14 0 22 -8t8 -22v-930q0 -13 -8 -21.5t-22 -8.5h-222q-13 0 -21.5 8.5t-8.5 21.5v272q-52 -55 -126.5 -88t-163.5 -33q-106 0 -195.5 49t-144 147.5t-54.5 240.5v342q0 14 8.5 22t21.5 8h222q14 0 22 -8t8 -22v-312q0 -101 50 -167.5t148 -66.5q67 0 113 31.5 t68.5 84.5t22.5 118v312q0 14 8.5 22t21.5 8h222z" glyph-name="uni0447" unicode="ч" vert-adv-y="1980"/>
<glyph d="M1167 229q14 0 22 -8t8 -22v-285q0 -14 -8 -22t-22 -8h-212q-13 0 -21.5 8t-8.5 22v86h-744q-13 0 -21.5 8.5t-8.5 21.5v930q0 14 8.5 22t21.5 8h222q14 0 22 -8t8 -22v-731h364v731q0 14 8.5 22t21.5 8h222q14 0 22 -8t8 -22v-731h88z" glyph-name="uni0446" unicode="ц" vert-adv-y="1980"/>
<glyph d="M1066 990q14 0 22 -8t8 -22v-930q0 -13 -8 -21.5t-22 -8.5h-902q-13 0 -21.5 8.5t-8.5 21.5v930q0 14 8.5 22t21.5 8h200q14 0 22 -8t8 -22v-731h103v731q0 14 8.5 22t21.5 8h176q14 0 22 -8t8 -22v-731h103v731q0 14 8.5 22t21.5 8h200z" glyph-name="uni0448" unicode="ш" vert-adv-y="1980"/>
<glyph d="M1167 229q14 0 22 -8t8 -22v-285q0 -14 -8 -22t-22 -8h-212q-13 0 -21.5 8t-8.5 22v86h-761q-13 0 -21.5 8.5t-8.5 21.5v930q0 14 8.5 22t21.5 8h200q14 0 22 -8t8 -22v-731h103v731q0 14 8.5 22t21.5 8h176q14 0 22 -8t8 -22v-731h103v731q0 14 8.5 22t21.5 8h200 q14 0 22 -8t8 -22v-731h71z" glyph-name="uni0449" unicode="щ" vert-adv-y="1980"/>
<glyph d="M696 694q143 0 232.5 -33.5t134 -109.5t44.5 -204t-44.5 -204t-134 -109.5t-232.5 -33.5h-515q-13 0 -21.5 8.5t-8.5 21.5v930q0 14 8.5 22t21.5 8h222q14 0 22 -8t8 -22v-266h263zM700 207q53 0 81.5 12t41 42t12.5 86t-12.5 86t-41 42t-81.5 12h-267v-280h267z" glyph-name="uni044C" unicode="ь" vert-adv-y="1980"/>
<glyph d="M696 694q143 0 232.5 -33.5t134 -109.5t44.5 -204t-44.5 -204t-134 -109.5t-232.5 -33.5h-411q-13 0 -21.5 8.5t-8.5 21.5v731h-141q-13 0 -21.5 8.5t-8.5 21.5v169q0 14 8.5 22t21.5 8h393q14 0 22 -8t8 -22v-266h159zM700 207q53 0 81.5 12t41 42t12.5 86t-12.5 86 t-41 42t-81.5 12h-163v-280h163z" glyph-name="uni044A" unicode="ъ" vert-adv-y="1980"/>
<glyph d="M123 0q-13 0 -21.5 8.5t-8.5 21.5v930q0 14 8.5 22t21.5 8h201q14 0 22 -8t8 -22v-266h82q143 0 222.5 -33t112.5 -107.5t33 -206.5t-33 -206.5t-112.5 -107.5t-222.5 -33h-313zM906 0q-13 0 -21.5 8.5t-8.5 21.5v930q0 14 8.5 22t21.5 8h201q14 0 22 -8t8 -22v-930 q0 -13 -8 -21.5t-22 -8.5h-201zM440 207q42 0 66.5 12.5t36 42.5t11.5 85t-11.5 85t-36 42.5t-66.5 12.5h-86v-280h86z" glyph-name="uni044B" unicode="ы" vert-adv-y="1980"/>
<glyph d="M1061 242q15 -10 15 -23q0 -8 -6 -17q-63 -103 -174 -165t-252 -62q-146 0 -265 67t-187 185t-68 266t68 266t187 184.5t265 66.5q141 0 252.5 -62t173.5 -165q6 -9 6 -17q0 -13 -16 -24l-155 -105q-9 -6 -16 -6q-12 0 -24 14q-82 103 -211 103q-87 0 -152 -45t-90 -123 h287q14 0 22 -8t8 -22v-124q0 -13 -8 -21.5t-22 -8.5h-284q27 -74 91 -116.5t148 -42.5q129 0 211 103q12 14 24 14q7 0 16 -6z" glyph-name="uni0454" unicode="є" vert-adv-y="1980"/>
<glyph d="M867 943.5q119 -66.5 187 -184.5t68 -266t-68 -266t-187 -185t-265 -67q-141 0 -252 62.5t-174 164.5q-6 9 -6 17q0 13 15 23l156 106q9 6 16 6q12 0 24 -14q82 -103 211 -103q84 0 148 42.5t91 116.5h-284q-13 0 -21.5 8.5t-8.5 21.5v124q0 14 8.5 22t21.5 8h287 q-25 78 -90 123t-152 45q-129 0 -211 -103q-12 -14 -24 -14q-7 0 -16 6l-155 105q-16 11 -16 24q0 8 6 17q62 103 173.5 165t252.5 62q146 0 265 -66.5z" glyph-name="uni044D" unicode="э" vert-adv-y="1980"/>
<glyph d="M1052 229q14 0 22 -8t8 -22v-169q0 -13 -8 -21.5t-22 -8.5h-261q-151 0 -231 84t-80 238v439h-296q-13 0 -21.5 8.5t-8.5 21.5v169q0 14 8.5 22t21.5 8h548q14 0 22 -8t8 -22v-584q0 -75 35 -111t110 -36h145zM313 1245q-32 19 -51 51.5t-19 72.5q0 39 19 71t51 51t70 19 t70.5 -19t51.5 -51t19 -71q0 -40 -19 -72.5t-51.5 -51.5t-70.5 -19t-70 19zM756 1245q-32 19 -51 51.5t-19 72.5q0 39 19 71t51 51t70 19t70.5 -19t51.5 -51t19 -71q0 -40 -19 -72.5t-51.5 -51.5t-70.5 -19t-70 19z" glyph-name="uni0457" unicode="ї" vert-adv-y="1980"/>
<glyph d="M1001 946.5q81 -65.5 112.5 -179t31.5 -274.5t-31.5 -274.5t-112.5 -179t-223 -65.5q-180 0 -263.5 104.5t-98.5 294.5h-70v-343q0 -13 -8 -21.5t-22 -8.5h-201q-13 0 -21.5 8.5t-8.5 21.5v930q0 14 8.5 22t21.5 8h201q14 0 22 -8t8 -22v-358h69q15 195 98 302.5 t265 107.5q142 0 223 -65.5zM860 266q28 31 37 85.5t9 141.5t-9 141.5t-37 85.5t-82 31t-82 -31t-37 -85.5t-9 -141.5t9 -141.5t37 -85.5t82 -31t82 31z" glyph-name="uni044E" unicode="ю" vert-adv-y="1980"/>
<glyph d="M1071 982q8 -8 8 -22v-930q0 -13 -8 -21.5t-22 -8.5h-222q-13 0 -21.5 8.5t-8.5 21.5v298h-113l-270 -312q-13 -16 -36 -16h-242q-12 0 -18.5 4.5t-6.5 12.5q0 9 9 19l271 302q-135 24 -207.5 104.5t-72.5 216.5q0 164 105 247.5t296 83.5h537q14 0 22 -8zM527 783 q-71 0 -107.5 -31.5t-36.5 -92.5t36.5 -92.5t107.5 -31.5h270v248h-270z" glyph-name="uni044F" unicode="я" vert-adv-y="1980"/>
<glyph d="M1164 34q2 -8 2 -11q0 -23 -26 -23h-236q-29 0 -34 24l-52 222h-406l-52 -222q-5 -24 -34 -24h-236q-26 0 -26 23q0 3 2 11l333 1282q3 12 12 18t22 6h364q12 0 21.5 -6t12.5 -18zM599 1037l-128 -543h288l-128 543h-32z" glyph-name="Alpha" unicode="Α" vert-adv-y="1980"/>
<glyph d="M148 0q-13 0 -21.5 8.5t-8.5 21.5v1280q0 14 8.5 22t21.5 8h505q210 0 308.5 -91t98.5 -240q0 -107 -53.5 -182t-168.5 -98v-20q150 -20 222.5 -105.5t72.5 -228.5q0 -183 -118.5 -279t-382.5 -96h-484zM626 823q90 0 125.5 31.5t35.5 102.5q0 47 -15 74t-50 39t-96 12 h-216v-259h216zM642 258q107 0 153 39t46 123q0 83 -46.5 122.5t-152.5 39.5h-232v-324h232z" glyph-name="Beta" unicode="Β" vert-adv-y="1980"/>
<glyph d="M1078 1332q8 -8 8 -22v-198q0 -13 -8 -21.5t-22 -8.5h-600v-1052q0 -13 -8 -21.5t-22 -8.5h-232q-13 0 -21.5 8.5t-8.5 21.5v1280q0 14 8.5 22t21.5 8h862q14 0 22 -8z" glyph-name="Gamma" unicode="Γ" vert-adv-y="1980"/>
<glyph d="M1169 34q2 -8 2 -11q0 -23 -26 -23h-1060q-26 0 -26 23q0 3 2 11l338 1282q3 12 12 18t22 6h364q12 0 21.5 -6t12.5 -18zM631 1037h-32l-195 -808h422z" glyph-name="uni0394" unicode="Δ" vert-adv-y="1980"/>
<glyph d="M184 0q-13 0 -21.5 8.5t-8.5 21.5v1280q0 14 8.5 22t21.5 8h860q14 0 22 -8t8 -22v-198q0 -13 -8 -21.5t-22 -8.5h-598v-281h553q14 0 22 -8t8 -22v-198q0 -13 -8 -21.5t-22 -8.5h-553v-285h600q14 0 22 -8t8 -22v-198q0 -13 -8 -21.5t-22 -8.5h-862z" glyph-name="Epsilon" unicode="Ε" vert-adv-y="1980"/>
<glyph d="M154 0q-13 0 -21.5 8.5t-8.5 21.5v208q0 20 12 36l633 808h-595q-13 0 -21.5 8.5t-8.5 21.5v198q0 14 8.5 22t21.5 8h882q14 0 22 -8t8 -22v-208q0 -20 -12 -36l-633 -808h635q14 0 22 -8t8 -22v-198q0 -13 -8 -21.5t-22 -8.5h-922z" glyph-name="Zeta" unicode="Ζ" vert-adv-y="1980"/>
<glyph d="M1067 1340q14 0 22 -8t8 -22v-1280q0 -13 -8 -21.5t-22 -8.5h-232q-13 0 -21.5 8.5t-8.5 21.5v498h-380v-498q0 -13 -8 -21.5t-22 -8.5h-232q-13 0 -21.5 8.5t-8.5 21.5v1280q0 14 8.5 22t21.5 8h232q14 0 22 -8t8 -22v-524h380v524q0 14 8.5 22t21.5 8h232z" glyph-name="Eta" unicode="Η" vert-adv-y="1980"/>
<glyph d="M318 43q-112 73 -163.5 225t-51.5 397q0 246 51.5 398t163.5 224.5t297 72.5t297 -72.5t163.5 -224.5t51.5 -398q0 -245 -51.5 -397t-163.5 -225t-297 -73t-297 73zM743 284.5q49 34.5 75 125t26 255.5t-26 255.5t-75 125t-128 34.5t-128 -34.5t-75 -125t-26 -255.5 t26 -255.5t75 -125t128 -34.5t128 34.5zM470 556q-13 0 -21.5 8.5t-8.5 21.5v158q0 14 8.5 22t21.5 8h290q14 0 22 -8t8 -22v-158q0 -13 -8 -21.5t-22 -8.5h-290z" glyph-name="Theta" unicode="Θ" vert-adv-y="1980"/>
<glyph d="M160 0q-13 0 -21.5 8.5t-8.5 21.5v198q0 14 8.5 22t21.5 8h309v824h-309q-13 0 -21.5 8.5t-8.5 21.5v198q0 14 8.5 22t21.5 8h911q14 0 22 -8t8 -22v-198q0 -13 -8 -21.5t-22 -8.5h-310v-824h310q14 0 22 -8t8 -22v-198q0 -13 -8 -21.5t-22 -8.5h-911z" glyph-name="Iota" unicode="Ι" vert-adv-y="1980"/>
<glyph d="M1179 36q7 -10 7 -18t-6.5 -13t-18.5 -5h-254q-12 0 -20.5 4t-15.5 14l-340 494l-137 -178v-304q0 -13 -8 -21.5t-22 -8.5h-232q-13 0 -21.5 8.5t-8.5 21.5v1280q0 14 8.5 22t21.5 8h232q14 0 22 -8t8 -22v-567l420 581q12 16 36 16h277q12 0 18 -4.5t6 -12.5t-8 -19 l-442 -573z" glyph-name="Kappa" unicode="Κ" vert-adv-y="1980"/>
<glyph d="M797 1340q12 0 21.5 -6t12.5 -18l338 -1282q2 -8 2 -11q0 -23 -26 -23h-236q-29 0 -34 24l-244 1013h-32l-244 -1013q-5 -24 -34 -24h-236q-26 0 -26 23q0 3 2 11l338 1282q3 12 12 18t22 6h364z" glyph-name="Lambda" unicode="Λ" vert-adv-y="1980"/>
<glyph d="M148 0q-13 0 -21.5 8.5t-8.5 21.5v1280q0 14 8.5 22t21.5 8h231q13 0 23.5 -5t12.5 -15l193 -888h14l193 888q2 10 12.5 15t23.5 5h231q14 0 22 -8t8 -22v-1280q0 -13 -8 -21.5t-22 -8.5h-177q-13 0 -21.5 8.5t-8.5 21.5v721h-14l-147 -627q-3 -11 -13 -17.5t-23 -6.5 h-126q-13 0 -23 6.5t-13 17.5l-147 627h-14v-721q0 -13 -8 -21.5t-22 -8.5h-177z" glyph-name="Mu" unicode="Μ" vert-adv-y="1980"/>
<glyph d="M1057 1340q14 0 22 -8t8 -22v-1280q0 -13 -8 -21.5t-22 -8.5h-255q-27 0 -36 20l-362 831v-821q0 -13 -8 -21.5t-22 -8.5h-200q-13 0 -21.5 8.5t-8.5 21.5v1280q0 14 8.5 22t21.5 8h254q27 0 36 -20l362 -831v821q0 14 8.5 22t21.5 8h201z" glyph-name="Nu" unicode="Ν" vert-adv-y="1980"/>
<glyph d="M147 1082q-13 0 -21.5 8.5t-8.5 21.5v198q0 14 8.5 22t21.5 8h936q14 0 22 -8t8 -22v-198q0 -13 -8 -21.5t-22 -8.5h-936zM197 552q-13 0 -21.5 8.5t-8.5 21.5v198q0 14 8.5 22t21.5 8h836q14 0 22 -8t8 -22v-198q0 -13 -8 -21.5t-22 -8.5h-836zM145 0q-13 0 -21.5 8.5 t-8.5 21.5v198q0 14 8.5 22t21.5 8h940q14 0 22 -8t8 -22v-198q0 -13 -8 -21.5t-22 -8.5h-940z" glyph-name="Xi" unicode="Ξ" vert-adv-y="1980"/>
<glyph d="M318 43q-112 73 -163.5 225t-51.5 397q0 246 51.5 398t163.5 224.5t297 72.5t297 -72.5t163.5 -224.5t51.5 -398q0 -245 -51.5 -397t-163.5 -225t-297 -73t-297 73zM743 284.5q49 34.5 75 125t26 255.5t-26 255.5t-75 125t-128 34.5t-128 -34.5t-75 -125t-26 -255.5 t26 -255.5t75 -125t128 -34.5t128 34.5z" glyph-name="Omicron" unicode="Ο" vert-adv-y="1980"/>
<glyph d="M1068 1331q8 -8 8 -22v-1279q0 -13 -8 -21.5t-22 -8.5h-232q-13 0 -21.5 8.5t-8.5 21.5v1051h-338v-1051q0 -13 -8 -21.5t-22 -8.5h-232q-13 0 -21.5 8.5t-8.5 21.5v1279q0 14 8.5 22t21.5 8h862q14 0 22 -8z" glyph-name="Pi" unicode="Π" vert-adv-y="1980"/>
<glyph d="M636 1340q259 0 378.5 -115.5t119.5 -340.5q0 -223 -120 -340t-378 -117h-212v-397q0 -13 -8 -21.5t-22 -8.5h-232q-13 0 -21.5 8.5t-8.5 21.5v1280q0 14 8.5 22t21.5 8h474zM624 685q116 0 173 45t57 154q0 110 -56.5 154t-173.5 44h-200v-397h200z" glyph-name="Rho" unicode="Ρ" vert-adv-y="1980"/>
<glyph d="M174 0q-13 0 -21.5 8.5t-8.5 21.5v208q0 23 12 36l341 396l-341 396q-12 15 -12 36v208q0 14 8.5 22t21.5 8h882q14 0 22 -8t8 -22v-198q0 -13 -8 -21.5t-22 -8.5h-595l348 -412l-348 -412h595q14 0 22 -8t8 -22v-198q0 -13 -8 -21.5t-22 -8.5h-882z" glyph-name="Sigma" unicode="Σ" vert-adv-y="1980"/>
<glyph d="M499 0q-13 0 -21.5 8.5t-8.5 21.5v1052h-339q-13 0 -21.5 8.5t-8.5 21.5v198q0 14 8.5 22t21.5 8h970q14 0 22 -8t8 -22v-198q0 -13 -8 -21.5t-22 -8.5h-339v-1052q0 -13 -8 -21.5t-22 -8.5h-232z" glyph-name="Tau" unicode="Τ" vert-adv-y="1980"/>
<glyph d="M1146 1340q13 0 19.5 -5t6.5 -13q0 -7 -6 -18l-405 -787v-487q0 -13 -8 -21.5t-22 -8.5h-232q-13 0 -21.5 8.5t-8.5 21.5v491l-405 783q-6 11 -6 18q0 8 6.5 13t19.5 5h245q26 0 36 -20l250 -524l250 524q10 20 36 20h245z" glyph-name="Upsilon" unicode="Υ" vert-adv-y="1980"/>
<glyph d="M747 1199q149 0 242 -71.5t134.5 -190t41.5 -267.5t-41.5 -267.5t-134.5 -190t-242 -71.5h-1v-111q0 -13 -8 -21.5t-22 -8.5h-202q-13 0 -21.5 8.5t-8.5 21.5v111h-1q-149 0 -242 71.5t-134.5 190t-41.5 267.5t41.5 267.5t134.5 190t242 71.5h1v111q0 14 8.5 22t21.5 8 h202q14 0 22 -8t8 -22v-111h1zM484 399v542h-1q-60 0 -92 -31.5t-44 -89t-12 -150.5t12 -150.5t44 -89t92 -31.5h1zM747 399q60 0 92 31.5t44 89t12 150.5t-12 150.5t-44 89t-92 31.5h-1v-542h1z" glyph-name="Phi" unicode="Φ" vert-adv-y="1980"/>
<glyph d="M1145 36q6 -10 6 -18t-6.5 -13t-19.5 -5h-245q-25 0 -36 20l-229 393l-229 -393q-11 -20 -36 -20h-245q-13 0 -19.5 5t-6.5 13t6 18l375 643l-364 625q-6 11 -6 18q0 8 6.5 13t19.5 5h245q25 0 36 -20l218 -374l218 374q11 20 36 20h245q13 0 19.5 -5t6.5 -13 q0 -7 -6 -18l-364 -625z" glyph-name="Chi" unicode="Χ" vert-adv-y="1980"/>
<glyph d="M1149 1340q14 0 22 -8t8 -22v-486q0 -165 -50 -266t-141.5 -149.5t-226.5 -62.5v-316q0 -13 -8 -21.5t-22 -8.5h-232q-13 0 -21.5 8.5t-8.5 21.5v316q-135 14 -226.5 62.5t-141 149.5t-49.5 266v486q0 14 8 22t22 8h232q14 0 22 -8t8 -22v-490q0 -66 11.5 -104t38 -57 t75.5 -26v677q0 14 8.5 22t21.5 8h232q14 0 22 -8t8 -22v-677q49 7 75.5 26t38 57t11.5 104v490q0 14 8.5 22t21.5 8h233z" glyph-name="Psi" unicode="Ψ" vert-adv-y="1980"/>
<glyph d="M123 0q-14 0 -22 8t-8 23v167q0 14 8 22.5t22 8.5h164v31q-101 55 -147.5 181.5t-46.5 317.5q0 306 125 453.5t397 147.5t397 -147.5t125 -453.5q0 -191 -46.5 -317.5t-147.5 -181.5v-31h164q14 0 22.5 -8.5t8.5 -22.5v-167q0 -15 -8.5 -23t-22.5 -8h-411q-31 0 -31 31 v340q62 19 102.5 56t63.5 113.5t23 204.5q0 94 -17 166t-70 120t-152 48t-152 -48t-70 -120t-17 -166q0 -128 23 -204.5t63.5 -113.5t102.5 -56v-340q0 -31 -31 -31h-411z" glyph-name="uni03A9" unicode="Ω" vert-adv-y="1980"/>
<glyph d="M1164 34q2 -8 2 -11q0 -23 -26 -23h-236q-29 0 -34 24l-52 222h-406l-52 -222q-5 -24 -34 -24h-236q-26 0 -26 23q0 3 2 11l333 1282q3 12 12 18t22 6h364q12 0 21.5 -6t12.5 -18zM599 1037l-128 -543h288l-128 543h-32zM-46 1030q-13 0 -20.5 5t-7.5 15q0 4 4 14 l120 252q6 13 14 18.5t20 5.5h198q13 0 20.5 -5t7.5 -15q0 -4 -4 -14l-120 -252q-6 -13 -14 -18.5t-20 -5.5h-198z" glyph-name="Alphatonos" unicode="Ά" vert-adv-y="1980"/>
<glyph d="M184 0q-13 0 -21.5 8.5t-8.5 21.5v1280q0 14 8.5 22t21.5 8h860q14 0 22 -8t8 -22v-198q0 -13 -8 -21.5t-22 -8.5h-598v-281h553q14 0 22 -8t8 -22v-198q0 -13 -8 -21.5t-22 -8.5h-553v-285h600q14 0 22 -8t8 -22v-198q0 -13 -8 -21.5t-22 -8.5h-862zM-288 1030 q-13 0 -20.5 5t-7.5 15q0 4 4 14l120 252q6 13 14 18.5t20 5.5h198q13 0 20.5 -5t7.5 -15q0 -4 -4 -14l-120 -252q-6 -13 -14 -18.5t-20 -5.5h-198z" glyph-name="Epsilontonos" unicode="Έ" vert-adv-y="1980"/>
<glyph d="M1067 1340q14 0 22 -8t8 -22v-1280q0 -13 -8 -21.5t-22 -8.5h-232q-13 0 -21.5 8.5t-8.5 21.5v498h-380v-498q0 -13 -8 -21.5t-22 -8.5h-232q-13 0 -21.5 8.5t-8.5 21.5v1280q0 14 8.5 22t21.5 8h232q14 0 22 -8t8 -22v-524h380v524q0 14 8.5 22t21.5 8h232zM-309 1030 q-13 0 -20.5 5t-7.5 15q0 4 4 14l120 252q6 13 14 18.5t20 5.5h198q13 0 20.5 -5t7.5 -15q0 -4 -4 -14l-120 -252q-6 -13 -14 -18.5t-20 -5.5h-198z" glyph-name="Etatonos" unicode="Ή" vert-adv-y="1980"/>
<glyph d="M160 0q-13 0 -21.5 8.5t-8.5 21.5v198q0 14 8.5 22t21.5 8h309v824h-309q-13 0 -21.5 8.5t-8.5 21.5v198q0 14 8.5 22t21.5 8h911q14 0 22 -8t8 -22v-198q0 -13 -8 -21.5t-22 -8.5h-310v-824h310q14 0 22 -8t8 -22v-198q0 -13 -8 -21.5t-22 -8.5h-911zM-308 1030 q-13 0 -20.5 5t-7.5 15q0 4 4 14l120 252q6 13 14 18.5t20 5.5h198q13 0 20.5 -5t7.5 -15q0 -4 -4 -14l-120 -252q-6 -13 -14 -18.5t-20 -5.5h-198z" glyph-name="Iotatonos" unicode="Ί" vert-adv-y="1980"/>
<glyph d="M318 43q-112 73 -163.5 225t-51.5 397q0 246 51.5 398t163.5 224.5t297 72.5t297 -72.5t163.5 -224.5t51.5 -398q0 -245 -51.5 -397t-163.5 -225t-297 -73t-297 73zM743 284.5q49 34.5 75 125t26 255.5t-26 255.5t-75 125t-128 34.5t-128 -34.5t-75 -125t-26 -255.5 t26 -255.5t75 -125t128 -34.5t128 34.5zM-215 1030q-13 0 -20.5 5t-7.5 15q0 4 4 14l120 252q6 13 14 18.5t20 5.5h198q13 0 20.5 -5t7.5 -15q0 -4 -4 -14l-120 -252q-6 -13 -14 -18.5t-20 -5.5h-198z" glyph-name="Omicrontonos" unicode="Ό" vert-adv-y="1980"/>
<glyph d="M1146 1340q13 0 19.5 -5t6.5 -13q0 -7 -6 -18l-405 -787v-487q0 -13 -8 -21.5t-22 -8.5h-232q-13 0 -21.5 8.5t-8.5 21.5v491l-405 783q-6 11 -6 18q0 8 6.5 13t19.5 5h245q26 0 36 -20l250 -524l250 524q10 20 36 20h245zM-376 1030q-13 0 -20.5 5t-7.5 15q0 4 4 14 l120 252q6 13 14 18.5t20 5.5h198q13 0 20.5 -5t7.5 -15q0 -4 -4 -14l-120 -252q-6 -13 -14 -18.5t-20 -5.5h-198z" glyph-name="Upsilontonos" unicode="Ύ" vert-adv-y="1980"/>
<glyph d="M123 0q-14 0 -22 8t-8 23v167q0 14 8 22.5t22 8.5h164v31q-101 55 -147.5 181.5t-46.5 317.5q0 306 125 453.5t397 147.5t397 -147.5t125 -453.5q0 -191 -46.5 -317.5t-147.5 -181.5v-31h164q14 0 22.5 -8.5t8.5 -22.5v-167q0 -15 -8.5 -23t-22.5 -8h-411q-31 0 -31 31 v340q62 19 102.5 56t63.5 113.5t23 204.5q0 94 -17 166t-70 120t-152 48t-152 -48t-70 -120t-17 -166q0 -128 23 -204.5t63.5 -113.5t102.5 -56v-340q0 -31 -31 -31h-411zM-212 1030q-13 0 -20.5 5t-7.5 15q0 4 4 14l120 252q6 13 14 18.5t20 5.5h198q13 0 20.5 -5t7.5 -15 q0 -4 -4 -14l-120 -252q-6 -13 -14 -18.5t-20 -5.5h-198z" glyph-name="Omegatonos" unicode="Ώ" vert-adv-y="1980"/>
<glyph d="M160 0q-13 0 -21.5 8.5t-8.5 21.5v198q0 14 8.5 22t21.5 8h309v824h-309q-13 0 -21.5 8.5t-8.5 21.5v198q0 14 8.5 22t21.5 8h911q14 0 22 -8t8 -22v-198q0 -13 -8 -21.5t-22 -8.5h-310v-824h310q14 0 22 -8t8 -22v-198q0 -13 -8 -21.5t-22 -8.5h-911zM323 1595 q-32 19 -51 51.5t-19 72.5q0 39 19 71t51 51t70 19t70.5 -19t51.5 -51t19 -71q0 -40 -19 -72.5t-51.5 -51.5t-70.5 -19t-70 19zM766 1595q-32 19 -51 51.5t-19 72.5q0 39 19 71t51 51t70 19t70.5 -19t51.5 -51t19 -71q0 -40 -19 -72.5t-51.5 -51.5t-70.5 -19t-70 19z" glyph-name="Iotadieresis" unicode="Ϊ" vert-adv-y="1980"/>
<glyph d="M1146 1340q13 0 19.5 -5t6.5 -13q0 -7 -6 -18l-405 -787v-487q0 -13 -8 -21.5t-22 -8.5h-232q-13 0 -21.5 8.5t-8.5 21.5v491l-405 783q-6 11 -6 18q0 8 6.5 13t19.5 5h245q26 0 36 -20l250 -524l250 524q10 20 36 20h245zM323 1595q-32 19 -51 51.5t-19 72.5q0 39 19 71 t51 51t70 19t70.5 -19t51.5 -51t19 -71q0 -40 -19 -72.5t-51.5 -51.5t-70.5 -19t-70 19zM766 1595q-32 19 -51 51.5t-19 72.5q0 39 19 71t51 51t70 19t70.5 -19t51.5 -51t19 -71q0 -40 -19 -72.5t-51.5 -51.5t-70.5 -19t-70 19z" glyph-name="Upsilondieresis" unicode="Ϋ" vert-adv-y="1980"/>
<glyph d="M1177 15q-1 -146 -69.5 -235.5t-170.5 -127t-214 -37.5q-99 0 -183 26.5t-133.5 65t-49.5 69.5q0 9 4 16l84 139q10 16 25 16q10 0 23 -8q51 -33 96.5 -50.5t107.5 -17.5q73 0 123 25.5t50 66.5q0 20 -15 43q-4 2 -12 10l-311 356l-117 -121v-221q0 -13 -8 -21.5 t-22 -8.5h-222q-13 0 -21.5 8.5t-8.5 21.5v930q0 14 8.5 22t21.5 8h222q14 0 22 -8t8 -22v-365l357 379q16 16 38 16h266q12 0 19 -4.5t7 -12.5q0 -9 -10 -19l-383 -398l456 -520q10 -11 8 -21h4z" glyph-name="uni03CF" unicode="Ϗ" vert-adv-y="1980"/>
<glyph d="M1198 188v-172q0 -42 -109 -42q-97 0 -147.5 57t-59.5 149q-53 -98 -140 -152t-203 -54q-130 0 -231 68t-157 186t-56 265t56 265t157 186t231 68q91 0 164 -33.5t127 -96.5v78q0 14 8.5 22t21.5 8h222q14 0 22 -8t8 -22v-634q0 -55 14.5 -82t50.5 -34q21 -3 21 -22z M717 267.5q53 32.5 83 91t30 134.5t-30 134.5t-83 91t-118 32.5q-66 0 -119 -32.5t-83.5 -91t-30.5 -134.5t30.5 -134.5t83.5 -91t119 -32.5q65 0 118 32.5z" glyph-name="alpha" unicode="α" vert-adv-y="1980"/>
<glyph d="M1041 627.5q88 -80.5 88 -250.5q0 -197 -132 -287t-398 -90h-215v-350q0 -14 -8 -22t-22 -8h-222q-13 0 -21.5 8t-8.5 22v1327q0 140 60.5 235t168.5 141.5t251 46.5q138 0 243.5 -43t164.5 -127t59 -204q0 -93 -35 -159.5t-88.5 -101.5t-110.5 -40q138 -17 226 -97.5z M590 218q138 0 202.5 39t64.5 140q0 74 -34.5 114.5t-98.5 56t-164 15.5h-57q-13 0 -21.5 8.5t-8.5 21.5v158q0 14 8.5 22t21.5 8h57q217 0 217 181q0 84 -48 123.5t-150 39.5q-97 0 -146 -38.5t-49 -129.5v-759h206z" glyph-name="beta" unicode="β" vert-adv-y="1980"/>
<glyph d="M1048.5 321q-67.5 -125 -153 -189.5t-182.5 -110.5h-1v-371q0 -14 -8 -22t-22 -8h-222q-13 0 -21.5 8t-8.5 22v434l-320 872q-3 8 -3 14q0 20 27 20h222q12 0 22 -6t14 -18l249 -700q95 43 146 146.5t51 235.5q0 159 -72 314q-3 8 -3 13q0 15 18 15h240q19 0 25 -15 q70 -162 70 -343q0 -186 -67.5 -311z" glyph-name="gamma" unicode="γ" vert-adv-y="1980"/>
<glyph d="M1073.5 732.5q53.5 -109.5 53.5 -239.5q0 -145 -66 -263.5t-183 -186.5t-263 -68t-262.5 68t-183 186.5t-66.5 263.5q0 114 41.5 212.5t116.5 169.5t175 106q-87 63 -141.5 130t-54.5 156q0 60 28 111t81.5 81.5t125.5 30.5h464q31 0 31 -31v-182q0 -31 -31 -31h-334 q-27 0 -41.5 -10t-14.5 -27q0 -19 19 -36.5t69 -52.5l287 -207q96 -71 149.5 -180.5zM737 269.5q54 32.5 84.5 90.5t30.5 133t-30.5 133t-84.5 90t-122 32t-122 -32t-84.5 -90t-30.5 -133t30.5 -133t84.5 -90.5t122 -32.5t122 32.5z" glyph-name="delta" unicode="δ" vert-adv-y="1980"/>
<glyph d="M310.5 17q-110.5 43 -153 105.5t-42.5 131.5q0 81 52 145t147 95q-87 31 -134.5 94.5t-47.5 142.5q0 69 40.5 132t148 106.5t293.5 43.5q244 0 476 -75q15 -5 15 -25v-210q0 -16 -14 -16q-5 0 -13 3q-232 70 -459 70q-94 0 -144.5 -16.5t-50.5 -62.5q0 -42 45 -63 t130 -21h252q14 0 22 -7.5t8 -20.5v-149q0 -13 -8.5 -21t-21.5 -8h-252q-96 0 -143.5 -18.5t-47.5 -62.5q0 -47 54.5 -65t153.5 -18q230 0 472 70q8 3 14 3q13 0 13 -16v-210q0 -20 -15 -25q-237 -75 -487 -75q-192 0 -302.5 43z" glyph-name="epsilon" unicode="ε" vert-adv-y="1980"/>
<glyph d="M488.5 348.5q36.5 -55.5 90 -86t147.5 -68.5q105 -42 169.5 -81t109 -113.5t44.5 -196.5v-153q0 -14 -8 -22t-22 -8h-222q-13 0 -21.5 8t-8.5 22v68q0 94 -37 152.5t-91.5 90.5t-147.5 70q-102 41 -163.5 79t-104 111t-42.5 192q0 127 52.5 266.5t148 268t219.5 223.5 h-367q-13 0 -21.5 8.5t-8.5 21.5v169q0 14 8.5 22t21.5 8h676q14 0 22 -8t8 -22v-199q-109 -45 -223.5 -159.5t-189.5 -256t-75 -264.5q0 -87 36.5 -142.5z" glyph-name="zeta" unicode="ζ" vert-adv-y="1980"/>
<glyph d="M969.5 961q78.5 -51 122 -146t43.5 -225v-940q0 -14 -8 -22t-22 -8h-222q-13 0 -21.5 8t-8.5 22v886q0 101 -51.5 158t-146.5 57q-96 0 -147 -57t-51 -158v-506q0 -13 -8 -21.5t-22 -8.5h-222q-13 0 -21.5 8.5t-8.5 21.5v630q0 56 -14.5 83t-50.5 33q-20 5 -20 22v172 q0 24 39 33t82 9q105 0 167 -54t76 -140h38q38 85 111.5 139.5t183.5 54.5q104 0 182.5 -51z" glyph-name="eta" unicode="η" vert-adv-y="1980"/>
</font>
</defs>
</svg>
