<?xml version="1.0" encoding="UTF-8"?>
<!DOCTYPE svg  PUBLIC '-//W3C//DTD SVG 1.1//EN'  'http://www.w3.org/Graphics/SVG/1.1/DTD/svg11.dtd'>
<svg version="1.1" xmlns="http://www.w3.org/2000/svg">
<defs>
<font id="CartographCF-ExtraLight" horiz-adv-x="1230" vert-adv-y="2000">
<font-face font-family="Cartograph CF Extra Light" font-weight="200" ascent="1600" bbox="-811 -645 4770 2000" cap-height="1340" descent="-400" panose-1="0 0 3 9 0 0 0 0 0 0" underline-position="-100" underline-thickness="50" unicode-range="U+0020-FFFD" units-per-em="2000" x-height="990"/>
<missing-glyph d="M184 1600h628v-1980h-628v1980zM659 1402v65h-326v-65h128v-73h-130v-66h328v66h-130v73h130zM529 1073v139h-198v-206h328v67h-130zM396 1145h65v-72h-65v72zM659 887v66h-328v-66h130v-73h-130v-65h198v138h130zM659 636v198h-65v-131h-263v-67h328zM659 368v224h-198 v-111h68v46h65v-93h-198v158h-65v-224h328zM659 26v224h-328v-224h328zM396 184h198v-93h-198v93zM659 -85v65h-328v-65h138l-138 -93v-65h328v65h-202l139 93h63z" horiz-adv-x="990" vert-adv-y="1980"/>
<glyph d="M3564 990q26 0 26 -21q0 -3 -2 -13l-254 -932q-3 -11 -13 -17.5t-23 -6.5h-85q-13 0 -23 6.5t-13 17.5l-206 786l-206 -786q-3 -11 -13 -17.5t-23 -6.5h-85q-13 0 -22.5 6t-13.5 18l-200 790l-200 -790q-4 -12 -13.5 -18t-22.5 -6h-85q-13 0 -23 6.5t-13 17.5l-206 786 l-206 -786q-3 -11 -13 -17.5t-23 -6.5h-85q-13 0 -22.5 6t-13.5 18l-200 790l-200 -790q-4 -12 -13.5 -18t-22.5 -6h-85q-13 0 -23 6.5t-13 17.5l-206 786l-206 -786q-3 -11 -13 -17.5t-23 -6.5h-85q-13 0 -23 6.5t-13 17.5l-254 932q-2 10 -2 13q0 21 26 21h67 q13 0 23 -6.5t13 -17.5l208 -833l222 833q3 11 13 17.5t23 6.5h48q13 0 23 -6.5t13 -17.5l221 -833l209 833q3 11 13 17.5t23 6.5h74q13 0 23 -6.5t13 -17.5l209 -833l221 833q3 11 13 17.5t23 6.5h48q13 0 23 -6.5t13 -17.5l222 -833l208 833q3 11 13 17.5t23 6.5h74 q13 0 23 -6.5t13 -17.5l209 -833l222 833q3 11 13 17.5t23 6.5h47q13 0 23 -6.5t13 -17.5l222 -833l208 833q3 11 13 17.5t23 6.5h67z" glyph-name="w_w_w.liga" horiz-adv-x="3690" unicode="www" vert-adv-y="1980"/>
<glyph d="M2880 1136l95 96l565 -565l-565 -565l-95 96l408 400h-3138v138h3138z" glyph-name="hyphen_hyphen_greater.liga" horiz-adv-x="3690" unicode="--&gt;" vert-adv-y="1980"/>
<glyph d="M1650 1136l95 96l565 -565l-565 -565l-95 96l408 400h-1908v138h1908z" glyph-name="hyphen_greater.liga" horiz-adv-x="2460" unicode="-&gt;" vert-adv-y="1980"/>
<glyph d="M2286 1136l94 96l565 -565l-565 -565l-94 96l408 400h-2544v138h2544zM2880 1136l95 96l565 -565l-565 -565l-95 96l478 469z" glyph-name="hyphen_greater_greater.liga" horiz-adv-x="3690" unicode="-&gt;&gt;" vert-adv-y="1980"/>
<glyph d="M2880 1136l95 96l565 -565l-565 -565l-95 96l408 400h-3138v138h3138z" glyph-name="endash_endash_greater.liga" horiz-adv-x="3690" unicode="––&gt;" vert-adv-y="1980"/>
<glyph d="M1650 1136l95 96l565 -565l-565 -565l-95 96l408 400h-1908v138h1908z" glyph-name="endash_greater.liga" horiz-adv-x="2460" unicode="–&gt;" vert-adv-y="1980"/>
<glyph d="M2286 1136l94 96l565 -565l-565 -565l-94 96l408 400h-2544v138h2544zM2880 1136l95 96l565 -565l-565 -565l-95 96l478 469z" glyph-name="endash_greater_greater.liga" horiz-adv-x="3690" unicode="–&gt;&gt;" vert-adv-y="1980"/>
<glyph d="M542 517q-40 23 -62.5 63t-22.5 88t22.5 88t62.5 63t89 23t88.5 -23t62.5 -63t23 -88t-23 -88t-62.5 -63t-88.5 -23t-89 23zM2173 722q14 0 22 -8t8 -22v-50q0 -13 -8 -21.5t-22 -8.5h-940q-13 0 -21.5 8.5t-8.5 21.5v50q0 14 8.5 22t21.5 8h940z" glyph-name="period_hyphen.liga" horiz-adv-x="2460" unicode=".-" vert-adv-y="1980"/>
<glyph d="M542 517q-40 23 -62.5 63t-22.5 88t22.5 88t62.5 63t89 23t88.5 -23t62.5 -63t23 -88t-23 -88t-62.5 -63t-88.5 -23t-89 23zM2173 722q14 0 22 -8t8 -22v-50q0 -13 -8 -21.5t-22 -8.5h-940q-13 0 -21.5 8.5t-8.5 21.5v50q0 14 8.5 22t21.5 8h940z" glyph-name="period_endash.liga" horiz-adv-x="2460" unicode=".–" vert-adv-y="1980"/>
<glyph d="M1331 806q-13 0 -21.5 8.5t-8.5 21.5v52q0 14 8.5 22t21.5 8h842q14 0 22 -8t8 -22v-52q0 -13 -8 -21.5t-22 -8.5h-842zM542 517q-40 23 -62.5 63t-22.5 88t22.5 88t62.5 63t89 23t88.5 -23t62.5 -63t23 -88t-23 -88t-62.5 -63t-88.5 -23t-89 23zM1331 417 q-13 0 -21.5 8.5t-8.5 21.5v52q0 14 8.5 22t21.5 8h842q14 0 22 -8t8 -22v-52q0 -13 -8 -21.5t-22 -8.5h-842z" glyph-name="period_equal.liga" horiz-adv-x="2460" unicode=".=" vert-adv-y="1980"/>
<glyph d="M1594.5 -5q-36.5 21 -57 57t-20.5 80t20.5 80t57 57t80.5 21t80.5 -21t57 -57t20.5 -80t-20.5 -80t-57 -57t-80.5 -21t-80.5 21zM1594.5 718q-36.5 21 -57 57t-20.5 80t20.5 80t57 57t80.5 21t80.5 -21t57 -57t20.5 -80t-20.5 -80t-57 -57t-80.5 -21t-80.5 21zM704.5 -5 q-36.5 21 -57 57t-20.5 80t20.5 80t57 57t80.5 21t80.5 -21t57 -57t20.5 -80t-20.5 -80t-57 -57t-80.5 -21t-80.5 21zM704.5 718q-36.5 21 -57 57t-20.5 80t20.5 80t57 57t80.5 21t80.5 -21t57 -57t20.5 -80t-20.5 -80t-57 -57t-80.5 -21t-80.5 21z" glyph-name="colon_colon.liga" horiz-adv-x="2460" unicode="::" vert-adv-y="1980"/>
<glyph d="M1764.5 -5q-36.5 21 -57 57t-20.5 80t20.5 80t57 57t80.5 21t80.5 -21t57 -57t20.5 -80t-20.5 -80t-57 -57t-80.5 -21t-80.5 21zM1764.5 718q-36.5 21 -57 57t-20.5 80t20.5 80t57 57t80.5 21t80.5 -21t57 -57t20.5 -80t-20.5 -80t-57 -57t-80.5 -21t-80.5 21zM2794.5 -5 q-36.5 21 -57 57t-20.5 80t20.5 80t57 57t80.5 21t80.5 -21t57 -57t20.5 -80t-20.5 -80t-57 -57t-80.5 -21t-80.5 21zM2794.5 718q-36.5 21 -57 57t-20.5 80t20.5 80t57 57t80.5 21t80.5 -21t57 -57t20.5 -80t-20.5 -80t-57 -57t-80.5 -21t-80.5 21zM734.5 -5 q-36.5 21 -57 57t-20.5 80t20.5 80t57 57t80.5 21t80.5 -21t57 -57t20.5 -80t-20.5 -80t-57 -57t-80.5 -21t-80.5 21zM734.5 718q-36.5 21 -57 57t-20.5 80t20.5 80t57 57t80.5 21t80.5 -21t57 -57t20.5 -80t-20.5 -80t-57 -57t-80.5 -21t-80.5 21z" glyph-name="colon_colon_colon.liga" horiz-adv-x="3690" unicode=":::" vert-adv-y="1980"/>
<glyph d="M1838 120q14 0 22 -8t8 -22v-29q0 -225 -18 -427q-1 -24 -31 -24h-61q-15 0 -21.5 7.5t-5.5 24.5q6 160 6 297v61h-235q-13 0 -21.5 8.5t-8.5 21.5v60q0 14 8.5 22t21.5 8h336zM1596.5 718q-36.5 21 -57 57t-20.5 80t20.5 80t57 57t80.5 21t80.5 -21t57 -57t20.5 -80 t-20.5 -80t-57 -57t-80.5 -21t-80.5 21zM944 120q14 0 22 -8t8 -22v-29q0 -225 -18 -427q-1 -24 -31 -24h-61q-15 0 -21.5 7.5t-5.5 24.5q6 160 6 297v61h-235q-13 0 -21.5 8.5t-8.5 21.5v60q0 14 8.5 22t21.5 8h336zM702.5 718q-36.5 21 -57 57t-20.5 80t20.5 80t57 57 t80.5 21t80.5 -21t57 -57t20.5 -80t-20.5 -80t-57 -57t-80.5 -21t-80.5 21z" glyph-name="semicolon_semicolon.liga" horiz-adv-x="2460" unicode=";;" vert-adv-y="1980"/>
<glyph d="M1355 806l-123 -277h1034q14 0 22 -8t8 -22v-52q0 -13 -8 -21.5t-22 -8.5h-1084l-247 -557q-11 -24 -36 -24h-72q-13 0 -20.5 5t-7.5 15q0 4 4 14l242 547h-851q-13 0 -21.5 8.5t-8.5 21.5v52q0 14 8.5 22t21.5 8h901l122 277h-1023q-13 0 -21.5 8.5t-8.5 21.5v52 q0 14 8.5 22t21.5 8h1073l259 586q10 22 34 22h76q12 0 18.5 -6t6.5 -15q0 -7 -3 -15l-254 -572h862q14 0 22 -8t8 -22v-52q0 -13 -8 -21.5t-22 -8.5h-911z" glyph-name="exclam_equal.liga" horiz-adv-x="2460" unicode="!=" vert-adv-y="1980"/>
<glyph d="M2058 1008l-119 -269h1557q14 0 22 -8t8 -22v-52q0 -13 -8 -21.5t-22 -8.5h-1607l-119 -268h1726q14 0 22 -8t8 -22v-52q0 -13 -8 -21.5t-22 -8.5h-1776l-170 -384q-10 -24 -36 -24h-72q-13 0 -20.5 5t-7.5 15q0 4 4 14l165 374h-1389q-13 0 -21.5 8.5t-8.5 21.5v52 q0 14 8.5 22t21.5 8h1439l118 268h-1557q-13 0 -21.5 8.5t-8.5 21.5v52q0 14 8.5 22t21.5 8h1607l119 269h-1726q-13 0 -21.5 8.5t-8.5 21.5v52q0 14 8.5 22t21.5 8h1775l172 388q9 21 34 21h76q12 0 18.5 -6t6.5 -15q0 -7 -3 -15l-165 -373h1388q14 0 22 -8t8 -22v-52 q0 -13 -8 -21.5t-22 -8.5h-1438z" glyph-name="exclam_equal_equal.liga" horiz-adv-x="3690" unicode="!==" vert-adv-y="1980"/>
<glyph d="M1376 1047q2 -14 2 -19q0 -36 -39 -46l-386 -105l244 -322q13 -17 13 -33q0 -24 -28 -45l-16 -13q-18 -12 -32 -12q-22 0 -41 28l-223 319l-223 -319q-19 -28 -41 -28q-14 0 -32 12l-16 13q-28 20 -28 44q0 17 13 34l244 322l-386 105q-39 10 -39 46q0 5 2 19l2 16 q5 22 18 33t32 11q11 0 21 -3l374 -118l-10 389q-1 24 15 39.5t40 15.5h24q26 0 41.5 -15.5t13.5 -39.5l-6 -389l374 118q10 3 21 3q19 0 32 -11t18 -33zM1392 -260q-13 0 -20.5 5t-7.5 15q0 4 4 14l723 1634q10 22 34 22h76q12 0 18.5 -6t6.5 -15q0 -7 -3 -15l-723 -1630 q-10 -24 -36 -24h-72z" glyph-name="asterisk_slash.liga" horiz-adv-x="2460" unicode="*/" vert-adv-y="1980"/>
<glyph d="M202 -260q-13 0 -20.5 5t-7.5 15q0 4 4 14l723 1634q10 22 34 22h76q12 0 18.5 -6t6.5 -15q0 -7 -3 -15l-723 -1630q-10 -24 -36 -24h-72zM2266 1047q2 -14 2 -19q0 -36 -39 -46l-386 -105l244 -322q13 -17 13 -33q0 -24 -28 -45l-16 -13q-18 -12 -32 -12q-22 0 -41 28 l-223 319l-223 -319q-19 -28 -41 -28q-14 0 -32 12l-16 13q-28 20 -28 44q0 17 13 34l244 322l-386 105q-39 10 -39 46q0 5 2 19l2 16q5 22 18 33t32 11q11 0 21 -3l374 -118l-10 389q-1 24 15 39.5t40 15.5h24q26 0 41.5 -15.5t13.5 -39.5l-6 -389l374 118q10 3 21 3 q19 0 32 -11t18 -33z" glyph-name="slash_asterisk.liga" horiz-adv-x="2460" unicode="/*" vert-adv-y="1980"/>
<glyph d="M2124 613q22 -13 22 -36v-90q0 -23 -22 -36l-713 -418q-7 -5 -17 -5q-13 0 -23 17l-32 58q-4 7 -4 15q0 15 16 24l673 390l-982 571l-593 -1341q-10 -22 -34 -22h-76q-12 0 -18.5 6t-6.5 15q0 7 3 15l723 1630q11 24 36 24h72q13 0 20.5 -5t7.5 -15q0 -4 -4 -14l-80 -181 z" glyph-name="slash_greater.liga" horiz-adv-x="2460" unicode="/&gt;" vert-adv-y="1980"/>
<glyph d="M1347 -260q-13 0 -20.5 5t-7.5 15q0 4 4 14l723 1634q10 22 34 22h76q12 0 18.5 -6t6.5 -15q0 -7 -3 -15l-723 -1630q-10 -24 -36 -24h-72zM308 -260q-13 0 -20.5 5t-7.5 15q0 4 4 14l723 1634q10 22 34 22h76q12 0 18.5 -6t6.5 -15q0 -7 -3 -15l-723 -1630 q-10 -24 -36 -24h-72z" glyph-name="slash_slash.liga" horiz-adv-x="2460" unicode="//" vert-adv-y="1980"/>
<glyph d="M2460 -110h-2460v110h2460v-110z" glyph-name="underscore_underscore.liga" horiz-adv-x="2460" unicode="__" vert-adv-y="1980"/>
<glyph d="M194 806q-13 0 -21.5 8.5t-8.5 21.5v52q0 14 8.5 22t21.5 8h2072q14 0 22 -8t8 -22v-52q0 -13 -8 -21.5t-22 -8.5h-2072zM194 417q-13 0 -21.5 8.5t-8.5 21.5v52q0 14 8.5 22t21.5 8h2072q14 0 22 -8t8 -22v-52q0 -13 -8 -21.5t-22 -8.5h-2072z" glyph-name="equal_equal.liga" horiz-adv-x="2460" unicode="==" vert-adv-y="1980"/>
<glyph d="M194 1008q-13 0 -21.5 8.5t-8.5 21.5v52q0 14 8.5 22t21.5 8h3302q14 0 22 -8t8 -22v-52q0 -13 -8 -21.5t-22 -8.5h-3302zM194 627q-13 0 -21.5 8.5t-8.5 21.5v52q0 14 8.5 22t21.5 8h3302q14 0 22 -8t8 -22v-52q0 -13 -8 -21.5t-22 -8.5h-3302zM194 247q-13 0 -21.5 8.5 t-8.5 21.5v52q0 14 8.5 22t21.5 8h3302q14 0 22 -8t8 -22v-52q0 -13 -8 -21.5t-22 -8.5h-3302z" glyph-name="equal_equal_equal.liga" horiz-adv-x="3690" unicode="===" vert-adv-y="1980"/>
<glyph d="M2975 1232l565 -565l-565 -565l-95 96l223 219h-2909q-13 0 -21.5 8.5t-8.5 21.5v52q0 14 8.5 22t21.5 8h3023l141 138l-142 139h-3022q-13 0 -21.5 8.5t-8.5 21.5v52q0 14 8.5 22t21.5 8h2908l-222 218z" glyph-name="equal_equal_greater.liga" horiz-adv-x="3690" unicode="==&gt;" vert-adv-y="1980"/>
<glyph d="M1745 1232l565 -565l-565 -565l-95 96l223 219h-1679q-13 0 -21.5 8.5t-8.5 21.5v52q0 14 8.5 22t21.5 8h1793l141 138l-142 139h-1792q-13 0 -21.5 8.5t-8.5 21.5v52q0 14 8.5 22t21.5 8h1678l-222 218z" glyph-name="equal_greater.liga" horiz-adv-x="2460" unicode="=&gt;" vert-adv-y="1980"/>
<glyph d="M2380 1232l565 -565l-565 -565l-94 96l223 219h-2315q-13 0 -21.5 8.5t-8.5 21.5v52q0 14 8.5 22t21.5 8h2429l141 138l-142 139h-2428q-13 0 -21.5 8.5t-8.5 21.5v52q0 14 8.5 22t21.5 8h2314l-222 218zM2880 1136l95 96l565 -565l-565 -565l-95 96l478 469z" glyph-name="equal_greater_greater.liga" horiz-adv-x="3690" unicode="=&gt;&gt;" vert-adv-y="1980"/>
<glyph d="M2058 1008l-119 -269h1557q14 0 22 -8t8 -22v-52q0 -13 -8 -21.5t-22 -8.5h-1607l-119 -268h1726q14 0 22 -8t8 -22v-52q0 -13 -8 -21.5t-22 -8.5h-1776l-170 -384q-10 -24 -36 -24h-72q-13 0 -20.5 5t-7.5 15q0 4 4 14l165 374h-1389q-13 0 -21.5 8.5t-8.5 21.5v52 q0 14 8.5 22t21.5 8h1439l118 268h-1557q-13 0 -21.5 8.5t-8.5 21.5v52q0 14 8.5 22t21.5 8h1607l119 269h-1726q-13 0 -21.5 8.5t-8.5 21.5v52q0 14 8.5 22t21.5 8h1775l172 388q9 21 34 21h76q12 0 18.5 -6t6.5 -15q0 -7 -3 -15l-165 -373h1388q14 0 22 -8t8 -22v-52 q0 -13 -8 -21.5t-22 -8.5h-1438z" glyph-name="equal_slash_equal.liga" horiz-adv-x="3690" unicode="=/=" vert-adv-y="1980"/>
<glyph d="M2880 1136l95 96l565 -565l-565 -565l-95 96l408 400h-2547l-496 -496l-95 96l478 469l-478 469l95 96l496 -496h2547z" glyph-name="greater_hyphen_greater.liga" horiz-adv-x="3690" unicode="&gt;-&gt;" vert-adv-y="1980"/>
<glyph d="M2880 1136l95 96l565 -565l-565 -565l-95 96l408 400h-2547l-496 -496l-95 96l478 469l-478 469l95 96l496 -496h2547z" glyph-name="greater_endash_greater.liga" horiz-adv-x="3690" unicode="&gt;–&gt;" vert-adv-y="1980"/>
<glyph d="M286 361q-9 -5 -18 -5q-13 0 -22 17l-33 58q-4 7 -4 15q0 15 16 25l674 389l-674 390q-16 10 -16 24q0 8 4 15l33 58q9 17 22 17q9 0 18 -5l713 -418q22 -13 22 -36v-90q0 -23 -22 -36zM286 -26q-9 -5 -17 -5q-14 0 -23 18l-33 58q-4 7 -4 15q0 16 17 25l711 419 q9 5 17 5q14 0 23 -18l33 -58q4 -7 4 -15q0 -16 -17 -25z" glyph-name="greater_equal.liga" unicode="&gt;=" vert-adv-y="1980"/>
<glyph d="M2880 1136l95 96l565 -565l-565 -565l-95 96l223 219h-2543l-315 -315l-95 96l478 469l-478 469l95 96l314 -314h2543zM810 667l-138 -138h2545l141 138l-142 139h-2545z" glyph-name="greater_equal_greater.liga" horiz-adv-x="3690" unicode="&gt;=&gt;" vert-adv-y="1980"/>
<glyph d="M402 736h1908v-138h-1908l408 -400l-95 -96l-565 565l565 565l95 -96z" glyph-name="less_hyphen.liga" horiz-adv-x="2460" unicode="&lt;-" vert-adv-y="1980"/>
<glyph d="M402 736h3138v-138h-3138l408 -400l-95 -96l-565 565l565 565l95 -96z" glyph-name="less_hyphen_hyphen.liga" horiz-adv-x="3690" unicode="&lt;--" vert-adv-y="1980"/>
<glyph d="M2880 1136l95 96l565 -565l-565 -565l-95 96l408 400h-2886l408 -400l-95 -96l-565 565l565 565l95 -96l-408 -400h2886z" glyph-name="less_hyphen_greater.liga" horiz-adv-x="3690" unicode="&lt;-&gt;" vert-adv-y="1980"/>
<glyph d="M3445 1232l95 -96l-478 -469l478 -469l-95 -96l-496 496h-2547l408 -400l-95 -96l-565 565l565 565l95 -96l-408 -400h2547z" glyph-name="less_hyphen_less.liga" horiz-adv-x="3690" unicode="&lt;-&lt;" vert-adv-y="1980"/>
<glyph d="M402 736h1908v-138h-1908l408 -400l-95 -96l-565 565l565 565l95 -96z" glyph-name="less_endash.liga" horiz-adv-x="2460" unicode="&lt;–" vert-adv-y="1980"/>
<glyph d="M402 736h3138v-138h-3138l408 -400l-95 -96l-565 565l565 565l95 -96z" glyph-name="less_endash_endash.liga" horiz-adv-x="3690" unicode="&lt;––" vert-adv-y="1980"/>
<glyph d="M2880 1136l95 96l565 -565l-565 -565l-95 96l408 400h-2886l408 -400l-95 -96l-565 565l565 565l95 -96l-408 -400h2886z" glyph-name="less_endash_greater.liga" horiz-adv-x="3690" unicode="&lt;–&gt;" vert-adv-y="1980"/>
<glyph d="M3445 1232l95 -96l-478 -469l478 -469l-95 -96l-496 496h-2547l408 -400l-95 -96l-565 565l565 565l95 -96l-408 -400h2547z" glyph-name="less_endash_less.liga" horiz-adv-x="3690" unicode="&lt;–&lt;" vert-adv-y="1980"/>
<glyph d="M1517 1267q-2 40 25 67t71 27q43 0 70 -27t26 -67l-44 -756q-1 -15 -9 -22.5t-22 -7.5h-43q-14 0 -22 7.5t-9 22.5zM715 1232l95 -96l-408 -400h866v-138h-866l408 -400l-95 -96l-565 565zM1958 598v138h2812v-138h-2812zM1688.5 255q34.5 -20 54.5 -54.5t20 -75.5 q0 -42 -20 -76.5t-54.5 -54.5t-76.5 -20t-76.5 20t-54 54.5t-19.5 76.5t19.5 76t54 54t76.5 20t76.5 -20z" glyph-name="less_exclam_hyphen_hyphen.liga" horiz-adv-x="4920" unicode="&lt;!--" vert-adv-y="1980"/>
<glyph d="M1517 1267q-2 40 25 67t71 27q43 0 70 -27t26 -67l-44 -756q-1 -15 -9 -22.5t-22 -7.5h-43q-14 0 -22 7.5t-9 22.5zM715 1232l95 -96l-408 -400h866v-138h-866l408 -400l-95 -96l-565 565zM1958 598v138h2812v-138h-2812zM1688.5 255q34.5 -20 54.5 -54.5t20 -75.5 q0 -42 -20 -76.5t-54.5 -54.5t-76.5 -20t-76.5 20t-54 54.5t-19.5 76.5t19.5 76t54 54t76.5 20t76.5 -20z" glyph-name="less_exclam_endash_endash.liga" horiz-adv-x="4920" unicode="&lt;!––" vert-adv-y="1980"/>
<glyph d="M232 779q-22 13 -22 36v90q0 23 22 36l712 418q9 5 18 5q14 0 22 -17l33 -58q4 -7 4 -15q0 -15 -16 -24l-674 -390l674 -389q16 -9 16 -25q0 -8 -4 -15l-33 -58q-8 -17 -22 -17q-9 0 -18 5zM233 393q-17 9 -17 25q0 8 4 15l33 58q9 18 23 18q8 0 17 -5l712 -419 q16 -9 16 -25q0 -8 -4 -15l-33 -58q-9 -18 -23 -18q-8 0 -17 5z" glyph-name="less_equal.liga" unicode="&lt;=" vert-adv-y="1980"/>
<glyph d="M474 806l-142 -139l141 -138h3023q14 0 22 -8t8 -22v-52q0 -13 -8 -21.5t-22 -8.5h-2909l223 -219l-95 -96l-565 565l565 565l95 -96l-222 -218h2908q14 0 22 -8t8 -22v-52q0 -13 -8 -21.5t-22 -8.5h-3022z" glyph-name="less_equal_equal.liga" horiz-adv-x="3690" unicode="&lt;==" vert-adv-y="1980"/>
<glyph d="M4110 1136l95 96l565 -565l-565 -565l-95 96l223 219h-3746l223 -219l-95 -96l-565 565l565 565l95 -96l-222 -218h3744zM332 667l141 -138h3974l141 138l-142 139h-3972z" glyph-name="less_equal_equal_greater.liga" horiz-adv-x="4920" unicode="&lt;==&gt;" vert-adv-y="1980"/>
<glyph d="M2880 1136l95 96l565 -565l-565 -565l-95 96l223 219h-2516l223 -219l-95 -96l-565 565l565 565l95 -96l-222 -218h2514zM332 667l141 -138h2744l141 138l-142 139h-2742z" glyph-name="less_equal_greater.liga" horiz-adv-x="3690" unicode="&lt;=&gt;" vert-adv-y="1980"/>
<glyph d="M3445 1232l95 -96l-478 -469l478 -469l-95 -96l-315 315h-2543l223 -219l-95 -96l-565 565l565 565l95 -96l-222 -218h2543zM332 667l141 -138h2545l-138 138l139 139h-2545z" glyph-name="less_equal_less.liga" horiz-adv-x="3690" unicode="&lt;=&lt;" vert-adv-y="1980"/>
<glyph d="M715 1232l95 -96l-478 -469l478 -469l-95 -96l-565 565zM996 736h2544v-138h-2544l408 -400l-94 -96l-565 565l565 565l94 -96z" glyph-name="less_less_hyphen.liga" horiz-adv-x="3690" unicode="&lt;&lt;-" vert-adv-y="1980"/>
<glyph d="M715 1232l95 -96l-478 -469l478 -469l-95 -96l-565 565zM996 736h2544v-138h-2544l408 -400l-94 -96l-565 565l565 565l94 -96z" glyph-name="less_less_endash.liga" horiz-adv-x="3690" unicode="&lt;&lt;–" vert-adv-y="1980"/>
<glyph d="M720 1232l95 -96l-478 -469l478 -469l-95 -96l-565 565zM1073 806l-142 -139l141 -138h2429q14 0 22 -8t8 -22v-52q0 -13 -8 -21.5t-22 -8.5h-2315l223 -219l-94 -96l-565 565l565 565l94 -96l-222 -218h2314q14 0 22 -8t8 -22v-52q0 -13 -8 -21.5t-22 -8.5h-2428z" glyph-name="less_less_equal.liga" horiz-adv-x="3690" unicode="&lt;&lt;=" vert-adv-y="1980"/>
<glyph d="M2121 1430q12 0 18.5 -6t6.5 -15q0 -7 -3 -15l-723 -1630q-10 -24 -36 -24h-72q-13 0 -20.5 5t-7.5 15q0 4 4 14l80 181l-1032 602q-22 13 -22 36v90q0 23 22 36l713 418q8 5 17 5q13 0 23 -17l32 -58q4 -7 4 -15q0 -15 -16 -24l-673 -390l982 -571l593 1341q10 22 34 22 h76z" glyph-name="less_slash.liga" horiz-adv-x="2460" unicode="&lt;/" vert-adv-y="1980"/>
<glyph d="M3224 613q22 -13 22 -36v-90q0 -23 -22 -36l-713 -418q-7 -5 -17 -5q-13 0 -23 17l-32 58q-4 7 -4 15q0 15 16 24l673 390l-980 570l-594 -1338l-2 -3q-10 -21 -33 -21h-76q-12 0 -18.5 6t-6.5 15q0 7 3 15l80 180l-1031 601q-22 13 -22 36v90q0 23 22 36l713 418 q8 5 17 5q13 0 23 -17l32 -58q4 -7 4 -15q0 -15 -16 -24l-673 -390l980 -570l594 1338l2 3q10 21 33 21h76q12 0 18.5 -6t6.5 -15q0 -7 -3 -15l-80 -180z" glyph-name="less_slash_greater.liga" horiz-adv-x="3690" unicode="&lt;/&gt;" vert-adv-y="1980"/>
<glyph d="M184 1600h628v-1980h-628v1980zM659 1402v65h-326v-65h128v-73h-130v-66h328v66h-130v73h130zM529 1073v139h-198v-206h328v67h-130zM396 1145h65v-72h-65v72zM659 887v66h-328v-66h130v-73h-130v-65h198v138h130zM659 636v198h-65v-131h-263v-67h328zM659 368v224h-198 v-111h68v46h65v-93h-198v158h-65v-224h328zM659 26v224h-328v-224h328zM396 184h198v-93h-198v93zM659 -85v65h-328v-65h138l-138 -93v-65h328v65h-202l139 93h63z" glyph-name=".notdef" horiz-adv-x="990" vert-adv-y="1980"/>
<glyph glyph-name="space" unicode=" " vert-adv-y="1980"/>
<glyph d="M1151 34q2 -8 2 -12q0 -10 -7 -16t-19 -6h-65q-26 0 -34 24l-99 303h-628l-99 -303q-8 -24 -34 -24h-65q-12 0 -19 6t-7 16q0 4 2 12l421 1282q4 11 14 17.5t23 6.5h156q13 0 23 -6.5t14 -17.5zM589 1209l-250 -764h552l-250 764h-52z" glyph-name="A" unicode="A" vert-adv-y="1980"/>
<glyph d="M1151 34q2 -8 2 -12q0 -10 -7 -16t-19 -6h-65q-26 0 -34 24l-99 303h-628l-99 -303q-8 -24 -34 -24h-65q-12 0 -19 6t-7 16q0 4 2 12l421 1282q4 11 14 17.5t23 6.5h156q13 0 23 -6.5t14 -17.5zM589 1209l-250 -764h552l-250 764h-52zM601 1536q-13 0 -20.5 5t-7.5 15 q0 4 4 14l120 252q6 13 14 18.5t20 5.5h39q13 0 20.5 -5t7.5 -15q0 -4 -4 -14l-120 -252q-6 -13 -14 -18.5t-20 -5.5h-39z" glyph-name="Aacute" unicode="Á" vert-adv-y="1980"/>
<glyph d="M1151 34q2 -8 2 -12q0 -10 -7 -16t-19 -6h-65q-26 0 -34 24l-99 303h-628l-99 -303q-8 -24 -34 -24h-65q-12 0 -19 6t-7 16q0 4 2 12l421 1282q4 11 14 17.5t23 6.5h156q13 0 23 -6.5t14 -17.5zM589 1209l-250 -764h552l-250 764h-52zM479 1606q-59 31 -93.5 85.5 t-41.5 124.5q-3 30 28 30h38q26 0 32 -28q14 -63 58.5 -101.5t114.5 -38.5t114.5 38.5t58.5 101.5q6 28 32 28h38q31 0 28 -30q-7 -70 -41.5 -124.5t-93.5 -85.5t-136 -31t-136 31z" glyph-name="Abreve" unicode="Ă" vert-adv-y="1980"/>
<glyph d="M1151 34q2 -8 2 -12q0 -10 -7 -16t-19 -6h-65q-26 0 -34 24l-99 303h-628l-99 -303q-8 -24 -34 -24h-65q-12 0 -19 6t-7 16q0 4 2 12l421 1282q4 11 14 17.5t23 6.5h156q13 0 23 -6.5t14 -17.5zM589 1209l-250 -764h552l-250 764h-52zM568 1545q-23 0 -36 16l-219 249 q-9 9 -9 19q0 7 6.5 12t18.5 5h67q21 0 36 -16l183 -202l183 202q15 16 36 16h67q12 0 18.5 -5t6.5 -12q0 -10 -9 -19l-219 -249q-13 -16 -36 -16h-94z" glyph-name="uni01CD" unicode="Ǎ" vert-adv-y="1980"/>
<glyph d="M1151 34q2 -8 2 -12q0 -10 -7 -16t-19 -6h-65q-26 0 -34 24l-99 303h-628l-99 -303q-8 -24 -34 -24h-65q-12 0 -19 6t-7 16q0 4 2 12l421 1282q4 11 14 17.5t23 6.5h156q13 0 23 -6.5t14 -17.5zM589 1209l-250 -764h552l-250 764h-52zM329 1545q-12 0 -18.5 4.5 t-6.5 12.5q0 9 9 19l219 249q15 16 36 16h94q21 0 36 -16l219 -249q9 -10 9 -19q0 -8 -6.5 -12.5t-18.5 -4.5h-67q-21 0 -36 16l-183 201l-183 -201q-15 -16 -36 -16h-67z" glyph-name="Acircumflex" unicode="Â" vert-adv-y="1980"/>
<glyph d="M1151 34q2 -8 2 -12q0 -10 -7 -16t-19 -6h-65q-26 0 -34 24l-99 303h-628l-99 -303q-8 -24 -34 -24h-65q-12 0 -19 6t-7 16q0 4 2 12l421 1282q4 11 14 17.5t23 6.5h156q13 0 23 -6.5t14 -17.5zM589 1209l-250 -764h552l-250 764h-52zM387 1717q-23 23 -23 54 q0 30 23 52.5t54 22.5t54 -22.5t23 -52.5q0 -31 -23 -54t-54 -23t-54 23zM737 1717q-23 23 -23 54q0 30 23 52.5t54 22.5q32 0 55 -22.5t23 -52.5q0 -31 -23 -54t-55 -23q-31 0 -54 23z" glyph-name="Adieresis" unicode="Ä" vert-adv-y="1980"/>
<glyph d="M1151 34q2 -8 2 -12q0 -10 -7 -16t-19 -6h-65q-26 0 -34 24l-99 303h-628l-99 -303q-8 -24 -34 -24h-65q-12 0 -19 6t-7 16q0 4 2 12l421 1282q4 11 14 17.5t23 6.5h156q13 0 23 -6.5t14 -17.5zM589 1209l-250 -764h552l-250 764h-52zM589 1536q-13 0 -21 5.5t-13 18.5 l-120 252q-4 8 -4 15q0 9 7.5 14t20.5 5h39q12 0 20 -5.5t13 -18.5l121 -252q4 -10 4 -14q0 -10 -7.5 -15t-20.5 -5h-39z" glyph-name="Agrave" unicode="À" vert-adv-y="1980"/>
<glyph d="M1151 34q2 -8 2 -12q0 -10 -7 -16t-19 -6h-65q-26 0 -34 24l-99 303h-628l-99 -303q-8 -24 -34 -24h-65q-12 0 -19 6t-7 16q0 4 2 12l421 1282q4 11 14 17.5t23 6.5h156q13 0 23 -6.5t14 -17.5zM589 1209l-250 -764h552l-250 764h-52zM370 1741q-13 0 -21.5 8.5 t-8.5 21.5v45q0 14 8.5 22t21.5 8h491q14 0 22 -8t8 -22v-45q0 -13 -8 -21.5t-22 -8.5h-491z" glyph-name="Amacron" unicode="Ā" vert-adv-y="1980"/>
<glyph d="M1151 34q2 -8 2 -12q0 -10 -7 -16t-19 -6h-35q-128 0 -185.5 -36.5t-57.5 -109.5q0 -70 48 -101.5t142 -31.5h18q20 0 20 -20v-52q0 -20 -20 -20h-54q-55 0 -114 17.5t-102.5 64.5t-43.5 129q0 109 77 163.5t193 67.5l-84 256h-628l-99 -303q-8 -24 -34 -24h-65 q-12 0 -19 6t-7 16q0 4 2 12l421 1282q4 11 14 17.5t23 6.5h156q13 0 23 -6.5t14 -17.5zM589 1209l-250 -764h552l-250 764h-52z" glyph-name="Aogonek" unicode="Ą" vert-adv-y="1980"/>
<glyph d="M1151 34q2 -8 2 -12q0 -10 -7 -16t-19 -6h-65q-26 0 -34 24l-99 303h-628l-99 -303q-8 -24 -34 -24h-65q-12 0 -19 6t-7 16q0 4 2 12l421 1282q4 11 14 17.5t23 6.5h156q13 0 23 -6.5t14 -17.5zM589 1209l-250 -764h552l-250 764h-52zM529 1533q-39 23 -61.5 61.5 t-22.5 83.5t22.5 83.5t61.5 61.5t86 23t86 -23t61.5 -61.5t22.5 -83.5t-22.5 -83.5t-61.5 -61.5t-86 -23t-86 23zM670 1622.5q23 22.5 24 54.5q0 33 -23 55.5t-56 22.5t-56.5 -22.5t-23.5 -55.5q0 -32 23.5 -54.5t56.5 -22.5q32 0 55 22.5z" glyph-name="Aring" unicode="Å" vert-adv-y="1980"/>
<glyph d="M1151 34q2 -8 2 -12q0 -10 -7 -16t-19 -6h-65q-26 0 -34 24l-99 303h-628l-99 -303q-8 -24 -34 -24h-65q-12 0 -19 6t-7 16q0 4 2 12l421 1282q4 11 14 17.5t23 6.5h156q13 0 23 -6.5t14 -17.5zM589 1209l-250 -764h552l-250 764h-52zM665 1634.5q-37 21.5 -80 62.5 q-33 31 -55.5 45.5t-51.5 14.5q-35 0 -58.5 -19t-31.5 -44q-6 -19 -24 -19h-57q-20 0 -19 24q6 70 58.5 113t128.5 43q41 0 72.5 -12t53 -29t49.5 -44q31 -30 53.5 -44.5t51.5 -14.5q34 0 57 19t32 44q6 19 23 19h58q10 0 16 -5.5t5 -15.5q-7 -72 -60 -115.5t-127 -43.5 q-57 0 -94 21.5z" glyph-name="Atilde" unicode="Ã" vert-adv-y="1980"/>
<glyph d="M1153 121q14 0 22 -8t8 -22v-61q0 -13 -8 -21.5t-22 -8.5h-486q-13 0 -21.5 8.5t-8.5 21.5v207h-374l-88 -213q-6 -13 -14 -18.5t-20 -5.5h-66q-13 0 -20 5.5t-7 15.5q0 6 3 13l530 1282q4 12 14.5 18t22.5 6h533q14 0 22 -8t8 -22v-61q0 -13 -8 -21.5t-22 -8.5h-391 v-442h346q14 0 22 -8t8 -22v-60q0 -13 -8 -21.5t-22 -8.5h-346v-536h393zM637 1148l-327 -795h327v795z" glyph-name="AE" unicode="Æ" vert-adv-y="1980"/>
<glyph d="M175 0q-13 0 -21.5 8.5t-8.5 21.5v1280q0 14 8.5 22t21.5 8h466q212 0 300.5 -92t88.5 -227q0 -99 -49 -175t-163 -106v-20q150 -29 215.5 -119t65.5 -231q0 -190 -112 -280t-356 -90h-456zM630 778q134 0 203.5 65t69.5 175q0 102 -67.5 151.5t-205.5 49.5h-357v-441 h357zM622 121q122 0 197 25t111 80t36 147q0 136 -82 213.5t-262 77.5h-349v-543h349z" glyph-name="B" unicode="B" vert-adv-y="1980"/>
<glyph d="M362 34.5q-111 64.5 -171.5 217.5t-60.5 413t60.5 413t171.5 217.5t274 64.5q190 0 311 -92t141 -326q3 -34 -25 -34h-66q-12 0 -20 6.5t-9 19.5q-16 122 -61.5 188.5t-111 90.5t-155.5 24q-122 0 -205 -46.5t-131 -172.5t-48 -353t48 -353t131 -172.5t205 -46.5 q134 0 219.5 53t108.5 189q1 13 9 19.5t20 6.5h66q28 0 25 -34q-20 -193 -143 -275t-309 -82q-163 0 -274 64.5z" glyph-name="C" unicode="C" vert-adv-y="1980"/>
<glyph d="M362 34.5q-111 64.5 -171.5 217.5t-60.5 413t60.5 413t171.5 217.5t274 64.5q190 0 311 -92t141 -326q3 -34 -25 -34h-66q-12 0 -20 6.5t-9 19.5q-16 122 -61.5 188.5t-111 90.5t-155.5 24q-122 0 -205 -46.5t-131 -172.5t-48 -353t48 -353t131 -172.5t205 -46.5 q134 0 219.5 53t108.5 189q1 13 9 19.5t20 6.5h66q28 0 25 -34q-20 -193 -143 -275t-309 -82q-163 0 -274 64.5zM619 1536q-13 0 -20.5 5t-7.5 15q0 4 4 14l120 252q6 13 14 18.5t20 5.5h39q13 0 20.5 -5t7.5 -15q0 -4 -4 -14l-120 -252q-6 -13 -14 -18.5t-20 -5.5h-39z" glyph-name="Cacute" unicode="Ć" vert-adv-y="1980"/>
<glyph d="M362 34.5q-111 64.5 -171.5 217.5t-60.5 413t60.5 413t171.5 217.5t274 64.5q190 0 311 -92t141 -326q3 -34 -25 -34h-66q-12 0 -20 6.5t-9 19.5q-16 122 -61.5 188.5t-111 90.5t-155.5 24q-122 0 -205 -46.5t-131 -172.5t-48 -353t48 -353t131 -172.5t205 -46.5 q134 0 219.5 53t108.5 189q1 13 9 19.5t20 6.5h66q28 0 25 -34q-20 -193 -143 -275t-309 -82q-163 0 -274 64.5zM586 1545q-23 0 -36 16l-219 249q-9 9 -9 19q0 7 6.5 12t18.5 5h67q21 0 36 -16l183 -202l183 202q15 16 36 16h67q12 0 18.5 -5t6.5 -12q0 -10 -9 -19 l-219 -249q-13 -16 -36 -16h-94z" glyph-name="Ccaron" unicode="Č" vert-adv-y="1980"/>
<glyph d="M1063 361q28 0 25 -34q-19 -182 -129 -265t-280 -91l-47 -50q67 -6 112 -47.5t45 -105.5q0 -65 -31.5 -108t-83 -63.5t-112.5 -20.5q-37 0 -63 5q-18 3 -18 22v47q0 9 6 15t16 5q23 -4 49 -4q61 0 96 24.5t35 67.5q0 35 -29.5 57.5t-74.5 22.5q-36 0 -74 -16 q-4 -2 -10 -2q-14 0 -14 16v41q0 11 10 24l66 73q-137 14 -231 85.5t-145 219.5t-51 386q0 260 60.5 413t171.5 217.5t274 64.5q190 0 311 -92t141 -326q3 -34 -25 -34h-66q-12 0 -20 6.5t-9 19.5q-16 122 -61.5 188.5t-111 90.5t-155.5 24q-122 0 -205 -46.5t-131 -172.5 t-48 -353t48 -353t131 -172.5t205 -46.5q134 0 219.5 53t108.5 189q1 13 9 19.5t20 6.5h66z" glyph-name="Ccedilla" unicode="Ç" vert-adv-y="1980"/>
<glyph d="M362 34.5q-111 64.5 -171.5 217.5t-60.5 413t60.5 413t171.5 217.5t274 64.5q190 0 311 -92t141 -326q3 -34 -25 -34h-66q-12 0 -20 6.5t-9 19.5q-16 122 -61.5 188.5t-111 90.5t-155.5 24q-122 0 -205 -46.5t-131 -172.5t-48 -353t48 -353t131 -172.5t205 -46.5 q134 0 219.5 53t108.5 189q1 13 9 19.5t20 6.5h66q28 0 25 -34q-20 -193 -143 -275t-309 -82q-163 0 -274 64.5zM579 1717q-23 23 -23 54q0 30 23 52.5t54 22.5t54 -22.5t23 -52.5q0 -31 -23 -54t-54 -23t-54 23z" glyph-name="Cdotaccent" unicode="Ċ" vert-adv-y="1980"/>
<glyph d="M180 0q-13 0 -21.5 8.5t-8.5 21.5v1280q0 14 8.5 22t21.5 8h317q236 0 370 -80t187.5 -226t53.5 -364t-53.5 -364t-187.5 -226t-370 -80h-317zM493 121q196 0 302 63t145 180.5t39 305.5t-39 305.5t-145 180.5t-302 63h-215v-1098h215z" glyph-name="D" unicode="D" vert-adv-y="1980"/>
<glyph d="M499 1340q236 0 370 -80t187.5 -226t53.5 -364t-53.5 -364t-187.5 -226t-370 -80h-318q-13 0 -21.5 8.5t-8.5 21.5v588h-48q-13 0 -21.5 8.5t-8.5 21.5v44q0 14 8.5 22t21.5 8h48v588q0 14 8.5 22t21.5 8h318zM495 121q196 0 301.5 63t144.5 180.5t39 305.5t-39 305.5 t-144.5 180.5t-301.5 63h-216v-497h315q14 0 22 -8t8 -22v-44q0 -13 -8 -21.5t-22 -8.5h-315v-497h216z" glyph-name="Eth" unicode="Ð" vert-adv-y="1980"/>
<glyph d="M180 0q-13 0 -21.5 8.5t-8.5 21.5v1280q0 14 8.5 22t21.5 8h317q236 0 370 -80t187.5 -226t53.5 -364t-53.5 -364t-187.5 -226t-370 -80h-317zM493 121q196 0 302 63t145 180.5t39 305.5t-39 305.5t-145 180.5t-302 63h-215v-1098h215zM568 1545q-23 0 -36 16l-219 249 q-9 9 -9 19q0 7 6.5 12t18.5 5h67q21 0 36 -16l183 -202l183 202q15 16 36 16h67q12 0 18.5 -5t6.5 -12q0 -10 -9 -19l-219 -249q-13 -16 -36 -16h-94z" glyph-name="Dcaron" unicode="Ď" vert-adv-y="1980"/>
<glyph d="M499 1340q236 0 370 -80t187.5 -226t53.5 -364t-53.5 -364t-187.5 -226t-370 -80h-318q-13 0 -21.5 8.5t-8.5 21.5v588h-48q-13 0 -21.5 8.5t-8.5 21.5v44q0 14 8.5 22t21.5 8h48v588q0 14 8.5 22t21.5 8h318zM495 121q196 0 301.5 63t144.5 180.5t39 305.5t-39 305.5 t-144.5 180.5t-301.5 63h-216v-497h315q14 0 22 -8t8 -22v-44q0 -13 -8 -21.5t-22 -8.5h-315v-497h216z" glyph-name="Dcroat" unicode="Đ" vert-adv-y="1980"/>
<glyph d="M197 0q-13 0 -21.5 8.5t-8.5 21.5v1280q0 14 8.5 22t21.5 8h834q14 0 22 -8t8 -22v-61q0 -13 -8 -21.5t-22 -8.5h-736v-470h692q14 0 22 -8t8 -22v-60q0 -13 -8 -21.5t-22 -8.5h-692v-508h738q14 0 22 -8t8 -22v-61q0 -13 -8 -21.5t-22 -8.5h-836z" glyph-name="E" unicode="E" vert-adv-y="1980"/>
<glyph d="M197 0q-13 0 -21.5 8.5t-8.5 21.5v1280q0 14 8.5 22t21.5 8h834q14 0 22 -8t8 -22v-61q0 -13 -8 -21.5t-22 -8.5h-736v-470h692q14 0 22 -8t8 -22v-60q0 -13 -8 -21.5t-22 -8.5h-692v-508h738q14 0 22 -8t8 -22v-61q0 -13 -8 -21.5t-22 -8.5h-836zM601 1536 q-13 0 -20.5 5t-7.5 15q0 4 4 14l120 252q6 13 14 18.5t20 5.5h39q13 0 20.5 -5t7.5 -15q0 -4 -4 -14l-120 -252q-6 -13 -14 -18.5t-20 -5.5h-39z" glyph-name="Eacute" unicode="É" vert-adv-y="1980"/>
<glyph d="M197 0q-13 0 -21.5 8.5t-8.5 21.5v1280q0 14 8.5 22t21.5 8h834q14 0 22 -8t8 -22v-61q0 -13 -8 -21.5t-22 -8.5h-736v-470h692q14 0 22 -8t8 -22v-60q0 -13 -8 -21.5t-22 -8.5h-692v-508h738q14 0 22 -8t8 -22v-61q0 -13 -8 -21.5t-22 -8.5h-836zM568 1545q-23 0 -36 16 l-219 249q-9 9 -9 19q0 7 6.5 12t18.5 5h67q21 0 36 -16l183 -202l183 202q15 16 36 16h67q12 0 18.5 -5t6.5 -12q0 -10 -9 -19l-219 -249q-13 -16 -36 -16h-94z" glyph-name="Ecaron" unicode="Ě" vert-adv-y="1980"/>
<glyph d="M197 0q-13 0 -21.5 8.5t-8.5 21.5v1280q0 14 8.5 22t21.5 8h834q14 0 22 -8t8 -22v-61q0 -13 -8 -21.5t-22 -8.5h-736v-470h692q14 0 22 -8t8 -22v-60q0 -13 -8 -21.5t-22 -8.5h-692v-508h738q14 0 22 -8t8 -22v-61q0 -13 -8 -21.5t-22 -8.5h-836zM329 1545 q-12 0 -18.5 4.5t-6.5 12.5q0 9 9 19l219 249q15 16 36 16h94q21 0 36 -16l219 -249q9 -10 9 -19q0 -8 -6.5 -12.5t-18.5 -4.5h-67q-21 0 -36 16l-183 201l-183 -201q-15 -16 -36 -16h-67z" glyph-name="Ecircumflex" unicode="Ê" vert-adv-y="1980"/>
<glyph d="M197 0q-13 0 -21.5 8.5t-8.5 21.5v1280q0 14 8.5 22t21.5 8h834q14 0 22 -8t8 -22v-61q0 -13 -8 -21.5t-22 -8.5h-736v-470h692q14 0 22 -8t8 -22v-60q0 -13 -8 -21.5t-22 -8.5h-692v-508h738q14 0 22 -8t8 -22v-61q0 -13 -8 -21.5t-22 -8.5h-836zM387 1717 q-23 23 -23 54q0 30 23 52.5t54 22.5t54 -22.5t23 -52.5q0 -31 -23 -54t-54 -23t-54 23zM737 1717q-23 23 -23 54q0 30 23 52.5t54 22.5q32 0 55 -22.5t23 -52.5q0 -31 -23 -54t-55 -23q-31 0 -54 23z" glyph-name="Edieresis" unicode="Ë" vert-adv-y="1980"/>
<glyph d="M197 0q-13 0 -21.5 8.5t-8.5 21.5v1280q0 14 8.5 22t21.5 8h834q14 0 22 -8t8 -22v-61q0 -13 -8 -21.5t-22 -8.5h-736v-470h692q14 0 22 -8t8 -22v-60q0 -13 -8 -21.5t-22 -8.5h-692v-508h738q14 0 22 -8t8 -22v-61q0 -13 -8 -21.5t-22 -8.5h-836zM561 1717 q-23 23 -23 54q0 30 23 52.5t54 22.5t54 -22.5t23 -52.5q0 -31 -23 -54t-54 -23t-54 23z" glyph-name="Edotaccent" unicode="Ė" vert-adv-y="1980"/>
<glyph d="M197 0q-13 0 -21.5 8.5t-8.5 21.5v1280q0 14 8.5 22t21.5 8h834q14 0 22 -8t8 -22v-61q0 -13 -8 -21.5t-22 -8.5h-736v-470h692q14 0 22 -8t8 -22v-60q0 -13 -8 -21.5t-22 -8.5h-692v-508h738q14 0 22 -8t8 -22v-61q0 -13 -8 -21.5t-22 -8.5h-836zM589 1536 q-13 0 -21 5.5t-13 18.5l-120 252q-4 8 -4 15q0 9 7.5 14t20.5 5h39q12 0 20 -5.5t13 -18.5l121 -252q4 -10 4 -14q0 -10 -7.5 -15t-20.5 -5h-39z" glyph-name="Egrave" unicode="È" vert-adv-y="1980"/>
<glyph d="M197 0q-13 0 -21.5 8.5t-8.5 21.5v1280q0 14 8.5 22t21.5 8h834q14 0 22 -8t8 -22v-61q0 -13 -8 -21.5t-22 -8.5h-736v-470h692q14 0 22 -8t8 -22v-60q0 -13 -8 -21.5t-22 -8.5h-692v-508h738q14 0 22 -8t8 -22v-61q0 -13 -8 -21.5t-22 -8.5h-836zM370 1741 q-13 0 -21.5 8.5t-8.5 21.5v45q0 14 8.5 22t21.5 8h491q14 0 22 -8t8 -22v-45q0 -13 -8 -21.5t-22 -8.5h-491z" glyph-name="Emacron" unicode="Ē" vert-adv-y="1980"/>
<glyph d="M1033 121q14 0 22 -8t8 -22v-61q0 -10 -5.5 -18t-14.5 -11v-1q-128 0 -185.5 -36.5t-57.5 -109.5q0 -70 48 -101.5t142 -31.5h18q20 0 20 -20v-52q0 -20 -20 -20h-54q-55 0 -114 17.5t-102.5 64.5t-43.5 129q0 100 73 160h-570q-13 0 -21.5 8.5t-8.5 21.5v1280 q0 14 8.5 22t21.5 8h834q14 0 22 -8t8 -22v-61q0 -13 -8 -21.5t-22 -8.5h-736v-470h692q14 0 22 -8t8 -22v-60q0 -13 -8 -21.5t-22 -8.5h-692v-508h738z" glyph-name="Eogonek" unicode="Ę" vert-adv-y="1980"/>
<glyph d="M185 0q-13 0 -21.5 8.5t-8.5 21.5v1280q0 14 8.5 22t21.5 8h860q14 0 22 -8t8 -22v-61q0 -13 -8 -21.5t-22 -8.5h-762v-552h716q14 0 22 -8t8 -22v-60q0 -13 -8 -21.5t-22 -8.5h-716v-517q0 -13 -8 -21.5t-22 -8.5h-68z" glyph-name="F" unicode="F" vert-adv-y="1980"/>
<glyph d="M1103 678q8 -8 8 -22v-98q0 -205 -48.5 -334t-152 -191.5t-269.5 -62.5q-165 0 -277 64.5t-173 217.5t-61 413t60.5 413t171.5 217.5t274 64.5q189 0 310.5 -92t140.5 -324q3 -34 -26 -34h-66q-13 0 -20.5 6.5t-8.5 19.5q-15 121 -60 187t-110.5 90t-155.5 24 q-122 0 -205 -46.5t-131 -172.5t-48 -353t48 -352.5t130.5 -172.5t202.5 -47q127 0 203 41t113.5 145.5t37.5 296.5h-400q-13 0 -21.5 8.5t-8.5 21.5v50q0 14 8.5 22t21.5 8h490q14 0 22 -8z" glyph-name="G" unicode="G" vert-adv-y="1980"/>
<glyph d="M1103 678q8 -8 8 -22v-98q0 -205 -48.5 -334t-152 -191.5t-269.5 -62.5q-165 0 -277 64.5t-173 217.5t-61 413t60.5 413t171.5 217.5t274 64.5q189 0 310.5 -92t140.5 -324q3 -34 -26 -34h-66q-13 0 -20.5 6.5t-8.5 19.5q-15 121 -60 187t-110.5 90t-155.5 24 q-122 0 -205 -46.5t-131 -172.5t-48 -353t48 -352.5t130.5 -172.5t202.5 -47q127 0 203 41t113.5 145.5t37.5 296.5h-400q-13 0 -21.5 8.5t-8.5 21.5v50q0 14 8.5 22t21.5 8h490q14 0 22 -8zM489 1606q-59 31 -93.5 85.5t-41.5 124.5q-3 30 28 30h38q26 0 32 -28 q14 -63 58.5 -101.5t114.5 -38.5t114.5 38.5t58.5 101.5q6 28 32 28h38q31 0 28 -30q-7 -70 -41.5 -124.5t-93.5 -85.5t-136 -31t-136 31z" glyph-name="Gbreve" unicode="Ğ" vert-adv-y="1980"/>
<glyph d="M1103 678q8 -8 8 -22v-98q0 -205 -48.5 -334t-152 -191.5t-269.5 -62.5q-165 0 -277 64.5t-173 217.5t-61 413t60.5 413t171.5 217.5t274 64.5q189 0 310.5 -92t140.5 -324q3 -34 -26 -34h-66q-13 0 -20.5 6.5t-8.5 19.5q-15 121 -60 187t-110.5 90t-155.5 24 q-122 0 -205 -46.5t-131 -172.5t-48 -353t48 -352.5t130.5 -172.5t202.5 -47q127 0 203 41t113.5 145.5t37.5 296.5h-400q-13 0 -21.5 8.5t-8.5 21.5v50q0 14 8.5 22t21.5 8h490q14 0 22 -8zM774 -154q13 0 21 -8t8 -21v-28q0 -206 -17 -410q-3 -24 -30 -24h-58 q-28 0 -27 31q6 154 6 286v59h-226q-13 0 -21 8t-8 21v57q0 13 8 21t21 8h323z" glyph-name="uni0122" unicode="Ģ" vert-adv-y="1980"/>
<glyph d="M1103 678q8 -8 8 -22v-98q0 -205 -48.5 -334t-152 -191.5t-269.5 -62.5q-165 0 -277 64.5t-173 217.5t-61 413t60.5 413t171.5 217.5t274 64.5q189 0 310.5 -92t140.5 -324q3 -34 -26 -34h-66q-13 0 -20.5 6.5t-8.5 19.5q-15 121 -60 187t-110.5 90t-155.5 24 q-122 0 -205 -46.5t-131 -172.5t-48 -353t48 -352.5t130.5 -172.5t202.5 -47q127 0 203 41t113.5 145.5t37.5 296.5h-400q-13 0 -21.5 8.5t-8.5 21.5v50q0 14 8.5 22t21.5 8h490q14 0 22 -8zM571 1717q-23 23 -23 54q0 30 23 52.5t54 22.5t54 -22.5t23 -52.5q0 -31 -23 -54 t-54 -23t-54 23z" glyph-name="Gdotaccent" unicode="Ġ" vert-adv-y="1980"/>
<glyph d="M1041 1340q14 0 22 -8t8 -22v-1280q0 -13 -8 -21.5t-22 -8.5h-69q-13 0 -21.5 8.5t-8.5 21.5v578h-654v-578q0 -13 -8 -21.5t-22 -8.5h-68q-13 0 -21.5 8.5t-8.5 21.5v1280q0 14 8.5 22t21.5 8h68q14 0 22 -8t8 -22v-582h654v582q0 14 8.5 22t21.5 8h69z" glyph-name="H" unicode="H" vert-adv-y="1980"/>
<glyph d="M1041 1340q14 0 22 -8t8 -22v-1280q0 -13 -8 -21.5t-22 -8.5h-69q-13 0 -21.5 8.5t-8.5 21.5v578h-654v-578q0 -13 -8 -21.5t-22 -8.5h-68q-13 0 -21.5 8.5t-8.5 21.5v1280q0 14 8.5 22t21.5 8h68q14 0 22 -8t8 -22v-230h654v230q0 14 8.5 22t21.5 8h69zM288 965v-237 h654v237h-654z" glyph-name="Hbar" unicode="Ħ" vert-adv-y="1980"/>
<glyph d="M166 0q-13 0 -21.5 8.5t-8.5 21.5v61q0 14 8.5 22t21.5 8h385v1098h-385q-13 0 -21.5 8.5t-8.5 21.5v61q0 14 8.5 22t21.5 8h898q14 0 22 -8t8 -22v-61q0 -13 -8 -21.5t-22 -8.5h-385v-1098h385q14 0 22 -8t8 -22v-61q0 -13 -8 -21.5t-22 -8.5h-898z" glyph-name="I" unicode="I" vert-adv-y="1980"/>
<glyph d="M214 1340q14 0 22 -8t8 -22v-1280q0 -13 -8 -21.5t-22 -8.5h-68q-13 0 -21.5 8.5t-8.5 21.5v1280q0 14 8.5 22t21.5 8h68zM1106 1332q8 -8 8 -22v-856q0 -155 -62.5 -261.5t-168.5 -158.5t-236 -52q-60 0 -119 11t-103 32q-16 7 -16 24q0 9 4 16l28 55q10 19 27 19 q3 0 11 -2q77 -30 164 -30q93 0 171 37t125 116.5t47 200.5v758h-520q-13 0 -21.5 8.5t-8.5 21.5v61q0 14 8.5 22t21.5 8h618q14 0 22 -8z" glyph-name="IJ" unicode="Ĳ" vert-adv-y="1980"/>
<glyph d="M166 0q-13 0 -21.5 8.5t-8.5 21.5v61q0 14 8.5 22t21.5 8h385v1098h-385q-13 0 -21.5 8.5t-8.5 21.5v61q0 14 8.5 22t21.5 8h898q14 0 22 -8t8 -22v-61q0 -13 -8 -21.5t-22 -8.5h-385v-1098h385q14 0 22 -8t8 -22v-61q0 -13 -8 -21.5t-22 -8.5h-898zM601 1536 q-13 0 -20.5 5t-7.5 15q0 4 4 14l120 252q6 13 14 18.5t20 5.5h39q13 0 20.5 -5t7.5 -15q0 -4 -4 -14l-120 -252q-6 -13 -14 -18.5t-20 -5.5h-39z" glyph-name="Iacute" unicode="Í" vert-adv-y="1980"/>
<glyph d="M166 0q-13 0 -21.5 8.5t-8.5 21.5v61q0 14 8.5 22t21.5 8h385v1098h-385q-13 0 -21.5 8.5t-8.5 21.5v61q0 14 8.5 22t21.5 8h898q14 0 22 -8t8 -22v-61q0 -13 -8 -21.5t-22 -8.5h-385v-1098h385q14 0 22 -8t8 -22v-61q0 -13 -8 -21.5t-22 -8.5h-898zM568 1545 q-23 0 -36 16l-219 249q-9 9 -9 19q0 7 6.5 12t18.5 5h67q21 0 36 -16l183 -202l183 202q15 16 36 16h67q12 0 18.5 -5t6.5 -12q0 -10 -9 -19l-219 -249q-13 -16 -36 -16h-94z" glyph-name="uni01CF" unicode="Ǐ" vert-adv-y="1980"/>
<glyph d="M166 0q-13 0 -21.5 8.5t-8.5 21.5v61q0 14 8.5 22t21.5 8h385v1098h-385q-13 0 -21.5 8.5t-8.5 21.5v61q0 14 8.5 22t21.5 8h898q14 0 22 -8t8 -22v-61q0 -13 -8 -21.5t-22 -8.5h-385v-1098h385q14 0 22 -8t8 -22v-61q0 -13 -8 -21.5t-22 -8.5h-898zM329 1545 q-12 0 -18.5 4.5t-6.5 12.5q0 9 9 19l219 249q15 16 36 16h94q21 0 36 -16l219 -249q9 -10 9 -19q0 -8 -6.5 -12.5t-18.5 -4.5h-67q-21 0 -36 16l-183 201l-183 -201q-15 -16 -36 -16h-67z" glyph-name="Icircumflex" unicode="Î" vert-adv-y="1980"/>
<glyph d="M166 0q-13 0 -21.5 8.5t-8.5 21.5v61q0 14 8.5 22t21.5 8h385v1098h-385q-13 0 -21.5 8.5t-8.5 21.5v61q0 14 8.5 22t21.5 8h898q14 0 22 -8t8 -22v-61q0 -13 -8 -21.5t-22 -8.5h-385v-1098h385q14 0 22 -8t8 -22v-61q0 -13 -8 -21.5t-22 -8.5h-898zM387 1717 q-23 23 -23 54q0 30 23 52.5t54 22.5t54 -22.5t23 -52.5q0 -31 -23 -54t-54 -23t-54 23zM737 1717q-23 23 -23 54q0 30 23 52.5t54 22.5q32 0 55 -22.5t23 -52.5q0 -31 -23 -54t-55 -23q-31 0 -54 23z" glyph-name="Idieresis" unicode="Ï" vert-adv-y="1980"/>
<glyph d="M166 0q-13 0 -21.5 8.5t-8.5 21.5v61q0 14 8.5 22t21.5 8h385v1098h-385q-13 0 -21.5 8.5t-8.5 21.5v61q0 14 8.5 22t21.5 8h898q14 0 22 -8t8 -22v-61q0 -13 -8 -21.5t-22 -8.5h-385v-1098h385q14 0 22 -8t8 -22v-61q0 -13 -8 -21.5t-22 -8.5h-898zM561 1717 q-23 23 -23 54q0 30 23 52.5t54 22.5t54 -22.5t23 -52.5q0 -31 -23 -54t-54 -23t-54 23z" glyph-name="Idotaccent" unicode="İ" vert-adv-y="1980"/>
<glyph d="M166 0q-13 0 -21.5 8.5t-8.5 21.5v61q0 14 8.5 22t21.5 8h385v1098h-385q-13 0 -21.5 8.5t-8.5 21.5v61q0 14 8.5 22t21.5 8h898q14 0 22 -8t8 -22v-61q0 -13 -8 -21.5t-22 -8.5h-385v-1098h385q14 0 22 -8t8 -22v-61q0 -13 -8 -21.5t-22 -8.5h-898zM589 1536 q-13 0 -21 5.5t-13 18.5l-120 252q-4 8 -4 15q0 9 7.5 14t20.5 5h39q12 0 20 -5.5t13 -18.5l121 -252q4 -10 4 -14q0 -10 -7.5 -15t-20.5 -5h-39z" glyph-name="Igrave" unicode="Ì" vert-adv-y="1980"/>
<glyph d="M166 0q-13 0 -21.5 8.5t-8.5 21.5v61q0 14 8.5 22t21.5 8h385v1098h-385q-13 0 -21.5 8.5t-8.5 21.5v61q0 14 8.5 22t21.5 8h898q14 0 22 -8t8 -22v-61q0 -13 -8 -21.5t-22 -8.5h-385v-1098h385q14 0 22 -8t8 -22v-61q0 -13 -8 -21.5t-22 -8.5h-898zM370 1741 q-13 0 -21.5 8.5t-8.5 21.5v45q0 14 8.5 22t21.5 8h491q14 0 22 -8t8 -22v-45q0 -13 -8 -21.5t-22 -8.5h-491z" glyph-name="Imacron" unicode="Ī" vert-adv-y="1980"/>
<glyph d="M679 1219v-1098h385q14 0 22 -8t8 -22v-61q0 -13 -8 -21.5t-22 -8.5h-246q-128 0 -185.5 -36.5t-57.5 -109.5q0 -70 48 -101.5t142 -31.5h18q20 0 20 -20v-52q0 -20 -20 -20h-54q-55 0 -114 17.5t-102.5 64.5t-43.5 129q0 100 73 160h-376q-13 0 -21.5 8.5t-8.5 21.5v61 q0 14 8.5 22t21.5 8h385v1098h-385q-13 0 -21.5 8.5t-8.5 21.5v61q0 14 8.5 22t21.5 8h898q14 0 22 -8t8 -22v-61q0 -13 -8 -21.5t-22 -8.5h-385z" glyph-name="Iogonek" unicode="Į" vert-adv-y="1980"/>
<glyph d="M1065 1332q8 -8 8 -22v-864q0 -149 -61.5 -256.5t-170.5 -163.5t-248 -56q-134 0 -239.5 52.5t-166 155t-60.5 246.5q0 15 8 22.5t22 7.5h67q29 0 30 -30q4 -104 48.5 -178.5t121 -113.5t175.5 -39q103 0 181 41t121.5 122t43.5 198v765h-600q-13 0 -21.5 8.5t-8.5 21.5 v61q0 14 8.5 22t21.5 8h698q14 0 22 -8z" glyph-name="J" unicode="J" vert-adv-y="1980"/>
<glyph d="M1100 36q7 -10 7 -18t-6.5 -13t-18.5 -5h-85q-12 0 -20.5 4t-15.5 14l-480 615l-205 -230v-373q0 -13 -8 -21.5t-22 -8.5h-68q-13 0 -21.5 8.5t-8.5 21.5v1280q0 14 8.5 22t21.5 8h68q14 0 22 -8t8 -22v-735l654 749q13 16 36 16h94q12 0 18.5 -4.5t6.5 -12.5t-9 -19 l-515 -581z" glyph-name="K" unicode="K" vert-adv-y="1980"/>
<glyph d="M1100 36q7 -10 7 -18t-6.5 -13t-18.5 -5h-85q-12 0 -20.5 4t-15.5 14l-480 615l-205 -230v-373q0 -13 -8 -21.5t-22 -8.5h-68q-13 0 -21.5 8.5t-8.5 21.5v1280q0 14 8.5 22t21.5 8h68q14 0 22 -8t8 -22v-735l654 749q13 16 36 16h94q12 0 18.5 -4.5t6.5 -12.5t-9 -19 l-515 -581zM771 -154q13 0 21 -8t8 -21v-28q0 -206 -17 -410q-3 -24 -30 -24h-58q-28 0 -27 31q6 154 6 286v59h-226q-13 0 -21 8t-8 21v57q0 13 8 21t21 8h323z" glyph-name="uni0136" unicode="Ķ" vert-adv-y="1980"/>
<glyph d="M212 0q-13 0 -21.5 8.5t-8.5 21.5v1280q0 14 8.5 22t21.5 8h68q14 0 22 -8t8 -22v-1189h738q14 0 22 -8t8 -22v-61q0 -13 -8 -21.5t-22 -8.5h-836z" glyph-name="L" unicode="L" vert-adv-y="1980"/>
<glyph d="M212 0q-13 0 -21.5 8.5t-8.5 21.5v1280q0 14 8.5 22t21.5 8h68q14 0 22 -8t8 -22v-1189h738q14 0 22 -8t8 -22v-61q0 -13 -8 -21.5t-22 -8.5h-836zM219 1510q-13 0 -20.5 5t-7.5 15q0 4 4 14l120 252q6 13 14 18.5t20 5.5h39q13 0 20.5 -5t7.5 -15q0 -4 -4 -14l-120 -252 q-6 -13 -14 -18.5t-20 -5.5h-39z" glyph-name="Lacute" unicode="Ĺ" vert-adv-y="1980"/>
<glyph d="M212 0q-13 0 -21.5 8.5t-8.5 21.5v1280q0 14 8.5 22t21.5 8h68q14 0 22 -8t8 -22v-1189h738q14 0 22 -8t8 -22v-61q0 -13 -8 -21.5t-22 -8.5h-836zM863 1340q14 0 22 -8t8 -22v-29q0 -225 -18 -427q-1 -24 -31 -24h-61q-15 0 -21.5 7.5t-5.5 24.5q6 160 6 297v61h-235 q-13 0 -21.5 8.5t-8.5 21.5v60q0 14 8.5 22t21.5 8h336z" glyph-name="Lcaron" unicode="Ľ" vert-adv-y="1980"/>
<glyph d="M212 0q-13 0 -21.5 8.5t-8.5 21.5v1280q0 14 8.5 22t21.5 8h68q14 0 22 -8t8 -22v-1189h738q14 0 22 -8t8 -22v-61q0 -13 -8 -21.5t-22 -8.5h-836zM771 -154q13 0 21 -8t8 -21v-28q0 -206 -17 -410q-3 -24 -30 -24h-58q-28 0 -27 31q6 154 6 286v59h-226q-13 0 -21 8 t-8 21v57q0 13 8 21t21 8h323z" glyph-name="uni013B" unicode="Ļ" vert-adv-y="1980"/>
<glyph d="M212 0q-13 0 -21.5 8.5t-8.5 21.5v1280q0 14 8.5 22t21.5 8h68q14 0 22 -8t8 -22v-1189h738q14 0 22 -8t8 -22v-61q0 -13 -8 -21.5t-22 -8.5h-836zM641.5 657q-36.5 21 -57 57t-20.5 80t20.5 80t57 57t80.5 21t80.5 -21t57 -57t20.5 -80t-20.5 -80t-57 -57t-80.5 -21 t-80.5 21z" glyph-name="Ldot" unicode="Ŀ" vert-adv-y="1980"/>
<glyph d="M1003 121q14 0 22 -8t8 -22v-61q0 -13 -8 -21.5t-22 -8.5h-756q-13 0 -21.5 8.5t-8.5 21.5v478l-101 -98q-11 -11 -20 -11q-8 0 -12 7t-4 20v80q0 22 16 38l121 117v709q0 14 8.5 22t21.5 8h68q14 0 22 -8t8 -22v-585l198 192q11 11 20 11q8 0 12 -7t4 -20v-78 q0 -22 -16 -38l-218 -212v-512h658z" glyph-name="Lslash" unicode="Ł" vert-adv-y="1980"/>
<glyph d="M175 0q-13 0 -21.5 8.5t-8.5 21.5v1280q0 14 8.5 22t21.5 8h110q13 0 23 -5t13 -15l289 -1089h10l289 1089q3 10 13 15t23 5h111q14 0 22 -8t8 -22v-1280q0 -13 -8 -21.5t-22 -8.5h-62q-13 0 -21.5 8.5t-8.5 21.5v1031h-11l-255 -939q-5 -22 -33 -22h-100q-27 0 -33 22 l-255 939h-11v-1031q0 -13 -8 -21.5t-22 -8.5h-61z" glyph-name="M" unicode="M" vert-adv-y="1980"/>
<glyph d="M1037 1340q14 0 22 -8t8 -22v-1280q0 -13 -8 -21.5t-22 -8.5h-115q-25 0 -36 20l-599 1166v-1156q0 -13 -8 -21.5t-22 -8.5h-64q-13 0 -21.5 8.5t-8.5 21.5v1280q0 14 8.5 22t21.5 8h117q26 0 36 -20l597 -1161v1151q0 14 8.5 22t21.5 8h64z" glyph-name="N" unicode="N" vert-adv-y="1980"/>
<glyph d="M1037 1340q14 0 22 -8t8 -22v-1280q0 -13 -8 -21.5t-22 -8.5h-115q-25 0 -36 20l-599 1166v-1156q0 -13 -8 -21.5t-22 -8.5h-64q-13 0 -21.5 8.5t-8.5 21.5v1280q0 14 8.5 22t21.5 8h117q26 0 36 -20l597 -1161v1151q0 14 8.5 22t21.5 8h64zM601 1536q-13 0 -20.5 5 t-7.5 15q0 4 4 14l120 252q6 13 14 18.5t20 5.5h39q13 0 20.5 -5t7.5 -15q0 -4 -4 -14l-120 -252q-6 -13 -14 -18.5t-20 -5.5h-39z" glyph-name="Nacute" unicode="Ń" vert-adv-y="1980"/>
<glyph d="M1037 1340q14 0 22 -8t8 -22v-1280q0 -13 -8 -21.5t-22 -8.5h-115q-25 0 -36 20l-599 1166v-1156q0 -13 -8 -21.5t-22 -8.5h-64q-13 0 -21.5 8.5t-8.5 21.5v1280q0 14 8.5 22t21.5 8h117q26 0 36 -20l597 -1161v1151q0 14 8.5 22t21.5 8h64zM568 1545q-23 0 -36 16 l-219 249q-9 9 -9 19q0 7 6.5 12t18.5 5h67q21 0 36 -16l183 -202l183 202q15 16 36 16h67q12 0 18.5 -5t6.5 -12q0 -10 -9 -19l-219 -249q-13 -16 -36 -16h-94z" glyph-name="Ncaron" unicode="Ň" vert-adv-y="1980"/>
<glyph d="M1037 1340q14 0 22 -8t8 -22v-1280q0 -13 -8 -21.5t-22 -8.5h-115q-25 0 -36 20l-599 1166v-1156q0 -13 -8 -21.5t-22 -8.5h-64q-13 0 -21.5 8.5t-8.5 21.5v1280q0 14 8.5 22t21.5 8h117q26 0 36 -20l597 -1161v1151q0 14 8.5 22t21.5 8h64zM771 -154q13 0 21 -8t8 -21 v-28q0 -206 -17 -410q-3 -24 -30 -24h-58q-28 0 -27 31q6 154 6 286v59h-226q-13 0 -21 8t-8 21v57q0 13 8 21t21 8h323z" glyph-name="uni0145" unicode="Ņ" vert-adv-y="1980"/>
<glyph d="M1037 1340q14 0 22 -8t8 -22v-1310q0 -204 -117.5 -305.5t-355.5 -101.5v122q176 0 262.5 70t86.5 215h-21q-25 0 -36 20l-599 1166v-1156q0 -13 -8 -21.5t-22 -8.5h-64q-13 0 -21.5 8.5t-8.5 21.5v1280q0 14 8.5 22t21.5 8h117q26 0 36 -20l597 -1161v1151q0 14 8.5 22 t21.5 8h64z" glyph-name="Eng" unicode="Ŋ" vert-adv-y="1980"/>
<glyph d="M1037 1340q14 0 22 -8t8 -22v-1280q0 -13 -8 -21.5t-22 -8.5h-115q-25 0 -36 20l-599 1166v-1156q0 -13 -8 -21.5t-22 -8.5h-64q-13 0 -21.5 8.5t-8.5 21.5v1280q0 14 8.5 22t21.5 8h117q26 0 36 -20l597 -1161v1151q0 14 8.5 22t21.5 8h64zM665 1634.5 q-37 21.5 -80 62.5q-33 31 -55.5 45.5t-51.5 14.5q-35 0 -58.5 -19t-31.5 -44q-6 -19 -24 -19h-57q-20 0 -19 24q6 70 58.5 113t128.5 43q41 0 72.5 -12t53 -29t49.5 -44q31 -30 53.5 -44.5t51.5 -14.5q34 0 57 19t32 44q6 19 23 19h58q10 0 16 -5.5t5 -15.5 q-7 -72 -60 -115.5t-127 -43.5q-57 0 -94 21.5z" glyph-name="Ntilde" unicode="Ñ" vert-adv-y="1980"/>
<glyph d="M355.5 34.5q-106.5 64.5 -166 218t-59.5 412.5t59.5 412.5t166 218t259.5 64.5t260 -64.5t166.5 -218t59.5 -412.5t-59.5 -412.5t-166.5 -218t-260 -64.5t-259.5 64.5zM803.5 142q78.5 47 124.5 172.5t46 350.5t-46 350.5t-124.5 172.5t-188.5 47t-188.5 -47 t-124.5 -172.5t-46 -350.5t46 -350.5t124.5 -172.5t188.5 -47t188.5 47z" glyph-name="O" unicode="O" vert-adv-y="1980"/>
<glyph d="M355.5 34.5q-106.5 64.5 -166 218t-59.5 412.5t59.5 412.5t166 218t259.5 64.5t260 -64.5t166.5 -218t59.5 -412.5t-59.5 -412.5t-166.5 -218t-260 -64.5t-259.5 64.5zM803.5 142q78.5 47 124.5 172.5t46 350.5t-46 350.5t-124.5 172.5t-188.5 47t-188.5 -47 t-124.5 -172.5t-46 -350.5t46 -350.5t124.5 -172.5t188.5 -47t188.5 47zM601 1536q-13 0 -20.5 5t-7.5 15q0 4 4 14l120 252q6 13 14 18.5t20 5.5h39q13 0 20.5 -5t7.5 -15q0 -4 -4 -14l-120 -252q-6 -13 -14 -18.5t-20 -5.5h-39z" glyph-name="Oacute" unicode="Ó" vert-adv-y="1980"/>
<glyph d="M355.5 34.5q-106.5 64.5 -166 218t-59.5 412.5t59.5 412.5t166 218t259.5 64.5t260 -64.5t166.5 -218t59.5 -412.5t-59.5 -412.5t-166.5 -218t-260 -64.5t-259.5 64.5zM803.5 142q78.5 47 124.5 172.5t46 350.5t-46 350.5t-124.5 172.5t-188.5 47t-188.5 -47 t-124.5 -172.5t-46 -350.5t46 -350.5t124.5 -172.5t188.5 -47t188.5 47zM568 1545q-23 0 -36 16l-219 249q-9 9 -9 19q0 7 6.5 12t18.5 5h67q21 0 36 -16l183 -202l183 202q15 16 36 16h67q12 0 18.5 -5t6.5 -12q0 -10 -9 -19l-219 -249q-13 -16 -36 -16h-94z" glyph-name="uni01D1" unicode="Ǒ" vert-adv-y="1980"/>
<glyph d="M355.5 34.5q-106.5 64.5 -166 218t-59.5 412.5t59.5 412.5t166 218t259.5 64.5t260 -64.5t166.5 -218t59.5 -412.5t-59.5 -412.5t-166.5 -218t-260 -64.5t-259.5 64.5zM803.5 142q78.5 47 124.5 172.5t46 350.5t-46 350.5t-124.5 172.5t-188.5 47t-188.5 -47 t-124.5 -172.5t-46 -350.5t46 -350.5t124.5 -172.5t188.5 -47t188.5 47zM329 1545q-12 0 -18.5 4.5t-6.5 12.5q0 9 9 19l219 249q15 16 36 16h94q21 0 36 -16l219 -249q9 -10 9 -19q0 -8 -6.5 -12.5t-18.5 -4.5h-67q-21 0 -36 16l-183 201l-183 -201q-15 -16 -36 -16h-67z " glyph-name="Ocircumflex" unicode="Ô" vert-adv-y="1980"/>
<glyph d="M355.5 34.5q-106.5 64.5 -166 218t-59.5 412.5t59.5 412.5t166 218t259.5 64.5t260 -64.5t166.5 -218t59.5 -412.5t-59.5 -412.5t-166.5 -218t-260 -64.5t-259.5 64.5zM803.5 142q78.5 47 124.5 172.5t46 350.5t-46 350.5t-124.5 172.5t-188.5 47t-188.5 -47 t-124.5 -172.5t-46 -350.5t46 -350.5t124.5 -172.5t188.5 -47t188.5 47zM387 1717q-23 23 -23 54q0 30 23 52.5t54 22.5t54 -22.5t23 -52.5q0 -31 -23 -54t-54 -23t-54 23zM737 1717q-23 23 -23 54q0 30 23 52.5t54 22.5q32 0 55 -22.5t23 -52.5q0 -31 -23 -54t-55 -23 q-31 0 -54 23z" glyph-name="Odieresis" unicode="Ö" vert-adv-y="1980"/>
<glyph d="M355.5 34.5q-106.5 64.5 -166 218t-59.5 412.5t59.5 412.5t166 218t259.5 64.5t260 -64.5t166.5 -218t59.5 -412.5t-59.5 -412.5t-166.5 -218t-260 -64.5t-259.5 64.5zM803.5 142q78.5 47 124.5 172.5t46 350.5t-46 350.5t-124.5 172.5t-188.5 47t-188.5 -47 t-124.5 -172.5t-46 -350.5t46 -350.5t124.5 -172.5t188.5 -47t188.5 47zM589 1536q-13 0 -21 5.5t-13 18.5l-120 252q-4 8 -4 15q0 9 7.5 14t20.5 5h39q12 0 20 -5.5t13 -18.5l121 -252q4 -10 4 -14q0 -10 -7.5 -15t-20.5 -5h-39z" glyph-name="Ograve" unicode="Ò" vert-adv-y="1980"/>
<glyph d="M355.5 34.5q-106.5 64.5 -166 218t-59.5 412.5t59.5 412.5t166 218t259.5 64.5t260 -64.5t166.5 -218t59.5 -412.5t-59.5 -412.5t-166.5 -218t-260 -64.5t-259.5 64.5zM803.5 142q78.5 47 124.5 172.5t46 350.5t-46 350.5t-124.5 172.5t-188.5 47t-188.5 -47 t-124.5 -172.5t-46 -350.5t46 -350.5t124.5 -172.5t188.5 -47t188.5 47zM707 1536q-13 0 -20.5 5t-7.5 15q0 4 4 14l120 252q6 13 14 18.5t20 5.5h39q13 0 20.5 -5t7.5 -15q0 -4 -4 -14l-120 -252q-6 -13 -14 -18.5t-20 -5.5h-39zM435 1536q-13 0 -20.5 5t-7.5 15q0 4 4 14 l120 252q6 13 14 18.5t20 5.5h39q13 0 20.5 -5t7.5 -15q0 -4 -4 -14l-120 -252q-6 -13 -14 -18.5t-20 -5.5h-39z" glyph-name="Ohungarumlaut" unicode="Ő" vert-adv-y="1980"/>
<glyph d="M355.5 34.5q-106.5 64.5 -166 218t-59.5 412.5t59.5 412.5t166 218t259.5 64.5t260 -64.5t166.5 -218t59.5 -412.5t-59.5 -412.5t-166.5 -218t-260 -64.5t-259.5 64.5zM803.5 142q78.5 47 124.5 172.5t46 350.5t-46 350.5t-124.5 172.5t-188.5 47t-188.5 -47 t-124.5 -172.5t-46 -350.5t46 -350.5t124.5 -172.5t188.5 -47t188.5 47zM370 1741q-13 0 -21.5 8.5t-8.5 21.5v45q0 14 8.5 22t21.5 8h491q14 0 22 -8t8 -22v-45q0 -13 -8 -21.5t-22 -8.5h-491z" glyph-name="Omacron" unicode="Ō" vert-adv-y="1980"/>
<glyph d="M813 -7q-92 -25 -135.5 -42t-67 -43.5t-23.5 -72.5q0 -69 49 -100t144 -31h15q20 0 20 -20v-51q0 -20 -20 -20h-54q-55 0 -114 17.5t-102.5 63t-43.5 124.5q0 103 86 154q-211 14 -324 173.5t-113 519.5q0 259 59.5 412.5t166 218t259.5 64.5t260 -64.5t166.5 -218 t59.5 -412.5q0 -290 -74 -448.5t-214 -213.5v-10zM302 314.5q46 -125.5 124.5 -172.5t188.5 -47t188.5 47t124.5 172.5t46 350.5t-46 350.5t-124.5 172.5t-188.5 47t-188.5 -47t-124.5 -172.5t-46 -350.5t46 -350.5z" glyph-name="uni01EA" unicode="Ǫ" vert-adv-y="1980"/>
<glyph d="M941 1242q78 -81 119 -222t41 -355q0 -259 -59.5 -412.5t-166.5 -218t-260 -64.5q-141 0 -240 53l-61 -131q-10 -22 -34 -22h-54q-12 0 -19 5.5t-7 14.5q0 8 4 16l85 183q-159 164 -159 576q0 259 59.5 412.5t166 218t259.5 64.5q144 0 240 -53l61 131q10 22 34 22h54 q12 0 19 -5.5t7 -14.5q0 -8 -4 -16zM349 219l452 971q-71 45 -186 45q-110 0 -188.5 -47t-124.5 -172.5t-46 -350.5q0 -310 93 -446zM803.5 142q78.5 47 124.5 172.5t46 350.5q0 310 -93 446l-452 -971q71 -45 186 -45q110 0 188.5 47z" glyph-name="Oslash" unicode="Ø" vert-adv-y="1980"/>
<glyph d="M355.5 34.5q-106.5 64.5 -166 218t-59.5 412.5t59.5 412.5t166 218t259.5 64.5t260 -64.5t166.5 -218t59.5 -412.5t-59.5 -412.5t-166.5 -218t-260 -64.5t-259.5 64.5zM803.5 142q78.5 47 124.5 172.5t46 350.5t-46 350.5t-124.5 172.5t-188.5 47t-188.5 -47 t-124.5 -172.5t-46 -350.5t46 -350.5t124.5 -172.5t188.5 -47t188.5 47zM665 1634.5q-37 21.5 -80 62.5q-33 31 -55.5 45.5t-51.5 14.5q-35 0 -58.5 -19t-31.5 -44q-6 -19 -24 -19h-57q-20 0 -19 24q6 70 58.5 113t128.5 43q41 0 72.5 -12t53 -29t49.5 -44 q31 -30 53.5 -44.5t51.5 -14.5q34 0 57 19t32 44q6 19 23 19h58q10 0 16 -5.5t5 -15.5q-7 -72 -60 -115.5t-127 -43.5q-57 0 -94 21.5z" glyph-name="Otilde" unicode="Õ" vert-adv-y="1980"/>
<glyph d="M1091 121q14 0 22 -8t8 -22v-61q0 -13 -8 -21.5t-22 -8.5h-496q-175 0 -279 55t-155 199t-51 411t51.5 413.5t155.5 204t278 57.5h494q14 0 22 -8t8 -22v-61q0 -13 -8 -21.5t-22 -8.5h-366v-470h314q14 0 22 -8t8 -22v-60q0 -13 -8 -21.5t-22 -8.5h-314v-508h368z M595 1221q-132 0 -207 -40.5t-113.5 -160.5t-38.5 -355q0 -240 38.5 -356.5t112 -152.5t208.5 -37v1102z" glyph-name="OE" unicode="Œ" vert-adv-y="1980"/>
<glyph d="M646 1340q223 0 332 -113t109 -310q0 -198 -108.5 -311t-332.5 -113h-346v-463q0 -13 -8 -21.5t-22 -8.5h-68q-13 0 -21.5 8.5t-8.5 21.5v1280q0 14 8.5 22t21.5 8h444zM624 614q165 0 251 69.5t86 233.5q0 163 -86 232.5t-251 69.5h-324v-605h324z" glyph-name="P" unicode="P" vert-adv-y="1980"/>
<glyph d="M610 1099q146 0 248 -56t153 -153t51 -220t-51 -220t-153 -153t-248 -56h-313v-211q0 -13 -8 -21.5t-22 -8.5h-68q-13 0 -21.5 8.5t-8.5 21.5v1280q0 14 8.5 22t21.5 8h68q14 0 22 -8t8 -22v-211h313zM598 362q154 0 246 75t92 233t-92 233t-246 75h-301v-616h301z" glyph-name="Thorn" unicode="Þ" vert-adv-y="1980"/>
<glyph d="M355.5 34.5q-106.5 64.5 -166 218t-59.5 412.5t59.5 412.5t166 218t259.5 64.5t260 -64.5t166.5 -218t59.5 -412.5t-59.5 -412.5t-166.5 -218t-260 -64.5t-259.5 64.5zM803.5 142q78.5 47 124.5 172.5t46 350.5t-46 350.5t-124.5 172.5t-188.5 47t-188.5 -47 t-124.5 -172.5t-46 -350.5t46 -350.5t124.5 -172.5t188.5 -47t188.5 47zM946.5 -308q-50.5 13 -122.5 40q-70 26 -122.5 39.5t-118.5 13.5q-32 0 -32 28v61q0 14 8 22.5t24 9.5l25 1q59 0 106.5 -13t113.5 -40q70 -28 119 -41.5t112 -13.5q32 0 32 -28v-61q0 -14 -8 -23 t-22 -9q-64 1 -114.5 14z" glyph-name="Q" unicode="Q" vert-adv-y="1980"/>
<glyph d="M1072 35q4 -8 4 -16q0 -19 -26 -19h-75q-23 0 -35 22l-256 472q-11 -1 -33 -1h-346v-463q0 -13 -8 -21.5t-22 -8.5h-68q-13 0 -21.5 8.5t-8.5 21.5v1280q0 14 8.5 22t21.5 8h444q223 0 332 -113t109 -310q0 -158 -69 -263t-211 -142zM629 614q165 0 251 69.5t86 233.5 q0 163 -86 232.5t-251 69.5h-324v-605h324z" glyph-name="R" unicode="R" vert-adv-y="1980"/>
<glyph d="M1072 35q4 -8 4 -16q0 -19 -26 -19h-75q-23 0 -35 22l-256 472q-11 -1 -33 -1h-346v-463q0 -13 -8 -21.5t-22 -8.5h-68q-13 0 -21.5 8.5t-8.5 21.5v1280q0 14 8.5 22t21.5 8h444q223 0 332 -113t109 -310q0 -158 -69 -263t-211 -142zM629 614q165 0 251 69.5t86 233.5 q0 163 -86 232.5t-251 69.5h-324v-605h324zM601 1536q-13 0 -20.5 5t-7.5 15q0 4 4 14l120 252q6 13 14 18.5t20 5.5h39q13 0 20.5 -5t7.5 -15q0 -4 -4 -14l-120 -252q-6 -13 -14 -18.5t-20 -5.5h-39z" glyph-name="Racute" unicode="Ŕ" vert-adv-y="1980"/>
<glyph d="M1072 35q4 -8 4 -16q0 -19 -26 -19h-75q-23 0 -35 22l-256 472q-11 -1 -33 -1h-346v-463q0 -13 -8 -21.5t-22 -8.5h-68q-13 0 -21.5 8.5t-8.5 21.5v1280q0 14 8.5 22t21.5 8h444q223 0 332 -113t109 -310q0 -158 -69 -263t-211 -142zM629 614q165 0 251 69.5t86 233.5 q0 163 -86 232.5t-251 69.5h-324v-605h324zM568 1545q-23 0 -36 16l-219 249q-9 9 -9 19q0 7 6.5 12t18.5 5h67q21 0 36 -16l183 -202l183 202q15 16 36 16h67q12 0 18.5 -5t6.5 -12q0 -10 -9 -19l-219 -249q-13 -16 -36 -16h-94z" glyph-name="Rcaron" unicode="Ř" vert-adv-y="1980"/>
<glyph d="M1072 35q4 -8 4 -16q0 -19 -26 -19h-75q-23 0 -35 22l-256 472q-11 -1 -33 -1h-346v-463q0 -13 -8 -21.5t-22 -8.5h-68q-13 0 -21.5 8.5t-8.5 21.5v1280q0 14 8.5 22t21.5 8h444q223 0 332 -113t109 -310q0 -158 -69 -263t-211 -142zM629 614q165 0 251 69.5t86 233.5 q0 163 -86 232.5t-251 69.5h-324v-605h324zM771 -154q13 0 21 -8t8 -21v-28q0 -206 -17 -410q-3 -24 -30 -24h-58q-28 0 -27 31q6 154 6 286v59h-226q-13 0 -21 8t-8 21v57q0 13 8 21t21 8h323z" glyph-name="uni0156" unicode="Ŗ" vert-adv-y="1980"/>
<glyph d="M273.5 57q-123.5 87 -137.5 245q-2 15 6.5 26t21.5 11h70q13 0 21 -9t10 -22q5 -60 46 -110.5t119 -80.5t189 -30q160 0 254 65t94 193q0 88 -42 138.5t-115.5 79.5t-215.5 65q-140 36 -232 81.5t-143.5 119t-51.5 183.5q0 105 50.5 183.5t149.5 121.5t242 43 q199 0 317.5 -84.5t132.5 -237.5q3 -28 -28 -28h-66q-27 0 -30 22q-6 60 -47 108t-114 76t-171 28q-143 0 -228 -57.5t-85 -173.5q0 -69 33 -117.5t104 -84.5t191 -66q162 -40 260.5 -82.5t157 -118t58.5 -199.5q0 -113 -54 -197.5t-162 -131t-267 -46.5q-214 0 -337.5 87z " glyph-name="S" unicode="S" vert-adv-y="1980"/>
<glyph d="M273.5 57q-123.5 87 -137.5 245q-2 15 6.5 26t21.5 11h70q13 0 21 -9t10 -22q5 -60 46 -110.5t119 -80.5t189 -30q160 0 254 65t94 193q0 88 -42 138.5t-115.5 79.5t-215.5 65q-140 36 -232 81.5t-143.5 119t-51.5 183.5q0 105 50.5 183.5t149.5 121.5t242 43 q199 0 317.5 -84.5t132.5 -237.5q3 -28 -28 -28h-66q-27 0 -30 22q-6 60 -47 108t-114 76t-171 28q-143 0 -228 -57.5t-85 -173.5q0 -69 33 -117.5t104 -84.5t191 -66q162 -40 260.5 -82.5t157 -118t58.5 -199.5q0 -113 -54 -197.5t-162 -131t-267 -46.5q-214 0 -337.5 87z M593 1536q-13 0 -20.5 5t-7.5 15q0 4 4 14l120 252q6 13 14 18.5t20 5.5h39q13 0 20.5 -5t7.5 -15q0 -4 -4 -14l-120 -252q-6 -13 -14 -18.5t-20 -5.5h-39z" glyph-name="Sacute" unicode="Ś" vert-adv-y="1980"/>
<glyph d="M273.5 57q-123.5 87 -137.5 245q-2 15 6.5 26t21.5 11h70q13 0 21 -9t10 -22q5 -60 46 -110.5t119 -80.5t189 -30q160 0 254 65t94 193q0 88 -42 138.5t-115.5 79.5t-215.5 65q-140 36 -232 81.5t-143.5 119t-51.5 183.5q0 105 50.5 183.5t149.5 121.5t242 43 q199 0 317.5 -84.5t132.5 -237.5q3 -28 -28 -28h-66q-27 0 -30 22q-6 60 -47 108t-114 76t-171 28q-143 0 -228 -57.5t-85 -173.5q0 -69 33 -117.5t104 -84.5t191 -66q162 -40 260.5 -82.5t157 -118t58.5 -199.5q0 -113 -54 -197.5t-162 -131t-267 -46.5q-214 0 -337.5 87z M560 1545q-23 0 -36 16l-219 249q-9 9 -9 19q0 7 6.5 12t18.5 5h67q21 0 36 -16l183 -202l183 202q15 16 36 16h67q12 0 18.5 -5t6.5 -12q0 -10 -9 -19l-219 -249q-13 -16 -36 -16h-94z" glyph-name="Scaron" unicode="Š" vert-adv-y="1980"/>
<glyph d="M1044.5 154q-49.5 -82 -149.5 -130t-247 -53l-47 -50q67 -6 112 -47.5t45 -105.5q0 -65 -31.5 -108t-83 -63.5t-112.5 -20.5q-37 0 -63 5q-18 3 -18 22v47q0 9 6 15t16 5q23 -4 49 -4q61 0 96 24.5t35 67.5q0 35 -29.5 57.5t-74.5 22.5q-36 0 -74 -16q-4 -2 -10 -2 q-14 0 -14 16v41q0 11 10 24l66 73q-176 16 -276.5 101.5t-113.5 226.5q-2 15 6.5 26t21.5 11h70q13 0 21 -9t10 -22q5 -60 46 -110.5t119 -80.5t189 -30q160 0 254 65t94 193q0 88 -42 138.5t-115.5 79.5t-215.5 65q-140 36 -232 81.5t-143.5 119t-51.5 183.5 q0 105 50.5 183.5t149.5 121.5t242 43q199 0 317.5 -84.5t132.5 -237.5q3 -28 -28 -28h-66q-27 0 -30 22q-6 60 -47 108t-114 76t-171 28q-143 0 -228 -57.5t-85 -173.5q0 -69 33 -117.5t104 -84.5t191 -66q162 -40 260.5 -82.5t157 -118t58.5 -199.5q0 -109 -49.5 -191z " glyph-name="Scedilla" unicode="Ş" vert-adv-y="1980"/>
<glyph d="M273.5 57q-123.5 87 -137.5 245q-2 15 6.5 26t21.5 11h70q13 0 21 -9t10 -22q5 -60 46 -110.5t119 -80.5t189 -30q160 0 254 65t94 193q0 88 -42 138.5t-115.5 79.5t-215.5 65q-140 36 -232 81.5t-143.5 119t-51.5 183.5q0 105 50.5 183.5t149.5 121.5t242 43 q199 0 317.5 -84.5t132.5 -237.5q3 -28 -28 -28h-66q-27 0 -30 22q-6 60 -47 108t-114 76t-171 28q-143 0 -228 -57.5t-85 -173.5q0 -69 33 -117.5t104 -84.5t191 -66q162 -40 260.5 -82.5t157 -118t58.5 -199.5q0 -113 -54 -197.5t-162 -131t-267 -46.5q-214 0 -337.5 87z M759 -154q13 0 21 -8t8 -21v-28q0 -206 -17 -410q-3 -24 -30 -24h-58q-28 0 -27 31q6 154 6 286v59h-226q-13 0 -21 8t-8 21v57q0 13 8 21t21 8h323z" glyph-name="uni0218" unicode="Ș" vert-adv-y="1980"/>
<glyph d="M670 818q231 -18 356.5 -127t125.5 -307q0 -129 -52.5 -221.5t-148 -140.5t-222.5 -48q-117 0 -206 40t-138.5 116.5t-49.5 182.5q0 31 29 31h53q28 0 30 -29q3 -65 37.5 -116.5t98 -81t150.5 -29.5q93 0 160 35.5t102.5 102t35.5 156.5q0 166 -123.5 249.5t-351.5 83.5 q-15 0 -22.5 8t-7.5 22v75l340 399h-379q-99 0 -155.5 -30t-79 -84t-22.5 -134v-941q0 -13 -8 -21.5t-22 -8.5h-68q-13 0 -21.5 8.5t-8.5 21.5v949q0 176 85 268.5t292 92.5h581q13 0 20 -5.5t7 -13.5q0 -7 -8 -18z" glyph-name="uni1E9E" unicode="ẞ" vert-adv-y="1980"/>
<glyph d="M898 1301.5q105 -58.5 156 -208.5t51 -428t-51.5 -428t-156.5 -208.5t-285 -58.5q-169 0 -276 58.5t-158.5 178t-51.5 306.5v96q0 14 8.5 22t21.5 8h822v26q0 246 -39.5 369.5t-115 163t-207.5 39.5q-107 0 -173 -16.5t-105 -61t-53 -127.5q-2 -13 -11.5 -19.5 t-22.5 -6.5h-67q-31 0 -26 35q19 120 73.5 189.5t147.5 99.5t236 30q178 0 283 -58.5zM804 123.5q72 30.5 115.5 122.5t54.5 274h-729v-7q0 -158 37 -249t117 -131t213 -40q120 0 192 30.5z" glyph-name="uni018F" unicode="Ə" vert-adv-y="1980"/>
<glyph d="M581 0q-13 0 -21.5 8.5t-8.5 21.5v1189h-421q-13 0 -21.5 8.5t-8.5 21.5v61q0 14 8.5 22t21.5 8h970q14 0 22 -8t8 -22v-61q0 -13 -8 -21.5t-22 -8.5h-421v-1189q0 -13 -8 -21.5t-22 -8.5h-68z" glyph-name="T" unicode="T" vert-adv-y="1980"/>
<glyph d="M1100 1340q14 0 22 -8t8 -22v-61q0 -13 -8 -21.5t-22 -8.5h-421v-284h240q14 0 22 -8t8 -22v-45q0 -13 -8 -21.5t-22 -8.5h-240v-800q0 -13 -8 -21.5t-22 -8.5h-68q-13 0 -21.5 8.5t-8.5 21.5v800h-240q-13 0 -21.5 8.5t-8.5 21.5v45q0 14 8.5 22t21.5 8h240v284h-421 q-13 0 -21.5 8.5t-8.5 21.5v61q0 14 8.5 22t21.5 8h970z" glyph-name="Tbar" unicode="Ŧ" vert-adv-y="1980"/>
<glyph d="M581 0q-13 0 -21.5 8.5t-8.5 21.5v1189h-421q-13 0 -21.5 8.5t-8.5 21.5v61q0 14 8.5 22t21.5 8h970q14 0 22 -8t8 -22v-61q0 -13 -8 -21.5t-22 -8.5h-421v-1189q0 -13 -8 -21.5t-22 -8.5h-68zM568 1545q-23 0 -36 16l-219 249q-9 9 -9 19q0 7 6.5 12t18.5 5h67 q21 0 36 -16l183 -202l183 202q15 16 36 16h67q12 0 18.5 -5t6.5 -12q0 -10 -9 -19l-219 -249q-13 -16 -36 -16h-94z" glyph-name="Tcaron" unicode="Ť" vert-adv-y="1980"/>
<glyph d="M581 0q-13 0 -21.5 8.5t-8.5 21.5v1189h-421q-13 0 -21.5 8.5t-8.5 21.5v61q0 14 8.5 22t21.5 8h970q14 0 22 -8t8 -22v-61q0 -13 -8 -21.5t-22 -8.5h-421v-1189q0 -13 -8 -21.5t-22 -8.5h-68zM614 -79q67 -6 112 -47.5t45 -105.5q0 -65 -31.5 -108t-83 -63.5 t-112.5 -20.5q-37 0 -63 5q-18 3 -18 22v47q0 9 6 15t16 5q23 -4 49 -4q61 0 96 24.5t35 67.5q0 35 -29.5 57.5t-74.5 22.5q-36 0 -74 -16q-4 -2 -10 -2q-14 0 -14 16v41q0 11 10 24l90 99h126z" glyph-name="uni0162" unicode="Ţ" vert-adv-y="1980"/>
<glyph d="M581 0q-13 0 -21.5 8.5t-8.5 21.5v1189h-421q-13 0 -21.5 8.5t-8.5 21.5v61q0 14 8.5 22t21.5 8h970q14 0 22 -8t8 -22v-61q0 -13 -8 -21.5t-22 -8.5h-421v-1189q0 -13 -8 -21.5t-22 -8.5h-68zM771 -154q13 0 21 -8t8 -21v-28q0 -206 -17 -410q-3 -24 -30 -24h-58 q-28 0 -27 31q6 154 6 286v59h-226q-13 0 -21 8t-8 21v57q0 13 8 21t21 8h323z" glyph-name="uni021A" unicode="Ț" vert-adv-y="1980"/>
<glyph d="M369.5 21.5q-104.5 51.5 -162 153.5t-57.5 249v886q0 14 8.5 22t21.5 8h68q14 0 22 -8t8 -22v-873q0 -162 88.5 -253t248.5 -91t248.5 91t88.5 253v873q0 14 8.5 22t21.5 8h69q14 0 22 -8t8 -22v-886q0 -147 -57.5 -249t-162.5 -153.5t-246 -51.5t-245.5 51.5z" glyph-name="U" unicode="U" vert-adv-y="1980"/>
<glyph d="M369.5 21.5q-104.5 51.5 -162 153.5t-57.5 249v886q0 14 8.5 22t21.5 8h68q14 0 22 -8t8 -22v-873q0 -162 88.5 -253t248.5 -91t248.5 91t88.5 253v873q0 14 8.5 22t21.5 8h69q14 0 22 -8t8 -22v-886q0 -147 -57.5 -249t-162.5 -153.5t-246 -51.5t-245.5 51.5zM601 1536 q-13 0 -20.5 5t-7.5 15q0 4 4 14l120 252q6 13 14 18.5t20 5.5h39q13 0 20.5 -5t7.5 -15q0 -4 -4 -14l-120 -252q-6 -13 -14 -18.5t-20 -5.5h-39z" glyph-name="Uacute" unicode="Ú" vert-adv-y="1980"/>
<glyph d="M369.5 21.5q-104.5 51.5 -162 153.5t-57.5 249v886q0 14 8.5 22t21.5 8h68q14 0 22 -8t8 -22v-873q0 -162 88.5 -253t248.5 -91t248.5 91t88.5 253v873q0 14 8.5 22t21.5 8h69q14 0 22 -8t8 -22v-886q0 -147 -57.5 -249t-162.5 -153.5t-246 -51.5t-245.5 51.5zM479 1606 q-59 31 -93.5 85.5t-41.5 124.5q-3 30 28 30h38q26 0 32 -28q14 -63 58.5 -101.5t114.5 -38.5t114.5 38.5t58.5 101.5q6 28 32 28h38q31 0 28 -30q-7 -70 -41.5 -124.5t-93.5 -85.5t-136 -31t-136 31z" glyph-name="Ubreve" unicode="Ŭ" vert-adv-y="1980"/>
<glyph d="M369.5 21.5q-104.5 51.5 -162 153.5t-57.5 249v886q0 14 8.5 22t21.5 8h68q14 0 22 -8t8 -22v-873q0 -162 88.5 -253t248.5 -91t248.5 91t88.5 253v873q0 14 8.5 22t21.5 8h69q14 0 22 -8t8 -22v-886q0 -147 -57.5 -249t-162.5 -153.5t-246 -51.5t-245.5 51.5zM568 1545 q-23 0 -36 16l-219 249q-9 9 -9 19q0 7 6.5 12t18.5 5h67q21 0 36 -16l183 -202l183 202q15 16 36 16h67q12 0 18.5 -5t6.5 -12q0 -10 -9 -19l-219 -249q-13 -16 -36 -16h-94z" glyph-name="uni01D3" unicode="Ǔ" vert-adv-y="1980"/>
<glyph d="M369.5 21.5q-104.5 51.5 -162 153.5t-57.5 249v886q0 14 8.5 22t21.5 8h68q14 0 22 -8t8 -22v-873q0 -162 88.5 -253t248.5 -91t248.5 91t88.5 253v873q0 14 8.5 22t21.5 8h69q14 0 22 -8t8 -22v-886q0 -147 -57.5 -249t-162.5 -153.5t-246 -51.5t-245.5 51.5zM329 1545 q-12 0 -18.5 4.5t-6.5 12.5q0 9 9 19l219 249q15 16 36 16h94q21 0 36 -16l219 -249q9 -10 9 -19q0 -8 -6.5 -12.5t-18.5 -4.5h-67q-21 0 -36 16l-183 201l-183 -201q-15 -16 -36 -16h-67z" glyph-name="Ucircumflex" unicode="Û" vert-adv-y="1980"/>
<glyph d="M369.5 21.5q-104.5 51.5 -162 153.5t-57.5 249v886q0 14 8.5 22t21.5 8h68q14 0 22 -8t8 -22v-873q0 -162 88.5 -253t248.5 -91t248.5 91t88.5 253v873q0 14 8.5 22t21.5 8h69q14 0 22 -8t8 -22v-886q0 -147 -57.5 -249t-162.5 -153.5t-246 -51.5t-245.5 51.5zM387 1717 q-23 23 -23 54q0 30 23 52.5t54 22.5t54 -22.5t23 -52.5q0 -31 -23 -54t-54 -23t-54 23zM737 1717q-23 23 -23 54q0 30 23 52.5t54 22.5q32 0 55 -22.5t23 -52.5q0 -31 -23 -54t-55 -23q-31 0 -54 23z" glyph-name="Udieresis" unicode="Ü" vert-adv-y="1980"/>
<glyph d="M369.5 21.5q-104.5 51.5 -162 153.5t-57.5 249v886q0 14 8.5 22t21.5 8h68q14 0 22 -8t8 -22v-873q0 -162 88.5 -253t248.5 -91t248.5 91t88.5 253v873q0 14 8.5 22t21.5 8h69q14 0 22 -8t8 -22v-886q0 -147 -57.5 -249t-162.5 -153.5t-246 -51.5t-245.5 51.5zM589 1536 q-13 0 -21 5.5t-13 18.5l-120 252q-4 8 -4 15q0 9 7.5 14t20.5 5h39q12 0 20 -5.5t13 -18.5l121 -252q4 -10 4 -14q0 -10 -7.5 -15t-20.5 -5h-39z" glyph-name="Ugrave" unicode="Ù" vert-adv-y="1980"/>
<glyph d="M369.5 21.5q-104.5 51.5 -162 153.5t-57.5 249v886q0 14 8.5 22t21.5 8h68q14 0 22 -8t8 -22v-873q0 -162 88.5 -253t248.5 -91t248.5 91t88.5 253v873q0 14 8.5 22t21.5 8h69q14 0 22 -8t8 -22v-886q0 -147 -57.5 -249t-162.5 -153.5t-246 -51.5t-245.5 51.5zM707 1536 q-13 0 -20.5 5t-7.5 15q0 4 4 14l120 252q6 13 14 18.5t20 5.5h39q13 0 20.5 -5t7.5 -15q0 -4 -4 -14l-120 -252q-6 -13 -14 -18.5t-20 -5.5h-39zM435 1536q-13 0 -20.5 5t-7.5 15q0 4 4 14l120 252q6 13 14 18.5t20 5.5h39q13 0 20.5 -5t7.5 -15q0 -4 -4 -14l-120 -252 q-6 -13 -14 -18.5t-20 -5.5h-39z" glyph-name="Uhungarumlaut" unicode="Ű" vert-adv-y="1980"/>
<glyph d="M369.5 21.5q-104.5 51.5 -162 153.5t-57.5 249v886q0 14 8.5 22t21.5 8h68q14 0 22 -8t8 -22v-873q0 -162 88.5 -253t248.5 -91t248.5 91t88.5 253v873q0 14 8.5 22t21.5 8h69q14 0 22 -8t8 -22v-886q0 -147 -57.5 -249t-162.5 -153.5t-246 -51.5t-245.5 51.5zM370 1741 q-13 0 -21.5 8.5t-8.5 21.5v45q0 14 8.5 22t21.5 8h491q14 0 22 -8t8 -22v-45q0 -13 -8 -21.5t-22 -8.5h-491z" glyph-name="Umacron" unicode="Ū" vert-adv-y="1980"/>
<glyph d="M1051 1340q14 0 22 -8t8 -22v-886q0 -168 -75 -277.5t-211 -151.5v-2q-81 -20 -124.5 -38t-66 -46t-22.5 -74q0 -69 49 -100t144 -31h15q20 0 20 -20v-51q0 -20 -20 -20h-54q-55 0 -114 17.5t-102.5 63t-43.5 124.5q0 105 84 154q-126 10 -218 64.5t-142 152.5t-50 235 v886q0 14 8.5 22t21.5 8h68q14 0 22 -8t8 -22v-873q0 -162 88.5 -253t248.5 -91t248.5 91t88.5 253v873q0 14 8.5 22t21.5 8h69z" glyph-name="Uogonek" unicode="Ų" vert-adv-y="1980"/>
<glyph d="M369.5 21.5q-104.5 51.5 -162 153.5t-57.5 249v886q0 14 8.5 22t21.5 8h68q14 0 22 -8t8 -22v-873q0 -162 88.5 -253t248.5 -91t248.5 91t88.5 253v873q0 14 8.5 22t21.5 8h69q14 0 22 -8t8 -22v-886q0 -147 -57.5 -249t-162.5 -153.5t-246 -51.5t-245.5 51.5zM529 1533 q-39 23 -61.5 61.5t-22.5 83.5t22.5 83.5t61.5 61.5t86 23t86 -23t61.5 -61.5t22.5 -83.5t-22.5 -83.5t-61.5 -61.5t-86 -23t-86 23zM670 1622.5q23 22.5 24 54.5q0 33 -23 55.5t-56 22.5t-56.5 -22.5t-23.5 -55.5q0 -32 23.5 -54.5t56.5 -22.5q32 0 55 22.5z" glyph-name="Uring" unicode="Ů" vert-adv-y="1980"/>
<glyph d="M537 0q-13 0 -23 6.5t-14 17.5l-426 1282q-2 8 -2 12q0 10 7 16t19 6h65q26 0 34 -24l392 -1185h52l392 1185q8 24 34 24h65q12 0 19 -6t7 -16q0 -4 -2 -12l-426 -1282q-4 -11 -14 -17.5t-23 -6.5h-156z" glyph-name="V" unicode="V" vert-adv-y="1980"/>
<glyph d="M1128 1340q29 0 24 -34l-192 -1282q-1 -11 -11.5 -17.5t-23.5 -6.5h-101q-13 0 -23.5 6.5t-12.5 17.5l-173 918l-173 -918q-2 -11 -12.5 -17.5t-23.5 -6.5h-101q-13 0 -23.5 6.5t-11.5 17.5l-192 1282q-1 3 -1 10q0 24 25 24h66q14 0 23.5 -5.5t10.5 -18.5l160 -1166 l197 1046q4 24 34 24h44q30 0 34 -24l197 -1046l160 1166q1 13 11 18.5t23 5.5h66z" glyph-name="W" unicode="W" vert-adv-y="1980"/>
<glyph d="M1128 1340q29 0 24 -34l-192 -1282q-1 -11 -11.5 -17.5t-23.5 -6.5h-101q-13 0 -23.5 6.5t-12.5 17.5l-173 918l-173 -918q-2 -11 -12.5 -17.5t-23.5 -6.5h-101q-13 0 -23.5 6.5t-11.5 17.5l-192 1282q-1 3 -1 10q0 24 25 24h66q14 0 23.5 -5.5t10.5 -18.5l160 -1166 l197 1046q4 24 34 24h44q30 0 34 -24l197 -1046l160 1166q1 13 11 18.5t23 5.5h66zM601 1536q-13 0 -20.5 5t-7.5 15q0 4 4 14l120 252q6 13 14 18.5t20 5.5h39q13 0 20.5 -5t7.5 -15q0 -4 -4 -14l-120 -252q-6 -13 -14 -18.5t-20 -5.5h-39z" glyph-name="Wacute" unicode="Ẃ" vert-adv-y="1980"/>
<glyph d="M1128 1340q29 0 24 -34l-192 -1282q-1 -11 -11.5 -17.5t-23.5 -6.5h-101q-13 0 -23.5 6.5t-12.5 17.5l-173 918l-173 -918q-2 -11 -12.5 -17.5t-23.5 -6.5h-101q-13 0 -23.5 6.5t-11.5 17.5l-192 1282q-1 3 -1 10q0 24 25 24h66q14 0 23.5 -5.5t10.5 -18.5l160 -1166 l197 1046q4 24 34 24h44q30 0 34 -24l197 -1046l160 1166q1 13 11 18.5t23 5.5h66zM329 1545q-12 0 -18.5 4.5t-6.5 12.5q0 9 9 19l219 249q15 16 36 16h94q21 0 36 -16l219 -249q9 -10 9 -19q0 -8 -6.5 -12.5t-18.5 -4.5h-67q-21 0 -36 16l-183 201l-183 -201 q-15 -16 -36 -16h-67z" glyph-name="Wcircumflex" unicode="Ŵ" vert-adv-y="1980"/>
<glyph d="M1128 1340q29 0 24 -34l-192 -1282q-1 -11 -11.5 -17.5t-23.5 -6.5h-101q-13 0 -23.5 6.5t-12.5 17.5l-173 918l-173 -918q-2 -11 -12.5 -17.5t-23.5 -6.5h-101q-13 0 -23.5 6.5t-11.5 17.5l-192 1282q-1 3 -1 10q0 24 25 24h66q14 0 23.5 -5.5t10.5 -18.5l160 -1166 l197 1046q4 24 34 24h44q30 0 34 -24l197 -1046l160 1166q1 13 11 18.5t23 5.5h66zM387 1717q-23 23 -23 54q0 30 23 52.5t54 22.5t54 -22.5t23 -52.5q0 -31 -23 -54t-54 -23t-54 23zM737 1717q-23 23 -23 54q0 30 23 52.5t54 22.5q32 0 55 -22.5t23 -52.5q0 -31 -23 -54 t-55 -23q-31 0 -54 23z" glyph-name="Wdieresis" unicode="Ẅ" vert-adv-y="1980"/>
<glyph d="M1128 1340q29 0 24 -34l-192 -1282q-1 -11 -11.5 -17.5t-23.5 -6.5h-101q-13 0 -23.5 6.5t-12.5 17.5l-173 918l-173 -918q-2 -11 -12.5 -17.5t-23.5 -6.5h-101q-13 0 -23.5 6.5t-11.5 17.5l-192 1282q-1 3 -1 10q0 24 25 24h66q14 0 23.5 -5.5t10.5 -18.5l160 -1166 l197 1046q4 24 34 24h44q30 0 34 -24l197 -1046l160 1166q1 13 11 18.5t23 5.5h66zM589 1536q-13 0 -21 5.5t-13 18.5l-120 252q-4 8 -4 15q0 9 7.5 14t20.5 5h39q12 0 20 -5.5t13 -18.5l121 -252q4 -10 4 -14q0 -10 -7.5 -15t-20.5 -5h-39z" glyph-name="Wgrave" unicode="Ẁ" vert-adv-y="1980"/>
<glyph d="M1132 36q6 -9 6 -17q0 -9 -7 -14t-19 -5h-73q-23 0 -36 20l-388 564l-388 -564q-13 -20 -36 -20h-73q-12 0 -19 5t-7 14q0 8 6 17l447 650l-425 618q-6 9 -6 17q0 9 7 14t19 5h73q23 0 36 -20l366 -532l366 532q13 20 36 20h73q12 0 19 -5t7 -14q0 -8 -6 -17l-425 -618z " glyph-name="X" unicode="X" vert-adv-y="1980"/>
<glyph d="M1120 1340q12 0 19 -5t7 -14q0 -8 -6 -17l-461 -781v-493q0 -13 -8 -21.5t-22 -8.5h-68q-13 0 -21.5 8.5t-8.5 21.5v492l-460 782q-6 9 -6 17q0 9 7 14t19 5h72q25 0 36 -20l396 -678l396 678q11 20 36 20h73z" glyph-name="Y" unicode="Y" vert-adv-y="1980"/>
<glyph d="M1120 1340q12 0 19 -5t7 -14q0 -8 -6 -17l-461 -781v-493q0 -13 -8 -21.5t-22 -8.5h-68q-13 0 -21.5 8.5t-8.5 21.5v492l-460 782q-6 9 -6 17q0 9 7 14t19 5h72q25 0 36 -20l396 -678l396 678q11 20 36 20h73zM601 1536q-13 0 -20.5 5t-7.5 15q0 4 4 14l120 252 q6 13 14 18.5t20 5.5h39q13 0 20.5 -5t7.5 -15q0 -4 -4 -14l-120 -252q-6 -13 -14 -18.5t-20 -5.5h-39z" glyph-name="Yacute" unicode="Ý" vert-adv-y="1980"/>
<glyph d="M1120 1340q12 0 19 -5t7 -14q0 -8 -6 -17l-461 -781v-493q0 -13 -8 -21.5t-22 -8.5h-68q-13 0 -21.5 8.5t-8.5 21.5v492l-460 782q-6 9 -6 17q0 9 7 14t19 5h72q25 0 36 -20l396 -678l396 678q11 20 36 20h73zM329 1545q-12 0 -18.5 4.5t-6.5 12.5q0 9 9 19l219 249 q15 16 36 16h94q21 0 36 -16l219 -249q9 -10 9 -19q0 -8 -6.5 -12.5t-18.5 -4.5h-67q-21 0 -36 16l-183 201l-183 -201q-15 -16 -36 -16h-67z" glyph-name="Ycircumflex" unicode="Ŷ" vert-adv-y="1980"/>
<glyph d="M1120 1340q12 0 19 -5t7 -14q0 -8 -6 -17l-461 -781v-493q0 -13 -8 -21.5t-22 -8.5h-68q-13 0 -21.5 8.5t-8.5 21.5v492l-460 782q-6 9 -6 17q0 9 7 14t19 5h72q25 0 36 -20l396 -678l396 678q11 20 36 20h73zM387 1717q-23 23 -23 54q0 30 23 52.5t54 22.5t54 -22.5 t23 -52.5q0 -31 -23 -54t-54 -23t-54 23zM737 1717q-23 23 -23 54q0 30 23 52.5t54 22.5q32 0 55 -22.5t23 -52.5q0 -31 -23 -54t-55 -23q-31 0 -54 23z" glyph-name="Ydieresis" unicode="Ÿ" vert-adv-y="1980"/>
<glyph d="M1120 1340q12 0 19 -5t7 -14q0 -8 -6 -17l-461 -781v-493q0 -13 -8 -21.5t-22 -8.5h-68q-13 0 -21.5 8.5t-8.5 21.5v492l-460 782q-6 9 -6 17q0 9 7 14t19 5h72q25 0 36 -20l396 -678l396 678q11 20 36 20h73zM589 1536q-13 0 -21 5.5t-13 18.5l-120 252q-4 8 -4 15 q0 9 7.5 14t20.5 5h39q12 0 20 -5.5t13 -18.5l121 -252q4 -10 4 -14q0 -10 -7.5 -15t-20.5 -5h-39z" glyph-name="Ygrave" unicode="Ỳ" vert-adv-y="1980"/>
<glyph d="M167 0q-13 0 -21.5 8.5t-8.5 21.5v71q0 18 12 36l777 1082h-739q-13 0 -21.5 8.5t-8.5 21.5v61q0 14 8.5 22t21.5 8h856q14 0 22 -8t8 -22v-71q0 -18 -12 -36l-777 -1082h779q14 0 22 -8t8 -22v-61q0 -13 -8 -21.5t-22 -8.5h-896z" glyph-name="Z" unicode="Z" vert-adv-y="1980"/>
<glyph d="M167 0q-13 0 -21.5 8.5t-8.5 21.5v71q0 18 12 36l777 1082h-739q-13 0 -21.5 8.5t-8.5 21.5v61q0 14 8.5 22t21.5 8h856q14 0 22 -8t8 -22v-71q0 -18 -12 -36l-777 -1082h779q14 0 22 -8t8 -22v-61q0 -13 -8 -21.5t-22 -8.5h-896zM601 1536q-13 0 -20.5 5t-7.5 15 q0 4 4 14l120 252q6 13 14 18.5t20 5.5h39q13 0 20.5 -5t7.5 -15q0 -4 -4 -14l-120 -252q-6 -13 -14 -18.5t-20 -5.5h-39z" glyph-name="Zacute" unicode="Ź" vert-adv-y="1980"/>
<glyph d="M167 0q-13 0 -21.5 8.5t-8.5 21.5v71q0 18 12 36l777 1082h-739q-13 0 -21.5 8.5t-8.5 21.5v61q0 14 8.5 22t21.5 8h856q14 0 22 -8t8 -22v-71q0 -18 -12 -36l-777 -1082h779q14 0 22 -8t8 -22v-61q0 -13 -8 -21.5t-22 -8.5h-896zM568 1545q-23 0 -36 16l-219 249 q-9 9 -9 19q0 7 6.5 12t18.5 5h67q21 0 36 -16l183 -202l183 202q15 16 36 16h67q12 0 18.5 -5t6.5 -12q0 -10 -9 -19l-219 -249q-13 -16 -36 -16h-94z" glyph-name="Zcaron" unicode="Ž" vert-adv-y="1980"/>
<glyph d="M167 0q-13 0 -21.5 8.5t-8.5 21.5v71q0 18 12 36l777 1082h-739q-13 0 -21.5 8.5t-8.5 21.5v61q0 14 8.5 22t21.5 8h856q14 0 22 -8t8 -22v-71q0 -18 -12 -36l-777 -1082h779q14 0 22 -8t8 -22v-61q0 -13 -8 -21.5t-22 -8.5h-896zM561 1717q-23 23 -23 54q0 30 23 52.5 t54 22.5t54 -22.5t23 -52.5q0 -31 -23 -54t-54 -23t-54 23z" glyph-name="Zdotaccent" unicode="Ż" vert-adv-y="1980"/>
<glyph d="M1237 34q2 -4 2 -12q0 -22 -26 -22h-73q-26 0 -34 24l-110 301h-693l-110 -301q-8 -24 -34 -24h-73q-26 0 -26 22q0 8 2 12l472 1282q11 24 37 24h157q12 0 22 -6t14 -18zM628 1209l-281 -766h605l-281 766h-43z" glyph-name="A.ss05" horiz-adv-x="1299" vert-adv-y="1980"/>
<glyph d="M441.5 65q-159.5 91 -250.5 249t-91 352t91 353t250 250.5t355 91.5q145 0 269 -51t212.5 -142.5t131.5 -211.5q3 -7 3 -15q0 -14 -17 -21l-54 -22q-10 -5 -18 -5q-14 0 -20 15q-36 95 -109 170t-176 118t-226 43q-160 0 -289.5 -76t-202.5 -207t-73 -290 q0 -160 73.5 -290.5t202.5 -205.5t289 -75q124 0 227 45t175.5 123.5t109.5 179.5q6 17 20 17q4 0 14 -4l59 -27q8 -4 11.5 -8.5t3.5 -11.5q0 -6 -3 -15q-43 -124 -130.5 -219t-211.5 -148t-270 -53q-196 0 -355.5 91z" glyph-name="C.ss05" horiz-adv-x="1527" vert-adv-y="1980"/>
<glyph d="M1095 1160q174 -180 174 -490t-174 -490t-552 -180h-363q-13 0 -21.5 8.5t-8.5 21.5v1280q0 14 8.5 22t21.5 8h363q378 0 552 -180zM533 121q317 0 464 141t147 408t-147 408t-464 141h-255v-1098h255z" glyph-name="D.ss05" horiz-adv-x="1369" vert-adv-y="1980"/>
<glyph d="M1428 698q14 0 22 -8t8 -22v-46q0 -186 -79.5 -333.5t-226.5 -231t-343 -83.5q-203 0 -365 90.5t-253 248.5t-91 353q0 193 91 352t252 251t361 92q286 0 501 -195q12 -10 12 -21q0 -10 -10 -20l-44 -46q-9 -10 -19 -10t-23 11q-86 79 -193.5 119t-223.5 40 q-164 0 -296 -75.5t-206.5 -207t-74.5 -290.5q0 -158 75 -288.5t208 -206.5t299 -76q150 0 271 61t190.5 172t69.5 255v3h-537q-13 0 -21.5 8.5t-8.5 21.5v52q0 14 8.5 22t21.5 8h625z" glyph-name="G.ss05" horiz-adv-x="1558" vert-adv-y="1980"/>
<glyph d="M1167 1340q14 0 22 -8t8 -22v-1280q0 -13 -8 -21.5t-22 -8.5h-69q-13 0 -21.5 8.5t-8.5 21.5v578h-790v-578q0 -13 -8 -21.5t-22 -8.5h-68q-13 0 -21.5 8.5t-8.5 21.5v1280q0 14 8.5 22t21.5 8h68q14 0 22 -8t8 -22v-582h790v582q0 14 8.5 22t21.5 8h69z" glyph-name="H.ss05" horiz-adv-x="1347" vert-adv-y="1980"/>
<glyph d="M180 0q-13 0 -21.5 8.5t-8.5 21.5v1280q0 14 8.5 22t21.5 8h68q14 0 22 -8t8 -22v-1189h738q14 0 22 -8t8 -22v-61q0 -13 -8 -21.5t-22 -8.5h-836z" glyph-name="L.ss05" horiz-adv-x="1176" vert-adv-y="1980"/>
<glyph d="M1558 1332q8 -8 8 -22v-1280q0 -13 -8 -21.5t-22 -8.5h-68q-13 0 -21.5 8.5t-8.5 21.5v1107l-511 -1115q-5 -12 -13 -17t-20 -5h-75q-24 0 -34 22l-507 1105v-1097q0 -13 -8 -21.5t-22 -8.5h-68q-13 0 -21.5 8.5t-8.5 21.5v1280q0 14 8.5 22t21.5 8h100q27 0 36 -20 l542 -1179l537 1179q9 20 36 20h105q14 0 22 -8z" glyph-name="M.ss05" horiz-adv-x="1716" vert-adv-y="1980"/>
<glyph d="M1144 1340q14 0 22 -8t8 -22v-1280q0 -13 -8 -21.5t-22 -8.5h-116q-25 0 -36 20l-718 1189v-1179q0 -13 -8 -21.5t-22 -8.5h-64q-13 0 -21.5 8.5t-8.5 21.5v1280q0 14 8.5 22t21.5 8h119q25 0 36 -20l715 -1184v1174q0 14 8.5 22t21.5 8h64z" glyph-name="N.ss05" horiz-adv-x="1324" vert-adv-y="1980"/>
<glyph d="M435.5 66q-157.5 92 -246.5 250.5t-89 349.5q0 193 89 351.5t246.5 250.5t353.5 92q195 0 352 -92t246 -250.5t89 -351.5q0 -191 -89 -349.5t-246 -250.5t-352 -92q-196 0 -353.5 92zM1077 170.5q128 75.5 200 206.5t72 289q0 159 -72 290t-200 207t-288 76 q-161 0 -289 -76t-200.5 -207t-72.5 -290q0 -158 72.5 -289t200.5 -206.5t289 -75.5q160 0 288 75.5z" glyph-name="O.ss05" horiz-adv-x="1576" vert-adv-y="1980"/>
<glyph d="M624 1340q223 0 332 -113t109 -310q0 -198 -108.5 -311t-332.5 -113h-346v-463q0 -13 -8 -21.5t-22 -8.5h-68q-13 0 -21.5 8.5t-8.5 21.5v1280q0 14 8.5 22t21.5 8h444zM602 614q165 0 251 69.5t86 233.5q0 163 -86 232.5t-251 69.5h-324v-605h324z" glyph-name="P.ss05" horiz-adv-x="1205" vert-adv-y="1980"/>
<glyph d="M435.5 66q-157.5 92 -246.5 250.5t-89 349.5q0 193 89 351.5t246.5 250.5t353.5 92q195 0 352 -92t246 -250.5t89 -351.5q0 -191 -89 -349.5t-246 -250.5t-352 -92q-196 0 -353.5 92zM1077 170.5q128 75.5 200 206.5t72 289q0 159 -72 290t-200 207t-288 76 q-161 0 -289 -76t-200.5 -207t-72.5 -290q0 -158 72.5 -289t200.5 -206.5t289 -75.5q160 0 288 75.5zM983 -307.5q-51 13.5 -121 39.5q-76 27 -125.5 40t-115.5 13q-32 0 -32 28v61q0 14 8 22.5t24 9.5l25 1q59 0 107.5 -13.5t112.5 -39.5q70 -28 119 -41.5t111 -13.5 q32 0 32 -28v-61q0 -14 -8 -23t-22 -9q-64 1 -115 14.5z" glyph-name="Q.ss05" horiz-adv-x="1576" vert-adv-y="1980"/>
<glyph d="M1045 35q4 -8 4 -16q0 -19 -26 -19h-75q-23 0 -35 22l-256 472q-11 -1 -33 -1h-346v-463q0 -13 -8 -21.5t-22 -8.5h-68q-13 0 -21.5 8.5t-8.5 21.5v1280q0 14 8.5 22t21.5 8h444q223 0 332 -113t109 -310q0 -158 -69 -263t-211 -142zM602 614q165 0 251 69.5t86 233.5 q0 163 -86 232.5t-251 69.5h-324v-605h324z" glyph-name="R.ss05" horiz-adv-x="1205" vert-adv-y="1980"/>
<glyph d="M1130 1340q14 0 22 -8t8 -22v-61q0 -13 -8 -21.5t-22 -8.5h-441v-1189q0 -13 -8 -21.5t-22 -8.5h-68q-13 0 -21.5 8.5t-8.5 21.5v1189h-441q-13 0 -21.5 8.5t-8.5 21.5v61q0 14 8.5 22t21.5 8h1010z" glyph-name="T.ss05" horiz-adv-x="1250" vert-adv-y="1980"/>
<glyph d="M398.5 30.5q-121.5 60.5 -190 175t-68.5 272.5v832q0 14 8.5 22t21.5 8h68q14 0 22 -8t8 -22v-808q0 -129 49.5 -221t141.5 -140t217 -48t216.5 48t141 140t49.5 221v808q0 14 8.5 22t21.5 8h68q14 0 22 -8t8 -22v-832q0 -158 -68.5 -272.5t-189.5 -175t-277 -60.5 t-277.5 60.5z" glyph-name="U.ss05" horiz-adv-x="1351" vert-adv-y="1980"/>
<glyph d="M576 0q-26 0 -37 24l-472 1282q-2 4 -2 12q0 22 26 22h73q26 0 34 -24l435 -1185h43l435 1185q8 24 34 24h73q26 0 26 -22q0 -8 -2 -12l-473 -1282q-4 -12 -14 -18t-22 -6h-157z" glyph-name="V.ss05" horiz-adv-x="1309" vert-adv-y="1980"/>
<glyph d="M1649 1340q12 0 19 -6t7 -16q0 -4 -2 -12l-305 -1282q-3 -11 -13 -17.5t-23 -6.5h-100q-13 0 -26.5 6.5t-16.5 17.5l-305 1120l-310 -1120q-3 -11 -13.5 -17.5t-23.5 -6.5h-99q-13 0 -23 6.5t-14 17.5l-304 1282q-2 8 -2 11q0 23 26 23h67q29 0 34 -24l270 -1166 l322 1166q7 24 34 24h71q27 0 34 -24l324 -1166l271 1166q5 24 34 24h67z" glyph-name="W.ss05" horiz-adv-x="1771" vert-adv-y="1980"/>
<glyph d="M1132 36q6 -9 6 -17q0 -9 -7 -14t-19 -5h-73q-23 0 -36 20l-388 564l-388 -564q-13 -20 -36 -20h-73q-12 0 -19 5t-7 14q0 8 6 17l447 650l-425 618q-6 9 -6 17q0 9 7 14t19 5h73q23 0 36 -20l366 -532l366 532q13 20 36 20h73q12 0 19 -5t7 -14q0 -8 -6 -17l-425 -618z " glyph-name="X.ss05" vert-adv-y="1980"/>
<glyph d="M1120 1340q12 0 19 -5t7 -14q0 -8 -6 -17l-461 -781v-493q0 -13 -8 -21.5t-22 -8.5h-68q-13 0 -21.5 8.5t-8.5 21.5v492l-460 782q-6 9 -6 17q0 9 7 14t19 5h72q25 0 36 -20l396 -678l396 678q11 20 36 20h73z" glyph-name="Y.ss05" vert-adv-y="1980"/>
<glyph d="M1097.5 66q8.5 -10 8.5 -26v-12q0 -20 -20.5 -32t-49.5 -12q-54 0 -83.5 42.5t-29.5 114.5v40q-44 -97 -153.5 -151.5t-251.5 -54.5h-47q-108 0 -180.5 36.5t-108 101t-35.5 147.5q0 120 73 195.5t218 84.5l467 31v80q0 93 -28.5 147t-92 78.5t-172.5 24.5 q-135 0 -208 -39t-81 -132q-3 -25 -30 -25h-62q-14 0 -21.5 7.5t-6.5 22.5q10 144 113 209.5t295 65.5q159 0 251 -42.5t128.5 -117.5t36.5 -184v-464q0 -54 8.5 -80.5t32.5 -36.5q21 -9 29.5 -19zM536 85q94 0 177.5 27t137.5 89t54 161v108l-427 -29q-118 -8 -164 -55.5 t-46 -121.5q0 -179 230 -179h38z" glyph-name="a" unicode="a" vert-adv-y="1980"/>
<glyph d="M1097.5 66q8.5 -10 8.5 -26v-12q0 -20 -20.5 -32t-49.5 -12q-54 0 -83.5 42.5t-29.5 114.5v40q-44 -97 -153.5 -151.5t-251.5 -54.5h-47q-108 0 -180.5 36.5t-108 101t-35.5 147.5q0 120 73 195.5t218 84.5l467 31v80q0 93 -28.5 147t-92 78.5t-172.5 24.5 q-135 0 -208 -39t-81 -132q-3 -25 -30 -25h-62q-14 0 -21.5 7.5t-6.5 22.5q10 144 113 209.5t295 65.5q159 0 251 -42.5t128.5 -117.5t36.5 -184v-464q0 -54 8.5 -80.5t32.5 -36.5q21 -9 29.5 -19zM536 85q94 0 177.5 27t137.5 89t54 161v108l-427 -29q-118 -8 -164 -55.5 t-46 -121.5q0 -179 230 -179h38zM604 1186q-13 0 -20.5 5t-7.5 15q0 4 4 14l120 252q6 13 14 18.5t20 5.5h39q13 0 20.5 -5t7.5 -15q0 -4 -4 -14l-120 -252q-6 -13 -14 -18.5t-20 -5.5h-39z" glyph-name="aacute" unicode="á" vert-adv-y="1980"/>
<glyph d="M1097.5 66q8.5 -10 8.5 -26v-12q0 -20 -20.5 -32t-49.5 -12q-54 0 -83.5 42.5t-29.5 114.5v40q-44 -97 -153.5 -151.5t-251.5 -54.5h-47q-108 0 -180.5 36.5t-108 101t-35.5 147.5q0 120 73 195.5t218 84.5l467 31v80q0 93 -28.5 147t-92 78.5t-172.5 24.5 q-135 0 -208 -39t-81 -132q-3 -25 -30 -25h-62q-14 0 -21.5 7.5t-6.5 22.5q10 144 113 209.5t295 65.5q159 0 251 -42.5t128.5 -117.5t36.5 -184v-464q0 -54 8.5 -80.5t32.5 -36.5q21 -9 29.5 -19zM536 85q94 0 177.5 27t137.5 89t54 161v108l-427 -29q-118 -8 -164 -55.5 t-46 -121.5q0 -179 230 -179h38zM483 1256q-59 31 -93.5 85.5t-41.5 124.5q-3 30 28 30h38q26 0 32 -28q14 -63 58.5 -101.5t114.5 -38.5t114.5 38.5t58.5 101.5q6 28 32 28h38q31 0 28 -30q-7 -70 -41.5 -124.5t-93.5 -85.5t-136 -31t-136 31z" glyph-name="abreve" unicode="ă" vert-adv-y="1980"/>
<glyph d="M1097.5 66q8.5 -10 8.5 -26v-12q0 -20 -20.5 -32t-49.5 -12q-54 0 -83.5 42.5t-29.5 114.5v40q-44 -97 -153.5 -151.5t-251.5 -54.5h-47q-108 0 -180.5 36.5t-108 101t-35.5 147.5q0 120 73 195.5t218 84.5l467 31v80q0 93 -28.5 147t-92 78.5t-172.5 24.5 q-135 0 -208 -39t-81 -132q-3 -25 -30 -25h-62q-14 0 -21.5 7.5t-6.5 22.5q10 144 113 209.5t295 65.5q159 0 251 -42.5t128.5 -117.5t36.5 -184v-464q0 -54 8.5 -80.5t32.5 -36.5q21 -9 29.5 -19zM536 85q94 0 177.5 27t137.5 89t54 161v108l-427 -29q-118 -8 -164 -55.5 t-46 -121.5q0 -179 230 -179h38zM572 1195q-23 0 -36 16l-219 249q-9 9 -9 19q0 7 6.5 12t18.5 5h67q21 0 36 -16l183 -202l183 202q15 16 36 16h67q12 0 18.5 -5t6.5 -12q0 -10 -9 -19l-219 -249q-13 -16 -36 -16h-94z" glyph-name="uni01CE" unicode="ǎ" vert-adv-y="1980"/>
<glyph d="M1097.5 66q8.5 -10 8.5 -26v-12q0 -20 -20.5 -32t-49.5 -12q-54 0 -83.5 42.5t-29.5 114.5v40q-44 -97 -153.5 -151.5t-251.5 -54.5h-47q-108 0 -180.5 36.5t-108 101t-35.5 147.5q0 120 73 195.5t218 84.5l467 31v80q0 93 -28.5 147t-92 78.5t-172.5 24.5 q-135 0 -208 -39t-81 -132q-3 -25 -30 -25h-62q-14 0 -21.5 7.5t-6.5 22.5q10 144 113 209.5t295 65.5q159 0 251 -42.5t128.5 -117.5t36.5 -184v-464q0 -54 8.5 -80.5t32.5 -36.5q21 -9 29.5 -19zM536 85q94 0 177.5 27t137.5 89t54 161v108l-427 -29q-118 -8 -164 -55.5 t-46 -121.5q0 -179 230 -179h38zM333 1195q-12 0 -18.5 4.5t-6.5 12.5q0 9 9 19l219 249q15 16 36 16h94q21 0 36 -16l219 -249q9 -10 9 -19q0 -8 -6.5 -12.5t-18.5 -4.5h-67q-21 0 -36 16l-183 201l-183 -201q-15 -16 -36 -16h-67z" glyph-name="acircumflex" unicode="â" vert-adv-y="1980"/>
<glyph d="M1097.5 66q8.5 -10 8.5 -26v-12q0 -20 -20.5 -32t-49.5 -12q-54 0 -83.5 42.5t-29.5 114.5v40q-44 -97 -153.5 -151.5t-251.5 -54.5h-47q-108 0 -180.5 36.5t-108 101t-35.5 147.5q0 120 73 195.5t218 84.5l467 31v80q0 93 -28.5 147t-92 78.5t-172.5 24.5 q-135 0 -208 -39t-81 -132q-3 -25 -30 -25h-62q-14 0 -21.5 7.5t-6.5 22.5q10 144 113 209.5t295 65.5q159 0 251 -42.5t128.5 -117.5t36.5 -184v-464q0 -54 8.5 -80.5t32.5 -36.5q21 -9 29.5 -19zM536 85q94 0 177.5 27t137.5 89t54 161v108l-427 -29q-118 -8 -164 -55.5 t-46 -121.5q0 -179 230 -179h38zM391 1367q-23 23 -23 54q0 30 23 52.5t54 22.5t54 -22.5t23 -52.5q0 -31 -23 -54t-54 -23t-54 23zM741 1367q-23 23 -23 54q0 30 23 52.5t54 22.5q32 0 55 -22.5t23 -52.5q0 -31 -23 -54t-55 -23q-31 0 -54 23z" glyph-name="adieresis" unicode="ä" vert-adv-y="1980"/>
<glyph d="M1097.5 66q8.5 -10 8.5 -26v-12q0 -20 -20.5 -32t-49.5 -12q-54 0 -83.5 42.5t-29.5 114.5v40q-44 -97 -153.5 -151.5t-251.5 -54.5h-47q-108 0 -180.5 36.5t-108 101t-35.5 147.5q0 120 73 195.5t218 84.5l467 31v80q0 93 -28.5 147t-92 78.5t-172.5 24.5 q-135 0 -208 -39t-81 -132q-3 -25 -30 -25h-62q-14 0 -21.5 7.5t-6.5 22.5q10 144 113 209.5t295 65.5q159 0 251 -42.5t128.5 -117.5t36.5 -184v-464q0 -54 8.5 -80.5t32.5 -36.5q21 -9 29.5 -19zM536 85q94 0 177.5 27t137.5 89t54 161v108l-427 -29q-118 -8 -164 -55.5 t-46 -121.5q0 -179 230 -179h38zM592 1186q-13 0 -21 5.5t-13 18.5l-120 252q-4 8 -4 15q0 9 7.5 14t20.5 5h39q12 0 20 -5.5t13 -18.5l121 -252q4 -10 4 -14q0 -10 -7.5 -15t-20.5 -5h-39z" glyph-name="agrave" unicode="à" vert-adv-y="1980"/>
<glyph d="M1097.5 66q8.5 -10 8.5 -26v-12q0 -20 -20.5 -32t-49.5 -12q-54 0 -83.5 42.5t-29.5 114.5v40q-44 -97 -153.5 -151.5t-251.5 -54.5h-47q-108 0 -180.5 36.5t-108 101t-35.5 147.5q0 120 73 195.5t218 84.5l467 31v80q0 93 -28.5 147t-92 78.5t-172.5 24.5 q-135 0 -208 -39t-81 -132q-3 -25 -30 -25h-62q-14 0 -21.5 7.5t-6.5 22.5q10 144 113 209.5t295 65.5q159 0 251 -42.5t128.5 -117.5t36.5 -184v-464q0 -54 8.5 -80.5t32.5 -36.5q21 -9 29.5 -19zM536 85q94 0 177.5 27t137.5 89t54 161v108l-427 -29q-118 -8 -164 -55.5 t-46 -121.5q0 -179 230 -179h38zM374 1391q-13 0 -21.5 8.5t-8.5 21.5v45q0 14 8.5 22t21.5 8h491q14 0 22 -8t8 -22v-45q0 -13 -8 -21.5t-22 -8.5h-491z" glyph-name="amacron" unicode="ā" vert-adv-y="1980"/>
<glyph d="M1097.5 66q8.5 -10 8.5 -26v-12q0 -17 -14 -28t-36 -14v-2q-127 0 -185 -36.5t-58 -110.5q0 -69 48.5 -101t142.5 -32h18q20 0 20 -20v-51q0 -20 -20 -20h-54q-55 0 -114 17.5t-103 64.5t-44 129q0 100 65.5 153.5t167.5 71.5q-17 39 -17 92v40q-44 -97 -153.5 -151.5 t-251.5 -54.5h-47q-108 0 -180.5 36.5t-108 101t-35.5 147.5q0 120 73 195.5t218 84.5l467 31v80q0 93 -28.5 147t-92 78.5t-172.5 24.5q-135 0 -208 -39t-81 -132q-3 -25 -30 -25h-62q-14 0 -21.5 7.5t-6.5 22.5q10 144 113 209.5t295 65.5q159 0 251 -42.5t128.5 -117.5 t36.5 -184v-464q0 -54 8.5 -80.5t32.5 -36.5q21 -9 29.5 -19zM536 85q94 0 177.5 27t137.5 89t54 161v108l-427 -29q-118 -8 -164 -55.5t-46 -121.5q0 -179 230 -179h38z" glyph-name="aogonek" unicode="ą" vert-adv-y="1980"/>
<glyph d="M1097.5 66q8.5 -10 8.5 -26v-12q0 -20 -20.5 -32t-49.5 -12q-54 0 -83.5 42.5t-29.5 114.5v40q-44 -97 -153.5 -151.5t-251.5 -54.5h-47q-108 0 -180.5 36.5t-108 101t-35.5 147.5q0 120 73 195.5t218 84.5l467 31v80q0 93 -28.5 147t-92 78.5t-172.5 24.5 q-135 0 -208 -39t-81 -132q-3 -25 -30 -25h-62q-14 0 -21.5 7.5t-6.5 22.5q10 144 113 209.5t295 65.5q159 0 251 -42.5t128.5 -117.5t36.5 -184v-464q0 -54 8.5 -80.5t32.5 -36.5q21 -9 29.5 -19zM536 85q94 0 177.5 27t137.5 89t54 161v108l-427 -29q-118 -8 -164 -55.5 t-46 -121.5q0 -179 230 -179h38zM533 1183q-39 23 -61.5 61.5t-22.5 83.5t22.5 83.5t61.5 61.5t86 23t86 -23t61.5 -61.5t22.5 -83.5t-22.5 -83.5t-61.5 -61.5t-86 -23t-86 23zM674 1272.5q23 22.5 24 54.5q0 33 -23 55.5t-56 22.5t-56.5 -22.5t-23.5 -55.5 q0 -32 23.5 -54.5t56.5 -22.5q32 0 55 22.5z" glyph-name="aring" unicode="å" vert-adv-y="1980"/>
<glyph d="M1097.5 66q8.5 -10 8.5 -26v-12q0 -20 -20.5 -32t-49.5 -12q-54 0 -83.5 42.5t-29.5 114.5v40q-44 -97 -153.5 -151.5t-251.5 -54.5h-47q-108 0 -180.5 36.5t-108 101t-35.5 147.5q0 120 73 195.5t218 84.5l467 31v80q0 93 -28.5 147t-92 78.5t-172.5 24.5 q-135 0 -208 -39t-81 -132q-3 -25 -30 -25h-62q-14 0 -21.5 7.5t-6.5 22.5q10 144 113 209.5t295 65.5q159 0 251 -42.5t128.5 -117.5t36.5 -184v-464q0 -54 8.5 -80.5t32.5 -36.5q21 -9 29.5 -19zM536 85q94 0 177.5 27t137.5 89t54 161v108l-427 -29q-118 -8 -164 -55.5 t-46 -121.5q0 -179 230 -179h38zM669 1284.5q-37 21.5 -80 62.5q-33 31 -55.5 45.5t-51.5 14.5q-35 0 -58.5 -19t-31.5 -44q-6 -19 -24 -19h-57q-20 0 -19 24q6 70 58.5 113t128.5 43q41 0 72.5 -12t53 -29t49.5 -44q31 -30 53.5 -44.5t51.5 -14.5q34 0 57 19t32 44 q6 19 23 19h58q10 0 16 -5.5t5 -15.5q-7 -72 -60 -115.5t-127 -43.5q-57 0 -94 21.5z" glyph-name="atilde" unicode="ã" vert-adv-y="1980"/>
<glyph d="M997 99.5q34 13.5 58.5 35t52.5 56.5l62 -72q-41 -69 -108 -107t-157 -38q-190 0 -273 181q-112 -181 -311 -181q-132 0 -204 75.5t-72 208.5q0 122 63.5 203t210.5 81h248v94q0 100 -21 157.5t-61 81t-102 23.5q-83 0 -128.5 -43.5t-54.5 -148.5q-1 -12 -9 -18.5 t-22 -6.5h-56q-14 0 -21.5 8t-6.5 23q7 151 88.5 225.5t206.5 74.5q97 0 161.5 -44.5t97.5 -125.5q40 81 104.5 125.5t155.5 44.5q158 0 222 -129t64 -351q0 -36 -5.5 -55t-22 -28.5t-49.5 -9.5h-427q6 -167 58.5 -260t176.5 -93q47 0 81 13.5zM740 800q-52 -98 -59 -258 h397q1 15 1 43q0 145 -44 229t-141 84q-102 0 -154 -98zM567 439h-218q-103 0 -146.5 -43t-43.5 -125q0 -83 42.5 -132t139.5 -49q78 0 137 34.5t89 110.5v204z" glyph-name="ae" unicode="æ" vert-adv-y="1980"/>
<glyph d="M897 944q110 -66 170 -184.5t60 -269.5q0 -148 -57 -265t-163 -183.5t-247 -66.5q-130 0 -223 57.5t-141 157.5h-19l-5 -160q0 -13 -8 -21.5t-22 -8.5h-56q-13 0 -21.5 8.5t-8.5 21.5v1340q0 14 8.5 22t21.5 8h63q14 0 22 -8t8 -22v-536q52 75 142.5 125.5t221.5 50.5 q144 0 254 -66zM833.5 138.5q83.5 50.5 128.5 142.5t45 212t-45 211.5t-128.5 142t-195.5 50.5t-196 -50.5t-130 -142t-46 -211.5t46 -212t130 -142.5t196 -50.5t195.5 50.5z" glyph-name="b" unicode="b" vert-adv-y="1980"/>
<glyph d="M829 129.5q83 41.5 140 116.5q11 14 22 14q8 0 18 -7l39 -28q15 -10 15 -24q0 -8 -6 -17q-68 -100 -175 -154.5t-238 -54.5q-146 0 -261.5 67t-180.5 185.5t-65 265.5t65 265t180.5 185t261.5 67q132 0 238.5 -54.5t174.5 -154.5q6 -9 6 -17q0 -13 -15 -24l-39 -28 q-10 -7 -18 -7q-11 0 -22 14q-57 75 -140 116.5t-183 41.5q-110 0 -199 -51t-139.5 -143t-50.5 -210t50.5 -210.5t139.5 -143.5t199 -51q100 0 183 41.5z" glyph-name="c" unicode="c" vert-adv-y="1980"/>
<glyph d="M829 129.5q83 41.5 140 116.5q11 14 22 14q8 0 18 -7l39 -28q15 -10 15 -24q0 -8 -6 -17q-68 -100 -175 -154.5t-238 -54.5q-146 0 -261.5 67t-180.5 185.5t-65 265.5t65 265t180.5 185t261.5 67q132 0 238.5 -54.5t174.5 -154.5q6 -9 6 -17q0 -13 -15 -24l-39 -28 q-10 -7 -18 -7q-11 0 -22 14q-57 75 -140 116.5t-183 41.5q-110 0 -199 -51t-139.5 -143t-50.5 -210t50.5 -210.5t139.5 -143.5t199 -51q100 0 183 41.5zM624 1186q-13 0 -20.5 5t-7.5 15q0 4 4 14l120 252q6 13 14 18.5t20 5.5h39q13 0 20.5 -5t7.5 -15q0 -4 -4 -14 l-120 -252q-6 -13 -14 -18.5t-20 -5.5h-39z" glyph-name="cacute" unicode="ć" vert-adv-y="1980"/>
<glyph d="M829 129.5q83 41.5 140 116.5q11 14 22 14q8 0 18 -7l39 -28q15 -10 15 -24q0 -8 -6 -17q-68 -100 -175 -154.5t-238 -54.5q-146 0 -261.5 67t-180.5 185.5t-65 265.5t65 265t180.5 185t261.5 67q132 0 238.5 -54.5t174.5 -154.5q6 -9 6 -17q0 -13 -15 -24l-39 -28 q-10 -7 -18 -7q-11 0 -22 14q-57 75 -140 116.5t-183 41.5q-110 0 -199 -51t-139.5 -143t-50.5 -210t50.5 -210.5t139.5 -143.5t199 -51q100 0 183 41.5zM591 1195q-23 0 -36 16l-219 249q-9 9 -9 19q0 7 6.5 12t18.5 5h67q21 0 36 -16l183 -202l183 202q15 16 36 16h67 q12 0 18.5 -5t6.5 -12q0 -10 -9 -19l-219 -249q-13 -16 -36 -16h-94z" glyph-name="ccaron" unicode="č" vert-adv-y="1980"/>
<glyph d="M1048 225q15 -10 15 -24q0 -8 -6 -17q-62 -91 -156.5 -144.5t-210.5 -62.5l-53 -56q67 -6 112 -47.5t45 -105.5q0 -65 -31.5 -108t-83 -63.5t-112.5 -20.5q-37 0 -63 5q-18 3 -18 22v47q0 9 6 15t16 5q23 -4 49 -4q61 0 96 24.5t35 67.5q0 35 -29.5 57.5t-74.5 22.5 q-36 0 -74 -16q-4 -2 -10 -2q-14 0 -14 16v41q0 11 10 24l72 79q-127 17 -224.5 87t-152 181t-54.5 245q0 147 65 265t180.5 185t261.5 67q132 0 238.5 -54.5t174.5 -154.5q6 -9 6 -17q0 -13 -15 -24l-39 -28q-10 -7 -18 -7q-11 0 -22 14q-57 75 -140 116.5t-183 41.5 q-110 0 -199 -51t-139.5 -143t-50.5 -210t50.5 -210.5t139.5 -143.5t199 -51q100 0 183 41.5t140 116.5q11 14 22 14q8 0 18 -7z" glyph-name="ccedilla" unicode="ç" vert-adv-y="1980"/>
<glyph d="M829 129.5q83 41.5 140 116.5q11 14 22 14q8 0 18 -7l39 -28q15 -10 15 -24q0 -8 -6 -17q-68 -100 -175 -154.5t-238 -54.5q-146 0 -261.5 67t-180.5 185.5t-65 265.5t65 265t180.5 185t261.5 67q132 0 238.5 -54.5t174.5 -154.5q6 -9 6 -17q0 -13 -15 -24l-39 -28 q-10 -7 -18 -7q-11 0 -22 14q-57 75 -140 116.5t-183 41.5q-110 0 -199 -51t-139.5 -143t-50.5 -210t50.5 -210.5t139.5 -143.5t199 -51q100 0 183 41.5zM584 1367q-23 23 -23 54q0 30 23 52.5t54 22.5t54 -22.5t23 -52.5q0 -31 -23 -54t-54 -23t-54 23z" glyph-name="cdotaccent" unicode="ċ" vert-adv-y="1980"/>
<glyph d="M1044 1400q14 0 22 -8t8 -22v-1340q0 -13 -8 -21.5t-22 -8.5h-56q-13 0 -21.5 8.5t-8.5 21.5l-5 160h-19q-48 -100 -141 -157.5t-223 -57.5q-141 0 -247 66.5t-163 183.5t-57 265q0 151 60 269.5t170 184.5t254 66q131 0 221.5 -50.5t142.5 -125.5v536q0 14 8.5 22 t21.5 8h63zM788 138.5q84 50.5 130 142.5t46 212t-46 211.5t-130 142t-196 50.5t-195.5 -50.5t-128.5 -142t-45 -211.5t45 -212t128.5 -142.5t195.5 -50.5t196 50.5z" glyph-name="d" unicode="d" vert-adv-y="1980"/>
<glyph d="M1161 1265l8 1q24 0 24 -25v-36q0 -25 -28 -28l-91 -12v-1135q0 -13 -8 -21.5t-22 -8.5h-56q-13 0 -21.5 8.5t-8.5 21.5l-5 160h-19q-48 -100 -141 -157.5t-223 -57.5q-141 0 -247 66.5t-163 183.5t-57 265q0 151 60 269.5t170 184.5t254 66q131 0 221.5 -50.5 t142.5 -125.5v315l-200 -26l-8 -1q-24 0 -24 25v36q0 25 28 28l204 27v132q0 14 8.5 22t21.5 8h63q14 0 22 -8t8 -22v-116zM788 138.5q84 50.5 130 142.5t46 212t-46 211.5t-130 142t-196 50.5t-195.5 -50.5t-128.5 -142t-45 -211.5t45 -212t128.5 -142.5t195.5 -50.5 t196 50.5z" glyph-name="eth" unicode="ð" vert-adv-y="1980"/>
<glyph d="M1044 1400q14 0 22 -8t8 -22v-1340q0 -13 -8 -21.5t-22 -8.5h-56q-13 0 -21.5 8.5t-8.5 21.5l-5 160h-19q-48 -100 -141 -157.5t-223 -57.5q-141 0 -247 66.5t-163 183.5t-57 265q0 151 60 269.5t170 184.5t254 66q131 0 221.5 -50.5t142.5 -125.5v536q0 14 8.5 22 t21.5 8h63zM788 138.5q84 50.5 130 142.5t46 212t-46 211.5t-130 142t-196 50.5t-195.5 -50.5t-128.5 -142t-45 -211.5t45 -212t128.5 -142.5t195.5 -50.5t196 50.5zM1254 1330q-13 0 -20.5 5t-7.5 15q0 4 4 14l120 252q6 13 14 18.5t20 5.5h39q13 0 20.5 -5t7.5 -15 q0 -4 -4 -14l-120 -252q-6 -13 -14 -18.5t-20 -5.5h-39z" glyph-name="dcaron" unicode="ď" vert-adv-y="1980"/>
<glyph d="M1155 1261q14 0 22 -8t8 -22v-35q0 -13 -8 -21.5t-22 -8.5h-81v-1136q0 -13 -8 -21.5t-22 -8.5h-56q-13 0 -21.5 8.5t-8.5 21.5l-5 160h-19q-48 -100 -141 -157.5t-223 -57.5q-141 0 -247 66.5t-163 183.5t-57 265q0 151 60 269.5t170 184.5t254 66q131 0 221.5 -50.5 t142.5 -125.5v332h-317q-13 0 -21.5 8.5t-8.5 21.5v35q0 14 8.5 22t21.5 8h317v109q0 14 8.5 22t21.5 8h63q14 0 22 -8t8 -22v-109h81zM788 138.5q84 50.5 130 142.5t46 212t-46 211.5t-130 142t-196 50.5t-195.5 -50.5t-128.5 -142t-45 -211.5t45 -212t128.5 -142.5 t195.5 -50.5t196 50.5z" glyph-name="dcroat" unicode="đ" vert-adv-y="1980"/>
<glyph d="M1081 492.5q-13 -18.5 -55 -18.5l-772 -1q4 -119 51.5 -205.5t137.5 -134t218 -47.5q91 0 167.5 23.5t130.5 61.5q13 10 23 10q12 0 29 -20q19 -22 19 -37t-18 -29q-63 -58 -157.5 -89t-199.5 -31q-155 0 -272.5 64.5t-182 183t-64.5 273.5q0 154 61.5 270.5t173.5 180 t259 63.5q145 0 250 -60t159.5 -164t54.5 -234q0 -41 -13 -59.5zM450 860.5q-80 -39.5 -128.5 -112t-62.5 -170.5h726q-4 94 -46 167t-120 114t-185 41q-104 0 -184 -39.5z" glyph-name="e" unicode="e" vert-adv-y="1980"/>
<glyph d="M1081 492.5q-13 -18.5 -55 -18.5l-772 -1q4 -119 51.5 -205.5t137.5 -134t218 -47.5q91 0 167.5 23.5t130.5 61.5q13 10 23 10q12 0 29 -20q19 -22 19 -37t-18 -29q-63 -58 -157.5 -89t-199.5 -31q-155 0 -272.5 64.5t-182 183t-64.5 273.5q0 154 61.5 270.5t173.5 180 t259 63.5q145 0 250 -60t159.5 -164t54.5 -234q0 -41 -13 -59.5zM450 860.5q-80 -39.5 -128.5 -112t-62.5 -170.5h726q-4 94 -46 167t-120 114t-185 41q-104 0 -184 -39.5zM601 1186q-13 0 -20.5 5t-7.5 15q0 4 4 14l120 252q6 13 14 18.5t20 5.5h39q13 0 20.5 -5t7.5 -15 q0 -4 -4 -14l-120 -252q-6 -13 -14 -18.5t-20 -5.5h-39z" glyph-name="eacute" unicode="é" vert-adv-y="1980"/>
<glyph d="M1081 492.5q-13 -18.5 -55 -18.5l-772 -1q4 -119 51.5 -205.5t137.5 -134t218 -47.5q91 0 167.5 23.5t130.5 61.5q13 10 23 10q12 0 29 -20q19 -22 19 -37t-18 -29q-63 -58 -157.5 -89t-199.5 -31q-155 0 -272.5 64.5t-182 183t-64.5 273.5q0 154 61.5 270.5t173.5 180 t259 63.5q145 0 250 -60t159.5 -164t54.5 -234q0 -41 -13 -59.5zM450 860.5q-80 -39.5 -128.5 -112t-62.5 -170.5h726q-4 94 -46 167t-120 114t-185 41q-104 0 -184 -39.5zM568 1195q-23 0 -36 16l-219 249q-9 9 -9 19q0 7 6.5 12t18.5 5h67q21 0 36 -16l183 -202l183 202 q15 16 36 16h67q12 0 18.5 -5t6.5 -12q0 -10 -9 -19l-219 -249q-13 -16 -36 -16h-94z" glyph-name="ecaron" unicode="ě" vert-adv-y="1980"/>
<glyph d="M1081 492.5q-13 -18.5 -55 -18.5l-772 -1q4 -119 51.5 -205.5t137.5 -134t218 -47.5q91 0 167.5 23.5t130.5 61.5q13 10 23 10q12 0 29 -20q19 -22 19 -37t-18 -29q-63 -58 -157.5 -89t-199.5 -31q-155 0 -272.5 64.5t-182 183t-64.5 273.5q0 154 61.5 270.5t173.5 180 t259 63.5q145 0 250 -60t159.5 -164t54.5 -234q0 -41 -13 -59.5zM450 860.5q-80 -39.5 -128.5 -112t-62.5 -170.5h726q-4 94 -46 167t-120 114t-185 41q-104 0 -184 -39.5zM329 1195q-12 0 -18.5 4.5t-6.5 12.5q0 9 9 19l219 249q15 16 36 16h94q21 0 36 -16l219 -249 q9 -10 9 -19q0 -8 -6.5 -12.5t-18.5 -4.5h-67q-21 0 -36 16l-183 201l-183 -201q-15 -16 -36 -16h-67z" glyph-name="ecircumflex" unicode="ê" vert-adv-y="1980"/>
<glyph d="M1081 492.5q-13 -18.5 -55 -18.5l-772 -1q4 -119 51.5 -205.5t137.5 -134t218 -47.5q91 0 167.5 23.5t130.5 61.5q13 10 23 10q12 0 29 -20q19 -22 19 -37t-18 -29q-63 -58 -157.5 -89t-199.5 -31q-155 0 -272.5 64.5t-182 183t-64.5 273.5q0 154 61.5 270.5t173.5 180 t259 63.5q145 0 250 -60t159.5 -164t54.5 -234q0 -41 -13 -59.5zM450 860.5q-80 -39.5 -128.5 -112t-62.5 -170.5h726q-4 94 -46 167t-120 114t-185 41q-104 0 -184 -39.5zM387 1367q-23 23 -23 54q0 30 23 52.5t54 22.5t54 -22.5t23 -52.5q0 -31 -23 -54t-54 -23t-54 23z M737 1367q-23 23 -23 54q0 30 23 52.5t54 22.5q32 0 55 -22.5t23 -52.5q0 -31 -23 -54t-55 -23q-31 0 -54 23z" glyph-name="edieresis" unicode="ë" vert-adv-y="1980"/>
<glyph d="M1081 492.5q-13 -18.5 -55 -18.5l-772 -1q4 -119 51.5 -205.5t137.5 -134t218 -47.5q91 0 167.5 23.5t130.5 61.5q13 10 23 10q12 0 29 -20q19 -22 19 -37t-18 -29q-63 -58 -157.5 -89t-199.5 -31q-155 0 -272.5 64.5t-182 183t-64.5 273.5q0 154 61.5 270.5t173.5 180 t259 63.5q145 0 250 -60t159.5 -164t54.5 -234q0 -41 -13 -59.5zM450 860.5q-80 -39.5 -128.5 -112t-62.5 -170.5h726q-4 94 -46 167t-120 114t-185 41q-104 0 -184 -39.5zM561 1367q-23 23 -23 54q0 30 23 52.5t54 22.5t54 -22.5t23 -52.5q0 -31 -23 -54t-54 -23t-54 23z " glyph-name="edotaccent" unicode="ė" vert-adv-y="1980"/>
<glyph d="M1081 492.5q-13 -18.5 -55 -18.5l-772 -1q4 -119 51.5 -205.5t137.5 -134t218 -47.5q91 0 167.5 23.5t130.5 61.5q13 10 23 10q12 0 29 -20q19 -22 19 -37t-18 -29q-63 -58 -157.5 -89t-199.5 -31q-155 0 -272.5 64.5t-182 183t-64.5 273.5q0 154 61.5 270.5t173.5 180 t259 63.5q145 0 250 -60t159.5 -164t54.5 -234q0 -41 -13 -59.5zM450 860.5q-80 -39.5 -128.5 -112t-62.5 -170.5h726q-4 94 -46 167t-120 114t-185 41q-104 0 -184 -39.5zM589 1186q-13 0 -21 5.5t-13 18.5l-120 252q-4 8 -4 15q0 9 7.5 14t20.5 5h39q12 0 20 -5.5 t13 -18.5l121 -252q4 -10 4 -14q0 -10 -7.5 -15t-20.5 -5h-39z" glyph-name="egrave" unicode="è" vert-adv-y="1980"/>
<glyph d="M1081 492.5q-13 -18.5 -55 -18.5l-772 -1q4 -119 51.5 -205.5t137.5 -134t218 -47.5q91 0 167.5 23.5t130.5 61.5q13 10 23 10q12 0 29 -20q19 -22 19 -37t-18 -29q-63 -58 -157.5 -89t-199.5 -31q-155 0 -272.5 64.5t-182 183t-64.5 273.5q0 154 61.5 270.5t173.5 180 t259 63.5q145 0 250 -60t159.5 -164t54.5 -234q0 -41 -13 -59.5zM450 860.5q-80 -39.5 -128.5 -112t-62.5 -170.5h726q-4 94 -46 167t-120 114t-185 41q-104 0 -184 -39.5zM370 1391q-13 0 -21.5 8.5t-8.5 21.5v45q0 14 8.5 22t21.5 8h491q14 0 22 -8t8 -22v-45 q0 -13 -8 -21.5t-22 -8.5h-491z" glyph-name="emacron" unicode="ē" vert-adv-y="1980"/>
<glyph d="M1081 492.5q-13 -18.5 -55 -18.5l-772 -1q4 -119 51.5 -205.5t137.5 -134t218 -47.5q91 0 167.5 23.5t130.5 61.5q13 10 23 10q12 0 29 -20q19 -22 19 -37t-18 -29q-53 -49 -128.5 -79t-161.5 -38q-83 -23 -119 -54t-36 -89q0 -69 49.5 -100t143.5 -31h16q20 0 20 -20 v-51q0 -20 -20 -20h-54q-55 0 -114.5 17.5t-103 63t-43.5 124.5q0 115 102 163q-129 18 -225.5 87t-149 179t-52.5 249q0 154 61.5 270.5t173.5 180t259 63.5q145 0 250 -60t159.5 -164t54.5 -234q0 -41 -13 -59.5zM450 860.5q-80 -39.5 -128.5 -112t-62.5 -170.5h726 q-4 94 -46 167t-120 114t-185 41q-104 0 -184 -39.5z" glyph-name="eogonek" unicode="ę" vert-adv-y="1980"/>
<glyph d="M847.5 950.5q117.5 -64.5 182 -183t64.5 -273.5q0 -154 -61.5 -270.5t-173.5 -180t-259 -63.5q-145 0 -250 60t-159.5 164t-54.5 234q0 41 13 59.5t55 18.5l772 1q-4 119 -51.5 205.5t-137.5 134t-218 47.5q-91 0 -167.5 -23.5t-130.5 -61.5q-13 -10 -23 -10 q-12 0 -29 20q-19 22 -19 37q0 16 18 29q63 59 157.5 89.5t199.5 30.5q155 0 272.5 -64.5zM780 129.5q80 39.5 128.5 112t62.5 170.5h-726q4 -94 46 -167t120 -114t185 -41q104 0 184 39.5z" glyph-name="uni0259" unicode="ə" vert-adv-y="1980"/>
<glyph d="M1082 1407v-54q0 -25 -21 -25q-11 0 -37 6q-98 18 -178 18q-91 0 -155.5 -23.5t-104.5 -89.5t-40 -188v-71h485q14 0 22 -8t8 -22v-47q0 -13 -8 -21.5t-22 -8.5h-485v-843q0 -13 -8 -21.5t-22 -8.5h-63q-13 0 -21.5 8.5t-8.5 21.5v843h-236q-13 0 -21.5 8.5t-8.5 21.5v47 q0 14 8.5 22t21.5 8h236v86q0 223 116.5 312.5t289.5 89.5q115 0 227 -30q26 -7 26 -31z" glyph-name="f" unicode="f" vert-adv-y="1980"/>
<glyph d="M1049 990q14 0 22 -8t8 -22v-911q0 -241 -141.5 -343t-362.5 -102q-95 0 -178.5 17t-143.5 48q-18 8 -18 27q0 7 3 15l15 42q6 18 24 18q3 0 11 -2q62 -26 128 -39t150 -13q194 0 296.5 76.5t102.5 265.5v196h-31q-35 -93 -129 -149t-222 -56q-134 0 -239.5 62.5 t-164.5 172.5t-59 245t59.5 245t166 172.5t242.5 62.5q125 0 220.5 -52.5t154.5 -144.5l5 147q2 14 9.5 22t20.5 8h51zM790.5 211q83.5 49 130 133.5t46.5 187.5t-46.5 186.5t-130 131.5t-189.5 48q-105 0 -187.5 -48t-128.5 -131.5t-46 -186.5t46 -187.5t128.5 -133.5 t187.5 -49q106 0 189.5 49z" glyph-name="g" unicode="g" vert-adv-y="1980"/>
<glyph d="M1049 990q14 0 22 -8t8 -22v-911q0 -241 -141.5 -343t-362.5 -102q-95 0 -178.5 17t-143.5 48q-18 8 -18 27q0 7 3 15l15 42q6 18 24 18q3 0 11 -2q62 -26 128 -39t150 -13q194 0 296.5 76.5t102.5 265.5v196h-31q-35 -93 -129 -149t-222 -56q-134 0 -239.5 62.5 t-164.5 172.5t-59 245t59.5 245t166 172.5t242.5 62.5q125 0 220.5 -52.5t154.5 -144.5l5 147q2 14 9.5 22t20.5 8h51zM790.5 211q83.5 49 130 133.5t46.5 187.5t-46.5 186.5t-130 131.5t-189.5 48q-105 0 -187.5 -48t-128.5 -131.5t-46 -186.5t46 -187.5t128.5 -133.5 t187.5 -49q106 0 189.5 49zM479 1256q-59 31 -93.5 85.5t-41.5 124.5q-3 30 28 30h38q26 0 32 -28q14 -63 58.5 -101.5t114.5 -38.5t114.5 38.5t58.5 101.5q6 28 32 28h38q31 0 28 -30q-7 -70 -41.5 -124.5t-93.5 -85.5t-136 -31t-136 31z" glyph-name="gbreve" unicode="ğ" vert-adv-y="1980"/>
<glyph d="M458 1191q-13 0 -21 8t-8 21v27q0 228 17 411q3 23 30 23h58q15 0 21.5 -7t5.5 -23q-6 -154 -6 -286v-59h226q13 0 21 -8t8 -21v-57q0 -13 -8 -21t-21 -8h-323zM1049 990q14 0 22 -8t8 -22v-911q0 -241 -141.5 -343t-362.5 -102q-95 0 -178.5 17t-143.5 48q-18 8 -18 27 q0 7 3 15l15 42q6 18 24 18q3 0 11 -2q62 -26 128 -39t150 -13q194 0 296.5 76.5t102.5 265.5v196h-31q-35 -93 -129 -149t-222 -56q-134 0 -239.5 62.5t-164.5 172.5t-59 245t59.5 245t166 172.5t242.5 62.5q125 0 220.5 -52.5t154.5 -144.5l5 147q2 14 9.5 22t20.5 8h51z M790.5 211q83.5 49 130 133.5t46.5 187.5t-46.5 186.5t-130 131.5t-189.5 48q-105 0 -187.5 -48t-128.5 -131.5t-46 -186.5t46 -187.5t128.5 -133.5t187.5 -49q106 0 189.5 49z" glyph-name="uni0123" unicode="ģ" vert-adv-y="1980"/>
<glyph d="M1049 990q14 0 22 -8t8 -22v-911q0 -241 -141.5 -343t-362.5 -102q-95 0 -178.5 17t-143.5 48q-18 8 -18 27q0 7 3 15l15 42q6 18 24 18q3 0 11 -2q62 -26 128 -39t150 -13q194 0 296.5 76.5t102.5 265.5v196h-31q-35 -93 -129 -149t-222 -56q-134 0 -239.5 62.5 t-164.5 172.5t-59 245t59.5 245t166 172.5t242.5 62.5q125 0 220.5 -52.5t154.5 -144.5l5 147q2 14 9.5 22t20.5 8h51zM790.5 211q83.5 49 130 133.5t46.5 187.5t-46.5 186.5t-130 131.5t-189.5 48q-105 0 -187.5 -48t-128.5 -131.5t-46 -186.5t46 -187.5t128.5 -133.5 t187.5 -49q106 0 189.5 49zM561 1367q-23 23 -23 54q0 30 23 52.5t54 22.5t54 -22.5t23 -52.5q0 -31 -23 -54t-54 -23t-54 23z" glyph-name="gdotaccent" unicode="ġ" vert-adv-y="1980"/>
<glyph d="M856.5 963.5q88.5 -46.5 139.5 -137t51 -216.5v-580q0 -13 -8 -21.5t-22 -8.5h-63q-13 0 -21.5 8.5t-8.5 21.5v559q0 90 -37 160t-106.5 109t-161.5 39q-93 0 -164 -39.5t-110 -109.5t-39 -159v-559q0 -13 -8 -21.5t-22 -8.5h-63q-13 0 -21.5 8.5t-8.5 21.5v1340 q0 14 8.5 22t21.5 8h63q14 0 22 -8t8 -22v-549h17q40 88 130.5 138.5t203.5 50.5q111 0 199.5 -46.5z" glyph-name="h" unicode="h" vert-adv-y="1980"/>
<glyph d="M856.5 963.5q88.5 -46.5 139.5 -137t51 -216.5v-580q0 -13 -8 -21.5t-22 -8.5h-63q-13 0 -21.5 8.5t-8.5 21.5v559q0 90 -37 160t-106.5 109t-161.5 39q-93 0 -164 -39.5t-110 -109.5t-39 -159v-559q0 -13 -8 -21.5t-22 -8.5h-63q-13 0 -21.5 8.5t-8.5 21.5v1110h-123 q-13 0 -21.5 8.5t-8.5 21.5v41q0 14 8.5 22t21.5 8h123v129q0 14 8.5 22t21.5 8h63q14 0 22 -8t8 -22v-129h397q14 0 22 -8t8 -22v-41q0 -13 -8 -21.5t-22 -8.5h-397v-319h17q40 88 130.5 138.5t203.5 50.5q111 0 199.5 -46.5z" glyph-name="hbar" unicode="ħ" vert-adv-y="1980"/>
<glyph d="M514 1316.5q-33 32.5 -33 80.5t33 81t81 33q47 0 80 -33t33 -81t-33 -80.5t-80 -32.5q-48 0 -81 32.5zM1032 115q14 0 22 -8t8 -22v-55q0 -13 -8 -21.5t-22 -8.5h-216q-121 0 -185.5 68.5t-64.5 192.5v614h-363q-13 0 -21.5 8.5t-8.5 21.5v55q0 14 8.5 22t21.5 8h456 q14 0 22 -8t8 -22v-691q0 -76 39 -115t115 -39h189z" glyph-name="i" unicode="i" vert-adv-y="1980"/>
<glyph d="M1032 115q14 0 22 -8t8 -22v-55q0 -13 -8 -21.5t-22 -8.5h-216q-121 0 -185.5 68.5t-64.5 192.5v614h-363q-13 0 -21.5 8.5t-8.5 21.5v55q0 14 8.5 22t21.5 8h456q14 0 22 -8t8 -22v-691q0 -76 39 -115t115 -39h189z" glyph-name="dotlessi" unicode="ı" vert-adv-y="1980"/>
<glyph d="M1032 115q14 0 22 -8t8 -22v-55q0 -13 -8 -21.5t-22 -8.5h-216q-121 0 -185.5 68.5t-64.5 192.5v614h-363q-13 0 -21.5 8.5t-8.5 21.5v55q0 14 8.5 22t21.5 8h456q14 0 22 -8t8 -22v-691q0 -76 39 -115t115 -39h189zM591 1186q-13 0 -20.5 5t-7.5 15q0 4 4 14l120 252 q6 13 14 18.5t20 5.5h39q13 0 20.5 -5t7.5 -15q0 -4 -4 -14l-120 -252q-6 -13 -14 -18.5t-20 -5.5h-39z" glyph-name="iacute" unicode="í" vert-adv-y="1980"/>
<glyph d="M1032 115q14 0 22 -8t8 -22v-55q0 -13 -8 -21.5t-22 -8.5h-216q-121 0 -185.5 68.5t-64.5 192.5v614h-363q-13 0 -21.5 8.5t-8.5 21.5v55q0 14 8.5 22t21.5 8h456q14 0 22 -8t8 -22v-691q0 -76 39 -115t115 -39h189zM558 1195q-23 0 -36 16l-219 249q-9 9 -9 19 q0 7 6.5 12t18.5 5h67q21 0 36 -16l183 -202l183 202q15 16 36 16h67q12 0 18.5 -5t6.5 -12q0 -10 -9 -19l-219 -249q-13 -16 -36 -16h-94z" glyph-name="uni01D0" unicode="ǐ" vert-adv-y="1980"/>
<glyph d="M1032 115q14 0 22 -8t8 -22v-55q0 -13 -8 -21.5t-22 -8.5h-216q-121 0 -185.5 68.5t-64.5 192.5v614h-363q-13 0 -21.5 8.5t-8.5 21.5v55q0 14 8.5 22t21.5 8h456q14 0 22 -8t8 -22v-691q0 -76 39 -115t115 -39h189zM319 1195q-12 0 -18.5 4.5t-6.5 12.5q0 9 9 19 l219 249q15 16 36 16h94q21 0 36 -16l219 -249q9 -10 9 -19q0 -8 -6.5 -12.5t-18.5 -4.5h-67q-21 0 -36 16l-183 201l-183 -201q-15 -16 -36 -16h-67z" glyph-name="icircumflex" unicode="î" vert-adv-y="1980"/>
<glyph d="M1032 115q14 0 22 -8t8 -22v-55q0 -13 -8 -21.5t-22 -8.5h-216q-121 0 -185.5 68.5t-64.5 192.5v614h-363q-13 0 -21.5 8.5t-8.5 21.5v55q0 14 8.5 22t21.5 8h456q14 0 22 -8t8 -22v-691q0 -76 39 -115t115 -39h189zM377 1367q-23 23 -23 54q0 30 23 52.5t54 22.5 t54 -22.5t23 -52.5q0 -31 -23 -54t-54 -23t-54 23zM727 1367q-23 23 -23 54q0 30 23 52.5t54 22.5q32 0 55 -22.5t23 -52.5q0 -31 -23 -54t-55 -23q-31 0 -54 23z" glyph-name="idieresis" unicode="ï" vert-adv-y="1980"/>
<glyph d="M1032 115q14 0 22 -8t8 -22v-55q0 -13 -8 -21.5t-22 -8.5h-216q-121 0 -185.5 68.5t-64.5 192.5v614h-363q-13 0 -21.5 8.5t-8.5 21.5v55q0 14 8.5 22t21.5 8h456q14 0 22 -8t8 -22v-691q0 -76 39 -115t115 -39h189zM551 1367q-23 23 -23 54q0 30 23 52.5t54 22.5 t54 -22.5t23 -52.5q0 -31 -23 -54t-54 -23t-54 23z" glyph-name="i.loclTRK" vert-adv-y="1980"/>
<glyph d="M1032 115q14 0 22 -8t8 -22v-55q0 -13 -8 -21.5t-22 -8.5h-216q-121 0 -185.5 68.5t-64.5 192.5v614h-363q-13 0 -21.5 8.5t-8.5 21.5v55q0 14 8.5 22t21.5 8h456q14 0 22 -8t8 -22v-691q0 -76 39 -115t115 -39h189zM579 1186q-13 0 -21 5.5t-13 18.5l-120 252 q-4 8 -4 15q0 9 7.5 14t20.5 5h39q12 0 20 -5.5t13 -18.5l121 -252q4 -10 4 -14q0 -10 -7.5 -15t-20.5 -5h-39z" glyph-name="igrave" unicode="ì" vert-adv-y="1980"/>
<glyph d="M929.5 1316.5q-32.5 32.5 -32.5 80.5t32.5 81t80.5 33t81 -33t33 -81t-33 -80.5t-81 -32.5t-80.5 32.5zM145.5 1306.5q-32.5 32.5 -32.5 80.5t32.5 81t80.5 33t81 -33t33 -81t-33 -80.5t-81 -32.5t-80.5 32.5zM195 18q-13 0 -21.5 8.5t-8.5 21.5v930q0 14 8.5 22t21.5 8 h63q14 0 22 -8t8 -22v-930q0 -13 -8 -21.5t-22 -8.5h-63zM534.5 -359q-73.5 26 -115 61.5t-41.5 57.5q0 6 2 8l37 53q7 10 19 10q11 0 23 -9q41 -33 95.5 -59t143.5 -26q117 0 200.5 68.5t83.5 238.5v831h-486q-13 0 -21.5 8.5t-8.5 21.5v55q0 14 8.5 22t21.5 8h579 q14 0 22 -8t8 -22v-924q0 -159 -62.5 -253t-154 -131t-189.5 -37q-91 0 -164.5 26z" glyph-name="ij" unicode="ĳ" vert-adv-y="1980"/>
<glyph d="M1032 115q14 0 22 -8t8 -22v-55q0 -13 -8 -21.5t-22 -8.5h-216q-121 0 -185.5 68.5t-64.5 192.5v614h-363q-13 0 -21.5 8.5t-8.5 21.5v55q0 14 8.5 22t21.5 8h456q14 0 22 -8t8 -22v-691q0 -76 39 -115t115 -39h189zM360 1391q-13 0 -21.5 8.5t-8.5 21.5v45q0 14 8.5 22 t21.5 8h491q14 0 22 -8t8 -22v-45q0 -13 -8 -21.5t-22 -8.5h-491z" glyph-name="imacron" unicode="ī" vert-adv-y="1980"/>
<glyph d="M551 1367q-23 23 -23 54q0 30 23 52.5t54 22.5t54 -22.5t23 -52.5q0 -31 -23 -54t-54 -23t-54 23zM1032 115q14 0 22 -8t8 -22v-55q0 -13 -8 -21.5t-22 -8.5h-216h-17v0q-128 0 -185.5 -36.5t-57.5 -109.5q0 -70 48 -101.5t142 -31.5h18q20 0 20 -20v-52q0 -20 -20 -20 h-54q-55 0 -114 17.5t-102.5 64.5t-43.5 129q0 89 53 141.5t140 75.5q-77 66 -77 204v614h-363q-13 0 -21.5 8.5t-8.5 21.5v55q0 14 8.5 22t21.5 8h456q14 0 22 -8t8 -22v-691q0 -76 39 -115t115 -39h189z" glyph-name="iogonek" unicode="į" vert-adv-y="1980"/>
<glyph d="M698 1316.5q-33 32.5 -33 80.5t33 81t81 33t80.5 -33t32.5 -81t-32.5 -80.5t-80.5 -32.5t-81 32.5zM303 -359q-73 26 -114.5 61.5t-41.5 57.5q0 6 2 8l36 53q7 10 19 10q11 0 23 -9q40 -33 95.5 -59t143.5 -26q117 0 200.5 68.5t83.5 238.5v831h-486q-13 0 -21.5 8.5 t-8.5 21.5v55q0 14 8.5 22t21.5 8h579q14 0 22 -8t8 -22v-924q0 -159 -62.5 -253t-154 -131t-189.5 -37q-91 0 -164 26z" glyph-name="j" unicode="j" vert-adv-y="1980"/>
<glyph d="M303 -359q-73 26 -114.5 61.5t-41.5 57.5q0 6 2 8l36 53q7 10 19 10q11 0 23 -9q40 -33 95.5 -59t143.5 -26q117 0 200.5 68.5t83.5 238.5v831h-486q-13 0 -21.5 8.5t-8.5 21.5v55q0 14 8.5 22t21.5 8h579q14 0 22 -8t8 -22v-924q0 -159 -62.5 -253t-154 -131t-189.5 -37 q-91 0 -164 26z" glyph-name="uni0237" unicode="ȷ" vert-adv-y="1980"/>
<glyph d="M1078 36q8 -11 8 -18q0 -8 -7 -13t-19 -5h-89q-12 0 -19.5 3.5t-16.5 14.5l-376 444l-232 -245v-187q0 -13 -8 -21.5t-22 -8.5h-63q-13 0 -21.5 8.5t-8.5 21.5v1340q0 14 8.5 22t21.5 8h63q14 0 22 -8t8 -22v-990l555 594q16 16 38 16h91q13 0 20 -4t7 -12q0 -7 -11 -20 l-385 -405z" glyph-name="k" unicode="k" vert-adv-y="1980"/>
<glyph d="M1078 36q8 -11 8 -18q0 -8 -7 -13t-19 -5h-89q-12 0 -19.5 3.5t-16.5 14.5l-376 444l-232 -245v-187q0 -13 -8 -21.5t-22 -8.5h-63q-13 0 -21.5 8.5t-8.5 21.5v1340q0 14 8.5 22t21.5 8h63q14 0 22 -8t8 -22v-990l555 594q16 16 38 16h91q13 0 20 -4t7 -12q0 -7 -11 -20 l-385 -405zM771 -154q13 0 21 -8t8 -21v-28q0 -206 -17 -410q-3 -24 -30 -24h-58q-28 0 -27 31q6 154 6 286v59h-226q-13 0 -21 8t-8 21v57q0 13 8 21t21 8h323z" glyph-name="uni0137" unicode="ķ" vert-adv-y="1980"/>
<glyph d="M825 0q-79 0 -140.5 36.5t-95.5 100.5t-34 144v1004h-388q-13 0 -21.5 8.5t-8.5 21.5v55q0 14 8.5 22t21.5 8h481q14 0 22 -8t8 -22v-1079q0 -50 23 -90t63 -63t90 -23h204q14 0 22 -8t8 -22v-55q0 -13 -8 -21.5t-22 -8.5h-233z" glyph-name="l" unicode="l" vert-adv-y="1980"/>
<glyph d="M825 0q-79 0 -140.5 36.5t-95.5 100.5t-34 144v1004h-388q-13 0 -21.5 8.5t-8.5 21.5v55q0 14 8.5 22t21.5 8h481q14 0 22 -8t8 -22v-1079q0 -50 23 -90t63 -63t90 -23h204q14 0 22 -8t8 -22v-55q0 -13 -8 -21.5t-22 -8.5h-233zM601 1592q-13 0 -20.5 5t-7.5 15q0 4 4 14 l120 252q6 13 14 18.5t20 5.5h39q13 0 20.5 -5t7.5 -15q0 -4 -4 -14l-120 -252q-6 -13 -14 -18.5t-20 -5.5h-39z" glyph-name="lacute" unicode="ĺ" vert-adv-y="1980"/>
<glyph d="M1079 1407q13 0 20.5 -8t7.5 -22v-29q0 -225 -16 -427q-1 -24 -29 -24h-56q-27 0 -26 32q6 160 6 297v61h-218q-12 0 -20 8.5t-8 21.5v60q0 13 8 21.5t20 8.5h311zM779 0q-79 0 -140.5 36.5t-95.5 100.5t-34 144v1004h-388q-13 0 -21.5 8.5t-8.5 21.5v55q0 14 8.5 22 t21.5 8h481q14 0 22 -8t8 -22v-1079q0 -50 23 -90t63 -63t90 -23h204q14 0 22 -8t8 -22v-55q0 -13 -8 -21.5t-22 -8.5h-233z" glyph-name="lcaron" unicode="ľ" vert-adv-y="1980"/>
<glyph d="M825 0q-79 0 -140.5 36.5t-95.5 100.5t-34 144v1004h-388q-13 0 -21.5 8.5t-8.5 21.5v55q0 14 8.5 22t21.5 8h481q14 0 22 -8t8 -22v-1079q0 -50 23 -90t63 -63t90 -23h204q14 0 22 -8t8 -22v-55q0 -13 -8 -21.5t-22 -8.5h-233zM771 -154q13 0 21 -8t8 -21v-28 q0 -206 -17 -410q-3 -24 -30 -24h-58q-28 0 -27 31q6 154 6 286v59h-226q-13 0 -21 8t-8 21v57q0 13 8 21t21 8h323z" glyph-name="uni013C" unicode="ļ" vert-adv-y="1980"/>
<glyph d="M825 0q-79 0 -140.5 36.5t-95.5 100.5t-34 144v1004h-388q-13 0 -21.5 8.5t-8.5 21.5v55q0 14 8.5 22t21.5 8h481q14 0 22 -8t8 -22v-1079q0 -50 23 -90t63 -63t90 -23h204q14 0 22 -8t8 -22v-55q0 -13 -8 -21.5t-22 -8.5h-233zM826.5 725.5q-35.5 35.5 -35.5 87.5 q0 53 35.5 88.5t88.5 35.5t88.5 -35.5t35.5 -88.5q0 -52 -35.5 -87.5t-88.5 -35.5t-88.5 35.5z" glyph-name="ldot" unicode="ŀ" vert-adv-y="1980"/>
<glyph d="M1089 115q14 0 22 -8t8 -22v-55q0 -13 -8 -21.5t-22 -8.5h-232q-79 0 -140.5 36.5t-96 100.5t-34.5 144v304l-195 -205v134l195 204v567h-387q-13 0 -21.5 8.5t-8.5 21.5v55q0 14 8.5 22t21.5 8h480q14 0 22 -8t8 -22v-523l191 200v-132l-191 -201v-423q0 -50 23 -90 t63.5 -63t90.5 -23h203z" glyph-name="lslash" unicode="ł" vert-adv-y="1980"/>
<glyph d="M152 0q-13 0 -21.5 8.5t-8.5 21.5v930q0 14 8.5 22t21.5 8h49q13 0 21 -8t9 -22l7 -85h6q22 64 73 99.5t131 35.5t128.5 -34.5t78.5 -100.5h6q26 65 77 100t134 35q114 0 175 -72t61 -231v-677q0 -13 -8 -21.5t-22 -8.5h-59q-13 0 -21.5 8.5t-8.5 21.5v664 q0 98 -41 150.5t-117 52.5t-117 -52.5t-41 -150.5v-664q0 -13 -8 -21.5t-22 -8.5h-56q-13 0 -21.5 8.5t-8.5 21.5v664q0 98 -41 150.5t-117 52.5t-117 -52.5t-41 -150.5v-664q0 -13 -8 -21.5t-22 -8.5h-59z" glyph-name="m" unicode="m" vert-adv-y="1980"/>
<glyph d="M856.5 963.5q88.5 -46.5 139.5 -137t51 -216.5v-580q0 -13 -8 -21.5t-22 -8.5h-63q-13 0 -21.5 8.5t-8.5 21.5v559q0 90 -37 160t-106.5 109t-161.5 39q-93 0 -164 -39.5t-110 -109.5t-39 -159v-559q0 -13 -8 -21.5t-22 -8.5h-63q-13 0 -21.5 8.5t-8.5 21.5v930 q0 14 8.5 22t21.5 8h55q13 0 21 -8t9 -22l8 -139h17q40 88 130.5 138.5t203.5 50.5q111 0 199.5 -46.5z" glyph-name="n" unicode="n" vert-adv-y="1980"/>
<glyph d="M856.5 963.5q88.5 -46.5 139.5 -137t51 -216.5v-580q0 -13 -8 -21.5t-22 -8.5h-63q-13 0 -21.5 8.5t-8.5 21.5v559q0 90 -37 160t-106.5 109t-161.5 39q-93 0 -164 -39.5t-110 -109.5t-39 -159v-559q0 -13 -8 -21.5t-22 -8.5h-63q-13 0 -21.5 8.5t-8.5 21.5v930 q0 14 8.5 22t21.5 8h55q13 0 21 -8t9 -22l8 -139h17q40 88 130.5 138.5t203.5 50.5q111 0 199.5 -46.5zM601 1186q-13 0 -20.5 5t-7.5 15q0 4 4 14l120 252q6 13 14 18.5t20 5.5h39q13 0 20.5 -5t7.5 -15q0 -4 -4 -14l-120 -252q-6 -13 -14 -18.5t-20 -5.5h-39z" glyph-name="nacute" unicode="ń" vert-adv-y="1980"/>
<glyph d="M856.5 963.5q88.5 -46.5 139.5 -137t51 -216.5v-580q0 -13 -8 -21.5t-22 -8.5h-63q-13 0 -21.5 8.5t-8.5 21.5v559q0 90 -37 160t-106.5 109t-161.5 39q-93 0 -164 -39.5t-110 -109.5t-39 -159v-559q0 -13 -8 -21.5t-22 -8.5h-63q-13 0 -21.5 8.5t-8.5 21.5v930 q0 14 8.5 22t21.5 8h55q13 0 21 -8t9 -22l8 -139h17q40 88 130.5 138.5t203.5 50.5q111 0 199.5 -46.5zM568 1195q-23 0 -36 16l-219 249q-9 9 -9 19q0 7 6.5 12t18.5 5h67q21 0 36 -16l183 -202l183 202q15 16 36 16h67q12 0 18.5 -5t6.5 -12q0 -10 -9 -19l-219 -249 q-13 -16 -36 -16h-94z" glyph-name="ncaron" unicode="ň" vert-adv-y="1980"/>
<glyph d="M856.5 963.5q88.5 -46.5 139.5 -137t51 -216.5v-580q0 -13 -8 -21.5t-22 -8.5h-63q-13 0 -21.5 8.5t-8.5 21.5v559q0 90 -37 160t-106.5 109t-161.5 39q-93 0 -164 -39.5t-110 -109.5t-39 -159v-559q0 -13 -8 -21.5t-22 -8.5h-63q-13 0 -21.5 8.5t-8.5 21.5v930 q0 14 8.5 22t21.5 8h55q13 0 21 -8t9 -22l8 -139h17q40 88 130.5 138.5t203.5 50.5q111 0 199.5 -46.5zM771 -154q13 0 21 -8t8 -21v-28q0 -206 -17 -410q-3 -24 -30 -24h-58q-28 0 -27 31q6 154 6 286v59h-226q-13 0 -21 8t-8 21v57q0 13 8 21t21 8h323z" glyph-name="uni0146" unicode="ņ" vert-adv-y="1980"/>
<glyph d="M856.5 963.5q88.5 -46.5 139.5 -137t51 -216.5v-602q0 -202 -80 -303t-227 -101q-16 0 -21 18l-17 67q-1 2 -1 6q0 7 4.5 11.5t12.5 4.5q110 0 158 74t48 224v580q0 90 -37 160t-106.5 109t-161.5 39q-93 0 -164 -39.5t-110 -109.5t-39 -159v-559q0 -13 -8 -21.5 t-22 -8.5h-63q-13 0 -21.5 8.5t-8.5 21.5v930q0 14 8.5 22t21.5 8h55q13 0 21 -8t9 -22l8 -139h17q40 88 130.5 138.5t203.5 50.5q111 0 199.5 -46.5z" glyph-name="eng" unicode="ŋ" vert-adv-y="1980"/>
<glyph d="M856.5 963.5q88.5 -46.5 139.5 -137t51 -216.5v-580q0 -13 -8 -21.5t-22 -8.5h-63q-13 0 -21.5 8.5t-8.5 21.5v559q0 90 -37 160t-106.5 109t-161.5 39q-93 0 -164 -39.5t-110 -109.5t-39 -159v-559q0 -13 -8 -21.5t-22 -8.5h-63q-13 0 -21.5 8.5t-8.5 21.5v930 q0 14 8.5 22t21.5 8h55q13 0 21 -8t9 -22l8 -139h17q40 88 130.5 138.5t203.5 50.5q111 0 199.5 -46.5zM665 1284.5q-37 21.5 -80 62.5q-33 31 -55.5 45.5t-51.5 14.5q-35 0 -58.5 -19t-31.5 -44q-6 -19 -24 -19h-57q-20 0 -19 24q6 70 58.5 113t128.5 43q41 0 72.5 -12 t53 -29t49.5 -44q31 -30 53.5 -44.5t51.5 -14.5q34 0 57 19t32 44q6 19 23 19h58q10 0 16 -5.5t5 -15.5q-7 -72 -60 -115.5t-127 -43.5q-57 0 -94 21.5z" glyph-name="ntilde" unicode="ñ" vert-adv-y="1980"/>
<glyph d="M358.5 42.5q-113.5 67.5 -178 186t-64.5 264.5t64.5 264t178 185.5t256.5 67.5t256.5 -67.5t178 -185.5t64.5 -264t-64.5 -264.5t-178 -186t-256.5 -67.5t-256.5 67.5zM810.5 139q86.5 51 135 143t48.5 211t-48.5 210.5t-135 142.5t-195.5 51t-195.5 -51t-135 -142.5 t-48.5 -210.5t48.5 -211t135 -143t195.5 -51t195.5 51z" glyph-name="o" unicode="o" vert-adv-y="1980"/>
<glyph d="M358.5 42.5q-113.5 67.5 -178 186t-64.5 264.5t64.5 264t178 185.5t256.5 67.5t256.5 -67.5t178 -185.5t64.5 -264t-64.5 -264.5t-178 -186t-256.5 -67.5t-256.5 67.5zM810.5 139q86.5 51 135 143t48.5 211t-48.5 210.5t-135 142.5t-195.5 51t-195.5 -51t-135 -142.5 t-48.5 -210.5t48.5 -211t135 -143t195.5 -51t195.5 51zM601 1186q-13 0 -20.5 5t-7.5 15q0 4 4 14l120 252q6 13 14 18.5t20 5.5h39q13 0 20.5 -5t7.5 -15q0 -4 -4 -14l-120 -252q-6 -13 -14 -18.5t-20 -5.5h-39z" glyph-name="oacute" unicode="ó" vert-adv-y="1980"/>
<glyph d="M358.5 42.5q-113.5 67.5 -178 186t-64.5 264.5t64.5 264t178 185.5t256.5 67.5t256.5 -67.5t178 -185.5t64.5 -264t-64.5 -264.5t-178 -186t-256.5 -67.5t-256.5 67.5zM810.5 139q86.5 51 135 143t48.5 211t-48.5 210.5t-135 142.5t-195.5 51t-195.5 -51t-135 -142.5 t-48.5 -210.5t48.5 -211t135 -143t195.5 -51t195.5 51zM568 1195q-23 0 -36 16l-219 249q-9 9 -9 19q0 7 6.5 12t18.5 5h67q21 0 36 -16l183 -202l183 202q15 16 36 16h67q12 0 18.5 -5t6.5 -12q0 -10 -9 -19l-219 -249q-13 -16 -36 -16h-94z" glyph-name="uni01D2" unicode="ǒ" vert-adv-y="1980"/>
<glyph d="M358.5 42.5q-113.5 67.5 -178 186t-64.5 264.5t64.5 264t178 185.5t256.5 67.5t256.5 -67.5t178 -185.5t64.5 -264t-64.5 -264.5t-178 -186t-256.5 -67.5t-256.5 67.5zM810.5 139q86.5 51 135 143t48.5 211t-48.5 210.5t-135 142.5t-195.5 51t-195.5 -51t-135 -142.5 t-48.5 -210.5t48.5 -211t135 -143t195.5 -51t195.5 51zM329 1195q-12 0 -18.5 4.5t-6.5 12.5q0 9 9 19l219 249q15 16 36 16h94q21 0 36 -16l219 -249q9 -10 9 -19q0 -8 -6.5 -12.5t-18.5 -4.5h-67q-21 0 -36 16l-183 201l-183 -201q-15 -16 -36 -16h-67z" glyph-name="ocircumflex" unicode="ô" vert-adv-y="1980"/>
<glyph d="M358.5 42.5q-113.5 67.5 -178 186t-64.5 264.5t64.5 264t178 185.5t256.5 67.5t256.5 -67.5t178 -185.5t64.5 -264t-64.5 -264.5t-178 -186t-256.5 -67.5t-256.5 67.5zM810.5 139q86.5 51 135 143t48.5 211t-48.5 210.5t-135 142.5t-195.5 51t-195.5 -51t-135 -142.5 t-48.5 -210.5t48.5 -211t135 -143t195.5 -51t195.5 51zM387 1367q-23 23 -23 54q0 30 23 52.5t54 22.5t54 -22.5t23 -52.5q0 -31 -23 -54t-54 -23t-54 23zM737 1367q-23 23 -23 54q0 30 23 52.5t54 22.5q32 0 55 -22.5t23 -52.5q0 -31 -23 -54t-55 -23q-31 0 -54 23z" glyph-name="odieresis" unicode="ö" vert-adv-y="1980"/>
<glyph d="M358.5 42.5q-113.5 67.5 -178 186t-64.5 264.5t64.5 264t178 185.5t256.5 67.5t256.5 -67.5t178 -185.5t64.5 -264t-64.5 -264.5t-178 -186t-256.5 -67.5t-256.5 67.5zM810.5 139q86.5 51 135 143t48.5 211t-48.5 210.5t-135 142.5t-195.5 51t-195.5 -51t-135 -142.5 t-48.5 -210.5t48.5 -211t135 -143t195.5 -51t195.5 51zM589 1186q-13 0 -21 5.5t-13 18.5l-120 252q-4 8 -4 15q0 9 7.5 14t20.5 5h39q12 0 20 -5.5t13 -18.5l121 -252q4 -10 4 -14q0 -10 -7.5 -15t-20.5 -5h-39z" glyph-name="ograve" unicode="ò" vert-adv-y="1980"/>
<glyph d="M358.5 42.5q-113.5 67.5 -178 186t-64.5 264.5t64.5 264t178 185.5t256.5 67.5t256.5 -67.5t178 -185.5t64.5 -264t-64.5 -264.5t-178 -186t-256.5 -67.5t-256.5 67.5zM810.5 139q86.5 51 135 143t48.5 211t-48.5 210.5t-135 142.5t-195.5 51t-195.5 -51t-135 -142.5 t-48.5 -210.5t48.5 -211t135 -143t195.5 -51t195.5 51zM707 1186q-13 0 -20.5 5t-7.5 15q0 4 4 14l120 252q6 13 14 18.5t20 5.5h39q13 0 20.5 -5t7.5 -15q0 -4 -4 -14l-120 -252q-6 -13 -14 -18.5t-20 -5.5h-39zM435 1186q-13 0 -20.5 5t-7.5 15q0 4 4 14l120 252 q6 13 14 18.5t20 5.5h39q13 0 20.5 -5t7.5 -15q0 -4 -4 -14l-120 -252q-6 -13 -14 -18.5t-20 -5.5h-39z" glyph-name="ohungarumlaut" unicode="ő" vert-adv-y="1980"/>
<glyph d="M358.5 42.5q-113.5 67.5 -178 186t-64.5 264.5t64.5 264t178 185.5t256.5 67.5t256.5 -67.5t178 -185.5t64.5 -264t-64.5 -264.5t-178 -186t-256.5 -67.5t-256.5 67.5zM810.5 139q86.5 51 135 143t48.5 211t-48.5 210.5t-135 142.5t-195.5 51t-195.5 -51t-135 -142.5 t-48.5 -210.5t48.5 -211t135 -143t195.5 -51t195.5 51zM370 1391q-13 0 -21.5 8.5t-8.5 21.5v45q0 14 8.5 22t21.5 8h491q14 0 22 -8t8 -22v-45q0 -13 -8 -21.5t-22 -8.5h-491z" glyph-name="omacron" unicode="ō" vert-adv-y="1980"/>
<glyph d="M758 -7q-79 -19 -123 -37t-66.5 -46.5t-22.5 -74.5q0 -69 49 -100t143 -31h16q20 0 20 -20v-51q0 -20 -20 -20h-54q-55 0 -114 17.5t-102.5 63t-43.5 124.5q0 113 99 162q-124 17 -220 87.5t-149.5 181.5t-53.5 244q0 146 64.5 264t178 185.5t256.5 67.5t256.5 -67.5 t178 -185.5t64.5 -264q0 -121 -44.5 -223.5t-125 -174t-186.5 -101.5v-1zM284.5 282q48.5 -92 135 -143t195.5 -51t195.5 51t135 143t48.5 211t-48.5 210.5t-135 142.5t-195.5 51t-195.5 -51t-135 -142.5t-48.5 -210.5t48.5 -211z" glyph-name="uni01EB" unicode="ǫ" vert-adv-y="1980"/>
<glyph d="M885 935q107 -68 168 -184t61 -258q0 -146 -64.5 -264.5t-178 -186t-256.5 -67.5q-95 0 -180 31l-60 -124q-9 -22 -34 -22h-44q-12 0 -19 5.5t-7 14.5q0 8 4 16l73 153q-108 67 -170 183.5t-62 260.5q0 146 64.5 264t178 185.5t256.5 67.5q97 0 181 -32l56 116 q11 22 34 22h47q12 0 19 -5.5t7 -14.5q0 -8 -4 -16zM279 293.5q43 -87.5 120 -140.5l348 722q-60 22 -132 22q-109 0 -195.5 -51t-135 -142.5t-48.5 -210.5q0 -112 43 -199.5zM810.5 139q86.5 51 135 143t48.5 211q0 110 -42.5 197.5t-117.5 140.5l-349 -722q60 -21 130 -21 q109 0 195.5 51z" glyph-name="oslash" unicode="ø" vert-adv-y="1980"/>
<glyph d="M358.5 42.5q-113.5 67.5 -178 186t-64.5 264.5t64.5 264t178 185.5t256.5 67.5t256.5 -67.5t178 -185.5t64.5 -264t-64.5 -264.5t-178 -186t-256.5 -67.5t-256.5 67.5zM810.5 139q86.5 51 135 143t48.5 211t-48.5 210.5t-135 142.5t-195.5 51t-195.5 -51t-135 -142.5 t-48.5 -210.5t48.5 -211t135 -143t195.5 -51t195.5 51zM665 1284.5q-37 21.5 -80 62.5q-33 31 -55.5 45.5t-51.5 14.5q-35 0 -58.5 -19t-31.5 -44q-6 -19 -24 -19h-57q-20 0 -19 24q6 70 58.5 113t128.5 43q41 0 72.5 -12t53 -29t49.5 -44q31 -30 53.5 -44.5t51.5 -14.5 q34 0 57 19t32 44q6 19 23 19h58q10 0 16 -5.5t5 -15.5q-7 -72 -60 -115.5t-127 -43.5q-57 0 -94 21.5z" glyph-name="otilde" unicode="õ" vert-adv-y="1980"/>
<glyph d="M995 99.5q34 13.5 58 35t53 56.5l62 -72q-41 -69 -107 -107t-153 -38q-104 0 -174 54.5t-107 154.5q-69 -209 -263 -209q-168 0 -242.5 140t-74.5 380q0 239 74.5 379t242.5 140q196 0 263 -210q79 210 272 210q159 0 221.5 -131.5t62.5 -349.5q0 -53 -11 -74.5 t-45 -21.5h-442q2 -165 55 -257.5t175 -92.5q46 0 80 13.5zM516 196.5q47 108.5 47 297.5t-47 297.5t-151 108.5q-103 0 -150.5 -108.5t-47.5 -297.5t47.5 -297.5t150.5 -108.5q104 0 151 108.5zM739.5 800q-49.5 -100 -53.5 -260h390q4 163 -39.5 261.5t-149.5 98.5 q-98 0 -147.5 -100z" glyph-name="oe" unicode="œ" vert-adv-y="1980"/>
<glyph d="M887 944q108 -66 166.5 -183.5t58.5 -267.5t-58.5 -267.5t-166.5 -184t-252 -66.5q-135 0 -226.5 56t-138.5 146h-17v-527q0 -14 -8 -22t-22 -8h-56q-13 0 -21.5 8t-8.5 22v1310q0 14 8.5 22t21.5 8h63q14 0 22 -8t8 -22v-153h10q47 91 138.5 147t226.5 56q144 0 252 -66 zM819.5 138q83.5 51 128.5 142.5t45 212.5t-45 212.5t-128.5 142t-196.5 50.5q-114 0 -198.5 -50.5t-130.5 -142.5t-46 -212q0 -118 46 -210.5t131 -144t198 -51.5t196.5 51z" glyph-name="p" unicode="p" vert-adv-y="1980"/>
<glyph d="M1069 259.5q-43 -105.5 -123 -175.5q-60 -53 -136.5 -81t-167.5 -28h-3h-4q-135 0 -226.5 56t-138.5 146h-11l-5 -147q0 -5 -1 -7v-373q0 -14 -8 -22t-22 -8h-56q-13 0 -21.5 8t-8.5 22v1720q0 14 8.5 22t21.5 8h63q14 0 22 -8t8 -22v-536q53 75 143.5 125.5t221.5 50.5 h5h5q144 0 252 -66t166.5 -183.5t58.5 -267.5q0 -128 -43 -233.5zM312.5 250.5q64.5 -102.5 178.5 -142.5q60 -20 129 -20q112 0 195.5 50.5t128.5 142.5t45 212t-45 211.5t-128.5 142t-195.5 50.5t-196 -50.5t-130 -142t-46 -211.5q0 -140 64.5 -242.5z" glyph-name="thorn" unicode="þ" vert-adv-y="1980"/>
<glyph d="M1063 990q14 0 22 -8t8 -22v-1310q0 -14 -8 -22t-22 -8h-56q-13 0 -21.5 8t-8.5 22v527h-17q-47 -90 -138.5 -146t-226.5 -56q-144 0 -252 66.5t-166.5 184t-58.5 267.5t58.5 267.5t166.5 183.5t252 66q135 0 226.5 -56t138.5 -147h10v153q0 14 8.5 22t21.5 8h63z M805 138.5q85 51.5 131 144t46 210.5q0 120 -46 212t-130.5 142.5t-198.5 50.5q-113 0 -196.5 -50.5t-128.5 -142t-45 -212.5t45 -212.5t128.5 -142.5t196.5 -51t198 51.5z" glyph-name="q" unicode="q" vert-adv-y="1980"/>
<glyph d="M894 971q84 -39 132 -111.5t48 -170.5q0 -45 -12 -64.5t-40 -19.5h-34q-15 0 -23.5 8t-8.5 22q-2 132 -79.5 197t-201.5 65q-105 0 -182.5 -45.5t-119 -126t-41.5 -184.5v-511q0 -13 -8 -21.5t-22 -8.5h-63q-13 0 -21.5 8.5t-8.5 21.5v930q0 14 8.5 22t21.5 8h55 q13 0 20.5 -8t9.5 -22l8 -155h16q45 101 140 153t217 52q105 0 189 -39z" glyph-name="r" unicode="r" vert-adv-y="1980"/>
<glyph d="M894 971q84 -39 132 -111.5t48 -170.5q0 -45 -12 -64.5t-40 -19.5h-34q-15 0 -23.5 8t-8.5 22q-2 132 -79.5 197t-201.5 65q-105 0 -182.5 -45.5t-119 -126t-41.5 -184.5v-511q0 -13 -8 -21.5t-22 -8.5h-63q-13 0 -21.5 8.5t-8.5 21.5v930q0 14 8.5 22t21.5 8h55 q13 0 20.5 -8t9.5 -22l8 -155h16q45 101 140 153t217 52q105 0 189 -39zM621 1186q-13 0 -20.5 5t-7.5 15q0 4 4 14l120 252q6 13 14 18.5t20 5.5h39q13 0 20.5 -5t7.5 -15q0 -4 -4 -14l-120 -252q-6 -13 -14 -18.5t-20 -5.5h-39z" glyph-name="racute" unicode="ŕ" vert-adv-y="1980"/>
<glyph d="M894 971q84 -39 132 -111.5t48 -170.5q0 -45 -12 -64.5t-40 -19.5h-34q-15 0 -23.5 8t-8.5 22q-2 132 -79.5 197t-201.5 65q-105 0 -182.5 -45.5t-119 -126t-41.5 -184.5v-511q0 -13 -8 -21.5t-22 -8.5h-63q-13 0 -21.5 8.5t-8.5 21.5v930q0 14 8.5 22t21.5 8h55 q13 0 20.5 -8t9.5 -22l8 -155h16q45 101 140 153t217 52q105 0 189 -39zM588 1195q-23 0 -36 16l-219 249q-9 9 -9 19q0 7 6.5 12t18.5 5h67q21 0 36 -16l183 -202l183 202q15 16 36 16h67q12 0 18.5 -5t6.5 -12q0 -10 -9 -19l-219 -249q-13 -16 -36 -16h-94z" glyph-name="rcaron" unicode="ř" vert-adv-y="1980"/>
<glyph d="M894 971q84 -39 132 -111.5t48 -170.5q0 -45 -12 -64.5t-40 -19.5h-34q-15 0 -23.5 8t-8.5 22q-2 132 -79.5 197t-201.5 65q-105 0 -182.5 -45.5t-119 -126t-41.5 -184.5v-511q0 -13 -8 -21.5t-22 -8.5h-63q-13 0 -21.5 8.5t-8.5 21.5v930q0 14 8.5 22t21.5 8h55 q13 0 20.5 -8t9.5 -22l8 -155h16q45 101 140 153t217 52q105 0 189 -39zM389 -154q13 0 21 -8t8 -21v-28q0 -206 -17 -410q-3 -24 -30 -24h-58q-28 0 -27 31q6 154 6 286v59h-226q-13 0 -21 8t-8 21v57q0 13 8 21t21 8h323z" glyph-name="uni0157" unicode="ŗ" vert-adv-y="1980"/>
<glyph d="M857 505q90 -25 145.5 -81.5t55.5 -157.5q0 -136 -108.5 -213.5t-331.5 -77.5q-190 0 -310.5 60.5t-135.5 183.5q-1 15 6 22.5t21 7.5h65q25 0 31 -25q17 -72 103 -105t219 -33q321 0 321 180q0 60 -37 94t-104.5 51t-187.5 31q-132 15 -221 43t-142.5 86.5t-53.5 156.5 q0 130 103 206t314 76q181 0 296.5 -60.5t130.5 -184.5q1 -15 -6 -22.5t-21 -7.5h-64q-27 0 -31 25q-10 68 -97.5 103.5t-217.5 35.5q-139 0 -213 -42.5t-74 -129.5q0 -61 35.5 -96.5t101 -53t175.5 -30.5q143 -17 233 -42z" glyph-name="s" unicode="s" vert-adv-y="1980"/>
<glyph d="M857 505q90 -25 145.5 -81.5t55.5 -157.5q0 -136 -108.5 -213.5t-331.5 -77.5q-190 0 -310.5 60.5t-135.5 183.5q-1 15 6 22.5t21 7.5h65q25 0 31 -25q17 -72 103 -105t219 -33q321 0 321 180q0 60 -37 94t-104.5 51t-187.5 31q-132 15 -221 43t-142.5 86.5t-53.5 156.5 q0 130 103 206t314 76q181 0 296.5 -60.5t130.5 -184.5q1 -15 -6 -22.5t-21 -7.5h-64q-27 0 -31 25q-10 68 -97.5 103.5t-217.5 35.5q-139 0 -213 -42.5t-74 -129.5q0 -61 35.5 -96.5t101 -53t175.5 -30.5q143 -17 233 -42zM601 1186q-13 0 -20.5 5t-7.5 15q0 4 4 14 l120 252q6 13 14 18.5t20 5.5h39q13 0 20.5 -5t7.5 -15q0 -4 -4 -14l-120 -252q-6 -13 -14 -18.5t-20 -5.5h-39z" glyph-name="sacute" unicode="ś" vert-adv-y="1980"/>
<glyph d="M857 505q90 -25 145.5 -81.5t55.5 -157.5q0 -136 -108.5 -213.5t-331.5 -77.5q-190 0 -310.5 60.5t-135.5 183.5q-1 15 6 22.5t21 7.5h65q25 0 31 -25q17 -72 103 -105t219 -33q321 0 321 180q0 60 -37 94t-104.5 51t-187.5 31q-132 15 -221 43t-142.5 86.5t-53.5 156.5 q0 130 103 206t314 76q181 0 296.5 -60.5t130.5 -184.5q1 -15 -6 -22.5t-21 -7.5h-64q-27 0 -31 25q-10 68 -97.5 103.5t-217.5 35.5q-139 0 -213 -42.5t-74 -129.5q0 -61 35.5 -96.5t101 -53t175.5 -30.5q143 -17 233 -42zM568 1195q-23 0 -36 16l-219 249q-9 9 -9 19 q0 7 6.5 12t18.5 5h67q21 0 36 -16l183 -202l183 202q15 16 36 16h67q12 0 18.5 -5t6.5 -12q0 -10 -9 -19l-219 -249q-13 -16 -36 -16h-94z" glyph-name="scaron" unicode="š" vert-adv-y="1980"/>
<glyph d="M961.5 61q-96.5 -76 -295.5 -85l-52 -55q67 -6 112 -47.5t45 -105.5q0 -65 -31.5 -108t-83 -63.5t-112.5 -20.5q-37 0 -63 5q-18 3 -18 22v47q0 9 6 15t16 5q23 -4 49 -4q61 0 96 24.5t35 67.5q0 35 -29.5 57.5t-74.5 22.5q-36 0 -74 -16q-4 -2 -10 -2q-14 0 -14 16v41 q0 11 10 24l70 77q-160 11 -258.5 71t-112.5 170q-1 15 6 22.5t21 7.5h65q25 0 31 -25q17 -72 103 -105t219 -33q321 0 321 180q0 60 -37 94t-104.5 51t-187.5 31q-132 15 -221 43t-142.5 86.5t-53.5 156.5q0 130 103 206t314 76q181 0 296.5 -60.5t130.5 -184.5 q1 -15 -6 -22.5t-21 -7.5h-64q-27 0 -31 25q-10 68 -97.5 103.5t-217.5 35.5q-139 0 -213 -42.5t-74 -129.5q0 -61 35.5 -96.5t101 -53t175.5 -30.5q143 -17 233 -42t145.5 -81.5t55.5 -157.5q0 -129 -96.5 -205z" glyph-name="scedilla" unicode="ş" vert-adv-y="1980"/>
<glyph d="M857 505q90 -25 145.5 -81.5t55.5 -157.5q0 -136 -108.5 -213.5t-331.5 -77.5q-190 0 -310.5 60.5t-135.5 183.5q-1 15 6 22.5t21 7.5h65q25 0 31 -25q17 -72 103 -105t219 -33q321 0 321 180q0 60 -37 94t-104.5 51t-187.5 31q-132 15 -221 43t-142.5 86.5t-53.5 156.5 q0 130 103 206t314 76q181 0 296.5 -60.5t130.5 -184.5q1 -15 -6 -22.5t-21 -7.5h-64q-27 0 -31 25q-10 68 -97.5 103.5t-217.5 35.5q-139 0 -213 -42.5t-74 -129.5q0 -61 35.5 -96.5t101 -53t175.5 -30.5q143 -17 233 -42zM771 -154q13 0 21 -8t8 -21v-28q0 -206 -17 -410 q-3 -24 -30 -24h-58q-28 0 -27 31q6 154 6 286v59h-226q-13 0 -21 8t-8 21v57q0 13 8 21t21 8h323z" glyph-name="uni0219" unicode="ș" vert-adv-y="1980"/>
<glyph d="M777 711.5q18 -24.5 45 -43t76 -45.5q74 -42 120 -77t79.5 -94t33.5 -145q0 -147 -106.5 -227t-317.5 -80h-166q-13 0 -21.5 8.5t-8.5 21.5v50q0 14 8.5 22t21.5 8h144q158 0 241 47.5t83 152.5q0 61 -26.5 104.5t-64.5 71.5t-101 63q-59 33 -95 58.5t-60 63.5t-24 91 q0 49 18.5 82t56.5 75q27 31 43 53t27.5 54.5t11.5 74.5q0 87 -55.5 137t-177.5 50q-95 0 -147.5 -31t-72 -84.5t-19.5 -130.5v-1012q0 -13 -8 -21.5t-22 -8.5h-63q-13 0 -21.5 8.5t-8.5 21.5v803h-132q-13 0 -21.5 8.5t-8.5 21.5v47q0 14 8.5 22t21.5 8h132v111 q0 349 362 349q176 0 264.5 -78.5t88.5 -210.5q0 -55 -14 -97t-33.5 -70.5t-49.5 -63.5q-31 -37 -45 -60.5t-14 -52.5q0 -31 18 -55.5z" glyph-name="germandbls" unicode="ß" vert-adv-y="1980"/>
<glyph d="M1115 1417v-53q0 -29 -30 -25q-53 8 -99 13.5t-117 5.5q-99 0 -170 -20t-115.5 -80t-44.5 -173v-1055q0 -13 -8 -21.5t-22 -8.5h-63q-13 0 -21.5 8.5t-8.5 21.5v843h-271q-13 0 -21.5 8.5t-8.5 21.5v47q0 14 8.5 22t21.5 8h271v121q0 209 124 290t312 81q67 0 135 -7.5 t103 -16.5q25 -7 25 -31z" glyph-name="longs" unicode="ſ" vert-adv-y="1980"/>
<glyph d="M1108 164q6 -9 6 -18q0 -11 -10 -25q-17 -25 -62 -59t-116.5 -60.5t-158.5 -26.5q-90 0 -169.5 33.5t-131.5 115t-52 217.5v524h-277q-13 0 -21.5 8.5t-8.5 21.5v55q0 14 8.5 22t21.5 8h277v280q0 14 8.5 22t21.5 8h63q14 0 22 -8t8 -22v-280h514q14 0 22 -8t8 -22v-55 q0 -13 -8 -21.5t-22 -8.5h-514v-499q0 -154 69 -214.5t175 -60.5q90 0 147 30t98 69q15 15 29 15q15 0 32 -17q15 -15 21 -24z" glyph-name="t" unicode="t" vert-adv-y="1980"/>
<glyph d="M1108 164q6 -9 6 -18q0 -11 -10 -25q-17 -25 -62 -59t-116.5 -60.5t-158.5 -26.5q-90 0 -169.5 33.5t-131.5 115t-52 217.5v274h-277q-13 0 -21.5 8.5t-8.5 21.5v50q0 14 8.5 22t21.5 8h277v140h-277q-13 0 -21.5 8.5t-8.5 21.5v55q0 14 8.5 22t21.5 8h277v280 q0 14 8.5 22t21.5 8h63q14 0 22 -8t8 -22v-280h514q14 0 22 -8t8 -22v-55q0 -13 -8 -21.5t-22 -8.5h-514v-140h516q14 0 22 -8t8 -22v-50q0 -13 -8 -21.5t-22 -8.5h-516v-249q0 -154 69 -214.5t175 -60.5q90 0 147 30t98 69q15 15 29 15q15 0 32 -17q15 -15 21 -24z" glyph-name="tbar" unicode="ŧ" vert-adv-y="1980"/>
<glyph d="M1108 164q6 -9 6 -18q0 -11 -10 -25q-17 -25 -62 -59t-116.5 -60.5t-158.5 -26.5q-90 0 -169.5 33.5t-131.5 115t-52 217.5v524h-277q-13 0 -21.5 8.5t-8.5 21.5v55q0 14 8.5 22t21.5 8h277v280q0 14 8.5 22t21.5 8h63q14 0 22 -8t8 -22v-280h514q14 0 22 -8t8 -22v-55 q0 -13 -8 -21.5t-22 -8.5h-514v-499q0 -154 69 -214.5t175 -60.5q90 0 147 30t98 69q15 15 29 15q15 0 32 -17q15 -15 21 -24zM949 1330q-13 0 -20.5 5t-7.5 15q0 4 4 14l120 252q6 13 14 18.5t20 5.5h39q13 0 20.5 -5t7.5 -15q0 -4 -4 -14l-120 -252q-6 -13 -14 -18.5 t-20 -5.5h-39z" glyph-name="tcaron" unicode="ť" vert-adv-y="1980"/>
<glyph d="M1108 164q6 -9 6 -18q0 -11 -10 -25q-16 -22 -53.5 -52.5t-97.5 -56.5t-133 -34l-54 -57q67 -6 112 -47.5t45 -105.5q0 -65 -31.5 -108t-83 -63.5t-112.5 -20.5q-37 0 -63 5q-18 3 -18 22v47q0 9 6 15t16 5q23 -4 49 -4q61 0 96 24.5t35 67.5q0 35 -29.5 57.5t-74.5 22.5 q-36 0 -74 -16q-4 -2 -10 -2q-14 0 -14 16v41q0 11 10 24l72 79q-122 18 -202.5 104t-80.5 257v524h-277q-13 0 -21.5 8.5t-8.5 21.5v55q0 14 8.5 22t21.5 8h277v280q0 14 8.5 22t21.5 8h63q14 0 22 -8t8 -22v-280h514q14 0 22 -8t8 -22v-55q0 -13 -8 -21.5t-22 -8.5h-514 v-499q0 -154 69 -214.5t175 -60.5q90 0 147 30t98 69q15 15 29 15q15 0 32 -17q15 -15 21 -24z" glyph-name="uni0163" unicode="ţ" vert-adv-y="1980"/>
<glyph d="M1108 164q6 -9 6 -18q0 -11 -10 -25q-17 -25 -62 -59t-116.5 -60.5t-158.5 -26.5q-90 0 -169.5 33.5t-131.5 115t-52 217.5v524h-277q-13 0 -21.5 8.5t-8.5 21.5v55q0 14 8.5 22t21.5 8h277v280q0 14 8.5 22t21.5 8h63q14 0 22 -8t8 -22v-280h514q14 0 22 -8t8 -22v-55 q0 -13 -8 -21.5t-22 -8.5h-514v-499q0 -154 69 -214.5t175 -60.5q90 0 147 30t98 69q15 15 29 15q15 0 32 -17q15 -15 21 -24zM923 -154q13 0 21 -8t8 -21v-28q0 -206 -17 -410q-3 -24 -30 -24h-58q-28 0 -27 31q6 154 6 286v59h-226q-13 0 -21 8t-8 21v57q0 13 8 21t21 8 h323z" glyph-name="uni021B" unicode="ț" vert-adv-y="1980"/>
<glyph d="M1017 990q14 0 22 -8t8 -22v-930q0 -13 -8 -21.5t-22 -8.5h-55q-13 0 -21 8t-9 22l-8 139h-17q-40 -88 -130.5 -138.5t-203.5 -50.5q-111 0 -199.5 46.5t-139.5 137t-51 216.5v580q0 14 8.5 22t21.5 8h63q14 0 22 -8t8 -22v-559q0 -90 37 -160t106.5 -109t161.5 -39 q93 0 164 39.5t110 109.5t39 159v559q0 14 8.5 22t21.5 8h63z" glyph-name="u" unicode="u" vert-adv-y="1980"/>
<glyph d="M1017 990q14 0 22 -8t8 -22v-930q0 -13 -8 -21.5t-22 -8.5h-55q-13 0 -21 8t-9 22l-8 139h-17q-40 -88 -130.5 -138.5t-203.5 -50.5q-111 0 -199.5 46.5t-139.5 137t-51 216.5v580q0 14 8.5 22t21.5 8h63q14 0 22 -8t8 -22v-559q0 -90 37 -160t106.5 -109t161.5 -39 q93 0 164 39.5t110 109.5t39 159v559q0 14 8.5 22t21.5 8h63zM601 1186q-13 0 -20.5 5t-7.5 15q0 4 4 14l120 252q6 13 14 18.5t20 5.5h39q13 0 20.5 -5t7.5 -15q0 -4 -4 -14l-120 -252q-6 -13 -14 -18.5t-20 -5.5h-39z" glyph-name="uacute" unicode="ú" vert-adv-y="1980"/>
<glyph d="M1017 990q14 0 22 -8t8 -22v-930q0 -13 -8 -21.5t-22 -8.5h-55q-13 0 -21 8t-9 22l-8 139h-17q-40 -88 -130.5 -138.5t-203.5 -50.5q-111 0 -199.5 46.5t-139.5 137t-51 216.5v580q0 14 8.5 22t21.5 8h63q14 0 22 -8t8 -22v-559q0 -90 37 -160t106.5 -109t161.5 -39 q93 0 164 39.5t110 109.5t39 159v559q0 14 8.5 22t21.5 8h63zM479 1256q-59 31 -93.5 85.5t-41.5 124.5q-3 30 28 30h38q26 0 32 -28q14 -63 58.5 -101.5t114.5 -38.5t114.5 38.5t58.5 101.5q6 28 32 28h38q31 0 28 -30q-7 -70 -41.5 -124.5t-93.5 -85.5t-136 -31t-136 31z " glyph-name="ubreve" unicode="ŭ" vert-adv-y="1980"/>
<glyph d="M1017 990q14 0 22 -8t8 -22v-930q0 -13 -8 -21.5t-22 -8.5h-55q-13 0 -21 8t-9 22l-8 139h-17q-40 -88 -130.5 -138.5t-203.5 -50.5q-111 0 -199.5 46.5t-139.5 137t-51 216.5v580q0 14 8.5 22t21.5 8h63q14 0 22 -8t8 -22v-559q0 -90 37 -160t106.5 -109t161.5 -39 q93 0 164 39.5t110 109.5t39 159v559q0 14 8.5 22t21.5 8h63zM568 1195q-23 0 -36 16l-219 249q-9 9 -9 19q0 7 6.5 12t18.5 5h67q21 0 36 -16l183 -202l183 202q15 16 36 16h67q12 0 18.5 -5t6.5 -12q0 -10 -9 -19l-219 -249q-13 -16 -36 -16h-94z" glyph-name="uni01D4" unicode="ǔ" vert-adv-y="1980"/>
<glyph d="M1017 990q14 0 22 -8t8 -22v-930q0 -13 -8 -21.5t-22 -8.5h-55q-13 0 -21 8t-9 22l-8 139h-17q-40 -88 -130.5 -138.5t-203.5 -50.5q-111 0 -199.5 46.5t-139.5 137t-51 216.5v580q0 14 8.5 22t21.5 8h63q14 0 22 -8t8 -22v-559q0 -90 37 -160t106.5 -109t161.5 -39 q93 0 164 39.5t110 109.5t39 159v559q0 14 8.5 22t21.5 8h63zM329 1195q-12 0 -18.5 4.5t-6.5 12.5q0 9 9 19l219 249q15 16 36 16h94q21 0 36 -16l219 -249q9 -10 9 -19q0 -8 -6.5 -12.5t-18.5 -4.5h-67q-21 0 -36 16l-183 201l-183 -201q-15 -16 -36 -16h-67z" glyph-name="ucircumflex" unicode="û" vert-adv-y="1980"/>
<glyph d="M1017 990q14 0 22 -8t8 -22v-930q0 -13 -8 -21.5t-22 -8.5h-55q-13 0 -21 8t-9 22l-8 139h-17q-40 -88 -130.5 -138.5t-203.5 -50.5q-111 0 -199.5 46.5t-139.5 137t-51 216.5v580q0 14 8.5 22t21.5 8h63q14 0 22 -8t8 -22v-559q0 -90 37 -160t106.5 -109t161.5 -39 q93 0 164 39.5t110 109.5t39 159v559q0 14 8.5 22t21.5 8h63zM387 1367q-23 23 -23 54q0 30 23 52.5t54 22.5t54 -22.5t23 -52.5q0 -31 -23 -54t-54 -23t-54 23zM737 1367q-23 23 -23 54q0 30 23 52.5t54 22.5q32 0 55 -22.5t23 -52.5q0 -31 -23 -54t-55 -23q-31 0 -54 23z " glyph-name="udieresis" unicode="ü" vert-adv-y="1980"/>
<glyph d="M1017 990q14 0 22 -8t8 -22v-930q0 -13 -8 -21.5t-22 -8.5h-55q-13 0 -21 8t-9 22l-8 139h-17q-40 -88 -130.5 -138.5t-203.5 -50.5q-111 0 -199.5 46.5t-139.5 137t-51 216.5v580q0 14 8.5 22t21.5 8h63q14 0 22 -8t8 -22v-559q0 -90 37 -160t106.5 -109t161.5 -39 q93 0 164 39.5t110 109.5t39 159v559q0 14 8.5 22t21.5 8h63zM589 1186q-13 0 -21 5.5t-13 18.5l-120 252q-4 8 -4 15q0 9 7.5 14t20.5 5h39q12 0 20 -5.5t13 -18.5l121 -252q4 -10 4 -14q0 -10 -7.5 -15t-20.5 -5h-39z" glyph-name="ugrave" unicode="ù" vert-adv-y="1980"/>
<glyph d="M1017 990q14 0 22 -8t8 -22v-930q0 -13 -8 -21.5t-22 -8.5h-55q-13 0 -21 8t-9 22l-8 139h-17q-40 -88 -130.5 -138.5t-203.5 -50.5q-111 0 -199.5 46.5t-139.5 137t-51 216.5v580q0 14 8.5 22t21.5 8h63q14 0 22 -8t8 -22v-559q0 -90 37 -160t106.5 -109t161.5 -39 q93 0 164 39.5t110 109.5t39 159v559q0 14 8.5 22t21.5 8h63zM707 1186q-13 0 -20.5 5t-7.5 15q0 4 4 14l120 252q6 13 14 18.5t20 5.5h39q13 0 20.5 -5t7.5 -15q0 -4 -4 -14l-120 -252q-6 -13 -14 -18.5t-20 -5.5h-39zM435 1186q-13 0 -20.5 5t-7.5 15q0 4 4 14l120 252 q6 13 14 18.5t20 5.5h39q13 0 20.5 -5t7.5 -15q0 -4 -4 -14l-120 -252q-6 -13 -14 -18.5t-20 -5.5h-39z" glyph-name="uhungarumlaut" unicode="ű" vert-adv-y="1980"/>
<glyph d="M1017 990q14 0 22 -8t8 -22v-930q0 -13 -8 -21.5t-22 -8.5h-55q-13 0 -21 8t-9 22l-8 139h-17q-40 -88 -130.5 -138.5t-203.5 -50.5q-111 0 -199.5 46.5t-139.5 137t-51 216.5v580q0 14 8.5 22t21.5 8h63q14 0 22 -8t8 -22v-559q0 -90 37 -160t106.5 -109t161.5 -39 q93 0 164 39.5t110 109.5t39 159v559q0 14 8.5 22t21.5 8h63zM370 1391q-13 0 -21.5 8.5t-8.5 21.5v45q0 14 8.5 22t21.5 8h491q14 0 22 -8t8 -22v-45q0 -13 -8 -21.5t-22 -8.5h-491z" glyph-name="umacron" unicode="ū" vert-adv-y="1980"/>
<glyph d="M1017 990q14 0 22 -8t8 -22v-930q0 -13 -7.5 -21t-19.5 -9q-128 0 -185.5 -36.5t-57.5 -109.5q0 -70 48 -101.5t142 -31.5h18q20 0 20 -20v-52q0 -20 -20 -20h-54q-55 0 -114 17.5t-102.5 64.5t-43.5 129q0 107 73.5 161t185.5 68l-6 100h-17q-40 -88 -130.5 -138.5 t-203.5 -50.5q-111 0 -199.5 46.5t-139.5 137t-51 216.5v580q0 14 8.5 22t21.5 8h63q14 0 22 -8t8 -22v-559q0 -90 37 -160t106.5 -109t161.5 -39q93 0 164 39.5t110 109.5t39 159v559q0 14 8.5 22t21.5 8h63z" glyph-name="uogonek" unicode="ų" vert-adv-y="1980"/>
<glyph d="M1017 990q14 0 22 -8t8 -22v-930q0 -13 -8 -21.5t-22 -8.5h-55q-13 0 -21 8t-9 22l-8 139h-17q-40 -88 -130.5 -138.5t-203.5 -50.5q-111 0 -199.5 46.5t-139.5 137t-51 216.5v580q0 14 8.5 22t21.5 8h63q14 0 22 -8t8 -22v-559q0 -90 37 -160t106.5 -109t161.5 -39 q93 0 164 39.5t110 109.5t39 159v559q0 14 8.5 22t21.5 8h63zM529 1183q-39 23 -61.5 61.5t-22.5 83.5t22.5 83.5t61.5 61.5t86 23t86 -23t61.5 -61.5t22.5 -83.5t-22.5 -83.5t-61.5 -61.5t-86 -23t-86 23zM670 1272.5q23 22.5 24 54.5q0 33 -23 55.5t-56 22.5t-56.5 -22.5 t-23.5 -55.5q0 -32 23.5 -54.5t56.5 -22.5q32 0 55 22.5z" glyph-name="uring" unicode="ů" vert-adv-y="1980"/>
<glyph d="M976 966q11 24 36 24h64q13 0 20.5 -5t7.5 -14q0 -8 -4 -15l-409 -932q-12 -24 -36 -24h-80q-24 0 -36 24l-409 932q-4 7 -4 15q0 9 7.5 14t20.5 5h64q25 0 36 -24l361 -833z" glyph-name="v" unicode="v" vert-adv-y="1980"/>
<glyph d="M1130 990q26 0 26 -22l-2 -12l-204 -932q-2 -11 -12.5 -17.5t-23.5 -6.5h-87q-13 0 -23 6.5t-13 17.5l-176 731l-176 -731q-3 -11 -13 -17.5t-23 -6.5h-87q-13 0 -23.5 6.5t-12.5 17.5l-204 932l-2 12q0 22 26 22h66q13 0 23.5 -6.5t12.5 -17.5l162 -833l189 823 q3 11 13 17.5t23 6.5h52q13 0 23 -6.5t13 -17.5l190 -823l161 833q2 11 12.5 17.5t23.5 6.5h66z" glyph-name="w" unicode="w" vert-adv-y="1980"/>
<glyph d="M1130 990q26 0 26 -22l-2 -12l-204 -932q-2 -11 -12.5 -17.5t-23.5 -6.5h-87q-13 0 -23 6.5t-13 17.5l-176 731l-176 -731q-3 -11 -13 -17.5t-23 -6.5h-87q-13 0 -23.5 6.5t-12.5 17.5l-204 932l-2 12q0 22 26 22h66q13 0 23.5 -6.5t12.5 -17.5l162 -833l189 823 q3 11 13 17.5t23 6.5h52q13 0 23 -6.5t13 -17.5l190 -823l161 833q2 11 12.5 17.5t23.5 6.5h66zM601 1186q-13 0 -20.5 5t-7.5 15q0 4 4 14l120 252q6 13 14 18.5t20 5.5h39q13 0 20.5 -5t7.5 -15q0 -4 -4 -14l-120 -252q-6 -13 -14 -18.5t-20 -5.5h-39z" glyph-name="wacute" unicode="ẃ" vert-adv-y="1980"/>
<glyph d="M1130 990q26 0 26 -22l-2 -12l-204 -932q-2 -11 -12.5 -17.5t-23.5 -6.5h-87q-13 0 -23 6.5t-13 17.5l-176 731l-176 -731q-3 -11 -13 -17.5t-23 -6.5h-87q-13 0 -23.5 6.5t-12.5 17.5l-204 932l-2 12q0 22 26 22h66q13 0 23.5 -6.5t12.5 -17.5l162 -833l189 823 q3 11 13 17.5t23 6.5h52q13 0 23 -6.5t13 -17.5l190 -823l161 833q2 11 12.5 17.5t23.5 6.5h66zM329 1195q-12 0 -18.5 4.5t-6.5 12.5q0 9 9 19l219 249q15 16 36 16h94q21 0 36 -16l219 -249q9 -10 9 -19q0 -8 -6.5 -12.5t-18.5 -4.5h-67q-21 0 -36 16l-183 201l-183 -201 q-15 -16 -36 -16h-67z" glyph-name="wcircumflex" unicode="ŵ" vert-adv-y="1980"/>
<glyph d="M1130 990q26 0 26 -22l-2 -12l-204 -932q-2 -11 -12.5 -17.5t-23.5 -6.5h-87q-13 0 -23 6.5t-13 17.5l-176 731l-176 -731q-3 -11 -13 -17.5t-23 -6.5h-87q-13 0 -23.5 6.5t-12.5 17.5l-204 932l-2 12q0 22 26 22h66q13 0 23.5 -6.5t12.5 -17.5l162 -833l189 823 q3 11 13 17.5t23 6.5h52q13 0 23 -6.5t13 -17.5l190 -823l161 833q2 11 12.5 17.5t23.5 6.5h66zM387 1367q-23 23 -23 54q0 30 23 52.5t54 22.5t54 -22.5t23 -52.5q0 -31 -23 -54t-54 -23t-54 23zM737 1367q-23 23 -23 54q0 30 23 52.5t54 22.5q32 0 55 -22.5t23 -52.5 q0 -31 -23 -54t-55 -23q-31 0 -54 23z" glyph-name="wdieresis" unicode="ẅ" vert-adv-y="1980"/>
<glyph d="M1130 990q26 0 26 -22l-2 -12l-204 -932q-2 -11 -12.5 -17.5t-23.5 -6.5h-87q-13 0 -23 6.5t-13 17.5l-176 731l-176 -731q-3 -11 -13 -17.5t-23 -6.5h-87q-13 0 -23.5 6.5t-12.5 17.5l-204 932l-2 12q0 22 26 22h66q13 0 23.5 -6.5t12.5 -17.5l162 -833l189 823 q3 11 13 17.5t23 6.5h52q13 0 23 -6.5t13 -17.5l190 -823l161 833q2 11 12.5 17.5t23.5 6.5h66zM589 1186q-13 0 -21 5.5t-13 18.5l-120 252q-4 8 -4 15q0 9 7.5 14t20.5 5h39q12 0 20 -5.5t13 -18.5l121 -252q4 -10 4 -14q0 -10 -7.5 -15t-20.5 -5h-39z" glyph-name="wgrave" unicode="ẁ" vert-adv-y="1980"/>
<glyph d="M1123 36q8 -8 8 -18q0 -8 -7 -13t-19 -5h-89q-23 0 -36 16l-365 407l-367 -407q-12 -16 -36 -16h-88q-12 0 -18 4.5t-6 11.5q0 10 9 20l430 470l-408 448q-8 8 -8 18q0 8 7 13t19 5h86q24 0 36 -16l344 -388l342 388q13 16 36 16h86q13 0 20.5 -4.5t7.5 -12.5 q0 -9 -10 -19l-403 -448z" glyph-name="x" unicode="x" vert-adv-y="1980"/>
<glyph d="M1076 990q13 0 20.5 -5t7.5 -14q0 -8 -4 -15l-577 -1312q-10 -24 -36 -24h-64q-13 0 -20.5 5t-7.5 15q0 4 4 14l152 345l-421 957q-4 7 -4 15q0 9 7.5 14t20.5 5h64q25 0 36 -24l361 -833l361 833q11 24 36 24h64z" glyph-name="y" unicode="y" vert-adv-y="1980"/>
<glyph d="M1076 990q13 0 20.5 -5t7.5 -14q0 -8 -4 -15l-577 -1312q-10 -24 -36 -24h-64q-13 0 -20.5 5t-7.5 15q0 4 4 14l152 345l-421 957q-4 7 -4 15q0 9 7.5 14t20.5 5h64q25 0 36 -24l361 -833l361 833q11 24 36 24h64zM601 1186q-13 0 -20.5 5t-7.5 15q0 4 4 14l120 252 q6 13 14 18.5t20 5.5h39q13 0 20.5 -5t7.5 -15q0 -4 -4 -14l-120 -252q-6 -13 -14 -18.5t-20 -5.5h-39z" glyph-name="yacute" unicode="ý" vert-adv-y="1980"/>
<glyph d="M1076 990q13 0 20.5 -5t7.5 -14q0 -8 -4 -15l-577 -1312q-10 -24 -36 -24h-64q-13 0 -20.5 5t-7.5 15q0 4 4 14l152 345l-421 957q-4 7 -4 15q0 9 7.5 14t20.5 5h64q25 0 36 -24l361 -833l361 833q11 24 36 24h64zM329 1195q-12 0 -18.5 4.5t-6.5 12.5q0 9 9 19l219 249 q15 16 36 16h94q21 0 36 -16l219 -249q9 -10 9 -19q0 -8 -6.5 -12.5t-18.5 -4.5h-67q-21 0 -36 16l-183 201l-183 -201q-15 -16 -36 -16h-67z" glyph-name="ycircumflex" unicode="ŷ" vert-adv-y="1980"/>
<glyph d="M1076 990q13 0 20.5 -5t7.5 -14q0 -8 -4 -15l-577 -1312q-10 -24 -36 -24h-64q-13 0 -20.5 5t-7.5 15q0 4 4 14l152 345l-421 957q-4 7 -4 15q0 9 7.5 14t20.5 5h64q25 0 36 -24l361 -833l361 833q11 24 36 24h64zM387 1367q-23 23 -23 54q0 30 23 52.5t54 22.5t54 -22.5 t23 -52.5q0 -31 -23 -54t-54 -23t-54 23zM737 1367q-23 23 -23 54q0 30 23 52.5t54 22.5q32 0 55 -22.5t23 -52.5q0 -31 -23 -54t-55 -23q-31 0 -54 23z" glyph-name="ydieresis" unicode="ÿ" vert-adv-y="1980"/>
<glyph d="M1076 990q13 0 20.5 -5t7.5 -14q0 -8 -4 -15l-577 -1312q-10 -24 -36 -24h-64q-13 0 -20.5 5t-7.5 15q0 4 4 14l152 345l-421 957q-4 7 -4 15q0 9 7.5 14t20.5 5h64q25 0 36 -24l361 -833l361 833q11 24 36 24h64zM589 1186q-13 0 -21 5.5t-13 18.5l-120 252q-4 8 -4 15 q0 9 7.5 14t20.5 5h39q12 0 20 -5.5t13 -18.5l121 -252q4 -10 4 -14q0 -10 -7.5 -15t-20.5 -5h-39z" glyph-name="ygrave" unicode="ỳ" vert-adv-y="1980"/>
<glyph d="M1026 905q0 -19 -14 -38l-667 -760h656q14 0 22 -8t8 -22v-47q0 -13 -8 -21.5t-22 -8.5h-771q-13 0 -21.5 8.5t-8.5 21.5v55q0 21 14 38l666 760h-655q-13 0 -21.5 8.5t-8.5 21.5v47q0 14 8.5 22t21.5 8h771q14 0 22 -8t8 -22v-55z" glyph-name="z" unicode="z" vert-adv-y="1980"/>
<glyph d="M1026 905q0 -19 -14 -38l-667 -760h656q14 0 22 -8t8 -22v-47q0 -13 -8 -21.5t-22 -8.5h-771q-13 0 -21.5 8.5t-8.5 21.5v55q0 21 14 38l666 760h-655q-13 0 -21.5 8.5t-8.5 21.5v47q0 14 8.5 22t21.5 8h771q14 0 22 -8t8 -22v-55zM601 1186q-13 0 -20.5 5t-7.5 15 q0 4 4 14l120 252q6 13 14 18.5t20 5.5h39q13 0 20.5 -5t7.5 -15q0 -4 -4 -14l-120 -252q-6 -13 -14 -18.5t-20 -5.5h-39z" glyph-name="zacute" unicode="ź" vert-adv-y="1980"/>
<glyph d="M1026 905q0 -19 -14 -38l-667 -760h656q14 0 22 -8t8 -22v-47q0 -13 -8 -21.5t-22 -8.5h-771q-13 0 -21.5 8.5t-8.5 21.5v55q0 21 14 38l666 760h-655q-13 0 -21.5 8.5t-8.5 21.5v47q0 14 8.5 22t21.5 8h771q14 0 22 -8t8 -22v-55zM568 1195q-23 0 -36 16l-219 249 q-9 9 -9 19q0 7 6.5 12t18.5 5h67q21 0 36 -16l183 -202l183 202q15 16 36 16h67q12 0 18.5 -5t6.5 -12q0 -10 -9 -19l-219 -249q-13 -16 -36 -16h-94z" glyph-name="zcaron" unicode="ž" vert-adv-y="1980"/>
<glyph d="M1026 905q0 -19 -14 -38l-667 -760h656q14 0 22 -8t8 -22v-47q0 -13 -8 -21.5t-22 -8.5h-771q-13 0 -21.5 8.5t-8.5 21.5v55q0 21 14 38l666 760h-655q-13 0 -21.5 8.5t-8.5 21.5v47q0 14 8.5 22t21.5 8h771q14 0 22 -8t8 -22v-55zM561 1367q-23 23 -23 54q0 30 23 52.5 t54 22.5t54 -22.5t23 -52.5q0 -31 -23 -54t-54 -23t-54 23z" glyph-name="zdotaccent" unicode="ż" vert-adv-y="1980"/>
<glyph d="M343 38q-97 63 -147.5 176.5t-50.5 263.5q0 153 57 273t176 189.5t298 69.5q108 0 218 -24.5t198 -77.5v-878q0 -13 -8 -21.5t-22 -8.5h-53q-13 0 -20 8t-7 22l-16 163h-15q-25 -62 -78.5 -111.5t-129.5 -78t-167 -28.5q-136 0 -233 63zM804 134.5q84 45.5 130.5 131.5 t46.5 202v362q-139 68 -297 68q-223 0 -321 -113.5t-98 -302.5q0 -191 89.5 -292t254.5 -101q111 0 195 45.5z" glyph-name="a.ss01" vert-adv-y="1980"/>
<glyph d="M1099 990q14 0 22 -8t8 -22v-44q0 -25 -30 -27l-196 5q65 -48 93.5 -108t28.5 -142q0 -152 -94 -234.5t-293 -82.5h-223q-77 0 -116.5 -26.5t-39.5 -86.5q0 -118 157 -118h412q139 0 202.5 -50.5t63.5 -166.5q0 -100 -49 -159.5t-155.5 -86.5t-285.5 -27 q-192 0 -297.5 28.5t-145.5 80.5t-40 131q0 70 31.5 114.5t98.5 70.5q-52 31 -76.5 69t-24.5 108q0 82 38 127t121 65q-77 29 -111.5 97t-34.5 160q0 333 432 333h504zM782 448.5q67 18.5 98 66t31 137.5q0 88 -31 138.5t-99.5 72t-185.5 21.5t-185 -22t-99 -72t-31 -138 q0 -90 30.5 -137.5t97.5 -66t187 -18.5t187 18.5zM309 -8q-29 -13 -47 -38t-18 -79q0 -56 25 -90t103 -53.5t232 -19.5q145 0 226 16.5t114.5 51.5t33.5 95t-31 88.5t-97 28.5h-541z" glyph-name="g.ss02" vert-adv-y="1980"/>
<glyph d="M1099 990q14 0 22 -8t8 -22v-44q0 -25 -30 -27l-196 5q65 -48 93.5 -108t28.5 -142q0 -152 -94 -234.5t-293 -82.5h-223q-77 0 -116.5 -26.5t-39.5 -86.5q0 -118 157 -118h412q139 0 202.5 -50.5t63.5 -166.5q0 -100 -49 -159.5t-155.5 -86.5t-285.5 -27 q-192 0 -297.5 28.5t-145.5 80.5t-40 131q0 70 31.5 114.5t98.5 70.5q-52 31 -76.5 69t-24.5 108q0 82 38 127t121 65q-77 29 -111.5 97t-34.5 160q0 333 432 333h504zM782 448.5q67 18.5 98 66t31 137.5q0 88 -31 138.5t-99.5 72t-185.5 21.5t-185 -22t-99 -72t-31 -138 q0 -90 30.5 -137.5t97.5 -66t187 -18.5t187 18.5zM309 -8q-29 -13 -47 -38t-18 -79q0 -56 25 -90t103 -53.5t232 -19.5q145 0 226 16.5t114.5 51.5t33.5 95t-31 88.5t-97 28.5h-541zM479 1256q-59 31 -93.5 85.5t-41.5 124.5q-3 30 28 30h38q26 0 32 -28q14 -63 58.5 -101.5 t114.5 -38.5t114.5 38.5t58.5 101.5q6 28 32 28h38q31 0 28 -30q-7 -70 -41.5 -124.5t-93.5 -85.5t-136 -31t-136 31z" glyph-name="gbreve.ss02" vert-adv-y="1980"/>
<glyph d="M466 1188q-13 0 -21 8t-8 21v28q0 229 17 410q1 12 9 18t21 6h58q15 0 21 -7.5t6 -23.5q-6 -154 -6 -286v-59h225q14 0 21.5 -7.5t7.5 -21.5v-57q0 -13 -8 -21t-21 -8h-322zM1099 990q14 0 22 -8t8 -22v-44q0 -25 -30 -27l-196 5q65 -48 93.5 -108t28.5 -142 q0 -152 -94 -234.5t-293 -82.5h-223q-77 0 -116.5 -26.5t-39.5 -86.5q0 -118 157 -118h412q139 0 202.5 -50.5t63.5 -166.5q0 -100 -49 -159.5t-155.5 -86.5t-285.5 -27q-192 0 -297.5 28.5t-145.5 80.5t-40 131q0 70 31.5 114.5t98.5 70.5q-52 31 -76.5 69t-24.5 108 q0 82 38 127t121 65q-77 29 -111.5 97t-34.5 160q0 333 432 333h504zM782 448.5q67 18.5 98 66t31 137.5q0 88 -31 138.5t-99.5 72t-185.5 21.5t-185 -22t-99 -72t-31 -138q0 -90 30.5 -137.5t97.5 -66t187 -18.5t187 18.5zM309 -8q-29 -13 -47 -38t-18 -79q0 -56 25 -90 t103 -53.5t232 -19.5q145 0 226 16.5t114.5 51.5t33.5 95t-31 88.5t-97 28.5h-541z" glyph-name="uni0123.ss02" vert-adv-y="1980"/>
<glyph d="M1099 990q14 0 22 -8t8 -22v-44q0 -25 -30 -27l-196 5q65 -48 93.5 -108t28.5 -142q0 -152 -94 -234.5t-293 -82.5h-223q-77 0 -116.5 -26.5t-39.5 -86.5q0 -118 157 -118h412q139 0 202.5 -50.5t63.5 -166.5q0 -100 -49 -159.5t-155.5 -86.5t-285.5 -27 q-192 0 -297.5 28.5t-145.5 80.5t-40 131q0 70 31.5 114.5t98.5 70.5q-52 31 -76.5 69t-24.5 108q0 82 38 127t121 65q-77 29 -111.5 97t-34.5 160q0 333 432 333h504zM782 448.5q67 18.5 98 66t31 137.5q0 88 -31 138.5t-99.5 72t-185.5 21.5t-185 -22t-99 -72t-31 -138 q0 -90 30.5 -137.5t97.5 -66t187 -18.5t187 18.5zM309 -8q-29 -13 -47 -38t-18 -79q0 -56 25 -90t103 -53.5t232 -19.5q145 0 226 16.5t114.5 51.5t33.5 95t-31 88.5t-97 28.5h-541zM561 1367q-23 23 -23 54q0 30 23 52.5t54 22.5t54 -22.5t23 -52.5q0 -31 -23 -54t-54 -23 t-54 23z" glyph-name="gdotaccent.ss02" vert-adv-y="1980"/>
<glyph d="M537.5 1306.5q-32.5 32.5 -32.5 80.5t32.5 81t80.5 33t81 -33t33 -81t-33 -80.5t-81 -32.5t-80.5 32.5zM1023 115q14 0 22 -8t8 -22v-55q0 -13 -8 -21.5t-22 -8.5h-826q-13 0 -21.5 8.5t-8.5 21.5v55q0 14 8.5 22t21.5 8h393v760h-333q-13 0 -21.5 8.5t-8.5 21.5v55 q0 14 8.5 22t21.5 8h426q14 0 22 -8t8 -22v-845h310z" glyph-name="i.ss03" vert-adv-y="1980"/>
<glyph d="M1058 115q14 0 22 -8t8 -22v-55q0 -13 -8 -21.5t-22 -8.5h-871q-13 0 -21.5 8.5t-8.5 21.5v55q0 14 8.5 22t21.5 8h383v1170h-364q-13 0 -21.5 8.5t-8.5 21.5v55q0 14 8.5 22t21.5 8h457q14 0 22 -8t8 -22v-1255h365z" glyph-name="l.ss03" vert-adv-y="1980"/>
<glyph d="M1070.5 66q8.5 -10 8.5 -26v-12q0 -20 -20.5 -32t-49.5 -12q-54 0 -83.5 42.5t-29.5 114.5v40q-44 -97 -153.5 -151.5t-251.5 -54.5h-47q-108 0 -180.5 36.5t-108 101t-35.5 147.5q0 120 73 195.5t218 84.5l467 31v80q0 93 -28.5 147t-92 78.5t-172.5 24.5 q-135 0 -208 -39t-81 -132q-3 -25 -30 -25h-62q-14 0 -21.5 7.5t-6.5 22.5q10 144 113 209.5t295 65.5q159 0 251 -42.5t128.5 -117.5t36.5 -184v-464q0 -54 8.5 -80.5t32.5 -36.5q21 -9 29.5 -19zM509 85q94 0 177.5 27t137.5 89t54 161v108l-427 -29q-118 -8 -164 -55.5 t-46 -121.5q0 -179 230 -179h38z" glyph-name="a.ss05" horiz-adv-x="1169" vert-adv-y="1980"/>
<glyph d="M792 129.5q83 41.5 140 116.5q11 14 22 14q8 0 18 -7l39 -28q15 -10 15 -24q0 -8 -6 -17q-68 -100 -175 -154.5t-238 -54.5q-146 0 -261.5 67t-180.5 185.5t-65 265.5t65 265t180.5 185t261.5 67q132 0 238.5 -54.5t174.5 -154.5q6 -9 6 -17q0 -13 -15 -24l-39 -28 q-10 -7 -18 -7q-11 0 -22 14q-57 75 -140 116.5t-183 41.5q-110 0 -199 -51t-139.5 -143t-50.5 -210t50.5 -210.5t139.5 -143.5t199 -51q100 0 183 41.5z" glyph-name="c.ss05" horiz-adv-x="1126" vert-adv-y="1980"/>
<glyph d="M1045 492.5q-13 -18.5 -55 -18.5l-772 -1q4 -119 51.5 -205.5t137.5 -134t218 -47.5q91 0 167.5 23.5t130.5 61.5q13 10 23 10q12 0 29 -20q19 -22 19 -37t-18 -29q-63 -58 -157.5 -89t-199.5 -31q-155 0 -272.5 64.5t-182 183t-64.5 273.5q0 154 61.5 270.5t173.5 180 t259 63.5q145 0 250 -60t159.5 -164t54.5 -234q0 -41 -13 -59.5zM414 860.5q-80 -39.5 -128.5 -112t-62.5 -170.5h726q-4 94 -46 167t-120 114t-185 41q-104 0 -184 -39.5z" glyph-name="e.ss05" horiz-adv-x="1158" vert-adv-y="1980"/>
<glyph d="M451 1316.5q-33 32.5 -33 80.5t33 81t81 33q47 0 80 -33t33 -81t-33 -80.5t-80 -32.5q-48 0 -81 32.5zM969 115q14 0 22 -8t8 -22v-55q0 -13 -8 -21.5t-22 -8.5h-216q-121 0 -185.5 68.5t-64.5 192.5v614h-363q-13 0 -21.5 8.5t-8.5 21.5v55q0 14 8.5 22t21.5 8h456 q14 0 22 -8t8 -22v-691q0 -76 39 -115t115 -39h189z" glyph-name="i.ss05" horiz-adv-x="1108" vert-adv-y="1980"/>
<glyph d="M763 0q-79 0 -140.5 36.5t-95.5 100.5t-34 144v1004h-388q-13 0 -21.5 8.5t-8.5 21.5v55q0 14 8.5 22t21.5 8h481q14 0 22 -8t8 -22v-1079q0 -50 23 -90t63 -63t90 -23h204q14 0 22 -8t8 -22v-55q0 -13 -8 -21.5t-22 -8.5h-233z" glyph-name="l.ss05" horiz-adv-x="1151" vert-adv-y="1980"/>
<glyph d="M1395.5 965.5q80.5 -46.5 127 -137t46.5 -216.5v-582q0 -13 -8 -21.5t-22 -8.5h-63q-13 0 -21.5 8.5t-8.5 21.5v561q0 90 -31.5 160t-90 109t-136.5 39t-137.5 -39.5t-92 -109t-32.5 -159.5v-561q0 -13 -8 -21.5t-22 -8.5h-63q-13 0 -21.5 8.5t-8.5 21.5v561 q0 90 -31.5 160t-90.5 109t-137 39t-137 -39.5t-91.5 -109.5t-32.5 -159v-561q0 -13 -8 -21.5t-22 -8.5h-63q-13 0 -21.5 8.5t-8.5 21.5v930q0 14 8.5 22t21.5 8h55q13 0 21 -8t9 -22l8 -137h15q38 89 115 139t173 50q95 0 174 -49t122 -140h19q38 88 122.5 138.5 t191.5 50.5q100 0 180.5 -46.5z" glyph-name="m.ss05" horiz-adv-x="1729" vert-adv-y="1980"/>
<glyph d="M342.5 42.5q-113.5 67.5 -178 186t-64.5 264.5t64.5 264t178 185.5t256.5 67.5t256.5 -67.5t178 -185.5t64.5 -264t-64.5 -264.5t-178 -186t-256.5 -67.5t-256.5 67.5zM794.5 139q86.5 51 135 143t48.5 211t-48.5 210.5t-135 142.5t-195.5 51t-195.5 -51t-135 -142.5 t-48.5 -210.5t48.5 -211t135 -143t195.5 -51t195.5 51z" glyph-name="o.ss05" horiz-adv-x="1198" vert-adv-y="1980"/>
<glyph d="M1609 990q26 0 26 -21q0 -8 -2 -13l-302 -932q-4 -12 -13.5 -18t-22.5 -6h-89q-13 0 -22.5 6t-13.5 18l-297 840l-298 -840q-4 -12 -13.5 -18t-22.5 -6h-90q-13 0 -22.5 6t-13.5 18l-301 932q-2 5 -2 13q0 21 26 21h70q11 0 16.5 -5.5t9.5 -18.5l264 -846l302 846 q5 14 10 19t16 5h97q11 0 16 -5t10 -19l302 -846l265 846q4 13 9 18.5t16 5.5h70z" glyph-name="w.ss05" horiz-adv-x="1745" vert-adv-y="1980"/>
<glyph d="M960 1400q6 0 10 -4t4 -10v-690q0 -6 -4 -10t-10 -4h-67q-13 0 -13 13l-5 105q-47 -57 -116 -87.5t-149 -30.5q-102 0 -183 48.5t-126 131.5t-45 184t45.5 184t127 131.5t183.5 48.5q80 0 148.5 -30.5t115.5 -86.5l4 93q1 14 13 14h67zM754.5 811q61.5 35 97 97t35.5 138 t-35.5 137.5t-97 96.5t-135.5 35t-135.5 -35t-97 -96.5t-35.5 -137.5t35.5 -138t97 -97t135.5 -35t135.5 35z" glyph-name="ordfeminine" unicode="ª" vert-adv-y="1980"/>
<glyph d="M432.5 731q-83.5 49 -132.5 132.5t-49 182.5t49 182.5t132.5 132.5t182.5 49t182.5 -49t132.5 -132.5t49 -182.5t-49 -182.5t-132.5 -132.5t-182.5 -49t-182.5 49zM750.5 812q61.5 36 97.5 97.5t36 136.5t-36 136.5t-97.5 97t-135.5 35.5t-135.5 -35.5t-98 -97 t-36.5 -136.5t36.5 -136.5t98 -97.5t135.5 -36t135.5 36z" glyph-name="ordmasculine" unicode="º" vert-adv-y="1980"/>
<glyph d="M794.5 1390.5q64.5 -31.5 102 -95.5t37.5 -158v-439q0 -16 -15 -16h-67q-15 0 -15 16v416q0 108 -58.5 163.5t-152.5 55.5q-75 0 -128 -34t-79 -84.5t-26 -100.5v-417q0 -15 -15 -15h-67q-15 0 -15 15v688q0 15 15 15h67q7 0 11 -4t4 -11v-98h10q32 59 91.5 97t153.5 38 q82 0 146.5 -31.5z" glyph-name="uni207F" unicode="ⁿ" vert-adv-y="1980"/>
<glyph d="M1151 34q2 -8 2 -12q0 -10 -7 -16t-19 -6h-65q-26 0 -34 24l-99 303h-628l-99 -303q-8 -24 -34 -24h-65q-12 0 -19 6t-7 16q0 4 2 12l421 1282q4 11 14 17.5t23 6.5h156q13 0 23 -6.5t14 -17.5zM589 1209l-250 -764h552l-250 764h-52z" glyph-name="uni0410" unicode="А" vert-adv-y="1980"/>
<glyph d="M646 847q224 0 332.5 -113t108.5 -311q0 -197 -109 -310t-332 -113h-444q-13 0 -21.5 8.5t-8.5 21.5v1280q0 14 8.5 22t21.5 8h645q14 0 22 -8t8 -22v-61q0 -13 -8 -21.5t-22 -8.5h-547v-372h346zM624 121q165 0 251 69.5t86 232.5q0 164 -86 233.5t-251 69.5h-324v-605 h324z" glyph-name="uni0411" unicode="Б" vert-adv-y="1980"/>
<glyph d="M175 0q-13 0 -21.5 8.5t-8.5 21.5v1280q0 14 8.5 22t21.5 8h466q212 0 300.5 -92t88.5 -227q0 -99 -49 -175t-163 -106v-20q150 -29 215.5 -119t65.5 -231q0 -190 -112 -280t-356 -90h-456zM630 778q134 0 203.5 65t69.5 175q0 102 -67.5 151.5t-205.5 49.5h-357v-441 h357zM622 121q122 0 197 25t111 80t36 147q0 136 -82 213.5t-262 77.5h-349v-543h349z" glyph-name="uni0412" unicode="В" vert-adv-y="1980"/>
<glyph d="M1065 1332q8 -8 8 -22v-61q0 -13 -8 -21.5t-22 -8.5h-738v-1189q0 -13 -8 -21.5t-22 -8.5h-68q-13 0 -21.5 8.5t-8.5 21.5v1280q0 14 8.5 22t21.5 8h836q14 0 22 -8z" glyph-name="uni0413" unicode="Г" vert-adv-y="1980"/>
<glyph d="M1065 1332q8 -8 8 -22v-61q0 -13 -8 -21.5t-22 -8.5h-738v-1189q0 -13 -8 -21.5t-22 -8.5h-68q-13 0 -21.5 8.5t-8.5 21.5v1280q0 14 8.5 22t21.5 8h836q14 0 22 -8zM601 1536q-13 0 -20.5 5t-7.5 15q0 4 4 14l120 252q6 13 14 18.5t20 5.5h39q13 0 20.5 -5t7.5 -15 q0 -4 -4 -14l-120 -252q-6 -13 -14 -18.5t-20 -5.5h-39z" glyph-name="uni0403" unicode="Ѓ" vert-adv-y="1980"/>
<glyph d="M1043 1502q14 0 22 -8t8 -22v-223q0 -13 -8 -21.5t-22 -8.5h-738v-1189q0 -13 -8 -21.5t-22 -8.5h-68q-13 0 -21.5 8.5t-8.5 21.5v1280q0 14 8.5 22t21.5 8h745v132q0 14 8.5 22t21.5 8h61z" glyph-name="uni0490" unicode="Ґ" vert-adv-y="1980"/>
<glyph d="M1165 121q14 0 22 -8t8 -22v-199q0 -14 -8 -22t-22 -8h-63q-13 0 -21.5 8t-8.5 22v108h-914v-108q0 -14 -8 -22t-22 -8h-63q-13 0 -21.5 8t-8.5 22v199q0 14 8.5 22t21.5 8q75 0 117 28t59.5 87t17.5 159v915q0 14 8.5 22t21.5 8h716q14 0 22 -8t8 -22v-1189h130z M387 383q0 -171 -69 -262h589v1098h-520v-836z" glyph-name="uni0414" unicode="Д" vert-adv-y="1980"/>
<glyph d="M197 0q-13 0 -21.5 8.5t-8.5 21.5v1280q0 14 8.5 22t21.5 8h834q14 0 22 -8t8 -22v-61q0 -13 -8 -21.5t-22 -8.5h-736v-470h692q14 0 22 -8t8 -22v-60q0 -13 -8 -21.5t-22 -8.5h-692v-508h738q14 0 22 -8t8 -22v-61q0 -13 -8 -21.5t-22 -8.5h-836z" glyph-name="uni0415" unicode="Е" vert-adv-y="1980"/>
<glyph d="M197 0q-13 0 -21.5 8.5t-8.5 21.5v1280q0 14 8.5 22t21.5 8h834q14 0 22 -8t8 -22v-61q0 -13 -8 -21.5t-22 -8.5h-736v-470h692q14 0 22 -8t8 -22v-60q0 -13 -8 -21.5t-22 -8.5h-692v-508h738q14 0 22 -8t8 -22v-61q0 -13 -8 -21.5t-22 -8.5h-836zM387 1717 q-23 23 -23 54q0 30 23 52.5t54 22.5t54 -22.5t23 -52.5q0 -31 -23 -54t-54 -23t-54 23zM737 1717q-23 23 -23 54q0 30 23 52.5t54 22.5q32 0 55 -22.5t23 -52.5q0 -31 -23 -54t-55 -23q-31 0 -54 23z" glyph-name="uni0401" unicode="Ё" vert-adv-y="1980"/>
<glyph d="M1166 36q5 -12 5 -18q0 -18 -23 -18h-59q-26 0 -36 18l-301 618l-85 -149v-457q0 -13 -8 -21.5t-22 -8.5h-46q-13 0 -21.5 8.5t-8.5 21.5v461l-83 145l-301 -618q-10 -18 -36 -18h-58q-24 0 -24 18q0 8 6 18l351 709l-318 559q-6 11 -6 20q0 7 5.5 11.5t16.5 4.5h63 q24 0 33 -16l351 -650v636q0 14 8.5 22t21.5 8h46q14 0 22 -8t8 -22v-640l353 654q9 16 33 16h63q11 0 16.5 -4.5t5.5 -11.5q0 -9 -6 -20l-318 -559z" glyph-name="uni0416" unicode="Ж" vert-adv-y="1980"/>
<glyph d="M782 715q86 -17 155.5 -62t111.5 -118t42 -171q0 -118 -60 -206t-171 -136t-260 -48q-146 0 -250.5 45t-158.5 124t-54 181q0 14 8 22.5t22 8.5h61q14 0 21.5 -7t7.5 -23q0 -65 39.5 -121t117.5 -89.5t187 -33.5q113 0 198 37.5t130.5 104t45.5 151.5q0 93 -55 159.5 t-155.5 101t-235.5 34.5q-30 0 -30 29v43q0 13 7.5 22.5t21.5 9.5q129 0 217 33t131.5 90.5t43.5 129.5q0 67 -38 119.5t-109.5 81.5t-168.5 29q-106 0 -179 -34t-109.5 -90.5t-35.5 -123.5q1 -27 -29 -27h-60q-14 0 -22 8.5t-8 23.5q0 100 53 179t153 124t235 45 q131 0 229.5 -42.5t151 -117t52.5 -168.5q0 -111 -70.5 -189.5t-182.5 -113.5v-15z" glyph-name="uni0417" unicode="З" vert-adv-y="1980"/>
<glyph d="M1059 1332q8 -8 8 -22v-1280q0 -13 -8 -21.5t-22 -8.5h-64q-13 0 -21.5 8.5t-8.5 21.5v1156l-599 -1166q-11 -20 -36 -20h-115q-13 0 -21.5 8.5t-8.5 21.5v1280q0 14 8.5 22t21.5 8h64q14 0 22 -8t8 -22v-1151l597 1161q10 20 36 20h117q14 0 22 -8z" glyph-name="uni0418" unicode="И" vert-adv-y="1980"/>
<glyph d="M479 1664q-59 31 -93.5 85.5t-41.5 124.5q-3 30 28 30h38q26 0 32 -28q14 -63 58.5 -101.5t114.5 -38.5t114.5 38.5t58.5 101.5q6 28 32 28h38q31 0 28 -30q-7 -70 -41.5 -124.5t-93.5 -85.5t-136 -31t-136 31zM1059 1332q8 -8 8 -22v-1280q0 -13 -8 -21.5t-22 -8.5h-64 q-13 0 -21.5 8.5t-8.5 21.5v1156l-599 -1166q-11 -20 -36 -20h-115q-13 0 -21.5 8.5t-8.5 21.5v1280q0 14 8.5 22t21.5 8h64q14 0 22 -8t8 -22v-1151l597 1161q10 20 36 20h117q14 0 22 -8z" glyph-name="uni0419" unicode="Й" vert-adv-y="1980"/>
<glyph d="M1100 36q7 -10 7 -18t-6.5 -13t-18.5 -5h-85q-12 0 -20.5 4t-15.5 14l-480 615l-205 -230v-373q0 -13 -8 -21.5t-22 -8.5h-68q-13 0 -21.5 8.5t-8.5 21.5v1280q0 14 8.5 22t21.5 8h68q14 0 22 -8t8 -22v-735l654 749q13 16 36 16h94q12 0 18.5 -4.5t6.5 -12.5t-9 -19 l-515 -581z" glyph-name="uni041A" unicode="К" vert-adv-y="1980"/>
<glyph d="M1075 1332q8 -8 8 -22v-1280q0 -13 -8 -21.5t-22 -8.5h-68q-13 0 -21.5 8.5t-8.5 21.5v1189h-570v-853q0 -208 -82 -295.5t-235 -87.5q-17 0 -22 18l-17 73q-1 2 -1 6q0 15 18 16q78 5 123.5 33t66.5 85.5t21 155.5v940q0 14 8.5 22t21.5 8h766q14 0 22 -8z" glyph-name="uni041B" unicode="Л" vert-adv-y="1980"/>
<glyph d="M175 0q-13 0 -21.5 8.5t-8.5 21.5v1280q0 14 8.5 22t21.5 8h110q13 0 23 -5t13 -15l289 -1089h10l289 1089q3 10 13 15t23 5h111q14 0 22 -8t8 -22v-1280q0 -13 -8 -21.5t-22 -8.5h-62q-13 0 -21.5 8.5t-8.5 21.5v1031h-11l-255 -939q-5 -22 -33 -22h-100q-27 0 -33 22 l-255 939h-11v-1031q0 -13 -8 -21.5t-22 -8.5h-61z" glyph-name="uni041C" unicode="М" vert-adv-y="1980"/>
<glyph d="M1041 1340q14 0 22 -8t8 -22v-1280q0 -13 -8 -21.5t-22 -8.5h-69q-13 0 -21.5 8.5t-8.5 21.5v578h-654v-578q0 -13 -8 -21.5t-22 -8.5h-68q-13 0 -21.5 8.5t-8.5 21.5v1280q0 14 8.5 22t21.5 8h68q14 0 22 -8t8 -22v-582h654v582q0 14 8.5 22t21.5 8h69z" glyph-name="uni041D" unicode="Н" vert-adv-y="1980"/>
<glyph d="M355.5 34.5q-106.5 64.5 -166 218t-59.5 412.5t59.5 412.5t166 218t259.5 64.5t260 -64.5t166.5 -218t59.5 -412.5t-59.5 -412.5t-166.5 -218t-260 -64.5t-259.5 64.5zM803.5 142q78.5 47 124.5 172.5t46 350.5t-46 350.5t-124.5 172.5t-188.5 47t-188.5 -47 t-124.5 -172.5t-46 -350.5t46 -350.5t124.5 -172.5t188.5 -47t188.5 47z" glyph-name="uni041E" unicode="О" vert-adv-y="1980"/>
<glyph d="M1055 1344q8 -8 8 -22v-1292q0 -13 -8 -21.5t-22 -8.5h-68q-13 0 -21.5 8.5t-8.5 21.5v1202h-640v-1202q0 -13 -8 -21.5t-22 -8.5h-68q-13 0 -21.5 8.5t-8.5 21.5v1292q0 14 8.5 22t21.5 8h836q14 0 22 -8z" glyph-name="uni041F" unicode="П" vert-adv-y="1980"/>
<glyph d="M646 1340q223 0 332 -113t109 -310q0 -198 -108.5 -311t-332.5 -113h-346v-463q0 -13 -8 -21.5t-22 -8.5h-68q-13 0 -21.5 8.5t-8.5 21.5v1280q0 14 8.5 22t21.5 8h444zM624 614q165 0 251 69.5t86 233.5q0 163 -86 232.5t-251 69.5h-324v-605h324z" glyph-name="uni0420" unicode="Р" vert-adv-y="1980"/>
<glyph d="M362 34.5q-111 64.5 -171.5 217.5t-60.5 413t60.5 413t171.5 217.5t274 64.5q190 0 311 -92t141 -326q3 -34 -25 -34h-66q-12 0 -20 6.5t-9 19.5q-16 122 -61.5 188.5t-111 90.5t-155.5 24q-122 0 -205 -46.5t-131 -172.5t-48 -353t48 -353t131 -172.5t205 -46.5 q134 0 219.5 53t108.5 189q1 13 9 19.5t20 6.5h66q28 0 25 -34q-20 -193 -143 -275t-309 -82q-163 0 -274 64.5z" glyph-name="uni0421" unicode="С" vert-adv-y="1980"/>
<glyph d="M581 0q-13 0 -21.5 8.5t-8.5 21.5v1189h-421q-13 0 -21.5 8.5t-8.5 21.5v61q0 14 8.5 22t21.5 8h970q14 0 22 -8t8 -22v-61q0 -13 -8 -21.5t-22 -8.5h-421v-1189q0 -13 -8 -21.5t-22 -8.5h-68z" glyph-name="uni0422" unicode="Т" vert-adv-y="1980"/>
<glyph d="M1123 1340q12 0 18.5 -5t6.5 -14q0 -7 -5 -17l-732 -1284q-11 -20 -36 -20h-72q-13 0 -19.5 5t-6.5 13t6 18l265 466l-461 802q-5 10 -5 17q0 9 6.5 14t18.5 5h73q25 0 36 -20l400 -699l398 699q11 20 36 20h73z" glyph-name="uni0423" unicode="У" vert-adv-y="1980"/>
<glyph d="M689 1207q252 0 364 -147t112 -390t-112 -390t-364 -147h-12v-103q0 -13 -8 -21.5t-22 -8.5h-64q-13 0 -21.5 8.5t-8.5 21.5v103h-12q-252 0 -364 147t-112 390t112 390t364 147h12v103q0 14 8.5 22t21.5 8h64q14 0 22 -8t8 -22v-103h12zM553 253v834h-12 q-192 0 -271.5 -106.5t-79.5 -310.5t79.5 -310.5t271.5 -106.5h12zM689 253q192 0 271.5 106.5t79.5 310.5t-79.5 310.5t-271.5 106.5h-12v-834h12z" glyph-name="uni0424" unicode="Ф" vert-adv-y="1980"/>
<glyph d="M1132 36q6 -9 6 -17q0 -9 -7 -14t-19 -5h-73q-23 0 -36 20l-388 564l-388 -564q-13 -20 -36 -20h-73q-12 0 -19 5t-7 14q0 8 6 17l447 650l-425 618q-6 9 -6 17q0 9 7 14t19 5h73q23 0 36 -20l366 -532l366 532q13 20 36 20h73q12 0 19 -5t7 -14q0 -8 -6 -17l-425 -618z " glyph-name="uni0425" unicode="Х" vert-adv-y="1980"/>
<glyph d="M1066 1340q14 0 22 -8t8 -22v-1280q0 -13 -8 -21.5t-22 -8.5h-68q-13 0 -21.5 8.5t-8.5 21.5v451q-60 -80 -160 -124t-233 -44q-134 0 -233 44.5t-153.5 135t-54.5 224.5v593q0 14 8.5 22t21.5 8h68q14 0 22 -8t8 -22v-574q0 -138 87 -219.5t254 -81.5q113 0 195.5 38 t126 105.5t43.5 156.5v575q0 14 8.5 22t21.5 8h68z" glyph-name="uni0427" unicode="Ч" vert-adv-y="1980"/>
<glyph d="M1141 121q14 0 22 -8t8 -22v-199q0 -14 -8 -22t-22 -8h-68q-13 0 -21.5 8t-8.5 22v108h-821q-13 0 -21.5 8.5t-8.5 21.5v1280q0 14 8.5 22t21.5 8h68q14 0 22 -8t8 -22v-1189h599v1189q0 14 8.5 22t21.5 8h68q14 0 22 -8t8 -22v-1189h94z" glyph-name="uni0426" unicode="Ц" vert-adv-y="1980"/>
<glyph d="M160 0q-13 0 -21.5 8.5t-8.5 21.5v1280q0 14 8.5 22t21.5 8h67q14 0 22 -8t8 -22v-1189h294v1189q0 14 8.5 22t21.5 8h68q14 0 22 -8t8 -22v-1189h294v1189q0 14 8.5 22t21.5 8h68q14 0 22 -8t8 -22v-1280q0 -13 -8 -21.5t-22 -8.5h-911z" glyph-name="uni0428" unicode="Ш" vert-adv-y="1980"/>
<glyph d="M1141 121q14 0 22 -8t8 -22v-199q0 -14 -8 -22t-22 -8h-68q-13 0 -21.5 8t-8.5 22v108h-883q-13 0 -21.5 8.5t-8.5 21.5v1280q0 14 8.5 22t21.5 8h67q14 0 22 -8t8 -22v-1189h274v1189q0 14 8.5 22t21.5 8h68q14 0 22 -8t8 -22v-1189h274v1189q0 14 8.5 22t21.5 8h68 q14 0 22 -8t8 -22v-1189h80z" glyph-name="uni0429" unicode="Щ" vert-adv-y="1980"/>
<glyph d="M202 0q-13 0 -21.5 8.5t-8.5 21.5v1280q0 14 8.5 22t21.5 8h68q14 0 22 -8t8 -22v-463h346q224 0 332.5 -113t108.5 -311q0 -197 -109 -310t-332 -113h-444zM300 726v-605h324q165 0 251 69.5t86 232.5q0 164 -86 233.5t-251 69.5h-324z" glyph-name="uni042C" unicode="Ь" vert-adv-y="1980"/>
<glyph d="M696 851q237 0 337 -109t100 -317t-100 -316.5t-337 -108.5h-415q-13 0 -21.5 8.5t-8.5 21.5v1189h-5h-149q-13 0 -21.5 8.5t-8.5 21.5v61q0 14 8.5 22t21.5 8h149q10 0 18 -5q7 5 17 5h68q14 0 22 -8t8 -22v-459h317zM688 121q117 0 185 25.5t101 91t33 187.5t-33 188 t-101 91.5t-185 25.5h-309v-609h309z" glyph-name="uni042A" unicode="Ъ" vert-adv-y="1980"/>
<glyph d="M118 0q-13 0 -21.5 8.5t-8.5 21.5v1340q0 14 8.5 22t21.5 8h68q14 0 22 -8t8 -22v-519h233q165 0 257 -51t126.5 -143t34.5 -232t-34.5 -232t-126.5 -142.5t-257 -50.5h-331zM1044 0q-13 0 -21.5 8.5t-8.5 21.5v1340q0 14 8.5 22t21.5 8h68q14 0 22 -8t8 -22v-1340 q0 -13 -8 -21.5t-22 -8.5h-68zM216 730v-609h221q115 0 180 25.5t94.5 91t29.5 187.5t-29.5 187.5t-94.5 91.5t-180 26h-221z" glyph-name="uni042B" unicode="Ы" vert-adv-y="1980"/>
<glyph d="M1078 361q30 0 25 -34q-20 -193 -143 -275t-309 -82q-163 0 -274 64.5t-171.5 217.5t-60.5 413t60.5 413t171.5 217.5t274 64.5q190 0 311 -92t141 -326q5 -34 -25 -34h-66q-12 0 -20 6.5t-9 19.5q-16 122 -61.5 188.5t-111 90.5t-155.5 24q-118 0 -200 -44t-131 -162 t-53 -331h562q14 0 22 -8t8 -22v-48q0 -13 -8 -21.5t-22 -8.5h-561q8 -197 58 -307t130 -151t195 -41q134 0 219.5 53t108.5 189q1 13 9 19.5t20 6.5h66z" glyph-name="uni0404" unicode="Є" vert-adv-y="1980"/>
<glyph d="M856 1295.5q111 -64.5 171.5 -217.5t60.5 -413t-60.5 -413t-171.5 -217.5t-274 -64.5q-186 0 -309 82t-143 275q-5 34 25 34h66q12 0 20 -6.5t9 -19.5q23 -136 108.5 -189t219.5 -53q115 0 195 41t130 151t58 307h-561q-13 0 -21.5 8.5t-8.5 21.5v48q0 14 8.5 22t21.5 8 h562q-4 213 -53 331t-131 162t-200 44q-90 0 -155.5 -24t-111 -90.5t-61.5 -188.5q-1 -13 -9 -19.5t-20 -6.5h-66q-30 0 -25 34q20 234 141 326t311 92q163 0 274 -64.5z" glyph-name="uni042D" unicode="Э" vert-adv-y="1980"/>
<glyph d="M166 0q-13 0 -21.5 8.5t-8.5 21.5v61q0 14 8.5 22t21.5 8h385v1098h-385q-13 0 -21.5 8.5t-8.5 21.5v61q0 14 8.5 22t21.5 8h898q14 0 22 -8t8 -22v-61q0 -13 -8 -21.5t-22 -8.5h-385v-1098h385q14 0 22 -8t8 -22v-61q0 -13 -8 -21.5t-22 -8.5h-898z" glyph-name="uni0406" unicode="І" vert-adv-y="1980"/>
<glyph d="M166 0q-13 0 -21.5 8.5t-8.5 21.5v61q0 14 8.5 22t21.5 8h385v1098h-385q-13 0 -21.5 8.5t-8.5 21.5v61q0 14 8.5 22t21.5 8h898q14 0 22 -8t8 -22v-61q0 -13 -8 -21.5t-22 -8.5h-385v-1098h385q14 0 22 -8t8 -22v-61q0 -13 -8 -21.5t-22 -8.5h-898zM387 1717 q-23 23 -23 54q0 30 23 52.5t54 22.5t54 -22.5t23 -52.5q0 -31 -23 -54t-54 -23t-54 23zM737 1717q-23 23 -23 54q0 30 23 52.5t54 22.5q32 0 55 -22.5t23 -52.5q0 -31 -23 -54t-55 -23q-31 0 -54 23z" glyph-name="uni0407" unicode="Ї" vert-adv-y="1980"/>
<glyph d="M964 1298q90 -58 139.5 -209.5t49.5 -423.5t-49.5 -423.5t-139.5 -209.5t-227 -58q-131 0 -219 53.5t-139 191.5t-57 384h-121v-573q0 -13 -8 -21.5t-22 -8.5h-61q-14 0 -23.5 8.5t-9.5 21.5v1280q0 13 9.5 21.5t23.5 8.5h61q14 0 22 -8t8 -22v-580h121q6 245 57.5 382.5 t139.5 190.5t218 53q137 0 227 -58zM893.5 141.5q63.5 42.5 101.5 166.5t38 357q0 232 -38 356t-101.5 167t-156.5 43q-92 0 -155 -42.5t-100 -167t-37 -356.5q0 -233 37 -357t99.5 -166.5t155.5 -42.5t156.5 42.5z" glyph-name="uni042E" unicode="Ю" vert-adv-y="1980"/>
<glyph d="M1023 1340q14 0 22 -8t8 -22v-1280q0 -13 -8 -21.5t-22 -8.5h-68q-13 0 -21.5 8.5t-8.5 21.5v463h-346q-22 0 -33 1l-256 -472q-12 -22 -35 -22h-75q-26 0 -26 19q0 8 4 16l260 477q-142 37 -211 142t-69 263q0 197 109 310t332 113h444zM925 614v605h-324 q-165 0 -251 -69.5t-86 -232.5q0 -164 86 -233.5t251 -69.5h324z" glyph-name="uni042F" unicode="Я" vert-adv-y="1980"/>
<glyph d="M1097.5 66q8.5 -10 8.5 -26v-12q0 -20 -20.5 -32t-49.5 -12q-54 0 -83.5 42.5t-29.5 114.5v40q-44 -97 -153.5 -151.5t-251.5 -54.5h-47q-108 0 -180.5 36.5t-108 101t-35.5 147.5q0 120 73 195.5t218 84.5l467 31v80q0 93 -28.5 147t-92 78.5t-172.5 24.5 q-135 0 -208 -39t-81 -132q-3 -25 -30 -25h-62q-14 0 -21.5 7.5t-6.5 22.5q10 144 113 209.5t295 65.5q159 0 251 -42.5t128.5 -117.5t36.5 -184v-464q0 -54 8.5 -80.5t32.5 -36.5q21 -9 29.5 -19zM536 85q94 0 177.5 27t137.5 89t54 161v108l-427 -29q-118 -8 -164 -55.5 t-46 -121.5q0 -179 230 -179h38z" glyph-name="uni0430" unicode="а" vert-adv-y="1980"/>
<glyph d="M885 947q103 -66 157.5 -182.5t54.5 -267.5q0 -154 -57.5 -272t-163 -183.5t-245.5 -65.5q-123 0 -216 49.5t-152 138.5l-10 -134q-2 -14 -9.5 -22t-20.5 -8h-51q-13 0 -21.5 8.5t-8.5 21.5v1107q0 124 70.5 193.5t231.5 69.5h293q56 0 80.5 9.5t33.5 30.5h127 q-9 -62 -39 -95t-79.5 -44.5t-130.5 -11.5h-267q-74 0 -116.5 -18.5t-61 -60t-18.5 -112.5v-288h10q44 90 137 146.5t228 56.5q141 0 244 -66zM813.5 140.5q80.5 51.5 123 143.5t42.5 213t-42 212t-123 141.5t-193 50.5q-111 0 -195.5 -50.5t-130.5 -142t-46 -211.5 t46 -212.5t130.5 -144t195.5 -51.5q112 0 192.5 51.5z" glyph-name="uni0431" unicode="б" vert-adv-y="1980"/>
<glyph d="M866 530q82 -7 138.5 -41.5t84.5 -87.5t28 -117q0 -76 -41.5 -140.5t-134 -104t-238.5 -39.5h-431v1q-2 -1 -7 -1h-63q-13 0 -21.5 8.5t-8.5 21.5v930q0 14 8.5 22t21.5 8h63q5 0 7 -1v1h441q106 0 179 -33t108.5 -88t35.5 -121q0 -76 -45 -131t-125 -67v-20zM873 843 q-46 40 -172 40h-406v-293h381q133 0 188 38.5t55 112.5q0 62 -46 102zM692 107q173 0 241 49t68 131q0 85 -73.5 142t-259.5 57h-373v-379h397z" glyph-name="uni0432" unicode="в" vert-adv-y="1980"/>
<glyph d="M1016 990q14 0 22 -8t8 -22v-47q0 -13 -8 -21.5t-22 -8.5h-689v-853q0 -13 -8 -21.5t-22 -8.5h-63q-13 0 -21.5 8.5t-8.5 21.5v930q0 14 8.5 22t21.5 8h63h1h1h717z" glyph-name="uni0433" unicode="г" vert-adv-y="1980"/>
<glyph d="M1016 990q14 0 22 -8t8 -22v-47q0 -13 -8 -21.5t-22 -8.5h-689v-853q0 -13 -8 -21.5t-22 -8.5h-63q-13 0 -21.5 8.5t-8.5 21.5v930q0 14 8.5 22t21.5 8h63h1h1h717zM601 1186q-13 0 -20.5 5t-7.5 15q0 4 4 14l120 252q6 13 14 18.5t20 5.5h39q13 0 20.5 -5t7.5 -15 q0 -4 -4 -14l-120 -252q-6 -13 -14 -18.5t-20 -5.5h-39z" glyph-name="uni0453" unicode="ѓ" vert-adv-y="1980"/>
<glyph d="M1016 1104q14 0 22 -8t8 -22v-161q0 -13 -8 -21.5t-22 -8.5h-689v-853q0 -13 -8 -21.5t-22 -8.5h-63q-13 0 -21.5 8.5t-8.5 21.5v930q0 14 8.5 22t21.5 8h63h1h1h624v84q0 14 8.5 22t21.5 8h63z" glyph-name="uni0491" unicode="ґ" vert-adv-y="1980"/>
<glyph d="M1143 107q14 0 22 -8t8 -22v-183q0 -14 -8 -22t-22 -8h-60q-13 0 -21.5 8t-8.5 22v106h-876v-106q0 -14 -8 -22t-22 -8h-60q-13 0 -21.5 8t-8.5 22v183q0 13 5.5 19t18.5 6q110 0 155 70.5t45 222.5v565q0 14 8.5 22t21.5 8h728q14 0 22 -8t8 -22v-853h74zM402 883v-500 q0 -185 -63 -276h610v776h-547z" glyph-name="uni0434" unicode="д" vert-adv-y="1980"/>
<glyph d="M1081 492.5q-13 -18.5 -55 -18.5l-772 -1q4 -119 51.5 -205.5t137.5 -134t218 -47.5q91 0 167.5 23.5t130.5 61.5q13 10 23 10q12 0 29 -20q19 -22 19 -37t-18 -29q-63 -58 -157.5 -89t-199.5 -31q-155 0 -272.5 64.5t-182 183t-64.5 273.5q0 154 61.5 270.5t173.5 180 t259 63.5q145 0 250 -60t159.5 -164t54.5 -234q0 -41 -13 -59.5zM450 860.5q-80 -39.5 -128.5 -112t-62.5 -170.5h726q-4 94 -46 167t-120 114t-185 41q-104 0 -184 -39.5z" glyph-name="uni0435" unicode="е" vert-adv-y="1980"/>
<glyph d="M1081 492.5q-13 -18.5 -55 -18.5l-772 -1q4 -119 51.5 -205.5t137.5 -134t218 -47.5q91 0 167.5 23.5t130.5 61.5q13 10 23 10q12 0 29 -20q19 -22 19 -37t-18 -29q-63 -58 -157.5 -89t-199.5 -31q-155 0 -272.5 64.5t-182 183t-64.5 273.5q0 154 61.5 270.5t173.5 180 t259 63.5q145 0 250 -60t159.5 -164t54.5 -234q0 -41 -13 -59.5zM450 860.5q-80 -39.5 -128.5 -112t-62.5 -170.5h726q-4 94 -46 167t-120 114t-185 41q-104 0 -184 -39.5zM368 1367q-23 23 -23 54q0 30 23 52.5t54 22.5t54 -22.5t23 -52.5q0 -31 -23 -54t-54 -23t-54 23z M718 1367q-23 23 -23 54q0 30 23 52.5t54 22.5q32 0 55 -22.5t23 -52.5q0 -31 -23 -54t-55 -23q-31 0 -54 23z" glyph-name="uni0451" unicode="ё" vert-adv-y="1980"/>
<glyph d="M1156 36q7 -14 7 -20q0 -16 -23 -16h-63q-28 0 -36 16l-248 454l-123 -177v-263q0 -13 -8 -21.5t-22 -8.5h-50q-13 0 -21.5 8.5t-8.5 21.5v263l-123 177l-248 -454q-8 -16 -36 -16h-63q-23 0 -23 16q0 6 7 20l291 537l-266 381q-9 12 -9 21q0 15 23 15h69q24 0 34 -16 l344 -512v498q0 14 8.5 22t21.5 8h50q14 0 22 -8t8 -22v-498l344 512q10 16 34 16h69q23 0 23 -15q0 -9 -9 -21l-266 -381z" glyph-name="uni0436" unicode="ж" vert-adv-y="1980"/>
<glyph d="M849 523q112 -22 173.5 -86t61.5 -157q0 -87 -54 -156t-162 -109.5t-263 -40.5q-157 0 -272.5 38.5t-163.5 97.5q-11 14 -11 24t16 31l19 23q9 10 20 10q15 0 34 -19q34 -36 124.5 -66t235.5 -30q185 0 272 53.5t87 146.5q0 64 -45 105.5t-151.5 63t-286.5 21.5 q-20 0 -30.5 9.5t-10.5 26.5v27q0 40 41 40q169 0 267 19.5t138 56t40 92.5q0 74 -80.5 117t-237.5 43q-123 0 -208 -25.5t-134 -67.5q-15 -13 -31 -13q-15 0 -26 12l-21 20q-13 15 -13 25t14 26q52 59 162.5 95.5t256.5 36.5q141 0 239 -35.5t146.5 -95.5t48.5 -133 q0 -77 -51.5 -132.5t-143.5 -78.5v-15z" glyph-name="uni0437" unicode="з" vert-adv-y="1980"/>
<glyph d="M1018 982q8 -8 8 -22v-930q0 -13 -8 -21.5t-22 -8.5h-63q-13 0 -21.5 8.5t-8.5 21.5v812l-515 -822q-6 -9 -16 -14.5t-22 -5.5h-116q-13 0 -21.5 8.5t-8.5 21.5v930q0 14 8.5 22t21.5 8h63q14 0 22 -8t8 -22v-812l515 822q6 9 16 14.5t22 5.5h116q14 0 22 -8z" glyph-name="uni0438" unicode="и" vert-adv-y="1980"/>
<glyph d="M1018 982q8 -8 8 -22v-930q0 -13 -8 -21.5t-22 -8.5h-63q-13 0 -21.5 8.5t-8.5 21.5v812l-515 -822q-6 -9 -16 -14.5t-22 -5.5h-116q-13 0 -21.5 8.5t-8.5 21.5v930q0 14 8.5 22t21.5 8h63q14 0 22 -8t8 -22v-812l515 822q6 9 16 14.5t22 5.5h116q14 0 22 -8zM479 1256 q-59 31 -93.5 85.5t-41.5 124.5q-3 30 28 30h38q26 0 32 -28q14 -63 58.5 -101.5t114.5 -38.5t114.5 38.5t58.5 101.5q6 28 32 28h38q31 0 28 -30q-7 -70 -41.5 -124.5t-93.5 -85.5t-136 -31t-136 31z" glyph-name="uni0439" unicode="й" vert-adv-y="1980"/>
<glyph d="M1112 36q9 -10 9 -19q0 -8 -6.5 -12.5t-18.5 -4.5h-87q-23 0 -36 16l-404 462l-286 -283v-165q0 -13 -8 -21.5t-22 -8.5h-63q-13 0 -21.5 8.5t-8.5 21.5v930q0 14 8.5 22t21.5 8h63q14 0 22 -8t8 -22v-615l630 629q16 16 38 16h88q12 0 18.5 -4t6.5 -11q0 -9 -12 -21 l-400 -395z" glyph-name="uni043A" unicode="к" vert-adv-y="1980"/>
<glyph d="M1103 982q8 -8 8 -22v-930q0 -13 -8 -21.5t-22 -8.5h-63q-13 0 -21.5 8.5t-8.5 21.5v853h-616v-584q0 -127 -34 -194t-96.5 -91t-163.5 -24q-10 0 -16.5 4.5t-6.5 13.5v68q0 21 19 21q71 0 108 20t52 69.5t15 143.5v630q0 14 8.5 22t21.5 8h802q14 0 22 -8z" glyph-name="uni043B" unicode="л" vert-adv-y="1980"/>
<glyph d="M1063 982q8 -8 8 -22v-930q0 -13 -8 -21.5t-22 -8.5h-62q-13 0 -21.5 8.5t-8.5 21.5v773l-266 -731q-4 -10 -13 -16t-21 -6h-68q-12 0 -21 6t-13 16l-266 731v-773q0 -13 -8 -21.5t-22 -8.5h-61q-13 0 -21.5 8.5t-8.5 21.5v930q0 14 8.5 22t21.5 8h115q23 0 31 -22 l279 -776l279 776q8 22 31 22h116q14 0 22 -8z" glyph-name="uni043C" unicode="м" vert-adv-y="1980"/>
<glyph d="M996 990q14 0 22 -8t8 -22v-930q0 -13 -8 -21.5t-22 -8.5h-63q-13 0 -21.5 8.5t-8.5 21.5v406h-576v-406q0 -13 -8 -21.5t-22 -8.5h-63q-13 0 -21.5 8.5t-8.5 21.5v930q0 14 8.5 22t21.5 8h63q14 0 22 -8t8 -22v-416h576v416q0 14 8.5 22t21.5 8h63z" glyph-name="uni043D" unicode="н" vert-adv-y="1980"/>
<glyph d="M358.5 42.5q-113.5 67.5 -178 186t-64.5 264.5t64.5 264t178 185.5t256.5 67.5t256.5 -67.5t178 -185.5t64.5 -264t-64.5 -264.5t-178 -186t-256.5 -67.5t-256.5 67.5zM810.5 139q86.5 51 135 143t48.5 211t-48.5 210.5t-135 142.5t-195.5 51t-195.5 -51t-135 -142.5 t-48.5 -210.5t48.5 -211t135 -143t195.5 -51t195.5 51z" glyph-name="uni043E" unicode="о" vert-adv-y="1980"/>
<glyph d="M1019 980.5q7 -7.5 7 -20.5v-930q0 -13 -8 -21.5t-22 -8.5h-63q-13 0 -21.5 8.5t-8.5 21.5v853h-576v-853q0 -13 -8 -21.5t-22 -8.5h-63q-13 0 -21.5 8.5t-8.5 21.5v930q0 13 7.5 21t19.5 9h769q12 -2 19 -9.5z" glyph-name="uni043F" unicode="п" vert-adv-y="1980"/>
<glyph d="M887 944q108 -66 166.5 -183.5t58.5 -267.5t-58.5 -267.5t-166.5 -184t-252 -66.5q-135 0 -226.5 56t-138.5 146h-17v-527q0 -14 -8 -22t-22 -8h-56q-13 0 -21.5 8t-8.5 22v1310q0 14 8.5 22t21.5 8h63q14 0 22 -8t8 -22v-153h10q47 91 138.5 147t226.5 56q144 0 252 -66 zM819.5 138q83.5 51 128.5 142.5t45 212.5t-45 212.5t-128.5 142t-196.5 50.5q-114 0 -198.5 -50.5t-130.5 -142.5t-46 -212q0 -118 46 -210.5t131 -144t198 -51.5t196.5 51z" glyph-name="uni0440" unicode="р" vert-adv-y="1980"/>
<glyph d="M829 129.5q83 41.5 140 116.5q11 14 22 14q8 0 18 -7l39 -28q15 -10 15 -24q0 -8 -6 -17q-68 -100 -175 -154.5t-238 -54.5q-146 0 -261.5 67t-180.5 185.5t-65 265.5t65 265t180.5 185t261.5 67q132 0 238.5 -54.5t174.5 -154.5q6 -9 6 -17q0 -13 -15 -24l-39 -28 q-10 -7 -18 -7q-11 0 -22 14q-57 75 -140 116.5t-183 41.5q-110 0 -199 -51t-139.5 -143t-50.5 -210t50.5 -210.5t139.5 -143.5t199 -51q100 0 183 41.5z" glyph-name="uni0441" unicode="с" vert-adv-y="1980"/>
<glyph d="M585 0q-13 0 -21.5 8.5t-8.5 21.5v853h-423q-13 0 -21.5 8.5t-8.5 21.5v47q0 14 8.5 22t21.5 8h966q14 0 22 -8t8 -22v-47q0 -13 -8 -21.5t-22 -8.5h-420v-853q0 -13 -8 -21.5t-22 -8.5h-63z" glyph-name="uni0442" unicode="т" vert-adv-y="1980"/>
<glyph d="M1076 990q13 0 20.5 -5t7.5 -14q0 -8 -4 -15l-577 -1312q-10 -24 -36 -24h-64q-13 0 -20.5 5t-7.5 15q0 4 4 14l152 345l-421 957q-4 7 -4 15q0 9 7.5 14t20.5 5h64q25 0 36 -24l361 -833l361 833q11 24 36 24h64z" glyph-name="uni0443" unicode="у" vert-adv-y="1980"/>
<glyph d="M1006.5 122q-116.5 -134 -331.5 -151v-321q0 -14 -8 -22t-22 -8h-60q-13 0 -21.5 8t-8.5 22v321q-215 17 -331.5 151t-116.5 369t116.5 369t331.5 151v320q0 14 8.5 22t21.5 8h60q14 0 22 -8t8 -22v-320q215 -17 331.5 -151t116.5 -369t-116.5 -369zM307.5 196.5 q82.5 -98.5 247.5 -112.5v814q-165 -14 -247.5 -112.5t-82.5 -294.5t82.5 -294.5zM675 84q165 15 247.5 113.5t82.5 293.5t-82.5 293.5t-247.5 113.5v-814z" glyph-name="uni0444" unicode="ф" vert-adv-y="1980"/>
<glyph d="M1123 36q8 -8 8 -18q0 -8 -7 -13t-19 -5h-89q-23 0 -36 16l-365 407l-367 -407q-12 -16 -36 -16h-88q-12 0 -18 4.5t-6 11.5q0 10 9 20l430 470l-408 448q-8 8 -8 18q0 8 7 13t19 5h86q24 0 36 -16l344 -388l342 388q13 16 36 16h86q13 0 20.5 -4.5t7.5 -12.5 q0 -9 -10 -19l-403 -448z" glyph-name="uni0445" unicode="х" vert-adv-y="1980"/>
<glyph d="M996 990q14 0 22 -8t8 -22v-930q0 -13 -8 -21.5t-22 -8.5h-63q-13 0 -21.5 8.5t-8.5 21.5v319q-59 -74 -156 -118t-211 -44q-98 0 -186.5 34.5t-149 123.5t-60.5 242v373q0 14 8.5 22t21.5 8h63q14 0 22 -8t8 -22v-347q0 -157 79 -231.5t222 -74.5q95 0 171.5 32.5 t122 101t45.5 172.5v347q0 14 8.5 22t21.5 8h63z" glyph-name="uni0447" unicode="ч" vert-adv-y="1980"/>
<glyph d="M1141 107q14 0 22 -8t8 -22v-190q0 -14 -8 -22t-22 -8h-53q-13 0 -21.5 8t-8.5 22v113h-827q-12 1 -19.5 9t-7.5 21v930q0 14 8.5 22t21.5 8h63q14 0 22 -8t8 -22v-853h576v853q0 14 8.5 22t21.5 8h63q14 0 22 -8t8 -22v-853h115z" glyph-name="uni0446" unicode="ц" vert-adv-y="1980"/>
<glyph d="M1053 990q14 0 22 -8t8 -22v-930q0 -13 -7.5 -21t-19.5 -9h-882q-12 1 -19.5 9t-7.5 21v930q0 14 8.5 22t21.5 8h63q14 0 22 -8t8 -22v-853h285v853q0 14 8.5 22t21.5 8h60q14 0 22 -8t8 -22v-853h285v853q0 14 8.5 22t21.5 8h63z" glyph-name="uni0448" unicode="ш" vert-adv-y="1980"/>
<glyph d="M1141 107q14 0 22 -8t8 -22v-190q0 -14 -8 -22t-22 -8h-53q-13 0 -21.5 8t-8.5 22v113h-884q-12 1 -19.5 9t-7.5 21v930q0 14 8.5 22t21.5 8h63q14 0 22 -8t8 -22v-853h285v853q0 14 8.5 22t21.5 8h60q14 0 22 -8t8 -22v-853h285v853q0 14 8.5 22t21.5 8h63q14 0 22 -8 t8 -22v-853h58z" glyph-name="uni0449" unicode="щ" vert-adv-y="1980"/>
<glyph d="M714 668q198 0 282.5 -87.5t84.5 -246.5q0 -160 -84.5 -247t-282.5 -87h-480q-13 0 -21.5 8.5t-8.5 21.5v930q0 14 8.5 22t21.5 8h63q14 0 22 -8t8 -22v-292h387zM718 114q98 0 151.5 25t73.5 72.5t20 122.5t-20 122t-73.5 72t-151.5 25h-391v-439h391z" glyph-name="uni044C" unicode="ь" vert-adv-y="1980"/>
<glyph d="M714 668q198 0 282.5 -87.5t84.5 -246.5q0 -160 -84.5 -247t-282.5 -87h-429q-13 0 -21.5 8.5t-8.5 21.5v853h-128q-13 0 -21.5 8.5t-8.5 21.5v47q0 14 8.5 22t21.5 8h221q14 0 22 -8t8 -22v-292h336zM718 114q98 0 151.5 25t73.5 72.5t20 122.5t-20 122t-73.5 72 t-151.5 25h-340v-439h340z" glyph-name="uni044A" unicode="ъ" vert-adv-y="1980"/>
<glyph d="M150 0q-13 0 -21.5 8.5t-8.5 21.5v930q0 14 8.5 22t21.5 8h60q14 0 22 -8t8 -22v-292h262q136 0 212 -40t105.5 -112.5t29.5 -181.5q0 -110 -29.5 -182t-105.5 -112t-212 -40h-352zM1020 0q-13 0 -21.5 8.5t-8.5 21.5v930q0 14 8.5 22t21.5 8h61q14 0 22 -8t8 -22v-930 q0 -13 -8 -21.5t-22 -8.5h-61zM506 114q99 0 147.5 25t63 70.5t14.5 124.5t-14.5 124.5t-63 70t-147.5 24.5h-266v-439h266z" glyph-name="uni044B" unicode="ы" vert-adv-y="1980"/>
<glyph d="M1048 225q15 -10 15 -24q0 -8 -6 -17q-68 -100 -175 -154.5t-238 -54.5q-146 0 -261.5 67t-180.5 185.5t-65 265.5t65 265t180.5 185t261.5 67q132 0 238.5 -54.5t174.5 -154.5q6 -9 6 -17q0 -13 -15 -24l-39 -28q-10 -7 -18 -7q-11 0 -22 14q-57 75 -140 116.5 t-183 41.5q-103 0 -188 -45t-137.5 -126.5t-61.5 -187.5h415q14 0 22 -8t8 -22v-40q0 -13 -8 -21.5t-22 -8.5h-414q11 -104 64 -183.5t136.5 -123t185.5 -43.5q100 0 183 41.5t140 116.5q11 14 22 14q8 0 18 -7z" glyph-name="uni0454" unicode="є" vert-adv-y="1980"/>
<glyph d="M850.5 943q115.5 -67 180.5 -185t65 -265t-65 -265.5t-180.5 -185.5t-261.5 -67q-131 0 -238 54.5t-175 154.5q-6 9 -6 17q0 14 15 24l39 28q10 7 18 7q11 0 22 -14q56 -74 139 -116t184 -42q102 0 185.5 43.5t136.5 123t64 183.5h-414q-13 0 -21.5 8.5t-8.5 21.5v40 q0 14 8.5 22t21.5 8h415q-9 106 -61.5 187.5t-137.5 126.5t-188 45q-101 0 -184 -42t-139 -116q-11 -14 -22 -14q-8 0 -18 7l-39 28q-15 11 -15 24q0 8 6 17q68 100 174.5 154.5t238.5 54.5q146 0 261.5 -67z" glyph-name="uni044D" unicode="э" vert-adv-y="1980"/>
<glyph d="M1032 115q14 0 22 -8t8 -22v-55q0 -13 -8 -21.5t-22 -8.5h-216q-121 0 -185.5 68.5t-64.5 192.5v614h-363q-13 0 -21.5 8.5t-8.5 21.5v55q0 14 8.5 22t21.5 8h456q14 0 22 -8t8 -22v-691q0 -76 39 -115t115 -39h189zM377 1367q-23 23 -23 54q0 30 23 52.5t54 22.5 t54 -22.5t23 -52.5q0 -31 -23 -54t-54 -23t-54 23zM727 1367q-23 23 -23 54q0 30 23 52.5t54 22.5q32 0 55 -22.5t23 -52.5q0 -31 -23 -54t-55 -23q-31 0 -54 23z" glyph-name="uni0457" unicode="ї" vert-adv-y="1980"/>
<glyph d="M1045.5 871q99.5 -141 99.5 -378t-99.5 -378t-307.5 -141q-196 0 -295.5 126.5t-109.5 342.5h-128v-413q0 -13 -8 -21.5t-22 -8.5h-60q-13 0 -21.5 8.5t-8.5 21.5v930q0 14 8.5 22t21.5 8h60q14 0 22 -8t8 -22v-412h128q11 214 110.5 339t294.5 125q208 0 307.5 -141z M955.5 193q69.5 109 69.5 300t-69.5 300t-217.5 109q-147 0 -217 -109t-70 -300t70 -300t217 -109q148 0 217.5 109z" glyph-name="uni044E" unicode="ю" vert-adv-y="1980"/>
<glyph d="M1018 982q8 -8 8 -22v-930q0 -13 -8 -21.5t-22 -8.5h-63q-13 0 -21.5 8.5t-8.5 21.5v298h-313l-271 -312q-13 -16 -36 -16h-83q-12 0 -18.5 4.5t-6.5 12.5q0 9 9 19l260 297q-139 20 -209.5 105t-70.5 221q0 155 91 243t270 88h471q14 0 22 -8zM903 442v434h-345 q-145 0 -210.5 -50t-65.5 -167t65.5 -167t210.5 -50h345z" glyph-name="uni044F" unicode="я" vert-adv-y="1980"/>
<glyph d="M1151 34q2 -8 2 -12q0 -10 -7 -16t-19 -6h-65q-26 0 -34 24l-99 303h-628l-99 -303q-8 -24 -34 -24h-65q-12 0 -19 6t-7 16q0 4 2 12l421 1282q4 11 14 17.5t23 6.5h156q13 0 23 -6.5t14 -17.5zM589 1209l-250 -764h552l-250 764h-52z" glyph-name="Alpha" unicode="Α" vert-adv-y="1980"/>
<glyph d="M175 0q-13 0 -21.5 8.5t-8.5 21.5v1280q0 14 8.5 22t21.5 8h466q212 0 300.5 -92t88.5 -227q0 -99 -49 -175t-163 -106v-20q150 -29 215.5 -119t65.5 -231q0 -190 -112 -280t-356 -90h-456zM630 778q134 0 203.5 65t69.5 175q0 102 -67.5 151.5t-205.5 49.5h-357v-441 h357zM622 121q122 0 197 25t111 80t36 147q0 136 -82 213.5t-262 77.5h-349v-543h349z" glyph-name="Beta" unicode="Β" vert-adv-y="1980"/>
<glyph d="M1065 1332q8 -8 8 -22v-61q0 -13 -8 -21.5t-22 -8.5h-738v-1189q0 -13 -8 -21.5t-22 -8.5h-68q-13 0 -21.5 8.5t-8.5 21.5v1280q0 14 8.5 22t21.5 8h836q14 0 22 -8z" glyph-name="Gamma" unicode="Γ" vert-adv-y="1980"/>
<glyph d="M1156 34q2 -8 2 -12q0 -10 -7 -16t-19 -6h-1034q-12 0 -19 6t-7 16q0 4 2 12l426 1282q4 11 14 17.5t23 6.5h156q13 0 23 -6.5t14 -17.5zM641 1209h-52l-365 -1102h782z" glyph-name="uni0394" unicode="Δ" vert-adv-y="1980"/>
<glyph d="M197 0q-13 0 -21.5 8.5t-8.5 21.5v1280q0 14 8.5 22t21.5 8h834q14 0 22 -8t8 -22v-61q0 -13 -8 -21.5t-22 -8.5h-736v-470h692q14 0 22 -8t8 -22v-60q0 -13 -8 -21.5t-22 -8.5h-692v-508h738q14 0 22 -8t8 -22v-61q0 -13 -8 -21.5t-22 -8.5h-836z" glyph-name="Epsilon" unicode="Ε" vert-adv-y="1980"/>
<glyph d="M167 0q-13 0 -21.5 8.5t-8.5 21.5v71q0 18 12 36l777 1082h-739q-13 0 -21.5 8.5t-8.5 21.5v61q0 14 8.5 22t21.5 8h856q14 0 22 -8t8 -22v-71q0 -18 -12 -36l-777 -1082h779q14 0 22 -8t8 -22v-61q0 -13 -8 -21.5t-22 -8.5h-896z" glyph-name="Zeta" unicode="Ζ" vert-adv-y="1980"/>
<glyph d="M1041 1340q14 0 22 -8t8 -22v-1280q0 -13 -8 -21.5t-22 -8.5h-69q-13 0 -21.5 8.5t-8.5 21.5v578h-654v-578q0 -13 -8 -21.5t-22 -8.5h-68q-13 0 -21.5 8.5t-8.5 21.5v1280q0 14 8.5 22t21.5 8h68q14 0 22 -8t8 -22v-582h654v582q0 14 8.5 22t21.5 8h69z" glyph-name="Eta" unicode="Η" vert-adv-y="1980"/>
<glyph d="M355.5 34.5q-106.5 64.5 -166 218t-59.5 412.5t59.5 412.5t166 218t259.5 64.5t260 -64.5t166.5 -218t59.5 -412.5t-59.5 -412.5t-166.5 -218t-260 -64.5t-259.5 64.5zM803.5 142q78.5 47 124.5 172.5t46 350.5t-46 350.5t-124.5 172.5t-188.5 47t-188.5 -47 t-124.5 -172.5t-46 -350.5t46 -350.5t124.5 -172.5t188.5 -47t188.5 47zM404 613q-13 0 -21.5 8.5t-8.5 21.5v44q0 14 8.5 22t21.5 8h422q14 0 22 -8t8 -22v-44q0 -13 -8 -21.5t-22 -8.5h-422z" glyph-name="Theta" unicode="Θ" vert-adv-y="1980"/>
<glyph d="M166 0q-13 0 -21.5 8.5t-8.5 21.5v61q0 14 8.5 22t21.5 8h385v1098h-385q-13 0 -21.5 8.5t-8.5 21.5v61q0 14 8.5 22t21.5 8h898q14 0 22 -8t8 -22v-61q0 -13 -8 -21.5t-22 -8.5h-385v-1098h385q14 0 22 -8t8 -22v-61q0 -13 -8 -21.5t-22 -8.5h-898z" glyph-name="Iota" unicode="Ι" vert-adv-y="1980"/>
<glyph d="M1100 36q7 -10 7 -18t-6.5 -13t-18.5 -5h-85q-12 0 -20.5 4t-15.5 14l-480 615l-205 -230v-373q0 -13 -8 -21.5t-22 -8.5h-68q-13 0 -21.5 8.5t-8.5 21.5v1280q0 14 8.5 22t21.5 8h68q14 0 22 -8t8 -22v-735l654 749q13 16 36 16h94q12 0 18.5 -4.5t6.5 -12.5t-9 -19 l-515 -581z" glyph-name="Kappa" unicode="Κ" vert-adv-y="1980"/>
<glyph d="M693 1340q13 0 23 -6.5t14 -17.5l426 -1282q2 -8 2 -12q0 -10 -7 -16t-19 -6h-65q-26 0 -34 24l-392 1185h-52l-392 -1185q-8 -24 -34 -24h-65q-12 0 -19 6t-7 16q0 4 2 12l426 1282q4 11 14 17.5t23 6.5h156z" glyph-name="Lambda" unicode="Λ" vert-adv-y="1980"/>
<glyph d="M175 0q-13 0 -21.5 8.5t-8.5 21.5v1280q0 14 8.5 22t21.5 8h110q13 0 23 -5t13 -15l289 -1089h10l289 1089q3 10 13 15t23 5h111q14 0 22 -8t8 -22v-1280q0 -13 -8 -21.5t-22 -8.5h-62q-13 0 -21.5 8.5t-8.5 21.5v1031h-11l-255 -939q-5 -22 -33 -22h-100q-27 0 -33 22 l-255 939h-11v-1031q0 -13 -8 -21.5t-22 -8.5h-61z" glyph-name="Mu" unicode="Μ" vert-adv-y="1980"/>
<glyph d="M1037 1340q14 0 22 -8t8 -22v-1280q0 -13 -8 -21.5t-22 -8.5h-115q-25 0 -36 20l-599 1166v-1156q0 -13 -8 -21.5t-22 -8.5h-64q-13 0 -21.5 8.5t-8.5 21.5v1280q0 14 8.5 22t21.5 8h117q26 0 36 -20l597 -1161v1151q0 14 8.5 22t21.5 8h64z" glyph-name="Nu" unicode="Ν" vert-adv-y="1980"/>
<glyph d="M147 1219q-13 0 -21.5 8.5t-8.5 21.5v61q0 14 8.5 22t21.5 8h936q14 0 22 -8t8 -22v-61q0 -13 -8 -21.5t-22 -8.5h-936zM202 651q-13 0 -21.5 8.5t-8.5 21.5v60q0 14 8.5 22t21.5 8h826q14 0 22 -8t8 -22v-60q0 -13 -8 -21.5t-22 -8.5h-826zM145 0q-13 0 -21.5 8.5 t-8.5 21.5v61q0 14 8.5 22t21.5 8h940q14 0 22 -8t8 -22v-61q0 -13 -8 -21.5t-22 -8.5h-940z" glyph-name="Xi" unicode="Ξ" vert-adv-y="1980"/>
<glyph d="M355.5 34.5q-106.5 64.5 -166 218t-59.5 412.5t59.5 412.5t166 218t259.5 64.5t260 -64.5t166.5 -218t59.5 -412.5t-59.5 -412.5t-166.5 -218t-260 -64.5t-259.5 64.5zM803.5 142q78.5 47 124.5 172.5t46 350.5t-46 350.5t-124.5 172.5t-188.5 47t-188.5 -47 t-124.5 -172.5t-46 -350.5t46 -350.5t124.5 -172.5t188.5 -47t188.5 47z" glyph-name="Omicron" unicode="Ο" vert-adv-y="1980"/>
<glyph d="M1055 1344q8 -8 8 -22v-1292q0 -13 -8 -21.5t-22 -8.5h-68q-13 0 -21.5 8.5t-8.5 21.5v1202h-640v-1202q0 -13 -8 -21.5t-22 -8.5h-68q-13 0 -21.5 8.5t-8.5 21.5v1292q0 14 8.5 22t21.5 8h836q14 0 22 -8z" glyph-name="Pi" unicode="Π" vert-adv-y="1980"/>
<glyph d="M646 1340q223 0 332 -113t109 -310q0 -198 -108.5 -311t-332.5 -113h-346v-463q0 -13 -8 -21.5t-22 -8.5h-68q-13 0 -21.5 8.5t-8.5 21.5v1280q0 14 8.5 22t21.5 8h444zM624 614q165 0 251 69.5t86 233.5q0 163 -86 232.5t-251 69.5h-324v-605h324z" glyph-name="Rho" unicode="Ρ" vert-adv-y="1980"/>
<glyph d="M187 0q-13 0 -21.5 8.5t-8.5 21.5v71q0 17 12 36l371 533l-371 533q-12 20 -12 36v71q0 14 8.5 22t21.5 8h856q14 0 22 -8t8 -22v-61q0 -13 -8 -21.5t-22 -8.5h-741l385 -549l-385 -549h741q14 0 22 -8t8 -22v-61q0 -13 -8 -21.5t-22 -8.5h-856z" glyph-name="Sigma" unicode="Σ" vert-adv-y="1980"/>
<glyph d="M581 0q-13 0 -21.5 8.5t-8.5 21.5v1189h-421q-13 0 -21.5 8.5t-8.5 21.5v61q0 14 8.5 22t21.5 8h970q14 0 22 -8t8 -22v-61q0 -13 -8 -21.5t-22 -8.5h-421v-1189q0 -13 -8 -21.5t-22 -8.5h-68z" glyph-name="Tau" unicode="Τ" vert-adv-y="1980"/>
<glyph d="M1120 1340q12 0 19 -5t7 -14q0 -8 -6 -17l-461 -781v-493q0 -13 -8 -21.5t-22 -8.5h-68q-13 0 -21.5 8.5t-8.5 21.5v492l-460 782q-6 9 -6 17q0 9 7 14t19 5h72q25 0 36 -20l396 -678l396 678q11 20 36 20h73z" glyph-name="Upsilon" unicode="Υ" vert-adv-y="1980"/>
<glyph d="M689 1207q252 0 364 -147t112 -390t-112 -390t-364 -147h-12v-103q0 -13 -8 -21.5t-22 -8.5h-64q-13 0 -21.5 8.5t-8.5 21.5v103h-12q-252 0 -364 147t-112 390t112 390t364 147h12v103q0 14 8.5 22t21.5 8h64q14 0 22 -8t8 -22v-103h12zM553 253v834h-12 q-192 0 -271.5 -106.5t-79.5 -310.5t79.5 -310.5t271.5 -106.5h12zM689 253q192 0 271.5 106.5t79.5 310.5t-79.5 310.5t-271.5 106.5h-12v-834h12z" glyph-name="Phi" unicode="Φ" vert-adv-y="1980"/>
<glyph d="M1132 36q6 -9 6 -17q0 -9 -7 -14t-19 -5h-73q-23 0 -36 20l-388 564l-388 -564q-13 -20 -36 -20h-73q-12 0 -19 5t-7 14q0 8 6 17l447 650l-425 618q-6 9 -6 17q0 9 7 14t19 5h73q23 0 36 -20l366 -532l366 532q13 20 36 20h73q12 0 19 -5t7 -14q0 -8 -6 -17l-425 -618z " glyph-name="Chi" unicode="Χ" vert-adv-y="1980"/>
<glyph d="M1102 1340q14 0 22 -8t8 -22v-459q0 -163 -53 -255t-150.5 -129.5t-249.5 -42.5v-394q0 -13 -8 -21.5t-22 -8.5h-68q-13 0 -21.5 8.5t-8.5 21.5v394q-152 5 -249.5 42.5t-150.5 129.5t-53 255v459q0 14 8.5 22t21.5 8h68q14 0 22 -8t8 -22v-459q0 -111 30.5 -173.5 t100 -92t194.5 -34.5v759q0 14 8.5 22t21.5 8h68q14 0 22 -8t8 -22v-759q125 5 194.5 34.5t100 92t30.5 173.5v459q0 14 8.5 22t21.5 8h68z" glyph-name="Psi" unicode="Ψ" vert-adv-y="1980"/>
<glyph d="M143 0q-17 0 -17 18v76q0 18 17 18h211v42q-122 58 -178 214t-56 374q0 308 116 463t379 155t379.5 -155t116.5 -463q0 -218 -56.5 -374t-178.5 -214v-42h211q17 0 17 -18v-76q0 -18 -17 -18h-322q-18 0 -18 18v198q120 44 178.5 169t58.5 353q0 170 -35 279t-116 164.5 t-218 55.5t-218 -55.5t-116 -164.5t-35 -279q0 -228 58.5 -353t178.5 -169v-198q0 -18 -18 -18h-322z" glyph-name="uni03A9" unicode="Ω" vert-adv-y="1980"/>
<glyph d="M1151 34q2 -8 2 -12q0 -10 -7 -16t-19 -6h-65q-26 0 -34 24l-99 303h-628l-99 -303q-8 -24 -34 -24h-65q-12 0 -19 6t-7 16q0 4 2 12l421 1282q4 11 14 17.5t23 6.5h156q13 0 23 -6.5t14 -17.5zM589 1209l-250 -764h552l-250 764h-52zM115 1030q-13 0 -20.5 5t-7.5 15 q0 4 4 14l120 252q6 13 14 18.5t20 5.5h39q13 0 20.5 -5t7.5 -15q0 -4 -4 -14l-120 -252q-6 -13 -14 -18.5t-20 -5.5h-39z" glyph-name="Alphatonos" unicode="Ά" vert-adv-y="1980"/>
<glyph d="M197 0q-13 0 -21.5 8.5t-8.5 21.5v1280q0 14 8.5 22t21.5 8h834q14 0 22 -8t8 -22v-61q0 -13 -8 -21.5t-22 -8.5h-736v-470h692q14 0 22 -8t8 -22v-60q0 -13 -8 -21.5t-22 -8.5h-692v-508h738q14 0 22 -8t8 -22v-61q0 -13 -8 -21.5t-22 -8.5h-836zM-102 1030 q-13 0 -20.5 5t-7.5 15q0 4 4 14l120 252q6 13 14 18.5t20 5.5h39q13 0 20.5 -5t7.5 -15q0 -4 -4 -14l-120 -252q-6 -13 -14 -18.5t-20 -5.5h-39z" glyph-name="Epsilontonos" unicode="Έ" vert-adv-y="1980"/>
<glyph d="M1041 1340q14 0 22 -8t8 -22v-1280q0 -13 -8 -21.5t-22 -8.5h-69q-13 0 -21.5 8.5t-8.5 21.5v578h-654v-578q0 -13 -8 -21.5t-22 -8.5h-68q-13 0 -21.5 8.5t-8.5 21.5v1280q0 14 8.5 22t21.5 8h68q14 0 22 -8t8 -22v-582h654v582q0 14 8.5 22t21.5 8h69zM-110 1030 q-13 0 -20.5 5t-7.5 15q0 4 4 14l120 252q6 13 14 18.5t20 5.5h39q13 0 20.5 -5t7.5 -15q0 -4 -4 -14l-120 -252q-6 -13 -14 -18.5t-20 -5.5h-39z" glyph-name="Etatonos" unicode="Ή" vert-adv-y="1980"/>
<glyph d="M166 0q-13 0 -21.5 8.5t-8.5 21.5v61q0 14 8.5 22t21.5 8h385v1098h-385q-13 0 -21.5 8.5t-8.5 21.5v61q0 14 8.5 22t21.5 8h898q14 0 22 -8t8 -22v-61q0 -13 -8 -21.5t-22 -8.5h-385v-1098h385q14 0 22 -8t8 -22v-61q0 -13 -8 -21.5t-22 -8.5h-898zM-122 1030 q-13 0 -20.5 5t-7.5 15q0 4 4 14l120 252q6 13 14 18.5t20 5.5h39q13 0 20.5 -5t7.5 -15q0 -4 -4 -14l-120 -252q-6 -13 -14 -18.5t-20 -5.5h-39z" glyph-name="Iotatonos" unicode="Ί" vert-adv-y="1980"/>
<glyph d="M355.5 34.5q-106.5 64.5 -166 218t-59.5 412.5t59.5 412.5t166 218t259.5 64.5t260 -64.5t166.5 -218t59.5 -412.5t-59.5 -412.5t-166.5 -218t-260 -64.5t-259.5 64.5zM803.5 142q78.5 47 124.5 172.5t46 350.5t-46 350.5t-124.5 172.5t-188.5 47t-188.5 -47 t-124.5 -172.5t-46 -350.5t46 -350.5t124.5 -172.5t188.5 -47t188.5 47zM-57 1030q-13 0 -20.5 5t-7.5 15q0 4 4 14l120 252q6 13 14 18.5t20 5.5h39q13 0 20.5 -5t7.5 -15q0 -4 -4 -14l-120 -252q-6 -13 -14 -18.5t-20 -5.5h-39z" glyph-name="Omicrontonos" unicode="Ό" vert-adv-y="1980"/>
<glyph d="M1120 1340q12 0 19 -5t7 -14q0 -8 -6 -17l-461 -781v-493q0 -13 -8 -21.5t-22 -8.5h-68q-13 0 -21.5 8.5t-8.5 21.5v492l-460 782q-6 9 -6 17q0 9 7 14t19 5h72q25 0 36 -20l396 -678l396 678q11 20 36 20h73zM-217 1030q-13 0 -20.5 5t-7.5 15q0 4 4 14l120 252 q6 13 14 18.5t20 5.5h39q13 0 20.5 -5t7.5 -15q0 -4 -4 -14l-120 -252q-6 -13 -14 -18.5t-20 -5.5h-39z" glyph-name="Upsilontonos" unicode="Ύ" vert-adv-y="1980"/>
<glyph d="M143 0q-17 0 -17 18v76q0 18 17 18h211v42q-122 58 -178 214t-56 374q0 308 116 463t379 155t379.5 -155t116.5 -463q0 -218 -56.5 -374t-178.5 -214v-42h211q17 0 17 -18v-76q0 -18 -17 -18h-322q-18 0 -18 18v198q120 44 178.5 169t58.5 353q0 170 -35 279t-116 164.5 t-218 55.5t-218 -55.5t-116 -164.5t-35 -279q0 -228 58.5 -353t178.5 -169v-198q0 -18 -18 -18h-322zM-67 1030q-13 0 -20.5 5t-7.5 15q0 4 4 14l120 252q6 13 14 18.5t20 5.5h39q13 0 20.5 -5t7.5 -15q0 -4 -4 -14l-120 -252q-6 -13 -14 -18.5t-20 -5.5h-39z" glyph-name="Omegatonos" unicode="Ώ" vert-adv-y="1980"/>
<glyph d="M166 0q-13 0 -21.5 8.5t-8.5 21.5v61q0 14 8.5 22t21.5 8h385v1098h-385q-13 0 -21.5 8.5t-8.5 21.5v61q0 14 8.5 22t21.5 8h898q14 0 22 -8t8 -22v-61q0 -13 -8 -21.5t-22 -8.5h-385v-1098h385q14 0 22 -8t8 -22v-61q0 -13 -8 -21.5t-22 -8.5h-898zM387 1717 q-23 23 -23 54q0 30 23 52.5t54 22.5t54 -22.5t23 -52.5q0 -31 -23 -54t-54 -23t-54 23zM737 1717q-23 23 -23 54q0 30 23 52.5t54 22.5q32 0 55 -22.5t23 -52.5q0 -31 -23 -54t-55 -23q-31 0 -54 23z" glyph-name="Iotadieresis" unicode="Ϊ" vert-adv-y="1980"/>
<glyph d="M1120 1340q12 0 19 -5t7 -14q0 -8 -6 -17l-461 -781v-493q0 -13 -8 -21.5t-22 -8.5h-68q-13 0 -21.5 8.5t-8.5 21.5v492l-460 782q-6 9 -6 17q0 9 7 14t19 5h72q25 0 36 -20l396 -678l396 678q11 20 36 20h73zM387 1717q-23 23 -23 54q0 30 23 52.5t54 22.5t54 -22.5 t23 -52.5q0 -31 -23 -54t-54 -23t-54 23zM737 1717q-23 23 -23 54q0 30 23 52.5t54 22.5q32 0 55 -22.5t23 -52.5q0 -31 -23 -54t-55 -23q-31 0 -54 23z" glyph-name="Upsilondieresis" unicode="Ϋ" vert-adv-y="1980"/>
<glyph d="M1125 17q2 -30 2 -43q0 -124 -59.5 -204.5t-152.5 -117.5t-196 -37q-90 0 -163 25.5t-115 60t-42 55.5q0 6 2 8l36 53q6 9 19 9t23 -9q39 -32 100.5 -60.5t147.5 -28.5q76 0 138.5 26.5t99 71.5t36.5 99q0 44 -25 88l-3 3l-404 462l-286 -283v-165q0 -13 -8 -21.5 t-22 -8.5h-63q-13 0 -21.5 8.5t-8.5 21.5v930q0 14 8.5 22t21.5 8h63q14 0 22 -8t8 -22v-615l630 629q16 16 38 16h88q12 0 18.5 -4t6.5 -11q0 -9 -12 -21l-400 -395l460 -523q9 -10 9 -19h4z" glyph-name="uni03CF" unicode="Ϗ" vert-adv-y="1980"/>
<glyph d="M1151 81q13 0 13 -12v-63q0 -15 -21.5 -23.5t-41.5 -8.5q-60 0 -93 39t-33 107v79q-61 -106 -163 -165.5t-231 -59.5q-137 0 -246.5 67.5t-171.5 186t-62 265.5t62 265.5t171.5 186t246.5 67.5q123 0 222 -54.5t161 -152.5v155q0 14 8.5 22t21.5 8h63q14 0 22 -8t8 -22 v-811q0 -34 12.5 -51.5t49.5 -16.5h2zM783 136q85 52 133 145t48 212t-48 212t-133 145t-191 52q-107 0 -192 -52t-133 -145t-48 -212t48 -212t133 -145t192 -52q106 0 191 52z" glyph-name="alpha" unicode="α" vert-adv-y="1980"/>
<glyph d="M1005 639.5q77 -92.5 77 -249.5q0 -139 -59 -225t-176.5 -125.5t-298.5 -39.5h-277v-350q0 -14 -8 -22t-22 -8h-63q-13 0 -21.5 8t-8.5 22v1391q0 171 97 265t323 94q215 0 324.5 -88t109.5 -247q0 -117 -56.5 -189t-171.5 -111q154 -33 231 -125.5zM525 110 q149 0 244 23.5t145 83.5t50 168q0 163 -109 240t-309 77h-114q-13 0 -21.5 8.5t-8.5 21.5v50q0 14 8.5 22t21.5 8h114q158 0 248 60t90 190q0 226 -316 226q-120 0 -185.5 -31.5t-88.5 -84.5t-23 -131v-931h254z" glyph-name="beta" unicode="β" vert-adv-y="1980"/>
<glyph d="M1020.5 814.5q16.5 -89.5 16.5 -186.5q0 -176 -62 -299.5t-145 -194t-181 -123.5q-4 -2 -7.5 -3.5t-5.5 -2.5v-355q0 -14 -8 -22t-22 -8h-63q-13 0 -21.5 8t-8.5 22v399l-363 907q-3 8 -3 14q0 20 27 20h64q12 0 22 -6t14 -18l336 -844q142 69 224 200t82 316 q0 158 -66 323q-3 8 -3 13q0 16 18 16h87q8 0 12.5 -3t8.5 -12q31 -71 47.5 -160.5z" glyph-name="gamma" unicode="γ" vert-adv-y="1980"/>
<glyph d="M923 907q90 -70 140.5 -177.5t50.5 -236.5q0 -146 -64.5 -264.5t-178 -186t-256.5 -67.5t-256.5 67.5t-178 186t-64.5 264.5q0 145 63.5 262.5t176.5 185.5t254 69l-19 14q-19 15 -47 33q-64 45 -106.5 80t-73 81.5t-30.5 100.5q0 48 22 86.5t63.5 61.5t98.5 23h433 q18 0 18 -18v-76q0 -17 -18 -17h-416q-42 0 -61.5 -17.5t-19.5 -46.5q0 -43 36 -79.5t102 -81.5q9 -7 17.5 -12.5t15.5 -11.5l299 -222zM810.5 139q86.5 51 135 143t48.5 211t-48.5 210.5t-135 142.5t-195.5 51t-195.5 -51t-135 -142.5t-48.5 -210.5t48.5 -211t135 -143 t195.5 -51t195.5 51z" glyph-name="delta" unicode="δ" vert-adv-y="1980"/>
<glyph d="M330 17q-105 43 -146.5 107t-41.5 135q0 78 47.5 141.5t146.5 93.5q-86 30 -127 92t-41 138q0 72 39.5 137t140 108.5t271.5 43.5q254 0 445 -98q15 -7 15 -26v-80q0 -16 -14 -16q-6 0 -13 4q-103 52 -206.5 75t-218.5 23q-333 0 -333 -181q0 -81 65 -121.5t187 -40.5 h316q14 0 22 -8t8 -22v-56q0 -13 -8 -21.5t-22 -8.5h-316q-133 0 -205.5 -43t-72.5 -125q0 -92 92 -133.5t264 -41.5q123 0 230.5 22.5t207.5 75.5q7 4 13 4q14 0 14 -16v-81q0 -18 -15 -26q-100 -52 -218.5 -75t-241.5 -23q-179 0 -284 43z" glyph-name="epsilon" unicode="ε" vert-adv-y="1980"/>
<glyph d="M378 335q40 -58 99 -89t161 -68q120 -44 194 -86.5t126 -129t52 -230.5v-82q0 -14 -8 -22t-22 -8h-63q-13 0 -21.5 8t-8.5 22v70q0 114 -45.5 184.5t-111.5 107.5t-177 80q-112 43 -177.5 80t-110.5 107t-45 183q0 140 68 298.5t182 298t244 226.5h-464q-13 0 -21.5 8.5 t-8.5 21.5v55q0 14 8.5 22t21.5 8h636q12 0 19.5 -6t9.5 -17h1v-92q-129 -42 -264.5 -177t-224.5 -306.5t-89 -314.5q0 -94 40 -152z" glyph-name="zeta" unicode="ζ" vert-adv-y="1980"/>
<glyph d="M896.5 965.5q88.5 -46.5 139.5 -137t51 -216.5v-962q0 -14 -8 -22t-22 -8h-63q-13 0 -21.5 8t-8.5 22v941q0 90 -37 160t-106.5 109t-161.5 39q-93 0 -164 -39.5t-110 -109.5t-39 -159v-561q0 -13 -8 -21.5t-22 -8.5h-63q-13 0 -21.5 8.5t-8.5 21.5v807q0 34 -12.5 51.5 t-49.5 16.5h-2q-14 0 -14 12v63q0 16 21.5 24t49.5 8q57 0 93.5 -37.5t36.5 -110.5v-41h17q40 88 130.5 138.5t203.5 50.5q111 0 199.5 -46.5z" glyph-name="eta" unicode="η" vert-adv-y="1980"/>
<glyph d="M884.5 1298q105.5 -62 161 -214.5t55.5 -418.5t-55.5 -418.5t-161 -214.5t-269.5 -62t-269.5 62t-160.5 214t-55 419t55 419t160.5 214t269.5 62t269.5 -62zM423.5 1198.5q-74.5 -39.5 -118 -152t-48.5 -324.5h716q-5 212 -48.5 324.5t-118 152t-191.5 39.5t-191.5 -39.5 zM806.5 131.5q74.5 39.5 118 152t48.5 324.5h-716q5 -212 48.5 -324.5t118 -152t191.5 -39.5t191.5 39.5z" glyph-name="theta" unicode="θ" vert-adv-y="1980"/>
</font>
</defs>
</svg>
