<?xml version="1.0" encoding="UTF-8"?>
<!DOCTYPE svg  PUBLIC '-//W3C//DTD SVG 1.1//EN'  'http://www.w3.org/Graphics/SVG/1.1/DTD/svg11.dtd'>
<svg version="1.1" xmlns="http://www.w3.org/2000/svg">
<defs>
<font id="CartographCF-ExtraBoldItalic" horiz-adv-x="1230" vert-adv-y="2000">
<font-face font-family="Cartograph CF Extra Bold" font-style="italic" font-weight="800" ascent="1600" bbox="-920.471 -743 4806 2000" cap-height="1340" descent="-400" panose-1="0 0 9 9 0 0 0 0 0 0" slope="-8" underline-position="-100" underline-thickness="50" unicode-range="U+0020-FFFD" units-per-em="2000" x-height="989"/>
<missing-glyph d="M184 1600h628v-1980h-628v1980zM659 1402v65h-326v-65h128v-73h-130v-66h328v66h-130v73h130zM529 1073v139h-198v-206h328v67h-130zM396 1145h65v-72h-65v72zM659 887v66h-328v-66h130v-73h-130v-65h198v138h130zM659 636v198h-65v-131h-263v-67h328zM659 368v224h-198 v-111h68v46h65v-93h-198v158h-65v-224h328zM659 26v224h-328v-224h328zM396 184h198v-93h-198v93zM659 -85v65h-328v-65h138l-138 -93v-65h328v65h-202l139 93h63z" horiz-adv-x="990" vert-adv-y="1980"/>
<glyph d="M285 0q-13 0 -22 6t-10 18l-86 932q-3 34 29 34h181q13 0 22 -6t10 -18l56 -637l229 637q4 11 15.5 17.5t24.5 6.5h158q13 0 22 -6t10 -18l51 -637l234 637q4 11 15.5 17.5t24.5 6.5h230q13 0 22 -6t10 -18l56 -637l229 637q4 11 15.5 17.5t24.5 6.5h158q13 0 22 -6 t10 -18l51 -637l234 637q4 11 15.5 17.5t24.5 6.5h230q13 0 22 -6t10 -18l56 -637l229 637q4 11 15.5 17.5t24.5 6.5h158q13 0 22 -6t10 -18l51 -637l234 637q4 11 15.5 17.5t24.5 6.5h181q23 0 23 -17q0 -5 -4 -17l-348 -932q-4 -11 -15.5 -17.5t-24.5 -6.5h-220 q-13 0 -22 6t-10 18l-51 578l-212 -578q-4 -11 -15.5 -17.5t-24.5 -6.5h-220q-13 0 -22 6.5t-10 17.5l-37 640l-218 -640q-4 -11 -15.5 -17.5t-24.5 -6.5h-221q-13 0 -22 6t-10 18l-50 578l-212 -578q-4 -11 -15.5 -17.5t-24.5 -6.5h-221q-13 0 -22 6.5t-10 17.5l-37 640 l-218 -640q-3 -11 -15 -17.5t-25 -6.5h-220q-13 0 -22 6t-10 18l-50 578l-213 -578q-4 -11 -15.5 -17.5t-24.5 -6.5h-220z" glyph-name="w_w_w.liga" horiz-adv-x="3690" unicode="www" vert-adv-y="1980"/>
<glyph d="M2920 1081l157 138l485 -565l-644 -565l-118 138l386 328h-3027l27 198h3027z" glyph-name="hyphen_hyphen_greater.liga" horiz-adv-x="3690" unicode="--&gt;" vert-adv-y="1980"/>
<glyph d="M1690 1081l157 138l485 -565l-644 -565l-118 138l386 328h-1797l27 198h1797z" glyph-name="hyphen_greater.liga" horiz-adv-x="2460" unicode="-&gt;" vert-adv-y="1980"/>
<glyph d="M2272 1103l157 138l486 -565l-645 -565l-118 138l386 328h-2377l27 198h2378zM2922 1103l157 138l486 -565l-645 -565l-118 138l503 427z" glyph-name="hyphen_greater_greater.liga" horiz-adv-x="3690" unicode="-&gt;&gt;" vert-adv-y="1980"/>
<glyph d="M2920 1081l157 138l485 -565l-644 -565l-118 138l386 328h-3027l27 198h3027z" glyph-name="endash_endash_greater.liga" horiz-adv-x="3690" unicode="––&gt;" vert-adv-y="1980"/>
<glyph d="M1690 1081l157 138l485 -565l-644 -565l-118 138l386 328h-1797l27 198h1797z" glyph-name="endash_greater.liga" horiz-adv-x="2460" unicode="–&gt;" vert-adv-y="1980"/>
<glyph d="M2272 1103l157 138l486 -565l-645 -565l-118 138l386 328h-2377l27 198h2378zM2922 1103l157 138l486 -565l-645 -565l-118 138l503 427z" glyph-name="endash_greater_greater.liga" horiz-adv-x="3690" unicode="–&gt;&gt;" vert-adv-y="1980"/>
<glyph d="M555 456.5q-52 30.5 -82.5 82.5t-30.5 114q0 61 30.5 113.5t82.5 83t113 30.5t113.5 -30.5t83 -83t30.5 -113.5q0 -62 -30.5 -114t-82.5 -82.5t-114 -30.5q-61 0 -113 30.5zM2248 767q32 0 28 -32l-23 -169q-4 -28 -32 -28h-939q-32 0 -28 32l23 169q4 28 32 28h939z" glyph-name="period_hyphen.liga" horiz-adv-x="2460" unicode=".-" vert-adv-y="1980"/>
<glyph d="M555 456.5q-52 30.5 -82.5 82.5t-30.5 114q0 61 30.5 113.5t82.5 83t113 30.5t113.5 -30.5t83 -83t30.5 -113.5q0 -62 -30.5 -114t-82.5 -82.5t-114 -30.5q-61 0 -113 30.5zM2248 767q32 0 28 -32l-23 -169q-4 -28 -32 -28h-939q-32 0 -28 32l23 169q4 28 32 28h939z" glyph-name="period_endash.liga" horiz-adv-x="2460" unicode=".–" vert-adv-y="1980"/>
<glyph d="M1306 783q-13 0 -20.5 8t-5.5 22l21 148q1 13 10.5 21.5t23.5 8.5h948q13 0 20.5 -8t5.5 -22l-21 -148q-1 -13 -10.5 -21.5t-23.5 -8.5h-948zM555 456.5q-52 30.5 -82.5 82.5t-30.5 114q0 61 30.5 113.5t82.5 83t113 30.5t113.5 -30.5t83 -83t30.5 -113.5 q0 -62 -30.5 -114t-82.5 -82.5t-114 -30.5q-61 0 -113 30.5zM1240 315q-13 0 -20.5 8t-5.5 22l21 148q1 13 10.5 21.5t23.5 8.5h948q13 0 20.5 -8t5.5 -22l-21 -148q-1 -13 -10.5 -21.5t-23.5 -8.5h-948z" glyph-name="period_equal.liga" horiz-adv-x="2460" unicode=".=" vert-adv-y="1980"/>
<glyph d="M1518 1.5q-47 27.5 -75 75t-28 103.5t28 103t75 74.5t103 27.5q55 0 102 -27.5t75 -74.5t28 -103t-28 -103.5t-75 -75t-102 -27.5q-56 0 -103 27.5zM1605 638.5q-47 27.5 -75 75t-28 103.5t28 103t75 74.5t103 27.5q55 0 102 -27.5t75 -74.5t28 -103t-28 -103.5t-75 -75 t-102 -27.5q-56 0 -103 27.5zM650 1.5q-47 27.5 -75 75t-28 103.5t28 103t75 74.5t103 27.5q55 0 102 -27.5t75 -74.5t28 -103t-28 -103.5t-75 -75t-102 -27.5q-56 0 -103 27.5zM737 638.5q-47 27.5 -75 75t-28 103.5t28 103t75 74.5t103 27.5q55 0 102 -27.5t75 -74.5 t28 -103t-28 -103.5t-75 -75t-102 -27.5q-56 0 -103 27.5z" glyph-name="colon_colon.liga" horiz-adv-x="2460" unicode="::" vert-adv-y="1980"/>
<glyph d="M1699 1.5q-47 27.5 -75 75t-28 103.5t28 103t75 74.5t103 27.5q55 0 102 -27.5t75 -74.5t28 -103t-28 -103.5t-75 -75t-102 -27.5q-56 0 -103 27.5zM1786 638.5q-47 27.5 -75 75t-28 103.5t28 103t75 74.5t103 27.5q55 0 102 -27.5t75 -74.5t28 -103t-28 -103.5t-75 -75 t-102 -27.5q-56 0 -103 27.5zM2718 1.5q-47 27.5 -75 75t-28 103.5t28 103t75 74.5t103 27.5q55 0 102 -27.5t75 -74.5t28 -103t-28 -103.5t-75 -75t-102 -27.5q-56 0 -103 27.5zM2805 638.5q-47 27.5 -75 75t-28 103.5t28 103t75 74.5t103 27.5q55 0 102 -27.5t75 -74.5 t28 -103t-28 -103.5t-75 -75t-102 -27.5q-56 0 -103 27.5zM680 1.5q-47 27.5 -75 75t-28 103.5t28 103t75 74.5t103 27.5q55 0 102 -27.5t75 -74.5t28 -103t-28 -103.5t-75 -75t-102 -27.5q-56 0 -103 27.5zM767 638.5q-47 27.5 -75 75t-28 103.5t28 103t75 74.5t103 27.5 q55 0 102 -27.5t75 -74.5t28 -103t-28 -103.5t-75 -75t-102 -27.5q-56 0 -103 27.5z" glyph-name="colon_colon_colon.liga" horiz-adv-x="3690" unicode=":::" vert-adv-y="1980"/>
<glyph d="M1832 234q13 0 20.5 -8t5.5 -22l-15 -101q-20 -144 -49.5 -268.5t-61.5 -202.5q-8 -22 -39 -22h-157q-26 0 -26 20l2 12q48 205 67 358h-261q-13 0 -20.5 8t-5.5 22l25 174q1 13 10.5 21.5t23.5 8.5h481zM1602 638.5q-47 27.5 -75 75t-28 103.5t28 103t75 74.5t103 27.5 q55 0 102 -27.5t75 -74.5t28 -103t-28 -103.5t-75 -75t-102 -27.5q-56 0 -103 27.5zM965 234q13 0 20.5 -8t5.5 -22l-15 -101q-20 -144 -49.5 -268.5t-61.5 -202.5q-8 -22 -39 -22h-157q-26 0 -26 20l2 12q48 205 67 358h-261q-13 0 -20.5 8t-5.5 22l25 174q1 13 10.5 21.5 t23.5 8.5h481zM735 638.5q-47 27.5 -75 75t-28 103.5t28 103t75 74.5t103 27.5q55 0 102 -27.5t75 -74.5t28 -103t-28 -103.5t-75 -75t-102 -27.5q-56 0 -103 27.5z" glyph-name="semicolon_semicolon.liga" horiz-adv-x="2460" unicode=";;" vert-adv-y="1980"/>
<glyph d="M2389 990q14 0 20.5 -8t5.5 -22l-21 -147q-1 -13 -10.5 -21.5t-23.5 -8.5h-918l-149 -260h1030q13 0 20.5 -8t5.5 -22l-21 -148q-1 -13 -10.5 -21.5t-23.5 -8.5h-1119l-259 -453q-8 -15 -18.5 -20.5t-27.5 -5.5h-205q-13 0 -20.5 5t-7.5 14q0 8 6 17l252 443h-779 q-13 0 -20.5 8t-5.5 22l21 148q1 13 10.5 21.5t23.5 8.5h869l148 260h-980q-13 0 -20.5 8t-5.5 22l21 147q1 14 10.5 22t23.5 8h1069l286 502q7 13 18 18.5t27 5.5h207q13 0 20.5 -5t7.5 -14q0 -8 -6 -17l-280 -490h829z" glyph-name="exclam_equal.liga" horiz-adv-x="2460" unicode="!=" vert-adv-y="1980"/>
<glyph d="M3650 1214q14 0 21 -8.5t5 -21.5l-21 -147q-2 -14 -11.5 -22t-22.5 -8h-1427l-137 -240h1530q14 0 21 -8.5t5 -21.5l-21 -147q-2 -14 -11.5 -22t-22.5 -8h-1619l-137 -240h1723q14 0 21 -8.5t5 -21.5l-21 -147q-2 -14 -11.5 -22t-22.5 -8h-1812l-153 -268 q-8 -15 -18.5 -20.5t-27.5 -5.5h-205q-13 0 -20.5 5t-7.5 14q0 8 6 17l147 258h-1317q-14 0 -21 8.5t-5 21.5l21 147q2 14 11.5 22t22.5 8h1406l137 240h-1510q-14 0 -21 8.5t-5 21.5l21 147q2 14 11.5 22t22.5 8h1599l136 240h-1701q-14 0 -21 8.5t-5 21.5l21 147 q2 14 11.5 22t22.5 8h1790l149 261q7 14 18 19.5t27 5.5h207q13 0 20.5 -5t7.5 -14q0 -8 -6 -17l-143 -250h1338z" glyph-name="exclam_equal_equal.liga" horiz-adv-x="3690" unicode="!==" vert-adv-y="1980"/>
<glyph d="M1391 957q4 -41 -41 -52l-271 -63l150 -221q10 -15 10 -26q0 -18 -27 -35l-181 -111q-13 -8 -26 -8q-21 0 -30 20l-122 230l-186 -230q-15 -20 -36 -20q-13 0 -24 8l-151 111q-15 11 -15 27q0 18 15 34l200 221l-242 63q-28 8 -28 31q0 10 4 21l74 187q7 16 18.5 24.5 t25.5 8.5q9 0 14 -2l246 -77l42 288q3 20 16.5 32t32.5 12h188q20 0 30.5 -12.5t6.5 -31.5l-53 -288l288 77q6 2 15 2q15 0 23.5 -8.5t10.5 -24.5zM1226 -260q-13 0 -20.5 5t-7.5 14q0 8 6 17l923 1620q7 13 18 18.5t27 5.5h207q13 0 20.5 -5t7.5 -14q0 -8 -6 -17 l-924 -1618q-8 -15 -18.5 -20.5t-27.5 -5.5h-205z" glyph-name="asterisk_slash.liga" horiz-adv-x="2460" unicode="*/" vert-adv-y="1980"/>
<glyph d="M44 -260q-13 0 -20.5 5t-7.5 14q0 8 6 17l923 1620q7 13 18 18.5t27 5.5h207q13 0 20.5 -5t7.5 -14q0 -8 -6 -17l-924 -1618q-8 -15 -18.5 -20.5t-27.5 -5.5h-205zM2371 957q4 -41 -41 -52l-271 -63l150 -221q10 -15 10 -26q0 -18 -27 -35l-181 -111q-13 -8 -26 -8 q-21 0 -30 20l-122 230l-186 -230q-15 -20 -36 -20q-13 0 -24 8l-151 111q-15 11 -15 27q0 18 15 34l200 221l-242 63q-28 8 -28 31q0 10 4 21l74 187q7 16 18.5 24.5t25.5 8.5q9 0 14 -2l246 -77l42 288q3 20 16.5 32t32.5 12h188q20 0 30.5 -12.5t6.5 -31.5l-53 -288 l288 77q6 2 15 2q15 0 23.5 -8.5t10.5 -24.5z" glyph-name="slash_asterisk.liga" horiz-adv-x="2460" unicode="/*" vert-adv-y="1980"/>
<glyph d="M2197 615q21 -13 18 -34l-22 -153q-2 -20 -27 -33l-768 -429q-9 -6 -19 -6q-15 0 -21 14l-64 153q-2 4 -2 12q0 10 5 18.5t14 12.5l627 340l-789 513l-717 -1259q-7 -13 -18 -18.5t-27 -5.5h-207q-13 0 -20.5 5t-7.5 14q0 8 6 17l924 1619q8 14 18.5 19.5t27.5 5.5h205 q13 0 20.5 -5t7.5 -14q0 -8 -6 -17l-92 -161z" glyph-name="slash_greater.liga" horiz-adv-x="2460" unicode="/&gt;" vert-adv-y="1980"/>
<glyph d="M1154 -260q-13 0 -20.5 5t-7.5 14q0 8 6 17l923 1620q7 13 18 18.5t27 5.5h207q13 0 20.5 -5t7.5 -14q0 -8 -6 -17l-924 -1618q-8 -15 -18.5 -20.5t-27.5 -5.5h-205zM176 -260q-13 0 -20.5 5t-7.5 14q0 8 6 17l923 1620q7 13 18 18.5t27 5.5h207q13 0 20.5 -5t7.5 -14 q0 -8 -6 -17l-924 -1618q-8 -15 -18.5 -20.5t-27.5 -5.5h-205z" glyph-name="slash_slash.liga" horiz-adv-x="2460" unicode="//" vert-adv-y="1980"/>
<glyph d="M2359 -229h-2460l31 229h2460z" glyph-name="underscore_underscore.liga" horiz-adv-x="2460" unicode="__" vert-adv-y="1980"/>
<glyph d="M182 783q-13 0 -20.5 8t-5.5 22l21 147q1 14 10.5 22t23.5 8h2178q14 0 20.5 -8t5.5 -22l-21 -147q-1 -13 -10.5 -21.5t-23.5 -8.5h-2178zM116 315q-13 0 -20.5 8t-5.5 22l21 148q1 13 10.5 21.5t23.5 8.5h2178q13 0 20.5 -8t5.5 -22l-21 -148q-1 -13 -10.5 -21.5 t-23.5 -8.5h-2178z" glyph-name="equal_equal.liga" horiz-adv-x="2460" unicode="==" vert-adv-y="1980"/>
<glyph d="M213 1007q-14 0 -21 8.5t-5 21.5l21 147q2 14 11.5 22t22.5 8h3408q14 0 21 -8.5t5 -21.5l-21 -147q-2 -14 -11.5 -22t-22.5 -8h-3408zM150 560q-14 0 -21 8.5t-5 21.5l21 147q2 14 11.5 22t22.5 8h3408q14 0 21 -8.5t5 -21.5l-21 -147q-2 -14 -11.5 -22t-22.5 -8h-3408z M88 113q-14 0 -21 8.5t-5 21.5l21 147q2 14 11.5 22t22.5 8h3408q14 0 21 -8.5t5 -21.5l-21 -147q-2 -14 -11.5 -22t-22.5 -8h-3408z" glyph-name="equal_equal_equal.liga" horiz-adv-x="3690" unicode="===" vert-adv-y="1980"/>
<glyph d="M3077 1219l485 -565l-644 -565l-118 138l103 88h-2787q-13 0 -20.5 8t-5.5 22l21 148q1 13 10.5 21.5t23.5 8.5h3003l154 131l-115 129h-3005q-14 0 -21 8.5t-5 21.5l21 147q1 14 10.5 22t23.5 8h2790l-81 91z" glyph-name="equal_equal_greater.liga" horiz-adv-x="3690" unicode="==&gt;" vert-adv-y="1980"/>
<glyph d="M1847 1219l485 -565l-644 -565l-118 138l103 88h-1557q-13 0 -20.5 8t-5.5 22l21 148q1 13 10.5 21.5t23.5 8.5h1773l154 131l-115 129h-1775q-14 0 -21 8.5t-5 21.5l21 147q1 14 10.5 22t23.5 8h1560l-81 91z" glyph-name="equal_greater.liga" horiz-adv-x="2460" unicode="=&gt;" vert-adv-y="1980"/>
<glyph d="M2427 1219l485 -565l-644 -565l-118 138l103 88h-2137q-13 0 -20.5 8t-5.5 22l21 148q1 13 10.5 21.5t23.5 8.5h2353l154 131l-115 129h-2355q-14 0 -21 8.5t-5 21.5l21 147q1 14 10.5 22t23.5 8h2140l-81 91zM2920 1081l157 138l485 -565l-644 -565l-118 138l502 427z " glyph-name="equal_greater_greater.liga" horiz-adv-x="3690" unicode="=&gt;&gt;" vert-adv-y="1980"/>
<glyph d="M3650 1214q14 0 21 -8.5t5 -21.5l-21 -147q-2 -14 -11.5 -22t-22.5 -8h-1417l-137 -240h1520q14 0 21 -8.5t5 -21.5l-21 -147q-2 -14 -11.5 -22t-22.5 -8h-1609l-137 -240h1713q14 0 21 -8.5t5 -21.5l-21 -147q-2 -14 -11.5 -22t-22.5 -8h-1802l-151 -265 q-8 -14 -18.5 -19.5t-27.5 -5.5h-205q-13 0 -20.5 5t-7.5 14q0 8 6 17l145 254h-1327q-14 0 -21 8.5t-5 21.5l21 147q2 14 11.5 22t22.5 8h1416l136 240h-1519q-14 0 -21 8.5t-5 21.5l21 147q2 14 11.5 22t22.5 8h1608l137 240h-1711q-14 0 -21 8.5t-5 21.5l21 147 q2 14 11.5 22t22.5 8h1800l151 265q7 13 18 18.5t27 5.5h207q13 0 20.5 -5t7.5 -14q0 -8 -6 -17l-144 -253h1327z" glyph-name="equal_slash_equal.liga" horiz-adv-x="3690" unicode="=/=" vert-adv-y="1980"/>
<glyph d="M2919 1083l157 138l486 -565l-645 -565l-118 138l386 328h-2424l-532 -466l-117 138l502 427l-382 427l156 138l401 -466h2424z" glyph-name="greater_hyphen_greater.liga" horiz-adv-x="3690" unicode="&gt;-&gt;" vert-adv-y="1980"/>
<glyph d="M2919 1083l157 138l486 -565l-645 -565l-118 138l386 328h-2424l-532 -466l-117 138l502 427l-382 427l156 138l401 -466h2424z" glyph-name="greater_endash_greater.liga" horiz-adv-x="3690" unicode="&gt;–&gt;" vert-adv-y="1980"/>
<glyph d="M1099 1025q20 -12 17 -34l-22 -153q-1 -12 -7.5 -19t-19.5 -14l-764 -429q-9 -6 -18 -6q-15 0 -21 14l-71 153q-3 6 -3 12q0 9 5 17.5t15 13.5l634 339l-534 342q-13 8 -13 20q0 10 8 21l105 143q10 15 25 15q8 0 17 -6zM234 -105q-11 -6 -19 -6q-14 0 -21 15l-67 148 q-3 8 -3 13q0 17 20 28l772 425q11 6 19 6q15 0 21 -14l67 -148q3 -7 3 -13q0 -17 -20 -28z" glyph-name="greater_equal.liga" unicode="&gt;=" vert-adv-y="1980"/>
<glyph d="M2920 1081l157 138l485 -565l-644 -565l-118 138l103 88h-2415l-258 -226l-118 138l502 427l-382 427l157 138l197 -229h2415zM874 654l-149 -131h2423l154 131l-115 129h-2424z" glyph-name="greater_equal_greater.liga" horiz-adv-x="3690" unicode="&gt;=&gt;" vert-adv-y="1980"/>
<glyph d="M551 775h1797l-27 -198h-1797l293 -328l-157 -138l-485 565l644 565l118 -138z" glyph-name="less_hyphen.liga" horiz-adv-x="2460" unicode="&lt;-" vert-adv-y="1980"/>
<glyph d="M548 755h3027l-27 -198h-3027l293 -328l-157 -138l-485 565l644 565l118 -138z" glyph-name="less_hyphen_hyphen.liga" horiz-adv-x="3690" unicode="&lt;--" vert-adv-y="1980"/>
<glyph d="M2920 1081l157 138l485 -565l-644 -565l-118 138l386 328h-2665l294 -328l-157 -138l-486 565l645 565l118 -138l-386 -328h2664z" glyph-name="less_hyphen_greater.liga" horiz-adv-x="3690" unicode="&lt;-&gt;" vert-adv-y="1980"/>
<glyph d="M3505 1219l117 -138l-502 -427l382 -427l-156 -138l-401 466h-2424l294 -328l-157 -138l-486 565l645 565l118 -138l-386 -328h2424z" glyph-name="less_hyphen_less.liga" horiz-adv-x="3690" unicode="&lt;-&lt;" vert-adv-y="1980"/>
<glyph d="M551 775h1797l-27 -198h-1797l293 -328l-157 -138l-485 565l644 565l118 -138z" glyph-name="less_endash.liga" horiz-adv-x="2460" unicode="&lt;–" vert-adv-y="1980"/>
<glyph d="M548 755h3027l-27 -198h-3027l293 -328l-157 -138l-485 565l644 565l118 -138z" glyph-name="less_endash_endash.liga" horiz-adv-x="3690" unicode="&lt;––" vert-adv-y="1980"/>
<glyph d="M2920 1081l157 138l485 -565l-644 -565l-118 138l386 328h-2665l294 -328l-157 -138l-486 565l645 565l118 -138l-386 -328h2664z" glyph-name="less_endash_greater.liga" horiz-adv-x="3690" unicode="&lt;–&gt;" vert-adv-y="1980"/>
<glyph d="M3505 1219l117 -138l-502 -427l382 -427l-156 -138l-401 466h-2424l294 -328l-157 -138l-486 565l645 565l118 -138l-386 -328h2424z" glyph-name="less_endash_less.liga" horiz-adv-x="3690" unicode="&lt;–&lt;" vert-adv-y="1980"/>
<glyph d="M1863.5 1322q42.5 -39 42.5 -107q0 -26 -8 -60l-153 -595q-4 -14 -16 -23t-26 -9h-130q-14 0 -22.5 8.5t-9.5 23.5l11 595q1 62 29.5 109t74.5 72t98 25q67 0 109.5 -39zM817 1219l118 -138l-386 -328h641l-28 -198h-641l294 -328l-157 -138l-486 565zM2162 555l28 198 h2616l-27 -198h-2617zM1703 339.5q45 -26.5 71.5 -71.5t26.5 -98t-26.5 -98t-71.5 -71.5t-98 -26.5t-98 26.5t-71.5 71.5t-26.5 98t26.5 98t71.5 71.5t98 26.5t98 -26.5z" glyph-name="less_exclam_hyphen_hyphen.liga" horiz-adv-x="4920" unicode="&lt;!--" vert-adv-y="1980"/>
<glyph d="M1863.5 1322q42.5 -39 42.5 -107q0 -26 -8 -60l-153 -595q-4 -14 -16 -23t-26 -9h-130q-14 0 -22.5 8.5t-9.5 23.5l11 595q1 62 29.5 109t74.5 72t98 25q67 0 109.5 -39zM817 1219l118 -138l-386 -328h641l-28 -198h-641l294 -328l-157 -138l-486 565zM2162 555l28 198 h2616l-27 -198h-2617zM1703 339.5q45 -26.5 71.5 -71.5t26.5 -98t-26.5 -98t-71.5 -71.5t-98 -26.5t-98 26.5t-71.5 71.5t-26.5 98t26.5 98t71.5 71.5t98 26.5t98 -26.5z" glyph-name="less_exclam_endash_endash.liga" horiz-adv-x="4920" unicode="&lt;!––" vert-adv-y="1980"/>
<glyph d="M249 805q-10 6 -14 13.5t-3 19.5l21 153q1 11 7.5 19t19.5 15l765 429q9 6 18 6q14 0 21 -15l70 -152q3 -6 3 -12q0 -9 -5 -17.5t-15 -13.5l-633 -339l533 -343q13 -8 13 -20q0 -10 -8 -21l-104 -142q-12 -15 -25 -15q-8 0 -17 6zM174 321q-12 8 -12 21q0 10 7 20 l109 147q11 14 26 14q9 0 17 -5l654 -425q12 -7 12 -20q0 -12 -8 -21l-109 -148q-9 -14 -25 -14q-9 0 -17 5z" glyph-name="less_equal.liga" unicode="&lt;=" vert-adv-y="1980"/>
<glyph d="M3621 1015q13 0 20.5 -8t5.5 -22l-21 -147q-1 -13 -10.5 -21.5t-23.5 -8.5h-3002l-155 -132l115 -129h3005q14 0 21 -8.5t5 -21.5l-21 -147q-1 -14 -10.5 -22t-23.5 -8h-2790l81 -91l-157 -138l-485 565l644 565l118 -138l-103 -88h2787z" glyph-name="less_equal_equal.liga" horiz-adv-x="3690" unicode="&lt;==" vert-adv-y="1980"/>
<glyph d="M4150 1081l157 138l485 -565l-644 -565l-118 138l103 88h-3397l79 -88l-157 -138l-486 565l645 565l118 -138l-107 -91h3403zM432 654l118 -131h3828l154 131l-115 129h-3833z" glyph-name="less_equal_equal_greater.liga" horiz-adv-x="4920" unicode="&lt;==&gt;" vert-adv-y="1980"/>
<glyph d="M2920 1081l157 138l485 -565l-644 -565l-118 138l103 88h-2167l79 -88l-157 -138l-486 565l645 565l118 -138l-107 -91h2173zM432 654l118 -131h2598l154 131l-115 129h-2603z" glyph-name="less_equal_greater.liga" horiz-adv-x="3690" unicode="&lt;=&gt;" vert-adv-y="1980"/>
<glyph d="M3504 1221l118 -138l-502 -427l382 -427l-157 -138l-197 229h-2415l81 -91l-157 -138l-485 565l644 565l118 -138l-103 -88h2415zM432 656l115 -129h2424l-111 129l150 132h-2423z" glyph-name="less_equal_less.liga" horiz-adv-x="3690" unicode="&lt;=&lt;" vert-adv-y="1980"/>
<glyph d="M817 1219l118 -138l-503 -427l383 -427l-157 -138l-486 565zM1199 753h2377l-27 -198h-2378l294 -328l-157 -138l-486 565l645 565l118 -138z" glyph-name="less_less_hyphen.liga" horiz-adv-x="3690" unicode="&lt;&lt;-" vert-adv-y="1980"/>
<glyph d="M817 1219l118 -138l-503 -427l383 -427l-157 -138l-486 565zM1199 753h2377l-27 -198h-2378l294 -328l-157 -138l-486 565l645 565l118 -138z" glyph-name="less_less_endash.liga" horiz-adv-x="3690" unicode="&lt;&lt;–" vert-adv-y="1980"/>
<glyph d="M819 1241l118 -138l-502 -427l382 -427l-157 -138l-485 565zM3621 1015q13 0 20.5 -8t5.5 -22l-21 -147q-1 -13 -10.5 -21.5t-23.5 -8.5h-2352l-155 -132l115 -129h2355q14 0 21 -8.5t5 -21.5l-21 -147q-1 -14 -10.5 -22t-23.5 -8h-2140l81 -91l-157 -138l-485 565 l644 565l118 -138l-103 -88h2137z" glyph-name="less_less_equal.liga" horiz-adv-x="3690" unicode="&lt;&lt;=" vert-adv-y="1980"/>
<glyph d="M2303 1420q13 0 20.5 -5t7.5 -14q0 -8 -6 -17l-924 -1618q-8 -15 -18.5 -20.5t-27.5 -5.5h-205q-13 0 -20.5 5t-7.5 14q0 8 6 17l92 161l-934 608q-21 13 -18 34l22 153q3 21 27 34l768 428q9 6 19 6q15 0 21 -14l64 -153q2 -4 2 -12q0 -21 -19 -31l-627 -340l789 -512 l717 1258q7 13 18 18.5t27 5.5h207z" glyph-name="less_slash.liga" horiz-adv-x="2460" unicode="&lt;/" vert-adv-y="1980"/>
<glyph d="M3296 615q22 -13 19 -34l-22 -153q-2 -20 -27 -33l-768 -429q-9 -6 -19 -6q-15 0 -21 14l-64 153q-2 4 -2 12q0 10 5 18.5t14 12.5l627 340l-788 513l-718 -1259q-7 -13 -18 -18.5t-27 -5.5h-207q-13 0 -20.5 5t-7.5 14q0 8 6 17l92 162l-932 607q-22 13 -19 34l22 153 q3 21 27 34l768 428q9 6 19 6q15 0 21 -14l64 -153q2 -4 2 -12q0 -21 -19 -31l-627 -340l789 -512l717 1258q7 13 18 18.5t27 5.5h207q13 0 20.5 -5t7.5 -14q0 -8 -6 -17l-92 -162z" glyph-name="less_slash_greater.liga" horiz-adv-x="3690" unicode="&lt;/&gt;" vert-adv-y="1980"/>
<glyph d="M184 1600h628v-1980h-628v1980zM659 1402v65h-326v-65h128v-73h-130v-66h328v66h-130v73h130zM529 1073v139h-198v-206h328v67h-130zM396 1145h65v-72h-65v72zM659 887v66h-328v-66h130v-73h-130v-65h198v138h130zM659 636v198h-65v-131h-263v-67h328zM659 368v224h-198 v-111h68v46h65v-93h-198v158h-65v-224h328zM659 26v224h-328v-224h328zM396 184h198v-93h-198v93zM659 -85v65h-328v-65h138l-138 -93v-65h328v65h-202l139 93h63z" glyph-name=".notdef" horiz-adv-x="990" vert-adv-y="1980"/>
<glyph glyph-name="space" unicode=" " vert-adv-y="1980"/>
<glyph d="M1099 34q2 -15 -5.5 -24.5t-23.5 -9.5h-236q-27 0 -30 24l-20 211h-411l-79 -211q-9 -24 -38 -24h-236q-23 0 -23 18q0 4 4 16l513 1282q5 12 15.5 18t22.5 6h364q12 0 20.5 -6t9.5 -18zM675 1037l-208 -554h294l-53 554h-33z" glyph-name="A" unicode="A" vert-adv-y="1980"/>
<glyph d="M1099 34q2 -15 -5.5 -24.5t-23.5 -9.5h-236q-27 0 -30 24l-20 211h-411l-79 -211q-9 -24 -38 -24h-236q-23 0 -23 18q0 4 4 16l513 1282q5 12 15.5 18t22.5 6h364q12 0 20.5 -6t9.5 -18zM675 1037l-208 -554h294l-53 554h-33zM662 1550q-11 0 -18 4.5t-7 12.5q0 7 6 17 l156 252q8 13 17 18.5t21 5.5h197q11 0 18 -4.5t7 -12.5q0 -6 -6 -17l-155 -252q-8 -13 -17 -18.5t-21 -5.5h-198z" glyph-name="Aacute" unicode="Á" vert-adv-y="1980"/>
<glyph d="M1099 34q2 -15 -5.5 -24.5t-23.5 -9.5h-236q-27 0 -30 24l-20 211h-411l-79 -211q-9 -24 -38 -24h-236q-23 0 -23 18q0 4 4 16l513 1282q5 12 15.5 18t22.5 6h364q12 0 20.5 -6t9.5 -18zM675 1037l-208 -554h294l-53 554h-33zM599 1575q-69 39 -103 105.5t-31 147.5 q1 15 10 23.5t25 8.5h119q25 0 28 -30q2 -29 18.5 -56t47.5 -43.5t74 -16.5q63 0 105 34t61 82q10 30 36 30h125q26 0 26 -21q0 -7 -1 -11q-19 -82 -69 -148t-127.5 -105t-175.5 -39q-99 0 -168 39z" glyph-name="Abreve" unicode="Ă" vert-adv-y="1980"/>
<glyph d="M1099 34q2 -15 -5.5 -24.5t-23.5 -9.5h-236q-27 0 -30 24l-20 211h-411l-79 -211q-9 -24 -38 -24h-236q-23 0 -23 18q0 4 4 16l513 1282q5 12 15.5 18t22.5 6h364q12 0 20.5 -6t9.5 -18zM675 1037l-208 -554h294l-53 554h-33zM654 1541q-12 0 -19.5 3t-14.5 13l-186 267 q-6 9 -6 16q0 9 8 14.5t21 5.5h223q22 0 34 -16l108 -151l152 151q16 16 38 16h225q24 0 24 -15q0 -10 -11 -21l-262 -267q-11 -10 -19 -13t-19 -3h-296z" glyph-name="uni01CD" unicode="Ǎ" vert-adv-y="1980"/>
<glyph d="M1099 34q2 -15 -5.5 -24.5t-23.5 -9.5h-236q-27 0 -30 24l-20 211h-411l-79 -211q-9 -24 -38 -24h-236q-23 0 -23 18q0 4 4 16l513 1282q5 12 15.5 18t22.5 6h364q12 0 20.5 -6t9.5 -18zM675 1037l-208 -554h294l-53 554h-33zM446 1541q-24 0 -24 15q0 10 11 21l263 267 q10 10 18 13t20 3h295q12 0 19.5 -3t14.5 -13l186 -267q6 -9 6 -16q0 -9 -8 -14.5t-21 -5.5h-223q-22 0 -34 16l-107 151l-152 -151q-16 -16 -38 -16h-226z" glyph-name="Acircumflex" unicode="Â" vert-adv-y="1980"/>
<glyph d="M1099 34q2 -15 -5.5 -24.5t-23.5 -9.5h-236q-27 0 -30 24l-20 211h-411l-79 -211q-9 -24 -38 -24h-236q-23 0 -23 18q0 4 4 16l513 1282q5 12 15.5 18t22.5 6h364q12 0 20.5 -6t9.5 -18zM675 1037l-208 -554h294l-53 554h-33zM495.5 1595q-32.5 19 -51.5 51.5t-19 72.5 q0 39 19 71t51.5 51t70.5 19t70.5 -19t51.5 -51t19 -71q0 -40 -19 -72.5t-51.5 -51.5t-70.5 -19t-70.5 19zM938.5 1595q-32.5 19 -51.5 51.5t-19 72.5q0 39 19 71t51.5 51t70.5 19t70.5 -19t51.5 -51t19 -71q0 -40 -19 -72.5t-51.5 -51.5t-70.5 -19t-70.5 19z" glyph-name="Adieresis" unicode="Ä" vert-adv-y="1980"/>
<glyph d="M1099 34q2 -15 -5.5 -24.5t-23.5 -9.5h-236q-27 0 -30 24l-20 211h-411l-79 -211q-9 -24 -38 -24h-236q-23 0 -23 18q0 4 4 16l513 1282q5 12 15.5 18t22.5 6h364q12 0 20.5 -6t9.5 -18zM675 1037l-208 -554h294l-53 554h-33zM688 1550q-12 0 -21 5.5t-17 18.5l-156 252 q-6 11 -6 17q0 8 7 12.5t18 4.5h198q12 0 21 -5.5t17 -18.5l155 -252q6 -10 6 -17q0 -8 -7 -12.5t-18 -4.5h-197z" glyph-name="Agrave" unicode="À" vert-adv-y="1980"/>
<glyph d="M1099 34q2 -15 -5.5 -24.5t-23.5 -9.5h-236q-27 0 -30 24l-20 211h-411l-79 -211q-9 -24 -38 -24h-236q-23 0 -23 18q0 4 4 16l513 1282q5 12 15.5 18t22.5 6h364q12 0 20.5 -6t9.5 -18zM675 1037l-208 -554h294l-53 554h-33zM504 1642q-14 0 -20.5 8t-4.5 22l22 158 q1 13 10.5 21.5t23.5 8.5h544q13 0 20.5 -8t5.5 -22l-22 -158q-2 -13 -11.5 -21.5t-23.5 -8.5h-544z" glyph-name="Amacron" unicode="Ā" vert-adv-y="1980"/>
<glyph d="M1099 34q2 -15 -5.5 -24.5t-23.5 -9.5h-108q-43 -12 -68.5 -38.5t-25.5 -63.5q0 -42 30 -65.5t87 -23.5h42q20 0 17 -20l-18 -131q-3 -20 -23 -20h-71q-117 0 -194 47.5t-77 161.5q0 76 36.5 129.5t102.5 84.5l-16 174h-411l-79 -211q-9 -24 -38 -24h-236q-23 0 -23 18 q0 4 4 16l513 1282q5 12 15.5 18t22.5 6h364q12 0 20.5 -6t9.5 -18zM675 1037l-208 -554h294l-53 554h-33z" glyph-name="Aogonek" unicode="Ą" vert-adv-y="1980"/>
<glyph d="M1099 34q2 -15 -5.5 -24.5t-23.5 -9.5h-236q-27 0 -30 24l-20 211h-411l-79 -211q-9 -24 -38 -24h-236q-23 0 -23 18q0 4 4 16l513 1282q5 12 15.5 18t22.5 6h364q12 0 20.5 -6t9.5 -18zM675 1037l-208 -554h294l-53 554h-33zM742.5 1480.5q-47.5 27.5 -74.5 74 t-27 100.5q0 55 27 102.5t74.5 75t105.5 27.5q56 0 103 -27.5t74 -75t27 -102.5q0 -54 -27 -100.5t-74 -74t-103 -27.5q-58 0 -105.5 27.5zM890 1614q18 15 18 39q0 28 -17 45.5t-43 17.5q-27 0 -44 -16t-17 -42q0 -27 17 -43t44 -16q24 0 42 15z" glyph-name="Aring" unicode="Å" vert-adv-y="1980"/>
<glyph d="M1099 34q2 -15 -5.5 -24.5t-23.5 -9.5h-236q-27 0 -30 24l-20 211h-411l-79 -211q-9 -24 -38 -24h-236q-23 0 -23 18q0 4 4 16l513 1282q5 12 15.5 18t22.5 6h364q12 0 20.5 -6t9.5 -18zM675 1037l-208 -554h294l-53 554h-33zM823.5 1570q-38.5 20 -85.5 59 q-38 31 -66 46.5t-63 15.5q-36 0 -61.5 -16t-38.5 -40q-8 -16 -24 -16h-65q-8 0 -12.5 5t-4.5 13q0 6 1 9q27 101 93 152.5t155 51.5q57 0 95.5 -20t86.5 -58q39 -32 66 -47t62 -15q36 0 61.5 16t38.5 39q8 16 24 16h66q9 0 13.5 -5.5t3.5 -14.5q-9 -69 -45.5 -116.5 t-90.5 -71t-114 -23.5q-57 0 -95.5 20z" glyph-name="Atilde" unicode="Ã" vert-adv-y="1980"/>
<glyph d="M1310 1392q7 -8 5 -24l-28 -198q-4 -28 -32 -28h-281l-41 -295h238q15 0 22 -8t5 -24l-28 -198q-4 -28 -32 -28h-242l-46 -331h279q15 0 22 -8t5 -24l-27 -198q-4 -28 -32 -28h-534q-15 0 -22 8t-5 24l18 128h-239l-64 -138q-10 -22 -35 -22h-220q-26 0 -26 20q0 7 4 15 l667 1343q10 22 35 22h612q15 0 22 -8zM658 901l-228 -493h159z" glyph-name="AE" unicode="Æ" vert-adv-y="1980"/>
<glyph d="M868 709q131 -17 192.5 -89.5t61.5 -202.5q0 -210 -147 -313.5t-412 -103.5h-484q-13 0 -20.5 8t-5.5 22l180 1280q5 30 44 30h465q189 0 277 -77.5t88 -210.5q0 -80 -29.5 -147.5t-83 -113t-123.5 -62.5zM494 1082l-36 -259h183q92 0 138.5 36.5t46.5 112.5 q0 63 -33.5 86.5t-114.5 23.5h-184zM609 258q225 0 225 181q0 76 -42 109.5t-137 33.5h-231l-46 -324h231z" glyph-name="B" unicode="B" vert-adv-y="1980"/>
<glyph d="M1031 100q-4 -28 -14.5 -44.5t-33.5 -28.5q-48 -26 -117 -41.5t-150 -15.5q-171 0 -297.5 72t-195.5 209.5t-69 328.5q0 189 69.5 368.5t212 295.5t351.5 116q158 0 258 -74t100 -231q0 -74 -27 -172q-7 -26 -34 -26h-206q-26 0 -26 24q0 7 1 11q11 41 11 77 q0 111 -121 111q-103 0 -171 -73.5t-100 -180.5t-32 -209q0 -175 97.5 -273t274.5 -98q52 0 106.5 10t102.5 28q8 3 14 3q11 0 15.5 -7.5t3.5 -20.5z" glyph-name="C" unicode="C" vert-adv-y="1980"/>
<glyph d="M1031 100q-4 -28 -14.5 -44.5t-33.5 -28.5q-48 -26 -117 -41.5t-150 -15.5q-171 0 -297.5 72t-195.5 209.5t-69 328.5q0 189 69.5 368.5t212 295.5t351.5 116q158 0 258 -74t100 -231q0 -74 -27 -172q-7 -26 -34 -26h-206q-26 0 -26 24q0 7 1 11q11 41 11 77 q0 111 -121 111q-103 0 -171 -73.5t-100 -180.5t-32 -209q0 -175 97.5 -273t274.5 -98q52 0 106.5 10t102.5 28q8 3 14 3q11 0 15.5 -7.5t3.5 -20.5zM679 1550q-11 0 -18 4.5t-7 12.5q0 7 6 17l156 252q8 13 17 18.5t21 5.5h197q11 0 18 -4.5t7 -12.5q0 -6 -6 -17l-155 -252 q-8 -13 -17 -18.5t-21 -5.5h-198z" glyph-name="Cacute" unicode="Ć" vert-adv-y="1980"/>
<glyph d="M1031 100q-4 -28 -14.5 -44.5t-33.5 -28.5q-48 -26 -117 -41.5t-150 -15.5q-171 0 -297.5 72t-195.5 209.5t-69 328.5q0 189 69.5 368.5t212 295.5t351.5 116q158 0 258 -74t100 -231q0 -74 -27 -172q-7 -26 -34 -26h-206q-26 0 -26 24q0 7 1 11q11 41 11 77 q0 111 -121 111q-103 0 -171 -73.5t-100 -180.5t-32 -209q0 -175 97.5 -273t274.5 -98q52 0 106.5 10t102.5 28q8 3 14 3q11 0 15.5 -7.5t3.5 -20.5zM671 1541q-12 0 -19.5 3t-14.5 13l-186 267q-6 9 -6 16q0 9 8 14.5t21 5.5h223q22 0 34 -16l108 -151l152 151q16 16 38 16 h225q24 0 24 -15q0 -10 -11 -21l-262 -267q-11 -10 -19 -13t-19 -3h-296z" glyph-name="Ccaron" unicode="Č" vert-adv-y="1980"/>
<glyph d="M1045 1286q100 -74 100 -231q0 -74 -27 -172q-7 -26 -34 -26h-206q-26 0 -26 24q0 7 1 11q11 41 11 77q0 111 -121 111q-103 0 -171 -73.5t-100 -180.5t-32 -209q0 -175 97.5 -273t274.5 -98q52 0 106.5 10t102.5 28q8 3 14 3q11 0 15.5 -7.5t3.5 -20.5l-23 -159 q-4 -28 -14.5 -44.5t-33.5 -28.5q-48 -26 -117 -41.5t-150 -15.5q-57 0 -103 7l-55 -43q66 -6 113 -44t47 -100q0 -75 -41.5 -127t-111 -78.5t-152.5 -26.5q-44 0 -83 7q-18 3 -15 22l13 98q2 9 9 15t16 5q33 -5 59 -5q50 0 82 15t32 44q0 18 -22 31.5t-56 13.5 q-37 0 -80 -17q-4 -2 -10 -2q-14 0 -12 16l13 103q1 13 14 24l87 72h54q-170 56 -265 205.5t-95 374.5q0 189 69.5 368.5t212 295.5t351.5 116q158 0 258 -74z" glyph-name="Ccedilla" unicode="Ç" vert-adv-y="1980"/>
<glyph d="M1031 100q-4 -28 -14.5 -44.5t-33.5 -28.5q-48 -26 -117 -41.5t-150 -15.5q-171 0 -297.5 72t-195.5 209.5t-69 328.5q0 189 69.5 368.5t212 295.5t351.5 116q158 0 258 -74t100 -231q0 -74 -27 -172q-7 -26 -34 -26h-206q-26 0 -26 24q0 7 1 11q11 41 11 77 q0 111 -121 111q-103 0 -171 -73.5t-100 -180.5t-32 -209q0 -175 97.5 -273t274.5 -98q52 0 106.5 10t102.5 28q8 3 14 3q11 0 15.5 -7.5t3.5 -20.5zM735.5 1595q-32.5 19 -51.5 51.5t-19 72.5q0 39 19 71t51.5 51t70.5 19t70 -19t51 -51t19 -71q0 -40 -19 -72.5t-51 -51.5 t-70 -19t-70.5 19z" glyph-name="Cdotaccent" unicode="Ċ" vert-adv-y="1980"/>
<glyph d="M84 0q-14 0 -21 8.5t-5 21.5l180 1280q2 14 11.5 22t22.5 8h419q171 0 275.5 -81t148 -206.5t43.5 -272.5q0 -208 -78.5 -385.5t-242 -286t-404.5 -108.5h-349zM428 258q157 0 254 77t138 192t41 238q0 130 -51.5 223.5t-180.5 93.5h-130l-116 -824h45z" glyph-name="D" unicode="D" vert-adv-y="1980"/>
<glyph d="M691 1340q171 0 275.5 -81t148 -206.5t43.5 -272.5q0 -208 -78.5 -385.5t-242 -286t-404.5 -108.5h-349q-14 0 -21 8.5t-5 21.5l75 531h-86q-13 0 -20 8.5t-5 21.5l23 158q1 13 10.5 21.5t23.5 8.5h84l75 531q2 14 11.5 22t22.5 8h419zM428 258q157 0 254 77t138 192 t41 238q0 130 -51.5 223.5t-180.5 93.5h-130l-43 -303h167q13 0 20.5 -8t5.5 -22l-23 -158q-2 -13 -11.5 -21.5t-23.5 -8.5h-165l-43 -303h45z" glyph-name="Eth" unicode="Ð" vert-adv-y="1980"/>
<glyph d="M84 0q-14 0 -21 8.5t-5 21.5l180 1280q2 14 11.5 22t22.5 8h419q171 0 275.5 -81t148 -206.5t43.5 -272.5q0 -208 -78.5 -385.5t-242 -286t-404.5 -108.5h-349zM428 258q157 0 254 77t138 192t41 238q0 130 -51.5 223.5t-180.5 93.5h-130l-116 -824h45zM654 1541 q-12 0 -19.5 3t-14.5 13l-186 267q-6 9 -6 16q0 9 8 14.5t21 5.5h223q22 0 34 -16l108 -151l152 151q16 16 38 16h225q24 0 24 -15q0 -10 -11 -21l-262 -267q-11 -10 -19 -13t-19 -3h-296z" glyph-name="Dcaron" unicode="Ď" vert-adv-y="1980"/>
<glyph d="M691 1340q171 0 275.5 -81t148 -206.5t43.5 -272.5q0 -208 -78.5 -385.5t-242 -286t-404.5 -108.5h-349q-14 0 -21 8.5t-5 21.5l75 531h-86q-13 0 -20 8.5t-5 21.5l23 158q1 13 10.5 21.5t23.5 8.5h84l75 531q2 14 11.5 22t22.5 8h419zM428 258q157 0 254 77t138 192 t41 238q0 130 -51.5 223.5t-180.5 93.5h-130l-43 -303h167q13 0 20.5 -8t5.5 -22l-23 -158q-2 -13 -11.5 -21.5t-23.5 -8.5h-165l-43 -303h45z" glyph-name="Dcroat" unicode="Đ" vert-adv-y="1980"/>
<glyph d="M114 0q-13 0 -20 8t-5 22l180 1280q1 13 10.5 21.5t23.5 8.5h860q13 0 20.5 -8t5.5 -22l-28 -198q-1 -13 -10.5 -21.5t-23.5 -8.5h-598l-40 -281h552q14 0 21.5 -8.5t4.5 -21.5l-27 -198q-2 -14 -11.5 -22t-22.5 -8h-552l-41 -285h599q14 0 21.5 -8.5t5.5 -21.5l-28 -198 q-2 -14 -11.5 -22t-23.5 -8h-862z" glyph-name="E" unicode="E" vert-adv-y="1980"/>
<glyph d="M114 0q-13 0 -20 8t-5 22l180 1280q1 13 10.5 21.5t23.5 8.5h860q13 0 20.5 -8t5.5 -22l-28 -198q-1 -13 -10.5 -21.5t-23.5 -8.5h-598l-40 -281h552q14 0 21.5 -8.5t4.5 -21.5l-27 -198q-2 -14 -11.5 -22t-22.5 -8h-552l-41 -285h599q14 0 21.5 -8.5t5.5 -21.5l-28 -198 q-2 -14 -11.5 -22t-23.5 -8h-862zM662 1550q-11 0 -18 4.5t-7 12.5q0 7 6 17l156 252q8 13 17 18.5t21 5.5h197q11 0 18 -4.5t7 -12.5q0 -6 -6 -17l-155 -252q-8 -13 -17 -18.5t-21 -5.5h-198z" glyph-name="Eacute" unicode="É" vert-adv-y="1980"/>
<glyph d="M114 0q-13 0 -20 8t-5 22l180 1280q1 13 10.5 21.5t23.5 8.5h860q13 0 20.5 -8t5.5 -22l-28 -198q-1 -13 -10.5 -21.5t-23.5 -8.5h-598l-40 -281h552q14 0 21.5 -8.5t4.5 -21.5l-27 -198q-2 -14 -11.5 -22t-22.5 -8h-552l-41 -285h599q14 0 21.5 -8.5t5.5 -21.5l-28 -198 q-2 -14 -11.5 -22t-23.5 -8h-862zM654 1541q-12 0 -19.5 3t-14.5 13l-186 267q-6 9 -6 16q0 9 8 14.5t21 5.5h223q22 0 34 -16l108 -151l152 151q16 16 38 16h225q24 0 24 -15q0 -10 -11 -21l-262 -267q-11 -10 -19 -13t-19 -3h-296z" glyph-name="Ecaron" unicode="Ě" vert-adv-y="1980"/>
<glyph d="M114 0q-13 0 -20 8t-5 22l180 1280q1 13 10.5 21.5t23.5 8.5h860q13 0 20.5 -8t5.5 -22l-28 -198q-1 -13 -10.5 -21.5t-23.5 -8.5h-598l-40 -281h552q14 0 21.5 -8.5t4.5 -21.5l-27 -198q-2 -14 -11.5 -22t-22.5 -8h-552l-41 -285h599q14 0 21.5 -8.5t5.5 -21.5l-28 -198 q-2 -14 -11.5 -22t-23.5 -8h-862zM446 1541q-24 0 -24 15q0 10 11 21l263 267q10 10 18 13t20 3h295q12 0 19.5 -3t14.5 -13l186 -267q6 -9 6 -16q0 -9 -8 -14.5t-21 -5.5h-223q-22 0 -34 16l-107 151l-152 -151q-16 -16 -38 -16h-226z" glyph-name="Ecircumflex" unicode="Ê" vert-adv-y="1980"/>
<glyph d="M114 0q-13 0 -20 8t-5 22l180 1280q1 13 10.5 21.5t23.5 8.5h860q13 0 20.5 -8t5.5 -22l-28 -198q-1 -13 -10.5 -21.5t-23.5 -8.5h-598l-40 -281h552q14 0 21.5 -8.5t4.5 -21.5l-27 -198q-2 -14 -11.5 -22t-22.5 -8h-552l-41 -285h599q14 0 21.5 -8.5t5.5 -21.5l-28 -198 q-2 -14 -11.5 -22t-23.5 -8h-862zM495.5 1595q-32.5 19 -51.5 51.5t-19 72.5q0 39 19 71t51.5 51t70.5 19t70.5 -19t51.5 -51t19 -71q0 -40 -19 -72.5t-51.5 -51.5t-70.5 -19t-70.5 19zM938.5 1595q-32.5 19 -51.5 51.5t-19 72.5q0 39 19 71t51.5 51t70.5 19t70.5 -19 t51.5 -51t19 -71q0 -40 -19 -72.5t-51.5 -51.5t-70.5 -19t-70.5 19z" glyph-name="Edieresis" unicode="Ë" vert-adv-y="1980"/>
<glyph d="M114 0q-13 0 -20 8t-5 22l180 1280q1 13 10.5 21.5t23.5 8.5h860q13 0 20.5 -8t5.5 -22l-28 -198q-1 -13 -10.5 -21.5t-23.5 -8.5h-598l-40 -281h552q14 0 21.5 -8.5t4.5 -21.5l-27 -198q-2 -14 -11.5 -22t-22.5 -8h-552l-41 -285h599q14 0 21.5 -8.5t5.5 -21.5l-28 -198 q-2 -14 -11.5 -22t-23.5 -8h-862zM718.5 1595q-32.5 19 -51.5 51.5t-19 72.5q0 39 19 71t51.5 51t70.5 19t70 -19t51 -51t19 -71q0 -40 -19 -72.5t-51 -51.5t-70 -19t-70.5 19z" glyph-name="Edotaccent" unicode="Ė" vert-adv-y="1980"/>
<glyph d="M114 0q-13 0 -20 8t-5 22l180 1280q1 13 10.5 21.5t23.5 8.5h860q13 0 20.5 -8t5.5 -22l-28 -198q-1 -13 -10.5 -21.5t-23.5 -8.5h-598l-40 -281h552q14 0 21.5 -8.5t4.5 -21.5l-27 -198q-2 -14 -11.5 -22t-22.5 -8h-552l-41 -285h599q14 0 21.5 -8.5t5.5 -21.5l-28 -198 q-2 -14 -11.5 -22t-23.5 -8h-862zM688 1550q-12 0 -21 5.5t-17 18.5l-156 252q-6 11 -6 17q0 8 7 12.5t18 4.5h198q12 0 21 -5.5t17 -18.5l155 -252q6 -10 6 -17q0 -8 -7 -12.5t-18 -4.5h-197z" glyph-name="Egrave" unicode="È" vert-adv-y="1980"/>
<glyph d="M114 0q-13 0 -20 8t-5 22l180 1280q1 13 10.5 21.5t23.5 8.5h860q13 0 20.5 -8t5.5 -22l-28 -198q-1 -13 -10.5 -21.5t-23.5 -8.5h-598l-40 -281h552q14 0 21.5 -8.5t4.5 -21.5l-27 -198q-2 -14 -11.5 -22t-22.5 -8h-552l-41 -285h599q14 0 21.5 -8.5t5.5 -21.5l-28 -198 q-2 -14 -11.5 -22t-23.5 -8h-862zM504 1642q-14 0 -20.5 8t-4.5 22l22 158q1 13 10.5 21.5t23.5 8.5h544q13 0 20.5 -8t5.5 -22l-22 -158q-2 -13 -11.5 -21.5t-23.5 -8.5h-544z" glyph-name="Emacron" unicode="Ē" vert-adv-y="1980"/>
<glyph d="M1163 1340q13 0 20.5 -8t5.5 -22l-28 -198q-1 -13 -10.5 -21.5t-23.5 -8.5h-598l-40 -281h552q14 0 21.5 -8.5t4.5 -21.5l-27 -198q-2 -14 -11.5 -22t-22.5 -8h-552l-41 -285h599q14 0 21.5 -8.5t5.5 -21.5l-28 -198q-2 -14 -11.5 -22t-23.5 -8q-75 0 -123 -30t-48 -82 q0 -42 30 -65.5t87 -23.5h42q20 0 17 -20l-18 -131q-3 -20 -23 -20h-71q-117 0 -194 47.5t-77 161.5q0 100 65 163h-549q-13 0 -20 8t-5 22l180 1280q1 13 10.5 21.5t23.5 8.5h860z" glyph-name="Eogonek" unicode="Ę" vert-adv-y="1980"/>
<glyph d="M115 0q-13 0 -20 8t-5 22l180 1280q1 13 10.5 21.5t23.5 8.5h860q13 0 20.5 -8t5.5 -22l-28 -198q-1 -13 -10.5 -21.5t-23.5 -8.5h-598l-53 -375h551q14 0 21.5 -8.5t4.5 -21.5l-27 -198q-2 -14 -11.5 -22t-22.5 -8h-552l-59 -419q-2 -14 -11.5 -22t-23.5 -8h-232z" glyph-name="F" unicode="F" vert-adv-y="1980"/>
<glyph d="M1167 711q7 -8 5 -21l-82 -563q-4 -28 -14.5 -44t-34.5 -29q-61 -33 -149.5 -58.5t-195.5 -25.5q-166 0 -294.5 71t-200 203.5t-71.5 310.5q0 182 71.5 368.5t220 311.5t366.5 125q159 0 261 -72.5t102 -224.5q0 -75 -28 -169q-7 -26 -36 -26h-204q-26 0 -26 23l2 12 q12 42 12 72q0 57 -35.5 81t-91.5 24q-115 0 -188.5 -84t-106.5 -203t-33 -228q0 -151 71.5 -244.5t233.5 -93.5q66 0 136 16l35 252h-227q-13 0 -20 8t-5 22l24 164q2 14 11 22t22 8h449q14 0 21 -8z" glyph-name="G" unicode="G" vert-adv-y="1980"/>
<glyph d="M1167 711q7 -8 5 -21l-82 -563q-4 -28 -14.5 -44t-34.5 -29q-61 -33 -149.5 -58.5t-195.5 -25.5q-166 0 -294.5 71t-200 203.5t-71.5 310.5q0 182 71.5 368.5t220 311.5t366.5 125q159 0 261 -72.5t102 -224.5q0 -75 -28 -169q-7 -26 -36 -26h-204q-26 0 -26 23l2 12 q12 42 12 72q0 57 -35.5 81t-91.5 24q-115 0 -188.5 -84t-106.5 -203t-33 -228q0 -151 71.5 -244.5t233.5 -93.5q66 0 136 16l35 252h-227q-13 0 -20 8t-5 22l24 164q2 14 11 22t22 8h449q14 0 21 -8zM599 1575q-69 39 -103 105.5t-31 147.5q1 15 10 23.5t25 8.5h119 q25 0 28 -30q2 -29 18.5 -56t47.5 -43.5t74 -16.5q63 0 105 34t61 82q10 30 36 30h125q26 0 26 -21q0 -7 -1 -11q-19 -82 -69 -148t-127.5 -105t-175.5 -39q-99 0 -168 39z" glyph-name="Gbreve" unicode="Ğ" vert-adv-y="1980"/>
<glyph d="M1167 711q7 -8 5 -21l-82 -563q-4 -28 -14.5 -44t-34.5 -29q-61 -33 -149.5 -58.5t-195.5 -25.5q-166 0 -294.5 71t-200 203.5t-71.5 310.5q0 182 71.5 368.5t220 311.5t366.5 125q159 0 261 -72.5t102 -224.5q0 -75 -28 -169q-7 -26 -36 -26h-204q-26 0 -26 23l2 12 q12 42 12 72q0 57 -35.5 81t-91.5 24q-115 0 -188.5 -84t-106.5 -203t-33 -228q0 -151 71.5 -244.5t233.5 -93.5q66 0 136 16l35 252h-227q-13 0 -20 8t-5 22l24 164q2 14 11 22t22 8h449q14 0 21 -8zM727 -180q12 0 18.5 -7.5t5.5 -19.5l-14 -91q-18 -129 -44 -241.5 t-55 -183.5q-8 -20 -36 -20h-142q-12 0 -17.5 4.5t-5.5 13.5q0 7 1 11q40 161 61 323h-236q-12 0 -18.5 7.5t-4.5 19.5l23 157q1 12 9.5 19.5t20.5 7.5h434z" glyph-name="uni0122" unicode="Ģ" vert-adv-y="1980"/>
<glyph d="M1167 711q7 -8 5 -21l-82 -563q-4 -28 -14.5 -44t-34.5 -29q-61 -33 -149.5 -58.5t-195.5 -25.5q-166 0 -294.5 71t-200 203.5t-71.5 310.5q0 182 71.5 368.5t220 311.5t366.5 125q159 0 261 -72.5t102 -224.5q0 -75 -28 -169q-7 -26 -36 -26h-204q-26 0 -26 23l2 12 q12 42 12 72q0 57 -35.5 81t-91.5 24q-115 0 -188.5 -84t-106.5 -203t-33 -228q0 -151 71.5 -244.5t233.5 -93.5q66 0 136 16l35 252h-227q-13 0 -20 8t-5 22l24 164q2 14 11 22t22 8h449q14 0 21 -8zM718.5 1595q-32.5 19 -51.5 51.5t-19 72.5q0 39 19 71t51.5 51t70.5 19 t70 -19t51 -51t19 -71q0 -40 -19 -72.5t-51 -51.5t-70 -19t-70.5 19z" glyph-name="Gdotaccent" unicode="Ġ" vert-adv-y="1980"/>
<glyph d="M1186 1340q14 0 21 -8.5t5 -21.5l-180 -1280q-2 -14 -11.5 -22t-23.5 -8h-232q-13 0 -20 8t-5 22l70 498h-380l-70 -498q-2 -13 -11.5 -21.5t-23.5 -8.5h-232q-13 0 -20 8.5t-5 21.5l180 1280q2 14 11.5 22t22.5 8h232q14 0 21 -8.5t5 -21.5l-74 -524h380l74 524 q2 14 11.5 22t22.5 8h232z" glyph-name="H" unicode="H" vert-adv-y="1980"/>
<glyph d="M1186 1340q14 0 21 -8.5t5 -21.5l-180 -1280q-2 -14 -11.5 -22t-23.5 -8h-232q-13 0 -20 8t-5 22l70 498h-380l-70 -498q-2 -13 -11.5 -21.5t-23.5 -8.5h-232q-13 0 -20 8.5t-5 21.5l180 1280q2 14 11.5 22t22.5 8h232q14 0 21 -8.5t5 -21.5l-19 -137h380l19 137 q2 14 11.5 22t22.5 8h232zM488 938l-22 -152h380l22 152h-380z" glyph-name="Hbar" unicode="Ħ" vert-adv-y="1980"/>
<glyph d="M97 0q-13 0 -23 12t-8 26l27 199q2 13 7.5 17t19.5 4h315l116 824h-303q-13 0 -23 12t-8 26l29 198q1 13 6.5 17.5t19.5 4.5h911q14 0 23.5 -12.5t6.5 -25.5l-27 -199q-1 -13 -7 -17t-20 -4h-315l-116 -824h303q13 0 23 -12t8 -26l-27 -198q-3 -13 -8 -17.5t-19 -4.5 h-911z" glyph-name="I" unicode="I" vert-adv-y="1980"/>
<glyph d="M174 1372q3 28 32 28h232q31 0 28 -32l-188 -1340q-3 -28 -32 -28h-232q-31 0 -28 32zM590 1142q-31 0 -28 32l27 198q3 28 32 28h655q31 0 28 -32l-115 -818q-28 -200 -110.5 -326.5t-200 -184t-259.5 -57.5q-66 0 -124.5 18t-101.5 50q-17 12 -17 30q0 8 5 16l90 154 q9 16 29 16q4 0 12 -2q45 -15 100 -15q106 0 184.5 76.5t102.5 241.5l81 575h-390z" glyph-name="IJ" unicode="Ĳ" vert-adv-y="1980"/>
<glyph d="M97 0q-13 0 -23 12t-8 26l27 199q2 13 7.5 17t19.5 4h315l116 824h-303q-13 0 -23 12t-8 26l29 198q1 13 6.5 17.5t19.5 4.5h911q14 0 23.5 -12.5t6.5 -25.5l-27 -199q-1 -13 -7 -17t-20 -4h-315l-116 -824h303q13 0 23 -12t8 -26l-27 -198q-3 -13 -8 -17.5t-19 -4.5 h-911zM662 1550q-11 0 -18 4.5t-7 12.5q0 7 6 17l156 252q8 13 17 18.5t21 5.5h197q11 0 18 -4.5t7 -12.5q0 -6 -6 -17l-155 -252q-8 -13 -17 -18.5t-21 -5.5h-198z" glyph-name="Iacute" unicode="Í" vert-adv-y="1980"/>
<glyph d="M97 0q-13 0 -23 12t-8 26l27 199q2 13 7.5 17t19.5 4h315l116 824h-303q-13 0 -23 12t-8 26l29 198q1 13 6.5 17.5t19.5 4.5h911q14 0 23.5 -12.5t6.5 -25.5l-27 -199q-1 -13 -7 -17t-20 -4h-315l-116 -824h303q13 0 23 -12t8 -26l-27 -198q-3 -13 -8 -17.5t-19 -4.5 h-911zM654 1541q-12 0 -19.5 3t-14.5 13l-186 267q-6 9 -6 16q0 9 8 14.5t21 5.5h223q22 0 34 -16l108 -151l152 151q16 16 38 16h225q24 0 24 -15q0 -10 -11 -21l-262 -267q-11 -10 -19 -13t-19 -3h-296z" glyph-name="uni01CF" unicode="Ǐ" vert-adv-y="1980"/>
<glyph d="M97 0q-13 0 -23 12t-8 26l27 199q2 13 7.5 17t19.5 4h315l116 824h-303q-13 0 -23 12t-8 26l29 198q1 13 6.5 17.5t19.5 4.5h911q14 0 23.5 -12.5t6.5 -25.5l-27 -199q-1 -13 -7 -17t-20 -4h-315l-116 -824h303q13 0 23 -12t8 -26l-27 -198q-3 -13 -8 -17.5t-19 -4.5 h-911zM446 1541q-24 0 -24 15q0 10 11 21l263 267q10 10 18 13t20 3h295q12 0 19.5 -3t14.5 -13l186 -267q6 -9 6 -16q0 -9 -8 -14.5t-21 -5.5h-223q-22 0 -34 16l-107 151l-152 -151q-16 -16 -38 -16h-226z" glyph-name="Icircumflex" unicode="Î" vert-adv-y="1980"/>
<glyph d="M97 0q-13 0 -23 12t-8 26l27 199q2 13 7.5 17t19.5 4h315l116 824h-303q-13 0 -23 12t-8 26l29 198q1 13 6.5 17.5t19.5 4.5h911q14 0 23.5 -12.5t6.5 -25.5l-27 -199q-1 -13 -7 -17t-20 -4h-315l-116 -824h303q13 0 23 -12t8 -26l-27 -198q-3 -13 -8 -17.5t-19 -4.5 h-911zM495.5 1595q-32.5 19 -51.5 51.5t-19 72.5q0 39 19 71t51.5 51t70.5 19t70.5 -19t51.5 -51t19 -71q0 -40 -19 -72.5t-51.5 -51.5t-70.5 -19t-70.5 19zM938.5 1595q-32.5 19 -51.5 51.5t-19 72.5q0 39 19 71t51.5 51t70.5 19t70.5 -19t51.5 -51t19 -71q0 -40 -19 -72.5 t-51.5 -51.5t-70.5 -19t-70.5 19z" glyph-name="Idieresis" unicode="Ï" vert-adv-y="1980"/>
<glyph d="M97 0q-13 0 -23 12t-8 26l27 199q2 13 7.5 17t19.5 4h315l116 824h-303q-13 0 -23 12t-8 26l29 198q1 13 6.5 17.5t19.5 4.5h911q14 0 23.5 -12.5t6.5 -25.5l-27 -199q-1 -13 -7 -17t-20 -4h-315l-116 -824h303q13 0 23 -12t8 -26l-27 -198q-3 -13 -8 -17.5t-19 -4.5 h-911zM718.5 1595q-32.5 19 -51.5 51.5t-19 72.5q0 39 19 71t51.5 51t70.5 19t70 -19t51 -51t19 -71q0 -40 -19 -72.5t-51 -51.5t-70 -19t-70.5 19z" glyph-name="Idotaccent" unicode="İ" vert-adv-y="1980"/>
<glyph d="M97 0q-13 0 -23 12t-8 26l27 199q2 13 7.5 17t19.5 4h315l116 824h-303q-13 0 -23 12t-8 26l29 198q1 13 6.5 17.5t19.5 4.5h911q14 0 23.5 -12.5t6.5 -25.5l-27 -199q-1 -13 -7 -17t-20 -4h-315l-116 -824h303q13 0 23 -12t8 -26l-27 -198q-3 -13 -8 -17.5t-19 -4.5 h-911zM688 1550q-12 0 -21 5.5t-17 18.5l-156 252q-6 11 -6 17q0 8 7 12.5t18 4.5h198q12 0 21 -5.5t17 -18.5l155 -252q6 -10 6 -17q0 -8 -7 -12.5t-18 -4.5h-197z" glyph-name="Igrave" unicode="Ì" vert-adv-y="1980"/>
<glyph d="M97 0q-13 0 -23 12t-8 26l27 199q2 13 7.5 17t19.5 4h315l116 824h-303q-13 0 -23 12t-8 26l29 198q1 13 6.5 17.5t19.5 4.5h911q14 0 23.5 -12.5t6.5 -25.5l-27 -199q-1 -13 -7 -17t-20 -4h-315l-116 -824h303q13 0 23 -12t8 -26l-27 -198q-3 -13 -8 -17.5t-19 -4.5 h-911zM504 1642q-14 0 -20.5 8t-4.5 22l22 158q1 13 10.5 21.5t23.5 8.5h544q13 0 20.5 -8t5.5 -22l-22 -158q-2 -13 -11.5 -21.5t-23.5 -8.5h-544z" glyph-name="Imacron" unicode="Ī" vert-adv-y="1980"/>
<glyph d="M1183 1340q14 0 23.5 -12.5t6.5 -25.5l-27 -199q-1 -13 -7 -17t-20 -4h-315l-116 -824h303q13 0 23 -12t8 -26l-27 -198q-3 -13 -8 -17.5t-19 -4.5q-75 0 -123 -30t-48 -82q0 -42 30 -65.5t87 -23.5h42q20 0 17 -20l-18 -131q-3 -20 -23 -20h-71q-117 0 -194 47.5 t-77 161.5q0 100 65 163h-598q-13 0 -23 12t-8 26l27 199q2 13 7.5 17t19.5 4h315l116 824h-303q-13 0 -23 12t-8 26l29 198q1 13 6.5 17.5t19.5 4.5h911z" glyph-name="Iogonek" unicode="Į" vert-adv-y="1980"/>
<glyph d="M1196 801q15 0 22.5 -8t5.5 -24l-31 -200q-4 -28 -34 -28q-44 0 -120 -2q-40 -219 -113 -362t-191.5 -215t-290.5 -72q-207 0 -309.5 96t-102.5 260q0 205 166.5 359.5t588.5 187.5l39 289h-524q-13 0 -20.5 8t-5.5 22l27 198q1 13 10.5 21.5t23.5 8.5h780q15 0 22.5 -8 t5.5 -24l-69 -507h120zM649 256.5q63 89.5 97 260.5q-414 -56 -414 -237q0 -56 37.5 -84.5t101.5 -28.5q115 0 178 89.5z" glyph-name="J" unicode="J" vert-adv-y="1980"/>
<glyph d="M1246 1340q22 0 22 -14q0 -9 -11 -22l-523 -573l381 -695q4 -7 4 -15q0 -10 -7 -15.5t-20 -5.5h-254q-12 0 -19.5 4t-13.5 14l-271 493l-162 -178l-43 -303q-2 -14 -11.5 -22t-22.5 -8h-232q-14 0 -21 8.5t-6 21.5l181 1280q2 14 11.5 22t22.5 8h232q14 0 21 -8.5 t5 -21.5l-80 -567l501 581q15 16 38 16h278z" glyph-name="K" unicode="K" vert-adv-y="1980"/>
<glyph d="M1246 1340q22 0 22 -14q0 -9 -11 -22l-523 -573l381 -695q4 -7 4 -15q0 -10 -7 -15.5t-20 -5.5h-254q-12 0 -19.5 4t-13.5 14l-271 493l-162 -178l-43 -303q-2 -14 -11.5 -22t-22.5 -8h-232q-14 0 -21 8.5t-6 21.5l181 1280q2 14 11.5 22t22.5 8h232q14 0 21 -8.5 t5 -21.5l-80 -567l501 581q15 16 38 16h278zM728 -180q12 0 18.5 -7.5t5.5 -19.5l-14 -91q-18 -129 -44 -241.5t-55 -183.5q-8 -20 -36 -20h-142q-12 0 -17.5 4.5t-5.5 13.5q0 7 1 11q40 161 61 323h-236q-12 0 -18.5 7.5t-4.5 19.5l23 157q1 12 9.5 19.5t20.5 7.5h434z" glyph-name="uni0136" unicode="Ķ" vert-adv-y="1980"/>
<glyph d="M1028 258q14 0 21 -8.5t5 -21.5l-29 -198q-2 -14 -11.5 -22t-22.5 -8h-831q-14 0 -21 8.5t-5 21.5l180 1280q2 14 11.5 22t22.5 8h232q14 0 21 -8.5t5 -21.5l-148 -1052h570z" glyph-name="L" unicode="L" vert-adv-y="1980"/>
<glyph d="M1028 258q14 0 21 -8.5t5 -21.5l-29 -198q-2 -14 -11.5 -22t-22.5 -8h-831q-14 0 -21 8.5t-5 21.5l180 1280q2 14 11.5 22t22.5 8h232q14 0 21 -8.5t5 -21.5l-148 -1052h570zM451 1523q-11 0 -18 4.5t-7 12.5q0 7 6 17l156 252q8 13 17 18.5t21 5.5h197q11 0 18 -4.5 t7 -12.5q0 -6 -6 -17l-155 -252q-8 -13 -17 -18.5t-21 -5.5h-198z" glyph-name="Lacute" unicode="Ĺ" vert-adv-y="1980"/>
<glyph d="M1028 258q14 0 21 -8.5t5 -21.5l-29 -198q-2 -14 -11.5 -22t-22.5 -8h-831q-14 0 -21 8.5t-5 21.5l180 1280q2 14 11.5 22t22.5 8h232q14 0 21 -8.5t5 -21.5l-148 -1052h570zM1196 1340q13 0 20.5 -8t5.5 -22l-15 -101q-20 -144 -49.5 -268.5t-61.5 -202.5 q-8 -22 -39 -22h-157q-26 0 -26 20l2 12q48 205 67 358h-261q-13 0 -20.5 8t-5.5 22l25 174q1 13 10.5 21.5t23.5 8.5h481z" glyph-name="Lcaron" unicode="Ľ" vert-adv-y="1980"/>
<glyph d="M1028 258q14 0 21 -8.5t5 -21.5l-29 -198q-2 -14 -11.5 -22t-22.5 -8h-831q-14 0 -21 8.5t-5 21.5l180 1280q2 14 11.5 22t22.5 8h232q14 0 21 -8.5t5 -21.5l-148 -1052h570zM728 -180q12 0 18.5 -7.5t5.5 -19.5l-14 -91q-18 -129 -44 -241.5t-55 -183.5q-8 -20 -36 -20 h-142q-12 0 -17.5 4.5t-5.5 13.5q0 7 1 11q40 161 61 323h-236q-12 0 -18.5 7.5t-4.5 19.5l23 157q1 12 9.5 19.5t20.5 7.5h434z" glyph-name="uni013B" unicode="Ļ" vert-adv-y="1980"/>
<glyph d="M1028 258q14 0 21 -8.5t5 -21.5l-29 -198q-2 -14 -11.5 -22t-22.5 -8h-831q-14 0 -21 8.5t-5 21.5l180 1280q2 14 11.5 22t22.5 8h232q14 0 21 -8.5t5 -21.5l-148 -1052h570zM769 599.5q-47 27.5 -75 75t-28 103.5t28 103t75 74.5t103 27.5q55 0 102 -27.5t75 -74.5 t28 -103t-28 -103.5t-75 -75t-102 -27.5q-56 0 -103 27.5z" glyph-name="Ldot" unicode="Ŀ" vert-adv-y="1980"/>
<glyph d="M1022 258q29 0 28 -32l-28 -198q-3 -28 -32 -28h-862q-31 0 -28 32l49 351l-54 -53q-11 -11 -20 -11q-8 0 -12 7t-4 20v186q0 22 16 38l116 114l97 688q3 28 32 28h232q31 0 28 -32l-49 -352l122 120q11 11 20 11q8 0 12 -7t4 -20v-184q0 -22 -16 -38l-185 -181l-64 -459 h598z" glyph-name="Lslash" unicode="Ł" vert-adv-y="1980"/>
<glyph d="M79 0q-14 0 -21 8.5t-5 21.5l180 1280q2 14 11.5 22t22.5 8h231q13 0 23 -5t11 -15l68 -888h14l318 888q4 10 14.5 15t23.5 5h231q14 0 21 -8.5t5 -21.5l-180 -1280q-2 -14 -11.5 -22t-22.5 -8h-177q-14 0 -21 8.5t-5 21.5l102 721h-14l-235 -627q-4 -11 -15.5 -17.5 t-24.5 -6.5h-126q-13 0 -22 6t-10 18l-59 627h-15l-101 -721q-2 -14 -11.5 -22t-22.5 -8h-177z" glyph-name="M" unicode="M" vert-adv-y="1980"/>
<glyph d="M1176 1340q14 0 21 -8.5t5 -21.5l-181 -1280q-1 -13 -10 -21.5t-23 -8.5h-255q-14 0 -23.5 5t-9.5 15q0 101 -26 206.5t-64 201t-102 240.5q-11 26 -26.5 60t-33.5 77l-109 -775q-1 -13 -10.5 -21.5t-23.5 -8.5h-200q-13 0 -20.5 8t-6.5 22l181 1280q2 14 11.5 22t22.5 8 h254q14 0 24 -5t10 -15q0 -100 26 -206t64.5 -203.5t102.5 -243.5l58 -134l109 777q2 14 11.5 22t22.5 8h201z" glyph-name="N" unicode="N" vert-adv-y="1980"/>
<glyph d="M1176 1340q14 0 21 -8.5t5 -21.5l-181 -1280q-1 -13 -10 -21.5t-23 -8.5h-255q-14 0 -23.5 5t-9.5 15q0 101 -26 206.5t-64 201t-102 240.5q-11 26 -26.5 60t-33.5 77l-109 -775q-1 -13 -10.5 -21.5t-23.5 -8.5h-200q-13 0 -20.5 8t-6.5 22l181 1280q2 14 11.5 22t22.5 8 h254q14 0 24 -5t10 -15q0 -100 26 -206t64.5 -203.5t102.5 -243.5l58 -134l109 777q2 14 11.5 22t22.5 8h201zM662 1550q-11 0 -18 4.5t-7 12.5q0 7 6 17l156 252q8 13 17 18.5t21 5.5h197q11 0 18 -4.5t7 -12.5q0 -6 -6 -17l-155 -252q-8 -13 -17 -18.5t-21 -5.5h-198z" glyph-name="Nacute" unicode="Ń" vert-adv-y="1980"/>
<glyph d="M1176 1340q14 0 21 -8.5t5 -21.5l-181 -1280q-1 -13 -10 -21.5t-23 -8.5h-255q-14 0 -23.5 5t-9.5 15q0 101 -26 206.5t-64 201t-102 240.5q-11 26 -26.5 60t-33.5 77l-109 -775q-1 -13 -10.5 -21.5t-23.5 -8.5h-200q-13 0 -20.5 8t-6.5 22l181 1280q2 14 11.5 22t22.5 8 h254q14 0 24 -5t10 -15q0 -100 26 -206t64.5 -203.5t102.5 -243.5l58 -134l109 777q2 14 11.5 22t22.5 8h201zM654 1541q-12 0 -19.5 3t-14.5 13l-186 267q-6 9 -6 16q0 9 8 14.5t21 5.5h223q22 0 34 -16l108 -151l152 151q16 16 38 16h225q24 0 24 -15q0 -10 -11 -21 l-262 -267q-11 -10 -19 -13t-19 -3h-296z" glyph-name="Ncaron" unicode="Ň" vert-adv-y="1980"/>
<glyph d="M1176 1340q14 0 21 -8.5t5 -21.5l-181 -1280q-1 -13 -10 -21.5t-23 -8.5h-255q-14 0 -23.5 5t-9.5 15q0 101 -26 206.5t-64 201t-102 240.5q-11 26 -26.5 60t-33.5 77l-109 -775q-1 -13 -10.5 -21.5t-23.5 -8.5h-200q-13 0 -20.5 8t-6.5 22l181 1280q2 14 11.5 22t22.5 8 h254q14 0 24 -5t10 -15q0 -100 26 -206t64.5 -203.5t102.5 -243.5l58 -134l109 777q2 14 11.5 22t22.5 8h201zM728 -180q12 0 18.5 -7.5t5.5 -19.5l-14 -91q-18 -129 -44 -241.5t-55 -183.5q-8 -20 -36 -20h-142q-12 0 -17.5 4.5t-5.5 13.5q0 7 1 11q40 161 61 323h-236 q-12 0 -18.5 7.5t-4.5 19.5l23 157q1 12 9.5 19.5t20.5 7.5h434z" glyph-name="uni0145" unicode="Ņ" vert-adv-y="1980"/>
<glyph d="M1176 1340q14 0 21 -8.5t5 -21.5l-186 -1318q-22 -156 -95 -245t-196.5 -125.5t-309.5 -36.5l23 263q289 0 319 152h-24q-14 0 -23.5 5t-9.5 15q0 101 -26 206.5t-64 201t-102 240.5q-11 26 -26.5 60t-33.5 77l-109 -775q-1 -13 -10.5 -21.5t-23.5 -8.5h-200 q-13 0 -20.5 8t-6.5 22l181 1280q2 14 11.5 22t22.5 8h254q14 0 24 -5t10 -15q0 -100 26 -206t64.5 -203.5t102.5 -243.5l58 -134l109 777q2 14 11.5 22t22.5 8h201z" glyph-name="Eng" unicode="Ŋ" vert-adv-y="1980"/>
<glyph d="M1176 1340q14 0 21 -8.5t5 -21.5l-181 -1280q-1 -13 -10 -21.5t-23 -8.5h-255q-14 0 -23.5 5t-9.5 15q0 101 -26 206.5t-64 201t-102 240.5q-11 26 -26.5 60t-33.5 77l-109 -775q-1 -13 -10.5 -21.5t-23.5 -8.5h-200q-13 0 -20.5 8t-6.5 22l181 1280q2 14 11.5 22t22.5 8 h254q14 0 24 -5t10 -15q0 -100 26 -206t64.5 -203.5t102.5 -243.5l58 -134l109 777q2 14 11.5 22t22.5 8h201zM823.5 1570q-38.5 20 -85.5 59q-38 31 -66 46.5t-63 15.5q-36 0 -61.5 -16t-38.5 -40q-8 -16 -24 -16h-65q-8 0 -12.5 5t-4.5 13q0 6 1 9q27 101 93 152.5 t155 51.5q57 0 95.5 -20t86.5 -58q39 -32 66 -47t62 -15q36 0 61.5 16t38.5 39q8 16 24 16h66q9 0 13.5 -5.5t3.5 -14.5q-9 -69 -45.5 -116.5t-90.5 -71t-114 -23.5q-57 0 -95.5 20z" glyph-name="Ntilde" unicode="Ñ" vert-adv-y="1980"/>
<glyph d="M225.5 102q-104.5 132 -104.5 366q0 87 16 197q47 326 190.5 510.5t403.5 184.5q217 0 321.5 -132t104.5 -367q0 -92 -15 -196q-49 -326 -193 -510.5t-403 -184.5q-216 0 -320.5 132zM757.5 358q71.5 108 101.5 307q12 78 12 143q0 131 -45 201.5t-129 70.5 q-105 0 -176.5 -108t-101.5 -307q-12 -78 -12 -143q0 -131 45 -201.5t129 -70.5q105 0 176.5 108z" glyph-name="O" unicode="O" vert-adv-y="1980"/>
<glyph d="M225.5 102q-104.5 132 -104.5 366q0 87 16 197q47 326 190.5 510.5t403.5 184.5q217 0 321.5 -132t104.5 -367q0 -92 -15 -196q-49 -326 -193 -510.5t-403 -184.5q-216 0 -320.5 132zM757.5 358q71.5 108 101.5 307q12 78 12 143q0 131 -45 201.5t-129 70.5 q-105 0 -176.5 -108t-101.5 -307q-12 -78 -12 -143q0 -131 45 -201.5t129 -70.5q105 0 176.5 108zM662 1550q-11 0 -18 4.5t-7 12.5q0 7 6 17l156 252q8 13 17 18.5t21 5.5h197q11 0 18 -4.5t7 -12.5q0 -6 -6 -17l-155 -252q-8 -13 -17 -18.5t-21 -5.5h-198z" glyph-name="Oacute" unicode="Ó" vert-adv-y="1980"/>
<glyph d="M225.5 102q-104.5 132 -104.5 366q0 87 16 197q47 326 190.5 510.5t403.5 184.5q217 0 321.5 -132t104.5 -367q0 -92 -15 -196q-49 -326 -193 -510.5t-403 -184.5q-216 0 -320.5 132zM757.5 358q71.5 108 101.5 307q12 78 12 143q0 131 -45 201.5t-129 70.5 q-105 0 -176.5 -108t-101.5 -307q-12 -78 -12 -143q0 -131 45 -201.5t129 -70.5q105 0 176.5 108zM654 1541q-12 0 -19.5 3t-14.5 13l-186 267q-6 9 -6 16q0 9 8 14.5t21 5.5h223q22 0 34 -16l108 -151l152 151q16 16 38 16h225q24 0 24 -15q0 -10 -11 -21l-262 -267 q-11 -10 -19 -13t-19 -3h-296z" glyph-name="uni01D1" unicode="Ǒ" vert-adv-y="1980"/>
<glyph d="M225.5 102q-104.5 132 -104.5 366q0 87 16 197q47 326 190.5 510.5t403.5 184.5q217 0 321.5 -132t104.5 -367q0 -92 -15 -196q-49 -326 -193 -510.5t-403 -184.5q-216 0 -320.5 132zM757.5 358q71.5 108 101.5 307q12 78 12 143q0 131 -45 201.5t-129 70.5 q-105 0 -176.5 -108t-101.5 -307q-12 -78 -12 -143q0 -131 45 -201.5t129 -70.5q105 0 176.5 108zM446 1541q-24 0 -24 15q0 10 11 21l263 267q10 10 18 13t20 3h295q12 0 19.5 -3t14.5 -13l186 -267q6 -9 6 -16q0 -9 -8 -14.5t-21 -5.5h-223q-22 0 -34 16l-107 151 l-152 -151q-16 -16 -38 -16h-226z" glyph-name="Ocircumflex" unicode="Ô" vert-adv-y="1980"/>
<glyph d="M225.5 102q-104.5 132 -104.5 366q0 87 16 197q47 326 190.5 510.5t403.5 184.5q217 0 321.5 -132t104.5 -367q0 -92 -15 -196q-49 -326 -193 -510.5t-403 -184.5q-216 0 -320.5 132zM757.5 358q71.5 108 101.5 307q12 78 12 143q0 131 -45 201.5t-129 70.5 q-105 0 -176.5 -108t-101.5 -307q-12 -78 -12 -143q0 -131 45 -201.5t129 -70.5q105 0 176.5 108zM495.5 1595q-32.5 19 -51.5 51.5t-19 72.5q0 39 19 71t51.5 51t70.5 19t70.5 -19t51.5 -51t19 -71q0 -40 -19 -72.5t-51.5 -51.5t-70.5 -19t-70.5 19zM938.5 1595 q-32.5 19 -51.5 51.5t-19 72.5q0 39 19 71t51.5 51t70.5 19t70.5 -19t51.5 -51t19 -71q0 -40 -19 -72.5t-51.5 -51.5t-70.5 -19t-70.5 19z" glyph-name="Odieresis" unicode="Ö" vert-adv-y="1980"/>
<glyph d="M225.5 102q-104.5 132 -104.5 366q0 87 16 197q47 326 190.5 510.5t403.5 184.5q217 0 321.5 -132t104.5 -367q0 -92 -15 -196q-49 -326 -193 -510.5t-403 -184.5q-216 0 -320.5 132zM757.5 358q71.5 108 101.5 307q12 78 12 143q0 131 -45 201.5t-129 70.5 q-105 0 -176.5 -108t-101.5 -307q-12 -78 -12 -143q0 -131 45 -201.5t129 -70.5q105 0 176.5 108zM689 1550q-12 0 -21 5.5t-17 18.5l-156 252q-6 11 -6 17q0 8 7 12.5t18 4.5h198q12 0 21 -5.5t17 -18.5l155 -252q6 -10 6 -17q0 -8 -7 -12.5t-18 -4.5h-197z" glyph-name="Ograve" unicode="Ò" vert-adv-y="1980"/>
<glyph d="M225.5 102q-104.5 132 -104.5 366q0 87 16 197q47 326 190.5 510.5t403.5 184.5q217 0 321.5 -132t104.5 -367q0 -92 -15 -196q-49 -326 -193 -510.5t-403 -184.5q-216 0 -320.5 132zM757.5 358q71.5 108 101.5 307q12 78 12 143q0 131 -45 201.5t-129 70.5 q-105 0 -176.5 -108t-101.5 -307q-12 -78 -12 -143q0 -131 45 -201.5t129 -70.5q105 0 176.5 108zM845 1550q-11 0 -18 4.5t-7 12.5q0 7 6 17l156 252q8 13 17 18.5t21 5.5h197q11 0 18 -4.5t7 -12.5q0 -6 -6 -17l-155 -252q-8 -13 -17 -18.5t-21 -5.5h-198zM467 1550 q-11 0 -18 4.5t-7 12.5q0 7 6 17l156 252q8 13 17 18.5t21 5.5h197q11 0 18 -4.5t7 -12.5q0 -6 -6 -17l-155 -252q-8 -13 -17 -18.5t-21 -5.5h-198z" glyph-name="Ohungarumlaut" unicode="Ő" vert-adv-y="1980"/>
<glyph d="M225.5 102q-104.5 132 -104.5 366q0 87 16 197q47 326 190.5 510.5t403.5 184.5q217 0 321.5 -132t104.5 -367q0 -92 -15 -196q-49 -326 -193 -510.5t-403 -184.5q-216 0 -320.5 132zM757.5 358q71.5 108 101.5 307q12 78 12 143q0 131 -45 201.5t-129 70.5 q-105 0 -176.5 -108t-101.5 -307q-12 -78 -12 -143q0 -131 45 -201.5t129 -70.5q105 0 176.5 108zM504 1642q-14 0 -20.5 8t-4.5 22l22 158q1 13 10.5 21.5t23.5 8.5h544q13 0 20.5 -8t5.5 -22l-22 -158q-2 -13 -11.5 -21.5t-23.5 -8.5h-544z" glyph-name="Omacron" unicode="Ō" vert-adv-y="1980"/>
<glyph d="M1052.5 1228q104.5 -132 104.5 -367q0 -92 -15 -196q-38 -254 -134 -424t-259 -235l-1 -8q-16 0 -23 -1q-34 -11 -84 -20q-30 -14 -47 -37t-17 -54q0 -41 30 -65t87 -24h42q20 0 17 -20l-18 -131q-3 -20 -23 -20h-71q-117 0 -194 47.5t-77 162.5q0 87 51 148 q-153 36 -226 161t-73 323q0 92 15 197q47 326 190.5 510.5t403.5 184.5q217 0 321.5 -132zM871 808q0 131 -45 201.5t-129 70.5q-105 0 -176.5 -108t-101.5 -307q-12 -78 -12 -143q0 -131 45 -201.5t129 -70.5q105 0 176.5 108t101.5 307q12 78 12 143z" glyph-name="uni01EA" unicode="Ǫ" vert-adv-y="1980"/>
<glyph d="M1228 1460q24 0 24 -17q0 -9 -7 -19l-161 -241q73 -123 73 -323q0 -91 -15 -195q-49 -326 -193 -510.5t-403 -184.5q-138 0 -231 55l-89 -133q-14 -22 -38 -22h-136q-24 0 -24 17q0 9 7 19l160 240q-74 122 -74 321q0 86 16 198q47 326 190.5 510.5t403.5 184.5 q140 0 234 -57l90 135q14 22 37 22h136zM408 524q0 -38 2 -55l384 577q-40 34 -97 34q-105 0 -176.5 -108t-101.5 -307q-11 -71 -11 -141zM871 809q0 19 -2 49l-383 -576q38 -32 95 -32q105 0 176.5 108t101.5 307q12 80 12 144z" glyph-name="Oslash" unicode="Ø" vert-adv-y="1980"/>
<glyph d="M225.5 102q-104.5 132 -104.5 366q0 87 16 197q47 326 190.5 510.5t403.5 184.5q217 0 321.5 -132t104.5 -367q0 -92 -15 -196q-49 -326 -193 -510.5t-403 -184.5q-216 0 -320.5 132zM757.5 358q71.5 108 101.5 307q12 78 12 143q0 131 -45 201.5t-129 70.5 q-105 0 -176.5 -108t-101.5 -307q-12 -78 -12 -143q0 -131 45 -201.5t129 -70.5q105 0 176.5 108zM823.5 1570q-38.5 20 -85.5 59q-38 31 -66 46.5t-63 15.5q-36 0 -61.5 -16t-38.5 -40q-8 -16 -24 -16h-65q-8 0 -12.5 5t-4.5 13q0 6 1 9q27 101 93 152.5t155 51.5 q57 0 95.5 -20t86.5 -58q39 -32 66 -47t62 -15q36 0 61.5 16t38.5 39q8 16 24 16h66q9 0 13.5 -5.5t3.5 -14.5q-9 -69 -45.5 -116.5t-90.5 -71t-114 -23.5q-57 0 -95.5 20z" glyph-name="Otilde" unicode="Õ" vert-adv-y="1980"/>
<glyph d="M525 0q-156 -1 -251 38.5t-141 131t-46 248.5q0 103 20 248q36 257 107 403t190.5 209t309.5 62h520q13 0 20.5 -8t5.5 -22l-28 -198q-1 -13 -10.5 -21.5t-23.5 -8.5h-228l-40 -281h188q14 0 21.5 -8.5t4.5 -21.5l-27 -198q-2 -14 -11.5 -22t-22.5 -8h-188l-41 -285h229 q14 0 21.5 -8.5t5.5 -21.5l-28 -198q-2 -14 -11.5 -22t-23.5 -8h-522zM676 1075q-92 0 -142.5 -28t-84 -114t-59.5 -267q-19 -139 -19 -211q0 -83 20.5 -124t60.5 -54t111 -12z" glyph-name="OE" unicode="Œ" vert-adv-y="1980"/>
<glyph d="M744 1340q237 0 349 -92.5t112 -272.5q0 -44 -8 -102q-33 -231 -175 -349t-409 -118h-160l-54 -376q-2 -14 -11.5 -22t-22.5 -8h-232q-14 0 -21 8.5t-5 21.5l180 1280q2 14 11.5 22t22.5 8h423zM635 664q85 0 142.5 18.5t93 64.5t46.5 126q4 36 4 49q0 89 -56 124.5 t-171 35.5h-146l-59 -418h146z" glyph-name="P" unicode="P" vert-adv-y="1980"/>
<glyph d="M714 1160q224 0 342.5 -102t118.5 -289q0 -41 -6 -86q-31 -214 -177 -328.5t-394 -114.5h-251l-30 -212q-3 -28 -32 -28h-232q-31 0 -28 32l188 1340q3 28 32 28h232q31 0 28 -32l-29 -208h238zM897 758q0 83 -56.5 113.5t-169.5 30.5h-231l-57 -404h217q125 0 201 49.5 t93 169.5q3 23 3 41z" glyph-name="Thorn" unicode="Þ" vert-adv-y="1980"/>
<glyph d="M225.5 102q-104.5 132 -104.5 366q0 87 16 197q47 326 190.5 510.5t403.5 184.5q217 0 321.5 -132t104.5 -367q0 -92 -15 -196q-49 -326 -193 -510.5t-403 -184.5q-216 0 -320.5 132zM757.5 358q71.5 108 101.5 307q12 78 12 143q0 131 -45 201.5t-129 70.5 q-105 0 -176.5 -108t-101.5 -307q-12 -78 -12 -143q0 -131 45 -201.5t129 -70.5q105 0 176.5 108zM928 -383q-63 0 -107.5 11t-103.5 33q-60 23 -109.5 34.5t-121.5 11.5q-32 0 -28 28l23 163q2 14 11 23t25 9q74 0 123 -11t114 -34q64 -22 114.5 -33t124.5 -11q32 0 28 -28 l-22 -163q-5 -29 -35 -32q-13 -1 -36 -1z" glyph-name="Q" unicode="Q" vert-adv-y="1980"/>
<glyph d="M900 455l166 -417q2 -4 2 -12q0 -11 -9.5 -18.5t-23.5 -7.5h-222q-25 0 -35 26l-141 380h-29h-160l-54 -376q-2 -14 -11.5 -22t-22.5 -8h-232q-14 0 -21 8.5t-5 21.5l180 1280q2 14 11.5 22t22.5 8h423q237 0 349 -92.5t112 -272.5q0 -44 -8 -102q-45 -317 -292 -418z M916 922q0 89 -56 124.5t-171 35.5h-146l-59 -418h146q85 0 142.5 18.5t93 64.5t46.5 126q4 36 4 49z" glyph-name="R" unicode="R" vert-adv-y="1980"/>
<glyph d="M900 455l166 -417q2 -4 2 -12q0 -11 -9.5 -18.5t-23.5 -7.5h-222q-25 0 -35 26l-141 380h-29h-160l-54 -376q-2 -14 -11.5 -22t-22.5 -8h-232q-14 0 -21 8.5t-5 21.5l180 1280q2 14 11.5 22t22.5 8h423q237 0 349 -92.5t112 -272.5q0 -44 -8 -102q-45 -317 -292 -418z M916 922q0 89 -56 124.5t-171 35.5h-146l-59 -418h146q85 0 142.5 18.5t93 64.5t46.5 126q4 36 4 49zM662 1550q-11 0 -18 4.5t-7 12.5q0 7 6 17l156 252q8 13 17 18.5t21 5.5h197q11 0 18 -4.5t7 -12.5q0 -6 -6 -17l-155 -252q-8 -13 -17 -18.5t-21 -5.5h-198z" glyph-name="Racute" unicode="Ŕ" vert-adv-y="1980"/>
<glyph d="M900 455l166 -417q2 -4 2 -12q0 -11 -9.5 -18.5t-23.5 -7.5h-222q-25 0 -35 26l-141 380h-29h-160l-54 -376q-2 -14 -11.5 -22t-22.5 -8h-232q-14 0 -21 8.5t-5 21.5l180 1280q2 14 11.5 22t22.5 8h423q237 0 349 -92.5t112 -272.5q0 -44 -8 -102q-45 -317 -292 -418z M916 922q0 89 -56 124.5t-171 35.5h-146l-59 -418h146q85 0 142.5 18.5t93 64.5t46.5 126q4 36 4 49zM654 1541q-12 0 -19.5 3t-14.5 13l-186 267q-6 9 -6 16q0 9 8 14.5t21 5.5h223q22 0 34 -16l108 -151l152 151q16 16 38 16h225q24 0 24 -15q0 -10 -11 -21l-262 -267 q-11 -10 -19 -13t-19 -3h-296z" glyph-name="Rcaron" unicode="Ř" vert-adv-y="1980"/>
<glyph d="M900 455l166 -417q2 -4 2 -12q0 -11 -9.5 -18.5t-23.5 -7.5h-222q-25 0 -35 26l-141 380h-29h-160l-54 -376q-2 -14 -11.5 -22t-22.5 -8h-232q-14 0 -21 8.5t-5 21.5l180 1280q2 14 11.5 22t22.5 8h423q237 0 349 -92.5t112 -272.5q0 -44 -8 -102q-45 -317 -292 -418z M916 922q0 89 -56 124.5t-171 35.5h-146l-59 -418h146q85 0 142.5 18.5t93 64.5t46.5 126q4 36 4 49zM728 -180q12 0 18.5 -7.5t5.5 -19.5l-14 -91q-18 -129 -44 -241.5t-55 -183.5q-8 -20 -36 -20h-142q-12 0 -17.5 4.5t-5.5 13.5q0 7 1 11q40 161 61 323h-236 q-12 0 -18.5 7.5t-4.5 19.5l23 157q1 12 9.5 19.5t20.5 7.5h434z" glyph-name="uni0156" unicode="Ŗ" vert-adv-y="1980"/>
<glyph d="M207.5 57.5q-119.5 87.5 -119.5 281.5q0 27 1 41q1 15 10 24.5t22 9.5h214q24 0 26 -28q5 -81 63 -119.5t160 -38.5q107 0 171.5 41.5t64.5 124.5q0 40 -18.5 69.5t-66 53t-132.5 40.5q-179 36 -287 121.5t-108 260.5q0 132 65 226.5t183.5 144.5t277.5 50q211 0 323 -93 t103 -295q0 -15 -9 -24.5t-23 -9.5h-198q-25 0 -25 28q-5 67 -58.5 101.5t-145.5 34.5q-97 0 -153 -38.5t-56 -110.5q0 -58 47 -97t171 -64q123 -25 206.5 -60.5t138 -110.5t54.5 -203q0 -143 -69.5 -243.5t-196.5 -152.5t-297 -52q-219 0 -338.5 87.5z" glyph-name="S" unicode="S" vert-adv-y="1980"/>
<glyph d="M207.5 57.5q-119.5 87.5 -119.5 281.5q0 27 1 41q1 15 10 24.5t22 9.5h214q24 0 26 -28q5 -81 63 -119.5t160 -38.5q107 0 171.5 41.5t64.5 124.5q0 40 -18.5 69.5t-66 53t-132.5 40.5q-179 36 -287 121.5t-108 260.5q0 132 65 226.5t183.5 144.5t277.5 50q211 0 323 -93 t103 -295q0 -15 -9 -24.5t-23 -9.5h-198q-25 0 -25 28q-5 67 -58.5 101.5t-145.5 34.5q-97 0 -153 -38.5t-56 -110.5q0 -58 47 -97t171 -64q123 -25 206.5 -60.5t138 -110.5t54.5 -203q0 -143 -69.5 -243.5t-196.5 -152.5t-297 -52q-219 0 -338.5 87.5zM660 1550 q-11 0 -18 4.5t-7 12.5q0 7 6 17l156 252q8 13 17 18.5t21 5.5h197q11 0 18 -4.5t7 -12.5q0 -6 -6 -17l-155 -252q-8 -13 -17 -18.5t-21 -5.5h-198z" glyph-name="Sacute" unicode="Ś" vert-adv-y="1980"/>
<glyph d="M207.5 57.5q-119.5 87.5 -119.5 281.5q0 27 1 41q1 15 10 24.5t22 9.5h214q24 0 26 -28q5 -81 63 -119.5t160 -38.5q107 0 171.5 41.5t64.5 124.5q0 40 -18.5 69.5t-66 53t-132.5 40.5q-179 36 -287 121.5t-108 260.5q0 132 65 226.5t183.5 144.5t277.5 50q211 0 323 -93 t103 -295q0 -15 -9 -24.5t-23 -9.5h-198q-25 0 -25 28q-5 67 -58.5 101.5t-145.5 34.5q-97 0 -153 -38.5t-56 -110.5q0 -58 47 -97t171 -64q123 -25 206.5 -60.5t138 -110.5t54.5 -203q0 -143 -69.5 -243.5t-196.5 -152.5t-297 -52q-219 0 -338.5 87.5zM652 1541 q-12 0 -19.5 3t-14.5 13l-186 267q-6 9 -6 16q0 9 8 14.5t21 5.5h223q22 0 34 -16l108 -151l152 151q16 16 38 16h225q24 0 24 -15q0 -10 -11 -21l-262 -267q-11 -10 -19 -13t-19 -3h-296z" glyph-name="Scaron" unicode="Š" vert-adv-y="1980"/>
<glyph d="M1057 1267q112 -93 103 -295q0 -15 -9 -24.5t-23 -9.5h-198q-25 0 -25 28q-5 67 -58.5 101.5t-145.5 34.5q-97 0 -153 -38.5t-56 -110.5q0 -58 47 -97t171 -64q123 -25 206.5 -60.5t138 -110.5t54.5 -203q0 -135 -61.5 -232t-175 -151t-267.5 -63l-48 -38q66 -6 113 -44 t47 -100q0 -75 -41.5 -127t-111 -78.5t-152.5 -26.5q-44 0 -83 7q-18 3 -15 22l13 98q2 9 9 15t16 5q33 -5 59 -5q50 0 82 15t32 44q0 18 -22 31.5t-56 13.5q-37 0 -80 -17q-4 -2 -10 -2q-14 0 -12 16l13 103q1 13 14 24l59 49q-343 42 -343 362q0 27 1 41q1 15 10 24.5 t22 9.5h214q24 0 26 -28q5 -81 63 -119.5t160 -38.5q107 0 171.5 41.5t64.5 124.5q0 40 -18.5 69.5t-66 53t-132.5 40.5q-179 36 -287 121.5t-108 260.5q0 132 65 226.5t183.5 144.5t277.5 50q211 0 323 -93z" glyph-name="Scedilla" unicode="Ş" vert-adv-y="1980"/>
<glyph d="M207.5 57.5q-119.5 87.5 -119.5 281.5q0 27 1 41q1 15 10 24.5t22 9.5h214q24 0 26 -28q5 -81 63 -119.5t160 -38.5q107 0 171.5 41.5t64.5 124.5q0 40 -18.5 69.5t-66 53t-132.5 40.5q-179 36 -287 121.5t-108 260.5q0 132 65 226.5t183.5 144.5t277.5 50q211 0 323 -93 t103 -295q0 -15 -9 -24.5t-23 -9.5h-198q-25 0 -25 28q-5 67 -58.5 101.5t-145.5 34.5q-97 0 -153 -38.5t-56 -110.5q0 -58 47 -97t171 -64q123 -25 206.5 -60.5t138 -110.5t54.5 -203q0 -143 -69.5 -243.5t-196.5 -152.5t-297 -52q-219 0 -338.5 87.5zM726 -180 q12 0 18.5 -7.5t5.5 -19.5l-14 -91q-18 -129 -44 -241.5t-55 -183.5q-8 -20 -36 -20h-142q-12 0 -17.5 4.5t-5.5 13.5q0 7 1 11q40 161 61 323h-236q-12 0 -18.5 7.5t-4.5 19.5l23 157q1 12 9.5 19.5t20.5 7.5h434z" glyph-name="uni0218" unicode="Ș" vert-adv-y="1980"/>
<glyph d="M794 823q184 -31 280.5 -131.5t96.5 -276.5q0 -130 -52 -229.5t-154 -155.5t-249 -56q-176 0 -259 78.5t-83 222.5q0 20 4 64q3 28 32 28h173q30 0 28 -32q-3 -53 28 -78.5t86 -25.5q82 0 118 50.5t36 124.5q0 107 -79.5 155.5t-250.5 48.5q-18 0 -29 12t-9 27l24 187 l249 316h-200q-83 0 -124 -41.5t-55 -141.5l-132 -941q-4 -28 -32 -28h-231q-15 0 -23 8.5t-6 23.5l137 975q21 155 75 242t148 124t245 37h634q12 0 18.5 -5t6.5 -13q0 -10 -8 -19z" glyph-name="uni1E9E" unicode="ẞ" vert-adv-y="1980"/>
<glyph d="M998 1379q96 -41 142.5 -135t46.5 -253q0 -94 -19 -235l-17 -122q-35 -250 -107 -394.5t-191.5 -207t-307.5 -62.5q-158 0 -258 40.5t-148 127t-48 227.5q0 74 14 170l28 194q2 14 11.5 22t22.5 8h719q12 92 12 156q0 90 -23 138.5t-65.5 66.5t-111.5 18q-73 0 -119 -14 t-78 -52t-56 -110q-9 -26 -39 -26h-210q-24 0 -24 22q0 6 1 10q32 164 104.5 263t188 144t282.5 45q154 0 250 -41zM698.5 272q49.5 21 87 78t61.5 163h-469q-6 -48 -6 -84q0 -70 21.5 -108.5t66 -54t118.5 -15.5q71 0 120.5 21z" glyph-name="uni018F" unicode="Ə" vert-adv-y="1980"/>
<glyph d="M430 0q-13 0 -20.5 8t-5.5 22l148 1052h-339q-13 0 -20.5 8t-5.5 22l27 198q1 13 10.5 21.5t23.5 8.5h971q13 0 20.5 -8t5.5 -22l-27 -198q-1 -13 -10.5 -21.5t-23.5 -8.5h-339l-149 -1052q-1 -13 -10.5 -21.5t-23.5 -8.5h-232z" glyph-name="T" unicode="T" vert-adv-y="1980"/>
<glyph d="M1219 1340q13 0 20.5 -8t5.5 -22l-27 -198q-1 -13 -10.5 -21.5t-23.5 -8.5h-339l-25 -174h204q14 0 21 -8.5t5 -21.5l-22 -159q-2 -13 -11.5 -21.5t-23.5 -8.5h-204l-93 -659q-1 -13 -10.5 -21.5t-23.5 -8.5h-232q-13 0 -20.5 8t-5.5 22l93 659h-205q-13 0 -20 8.5 t-5 21.5l22 159q2 14 11.5 22t22.5 8h205l24 174h-339q-13 0 -20.5 8t-5.5 22l27 198q1 13 10.5 21.5t23.5 8.5h971z" glyph-name="Tbar" unicode="Ŧ" vert-adv-y="1980"/>
<glyph d="M430 0q-13 0 -20.5 8t-5.5 22l148 1052h-339q-13 0 -20.5 8t-5.5 22l27 198q1 13 10.5 21.5t23.5 8.5h971q13 0 20.5 -8t5.5 -22l-27 -198q-1 -13 -10.5 -21.5t-23.5 -8.5h-339l-149 -1052q-1 -13 -10.5 -21.5t-23.5 -8.5h-232zM654 1541q-12 0 -19.5 3t-14.5 13 l-186 267q-6 9 -6 16q0 9 8 14.5t21 5.5h223q22 0 34 -16l108 -151l152 151q16 16 38 16h225q24 0 24 -15q0 -10 -11 -21l-262 -267q-11 -10 -19 -13t-19 -3h-296z" glyph-name="Tcaron" unicode="Ť" vert-adv-y="1980"/>
<glyph d="M430 0q-13 0 -20.5 8t-5.5 22l148 1052h-339q-13 0 -20.5 8t-5.5 22l27 198q1 13 10.5 21.5t23.5 8.5h971q13 0 20.5 -8t5.5 -22l-27 -198q-1 -13 -10.5 -21.5t-23.5 -8.5h-339l-149 -1052q-1 -13 -10.5 -21.5t-23.5 -8.5h-232zM560 -66q66 -6 113 -44t47 -100 q0 -75 -41.5 -127t-111 -78.5t-152.5 -26.5q-44 0 -83 7q-18 3 -15 22l13 98q2 9 9 15t16 5q33 -5 59 -5q50 0 82 15t32 44q0 18 -22 31.5t-56 13.5q-37 0 -80 -17q-4 -2 -10 -2q-14 0 -12 16l13 103q1 13 14 24l87 72h182z" glyph-name="uni0162" unicode="Ţ" vert-adv-y="1980"/>
<glyph d="M430 0q-13 0 -20.5 8t-5.5 22l148 1052h-339q-13 0 -20.5 8t-5.5 22l27 198q1 13 10.5 21.5t23.5 8.5h971q13 0 20.5 -8t5.5 -22l-27 -198q-1 -13 -10.5 -21.5t-23.5 -8.5h-339l-149 -1052q-1 -13 -10.5 -21.5t-23.5 -8.5h-232zM728 -180q12 0 18.5 -7.5t5.5 -19.5 l-14 -91q-18 -129 -44 -241.5t-55 -183.5q-8 -20 -36 -20h-142q-12 0 -17.5 4.5t-5.5 13.5q0 7 1 11q40 161 61 323h-236q-12 0 -18.5 7.5t-4.5 19.5l23 157q1 12 9.5 19.5t20.5 7.5h434z" glyph-name="uni021A" unicode="Ț" vert-adv-y="1980"/>
<glyph d="M222 65.5q-111 95.5 -111 285.5q0 58 8 110l119 849q2 14 11.5 22t22.5 8h232q14 0 21 -8.5t5 -21.5l-115 -827q-5 -35 -5 -60q0 -84 43 -128.5t129 -44.5q101 0 158.5 60t73.5 173l116 827q2 14 11.5 22t22.5 8h232q14 0 21 -8.5t5 -21.5l-119 -849q-70 -491 -556 -491 q-214 0 -325 95.5z" glyph-name="U" unicode="U" vert-adv-y="1980"/>
<glyph d="M222 65.5q-111 95.5 -111 285.5q0 58 8 110l119 849q2 14 11.5 22t22.5 8h232q14 0 21 -8.5t5 -21.5l-115 -827q-5 -35 -5 -60q0 -84 43 -128.5t129 -44.5q101 0 158.5 60t73.5 173l116 827q2 14 11.5 22t22.5 8h232q14 0 21 -8.5t5 -21.5l-119 -849q-70 -491 -556 -491 q-214 0 -325 95.5zM662 1550q-11 0 -18 4.5t-7 12.5q0 7 6 17l156 252q8 13 17 18.5t21 5.5h197q11 0 18 -4.5t7 -12.5q0 -6 -6 -17l-155 -252q-8 -13 -17 -18.5t-21 -5.5h-198z" glyph-name="Uacute" unicode="Ú" vert-adv-y="1980"/>
<glyph d="M222 65.5q-111 95.5 -111 285.5q0 58 8 110l119 849q2 14 11.5 22t22.5 8h232q14 0 21 -8.5t5 -21.5l-115 -827q-5 -35 -5 -60q0 -84 43 -128.5t129 -44.5q101 0 158.5 60t73.5 173l116 827q2 14 11.5 22t22.5 8h232q14 0 21 -8.5t5 -21.5l-119 -849q-70 -491 -556 -491 q-214 0 -325 95.5zM599 1575q-69 39 -103 105.5t-31 147.5q1 15 10 23.5t25 8.5h119q25 0 28 -30q2 -29 18.5 -56t47.5 -43.5t74 -16.5q63 0 105 34t61 82q10 30 36 30h125q26 0 26 -21q0 -7 -1 -11q-19 -82 -69 -148t-127.5 -105t-175.5 -39q-99 0 -168 39z" glyph-name="Ubreve" unicode="Ŭ" vert-adv-y="1980"/>
<glyph d="M222 65.5q-111 95.5 -111 285.5q0 58 8 110l119 849q2 14 11.5 22t22.5 8h232q14 0 21 -8.5t5 -21.5l-115 -827q-5 -35 -5 -60q0 -84 43 -128.5t129 -44.5q101 0 158.5 60t73.5 173l116 827q2 14 11.5 22t22.5 8h232q14 0 21 -8.5t5 -21.5l-119 -849q-70 -491 -556 -491 q-214 0 -325 95.5zM654 1541q-12 0 -19.5 3t-14.5 13l-186 267q-6 9 -6 16q0 9 8 14.5t21 5.5h223q22 0 34 -16l108 -151l152 151q16 16 38 16h225q24 0 24 -15q0 -10 -11 -21l-262 -267q-11 -10 -19 -13t-19 -3h-296z" glyph-name="uni01D3" unicode="Ǔ" vert-adv-y="1980"/>
<glyph d="M222 65.5q-111 95.5 -111 285.5q0 58 8 110l119 849q2 14 11.5 22t22.5 8h232q14 0 21 -8.5t5 -21.5l-115 -827q-5 -35 -5 -60q0 -84 43 -128.5t129 -44.5q101 0 158.5 60t73.5 173l116 827q2 14 11.5 22t22.5 8h232q14 0 21 -8.5t5 -21.5l-119 -849q-70 -491 -556 -491 q-214 0 -325 95.5zM446 1541q-24 0 -24 15q0 10 11 21l263 267q10 10 18 13t20 3h295q12 0 19.5 -3t14.5 -13l186 -267q6 -9 6 -16q0 -9 -8 -14.5t-21 -5.5h-223q-22 0 -34 16l-107 151l-152 -151q-16 -16 -38 -16h-226z" glyph-name="Ucircumflex" unicode="Û" vert-adv-y="1980"/>
<glyph d="M222 65.5q-111 95.5 -111 285.5q0 58 8 110l119 849q2 14 11.5 22t22.5 8h232q14 0 21 -8.5t5 -21.5l-115 -827q-5 -35 -5 -60q0 -84 43 -128.5t129 -44.5q101 0 158.5 60t73.5 173l116 827q2 14 11.5 22t22.5 8h232q14 0 21 -8.5t5 -21.5l-119 -849q-70 -491 -556 -491 q-214 0 -325 95.5zM495.5 1595q-32.5 19 -51.5 51.5t-19 72.5q0 39 19 71t51.5 51t70.5 19t70.5 -19t51.5 -51t19 -71q0 -40 -19 -72.5t-51.5 -51.5t-70.5 -19t-70.5 19zM938.5 1595q-32.5 19 -51.5 51.5t-19 72.5q0 39 19 71t51.5 51t70.5 19t70.5 -19t51.5 -51t19 -71 q0 -40 -19 -72.5t-51.5 -51.5t-70.5 -19t-70.5 19z" glyph-name="Udieresis" unicode="Ü" vert-adv-y="1980"/>
<glyph d="M222 65.5q-111 95.5 -111 285.5q0 58 8 110l119 849q2 14 11.5 22t22.5 8h232q14 0 21 -8.5t5 -21.5l-115 -827q-5 -35 -5 -60q0 -84 43 -128.5t129 -44.5q101 0 158.5 60t73.5 173l116 827q2 14 11.5 22t22.5 8h232q14 0 21 -8.5t5 -21.5l-119 -849q-70 -491 -556 -491 q-214 0 -325 95.5zM689 1550q-12 0 -21 5.5t-17 18.5l-156 252q-6 11 -6 17q0 8 7 12.5t18 4.5h198q12 0 21 -5.5t17 -18.5l155 -252q6 -10 6 -17q0 -8 -7 -12.5t-18 -4.5h-197z" glyph-name="Ugrave" unicode="Ù" vert-adv-y="1980"/>
<glyph d="M222 65.5q-111 95.5 -111 285.5q0 58 8 110l119 849q2 14 11.5 22t22.5 8h232q14 0 21 -8.5t5 -21.5l-115 -827q-5 -35 -5 -60q0 -84 43 -128.5t129 -44.5q101 0 158.5 60t73.5 173l116 827q2 14 11.5 22t22.5 8h232q14 0 21 -8.5t5 -21.5l-119 -849q-70 -491 -556 -491 q-214 0 -325 95.5zM845 1550q-11 0 -18 4.5t-7 12.5q0 7 6 17l156 252q8 13 17 18.5t21 5.5h197q11 0 18 -4.5t7 -12.5q0 -6 -6 -17l-155 -252q-8 -13 -17 -18.5t-21 -5.5h-198zM467 1550q-11 0 -18 4.5t-7 12.5q0 7 6 17l156 252q8 13 17 18.5t21 5.5h197q11 0 18 -4.5 t7 -12.5q0 -6 -6 -17l-155 -252q-8 -13 -17 -18.5t-21 -5.5h-198z" glyph-name="Uhungarumlaut" unicode="Ű" vert-adv-y="1980"/>
<glyph d="M222 65.5q-111 95.5 -111 285.5q0 58 8 110l119 849q2 14 11.5 22t22.5 8h232q14 0 21 -8.5t5 -21.5l-115 -827q-5 -35 -5 -60q0 -84 43 -128.5t129 -44.5q101 0 158.5 60t73.5 173l116 827q2 14 11.5 22t22.5 8h232q14 0 21 -8.5t5 -21.5l-119 -849q-70 -491 -556 -491 q-214 0 -325 95.5zM504 1642q-14 0 -20.5 8t-4.5 22l22 158q1 13 10.5 21.5t23.5 8.5h544q13 0 20.5 -8t5.5 -22l-22 -158q-2 -13 -11.5 -21.5t-23.5 -8.5h-544z" glyph-name="Umacron" unicode="Ū" vert-adv-y="1980"/>
<glyph d="M1196 1340q14 0 21 -8.5t5 -21.5l-119 -849q-55 -384 -363 -467q-135 -59 -135 -142q0 -33 21 -56t65 -23q17 0 42 5v-174q-46 -21 -113 -21q-61 0 -116.5 22t-91 69.5t-35.5 120.5q0 102 85 179q-172 17 -261.5 112t-89.5 265q0 58 8 110l119 849q2 14 11.5 22t22.5 8 h232q14 0 21 -8.5t5 -21.5l-115 -827q-5 -35 -5 -60q0 -84 43 -128.5t129 -44.5q101 0 158.5 60t73.5 173l116 827q2 14 11.5 22t22.5 8h232z" glyph-name="Uogonek" unicode="Ų" vert-adv-y="1980"/>
<glyph d="M222 65.5q-111 95.5 -111 285.5q0 58 8 110l119 849q2 14 11.5 22t22.5 8h232q14 0 21 -8.5t5 -21.5l-115 -827q-5 -35 -5 -60q0 -84 43 -128.5t129 -44.5q101 0 158.5 60t73.5 173l116 827q2 14 11.5 22t22.5 8h232q14 0 21 -8.5t5 -21.5l-119 -849q-70 -491 -556 -491 q-214 0 -325 95.5zM742.5 1480.5q-47.5 27.5 -74.5 74t-27 100.5q0 55 27 102.5t74.5 75t105.5 27.5q56 0 103 -27.5t74 -75t27 -102.5q0 -54 -27 -100.5t-74 -74t-103 -27.5q-58 0 -105.5 27.5zM890 1614q18 15 18 39q0 28 -17 45.5t-43 17.5q-27 0 -44 -16t-17 -42 q0 -27 17 -43t44 -16q24 0 42 15z" glyph-name="Uring" unicode="Ů" vert-adv-y="1980"/>
<glyph d="M363 0q-12 0 -20.5 6t-9.5 18l-158 1282q-2 16 5.5 25t23.5 9h236q29 0 30 -24l102 -1013h29l387 1013q9 24 38 24h238q23 0 23 -18q0 -4 -4 -16l-518 -1282q-4 -12 -14.5 -18t-23.5 -6h-364z" glyph-name="V" unicode="V" vert-adv-y="1980"/>
<glyph d="M1260 1340q21 0 21 -19q0 -3 -2 -15l-321 -1282q-3 -11 -15.5 -17.5t-26.5 -6.5h-258q-13 0 -21.5 6.5t-8.5 17.5l1 574l-159 -574q-3 -11 -14 -17.5t-24 -6.5h-257q-13 0 -24 6.5t-11 17.5l38 1282q1 17 7.5 25.5t21.5 8.5h209q13 0 22 -5.5t8 -18.5l-55 -930l232 810 q7 24 37 24h114q30 0 31 -24l5 -810l205 930q3 12 13.5 18t24.5 6h207z" glyph-name="W" unicode="W" vert-adv-y="1980"/>
<glyph d="M1260 1340q21 0 21 -19q0 -3 -2 -15l-321 -1282q-3 -11 -15.5 -17.5t-26.5 -6.5h-258q-13 0 -21.5 6.5t-8.5 17.5l1 574l-159 -574q-3 -11 -14 -17.5t-24 -6.5h-257q-13 0 -24 6.5t-11 17.5l38 1282q1 17 7.5 25.5t21.5 8.5h209q13 0 22 -5.5t8 -18.5l-55 -930l232 810 q7 24 37 24h114q30 0 31 -24l5 -810l205 930q3 12 13.5 18t24.5 6h207zM662 1550q-11 0 -18 4.5t-7 12.5q0 7 6 17l156 252q8 13 17 18.5t21 5.5h197q11 0 18 -4.5t7 -12.5q0 -6 -6 -17l-155 -252q-8 -13 -17 -18.5t-21 -5.5h-198z" glyph-name="Wacute" unicode="Ẃ" vert-adv-y="1980"/>
<glyph d="M1260 1340q21 0 21 -19q0 -3 -2 -15l-321 -1282q-3 -11 -15.5 -17.5t-26.5 -6.5h-258q-13 0 -21.5 6.5t-8.5 17.5l1 574l-159 -574q-3 -11 -14 -17.5t-24 -6.5h-257q-13 0 -24 6.5t-11 17.5l38 1282q1 17 7.5 25.5t21.5 8.5h209q13 0 22 -5.5t8 -18.5l-55 -930l232 810 q7 24 37 24h114q30 0 31 -24l5 -810l205 930q3 12 13.5 18t24.5 6h207zM446 1541q-24 0 -24 15q0 10 11 21l263 267q10 10 18 13t20 3h295q12 0 19.5 -3t14.5 -13l186 -267q6 -9 6 -16q0 -9 -8 -14.5t-21 -5.5h-223q-22 0 -34 16l-107 151l-152 -151q-16 -16 -38 -16h-226z " glyph-name="Wcircumflex" unicode="Ŵ" vert-adv-y="1980"/>
<glyph d="M1260 1340q21 0 21 -19q0 -3 -2 -15l-321 -1282q-3 -11 -15.5 -17.5t-26.5 -6.5h-258q-13 0 -21.5 6.5t-8.5 17.5l1 574l-159 -574q-3 -11 -14 -17.5t-24 -6.5h-257q-13 0 -24 6.5t-11 17.5l38 1282q1 17 7.5 25.5t21.5 8.5h209q13 0 22 -5.5t8 -18.5l-55 -930l232 810 q7 24 37 24h114q30 0 31 -24l5 -810l205 930q3 12 13.5 18t24.5 6h207zM495.5 1595q-32.5 19 -51.5 51.5t-19 72.5q0 39 19 71t51.5 51t70.5 19t70.5 -19t51.5 -51t19 -71q0 -40 -19 -72.5t-51.5 -51.5t-70.5 -19t-70.5 19zM938.5 1595q-32.5 19 -51.5 51.5t-19 72.5 q0 39 19 71t51.5 51t70.5 19t70.5 -19t51.5 -51t19 -71q0 -40 -19 -72.5t-51.5 -51.5t-70.5 -19t-70.5 19z" glyph-name="Wdieresis" unicode="Ẅ" vert-adv-y="1980"/>
<glyph d="M1260 1340q21 0 21 -19q0 -3 -2 -15l-321 -1282q-3 -11 -15.5 -17.5t-26.5 -6.5h-258q-13 0 -21.5 6.5t-8.5 17.5l1 574l-159 -574q-3 -11 -14 -17.5t-24 -6.5h-257q-13 0 -24 6.5t-11 17.5l38 1282q1 17 7.5 25.5t21.5 8.5h209q13 0 22 -5.5t8 -18.5l-55 -930l232 810 q7 24 37 24h114q30 0 31 -24l5 -810l205 930q3 12 13.5 18t24.5 6h207zM688 1550q-12 0 -21 5.5t-17 18.5l-156 252q-6 11 -6 17q0 8 7 12.5t18 4.5h198q12 0 21 -5.5t17 -18.5l155 -252q6 -10 6 -17q0 -8 -7 -12.5t-18 -4.5h-197z" glyph-name="Wgrave" unicode="Ẁ" vert-adv-y="1980"/>
<glyph d="M1232 1340q11 0 17.5 -4t6.5 -11q0 -9 -9 -21l-451 -624l284 -644q4 -7 4 -15q0 -10 -8 -15.5t-21 -5.5h-245q-24 0 -33 20l-174 393l-284 -393q-14 -20 -39 -20h-245q-11 0 -17.5 4t-6.5 11q0 9 9 21l465 643l-276 625q-4 12 -4 15q0 10 8 15.5t21 5.5h245q25 0 34 -20 l165 -374l271 374q14 20 38 20h245z" glyph-name="X" unicode="X" vert-adv-y="1980"/>
<glyph d="M1265 1340q11 0 17 -4t6 -11q0 -10 -8 -21l-516 -788l-68 -486q-2 -14 -11.5 -22t-23.5 -8h-232q-13 0 -20 8.5t-5 21.5l69 491l-296 783q-3 8 -3 14q0 22 28 22h245q26 0 33 -20l178 -524l323 524q13 20 39 20h245z" glyph-name="Y" unicode="Y" vert-adv-y="1980"/>
<glyph d="M1265 1340q11 0 17 -4t6 -11q0 -10 -8 -21l-516 -788l-68 -486q-2 -14 -11.5 -22t-23.5 -8h-232q-13 0 -20 8.5t-5 21.5l69 491l-296 783q-3 8 -3 14q0 22 28 22h245q26 0 33 -20l178 -524l323 524q13 20 39 20h245zM662 1550q-11 0 -18 4.5t-7 12.5q0 7 6 17l156 252 q8 13 17 18.5t21 5.5h197q11 0 18 -4.5t7 -12.5q0 -6 -6 -17l-155 -252q-8 -13 -17 -18.5t-21 -5.5h-198z" glyph-name="Yacute" unicode="Ý" vert-adv-y="1980"/>
<glyph d="M1265 1340q11 0 17 -4t6 -11q0 -10 -8 -21l-516 -788l-68 -486q-2 -14 -11.5 -22t-23.5 -8h-232q-13 0 -20 8.5t-5 21.5l69 491l-296 783q-3 8 -3 14q0 22 28 22h245q26 0 33 -20l178 -524l323 524q13 20 39 20h245zM446 1541q-24 0 -24 15q0 10 11 21l263 267 q10 10 18 13t20 3h295q12 0 19.5 -3t14.5 -13l186 -267q6 -9 6 -16q0 -9 -8 -14.5t-21 -5.5h-223q-22 0 -34 16l-107 151l-152 -151q-16 -16 -38 -16h-226z" glyph-name="Ycircumflex" unicode="Ŷ" vert-adv-y="1980"/>
<glyph d="M1265 1340q11 0 17 -4t6 -11q0 -10 -8 -21l-516 -788l-68 -486q-2 -14 -11.5 -22t-23.5 -8h-232q-13 0 -20 8.5t-5 21.5l69 491l-296 783q-3 8 -3 14q0 22 28 22h245q26 0 33 -20l178 -524l323 524q13 20 39 20h245zM495.5 1595q-32.5 19 -51.5 51.5t-19 72.5q0 39 19 71 t51.5 51t70.5 19t70.5 -19t51.5 -51t19 -71q0 -40 -19 -72.5t-51.5 -51.5t-70.5 -19t-70.5 19zM938.5 1595q-32.5 19 -51.5 51.5t-19 72.5q0 39 19 71t51.5 51t70.5 19t70.5 -19t51.5 -51t19 -71q0 -40 -19 -72.5t-51.5 -51.5t-70.5 -19t-70.5 19z" glyph-name="Ydieresis" unicode="Ÿ" vert-adv-y="1980"/>
<glyph d="M1265 1340q11 0 17 -4t6 -11q0 -10 -8 -21l-516 -788l-68 -486q-2 -14 -11.5 -22t-23.5 -8h-232q-13 0 -20 8.5t-5 21.5l69 491l-296 783q-3 8 -3 14q0 22 28 22h245q26 0 33 -20l178 -524l323 524q13 20 39 20h245zM688 1550q-12 0 -21 5.5t-17 18.5l-156 252 q-6 11 -6 17q0 8 7 12.5t18 4.5h198q12 0 21 -5.5t17 -18.5l155 -252q6 -10 6 -17q0 -8 -7 -12.5t-18 -4.5h-197z" glyph-name="Ygrave" unicode="Ỳ" vert-adv-y="1980"/>
<glyph d="M1165 1340q14 0 21 -8.5t5 -21.5l-32 -228l-714 -794q48 20 101 20q47 0 91 -12t109 -36t109 -36t89 -12q42 0 77 14q18 6 24 6q12 0 18 -7.5t4 -20.5l-19 -104q-23 -135 -159 -135q-51 0 -106 15t-134 45q-92 33 -152 49.5t-122 16.5q-69 0 -115.5 -21t-96.5 -58 q-16 -12 -32 -22t-29 -15q-5 -2 -13 -2q-12 0 -19.5 8t-5.5 19l35 239q3 21 21 40l723 803h-575q-14 0 -21 8.5t-5 21.5l27 198q2 14 11.5 22t22.5 8h862z" glyph-name="Z" unicode="Z" vert-adv-y="1980"/>
<glyph d="M1165 1340q14 0 21 -8.5t5 -21.5l-32 -228l-714 -794q48 20 101 20q47 0 91 -12t109 -36t109 -36t89 -12q42 0 77 14q18 6 24 6q12 0 18 -7.5t4 -20.5l-19 -104q-23 -135 -159 -135q-51 0 -106 15t-134 45q-92 33 -152 49.5t-122 16.5q-69 0 -115.5 -21t-96.5 -58 q-16 -12 -32 -22t-29 -15q-5 -2 -13 -2q-12 0 -19.5 8t-5.5 19l35 239q3 21 21 40l723 803h-575q-14 0 -21 8.5t-5 21.5l27 198q2 14 11.5 22t22.5 8h862zM662 1550q-11 0 -18 4.5t-7 12.5q0 7 6 17l156 252q8 13 17 18.5t21 5.5h197q11 0 18 -4.5t7 -12.5q0 -6 -6 -17 l-155 -252q-8 -13 -17 -18.5t-21 -5.5h-198z" glyph-name="Zacute" unicode="Ź" vert-adv-y="1980"/>
<glyph d="M1165 1340q14 0 21 -8.5t5 -21.5l-32 -228l-714 -794q48 20 101 20q47 0 91 -12t109 -36t109 -36t89 -12q42 0 77 14q18 6 24 6q12 0 18 -7.5t4 -20.5l-19 -104q-23 -135 -159 -135q-51 0 -106 15t-134 45q-92 33 -152 49.5t-122 16.5q-69 0 -115.5 -21t-96.5 -58 q-16 -12 -32 -22t-29 -15q-5 -2 -13 -2q-12 0 -19.5 8t-5.5 19l35 239q3 21 21 40l723 803h-575q-14 0 -21 8.5t-5 21.5l27 198q2 14 11.5 22t22.5 8h862zM654 1541q-12 0 -19.5 3t-14.5 13l-186 267q-6 9 -6 16q0 9 8 14.5t21 5.5h223q22 0 34 -16l108 -151l152 151 q16 16 38 16h225q24 0 24 -15q0 -10 -11 -21l-262 -267q-11 -10 -19 -13t-19 -3h-296z" glyph-name="Zcaron" unicode="Ž" vert-adv-y="1980"/>
<glyph d="M1165 1340q14 0 21 -8.5t5 -21.5l-32 -228l-714 -794q48 20 101 20q47 0 91 -12t109 -36t109 -36t89 -12q42 0 77 14q18 6 24 6q12 0 18 -7.5t4 -20.5l-19 -104q-23 -135 -159 -135q-51 0 -106 15t-134 45q-92 33 -152 49.5t-122 16.5q-69 0 -115.5 -21t-96.5 -58 q-16 -12 -32 -22t-29 -15q-5 -2 -13 -2q-12 0 -19.5 8t-5.5 19l35 239q3 21 21 40l723 803h-575q-14 0 -21 8.5t-5 21.5l27 198q2 14 11.5 22t22.5 8h862zM718.5 1595q-32.5 19 -51.5 51.5t-19 72.5q0 39 19 71t51.5 51t70.5 19t70 -19t51 -51t19 -71q0 -40 -19 -72.5 t-51 -51.5t-70 -19t-70.5 19z" glyph-name="Zdotaccent" unicode="Ż" vert-adv-y="1980"/>
<glyph d="M1124 212q21 0 34.5 -25t13.5 -57q0 -60 -43.5 -102t-126.5 -42q-67 0 -123.5 30t-93 86.5t-46.5 132.5h-369l-78 -211q-9 -24 -38 -24h-235q-23 0 -23 18q0 4 4 16l504 1282q4 12 14.5 18t22.5 6h364q13 0 22 -6.5t10 -17.5l78 -992q5 -59 18 -88.5t50 -29.5q12 0 32 5 q3 1 9 1zM699 1037h-32l-205 -554h264z" glyph-name="A.ss02" vert-adv-y="1980"/>
<glyph d="M1128 1269q0 -4 -2 -16l-31 -172q-3 -19 -23 -19q-8 0 -17 3q-54 17 -126 30t-144 13q-77 0 -118 -23.5t-41 -76.5t47.5 -85.5t160.5 -32.5h131q34 0 29 -29l-34 -182q-2 -13 -11.5 -21t-24.5 -8h-152q-141 0 -223 -53.5t-82 -148.5q0 -94 83.5 -148t235.5 -54 q128 0 228 36q8 3 14 3q11 0 15.5 -7.5t3.5 -20.5l-22 -157q-4 -28 -15 -44.5t-34 -28.5q-47 -25 -129.5 -41t-173.5 -16q-157 0 -272.5 49.5t-178.5 143.5t-63 223q0 107 43 191.5t117 139.5t167 76l5 21q-73 36 -111 95t-38 138q0 100 56.5 170.5t155.5 106.5t225 36 q101 0 187.5 -20t147.5 -47q14 -8 14 -24z" glyph-name="E.ss02" vert-adv-y="1980"/>
<glyph d="M209 -73.5q-74 36.5 -108.5 95t-34.5 127.5q0 41 13 85q7 23 34 23h191q14 0 20.5 -7.5t7.5 -22.5q5 -60 107 -60q131 0 225.5 109t143 268.5t48.5 303.5q0 232 -136 232q-57 0 -89 -41.5t-32 -115.5q0 -63 22 -150.5t52 -158.5q3 -9 3 -16q0 -19 -17 -25l-184 -59 q-10 -2 -13 -2q-18 0 -29 19q-51 85 -83.5 192t-32.5 211q0 129 51 225.5t146.5 148.5t223.5 52q110 0 202.5 -42t152 -147t59.5 -281q0 -233 -95.5 -465.5t-268.5 -383.5t-392 -151q-113 0 -187 36.5z" glyph-name="I.ss02" vert-adv-y="1980"/>
<glyph d="M353.5 7.5q-103.5 37.5 -169.5 115.5t-66 193q0 87 25 155q9 23 35 23h176q31 0 25 -34q-4 -28 -4 -43q0 -54 25.5 -97t73.5 -67.5t113 -24.5q57 0 107.5 18.5t81.5 57t31 94.5q0 53 -25.5 96t-64 75t-104.5 78q-80 56 -129.5 99.5t-84 108.5t-34.5 152q0 111 58 191 t155.5 121t213.5 41q95 0 185.5 -29t156.5 -84q13 -12 13 -27q0 -9 -2 -14l-61 -176q-6 -19 -21 -19q-8 0 -20 7q-130 84 -244 84q-65 0 -107 -31t-42 -82q0 -36 21 -65t52.5 -52.5t90.5 -60.5q87 -54 143.5 -100.5t97.5 -121t41 -177.5q0 -135 -73 -235.5t-193.5 -153.5 t-258.5 -53q-114 0 -217.5 37.5z" glyph-name="S.ss02" vert-adv-y="1980"/>
<glyph d="M294.5 -5.5q-93.5 24.5 -155.5 68.5q-11 8 -11 20q0 10 6 22l70 152q10 19 27 19q5 0 15 -4q118 -53 242 -53q119 0 209.5 58t112.5 190l41 253h-22q-123 -284 -340 -284q-72 0 -128.5 31t-89.5 92.5t-33 148.5q0 48 10 98l41 216q8 48 8 65q0 26 -10 39t-35 13 q-15 0 -32 -4q-3 -1 -9 -1q-14 0 -23 11t-9 32q0 10 3 23q7 41 32.5 77.5t66 59.5t91.5 23q58 0 106.5 -26.5t76.5 -76t28 -116.5q0 -28 -6 -60l-36 -196q-8 -46 -8 -79q0 -66 26 -100.5t72 -34.5q97 0 174 161t124 480q4 28 32 28h233q32 0 28 -32l-125 -883 q-24 -173 -119 -274.5t-220.5 -141t-259.5 -39.5q-110 0 -203.5 24.5z" glyph-name="Y.ss02" vert-adv-y="1980"/>
<glyph d="M1243 34q2 -15 -5.5 -24.5t-23.5 -9.5h-240q-26 0 -30 24l-35 211h-514l-94 -211q-9 -24 -38 -24h-242q-11 0 -17 5t-6 13t4 16l585 1282q12 24 38 24h363q12 0 20.5 -6t9.5 -18zM750 1037l-246 -554h365l-91 554h-28z" glyph-name="A.ss05" horiz-adv-x="1375" vert-adv-y="1980"/>
<glyph d="M460 45.5q-157 75.5 -246.5 220t-89.5 343.5q0 187 80.5 359t247 282t410.5 110q186 0 302.5 -77.5t116.5 -243.5q0 -80 -29 -176q-7 -26 -34 -26h-206q-26 0 -26 24q0 7 1 11q14 51 14 84q0 69 -46 96t-124 27q-145 0 -238 -68.5t-135 -170t-42 -205.5q0 -128 62.5 -213 t173 -126.5t256.5 -41.5q68 0 130 9.5t110 28.5q8 3 14 3q11 0 15.5 -7.5t3.5 -20.5l-24 -167q-4 -27 -15 -44t-34 -29q-46 -25 -125.5 -41t-168.5 -16q-197 0 -354 75.5z" glyph-name="C.ss05" horiz-adv-x="1328" vert-adv-y="1980"/>
<glyph d="M110 0q-13 0 -20 8t-5 22l180 1280q2 14 11.5 22t22.5 8h495q196 0 330.5 -72.5t202 -205t67.5 -311.5q0 -218 -100 -389t-279 -266.5t-410 -95.5h-495zM631 258q146 0 252.5 61.5t162 169.5t55.5 246q0 172 -89.5 259.5t-263.5 87.5h-223l-116 -824h222z" glyph-name="D.ss05" horiz-adv-x="1467" vert-adv-y="1980"/>
<glyph d="M1273 711q7 -8 5 -21l-81 -566q-4 -28 -15 -45t-34 -29q-57 -32 -148 -56t-205 -24q-187 0 -340.5 75.5t-243 218t-89.5 335.5q0 184 81.5 359t249.5 288.5t412 113.5q182 0 296.5 -75t114.5 -232q0 -77 -29 -168q-7 -26 -34 -26h-206q-26 0 -26 24q0 7 1 11q14 44 14 74 q0 111 -166 111q-145 0 -238.5 -67t-135.5 -172t-42 -223q0 -179 97.5 -273t297.5 -94q84 0 158 20l31 225h-243q-13 0 -20 8t-5 22l23 164q2 14 11.5 22t22.5 8h465q14 0 21 -8z" glyph-name="G.ss05" horiz-adv-x="1365" vert-adv-y="1980"/>
<glyph d="M1150 324q-1 -9 -4 -30t-3 -35q0 -26 10 -39t35 -13q15 0 32 4q3 1 8 1q14 0 23 -11t9 -32q0 -9 -3 -23q-7 -41 -32.5 -77.5t-66 -59.5t-92.5 -23q-64 0 -114 27.5t-78.5 79t-28.5 121.5q0 28 4 52l18 126h-424l-51 -362q-2 -14 -11.5 -22t-22.5 -8h-232q-14 0 -21 8.5 t-5 21.5l51 362h-74q-15 0 -22 8t-5 24l27 198q4 28 32 28h78l93 660q2 14 11.5 22t22.5 8h232q14 0 21 -8.5t5 -21.5l-93 -660h424l93 660q2 14 11.5 22t22.5 8h232q14 0 21 -8.5t5 -21.5z" glyph-name="H.ss05" horiz-adv-x="1342" vert-adv-y="1980"/>
<glyph d="M1008 258q14 0 21.5 -8.5t5.5 -21.5l-29 -198q-2 -14 -11.5 -22t-22.5 -8h-861q-14 0 -21 8.5t-5 21.5l180 1280q2 14 11.5 22t22.5 8h232q14 0 21 -8.5t5 -21.5l-148 -1052h599z" glyph-name="L.ss05" horiz-adv-x="1172" vert-adv-y="1980"/>
<glyph d="M1711 1331.5q7 -8.5 5 -21.5l-180 -1280q-2 -14 -11.5 -22t-23.5 -8h-232q-13 0 -20 8t-5 22l99 703l-390 -709q-13 -24 -40 -24h-213q-26 0 -32 24l-192 710l-99 -704q-2 -13 -11.5 -21.5t-23.5 -8.5h-232q-13 0 -20 8t-5 22l180 1280q2 14 11.5 22t22.5 8h264 q27 0 33 -20l257 -983l531 983q11 20 39 20h267q14 0 21 -8.5z" glyph-name="M.ss05" horiz-adv-x="1751" vert-adv-y="1980"/>
<glyph d="M1306 1340q14 0 21 -8.5t5 -21.5l-180 -1280q-2 -14 -11.5 -22t-22.5 -8h-255q-14 0 -23.5 5t-9.5 15q0 103 -35 209.5t-86.5 203.5t-137.5 242q-79 132 -109 188l-117 -833q-2 -14 -11.5 -22t-22.5 -8h-200q-14 0 -21 8.5t-5 21.5l180 1280q2 14 11.5 22t22.5 8h254 q14 0 24 -5t10 -15q0 -101 35 -207.5t85.5 -203t137.5 -244.5q79 -134 109 -191l118 836q2 14 11.5 22t22.5 8h200z" glyph-name="N.ss05" horiz-adv-x="1367" vert-adv-y="1980"/>
<glyph d="M410 50.5q-138 76.5 -215 212.5t-77 308q0 211 107.5 392.5t289.5 289t392 107.5q175 0 313 -77t215 -213t77 -308q0 -212 -107 -393t-288.5 -288t-392.5 -107q-176 0 -314 76.5zM990 318.5q105 63.5 166 171t61 233.5q0 105 -43 186t-121.5 125.5t-181.5 44.5 q-126 0 -231 -64t-165.5 -172t-60.5 -234q0 -105 43 -185t121.5 -124.5t181.5 -44.5q125 0 230 63.5z" glyph-name="O.ss05" horiz-adv-x="1582" vert-adv-y="1980"/>
<glyph d="M722 1340q237 0 349 -92.5t112 -272.5q0 -44 -8 -102q-33 -231 -175 -349t-409 -118h-160l-54 -376q-2 -14 -11.5 -22t-22.5 -8h-232q-14 0 -21 8.5t-5 21.5l180 1280q2 14 11.5 22t22.5 8h423zM613 664q85 0 142.5 18.5t93 64.5t46.5 126q4 36 4 49q0 89 -56 124.5 t-171 35.5h-146l-59 -418h146z" glyph-name="P.ss05" horiz-adv-x="1231" vert-adv-y="1980"/>
<glyph d="M410 50.5q-138 76.5 -215 212.5t-77 308q0 211 107.5 392.5t289.5 289t392 107.5q175 0 313 -77t215 -213t77 -308q0 -212 -107 -393t-288.5 -288t-392.5 -107q-176 0 -314 76.5zM990 318.5q105 63.5 166 171t61 233.5q0 105 -43 186t-121.5 125.5t-181.5 44.5 q-126 0 -231 -64t-165.5 -172t-60.5 -234q0 -105 43 -185t121.5 -124.5t181.5 -44.5q125 0 230 63.5zM998 -383q-63 0 -107.5 11t-103.5 33q-60 23 -109.5 34.5t-121.5 11.5q-32 0 -28 28l23 163q2 14 11 23t25 9q74 0 123 -11t114 -34q64 -22 114.5 -33t124.5 -11 q32 0 28 -28l-22 -163q-1 -13 -10.5 -21.5t-24.5 -10.5q-13 -1 -36 -1z" glyph-name="Q.ss05" horiz-adv-x="1582" vert-adv-y="1980"/>
<glyph d="M1085 617q-68 -103 -188 -156l169 -423q2 -4 2 -12q0 -11 -9.5 -18.5t-23.5 -7.5h-222q-25 0 -35 26l-141 381q-15 -1 -46 -1h-160l-54 -376q-2 -14 -11.5 -22t-22.5 -8h-232q-14 0 -21 8.5t-5 21.5l180 1280q2 14 11.5 22t22.5 8h423q237 0 349 -92.5t112 -272.5 q0 -44 -8 -102q-22 -153 -90 -256zM899 922q0 89 -56 124.5t-171 35.5h-146l-59 -418h146q85 0 142.5 18.5t93 64.5t46.5 126q4 36 4 49z" glyph-name="R.ss05" horiz-adv-x="1245" vert-adv-y="1980"/>
<glyph d="M451 0q-13 0 -20.5 8t-5.5 22l148 1052h-369q-13 0 -20.5 8t-5.5 22l27 198q1 13 10.5 21.5t23.5 8.5h1031q13 0 20.5 -8t5.5 -22l-27 -198q-1 -13 -10.5 -21.5t-23.5 -8.5h-369l-149 -1052q-1 -13 -10.5 -21.5t-23.5 -8.5h-232z" glyph-name="T.ss05" horiz-adv-x="1272" vert-adv-y="1980"/>
<glyph d="M363.5 20q-111.5 50 -170.5 147.5t-59 235.5q0 51 7 100l114 807q1 13 10.5 21.5t23.5 8.5h232q13 0 20.5 -8t5.5 -22l-109 -778q-4 -24 -4 -53q0 -104 61.5 -166.5t177.5 -62.5q129 0 207.5 77.5t96.5 204.5l110 778q1 13 10.5 21.5t23.5 8.5h232q13 0 20.5 -8t5.5 -22 l-114 -807q-24 -169 -108 -289t-219 -182t-308 -62q-155 0 -266.5 50z" glyph-name="U.ss05" horiz-adv-x="1404" vert-adv-y="1980"/>
<glyph d="M435 0q-25 0 -30 24l-224 1282q-3 15 5 24.5t24 9.5h240q26 0 30 -24l165 -1013h30l449 1013q11 24 38 24h241q11 0 17 -5t6 -13t-4 -16l-585 -1282q-5 -12 -15.5 -18t-22.5 -6h-364z" glyph-name="V.ss05" horiz-adv-x="1375" vert-adv-y="1980"/>
<glyph d="M1870 1340q22 0 22 -18q0 -7 -3 -16l-438 -1282q-3 -11 -14 -17.5t-24 -6.5h-285q-13 0 -21 6t-9 18l-90 1249l-439 -1249q-4 -12 -14.5 -18t-23.5 -6h-287q-13 0 -21 6t-9 18l-78 1282q-2 34 29 34h216q29 0 30 -24l58 -930l335 930q9 24 38 24h159q11 0 16 -5q8 5 18 5 h171q29 0 30 -24l61 -930l319 930q9 24 38 24h216z" glyph-name="W.ss05" horiz-adv-x="1797" vert-adv-y="1980"/>
<glyph d="M1232 1340q11 0 17.5 -4t6.5 -11q0 -9 -9 -21l-451 -624l284 -644q4 -7 4 -15q0 -10 -8 -15.5t-21 -5.5h-245q-24 0 -33 20l-174 393l-284 -393q-14 -20 -39 -20h-245q-11 0 -17.5 4t-6.5 11q0 9 9 21l465 643l-276 625q-4 12 -4 15q0 10 8 15.5t21 5.5h245q25 0 34 -20 l165 -374l271 374q14 20 38 20h245z" glyph-name="X.ss05" vert-adv-y="1980"/>
<glyph d="M1118 212q14 0 23 -11t9 -32q0 -9 -3 -23q-7 -41 -32.5 -77.5t-67 -59.5t-93.5 -23q-87 0 -138.5 63.5t-51.5 174.5q0 14 2 42l4 44h-27q-73 -165 -161 -250.5t-210 -85.5q-86 0 -150 43t-98.5 126t-34.5 200q0 182 81.5 335t233.5 243.5t353 90.5q106 0 205.5 -26 t158.5 -76l-69 -500l-12 -86q-1 -10 -4 -30.5t-3 -33.5q0 -26 10 -39.5t36 -13.5q15 0 31 4q3 1 8 1zM652.5 308q67.5 83 111 200.5t60.5 221.5q-44 27 -122 27q-103 0 -180 -48.5t-118 -129t-41 -172.5q0 -94 40 -138t100 -44q82 0 149.5 83z" glyph-name="a" unicode="a" vert-adv-y="1980"/>
<glyph d="M1118 212q14 0 23 -11t9 -32q0 -9 -3 -23q-7 -41 -32.5 -77.5t-67 -59.5t-93.5 -23q-87 0 -138.5 63.5t-51.5 174.5q0 14 2 42l4 44h-27q-73 -165 -161 -250.5t-210 -85.5q-86 0 -150 43t-98.5 126t-34.5 200q0 182 81.5 335t233.5 243.5t353 90.5q106 0 205.5 -26 t158.5 -76l-69 -500l-12 -86q-1 -10 -4 -30.5t-3 -33.5q0 -26 10 -39.5t36 -13.5q15 0 31 4q3 1 8 1zM652.5 308q67.5 83 111 200.5t60.5 221.5q-44 27 -122 27q-103 0 -180 -48.5t-118 -129t-41 -172.5q0 -94 40 -138t100 -44q82 0 149.5 83zM609 1200q-11 0 -18 4.5 t-7 12.5q0 7 6 17l156 252q8 13 17 18.5t21 5.5h197q11 0 18 -4.5t7 -12.5q0 -6 -6 -17l-155 -252q-8 -13 -17 -18.5t-21 -5.5h-198z" glyph-name="aacute" unicode="á" vert-adv-y="1980"/>
<glyph d="M1118 212q14 0 23 -11t9 -32q0 -9 -3 -23q-7 -41 -32.5 -77.5t-67 -59.5t-93.5 -23q-87 0 -138.5 63.5t-51.5 174.5q0 14 2 42l4 44h-27q-73 -165 -161 -250.5t-210 -85.5q-86 0 -150 43t-98.5 126t-34.5 200q0 182 81.5 335t233.5 243.5t353 90.5q106 0 205.5 -26 t158.5 -76l-69 -500l-12 -86q-1 -10 -4 -30.5t-3 -33.5q0 -26 10 -39.5t36 -13.5q15 0 31 4q3 1 8 1zM652.5 308q67.5 83 111 200.5t60.5 221.5q-44 27 -122 27q-103 0 -180 -48.5t-118 -129t-41 -172.5q0 -94 40 -138t100 -44q82 0 149.5 83zM545 1225q-69 39 -103 105.5 t-31 147.5q1 15 10 23.5t25 8.5h119q25 0 28 -30q2 -29 18.5 -56t47.5 -43.5t74 -16.5q63 0 105 34t61 82q10 30 36 30h125q26 0 26 -21q0 -7 -1 -11q-19 -82 -69 -148t-127.5 -105t-175.5 -39q-99 0 -168 39z" glyph-name="abreve" unicode="ă" vert-adv-y="1980"/>
<glyph d="M1118 212q14 0 23 -11t9 -32q0 -9 -3 -23q-7 -41 -32.5 -77.5t-67 -59.5t-93.5 -23q-87 0 -138.5 63.5t-51.5 174.5q0 14 2 42l4 44h-27q-73 -165 -161 -250.5t-210 -85.5q-86 0 -150 43t-98.5 126t-34.5 200q0 182 81.5 335t233.5 243.5t353 90.5q106 0 205.5 -26 t158.5 -76l-69 -500l-12 -86q-1 -10 -4 -30.5t-3 -33.5q0 -26 10 -39.5t36 -13.5q15 0 31 4q3 1 8 1zM652.5 308q67.5 83 111 200.5t60.5 221.5q-44 27 -122 27q-103 0 -180 -48.5t-118 -129t-41 -172.5q0 -94 40 -138t100 -44q82 0 149.5 83zM601 1191q-12 0 -19.5 3 t-14.5 13l-186 267q-6 9 -6 16q0 9 8 14.5t21 5.5h223q22 0 34 -16l108 -151l152 151q16 16 38 16h225q24 0 24 -15q0 -10 -11 -21l-262 -267q-11 -10 -19 -13t-19 -3h-296z" glyph-name="uni01CE" unicode="ǎ" vert-adv-y="1980"/>
<glyph d="M1118 212q14 0 23 -11t9 -32q0 -9 -3 -23q-7 -41 -32.5 -77.5t-67 -59.5t-93.5 -23q-87 0 -138.5 63.5t-51.5 174.5q0 14 2 42l4 44h-27q-73 -165 -161 -250.5t-210 -85.5q-86 0 -150 43t-98.5 126t-34.5 200q0 182 81.5 335t233.5 243.5t353 90.5q106 0 205.5 -26 t158.5 -76l-69 -500l-12 -86q-1 -10 -4 -30.5t-3 -33.5q0 -26 10 -39.5t36 -13.5q15 0 31 4q3 1 8 1zM652.5 308q67.5 83 111 200.5t60.5 221.5q-44 27 -122 27q-103 0 -180 -48.5t-118 -129t-41 -172.5q0 -94 40 -138t100 -44q82 0 149.5 83zM393 1191q-24 0 -24 15 q0 10 11 21l263 267q10 10 18 13t20 3h295q12 0 19.5 -3t14.5 -13l186 -267q6 -9 6 -16q0 -9 -8 -14.5t-21 -5.5h-223q-22 0 -34 16l-107 151l-152 -151q-16 -16 -38 -16h-226z" glyph-name="acircumflex" unicode="â" vert-adv-y="1980"/>
<glyph d="M1118 212q14 0 23 -11t9 -32q0 -9 -3 -23q-7 -41 -32.5 -77.5t-67 -59.5t-93.5 -23q-87 0 -138.5 63.5t-51.5 174.5q0 14 2 42l4 44h-27q-73 -165 -161 -250.5t-210 -85.5q-86 0 -150 43t-98.5 126t-34.5 200q0 182 81.5 335t233.5 243.5t353 90.5q106 0 205.5 -26 t158.5 -76l-69 -500l-12 -86q-1 -10 -4 -30.5t-3 -33.5q0 -26 10 -39.5t36 -13.5q15 0 31 4q3 1 8 1zM652.5 308q67.5 83 111 200.5t60.5 221.5q-44 27 -122 27q-103 0 -180 -48.5t-118 -129t-41 -172.5q0 -94 40 -138t100 -44q82 0 149.5 83zM441.5 1245 q-32.5 19 -51.5 51.5t-19 72.5q0 39 19 71t51.5 51t70.5 19t70.5 -19t51.5 -51t19 -71q0 -40 -19 -72.5t-51.5 -51.5t-70.5 -19t-70.5 19zM884.5 1245q-32.5 19 -51.5 51.5t-19 72.5q0 39 19 71t51.5 51t70.5 19t70.5 -19t51.5 -51t19 -71q0 -40 -19 -72.5t-51.5 -51.5 t-70.5 -19t-70.5 19z" glyph-name="adieresis" unicode="ä" vert-adv-y="1980"/>
<glyph d="M1118 212q14 0 23 -11t9 -32q0 -9 -3 -23q-7 -41 -32.5 -77.5t-67 -59.5t-93.5 -23q-87 0 -138.5 63.5t-51.5 174.5q0 14 2 42l4 44h-27q-73 -165 -161 -250.5t-210 -85.5q-86 0 -150 43t-98.5 126t-34.5 200q0 182 81.5 335t233.5 243.5t353 90.5q106 0 205.5 -26 t158.5 -76l-69 -500l-12 -86q-1 -10 -4 -30.5t-3 -33.5q0 -26 10 -39.5t36 -13.5q15 0 31 4q3 1 8 1zM652.5 308q67.5 83 111 200.5t60.5 221.5q-44 27 -122 27q-103 0 -180 -48.5t-118 -129t-41 -172.5q0 -94 40 -138t100 -44q82 0 149.5 83zM635 1200q-12 0 -21 5.5 t-17 18.5l-156 252q-6 11 -6 17q0 8 7 12.5t18 4.5h198q12 0 21 -5.5t17 -18.5l155 -252q6 -10 6 -17q0 -8 -7 -12.5t-18 -4.5h-197z" glyph-name="agrave" unicode="à" vert-adv-y="1980"/>
<glyph d="M1118 212q14 0 23 -11t9 -32q0 -9 -3 -23q-7 -41 -32.5 -77.5t-67 -59.5t-93.5 -23q-87 0 -138.5 63.5t-51.5 174.5q0 14 2 42l4 44h-27q-73 -165 -161 -250.5t-210 -85.5q-86 0 -150 43t-98.5 126t-34.5 200q0 182 81.5 335t233.5 243.5t353 90.5q106 0 205.5 -26 t158.5 -76l-69 -500l-12 -86q-1 -10 -4 -30.5t-3 -33.5q0 -26 10 -39.5t36 -13.5q15 0 31 4q3 1 8 1zM652.5 308q67.5 83 111 200.5t60.5 221.5q-44 27 -122 27q-103 0 -180 -48.5t-118 -129t-41 -172.5q0 -94 40 -138t100 -44q82 0 149.5 83zM450 1292q-14 0 -20.5 8 t-4.5 22l22 158q1 13 10.5 21.5t23.5 8.5h544q13 0 20.5 -8t5.5 -22l-22 -158q-2 -13 -11.5 -21.5t-23.5 -8.5h-544z" glyph-name="amacron" unicode="ā" vert-adv-y="1980"/>
<glyph d="M1118 212q14 0 23 -11t9 -32q0 -9 -3 -23q-9 -48 -41.5 -89t-82.5 -59v-6q-91 -14 -138.5 -55t-47.5 -94q0 -33 21 -55.5t65 -22.5q17 0 42 5v-174q-47 -21 -113 -21q-62 0 -117.5 22t-91 69.5t-35.5 120.5q0 90 58.5 153.5t152.5 104.5q-55 64 -55 180q0 13 2 41l4 44 h-27q-73 -165 -161 -250.5t-210 -85.5q-86 0 -150 43t-98.5 126t-34.5 200q0 182 81.5 335t233.5 243.5t353 90.5q106 0 205.5 -26t158.5 -76l-69 -500l-12 -86q-1 -10 -4 -30.5t-3 -33.5q0 -26 10 -39.5t36 -13.5q15 0 31 4q3 1 8 1zM652.5 308q67.5 83 111 200.5 t60.5 221.5q-44 27 -122 27q-103 0 -180 -48.5t-118 -129t-41 -172.5q0 -94 40 -138t100 -44q82 0 149.5 83z" glyph-name="aogonek" unicode="ą" vert-adv-y="1980"/>
<glyph d="M1118 212q14 0 23 -11t9 -32q0 -9 -3 -23q-7 -41 -32.5 -77.5t-67 -59.5t-93.5 -23q-87 0 -138.5 63.5t-51.5 174.5q0 14 2 42l4 44h-27q-73 -165 -161 -250.5t-210 -85.5q-86 0 -150 43t-98.5 126t-34.5 200q0 182 81.5 335t233.5 243.5t353 90.5q106 0 205.5 -26 t158.5 -76l-69 -500l-12 -86q-1 -10 -4 -30.5t-3 -33.5q0 -26 10 -39.5t36 -13.5q15 0 31 4q3 1 8 1zM652.5 308q67.5 83 111 200.5t60.5 221.5q-44 27 -122 27q-103 0 -180 -48.5t-118 -129t-41 -172.5q0 -94 40 -138t100 -44q82 0 149.5 83zM689.5 1130.5 q-47.5 27.5 -74.5 74t-27 100.5q0 55 27 102.5t74.5 75t105.5 27.5q56 0 103 -27.5t74 -75t27 -102.5q0 -54 -27 -100.5t-74 -74t-103 -27.5q-58 0 -105.5 27.5zM837 1264q18 15 18 39q0 28 -17 45.5t-43 17.5q-27 0 -44 -16t-17 -42q0 -27 17 -43t44 -16q24 0 42 15z" glyph-name="aring" unicode="å" vert-adv-y="1980"/>
<glyph d="M1118 212q14 0 23 -11t9 -32q0 -9 -3 -23q-7 -41 -32.5 -77.5t-67 -59.5t-93.5 -23q-87 0 -138.5 63.5t-51.5 174.5q0 14 2 42l4 44h-27q-73 -165 -161 -250.5t-210 -85.5q-86 0 -150 43t-98.5 126t-34.5 200q0 182 81.5 335t233.5 243.5t353 90.5q106 0 205.5 -26 t158.5 -76l-69 -500l-12 -86q-1 -10 -4 -30.5t-3 -33.5q0 -26 10 -39.5t36 -13.5q15 0 31 4q3 1 8 1zM652.5 308q67.5 83 111 200.5t60.5 221.5q-44 27 -122 27q-103 0 -180 -48.5t-118 -129t-41 -172.5q0 -94 40 -138t100 -44q82 0 149.5 83zM769.5 1220q-38.5 20 -85.5 59 q-38 31 -66 46.5t-63 15.5q-36 0 -61.5 -16t-38.5 -40q-8 -16 -24 -16h-65q-8 0 -12.5 5t-4.5 13q0 6 1 9q27 101 93 152.5t155 51.5q57 0 95.5 -20t86.5 -58q39 -32 66 -47t62 -15q36 0 61.5 16t38.5 39q8 16 24 16h66q9 0 13.5 -5.5t3.5 -14.5q-9 -69 -45.5 -116.5 t-90.5 -71t-114 -23.5q-57 0 -95.5 20z" glyph-name="atilde" unicode="ã" vert-adv-y="1980"/>
<glyph d="M1135 918.5q64 -93.5 64 -255.5q0 -68 -13 -159q-7 -44 -17 -65t-30.5 -30.5t-61.5 -9.5h-383q-5 -103 32 -156t131 -53q48 0 90 15.5t86 49.5l91 -131q-65 -74 -140.5 -112t-170.5 -38q-193 0 -258 161q-125 -161 -297 -161q-69 0 -124.5 28t-88.5 86.5t-33 146.5 q0 97 40 173t116.5 119t180.5 43h178l11 83q3 21 3 39q0 52 -26 75.5t-79 23.5q-111 0 -129 -99q-5 -23 -30 -23h-137q-14 0 -21.5 8.5t-4.5 23.5q30 169 114.5 240t227.5 71q95 0 151.5 -29t81.5 -88q99 117 247 117q135 0 199 -93.5zM782 736q-42 -55 -65 -166h274 q6 47 6 84q0 70 -24.5 103.5t-78.5 33.5q-70 0 -112 -55zM503 399h-141q-63 0 -96.5 -32t-33.5 -85q0 -84 90 -84q47 0 92 24.5t76 82.5z" glyph-name="ae" unicode="æ" vert-adv-y="1980"/>
<glyph d="M988 969.5q61 -42.5 94 -125t33 -198.5q0 -182 -82.5 -336t-235.5 -245t-354 -91q-107 0 -210 27.5t-163 78.5l185 1292q4 28 32 28h220q15 0 22.5 -8.5t5.5 -23.5l-99 -692h15q73 162 169 249t223 87q84 0 145 -42.5zM680 278q79 49 121 129t42 172q0 94 -38 138t-94 44 q-87 0 -158 -82t-117 -199t-63 -220l-1 -4q42 -27 125 -27q104 0 183 49z" glyph-name="b" unicode="b" vert-adv-y="1980"/>
<glyph d="M401 30q-119 56 -187 161t-68 249q0 142 66 273.5t197.5 215t317.5 83.5q167 0 272 -71.5t105 -222.5q0 -72 -26 -159q-7 -26 -34 -26h-181q-26 0 -26 23l2 12q10 34 10 63q0 65 -45 92t-112 27q-88 0 -149 -41t-90.5 -104.5t-29.5 -129.5q0 -116 88 -179t237 -63 q131 0 232 44q8 3 14 3q11 0 15.5 -7.5t3.5 -20.5l-22 -148q-4 -27 -15 -44t-34 -29q-48 -26 -118.5 -41.5t-153.5 -15.5q-150 0 -269 56z" glyph-name="c" unicode="c" vert-adv-y="1980"/>
<glyph d="M401 30q-119 56 -187 161t-68 249q0 142 66 273.5t197.5 215t317.5 83.5q167 0 272 -71.5t105 -222.5q0 -72 -26 -159q-7 -26 -34 -26h-181q-26 0 -26 23l2 12q10 34 10 63q0 65 -45 92t-112 27q-88 0 -149 -41t-90.5 -104.5t-29.5 -129.5q0 -116 88 -179t237 -63 q131 0 232 44q8 3 14 3q11 0 15.5 -7.5t3.5 -20.5l-22 -148q-4 -27 -15 -44t-34 -29q-48 -26 -118.5 -41.5t-153.5 -15.5q-150 0 -269 56zM595 1200q-11 0 -18 4.5t-7 12.5q0 7 6 17l156 252q8 13 17 18.5t21 5.5h197q11 0 18 -4.5t7 -12.5q0 -6 -6 -17l-155 -252 q-8 -13 -17 -18.5t-21 -5.5h-198z" glyph-name="cacute" unicode="ć" vert-adv-y="1980"/>
<glyph d="M401 30q-119 56 -187 161t-68 249q0 142 66 273.5t197.5 215t317.5 83.5q167 0 272 -71.5t105 -222.5q0 -72 -26 -159q-7 -26 -34 -26h-181q-26 0 -26 23l2 12q10 34 10 63q0 65 -45 92t-112 27q-88 0 -149 -41t-90.5 -104.5t-29.5 -129.5q0 -116 88 -179t237 -63 q131 0 232 44q8 3 14 3q11 0 15.5 -7.5t3.5 -20.5l-22 -148q-4 -27 -15 -44t-34 -29q-48 -26 -118.5 -41.5t-153.5 -15.5q-150 0 -269 56zM587 1191q-12 0 -19.5 3t-14.5 13l-186 267q-6 9 -6 16q0 9 8 14.5t21 5.5h223q22 0 34 -16l108 -151l152 151q16 16 38 16h225 q24 0 24 -15q0 -10 -11 -21l-262 -267q-11 -10 -19 -13t-19 -3h-296z" glyph-name="ccaron" unicode="č" vert-adv-y="1980"/>
<glyph d="M999 940.5q105 -71.5 105 -222.5q0 -72 -26 -159q-7 -26 -34 -26h-181q-26 0 -26 23l2 12q10 34 10 63q0 65 -45 92t-112 27q-88 0 -149 -41t-90.5 -104.5t-29.5 -129.5q0 -116 88 -179t237 -63q131 0 232 44q8 3 14 3q11 0 15.5 -7.5t3.5 -20.5l-22 -148q-4 -27 -15 -44 t-34 -29q-48 -26 -118.5 -41.5t-153.5 -15.5q-27 0 -41 1l-52 -41q66 -6 113 -44t47 -100q0 -75 -41.5 -127t-111 -78.5t-152.5 -26.5q-44 0 -83 7q-18 3 -15 22l13 98q2 9 9 15t16 5q33 -5 59 -5q50 0 82 15t32 44q0 18 -22 31.5t-56 13.5q-37 0 -80 -17q-4 -2 -10 -2 q-14 0 -12 16l13 103q1 13 14 24l87 72h1q-154 45 -244 159.5t-90 280.5q0 142 66 273.5t197.5 215t317.5 83.5q167 0 272 -71.5z" glyph-name="ccedilla" unicode="ç" vert-adv-y="1980"/>
<glyph d="M401 30q-119 56 -187 161t-68 249q0 142 66 273.5t197.5 215t317.5 83.5q167 0 272 -71.5t105 -222.5q0 -72 -26 -159q-7 -26 -34 -26h-181q-26 0 -26 23l2 12q10 34 10 63q0 65 -45 92t-112 27q-88 0 -149 -41t-90.5 -104.5t-29.5 -129.5q0 -116 88 -179t237 -63 q131 0 232 44q8 3 14 3q11 0 15.5 -7.5t3.5 -20.5l-22 -148q-4 -27 -15 -44t-34 -29q-48 -26 -118.5 -41.5t-153.5 -15.5q-150 0 -269 56zM651.5 1245q-32.5 19 -51.5 51.5t-19 72.5q0 39 19 71t51.5 51t70.5 19t70 -19t51 -51t19 -71q0 -40 -19 -72.5t-51 -51.5t-70 -19 t-70.5 19z" glyph-name="cdotaccent" unicode="ċ" vert-adv-y="1980"/>
<glyph d="M1159 1400q15 0 22.5 -8.5t5.5 -23.5l-65 -458l-71 -500l-12 -86q-1 -8 -4 -29t-3 -35q0 -26 10 -39.5t36 -13.5q15 0 31 4q3 1 8 1q14 0 23 -11.5t9 -33.5q0 -5 -2 -21q-8 -41 -33.5 -77.5t-66.5 -59.5t-93 -23q-87 0 -138.5 63t-51.5 173q0 14 2 44l4 44h-28 q-70 -162 -162.5 -249t-216.5 -87q-129 0 -201.5 95.5t-72.5 269.5q0 183 81.5 337t231.5 245t348 91q58 0 111 -7l51 367q4 28 32 28h215zM647.5 308.5q69.5 83.5 115 201.5t61.5 220q-44 27 -126 27q-101 0 -177.5 -49t-117 -130t-40.5 -173t38 -136t95 -44 q82 0 151.5 83.5z" glyph-name="d" unicode="d" vert-adv-y="1980"/>
<glyph d="M1246 1306q15 2 23.5 -5.5t8.5 -22.5v-139q0 -14 -7.5 -22.5t-20.5 -9.5l-102 -12l-26 -185l-71 -500l-12 -86q-1 -8 -4 -29t-3 -35q0 -26 10 -39.5t36 -13.5q15 0 31 4q3 1 8 1q14 0 23 -11.5t9 -33.5q0 -5 -2 -21q-8 -41 -33.5 -77.5t-66.5 -59.5t-93 -23 q-87 0 -138.5 63t-51.5 173q0 14 2 44l4 44h-28q-70 -162 -162.5 -249t-216.5 -87q-129 0 -201.5 95.5t-72.5 269.5q0 183 81.5 337t231.5 245t348 91q58 0 111 -7l7 56l-66 -8q-15 -2 -23.5 5.5t-8.5 22.5v139q0 14 7.5 22.5t20.5 9.5l99 12l15 108q4 28 32 28h215 q15 0 22.5 -8.5t5.5 -23.5l-10 -70zM647.5 308.5q69.5 83.5 115 201.5t61.5 220q-44 27 -126 27q-101 0 -177.5 -49t-117 -130t-40.5 -173t38 -136t95 -44q82 0 151.5 83.5z" glyph-name="eth" unicode="ð" vert-adv-y="1980"/>
<glyph d="M1159 1400q15 0 22.5 -8.5t5.5 -23.5l-65 -458l-71 -500l-12 -86q-1 -8 -4 -29t-3 -35q0 -26 10 -39.5t36 -13.5q15 0 31 4q3 1 8 1q14 0 23 -11.5t9 -33.5q0 -5 -2 -21q-8 -41 -33.5 -77.5t-66.5 -59.5t-93 -23q-87 0 -138.5 63t-51.5 173q0 14 2 44l4 44h-28 q-70 -162 -162.5 -249t-216.5 -87q-129 0 -201.5 95.5t-72.5 269.5q0 183 81.5 337t231.5 245t348 91q58 0 111 -7l51 367q4 28 32 28h215zM647.5 308.5q69.5 83.5 115 201.5t61.5 220q-44 27 -126 27q-101 0 -177.5 -49t-117 -130t-40.5 -173t38 -136t95 -44 q82 0 151.5 83.5zM1407 1344q-11 0 -18 4.5t-7 12.5q0 7 6 17l156 252q8 13 17 18.5t21 5.5h197q11 0 18 -4.5t7 -12.5q0 -6 -6 -17l-155 -252q-8 -13 -17 -18.5t-21 -5.5h-198z" glyph-name="dcaron" unicode="ď" vert-adv-y="1980"/>
<glyph d="M1283 1262q14 0 21 -8.5t5 -21.5l-12 -84q-2 -14 -11.5 -22t-22.5 -8h-111l-30 -208l-71 -500l-12 -86q-1 -8 -4 -29t-3 -35q0 -26 10 -39.5t36 -13.5q15 0 31 4q3 1 8 1q14 0 23 -11.5t9 -33.5q0 -5 -2 -21q-8 -41 -33.5 -77.5t-66.5 -59.5t-93 -23q-87 0 -138.5 63 t-51.5 173q0 14 2 44l4 44h-28q-70 -162 -162.5 -249t-216.5 -87q-129 0 -201.5 95.5t-72.5 269.5q0 183 81.5 337t231.5 245t348 91q58 0 111 -7l15 113h-187q-14 0 -21 8.5t-5 21.5l12 84q2 14 11.5 22t22.5 8h188l15 110q4 28 32 28h215q15 0 22.5 -8.5t5.5 -23.5 l-15 -106h111zM647.5 308.5q69.5 83.5 115 201.5t61.5 220q-44 27 -126 27q-101 0 -177.5 -49t-117 -130t-40.5 -173t38 -136t95 -44q82 0 151.5 83.5z" glyph-name="dcroat" unicode="đ" vert-adv-y="1980"/>
<glyph d="M1057 165q9 -14 9 -28q0 -19 -15 -30q-77 -66 -182.5 -99.5t-228.5 -33.5q-158 0 -270.5 56t-171 157.5t-58.5 237.5q0 159 77.5 294t211.5 214t295 79q109 0 186.5 -36t117.5 -97t40 -135q0 -133 -142 -250.5t-485 -191.5q62 -101 230 -101q77 0 144 16.5t118 48.5 q14 9 28 9q15 0 27 -15zM570.5 746.5q-61.5 -32.5 -105.5 -95t-55 -148.5q151 36 238 67.5t124.5 62.5t37.5 66q0 34 -30 57t-85 23q-63 0 -124.5 -32.5z" glyph-name="e" unicode="e" vert-adv-y="1980"/>
<glyph d="M1057 165q9 -14 9 -28q0 -19 -15 -30q-77 -66 -182.5 -99.5t-228.5 -33.5q-158 0 -270.5 56t-171 157.5t-58.5 237.5q0 159 77.5 294t211.5 214t295 79q109 0 186.5 -36t117.5 -97t40 -135q0 -133 -142 -250.5t-485 -191.5q62 -101 230 -101q77 0 144 16.5t118 48.5 q14 9 28 9q15 0 27 -15zM570.5 746.5q-61.5 -32.5 -105.5 -95t-55 -148.5q151 36 238 67.5t124.5 62.5t37.5 66q0 34 -30 57t-85 23q-63 0 -124.5 -32.5zM625 1200q-11 0 -18 4.5t-7 12.5q0 7 6 17l156 252q8 13 17 18.5t21 5.5h197q11 0 18 -4.5t7 -12.5q0 -6 -6 -17 l-155 -252q-8 -13 -17 -18.5t-21 -5.5h-198z" glyph-name="eacute" unicode="é" vert-adv-y="1980"/>
<glyph d="M1057 165q9 -14 9 -28q0 -19 -15 -30q-77 -66 -182.5 -99.5t-228.5 -33.5q-158 0 -270.5 56t-171 157.5t-58.5 237.5q0 159 77.5 294t211.5 214t295 79q109 0 186.5 -36t117.5 -97t40 -135q0 -133 -142 -250.5t-485 -191.5q62 -101 230 -101q77 0 144 16.5t118 48.5 q14 9 28 9q15 0 27 -15zM570.5 746.5q-61.5 -32.5 -105.5 -95t-55 -148.5q151 36 238 67.5t124.5 62.5t37.5 66q0 34 -30 57t-85 23q-63 0 -124.5 -32.5zM617 1191q-12 0 -19.5 3t-14.5 13l-186 267q-6 9 -6 16q0 9 8 14.5t21 5.5h223q22 0 34 -16l108 -151l152 151 q16 16 38 16h225q24 0 24 -15q0 -10 -11 -21l-262 -267q-11 -10 -19 -13t-19 -3h-296z" glyph-name="ecaron" unicode="ě" vert-adv-y="1980"/>
<glyph d="M1057 165q9 -14 9 -28q0 -19 -15 -30q-77 -66 -182.5 -99.5t-228.5 -33.5q-158 0 -270.5 56t-171 157.5t-58.5 237.5q0 159 77.5 294t211.5 214t295 79q109 0 186.5 -36t117.5 -97t40 -135q0 -133 -142 -250.5t-485 -191.5q62 -101 230 -101q77 0 144 16.5t118 48.5 q14 9 28 9q15 0 27 -15zM570.5 746.5q-61.5 -32.5 -105.5 -95t-55 -148.5q151 36 238 67.5t124.5 62.5t37.5 66q0 34 -30 57t-85 23q-63 0 -124.5 -32.5zM409 1191q-24 0 -24 15q0 10 11 21l263 267q10 10 18 13t20 3h295q12 0 19.5 -3t14.5 -13l186 -267q6 -9 6 -16 q0 -9 -8 -14.5t-21 -5.5h-223q-22 0 -34 16l-107 151l-152 -151q-16 -16 -38 -16h-226z" glyph-name="ecircumflex" unicode="ê" vert-adv-y="1980"/>
<glyph d="M1057 165q9 -14 9 -28q0 -19 -15 -30q-77 -66 -182.5 -99.5t-228.5 -33.5q-158 0 -270.5 56t-171 157.5t-58.5 237.5q0 159 77.5 294t211.5 214t295 79q109 0 186.5 -36t117.5 -97t40 -135q0 -133 -142 -250.5t-485 -191.5q62 -101 230 -101q77 0 144 16.5t118 48.5 q14 9 28 9q15 0 27 -15zM570.5 746.5q-61.5 -32.5 -105.5 -95t-55 -148.5q151 36 238 67.5t124.5 62.5t37.5 66q0 34 -30 57t-85 23q-63 0 -124.5 -32.5zM458.5 1245q-32.5 19 -51.5 51.5t-19 72.5q0 39 19 71t51.5 51t70.5 19t70.5 -19t51.5 -51t19 -71q0 -40 -19 -72.5 t-51.5 -51.5t-70.5 -19t-70.5 19zM901.5 1245q-32.5 19 -51.5 51.5t-19 72.5q0 39 19 71t51.5 51t70.5 19t70.5 -19t51.5 -51t19 -71q0 -40 -19 -72.5t-51.5 -51.5t-70.5 -19t-70.5 19z" glyph-name="edieresis" unicode="ë" vert-adv-y="1980"/>
<glyph d="M1057 165q9 -14 9 -28q0 -19 -15 -30q-77 -66 -182.5 -99.5t-228.5 -33.5q-158 0 -270.5 56t-171 157.5t-58.5 237.5q0 159 77.5 294t211.5 214t295 79q109 0 186.5 -36t117.5 -97t40 -135q0 -133 -142 -250.5t-485 -191.5q62 -101 230 -101q77 0 144 16.5t118 48.5 q14 9 28 9q15 0 27 -15zM570.5 746.5q-61.5 -32.5 -105.5 -95t-55 -148.5q151 36 238 67.5t124.5 62.5t37.5 66q0 34 -30 57t-85 23q-63 0 -124.5 -32.5zM681.5 1245q-32.5 19 -51.5 51.5t-19 72.5q0 39 19 71t51.5 51t70.5 19t70 -19t51 -51t19 -71q0 -40 -19 -72.5 t-51 -51.5t-70 -19t-70.5 19z" glyph-name="edotaccent" unicode="ė" vert-adv-y="1980"/>
<glyph d="M1057 165q9 -14 9 -28q0 -19 -15 -30q-77 -66 -182.5 -99.5t-228.5 -33.5q-158 0 -270.5 56t-171 157.5t-58.5 237.5q0 159 77.5 294t211.5 214t295 79q109 0 186.5 -36t117.5 -97t40 -135q0 -133 -142 -250.5t-485 -191.5q62 -101 230 -101q77 0 144 16.5t118 48.5 q14 9 28 9q15 0 27 -15zM570.5 746.5q-61.5 -32.5 -105.5 -95t-55 -148.5q151 36 238 67.5t124.5 62.5t37.5 66q0 34 -30 57t-85 23q-63 0 -124.5 -32.5zM652 1200q-12 0 -21 5.5t-17 18.5l-156 252q-6 11 -6 17q0 8 7 12.5t18 4.5h198q12 0 21 -5.5t17 -18.5l155 -252 q6 -10 6 -17q0 -8 -7 -12.5t-18 -4.5h-197z" glyph-name="egrave" unicode="è" vert-adv-y="1980"/>
<glyph d="M1057 165q9 -14 9 -28q0 -19 -15 -30q-77 -66 -182.5 -99.5t-228.5 -33.5q-158 0 -270.5 56t-171 157.5t-58.5 237.5q0 159 77.5 294t211.5 214t295 79q109 0 186.5 -36t117.5 -97t40 -135q0 -133 -142 -250.5t-485 -191.5q62 -101 230 -101q77 0 144 16.5t118 48.5 q14 9 28 9q15 0 27 -15zM570.5 746.5q-61.5 -32.5 -105.5 -95t-55 -148.5q151 36 238 67.5t124.5 62.5t37.5 66q0 34 -30 57t-85 23q-63 0 -124.5 -32.5zM467 1292q-14 0 -20.5 8t-4.5 22l22 158q1 13 10.5 21.5t23.5 8.5h544q13 0 20.5 -8t5.5 -22l-22 -158 q-2 -13 -11.5 -21.5t-23.5 -8.5h-544z" glyph-name="emacron" unicode="ē" vert-adv-y="1980"/>
<glyph d="M1057 165q9 -14 9 -28q0 -19 -15 -30q-84 -73 -206 -107q-93 -23 -139.5 -64.5t-46.5 -93.5q0 -33 21 -56t65 -23q17 0 42 5v-174q-46 -21 -114 -21q-61 0 -116.5 22t-91 69.5t-35.5 120.5q0 114 104 196q-126 18 -214.5 77t-134 153t-45.5 214q0 159 77.5 294t211.5 214 t295 79q109 0 186.5 -36t117.5 -97t40 -135q0 -133 -142 -250.5t-485 -191.5q62 -101 230 -101q77 0 144 16.5t118 48.5q14 9 28 9q15 0 27 -15zM570.5 746.5q-61.5 -32.5 -105.5 -95t-55 -148.5q151 36 238 67.5t124.5 62.5t37.5 66q0 34 -30 57t-85 23q-63 0 -124.5 -32.5 z" glyph-name="eogonek" unicode="ę" vert-adv-y="1980"/>
<glyph d="M860.5 960q112.5 -56 171 -157.5t58.5 -237.5q0 -159 -77.5 -294t-211.5 -214t-295 -79q-109 0 -186.5 36t-117.5 97.5t-40 135.5q0 133 142 250t485 191q-62 101 -230 101q-77 0 -144 -16.5t-118 -48.5q-16 -9 -28 -9q-15 0 -27 15l-69 96q-9 14 -9 28q0 18 15 29 q78 67 183 100t228 33q158 0 270.5 -56zM660 243.5q61 32.5 105 95.5t55 149q-151 -36 -238 -68t-124.5 -62.5t-37.5 -66.5q0 -34 30.5 -57t85.5 -23q63 0 124 32.5z" glyph-name="uni0259" unicode="ə" vert-adv-y="1980"/>
<glyph d="M675 520l-19 -150h391q15 0 22.5 -8.5t5.5 -23.5l-24 -164q-4 -28 -32 -28h-391l-18 -143q-27 -214 -135 -303.5t-263 -89.5q-81 0 -146 19t-99 50.5t-29 66.5l17 109q3 19 14 28.5t25 9.5q4 0 14 -2l31 -10q42 -13 71.5 -20t64.5 -7q66 0 107 47t55 157l44 360l-264 -91 q-14 -5 -22 5.5t-6 26.5l25 184q4 26 33 36l265 90l52 426q25 207 142.5 297.5t277.5 90.5q116 0 200 -45.5t127.5 -126.5t43.5 -186q0 -119 -56.5 -229.5t-172.5 -202t-288 -151.5zM791 1196.5q-37 -40.5 -47 -121.5l-38 -304q153 63 228.5 148t75.5 179q0 59 -30 99 t-93 40q-59 0 -96 -40.5z" glyph-name="f" unicode="f" vert-adv-y="1980"/>
<glyph d="M1066 413l-50 -354q-24 -174 -117 -275t-217 -140.5t-258 -39.5q-113 0 -210.5 24.5t-160.5 68.5q-10 7 -10 20q0 10 6 22l63 135q9 18 27 18q7 0 16 -3q118 -55 253 -55q296 0 328 238l33 238h-11q-72 -143 -162.5 -220t-211.5 -77q-131 0 -204 92.5t-73 260.5 q0 176 80.5 323.5t231 235t351.5 87.5q107 0 207 -25.5t159 -76.5zM668.5 340.5q67.5 76.5 111 185t59.5 204.5q-21 13 -54 20t-72 7q-101 0 -176.5 -45t-115.5 -119.5t-40 -159.5q0 -86 39.5 -127.5t97.5 -41.5q83 0 150.5 76.5z" glyph-name="g" unicode="g" vert-adv-y="1980"/>
<glyph d="M1066 413l-50 -354q-24 -174 -117 -275t-217 -140.5t-258 -39.5q-113 0 -210.5 24.5t-160.5 68.5q-10 7 -10 20q0 10 6 22l63 135q9 18 27 18q7 0 16 -3q118 -55 253 -55q296 0 328 238l33 238h-11q-72 -143 -162.5 -220t-211.5 -77q-131 0 -204 92.5t-73 260.5 q0 176 80.5 323.5t231 235t351.5 87.5q107 0 207 -25.5t159 -76.5zM668.5 340.5q67.5 76.5 111 185t59.5 204.5q-21 13 -54 20t-72 7q-101 0 -176.5 -45t-115.5 -119.5t-40 -159.5q0 -86 39.5 -127.5t97.5 -41.5q83 0 150.5 76.5zM550 1225q-69 39 -103 105.5t-31 147.5 q1 15 10 23.5t25 8.5h119q25 0 28 -30q2 -29 18.5 -56t47.5 -43.5t74 -16.5q63 0 105 34t61 82q10 30 36 30h125q26 0 26 -21q0 -7 -1 -11q-19 -82 -69 -148t-127.5 -105t-175.5 -39q-99 0 -168 39z" glyph-name="gbreve" unicode="ğ" vert-adv-y="1980"/>
<glyph d="M450 1201q-12 0 -18.5 7.5t-4.5 19.5l13 91q19 132 45 244t55 181q7 20 35 20h142q24 0 24 -18q0 -3 -2 -11q-43 -185 -60 -323h235q12 0 18.5 -7.5t5.5 -19.5l-23 -157q-1 -12 -10 -19.5t-21 -7.5h-434zM1066 413l-50 -354q-24 -174 -117 -275t-217 -140.5t-258 -39.5 q-113 0 -210.5 24.5t-160.5 68.5q-10 7 -10 20q0 10 6 22l63 135q9 18 27 18q7 0 16 -3q118 -55 253 -55q296 0 328 238l33 238h-11q-72 -143 -162.5 -220t-211.5 -77q-131 0 -204 92.5t-73 260.5q0 176 80.5 323.5t231 235t351.5 87.5q107 0 207 -25.5t159 -76.5z M668.5 340.5q67.5 76.5 111 185t59.5 204.5q-21 13 -54 20t-72 7q-101 0 -176.5 -45t-115.5 -119.5t-40 -159.5q0 -86 39.5 -127.5t97.5 -41.5q83 0 150.5 76.5z" glyph-name="uni0123" unicode="ģ" vert-adv-y="1980"/>
<glyph d="M1066 413l-50 -354q-24 -174 -117 -275t-217 -140.5t-258 -39.5q-113 0 -210.5 24.5t-160.5 68.5q-10 7 -10 20q0 10 6 22l63 135q9 18 27 18q7 0 16 -3q118 -55 253 -55q296 0 328 238l33 238h-11q-72 -143 -162.5 -220t-211.5 -77q-131 0 -204 92.5t-73 260.5 q0 176 80.5 323.5t231 235t351.5 87.5q107 0 207 -25.5t159 -76.5zM668.5 340.5q67.5 76.5 111 185t59.5 204.5q-21 13 -54 20t-72 7q-101 0 -176.5 -45t-115.5 -119.5t-40 -159.5q0 -86 39.5 -127.5t97.5 -41.5q83 0 150.5 76.5zM669.5 1245q-32.5 19 -51.5 51.5t-19 72.5 q0 39 19 71t51.5 51t70.5 19t70 -19t51 -51t19 -71q0 -40 -19 -72.5t-51 -51.5t-70 -19t-70.5 19z" glyph-name="gdotaccent" unicode="ġ" vert-adv-y="1980"/>
<glyph d="M1077 212q14 0 23 -11.5t9 -33.5q0 -5 -2 -21q-8 -41 -33.5 -77.5t-66 -59.5t-91.5 -23q-58 0 -105.5 26.5t-76 75.5t-28.5 115q0 30 6 63l55 271q8 43 8 74q0 68 -29 104t-77 36q-101 0 -185 -174t-137 -541l-1 -8q-4 -28 -32 -28h-220q-32 0 -28 32l192 1340 q4 28 32 28h220q15 0 22.5 -8.5t5.5 -23.5l-101 -702h19q57 154 146 250t214 96q70 0 128 -33t92.5 -98t34.5 -156q0 -49 -12 -108l-60 -293q-8 -38 -8 -64t10.5 -39.5t35.5 -13.5q16 0 32 4q3 1 8 1z" glyph-name="h" unicode="h" vert-adv-y="1980"/>
<glyph d="M1077 212q14 0 23 -11.5t9 -33.5q0 -5 -2 -21q-8 -41 -33.5 -77.5t-66 -59.5t-91.5 -23q-58 0 -105.5 26.5t-76 75.5t-28.5 115q0 30 6 63l55 271q8 43 8 74q0 68 -29 104t-77 36q-101 0 -185 -174t-137 -541l-1 -8q-4 -28 -32 -28h-220q-32 0 -28 32l154 1073h-101 q-13 0 -20.5 8t-5.5 22l16 116q1 13 10.5 21.5t23.5 8.5h102l13 91q4 28 32 28h220q15 0 22.5 -8.5t5.5 -23.5l-12 -87h300q13 0 20.5 -8t5.5 -22l-16 -116q-1 -13 -10.5 -21.5t-23.5 -8.5h-302l-63 -439h19q57 154 146 250t214 96q70 0 128 -33t92.5 -98t34.5 -156 q0 -49 -12 -108l-60 -293q-8 -38 -8 -64t10.5 -39.5t35.5 -13.5q16 0 32 4q3 1 8 1z" glyph-name="hbar" unicode="ħ" vert-adv-y="1980"/>
<glyph d="M614 1229.5q-36 21.5 -57.5 58t-21.5 79.5t21.5 79.5t57.5 57.5t79 21t79.5 -21t58 -57.5t21.5 -79.5t-21.5 -79.5t-58 -58t-79.5 -21.5t-79 21.5zM1146 154q6 -12 6 -20q0 -13 -13 -26q-53 -52 -144.5 -93t-212.5 -41q-100 0 -184 33t-136 106t-52 187q0 55 11 109 l39 207q-80 -44 -192 -44q-97 0 -164 34q-12 6 -16.5 14.5t-2.5 22.5l23 166q5 40 32 40q6 0 9 -1q78 -16 138 -16q94 0 153 35t86 98q10 25 34 25h210q16 0 23 -9t4 -24l-99 -539q-6 -31 -6 -57q0 -76 42 -109.5t109 -33.5q53 0 98 18t94 52q13 8 22 8q17 0 30 -26z" glyph-name="i" unicode="i" vert-adv-y="1980"/>
<glyph d="M588 13q-85 33 -138.5 108t-53.5 194q0 46 9 100l60 346h-325q-15 0 -22.5 8.5t-5.5 23.5l24 169q4 28 32 28h578q15 0 22 -8t5 -24l-83 -521q-6 -36 -6 -64q0 -149 149 -149q56 0 104 18.5t100 51.5q14 9 22 9q17 0 29 -25l59 -120q5 -12 5 -18q0 -14 -12 -26 q-51 -51 -146.5 -92.5t-219.5 -41.5q-101 0 -186 33z" glyph-name="dotlessi" unicode="ı" vert-adv-y="1980"/>
<glyph d="M588 13q-85 33 -138.5 108t-53.5 194q0 46 9 100l60 346h-325q-15 0 -22.5 8.5t-5.5 23.5l24 169q4 28 32 28h578q15 0 22 -8t5 -24l-83 -521q-6 -36 -6 -64q0 -149 149 -149q56 0 104 18.5t100 51.5q14 9 22 9q17 0 29 -25l59 -120q5 -12 5 -18q0 -14 -12 -26 q-51 -51 -146.5 -92.5t-219.5 -41.5q-101 0 -186 33zM564 1200q-11 0 -18 4.5t-7 12.5q0 7 6 17l156 252q8 13 17 18.5t21 5.5h197q11 0 18 -4.5t7 -12.5q0 -6 -6 -17l-155 -252q-8 -13 -17 -18.5t-21 -5.5h-198z" glyph-name="iacute" unicode="í" vert-adv-y="1980"/>
<glyph d="M588 13q-85 33 -138.5 108t-53.5 194q0 46 9 100l60 346h-325q-15 0 -22.5 8.5t-5.5 23.5l24 169q4 28 32 28h578q15 0 22 -8t5 -24l-83 -521q-6 -36 -6 -64q0 -149 149 -149q56 0 104 18.5t100 51.5q14 9 22 9q17 0 29 -25l59 -120q5 -12 5 -18q0 -14 -12 -26 q-51 -51 -146.5 -92.5t-219.5 -41.5q-101 0 -186 33zM555 1191q-12 0 -19.5 3t-14.5 13l-186 267q-6 9 -6 16q0 9 8 14.5t21 5.5h223q22 0 34 -16l108 -151l152 151q16 16 38 16h225q24 0 24 -15q0 -10 -11 -21l-262 -267q-11 -10 -19 -13t-19 -3h-296z" glyph-name="uni01D0" unicode="ǐ" vert-adv-y="1980"/>
<glyph d="M588 13q-85 33 -138.5 108t-53.5 194q0 46 9 100l60 346h-325q-15 0 -22.5 8.5t-5.5 23.5l24 169q4 28 32 28h578q15 0 22 -8t5 -24l-83 -521q-6 -36 -6 -64q0 -149 149 -149q56 0 104 18.5t100 51.5q14 9 22 9q17 0 29 -25l59 -120q5 -12 5 -18q0 -14 -12 -26 q-51 -51 -146.5 -92.5t-219.5 -41.5q-101 0 -186 33zM348 1191q-24 0 -24 15q0 10 11 21l263 267q10 10 18 13t20 3h295q12 0 19.5 -3t14.5 -13l186 -267q6 -9 6 -16q0 -9 -8 -14.5t-21 -5.5h-223q-22 0 -34 16l-107 151l-152 -151q-16 -16 -38 -16h-226z" glyph-name="icircumflex" unicode="î" vert-adv-y="1980"/>
<glyph d="M588 13q-85 33 -138.5 108t-53.5 194q0 46 9 100l60 346h-325q-15 0 -22.5 8.5t-5.5 23.5l24 169q4 28 32 28h578q15 0 22 -8t5 -24l-83 -521q-6 -36 -6 -64q0 -149 149 -149q56 0 104 18.5t100 51.5q14 9 22 9q17 0 29 -25l59 -120q5 -12 5 -18q0 -14 -12 -26 q-51 -51 -146.5 -92.5t-219.5 -41.5q-101 0 -186 33zM396.5 1245q-32.5 19 -51.5 51.5t-19 72.5q0 39 19 71t51.5 51t70.5 19t70.5 -19t51.5 -51t19 -71q0 -40 -19 -72.5t-51.5 -51.5t-70.5 -19t-70.5 19zM839.5 1245q-32.5 19 -51.5 51.5t-19 72.5q0 39 19 71t51.5 51 t70.5 19t70.5 -19t51.5 -51t19 -71q0 -40 -19 -72.5t-51.5 -51.5t-70.5 -19t-70.5 19z" glyph-name="idieresis" unicode="ï" vert-adv-y="1980"/>
<glyph d="M588 13q-85 33 -138.5 108t-53.5 194q0 46 9 100l60 346h-325q-15 0 -22.5 8.5t-5.5 23.5l24 169q4 28 32 28h578q15 0 22 -8t5 -24l-83 -521q-6 -36 -6 -64q0 -149 149 -149q56 0 104 18.5t100 51.5q14 9 22 9q17 0 29 -25l59 -120q5 -12 5 -18q0 -14 -12 -26 q-51 -51 -146.5 -92.5t-219.5 -41.5q-101 0 -186 33zM619.5 1245q-32.5 19 -51.5 51.5t-19 72.5q0 39 19 71t51.5 51t70.5 19t70 -19t51 -51t19 -71q0 -40 -19 -72.5t-51 -51.5t-70 -19t-70.5 19z" glyph-name="i.loclTRK" vert-adv-y="1980"/>
<glyph d="M588 13q-85 33 -138.5 108t-53.5 194q0 46 9 100l60 346h-325q-15 0 -22.5 8.5t-5.5 23.5l24 169q4 28 32 28h578q15 0 22 -8t5 -24l-83 -521q-6 -36 -6 -64q0 -149 149 -149q56 0 104 18.5t100 51.5q14 9 22 9q17 0 29 -25l59 -120q5 -12 5 -18q0 -14 -12 -26 q-51 -51 -146.5 -92.5t-219.5 -41.5q-101 0 -186 33zM590 1200q-12 0 -21 5.5t-17 18.5l-156 252q-6 11 -6 17q0 8 7 12.5t18 4.5h198q12 0 21 -5.5t17 -18.5l155 -252q6 -10 6 -17q0 -8 -7 -12.5t-18 -4.5h-197z" glyph-name="igrave" unicode="ì" vert-adv-y="1980"/>
<glyph d="M1226.5 1504q36.5 -21 58 -57.5t21.5 -79.5t-21.5 -79.5t-58 -58t-79.5 -21.5t-79 21.5t-57.5 58t-21.5 79.5t21.5 79.5t57.5 57.5t79 21t79.5 -21zM244.5 1179.5q-35.5 20.5 -56 55.5t-20.5 77t20.5 77t56 55.5t76.5 20.5q42 0 77.5 -20.5t56 -55.5t20.5 -77t-20.5 -77 t-56 -55.5t-77.5 -20.5q-41 0 -76.5 20.5zM1224 990q15 0 22 -9t5 -24l-126 -904q-23 -160 -102.5 -258t-186.5 -139t-222 -41q-96 0 -176 25.5t-126.5 62.5t-46.5 68q0 13 7 21l99 135q11 16 27 16q10 0 22 -7q91 -65 194 -65q88 0 152.5 48.5t81.5 165.5l75 537 q-42 -24 -98 -37t-118 -13q-99 0 -167 34q-12 6 -16 14.5t-3 22.5l23 166q5 40 33 40q6 0 9 -1q78 -16 141 -16q97 0 162 35.5t91 97.5q10 25 34 25h210zM299 28q-4 -28 -32 -28h-222q-15 0 -22.5 8t-5.5 24l128 920q4 28 32 28h222q15 0 22.5 -8t5.5 -24z" glyph-name="ij" unicode="ĳ" vert-adv-y="1980"/>
<glyph d="M588 13q-85 33 -138.5 108t-53.5 194q0 46 9 100l60 346h-325q-15 0 -22.5 8.5t-5.5 23.5l24 169q4 28 32 28h578q15 0 22 -8t5 -24l-83 -521q-6 -36 -6 -64q0 -149 149 -149q56 0 104 18.5t100 51.5q14 9 22 9q17 0 29 -25l59 -120q5 -12 5 -18q0 -14 -12 -26 q-51 -51 -146.5 -92.5t-219.5 -41.5q-101 0 -186 33zM405 1292q-14 0 -20.5 8t-4.5 22l22 158q1 13 10.5 21.5t23.5 8.5h544q13 0 20.5 -8t5.5 -22l-22 -158q-2 -13 -11.5 -21.5t-23.5 -8.5h-544z" glyph-name="imacron" unicode="ī" vert-adv-y="1980"/>
<glyph d="M619.5 1245q-32.5 19 -51.5 51.5t-19 72.5q0 39 19 71t51.5 51t70.5 19t70 -19t51 -51t19 -71q0 -40 -19 -72.5t-51 -51.5t-70 -19t-70.5 19zM734 -112q0 -42 30 -65.5t87 -23.5h41q20 0 17 -20l-17 -131q-3 -20 -23 -20h-71q-117 0 -194 47.5t-77 161.5q0 104 73 171 q-93 34 -148.5 109.5t-55.5 197.5q0 46 9 100l60 346h-325q-15 0 -22.5 8.5t-5.5 23.5l24 169q4 28 32 28h578q15 0 22 -8t5 -24l-83 -521q-6 -36 -6 -64q0 -149 149 -149q56 0 104 18.5t100 51.5q14 9 22 9q17 0 29 -25l59 -120q5 -12 5 -18q0 -14 -12 -26 q-48 -48 -136 -88t-202 -45q-68 -31 -68 -93z" glyph-name="iogonek" unicode="į" vert-adv-y="1980"/>
<glyph d="M1007.5 1504q36.5 -21 58 -57.5t21.5 -79.5t-21.5 -79.5t-58 -58t-79.5 -21.5t-79 21.5t-57.5 58t-21.5 79.5t21.5 79.5t57.5 57.5t79 21t79.5 -21zM1005 990q15 0 22 -9t5 -24l-126 -904q-23 -160 -102.5 -258t-186.5 -139t-222 -41q-96 0 -176 25.5t-126.5 62.5 t-46.5 68q0 13 7 21l99 135q11 16 27 16q10 0 22 -7q91 -65 194 -65q88 0 152.5 48.5t81.5 165.5l75 537q-42 -24 -98 -37t-118 -13q-99 0 -167 34q-12 6 -16 14.5t-3 22.5l23 166q5 40 33 40q6 0 9 -1q78 -16 141 -16q97 0 162 35.5t91 97.5q10 25 34 25h210z" glyph-name="j" unicode="j" vert-adv-y="1980"/>
<glyph d="M219 -359.5q-80 25.5 -126.5 62.5t-46.5 68q0 13 7 21l99 135q11 16 27 16q10 0 22 -7q91 -65 194 -65q88 0 152.5 48.5t81.5 165.5l95 676h-428q-14 0 -21 8.5t-5 21.5l24 169q2 14 11.5 22t23.5 8h679q14 0 20.5 -8t4.5 -22l-127 -907q-23 -160 -102.5 -258 t-186.5 -139t-222 -41q-96 0 -176 25.5z" glyph-name="uni0237" unicode="ȷ" vert-adv-y="1980"/>
<glyph d="M1134 990q11 0 18.5 -8t7.5 -18q0 -13 -10 -22l-433 -389l81 -194q21 -53 36.5 -82t40.5 -49.5t61 -20.5q40 0 85 22q10 4 17 4q11 0 20.5 -7t13.5 -22l33 -110q2 -8 2 -13q0 -27 -28.5 -52.5t-78.5 -42t-111 -16.5q-208 0 -300 217l-77 181l-110 -99l-35 -241 q-4 -28 -32 -28h-220q-32 0 -28 32l192 1340q4 28 32 28h220q15 0 22.5 -8.5t5.5 -23.5l-107 -747l388 354q16 15 39 15h255z" glyph-name="k" unicode="k" vert-adv-y="1980"/>
<glyph d="M1134 990q11 0 18.5 -8t7.5 -18q0 -13 -10 -22l-433 -389l81 -194q21 -53 36.5 -82t40.5 -49.5t61 -20.5q40 0 85 22q10 4 17 4q11 0 20.5 -7t13.5 -22l33 -110q2 -8 2 -13q0 -27 -28.5 -52.5t-78.5 -42t-111 -16.5q-208 0 -300 217l-77 181l-110 -99l-35 -241 q-4 -28 -32 -28h-220q-32 0 -28 32l192 1340q4 28 32 28h220q15 0 22.5 -8.5t5.5 -23.5l-107 -747l388 354q16 15 39 15h255zM729 -180q12 0 18.5 -7.5t5.5 -19.5l-14 -91q-18 -129 -44 -241.5t-55 -183.5q-8 -20 -36 -20h-142q-12 0 -17.5 4.5t-5.5 13.5q0 7 1 11 q40 161 61 323h-236q-12 0 -18.5 7.5t-4.5 19.5l23 157q1 12 9.5 19.5t20.5 7.5h434z" glyph-name="uni0137" unicode="ķ" vert-adv-y="1980"/>
<glyph d="M1050 153q5 -12 5 -18q0 -13 -13 -26q-31 -31 -86 -62t-132 -52t-165 -21q-103 0 -190 35.5t-142 117.5t-55 213q0 16 2 52l-184 -65q-14 -5 -22 5.5t-6 26.5l25 184q4 26 33 36l190 66l67 450q31 210 146 299t275 89q122 0 208.5 -45.5t131.5 -126t45 -185.5 q0 -120 -59.5 -234.5t-180 -210t-296.5 -156.5l-81 -28l-11 -71q-4 -24 -4 -51q0 -84 47.5 -120.5t118.5 -36.5q112 0 222 71q10 7 21 7q19 0 30 -23zM702.5 1195.5q-34.5 -41.5 -48.5 -131.5l-49 -315q154 65 232.5 157.5t78.5 190.5q0 60 -28 100t-91 40 q-60 0 -94.5 -41.5z" glyph-name="l" unicode="l" vert-adv-y="1980"/>
<glyph d="M1050 153q5 -12 5 -18q0 -13 -13 -26q-31 -31 -86 -62t-132 -52t-165 -21q-103 0 -190 35.5t-142 117.5t-55 213q0 16 2 52l-184 -65q-14 -5 -22 5.5t-6 26.5l25 184q4 26 33 36l190 66l67 450q31 210 146 299t275 89q122 0 208.5 -45.5t131.5 -126t45 -185.5 q0 -120 -59.5 -234.5t-180 -210t-296.5 -156.5l-81 -28l-11 -71q-4 -24 -4 -51q0 -84 47.5 -120.5t118.5 -36.5q112 0 222 71q10 7 21 7q19 0 30 -23zM702.5 1195.5q-34.5 -41.5 -48.5 -131.5l-49 -315q154 65 232.5 157.5t78.5 190.5q0 60 -28 100t-91 40 q-60 0 -94.5 -41.5zM733 1574q-11 0 -18 4.5t-7 12.5q0 7 6 17l156 252q8 13 17 18.5t21 5.5h197q11 0 18 -4.5t7 -12.5q0 -6 -6 -17l-155 -252q-8 -13 -17 -18.5t-21 -5.5h-198z" glyph-name="lacute" unicode="ĺ" vert-adv-y="1980"/>
<glyph d="M1398 1884q13 0 19.5 -8t4.5 -22l-14 -101q-20 -145 -47 -269.5t-57 -201.5q-8 -22 -38 -22h-148q-25 0 -25 20l2 12q45 200 63 358h-247q-13 0 -19.5 8.5t-5.5 21.5l24 174q1 13 10 21.5t22 8.5h456zM491 497l-11 -71q-4 -24 -4 -51q0 -84 47.5 -120.5t118.5 -36.5 q112 0 222 71q10 7 21 7q19 0 30 -23l60 -120q5 -12 5 -18q0 -13 -13 -26q-31 -31 -86 -62t-132 -52t-165 -21q-103 0 -190 35.5t-142 117.5t-55 213q0 16 2 52l-184 -65q-14 -5 -22 5.5t-6 26.5l25 184q4 26 33 36l190 66l67 450q31 210 146 299t275 89q122 0 208.5 -45.5 t131.5 -126t45 -185.5q0 -120 -59.5 -234.5t-180 -210t-296.5 -156.5zM627.5 1195.5q-34.5 -41.5 -48.5 -131.5l-49 -315q154 65 232.5 157.5t78.5 190.5q0 60 -28 100t-91 40q-60 0 -94.5 -41.5z" glyph-name="lcaron" unicode="ľ" vert-adv-y="1980"/>
<glyph d="M1050 153q5 -12 5 -18q0 -13 -13 -26q-31 -31 -86 -62t-132 -52t-165 -21q-103 0 -190 35.5t-142 117.5t-55 213q0 16 2 52l-184 -65q-14 -5 -22 5.5t-6 26.5l25 184q4 26 33 36l190 66l67 450q31 210 146 299t275 89q122 0 208.5 -45.5t131.5 -126t45 -185.5 q0 -120 -59.5 -234.5t-180 -210t-296.5 -156.5l-81 -28l-11 -71q-4 -24 -4 -51q0 -84 47.5 -120.5t118.5 -36.5q112 0 222 71q10 7 21 7q19 0 30 -23zM702.5 1195.5q-34.5 -41.5 -48.5 -131.5l-49 -315q154 65 232.5 157.5t78.5 190.5q0 60 -28 100t-91 40 q-60 0 -94.5 -41.5zM734 -180q12 0 18.5 -7.5t5.5 -19.5l-14 -91q-18 -129 -44 -241.5t-55 -183.5q-8 -20 -36 -20h-142q-12 0 -17.5 4.5t-5.5 13.5q0 7 1 11q40 161 61 323h-236q-12 0 -18.5 7.5t-4.5 19.5l23 157q1 12 9.5 19.5t20.5 7.5h434z" glyph-name="uni013C" unicode="ļ" vert-adv-y="1980"/>
<glyph d="M997 153q5 -12 5 -18q0 -13 -13 -26q-31 -31 -86 -62t-132 -52t-165 -21q-103 0 -190 35.5t-142 117.5t-55 213q0 16 2 52l-184 -65q-14 -5 -22 5.5t-6 26.5l25 184q4 26 33 36l190 66l67 450q31 210 146 299t275 89q122 0 208.5 -45.5t131.5 -126t45 -185.5 q0 -120 -59.5 -234.5t-180 -210t-296.5 -156.5l-81 -28l-11 -71q-4 -24 -4 -51q0 -84 47.5 -120.5t118.5 -36.5q112 0 222 71q10 7 21 7q19 0 30 -23zM649.5 1195.5q-34.5 -41.5 -48.5 -131.5l-49 -315q154 65 232.5 157.5t78.5 190.5q0 60 -28 100t-91 40 q-60 0 -94.5 -41.5zM1110 636.5q35 -20.5 55.5 -55.5t20.5 -76t-20.5 -75.5t-55.5 -55t-76 -20.5q-40 0 -75 20.5t-55.5 55t-20.5 75.5t20.5 76t55.5 55.5t75 20.5q41 0 76 -20.5z" glyph-name="ldot" unicode="ŀ" vert-adv-y="1980"/>
<glyph d="M1050 153q5 -12 5 -18q0 -13 -13 -26q-31 -31 -86 -62t-132 -52t-165 -21q-103 0 -190 35.5t-142 117.5t-55 213q0 16 2 52l-184 -65q-14 -5 -22 5.5t-6 26.5l25 184q4 26 33 36l190 66l14 96l-181 -65l33 237l184 66l17 116q31 210 146 299t275 89q122 0 208.5 -45.5 t131.5 -126t45 -185.5q0 -120 -59.5 -234.5t-180 -210t-296.5 -156.5l-81 -28l-11 -71q-4 -24 -4 -51q0 -84 47.5 -120.5t118.5 -36.5q112 0 222 71q10 7 21 7q19 0 30 -23zM749 893l-129 -46l-15 -98q154 65 232.5 157.5t78.5 190.5q0 60 -28 100t-91 40q-56 0 -89.5 -36 t-49.5 -114l121 44z" glyph-name="lslash" unicode="ł" vert-adv-y="1980"/>
<glyph d="M870.5 37q-41.5 51 -41.5 141q0 39 5 69l42 289q14 95 14 147q0 40 -8.5 54t-27.5 14q-38 0 -71 -73t-65 -230.5t-68 -419.5q-4 -28 -32 -28h-163q-32 0 -28 32l70 504q15 104 15 149q0 39 -10 52.5t-34 13.5q-41 0 -75.5 -73t-67.5 -231t-68 -419q-4 -28 -32 -28h-182 q-16 0 -23.5 8t-5.5 24l134 926q4 32 35 32h166q35 0 30 -39l-38 -285h16q36 134 74.5 210t79 106t89.5 30q66 0 98.5 -60t32.5 -184q0 -40 -5 -102h17q37 135 75.5 210.5t80.5 105.5t96 30q77 0 119.5 -60t42.5 -179q0 -67 -13 -146l-49 -300q-6 -33 -6 -60q0 -35 10 -52 t30 -13q3 1 8 1q24 0 24 -35q0 -11 -1 -17q-25 -165 -169 -165q-79 0 -120.5 51z" glyph-name="m" unicode="m" vert-adv-y="1980"/>
<glyph d="M1068 212q14 0 23 -11t9 -32q0 -9 -3 -23q-7 -41 -32.5 -77.5t-66 -59.5t-92.5 -23q-58 0 -106 26t-76 75t-28 115q0 32 7 64l54 271q8 37 8 75q0 67 -29 103t-77 36q-101 0 -185 -175.5t-137 -547.5q-4 -28 -32 -28h-220q-16 0 -23.5 8t-5.5 24l134 926q4 32 35 32h205 q30 0 30 -27q0 -8 -1 -12l-31 -285h19q55 153 145 249.5t214 96.5q70 0 128.5 -33t93 -98t34.5 -156q0 -49 -12 -108l-60 -293q-9 -43 -9 -65q0 -52 47 -52q16 0 32 4q3 1 8 1z" glyph-name="n" unicode="n" vert-adv-y="1980"/>
<glyph d="M1068 212q14 0 23 -11t9 -32q0 -9 -3 -23q-7 -41 -32.5 -77.5t-66 -59.5t-92.5 -23q-58 0 -106 26t-76 75t-28 115q0 32 7 64l54 271q8 37 8 75q0 67 -29 103t-77 36q-101 0 -185 -175.5t-137 -547.5q-4 -28 -32 -28h-220q-16 0 -23.5 8t-5.5 24l134 926q4 32 35 32h205 q30 0 30 -27q0 -8 -1 -12l-31 -285h19q55 153 145 249.5t214 96.5q70 0 128.5 -33t93 -98t34.5 -156q0 -49 -12 -108l-60 -293q-9 -43 -9 -65q0 -52 47 -52q16 0 32 4q3 1 8 1zM626 1200q-11 0 -18 4.5t-7 12.5q0 7 6 17l156 252q8 13 17 18.5t21 5.5h197q11 0 18 -4.5 t7 -12.5q0 -6 -6 -17l-155 -252q-8 -13 -17 -18.5t-21 -5.5h-198z" glyph-name="nacute" unicode="ń" vert-adv-y="1980"/>
<glyph d="M1068 212q14 0 23 -11t9 -32q0 -9 -3 -23q-7 -41 -32.5 -77.5t-66 -59.5t-92.5 -23q-58 0 -106 26t-76 75t-28 115q0 32 7 64l54 271q8 37 8 75q0 67 -29 103t-77 36q-101 0 -185 -175.5t-137 -547.5q-4 -28 -32 -28h-220q-16 0 -23.5 8t-5.5 24l134 926q4 32 35 32h205 q30 0 30 -27q0 -8 -1 -12l-31 -285h19q55 153 145 249.5t214 96.5q70 0 128.5 -33t93 -98t34.5 -156q0 -49 -12 -108l-60 -293q-9 -43 -9 -65q0 -52 47 -52q16 0 32 4q3 1 8 1zM618 1191q-12 0 -19.5 3t-14.5 13l-186 267q-6 9 -6 16q0 9 8 14.5t21 5.5h223q22 0 34 -16 l108 -151l152 151q16 16 38 16h225q24 0 24 -15q0 -10 -11 -21l-262 -267q-11 -10 -19 -13t-19 -3h-296z" glyph-name="ncaron" unicode="ň" vert-adv-y="1980"/>
<glyph d="M1068 212q14 0 23 -11t9 -32q0 -9 -3 -23q-7 -41 -32.5 -77.5t-66 -59.5t-92.5 -23q-58 0 -106 26t-76 75t-28 115q0 32 7 64l54 271q8 37 8 75q0 67 -29 103t-77 36q-101 0 -185 -175.5t-137 -547.5q-4 -28 -32 -28h-220q-16 0 -23.5 8t-5.5 24l134 926q4 32 35 32h205 q30 0 30 -27q0 -8 -1 -12l-31 -285h19q55 153 145 249.5t214 96.5q70 0 128.5 -33t93 -98t34.5 -156q0 -49 -12 -108l-60 -293q-9 -43 -9 -65q0 -52 47 -52q16 0 32 4q3 1 8 1zM734 -180q12 0 18.5 -7.5t5.5 -19.5l-14 -91q-18 -129 -44 -241.5t-55 -183.5q-8 -20 -36 -20 h-142q-12 0 -17.5 4.5t-5.5 13.5q0 7 1 11q40 161 61 323h-236q-12 0 -18.5 7.5t-4.5 19.5l23 157q1 12 9.5 19.5t20.5 7.5h434z" glyph-name="uni0146" unicode="ņ" vert-adv-y="1980"/>
<glyph d="M936 978.5q56 -33.5 88 -98.5t32 -158q0 -52 -10 -106l-108 -628q-33 -191 -149.5 -287.5t-293.5 -96.5q-13 0 -21 7.5t-10 16.5l-40 226q-1 5 -2 8t-0.5 4.5t3.5 1.5q55 0 110.5 25t95.5 73.5t51 116.5l74 454q6 41 6 74q0 69 -26 104.5t-73 35.5q-101 0 -185 -175.5 t-137 -547.5q-4 -28 -32 -28h-220q-32 0 -28 32l133 926q4 32 35 32h205q19 0 25.5 -9.5t4.5 -29.5l-32 -285h19q57 154 146 250t213 96q70 0 126 -33.5z" glyph-name="eng" unicode="ŋ" vert-adv-y="1980"/>
<glyph d="M1068 212q14 0 23 -11t9 -32q0 -9 -3 -23q-7 -41 -32.5 -77.5t-66 -59.5t-92.5 -23q-58 0 -106 26t-76 75t-28 115q0 32 7 64l54 271q8 37 8 75q0 67 -29 103t-77 36q-101 0 -185 -175.5t-137 -547.5q-4 -28 -32 -28h-220q-16 0 -23.5 8t-5.5 24l134 926q4 32 35 32h205 q30 0 30 -27q0 -8 -1 -12l-31 -285h19q55 153 145 249.5t214 96.5q70 0 128.5 -33t93 -98t34.5 -156q0 -49 -12 -108l-60 -293q-9 -43 -9 -65q0 -52 47 -52q16 0 32 4q3 1 8 1zM787.5 1220q-38.5 20 -85.5 59q-38 31 -66 46.5t-63 15.5q-36 0 -61.5 -16t-38.5 -40 q-8 -16 -24 -16h-65q-8 0 -12.5 5t-4.5 13q0 6 1 9q27 101 93 152.5t155 51.5q57 0 95.5 -20t86.5 -58q39 -32 66 -47t62 -15q36 0 61.5 16t38.5 39q8 16 24 16h66q9 0 13.5 -5.5t3.5 -14.5q-9 -69 -45.5 -116.5t-90.5 -71t-114 -23.5q-57 0 -95.5 20z" glyph-name="ntilde" unicode="ñ" vert-adv-y="1980"/>
<glyph d="M317.5 32.5q-102.5 58.5 -159 162.5t-56.5 236q0 159 78.5 292t210.5 211t285 78q131 0 234 -57.5t161 -160.5t58 -235q0 -160 -78.5 -294t-211 -212.5t-286.5 -78.5q-133 0 -235.5 58.5zM721 274q62 39 98.5 106t36.5 149q0 69 -26.5 119t-74 76.5t-108.5 26.5 q-74 0 -136.5 -39t-99 -106t-36.5 -148q0 -69 26.5 -119.5t74 -77t108.5 -26.5q75 0 137 39z" glyph-name="o" unicode="o" vert-adv-y="1980"/>
<glyph d="M317.5 32.5q-102.5 58.5 -159 162.5t-56.5 236q0 159 78.5 292t210.5 211t285 78q131 0 234 -57.5t161 -160.5t58 -235q0 -160 -78.5 -294t-211 -212.5t-286.5 -78.5q-133 0 -235.5 58.5zM721 274q62 39 98.5 106t36.5 149q0 69 -26.5 119t-74 76.5t-108.5 26.5 q-74 0 -136.5 -39t-99 -106t-36.5 -148q0 -69 26.5 -119.5t74 -77t108.5 -26.5q75 0 137 39zM628 1200q-11 0 -18 4.5t-7 12.5q0 7 6 17l156 252q8 13 17 18.5t21 5.5h197q11 0 18 -4.5t7 -12.5q0 -6 -6 -17l-155 -252q-8 -13 -17 -18.5t-21 -5.5h-198z" glyph-name="oacute" unicode="ó" vert-adv-y="1980"/>
<glyph d="M317.5 32.5q-102.5 58.5 -159 162.5t-56.5 236q0 159 78.5 292t210.5 211t285 78q131 0 234 -57.5t161 -160.5t58 -235q0 -160 -78.5 -294t-211 -212.5t-286.5 -78.5q-133 0 -235.5 58.5zM721 274q62 39 98.5 106t36.5 149q0 69 -26.5 119t-74 76.5t-108.5 26.5 q-74 0 -136.5 -39t-99 -106t-36.5 -148q0 -69 26.5 -119.5t74 -77t108.5 -26.5q75 0 137 39zM620 1191q-12 0 -19.5 3t-14.5 13l-186 267q-6 9 -6 16q0 9 8 14.5t21 5.5h223q22 0 34 -16l108 -151l152 151q16 16 38 16h225q24 0 24 -15q0 -10 -11 -21l-262 -267 q-11 -10 -19 -13t-19 -3h-296z" glyph-name="uni01D2" unicode="ǒ" vert-adv-y="1980"/>
<glyph d="M317.5 32.5q-102.5 58.5 -159 162.5t-56.5 236q0 159 78.5 292t210.5 211t285 78q131 0 234 -57.5t161 -160.5t58 -235q0 -160 -78.5 -294t-211 -212.5t-286.5 -78.5q-133 0 -235.5 58.5zM721 274q62 39 98.5 106t36.5 149q0 69 -26.5 119t-74 76.5t-108.5 26.5 q-74 0 -136.5 -39t-99 -106t-36.5 -148q0 -69 26.5 -119.5t74 -77t108.5 -26.5q75 0 137 39zM412 1191q-24 0 -24 15q0 10 11 21l263 267q10 10 18 13t20 3h295q12 0 19.5 -3t14.5 -13l186 -267q6 -9 6 -16q0 -9 -8 -14.5t-21 -5.5h-223q-22 0 -34 16l-107 151l-152 -151 q-16 -16 -38 -16h-226z" glyph-name="ocircumflex" unicode="ô" vert-adv-y="1980"/>
<glyph d="M317.5 32.5q-102.5 58.5 -159 162.5t-56.5 236q0 159 78.5 292t210.5 211t285 78q131 0 234 -57.5t161 -160.5t58 -235q0 -160 -78.5 -294t-211 -212.5t-286.5 -78.5q-133 0 -235.5 58.5zM721 274q62 39 98.5 106t36.5 149q0 69 -26.5 119t-74 76.5t-108.5 26.5 q-74 0 -136.5 -39t-99 -106t-36.5 -148q0 -69 26.5 -119.5t74 -77t108.5 -26.5q75 0 137 39zM461.5 1245q-32.5 19 -51.5 51.5t-19 72.5q0 39 19 71t51.5 51t70.5 19t70.5 -19t51.5 -51t19 -71q0 -40 -19 -72.5t-51.5 -51.5t-70.5 -19t-70.5 19zM904.5 1245 q-32.5 19 -51.5 51.5t-19 72.5q0 39 19 71t51.5 51t70.5 19t70.5 -19t51.5 -51t19 -71q0 -40 -19 -72.5t-51.5 -51.5t-70.5 -19t-70.5 19z" glyph-name="odieresis" unicode="ö" vert-adv-y="1980"/>
<glyph d="M317.5 32.5q-102.5 58.5 -159 162.5t-56.5 236q0 159 78.5 292t210.5 211t285 78q131 0 234 -57.5t161 -160.5t58 -235q0 -160 -78.5 -294t-211 -212.5t-286.5 -78.5q-133 0 -235.5 58.5zM721 274q62 39 98.5 106t36.5 149q0 69 -26.5 119t-74 76.5t-108.5 26.5 q-74 0 -136.5 -39t-99 -106t-36.5 -148q0 -69 26.5 -119.5t74 -77t108.5 -26.5q75 0 137 39zM655 1200q-12 0 -21 5.5t-17 18.5l-156 252q-6 11 -6 17q0 8 7 12.5t18 4.5h198q12 0 21 -5.5t17 -18.5l155 -252q6 -10 6 -17q0 -8 -7 -12.5t-18 -4.5h-197z" glyph-name="ograve" unicode="ò" vert-adv-y="1980"/>
<glyph d="M317.5 32.5q-102.5 58.5 -159 162.5t-56.5 236q0 159 78.5 292t210.5 211t285 78q131 0 234 -57.5t161 -160.5t58 -235q0 -160 -78.5 -294t-211 -212.5t-286.5 -78.5q-133 0 -235.5 58.5zM721 274q62 39 98.5 106t36.5 149q0 69 -26.5 119t-74 76.5t-108.5 26.5 q-74 0 -136.5 -39t-99 -106t-36.5 -148q0 -69 26.5 -119.5t74 -77t108.5 -26.5q75 0 137 39zM811 1200q-11 0 -18 4.5t-7 12.5q0 7 6 17l156 252q8 13 17 18.5t21 5.5h197q11 0 18 -4.5t7 -12.5q0 -6 -6 -17l-155 -252q-8 -13 -17 -18.5t-21 -5.5h-198zM433 1200 q-11 0 -18 4.5t-7 12.5q0 7 6 17l156 252q8 13 17 18.5t21 5.5h197q11 0 18 -4.5t7 -12.5q0 -6 -6 -17l-155 -252q-8 -13 -17 -18.5t-21 -5.5h-198z" glyph-name="ohungarumlaut" unicode="ő" vert-adv-y="1980"/>
<glyph d="M317.5 32.5q-102.5 58.5 -159 162.5t-56.5 236q0 159 78.5 292t210.5 211t285 78q131 0 234 -57.5t161 -160.5t58 -235q0 -160 -78.5 -294t-211 -212.5t-286.5 -78.5q-133 0 -235.5 58.5zM721 274q62 39 98.5 106t36.5 149q0 69 -26.5 119t-74 76.5t-108.5 26.5 q-74 0 -136.5 -39t-99 -106t-36.5 -148q0 -69 26.5 -119.5t74 -77t108.5 -26.5q75 0 137 39zM470 1292q-14 0 -20.5 8t-4.5 22l22 158q1 13 10.5 21.5t23.5 8.5h544q13 0 20.5 -8t5.5 -22l-22 -158q-2 -13 -11.5 -21.5t-23.5 -8.5h-544z" glyph-name="omacron" unicode="ō" vert-adv-y="1980"/>
<glyph d="M910 954.5q103 -57.5 161 -160.5t58 -235q0 -118 -44 -224t-123 -187t-180 -126v-5q-97 -38 -141.5 -77t-44.5 -88q0 -33 21.5 -56t65.5 -23q16 0 41 5v-174q-46 -21 -113 -21q-61 0 -116.5 22t-91 69.5t-35.5 120.5q0 108 93 187q-108 19 -189.5 80.5t-125.5 157 t-44 211.5q0 159 78.5 292t210.5 211t285 78q131 0 234 -57.5zM721 274q62 39 98.5 106t36.5 149q0 69 -26.5 119t-74 76.5t-108.5 26.5q-74 0 -136.5 -39t-99 -106t-36.5 -148q0 -69 26.5 -119.5t74 -77t108.5 -26.5q75 0 137 39z" glyph-name="uni01EB" unicode="ǫ" vert-adv-y="1980"/>
<glyph d="M972 912q75 -61 116 -151.5t41 -201.5q0 -160 -78.5 -294t-211 -212.5t-286.5 -78.5q-84 0 -156 24l-73 -116q-8 -12 -16.5 -17t-20.5 -5h-118q-24 0 -24 17q0 9 7 19l110 174q-77 62 -118.5 155t-41.5 206q0 159 78.5 292t210.5 211t285 78q87 0 163 -26l68 108 q14 22 37 22h117q24 0 24 -17q0 -9 -7 -19zM416 315l273 433q-21 3 -42 3q-74 0 -136.5 -39t-99 -106t-36.5 -148q0 -86 41 -143zM721 274q62 39 98.5 106t36.5 149q0 81 -38 138l-270 -429q16 -3 36 -3q75 0 137 39z" glyph-name="oslash" unicode="ø" vert-adv-y="1980"/>
<glyph d="M317.5 32.5q-102.5 58.5 -159 162.5t-56.5 236q0 159 78.5 292t210.5 211t285 78q131 0 234 -57.5t161 -160.5t58 -235q0 -160 -78.5 -294t-211 -212.5t-286.5 -78.5q-133 0 -235.5 58.5zM721 274q62 39 98.5 106t36.5 149q0 69 -26.5 119t-74 76.5t-108.5 26.5 q-74 0 -136.5 -39t-99 -106t-36.5 -148q0 -69 26.5 -119.5t74 -77t108.5 -26.5q75 0 137 39zM789.5 1220q-38.5 20 -85.5 59q-38 31 -66 46.5t-63 15.5q-36 0 -61.5 -16t-38.5 -40q-8 -16 -24 -16h-65q-8 0 -12.5 5t-4.5 13q0 6 1 9q27 101 93 152.5t155 51.5q57 0 95.5 -20 t86.5 -58q39 -32 66 -47t62 -15q36 0 61.5 16t38.5 39q8 16 24 16h66q9 0 13.5 -5.5t3.5 -14.5q-9 -69 -45.5 -116.5t-90.5 -71t-114 -23.5q-57 0 -95.5 20z" glyph-name="otilde" unicode="õ" vert-adv-y="1980"/>
<glyph d="M1149 921q61 -92 61 -252q0 -75 -12 -159q-9 -66 -27 -94t-61 -28h-401q-1 -96 36 -146t126 -50q48 0 88.5 15t84.5 48l91 -131q-64 -73 -144 -111.5t-172 -38.5q-188 0 -246 166q-105 -166 -281 -166q-134 0 -202 94.5t-68 267.5q0 73 12 158q34 244 137 381.5 t267 137.5q176 0 235 -167q104 167 281 167q134 0 195 -92zM793 734q-41 -55 -63 -166h273q7 54 7 83q0 70 -26 104t-80 34q-70 0 -111 -55zM535 603q0 95 -31 139t-87 44q-71 0 -120.5 -70.5t-71.5 -223.5q-9 -64 -9 -113q0 -183 118 -183q149 0 192 296q9 63 9 111z" glyph-name="oe" unicode="œ" vert-adv-y="1980"/>
<glyph d="M989.5 969.5q60.5 -42.5 93 -125t32.5 -198.5q0 -182 -82.5 -336t-234.5 -245t-352 -91q-58 0 -108 7l-48 -333q-4 -28 -32 -28h-220q-32 0 -28 32l188 1310q4 28 32 28h220q15 0 22.5 -8.5t5.5 -23.5l-40 -282h15q73 162 169 249t223 87q84 0 144.5 -42.5zM679 278 q78 49 119.5 129t41.5 172q0 94 -37 138t-92 44q-77 0 -141.5 -65t-110 -163t-71.5 -200l-11 -80q42 -24 120 -24q104 0 182 49z" glyph-name="p" unicode="p" vert-adv-y="1980"/>
<glyph d="M1047.5 916.5q71.5 -95.5 71.5 -270.5v-2q-1 -182 -83.5 -335t-234.5 -244t-351 -91h-1h-1q-57 0 -106 7l-48 -333q-4 -28 -32 -28h-220q-32 0 -28 32l62 427l-2 1l186 1292q4 28 32 28h219q15 0 22.5 -8.5t5.5 -23.5l-57 -398q2 -6 0 -12l-40 -282h13q73 162 169 249 t223 87h1h2q126 0 197.5 -95.5zM573.5 695q-64.5 -66 -110.5 -164.5t-71 -200.5l-11 -77q42 -24 121 -24q104 0 182 49t119.5 129t41.5 172q0 94 -37.5 138t-92.5 44q-77 0 -141.5 -66z" glyph-name="thorn" unicode="þ" vert-adv-y="1980"/>
<glyph d="M964 986q101 -26 160 -76l-180 -1269q-2 -12 -10 -16.5t-24 -4.5h-214q-15 0 -22.5 10.5t-5.5 27.5l85 652h-8q-70 -163 -161.5 -249.5t-217.5 -86.5q-130 0 -203.5 95.5t-73.5 270.5q0 183 82 336.5t233.5 244.5t351.5 91q107 0 208 -26zM653 308q69 83 113 201t60 221 q-47 27 -124 27q-103 0 -180 -48.5t-118 -129t-41 -172.5q0 -93 39.5 -137.5t97.5 -44.5q84 0 153 83z" glyph-name="q" unicode="q" vert-adv-y="1980"/>
<glyph d="M1172 240q17 -13 17 -33q0 -10 -5 -22q-37 -97 -121 -154t-191 -57q-74 0 -133.5 30.5t-94.5 92t-35 149.5q0 42 7 83l54 322q-43 -31 -101 -48.5t-122 -17.5q-16 0 -44 2l-39 -196q-6 -28 -32 -28h-208q-15 0 -22 8.5t-5 23.5l63 326q-49 70 -49 155q0 61 26 113.5 t71.5 84t102.5 31.5q62 0 102 -34.5t40 -88.5q0 -44 -26.5 -76.5t-67.5 -38.5q8 -18 33.5 -29t70.5 -11q85 0 157.5 39t102.5 99q10 25 34 25h212q15 0 22 -9t5 -24l-106 -631q-3 -19 -3 -38q0 -68 52 -68q54 0 97 85q9 16 23 16q10 0 23 -10z" glyph-name="r" unicode="r" vert-adv-y="1980"/>
<glyph d="M1172 240q17 -13 17 -33q0 -10 -5 -22q-37 -97 -121 -154t-191 -57q-74 0 -133.5 30.5t-94.5 92t-35 149.5q0 42 7 83l54 322q-43 -31 -101 -48.5t-122 -17.5q-16 0 -44 2l-39 -196q-6 -28 -32 -28h-208q-15 0 -22 8.5t-5 23.5l63 326q-49 70 -49 155q0 61 26 113.5 t71.5 84t102.5 31.5q62 0 102 -34.5t40 -88.5q0 -44 -26.5 -76.5t-67.5 -38.5q8 -18 33.5 -29t70.5 -11q85 0 157.5 39t102.5 99q10 25 34 25h212q15 0 22 -9t5 -24l-106 -631q-3 -19 -3 -38q0 -68 52 -68q54 0 97 85q9 16 23 16q10 0 23 -10zM612 1200q-11 0 -18 4.5 t-7 12.5q0 7 6 17l156 252q8 13 17 18.5t21 5.5h197q11 0 18 -4.5t7 -12.5q0 -6 -6 -17l-155 -252q-8 -13 -17 -18.5t-21 -5.5h-198z" glyph-name="racute" unicode="ŕ" vert-adv-y="1980"/>
<glyph d="M1172 240q17 -13 17 -33q0 -10 -5 -22q-37 -97 -121 -154t-191 -57q-74 0 -133.5 30.5t-94.5 92t-35 149.5q0 42 7 83l54 322q-43 -31 -101 -48.5t-122 -17.5q-16 0 -44 2l-39 -196q-6 -28 -32 -28h-208q-15 0 -22 8.5t-5 23.5l63 326q-49 70 -49 155q0 61 26 113.5 t71.5 84t102.5 31.5q62 0 102 -34.5t40 -88.5q0 -44 -26.5 -76.5t-67.5 -38.5q8 -18 33.5 -29t70.5 -11q85 0 157.5 39t102.5 99q10 25 34 25h212q15 0 22 -9t5 -24l-106 -631q-3 -19 -3 -38q0 -68 52 -68q54 0 97 85q9 16 23 16q10 0 23 -10zM604 1191q-12 0 -19.5 3 t-14.5 13l-186 267q-6 9 -6 16q0 9 8 14.5t21 5.5h223q22 0 34 -16l108 -151l152 151q16 16 38 16h225q24 0 24 -15q0 -10 -11 -21l-262 -267q-11 -10 -19 -13t-19 -3h-296z" glyph-name="rcaron" unicode="ř" vert-adv-y="1980"/>
<glyph d="M1172 240q17 -13 17 -33q0 -10 -5 -22q-37 -97 -121 -154t-191 -57q-74 0 -133.5 30.5t-94.5 92t-35 149.5q0 42 7 83l54 322q-43 -31 -101 -48.5t-122 -17.5q-16 0 -44 2l-39 -196q-6 -28 -32 -28h-208q-15 0 -22 8.5t-5 23.5l63 326q-49 70 -49 155q0 61 26 113.5 t71.5 84t102.5 31.5q62 0 102 -34.5t40 -88.5q0 -44 -26.5 -76.5t-67.5 -38.5q8 -18 33.5 -29t70.5 -11q85 0 157.5 39t102.5 99q10 25 34 25h212q15 0 22 -9t5 -24l-106 -631q-3 -19 -3 -38q0 -68 52 -68q54 0 97 85q9 16 23 16q10 0 23 -10zM727 -180q12 0 18.5 -7.5 t5.5 -19.5l-14 -91q-18 -129 -44 -241.5t-55 -183.5q-8 -20 -36 -20h-142q-12 0 -17.5 4.5t-5.5 13.5q0 7 1 11q40 161 61 323h-236q-12 0 -18.5 7.5t-4.5 19.5l23 157q1 12 9.5 19.5t20.5 7.5h434z" glyph-name="uni0157" unicode="ŗ" vert-adv-y="1980"/>
<glyph d="M914 1013q0 -64 15 -119.5t36.5 -98.5t58.5 -106q34 -58 54.5 -98t34 -88.5t13.5 -103.5q0 -126 -74 -222.5t-202 -149.5t-287 -53q-143 0 -246 43.5t-156 118t-53 166.5q0 34 7 66q4 26 33 26h209q30 0 28 -31q-2 -38 22 -69t71 -49.5t113 -18.5q81 0 141 27t91.5 77 t31.5 116q0 51 -16.5 91.5t-50.5 98.5q-29 51 -44.5 83.5t-24.5 74.5l-222 -242q-16 -18 -44 -18q-47 0 -100 52q-50 47 -50 93q0 28 19 49l259 269q16 16 37 16h296z" glyph-name="s" unicode="s" vert-adv-y="1980"/>
<glyph d="M914 1013q0 -64 15 -119.5t36.5 -98.5t58.5 -106q34 -58 54.5 -98t34 -88.5t13.5 -103.5q0 -126 -74 -222.5t-202 -149.5t-287 -53q-143 0 -246 43.5t-156 118t-53 166.5q0 34 7 66q4 26 33 26h209q30 0 28 -31q-2 -38 22 -69t71 -49.5t113 -18.5q81 0 141 27t91.5 77 t31.5 116q0 51 -16.5 91.5t-50.5 98.5q-29 51 -44.5 83.5t-24.5 74.5l-222 -242q-16 -18 -44 -18q-47 0 -100 52q-50 47 -50 93q0 28 19 49l259 269q16 16 37 16h296zM589 1200q-11 0 -18 4.5t-7 12.5q0 7 6 17l156 252q8 13 17 18.5t21 5.5h197q11 0 18 -4.5t7 -12.5 q0 -6 -6 -17l-155 -252q-8 -13 -17 -18.5t-21 -5.5h-198z" glyph-name="sacute" unicode="ś" vert-adv-y="1980"/>
<glyph d="M914 1013q0 -64 15 -119.5t36.5 -98.5t58.5 -106q34 -58 54.5 -98t34 -88.5t13.5 -103.5q0 -126 -74 -222.5t-202 -149.5t-287 -53q-143 0 -246 43.5t-156 118t-53 166.5q0 34 7 66q4 26 33 26h209q30 0 28 -31q-2 -38 22 -69t71 -49.5t113 -18.5q81 0 141 27t91.5 77 t31.5 116q0 51 -16.5 91.5t-50.5 98.5q-29 51 -44.5 83.5t-24.5 74.5l-222 -242q-16 -18 -44 -18q-47 0 -100 52q-50 47 -50 93q0 28 19 49l259 269q16 16 37 16h296zM581 1191q-12 0 -19.5 3t-14.5 13l-186 267q-6 9 -6 16q0 9 8 14.5t21 5.5h223q22 0 34 -16l108 -151 l152 151q16 16 38 16h225q24 0 24 -15q0 -10 -11 -21l-262 -267q-11 -10 -19 -13t-19 -3h-296z" glyph-name="scaron" unicode="š" vert-adv-y="1980"/>
<glyph d="M1056.5 181.5q-69.5 -94.5 -191.5 -148.5t-275 -59l-51 -40q66 -6 113 -44t47 -100q0 -75 -41.5 -127t-111 -78.5t-152.5 -26.5q-44 0 -83 7q-18 3 -15 22l13 98q2 9 9 15t16 5q33 -5 59 -5q50 0 82 15t32 44q0 18 -22 31.5t-56 13.5q-37 0 -80 -17q-4 -2 -10 -2 q-14 0 -12 16l13 103q1 13 14 24l70 58q-101 19 -172 64.5t-107.5 110.5t-36.5 141q0 35 7 66q4 26 33 26h209q30 0 28 -31q-2 -38 22 -69t71 -49.5t113 -18.5q81 0 141 27t91.5 77t31.5 116q0 51 -16.5 91.5t-50.5 98.5q-29 51 -44.5 83.5t-24.5 74.5l-222 -242 q-16 -18 -44 -18q-47 0 -100 52q-50 47 -50 93q0 28 19 49l259 269q16 16 37 16h296q0 -64 15 -119.5t36.5 -98.5t58.5 -106q34 -58 54.5 -98t34 -88.5t13.5 -103.5q0 -123 -69.5 -217.5z" glyph-name="scedilla" unicode="ş" vert-adv-y="1980"/>
<glyph d="M914 1013q0 -64 15 -119.5t36.5 -98.5t58.5 -106q34 -58 54.5 -98t34 -88.5t13.5 -103.5q0 -126 -74 -222.5t-202 -149.5t-287 -53q-143 0 -246 43.5t-156 118t-53 166.5q0 34 7 66q4 26 33 26h209q30 0 28 -31q-2 -38 22 -69t71 -49.5t113 -18.5q81 0 141 27t91.5 77 t31.5 116q0 51 -16.5 91.5t-50.5 98.5q-29 51 -44.5 83.5t-24.5 74.5l-222 -242q-16 -18 -44 -18q-47 0 -100 52q-50 47 -50 93q0 28 19 49l259 269q16 16 37 16h296zM707 -180q12 0 18.5 -7.5t5.5 -19.5l-14 -91q-18 -129 -44 -241.5t-55 -183.5q-8 -20 -36 -20h-142 q-12 0 -17.5 4.5t-5.5 13.5q0 7 1 11q40 161 61 323h-236q-12 0 -18.5 7.5t-4.5 19.5l23 157q1 12 9.5 19.5t20.5 7.5h434z" glyph-name="uni0219" unicode="ș" vert-adv-y="1980"/>
<glyph d="M961 680q20 -26 65 -66q44 -38 72 -69.5t48 -78.5t20 -110q0 -115 -69.5 -195.5t-189 -120.5t-269.5 -40h-86q-13 0 -20 8.5t-5 21.5l22 158q2 14 11.5 22t22.5 8h66q129 0 182.5 42t53.5 106q0 36 -15.5 66t-38 53t-60.5 55q-37 31 -59.5 53.5t-37.5 51.5t-15 64 q0 41 19.5 74t57.5 77q41 48 62 84.5t21 83.5q0 55 -35.5 86t-108.5 31q-79 0 -125 -40t-59 -132l-186 -1324q-2 -14 -11.5 -22t-23.5 -8h-222q-14 0 -20.5 8t-4.5 22l150 1064h-94q-13 0 -20.5 8t-5.5 22l24 167q2 14 12 22t23 8h92l7 47q19 136 87 228.5t174 138.5t240 46 q118 0 208 -35t140 -104t50 -169q0 -57 -15.5 -101t-36 -73t-54.5 -66q-33 -35 -48 -59t-15 -53q0 -34 20 -60z" glyph-name="germandbls" unicode="ß" vert-adv-y="1980"/>
<glyph d="M1145.5 1469.5q69.5 -13.5 112.5 -42t36 -71.5l-17 -105q-7 -41 -42 -41q-5 0 -21 4q-37 11 -75.5 19t-94.5 8q-113 0 -166 -43t-65 -135l-133 -1060q-27 -212 -149 -302.5t-288 -90.5q-81 0 -145.5 19t-99 50.5t-29.5 66.5l17 109q3 19 14 28.5t25 9.5q4 0 14 -2l31 -10 q42 -13 71.5 -20t64.5 -7q78 0 133 48t69 156l77 630h-302q-15 0 -22.5 8.5t-5.5 23.5l25 167q4 28 32 28h301l25 202q24 194 152.5 280t311.5 86q74 0 143.5 -13.5z" glyph-name="longs" unicode="ſ" vert-adv-y="1980"/>
<glyph d="M1144 344q21 -8 21 -29q0 -8 -4 -22q-47 -159 -165.5 -239t-273.5 -80q-101 0 -189 35.5t-143.5 114t-55.5 200.5q0 39 6 82l51 355h-266q-15 0 -22.5 8.5t-5.5 23.5l25 169q2 15 10.5 21.5t24.5 6.5h267l46 322q4 28 32 28h221q15 0 22.5 -8.5t5.5 -23.5l-46 -318h400 q16 0 24 -8.5t6 -23.5l-26 -169q-4 -28 -32 -28h-405l-50 -346q-4 -34 -4 -46q0 -79 43 -115t106 -36q71 0 117.5 43.5t76.5 120.5q8 21 25 21q8 0 21 -5z" glyph-name="t" unicode="t" vert-adv-y="1980"/>
<glyph d="M1144 344q21 -8 21 -29q0 -8 -4 -22q-47 -159 -165.5 -239t-273.5 -80q-101 0 -189 35.5t-143.5 114t-55.5 200.5q0 39 6 82l5 33h-265q-15 0 -22.5 8.5t-5.5 23.5l25 169q4 28 32 28h269l13 93h-266q-15 0 -22.5 8.5t-5.5 23.5l25 169q2 15 10.5 21.5t24.5 6.5h267 l46 322q4 28 32 28h221q15 0 22.5 -8.5t5.5 -23.5l-46 -318h400q16 0 24 -8.5t6 -23.5l-26 -169q-4 -28 -32 -28h-405l-13 -93h407q15 0 22.5 -8.5t5.5 -23.5l-26 -169q-4 -28 -32 -28h-411l-3 -24q-4 -34 -4 -46q0 -79 43 -115t106 -36q71 0 117.5 43.5t76.5 120.5 q8 21 25 21q8 0 21 -5z" glyph-name="tbar" unicode="ŧ" vert-adv-y="1980"/>
<glyph d="M1144 344q21 -8 21 -29q0 -8 -4 -22q-47 -159 -165.5 -239t-273.5 -80q-101 0 -189 35.5t-143.5 114t-55.5 200.5q0 39 6 82l51 355h-266q-15 0 -22.5 8.5t-5.5 23.5l25 169q2 15 10.5 21.5t24.5 6.5h267l46 322q4 28 32 28h221q15 0 22.5 -8.5t5.5 -23.5l-46 -318h400 q16 0 24 -8.5t6 -23.5l-26 -169q-4 -28 -32 -28h-405l-50 -346q-4 -34 -4 -46q0 -79 43 -115t106 -36q71 0 117.5 43.5t76.5 120.5q8 21 25 21q8 0 21 -5zM991 1330q-11 0 -18 4.5t-7 12.5q0 7 6 17l156 252q8 13 17 18.5t21 5.5h197q11 0 18 -4.5t7 -12.5q0 -6 -6 -17 l-155 -252q-8 -13 -17 -18.5t-21 -5.5h-198z" glyph-name="tcaron" unicode="ť" vert-adv-y="1980"/>
<glyph d="M1144 344q21 -8 21 -29q0 -8 -4 -22q-47 -159 -165.5 -239t-273.5 -80h-20l-51 -40q66 -6 113 -44t47 -100q0 -75 -41.5 -127t-111 -78.5t-152.5 -26.5q-44 0 -83 7q-18 3 -15 22l13 98q2 9 9 15t16 5q33 -5 59 -5q50 0 82 15t32 44q0 18 -22 31.5t-56 13.5 q-38 0 -80 -17q-4 -2 -10 -2q-14 0 -12 16l13 103q1 13 14 24l87 72h4q-101 35 -162 115t-61 209q0 39 6 82l51 355h-266q-15 0 -22.5 8.5t-5.5 23.5l25 169q2 15 10.5 21.5t24.5 6.5h267l46 322q4 28 32 28h221q15 0 22.5 -8.5t5.5 -23.5l-46 -318h400q16 0 24 -8.5 t6 -23.5l-26 -169q-4 -28 -32 -28h-405l-50 -346q-4 -34 -4 -46q0 -79 43 -115t106 -36q71 0 117.5 43.5t76.5 120.5q8 21 25 21q8 0 21 -5z" glyph-name="uni0163" unicode="ţ" vert-adv-y="1980"/>
<glyph d="M1144 344q21 -8 21 -29q0 -8 -4 -22q-47 -159 -165.5 -239t-273.5 -80q-101 0 -189 35.5t-143.5 114t-55.5 200.5q0 39 6 82l51 355h-266q-15 0 -22.5 8.5t-5.5 23.5l25 169q2 15 10.5 21.5t24.5 6.5h267l46 322q4 28 32 28h221q15 0 22.5 -8.5t5.5 -23.5l-46 -318h400 q16 0 24 -8.5t6 -23.5l-26 -169q-4 -28 -32 -28h-405l-50 -346q-4 -34 -4 -46q0 -79 43 -115t106 -36q71 0 117.5 43.5t76.5 120.5q8 21 25 21q8 0 21 -5zM885 -180q12 0 18.5 -7.5t5.5 -19.5l-14 -91q-18 -129 -44 -241.5t-55 -183.5q-8 -20 -36 -20h-142q-12 0 -17.5 4.5 t-5.5 13.5q0 7 1 11q40 161 61 323h-236q-12 0 -18.5 7.5t-4.5 19.5l23 157q1 12 9.5 19.5t20.5 7.5h434z" glyph-name="uni021B" unicode="ț" vert-adv-y="1980"/>
<glyph d="M251.5 10.5q-56.5 32.5 -89.5 96.5t-33 154q0 52 12 113l59 292q8 37 8 63t-10.5 40t-35.5 14q-16 0 -33 -4q-3 -1 -9 -1q-14 0 -23 11t-9 32q0 10 3 23q7 41 32.5 77.5t66 59.5t92.5 23q58 0 105.5 -26t76 -75t28.5 -114q0 -32 -7 -64l-54 -272q-8 -39 -8 -78 q0 -66 27.5 -101t73.5 -35q100 0 183 175t139 548q4 28 32 28h220q32 0 28 -32l-90 -633q-1 -9 -4 -30t-3 -35q0 -26 10 -39.5t36 -13.5q15 0 31 4q3 1 9 1q14 0 22.5 -11t8.5 -32q0 -6 -2 -22q-8 -41 -33.5 -77.5t-66 -59.5t-91.5 -23q-59 0 -106 27t-74 78.5t-27 121.5 q0 28 4 52l9 58h-23q-57 -154 -146 -250t-213 -96q-69 0 -125.5 32.5z" glyph-name="u" unicode="u" vert-adv-y="1980"/>
<glyph d="M251.5 10.5q-56.5 32.5 -89.5 96.5t-33 154q0 52 12 113l59 292q8 37 8 63t-10.5 40t-35.5 14q-16 0 -33 -4q-3 -1 -9 -1q-14 0 -23 11t-9 32q0 10 3 23q7 41 32.5 77.5t66 59.5t92.5 23q58 0 105.5 -26t76 -75t28.5 -114q0 -32 -7 -64l-54 -272q-8 -39 -8 -78 q0 -66 27.5 -101t73.5 -35q100 0 183 175t139 548q4 28 32 28h220q32 0 28 -32l-90 -633q-1 -9 -4 -30t-3 -35q0 -26 10 -39.5t36 -13.5q15 0 31 4q3 1 9 1q14 0 22.5 -11t8.5 -32q0 -6 -2 -22q-8 -41 -33.5 -77.5t-66 -59.5t-91.5 -23q-59 0 -106 27t-74 78.5t-27 121.5 q0 28 4 52l9 58h-23q-57 -154 -146 -250t-213 -96q-69 0 -125.5 32.5zM582 1190q-11 0 -18 4.5t-7 12.5q0 7 6 17l156 252q8 13 17 18.5t21 5.5h197q11 0 18 -4.5t7 -12.5q0 -6 -6 -17l-155 -252q-8 -13 -17 -18.5t-21 -5.5h-198z" glyph-name="uacute" unicode="ú" vert-adv-y="1980"/>
<glyph d="M251.5 10.5q-56.5 32.5 -89.5 96.5t-33 154q0 52 12 113l59 292q8 37 8 63t-10.5 40t-35.5 14q-16 0 -33 -4q-3 -1 -9 -1q-14 0 -23 11t-9 32q0 10 3 23q7 41 32.5 77.5t66 59.5t92.5 23q58 0 105.5 -26t76 -75t28.5 -114q0 -32 -7 -64l-54 -272q-8 -39 -8 -78 q0 -66 27.5 -101t73.5 -35q100 0 183 175t139 548q4 28 32 28h220q32 0 28 -32l-90 -633q-1 -9 -4 -30t-3 -35q0 -26 10 -39.5t36 -13.5q15 0 31 4q3 1 9 1q14 0 22.5 -11t8.5 -32q0 -6 -2 -22q-8 -41 -33.5 -77.5t-66 -59.5t-91.5 -23q-59 0 -106 27t-74 78.5t-27 121.5 q0 28 4 52l9 58h-23q-57 -154 -146 -250t-213 -96q-69 0 -125.5 32.5zM519 1215q-69 39 -103 105.5t-31 147.5q1 15 10 23.5t25 8.5h119q25 0 28 -30q2 -29 18.5 -56t47.5 -43.5t74 -16.5q63 0 105 34t61 82q10 30 36 30h125q26 0 26 -21q0 -7 -1 -11q-19 -82 -69 -148 t-127.5 -105t-175.5 -39q-99 0 -168 39z" glyph-name="ubreve" unicode="ŭ" vert-adv-y="1980"/>
<glyph d="M251.5 10.5q-56.5 32.5 -89.5 96.5t-33 154q0 52 12 113l59 292q8 37 8 63t-10.5 40t-35.5 14q-16 0 -33 -4q-3 -1 -9 -1q-14 0 -23 11t-9 32q0 10 3 23q7 41 32.5 77.5t66 59.5t92.5 23q58 0 105.5 -26t76 -75t28.5 -114q0 -32 -7 -64l-54 -272q-8 -39 -8 -78 q0 -66 27.5 -101t73.5 -35q100 0 183 175t139 548q4 28 32 28h220q32 0 28 -32l-90 -633q-1 -9 -4 -30t-3 -35q0 -26 10 -39.5t36 -13.5q15 0 31 4q3 1 9 1q14 0 22.5 -11t8.5 -32q0 -6 -2 -22q-8 -41 -33.5 -77.5t-66 -59.5t-91.5 -23q-59 0 -106 27t-74 78.5t-27 121.5 q0 28 4 52l9 58h-23q-57 -154 -146 -250t-213 -96q-69 0 -125.5 32.5zM574 1181q-12 0 -19.5 3t-14.5 13l-186 267q-6 9 -6 16q0 9 8 14.5t21 5.5h223q22 0 34 -16l108 -151l152 151q16 16 38 16h225q24 0 24 -15q0 -10 -11 -21l-262 -267q-11 -10 -19 -13t-19 -3h-296z" glyph-name="uni01D4" unicode="ǔ" vert-adv-y="1980"/>
<glyph d="M251.5 10.5q-56.5 32.5 -89.5 96.5t-33 154q0 52 12 113l59 292q8 37 8 63t-10.5 40t-35.5 14q-16 0 -33 -4q-3 -1 -9 -1q-14 0 -23 11t-9 32q0 10 3 23q7 41 32.5 77.5t66 59.5t92.5 23q58 0 105.5 -26t76 -75t28.5 -114q0 -32 -7 -64l-54 -272q-8 -39 -8 -78 q0 -66 27.5 -101t73.5 -35q100 0 183 175t139 548q4 28 32 28h220q32 0 28 -32l-90 -633q-1 -9 -4 -30t-3 -35q0 -26 10 -39.5t36 -13.5q15 0 31 4q3 1 9 1q14 0 22.5 -11t8.5 -32q0 -6 -2 -22q-8 -41 -33.5 -77.5t-66 -59.5t-91.5 -23q-59 0 -106 27t-74 78.5t-27 121.5 q0 28 4 52l9 58h-23q-57 -154 -146 -250t-213 -96q-69 0 -125.5 32.5zM366 1181q-24 0 -24 15q0 10 11 21l263 267q10 10 18 13t20 3h295q12 0 19.5 -3t14.5 -13l186 -267q6 -9 6 -16q0 -9 -8 -14.5t-21 -5.5h-223q-22 0 -34 16l-107 151l-152 -151q-16 -16 -38 -16h-226z " glyph-name="ucircumflex" unicode="û" vert-adv-y="1980"/>
<glyph d="M251.5 10.5q-56.5 32.5 -89.5 96.5t-33 154q0 52 12 113l59 292q8 37 8 63t-10.5 40t-35.5 14q-16 0 -33 -4q-3 -1 -9 -1q-14 0 -23 11t-9 32q0 10 3 23q7 41 32.5 77.5t66 59.5t92.5 23q58 0 105.5 -26t76 -75t28.5 -114q0 -32 -7 -64l-54 -272q-8 -39 -8 -78 q0 -66 27.5 -101t73.5 -35q100 0 183 175t139 548q4 28 32 28h220q32 0 28 -32l-90 -633q-1 -9 -4 -30t-3 -35q0 -26 10 -39.5t36 -13.5q15 0 31 4q3 1 9 1q14 0 22.5 -11t8.5 -32q0 -6 -2 -22q-8 -41 -33.5 -77.5t-66 -59.5t-91.5 -23q-59 0 -106 27t-74 78.5t-27 121.5 q0 28 4 52l9 58h-23q-57 -154 -146 -250t-213 -96q-69 0 -125.5 32.5zM415.5 1235q-32.5 19 -51.5 51.5t-19 72.5q0 39 19 71t51.5 51t70.5 19t70.5 -19t51.5 -51t19 -71q0 -40 -19 -72.5t-51.5 -51.5t-70.5 -19t-70.5 19zM858.5 1235q-32.5 19 -51.5 51.5t-19 72.5 q0 39 19 71t51.5 51t70.5 19t70.5 -19t51.5 -51t19 -71q0 -40 -19 -72.5t-51.5 -51.5t-70.5 -19t-70.5 19z" glyph-name="udieresis" unicode="ü" vert-adv-y="1980"/>
<glyph d="M251.5 10.5q-56.5 32.5 -89.5 96.5t-33 154q0 52 12 113l59 292q8 37 8 63t-10.5 40t-35.5 14q-16 0 -33 -4q-3 -1 -9 -1q-14 0 -23 11t-9 32q0 10 3 23q7 41 32.5 77.5t66 59.5t92.5 23q58 0 105.5 -26t76 -75t28.5 -114q0 -32 -7 -64l-54 -272q-8 -39 -8 -78 q0 -66 27.5 -101t73.5 -35q100 0 183 175t139 548q4 28 32 28h220q32 0 28 -32l-90 -633q-1 -9 -4 -30t-3 -35q0 -26 10 -39.5t36 -13.5q15 0 31 4q3 1 9 1q14 0 22.5 -11t8.5 -32q0 -6 -2 -22q-8 -41 -33.5 -77.5t-66 -59.5t-91.5 -23q-59 0 -106 27t-74 78.5t-27 121.5 q0 28 4 52l9 58h-23q-57 -154 -146 -250t-213 -96q-69 0 -125.5 32.5zM609 1190q-12 0 -21 5.5t-17 18.5l-156 252q-6 11 -6 17q0 8 7 12.5t18 4.5h198q12 0 21 -5.5t17 -18.5l155 -252q6 -10 6 -17q0 -8 -7 -12.5t-18 -4.5h-197z" glyph-name="ugrave" unicode="ù" vert-adv-y="1980"/>
<glyph d="M251.5 10.5q-56.5 32.5 -89.5 96.5t-33 154q0 52 12 113l59 292q8 37 8 63t-10.5 40t-35.5 14q-16 0 -33 -4q-3 -1 -9 -1q-14 0 -23 11t-9 32q0 10 3 23q7 41 32.5 77.5t66 59.5t92.5 23q58 0 105.5 -26t76 -75t28.5 -114q0 -32 -7 -64l-54 -272q-8 -39 -8 -78 q0 -66 27.5 -101t73.5 -35q100 0 183 175t139 548q4 28 32 28h220q32 0 28 -32l-90 -633q-1 -9 -4 -30t-3 -35q0 -26 10 -39.5t36 -13.5q15 0 31 4q3 1 9 1q14 0 22.5 -11t8.5 -32q0 -6 -2 -22q-8 -41 -33.5 -77.5t-66 -59.5t-91.5 -23q-59 0 -106 27t-74 78.5t-27 121.5 q0 28 4 52l9 58h-23q-57 -154 -146 -250t-213 -96q-69 0 -125.5 32.5zM765 1190q-11 0 -18 4.5t-7 12.5q0 7 6 17l156 252q8 13 17 18.5t21 5.5h197q11 0 18 -4.5t7 -12.5q0 -6 -6 -17l-155 -252q-8 -13 -17 -18.5t-21 -5.5h-198zM387 1190q-11 0 -18 4.5t-7 12.5q0 7 6 17 l156 252q8 13 17 18.5t21 5.5h197q11 0 18 -4.5t7 -12.5q0 -6 -6 -17l-155 -252q-8 -13 -17 -18.5t-21 -5.5h-198z" glyph-name="uhungarumlaut" unicode="ű" vert-adv-y="1980"/>
<glyph d="M251.5 10.5q-56.5 32.5 -89.5 96.5t-33 154q0 52 12 113l59 292q8 37 8 63t-10.5 40t-35.5 14q-16 0 -33 -4q-3 -1 -9 -1q-14 0 -23 11t-9 32q0 10 3 23q7 41 32.5 77.5t66 59.5t92.5 23q58 0 105.5 -26t76 -75t28.5 -114q0 -32 -7 -64l-54 -272q-8 -39 -8 -78 q0 -66 27.5 -101t73.5 -35q100 0 183 175t139 548q4 28 32 28h220q32 0 28 -32l-90 -633q-1 -9 -4 -30t-3 -35q0 -26 10 -39.5t36 -13.5q15 0 31 4q3 1 9 1q14 0 22.5 -11t8.5 -32q0 -6 -2 -22q-8 -41 -33.5 -77.5t-66 -59.5t-91.5 -23q-59 0 -106 27t-74 78.5t-27 121.5 q0 28 4 52l9 58h-23q-57 -154 -146 -250t-213 -96q-69 0 -125.5 32.5zM424 1282q-14 0 -20.5 8t-4.5 22l22 158q1 13 10.5 21.5t23.5 8.5h544q13 0 20.5 -8t5.5 -22l-22 -158q-2 -13 -11.5 -21.5t-23.5 -8.5h-544z" glyph-name="umacron" unicode="ū" vert-adv-y="1980"/>
<glyph d="M1115 212q14 0 22.5 -11t8.5 -32q0 -6 -2 -22q-9 -49 -42.5 -90t-83.5 -59v-1q-70 -17 -111.5 -56.5t-41.5 -89.5q0 -33 21 -55.5t65 -22.5q17 0 42 5v-174q-46 -21 -113 -21q-62 0 -117.5 22t-91 69.5t-35.5 120.5q0 80 48 143t125 106q-30 29 -46.5 72t-16.5 97 q0 29 4 53l9 58h-23q-57 -154 -146 -250t-213 -96q-69 0 -125.5 32.5t-89.5 96.5t-33 154q0 52 12 113l59 292q8 37 8 63t-10.5 40t-35.5 14q-16 0 -33 -4q-3 -1 -9 -1q-14 0 -23 11t-9 32q0 10 3 23q7 41 32.5 77.5t66 59.5t92.5 23q58 0 105.5 -26t76 -75t28.5 -114 q0 -32 -7 -64l-54 -272q-8 -39 -8 -78q0 -66 27.5 -101t73.5 -35q100 0 183 175t139 548q4 28 32 28h220q32 0 28 -32l-90 -633q-1 -9 -4 -30t-3 -35q0 -26 10 -39.5t36 -13.5q15 0 31 4q3 1 9 1z" glyph-name="uogonek" unicode="ų" vert-adv-y="1980"/>
<glyph d="M251.5 10.5q-56.5 32.5 -89.5 96.5t-33 154q0 52 12 113l59 292q8 37 8 63t-10.5 40t-35.5 14q-16 0 -33 -4q-3 -1 -9 -1q-14 0 -23 11t-9 32q0 10 3 23q7 41 32.5 77.5t66 59.5t92.5 23q58 0 105.5 -26t76 -75t28.5 -114q0 -32 -7 -64l-54 -272q-8 -39 -8 -78 q0 -66 27.5 -101t73.5 -35q100 0 183 175t139 548q4 28 32 28h220q32 0 28 -32l-90 -633q-1 -9 -4 -30t-3 -35q0 -26 10 -39.5t36 -13.5q15 0 31 4q3 1 9 1q14 0 22.5 -11t8.5 -32q0 -6 -2 -22q-8 -41 -33.5 -77.5t-66 -59.5t-91.5 -23q-59 0 -106 27t-74 78.5t-27 121.5 q0 28 4 52l9 58h-23q-57 -154 -146 -250t-213 -96q-69 0 -125.5 32.5zM662.5 1120.5q-47.5 27.5 -74.5 74t-27 100.5q0 55 27 102.5t74.5 75t105.5 27.5q56 0 103 -27.5t74 -75t27 -102.5q0 -54 -27 -100.5t-74 -74t-103 -27.5q-58 0 -105.5 27.5zM810 1254q18 15 18 39 q0 28 -17 45.5t-43 17.5q-27 0 -44 -16t-17 -42q0 -27 17 -43t44 -16q24 0 42 15z" glyph-name="uring" unicode="ů" vert-adv-y="1980"/>
<glyph d="M199.5 23q-61.5 49 -61.5 146q0 30 6 66l78 431q8 48 8 64q0 26 -10.5 39.5t-35.5 13.5q-16 0 -32 -4q-3 -1 -8 -1q-14 0 -23 11.5t-9 33.5q0 5 2 21q8 41 34 77.5t69 59.5t97 23q57 0 102.5 -26.5t71.5 -75.5t26 -114q0 -30 -6 -63l-90 -501q102 -2 208 104t175.5 278.5 t69.5 357.5q0 13 9 19.5t23 6.5h238q15 0 20.5 -8t5.5 -26q0 -231 -103.5 -460t-284 -375.5t-397.5 -146.5q-121 0 -182.5 49z" glyph-name="v" unicode="v" vert-adv-y="1980"/>
<glyph d="M204.5 8.5q-56.5 34.5 -86 95t-29.5 138.5q0 31 7 76l58 348q8 50 8 68q0 24 -9.5 36.5t-33.5 12.5q-15 0 -32 -4q-3 -1 -8 -1q-14 0 -23 11t-9 32q0 10 3 23q7 41 33.5 77.5t69 59.5t96.5 23q86 0 137 -57t51 -156q0 -31 -6 -66l-63 -386q-3 -15 -3 -30q0 -32 14.5 -51 t44.5 -19q35 0 55.5 27.5t26.5 73.5l90 622q4 28 32 28h171q32 0 28 -32l-90 -624q-3 -16 -3 -32q0 -28 10 -45.5t29 -17.5q48 0 90 104.5t66.5 271.5t24.5 345q0 15 8 22.5t22 7.5h204q14 0 22 -7.5t8 -22.5q0 -256 -45 -480.5t-140 -365t-238 -140.5q-78 0 -127 44 t-60 127h-20q-42 -89 -104.5 -130t-143.5 -41q-79 0 -135.5 34.5z" glyph-name="w" unicode="w" vert-adv-y="1980"/>
<glyph d="M204.5 8.5q-56.5 34.5 -86 95t-29.5 138.5q0 31 7 76l58 348q8 50 8 68q0 24 -9.5 36.5t-33.5 12.5q-15 0 -32 -4q-3 -1 -8 -1q-14 0 -23 11t-9 32q0 10 3 23q7 41 33.5 77.5t69 59.5t96.5 23q86 0 137 -57t51 -156q0 -31 -6 -66l-63 -386q-3 -15 -3 -30q0 -32 14.5 -51 t44.5 -19q35 0 55.5 27.5t26.5 73.5l90 622q4 28 32 28h171q32 0 28 -32l-90 -624q-3 -16 -3 -32q0 -28 10 -45.5t29 -17.5q48 0 90 104.5t66.5 271.5t24.5 345q0 15 8 22.5t22 7.5h204q14 0 22 -7.5t8 -22.5q0 -256 -45 -480.5t-140 -365t-238 -140.5q-78 0 -127 44 t-60 127h-20q-42 -89 -104.5 -130t-143.5 -41q-79 0 -135.5 34.5zM611 1190q-11 0 -18 4.5t-7 12.5q0 7 6 17l156 252q8 13 17 18.5t21 5.5h197q11 0 18 -4.5t7 -12.5q0 -6 -6 -17l-155 -252q-8 -13 -17 -18.5t-21 -5.5h-198z" glyph-name="wacute" unicode="ẃ" vert-adv-y="1980"/>
<glyph d="M204.5 8.5q-56.5 34.5 -86 95t-29.5 138.5q0 31 7 76l58 348q8 50 8 68q0 24 -9.5 36.5t-33.5 12.5q-15 0 -32 -4q-3 -1 -8 -1q-14 0 -23 11t-9 32q0 10 3 23q7 41 33.5 77.5t69 59.5t96.5 23q86 0 137 -57t51 -156q0 -31 -6 -66l-63 -386q-3 -15 -3 -30q0 -32 14.5 -51 t44.5 -19q35 0 55.5 27.5t26.5 73.5l90 622q4 28 32 28h171q32 0 28 -32l-90 -624q-3 -16 -3 -32q0 -28 10 -45.5t29 -17.5q48 0 90 104.5t66.5 271.5t24.5 345q0 15 8 22.5t22 7.5h204q14 0 22 -7.5t8 -22.5q0 -256 -45 -480.5t-140 -365t-238 -140.5q-78 0 -127 44 t-60 127h-20q-42 -89 -104.5 -130t-143.5 -41q-79 0 -135.5 34.5zM395 1181q-24 0 -24 15q0 10 11 21l263 267q10 10 18 13t20 3h295q12 0 19.5 -3t14.5 -13l186 -267q6 -9 6 -16q0 -9 -8 -14.5t-21 -5.5h-223q-22 0 -34 16l-107 151l-152 -151q-16 -16 -38 -16h-226z" glyph-name="wcircumflex" unicode="ŵ" vert-adv-y="1980"/>
<glyph d="M204.5 8.5q-56.5 34.5 -86 95t-29.5 138.5q0 31 7 76l58 348q8 50 8 68q0 24 -9.5 36.5t-33.5 12.5q-15 0 -32 -4q-3 -1 -8 -1q-14 0 -23 11t-9 32q0 10 3 23q7 41 33.5 77.5t69 59.5t96.5 23q86 0 137 -57t51 -156q0 -31 -6 -66l-63 -386q-3 -15 -3 -30q0 -32 14.5 -51 t44.5 -19q35 0 55.5 27.5t26.5 73.5l90 622q4 28 32 28h171q32 0 28 -32l-90 -624q-3 -16 -3 -32q0 -28 10 -45.5t29 -17.5q48 0 90 104.5t66.5 271.5t24.5 345q0 15 8 22.5t22 7.5h204q14 0 22 -7.5t8 -22.5q0 -256 -45 -480.5t-140 -365t-238 -140.5q-78 0 -127 44 t-60 127h-20q-42 -89 -104.5 -130t-143.5 -41q-79 0 -135.5 34.5zM444.5 1235q-32.5 19 -51.5 51.5t-19 72.5q0 39 19 71t51.5 51t70.5 19t70.5 -19t51.5 -51t19 -71q0 -40 -19 -72.5t-51.5 -51.5t-70.5 -19t-70.5 19zM887.5 1235q-32.5 19 -51.5 51.5t-19 72.5q0 39 19 71 t51.5 51t70.5 19t70.5 -19t51.5 -51t19 -71q0 -40 -19 -72.5t-51.5 -51.5t-70.5 -19t-70.5 19z" glyph-name="wdieresis" unicode="ẅ" vert-adv-y="1980"/>
<glyph d="M204.5 8.5q-56.5 34.5 -86 95t-29.5 138.5q0 31 7 76l58 348q8 50 8 68q0 24 -9.5 36.5t-33.5 12.5q-15 0 -32 -4q-3 -1 -8 -1q-14 0 -23 11t-9 32q0 10 3 23q7 41 33.5 77.5t69 59.5t96.5 23q86 0 137 -57t51 -156q0 -31 -6 -66l-63 -386q-3 -15 -3 -30q0 -32 14.5 -51 t44.5 -19q35 0 55.5 27.5t26.5 73.5l90 622q4 28 32 28h171q32 0 28 -32l-90 -624q-3 -16 -3 -32q0 -28 10 -45.5t29 -17.5q48 0 90 104.5t66.5 271.5t24.5 345q0 15 8 22.5t22 7.5h204q14 0 22 -7.5t8 -22.5q0 -256 -45 -480.5t-140 -365t-238 -140.5q-78 0 -127 44 t-60 127h-20q-42 -89 -104.5 -130t-143.5 -41q-79 0 -135.5 34.5zM638 1190q-12 0 -21 5.5t-17 18.5l-156 252q-6 11 -6 17q0 8 7 12.5t18 4.5h198q12 0 21 -5.5t17 -18.5l155 -252q6 -10 6 -17q0 -8 -7 -12.5t-18 -4.5h-197z" glyph-name="wgrave" unicode="ẁ" vert-adv-y="1980"/>
<glyph d="M1150 990q24 0 24 -16q0 -10 -10 -20l-403 -456l114 -185q48 -76 74.5 -105.5t58.5 -29.5q23 0 51 16q6 3 11 3q14 0 24 -16.5t10 -45.5q0 -44 -23.5 -82t-66.5 -60.5t-99 -22.5q-50 0 -91.5 20t-82 64.5t-88.5 121.5l-73 118l-245 -278q-15 -16 -36 -16h-250 q-23 0 -23 15q0 10 10 21l414 468l-97 157q-48 76 -74.5 105.5t-58.5 29.5q-23 0 -51 -16q-6 -3 -11 -3q-14 0 -24 16.5t-10 45.5q0 44 23.5 82t66.5 60.5t100 22.5q50 0 91 -20t81.5 -64.5t88.5 -121.5l56 -90l236 266q15 16 36 16h247z" glyph-name="x" unicode="x" vert-adv-y="1980"/>
<glyph d="M220 -371.5q-92 24.5 -155 68.5q-11 8 -11 20q0 10 6 22l62 134q10 19 27 19q5 0 15 -4q124 -54 245 -54q118 0 207.5 51t111.5 187l41 252h-22q-53 -122 -139.5 -202t-207.5 -80q-71 0 -128 31t-89.5 92t-32.5 147q0 50 10 101l49 253q8 38 8 64t-10.5 39.5t-35.5 13.5 q-16 0 -32 -4q-3 -1 -8 -1q-14 0 -23 11.5t-9 33.5q0 5 2 21q8 41 33.5 77.5t66 59.5t91.5 23q58 0 105.5 -26t75 -75.5t27.5 -115.5q0 -29 -6 -62l-44 -233q-8 -46 -8 -78q0 -67 27 -101.5t73 -34.5q100 0 182 168.5t133 515.5q4 28 32 28h220q32 0 28 -32l-129 -899 q-25 -173 -118 -274.5t-215.5 -141t-254.5 -39.5q-108 0 -200 24.5z" glyph-name="y" unicode="y" vert-adv-y="1980"/>
<glyph d="M220 -371.5q-92 24.5 -155 68.5q-11 8 -11 20q0 10 6 22l62 134q10 19 27 19q5 0 15 -4q124 -54 245 -54q118 0 207.5 51t111.5 187l41 252h-22q-53 -122 -139.5 -202t-207.5 -80q-71 0 -128 31t-89.5 92t-32.5 147q0 50 10 101l49 253q8 38 8 64t-10.5 39.5t-35.5 13.5 q-16 0 -32 -4q-3 -1 -8 -1q-14 0 -23 11.5t-9 33.5q0 5 2 21q8 41 33.5 77.5t66 59.5t91.5 23q58 0 105.5 -26t75 -75.5t27.5 -115.5q0 -29 -6 -62l-44 -233q-8 -46 -8 -78q0 -67 27 -101.5t73 -34.5q100 0 182 168.5t133 515.5q4 28 32 28h220q32 0 28 -32l-129 -899 q-25 -173 -118 -274.5t-215.5 -141t-254.5 -39.5q-108 0 -200 24.5zM611 1190q-11 0 -18 4.5t-7 12.5q0 7 6 17l156 252q8 13 17 18.5t21 5.5h197q11 0 18 -4.5t7 -12.5q0 -6 -6 -17l-155 -252q-8 -13 -17 -18.5t-21 -5.5h-198z" glyph-name="yacute" unicode="ý" vert-adv-y="1980"/>
<glyph d="M220 -371.5q-92 24.5 -155 68.5q-11 8 -11 20q0 10 6 22l62 134q10 19 27 19q5 0 15 -4q124 -54 245 -54q118 0 207.5 51t111.5 187l41 252h-22q-53 -122 -139.5 -202t-207.5 -80q-71 0 -128 31t-89.5 92t-32.5 147q0 50 10 101l49 253q8 38 8 64t-10.5 39.5t-35.5 13.5 q-16 0 -32 -4q-3 -1 -8 -1q-14 0 -23 11.5t-9 33.5q0 5 2 21q8 41 33.5 77.5t66 59.5t91.5 23q58 0 105.5 -26t75 -75.5t27.5 -115.5q0 -29 -6 -62l-44 -233q-8 -46 -8 -78q0 -67 27 -101.5t73 -34.5q100 0 182 168.5t133 515.5q4 28 32 28h220q32 0 28 -32l-129 -899 q-25 -173 -118 -274.5t-215.5 -141t-254.5 -39.5q-108 0 -200 24.5zM395 1181q-24 0 -24 15q0 10 11 21l263 267q10 10 18 13t20 3h295q12 0 19.5 -3t14.5 -13l186 -267q6 -9 6 -16q0 -9 -8 -14.5t-21 -5.5h-223q-22 0 -34 16l-107 151l-152 -151q-16 -16 -38 -16h-226z" glyph-name="ycircumflex" unicode="ŷ" vert-adv-y="1980"/>
<glyph d="M220 -371.5q-92 24.5 -155 68.5q-11 8 -11 20q0 10 6 22l62 134q10 19 27 19q5 0 15 -4q124 -54 245 -54q118 0 207.5 51t111.5 187l41 252h-22q-53 -122 -139.5 -202t-207.5 -80q-71 0 -128 31t-89.5 92t-32.5 147q0 50 10 101l49 253q8 38 8 64t-10.5 39.5t-35.5 13.5 q-16 0 -32 -4q-3 -1 -8 -1q-14 0 -23 11.5t-9 33.5q0 5 2 21q8 41 33.5 77.5t66 59.5t91.5 23q58 0 105.5 -26t75 -75.5t27.5 -115.5q0 -29 -6 -62l-44 -233q-8 -46 -8 -78q0 -67 27 -101.5t73 -34.5q100 0 182 168.5t133 515.5q4 28 32 28h220q32 0 28 -32l-129 -899 q-25 -173 -118 -274.5t-215.5 -141t-254.5 -39.5q-108 0 -200 24.5zM444.5 1235q-32.5 19 -51.5 51.5t-19 72.5q0 39 19 71t51.5 51t70.5 19t70.5 -19t51.5 -51t19 -71q0 -40 -19 -72.5t-51.5 -51.5t-70.5 -19t-70.5 19zM887.5 1235q-32.5 19 -51.5 51.5t-19 72.5 q0 39 19 71t51.5 51t70.5 19t70.5 -19t51.5 -51t19 -71q0 -40 -19 -72.5t-51.5 -51.5t-70.5 -19t-70.5 19z" glyph-name="ydieresis" unicode="ÿ" vert-adv-y="1980"/>
<glyph d="M220 -371.5q-92 24.5 -155 68.5q-11 8 -11 20q0 10 6 22l62 134q10 19 27 19q5 0 15 -4q124 -54 245 -54q118 0 207.5 51t111.5 187l41 252h-22q-53 -122 -139.5 -202t-207.5 -80q-71 0 -128 31t-89.5 92t-32.5 147q0 50 10 101l49 253q8 38 8 64t-10.5 39.5t-35.5 13.5 q-16 0 -32 -4q-3 -1 -8 -1q-14 0 -23 11.5t-9 33.5q0 5 2 21q8 41 33.5 77.5t66 59.5t91.5 23q58 0 105.5 -26t75 -75.5t27.5 -115.5q0 -29 -6 -62l-44 -233q-8 -46 -8 -78q0 -67 27 -101.5t73 -34.5q100 0 182 168.5t133 515.5q4 28 32 28h220q32 0 28 -32l-129 -899 q-25 -173 -118 -274.5t-215.5 -141t-254.5 -39.5q-108 0 -200 24.5zM638 1190q-12 0 -21 5.5t-17 18.5l-156 252q-6 11 -6 17q0 8 7 12.5t18 4.5h198q12 0 21 -5.5t17 -18.5l155 -252q6 -10 6 -17q0 -8 -7 -12.5t-18 -4.5h-197z" glyph-name="ygrave" unicode="ỳ" vert-adv-y="1980"/>
<glyph d="M1098 773q-2 -13 -5.5 -21.5t-14.5 -18.5l-511 -438q8 1 25 1q40 0 80.5 -11.5t99.5 -33.5q63 -24 109.5 -37t94.5 -13q45 0 77 15q18 6 24 6q11 0 17.5 -7.5t4.5 -20.5l-17 -94q-23 -135 -159 -135q-51 0 -104.5 15t-137.5 46q-87 32 -147 48.5t-120 16.5 q-69 0 -115 -21t-96 -58q-5 -4 -25 -18t-37 -19q-5 -2 -13 -2q-13 0 -20 8t-5 19l27 190q4 26 22 40l624 530h-550q-32 0 -28 32l23 169q4 28 31 28h839q14 0 24 -12.5t8 -25.5z" glyph-name="z" unicode="z" vert-adv-y="1980"/>
<glyph d="M1098 773q-2 -13 -5.5 -21.5t-14.5 -18.5l-511 -438q8 1 25 1q40 0 80.5 -11.5t99.5 -33.5q63 -24 109.5 -37t94.5 -13q45 0 77 15q18 6 24 6q11 0 17.5 -7.5t4.5 -20.5l-17 -94q-23 -135 -159 -135q-51 0 -104.5 15t-137.5 46q-87 32 -147 48.5t-120 16.5 q-69 0 -115 -21t-96 -58q-5 -4 -25 -18t-37 -19q-5 -2 -13 -2q-13 0 -20 8t-5 19l27 190q4 26 22 40l624 530h-550q-32 0 -28 32l23 169q4 28 31 28h839q14 0 24 -12.5t8 -25.5zM611 1190q-11 0 -18 4.5t-7 12.5q0 7 6 17l156 252q8 13 17 18.5t21 5.5h197q11 0 18 -4.5 t7 -12.5q0 -6 -6 -17l-155 -252q-8 -13 -17 -18.5t-21 -5.5h-198z" glyph-name="zacute" unicode="ź" vert-adv-y="1980"/>
<glyph d="M1098 773q-2 -13 -5.5 -21.5t-14.5 -18.5l-511 -438q8 1 25 1q40 0 80.5 -11.5t99.5 -33.5q63 -24 109.5 -37t94.5 -13q45 0 77 15q18 6 24 6q11 0 17.5 -7.5t4.5 -20.5l-17 -94q-23 -135 -159 -135q-51 0 -104.5 15t-137.5 46q-87 32 -147 48.5t-120 16.5 q-69 0 -115 -21t-96 -58q-5 -4 -25 -18t-37 -19q-5 -2 -13 -2q-13 0 -20 8t-5 19l27 190q4 26 22 40l624 530h-550q-32 0 -28 32l23 169q4 28 31 28h839q14 0 24 -12.5t8 -25.5zM603 1181q-12 0 -19.5 3t-14.5 13l-186 267q-6 9 -6 16q0 9 8 14.5t21 5.5h223q22 0 34 -16 l108 -151l152 151q16 16 38 16h225q24 0 24 -15q0 -10 -11 -21l-262 -267q-11 -10 -19 -13t-19 -3h-296z" glyph-name="zcaron" unicode="ž" vert-adv-y="1980"/>
<glyph d="M1098 773q-2 -13 -5.5 -21.5t-14.5 -18.5l-511 -438q8 1 25 1q40 0 80.5 -11.5t99.5 -33.5q63 -24 109.5 -37t94.5 -13q45 0 77 15q18 6 24 6q11 0 17.5 -7.5t4.5 -20.5l-17 -94q-23 -135 -159 -135q-51 0 -104.5 15t-137.5 46q-87 32 -147 48.5t-120 16.5 q-69 0 -115 -21t-96 -58q-5 -4 -25 -18t-37 -19q-5 -2 -13 -2q-13 0 -20 8t-5 19l27 190q4 26 22 40l624 530h-550q-32 0 -28 32l23 169q4 28 31 28h839q14 0 24 -12.5t8 -25.5zM667.5 1235q-32.5 19 -51.5 51.5t-19 72.5q0 39 19 71t51.5 51t70.5 19t70 -19t51 -51t19 -71 q0 -40 -19 -72.5t-51 -51.5t-70 -19t-70.5 19z" glyph-name="zdotaccent" unicode="ż" vert-adv-y="1980"/>
<glyph d="M1145.5 1469.5q69.5 -13.5 112.5 -42t36 -71.5l-17 -105q-7 -41 -42 -41q-5 0 -21 4q-37 11 -75.5 19t-94.5 8q-113 0 -166 -43t-65 -135l-19 -148h367q15 0 22.5 -8.5t5.5 -23.5l-24 -167q-4 -28 -32 -28h-367l-86 -685q-27 -212 -149 -302.5t-288 -90.5 q-81 0 -145.5 19t-99 50.5t-29.5 66.5l17 109q3 19 14 28.5t25 9.5q4 0 14 -2l31 -10q42 -13 71.5 -20t64.5 -7q78 0 133 48t69 156l77 630h-302q-15 0 -22.5 8.5t-5.5 23.5l25 167q4 28 32 28h301l25 202q24 194 152.5 280t311.5 86q74 0 143.5 -13.5z" glyph-name="f.ss01" vert-adv-y="1980"/>
<glyph d="M602.5 1219.5q-36.5 21.5 -57.5 58t-21 79.5t21 79.5t57.5 57.5t79.5 21t79.5 -21t58 -57.5t21.5 -79.5t-21.5 -79.5t-58 -58t-79.5 -21.5t-79.5 21.5zM567.5 12.5q-85.5 32.5 -138.5 107t-53 193.5q0 47 9 102l60 346h-325q-15 0 -22.5 8.5t-5.5 23.5l23 169q4 28 32 28 h579q15 0 22 -8t5 -24l-84 -521q-5 -29 -5 -62q0 -151 148 -151q57 0 105 18.5t99 51.5q14 9 23 9q16 0 28 -25l60 -120q5 -12 5 -18q0 -13 -13 -26q-51 -51 -146.5 -92.5t-218.5 -41.5q-101 0 -186.5 32.5z" glyph-name="i.ss01" vert-adv-y="1980"/>
<glyph d="M564 14q-86 34 -139.5 113.5t-53.5 208.5q0 51 9 111l117 724h-321q-32 0 -28 32l23 169q4 28 32 28h571q15 0 22.5 -8.5t5.5 -23.5l-145 -942q-4 -25 -4 -52q0 -82 44.5 -116t114.5 -34q57 0 106.5 19t97.5 51q10 7 21 7q19 0 30 -23l60 -120q5 -12 5 -18q0 -13 -13 -26 q-29 -31 -81.5 -61.5t-126 -51.5t-159.5 -21q-102 0 -188 34z" glyph-name="l.ss01" vert-adv-y="1980"/>
<glyph d="M1012.5 973.5q61.5 -38.5 93.5 -104.5t32 -146q0 -18 -4 -54q-10 -81 -43 -115.5t-87 -34.5h-118q-20 0 -31 10t-9 30q2 26 2 36q0 84 -38.5 120t-86.5 36q-76 0 -150 -97.5t-131.5 -263.5t-85.5 -362q-4 -28 -32 -28h-220q-32 0 -28 32l133 926q4 32 36 32h205 q18 0 24.5 -9.5t4.5 -29.5l-46 -375h19q51 144 107.5 239t131.5 146t174 51q86 0 147.5 -38.5z" glyph-name="r.ss01" vert-adv-y="1980"/>
<glyph d="M234 46.5q-115 72.5 -107 225.5q2 31 28 31h206q12 0 20 -9t9 -22q4 -43 54.5 -66t130.5 -23q92 0 146.5 29t54.5 82q0 38 -22.5 59.5t-55.5 30.5t-87 17q-130 19 -211 41t-144.5 81.5t-63.5 169.5q0 96 51 168t153.5 111.5t250.5 39.5q199 0 308 -74.5t106 -220.5 q0 -17 -8 -24t-24 -7h-192q-17 0 -26 8t-11 22q-7 43 -52.5 65t-117.5 22q-163 0 -163 -108q0 -48 41.5 -71t126.5 -34q116 -13 203 -38t150 -87t63 -171q0 -98 -57 -170t-167.5 -111t-269.5 -39q-208 0 -323 72.5z" glyph-name="s.ss01" vert-adv-y="1980"/>
<glyph d="M234 46.5q-115 72.5 -107 225.5q2 31 28 31h206q12 0 20 -9t9 -22q4 -43 54.5 -66t130.5 -23q92 0 146.5 29t54.5 82q0 38 -22.5 59.5t-55.5 30.5t-87 17q-130 19 -211 41t-144.5 81.5t-63.5 169.5q0 96 51 168t153.5 111.5t250.5 39.5q199 0 308 -74.5t106 -220.5 q0 -17 -8 -24t-24 -7h-192q-17 0 -26 8t-11 22q-7 43 -52.5 65t-117.5 22q-163 0 -163 -108q0 -48 41.5 -71t126.5 -34q116 -13 203 -38t150 -87t63 -171q0 -98 -57 -170t-167.5 -111t-269.5 -39q-208 0 -323 72.5zM588 1200q-11 0 -18 4.5t-7 12.5q0 7 6 17l156 252 q8 13 17 18.5t21 5.5h197q11 0 18 -4.5t7 -12.5q0 -6 -6 -17l-155 -252q-8 -13 -17 -18.5t-21 -5.5h-198z" glyph-name="sacute.ss01" vert-adv-y="1980"/>
<glyph d="M234 46.5q-115 72.5 -107 225.5q2 31 28 31h206q12 0 20 -9t9 -22q4 -43 54.5 -66t130.5 -23q92 0 146.5 29t54.5 82q0 38 -22.5 59.5t-55.5 30.5t-87 17q-130 19 -211 41t-144.5 81.5t-63.5 169.5q0 96 51 168t153.5 111.5t250.5 39.5q199 0 308 -74.5t106 -220.5 q0 -17 -8 -24t-24 -7h-192q-17 0 -26 8t-11 22q-7 43 -52.5 65t-117.5 22q-163 0 -163 -108q0 -48 41.5 -71t126.5 -34q116 -13 203 -38t150 -87t63 -171q0 -98 -57 -170t-167.5 -111t-269.5 -39q-208 0 -323 72.5zM580 1191q-12 0 -19.5 3t-14.5 13l-186 267q-6 9 -6 16 q0 9 8 14.5t21 5.5h223q22 0 34 -16l108 -151l152 151q16 16 38 16h225q24 0 24 -15q0 -10 -11 -21l-262 -267q-11 -10 -19 -13t-19 -3h-296z" glyph-name="scaron.ss01" vert-adv-y="1980"/>
<glyph d="M955 937.5q109 -74.5 106 -220.5q0 -17 -8 -24t-24 -7h-192q-17 0 -26 8t-11 22q-7 43 -52.5 65t-117.5 22q-163 0 -163 -108q0 -48 41.5 -71t126.5 -34q116 -13 203 -38t150 -87t63 -171q0 -95 -53 -165.5t-156.5 -110.5t-252.5 -44l-51 -40q66 -6 113 -44t47 -100 q0 -75 -41.5 -127t-111 -78.5t-152.5 -26.5q-44 0 -83 7q-18 3 -15 22l13 98q2 9 9 15t16 5q33 -5 59 -5q50 0 82 15t32 44q0 18 -22 31.5t-56 13.5q-37 0 -80 -17q-4 -2 -10 -2q-14 0 -12 16l13 103q1 13 14 24l67 55q-145 21 -222.5 92.5t-70.5 196.5q2 31 28 31h206 q12 0 20 -9t9 -22q4 -43 54.5 -66t130.5 -23q92 0 146.5 29t54.5 82q0 38 -22.5 59.5t-55.5 30.5t-87 17q-130 19 -211 41t-144.5 81.5t-63.5 169.5q0 96 51 168t153.5 111.5t250.5 39.5q199 0 308 -74.5z" glyph-name="scedilla.ss01" vert-adv-y="1980"/>
<glyph d="M234 46.5q-115 72.5 -107 225.5q2 31 28 31h206q12 0 20 -9t9 -22q4 -43 54.5 -66t130.5 -23q92 0 146.5 29t54.5 82q0 38 -22.5 59.5t-55.5 30.5t-87 17q-130 19 -211 41t-144.5 81.5t-63.5 169.5q0 96 51 168t153.5 111.5t250.5 39.5q199 0 308 -74.5t106 -220.5 q0 -17 -8 -24t-24 -7h-192q-17 0 -26 8t-11 22q-7 43 -52.5 65t-117.5 22q-163 0 -163 -108q0 -48 41.5 -71t126.5 -34q116 -13 203 -38t150 -87t63 -171q0 -98 -57 -170t-167.5 -111t-269.5 -39q-208 0 -323 72.5zM707 -180q12 0 18.5 -7.5t5.5 -19.5l-14 -91 q-18 -129 -44 -241.5t-55 -183.5q-8 -20 -36 -20h-142q-12 0 -17.5 4.5t-5.5 13.5q0 7 1 11q40 161 61 323h-236q-12 0 -18.5 7.5t-4.5 19.5l23 157q1 12 9.5 19.5t20.5 7.5h434z" glyph-name="uni0219.ss01" vert-adv-y="1980"/>
<glyph d="M1116 443q12 0 18 -8t4 -22l-24 -175q-1 -13 -8.5 -20t-21.5 -11q-75 -15 -194 -41q11 -49 11 -105q0 -138 -65.5 -241.5t-177 -159.5t-245.5 -56q-86 0 -165 25t-132 86.5t-53 164.5q0 80 40.5 148.5t149.5 137t308 134.5q-88 77 -280 77l38 218l289 173h-461 q-15 0 -22.5 8t-5.5 24l22 162q1 13 9.5 20.5t22.5 7.5h824l-36 -221l-407 -284q144 -36 228 -120q136 37 322 76q8 2 12 2zM642 101q-177 -53 -242 -99.5t-65 -96.5q0 -37 28 -57.5t80 -20.5q89 0 144 62t55 192v20z" glyph-name="z.ss02" vert-adv-y="1980"/>
<glyph d="M1106 212q14 0 23 -11t9 -32q0 -9 -3 -23q-7 -41 -32.5 -77.5t-67 -59.5t-93.5 -23q-87 0 -138.5 63.5t-51.5 174.5q0 14 2 42l4 44h-27q-73 -165 -161 -250.5t-210 -85.5q-86 0 -150 43t-98.5 126t-34.5 200q0 182 81.5 335t233.5 243.5t353 90.5q106 0 205.5 -26 t158.5 -76l-69 -500l-12 -86q-1 -10 -4 -30.5t-3 -33.5q0 -26 10 -39.5t36 -13.5q15 0 31 4q3 1 8 1zM640.5 308q67.5 83 111 200.5t60.5 221.5q-44 27 -122 27q-103 0 -180 -48.5t-118 -129t-41 -172.5q0 -94 40 -138t100 -44q82 0 149.5 83z" glyph-name="a.ss05" horiz-adv-x="1218" vert-adv-y="1980"/>
<glyph d="M344 30q-119 56 -187 161t-68 249q0 142 66 273.5t197.5 215t317.5 83.5q167 0 272 -71.5t105 -222.5q0 -72 -26 -159q-7 -26 -34 -26h-181q-26 0 -26 23l2 12q10 34 10 63q0 65 -45 92t-112 27q-88 0 -149 -41t-90.5 -104.5t-29.5 -129.5q0 -116 88 -179t237 -63 q131 0 232 44q8 3 14 3q11 0 15.5 -7.5t3.5 -20.5l-22 -148q-4 -27 -15 -44t-34 -29q-48 -26 -118.5 -41.5t-153.5 -15.5q-150 0 -269 56z" glyph-name="c.ss05" horiz-adv-x="1154" vert-adv-y="1980"/>
<glyph d="M1003 165q9 -14 9 -28q0 -19 -15 -30q-77 -66 -182.5 -99.5t-228.5 -33.5q-158 0 -270.5 56t-171 157.5t-58.5 237.5q0 159 77.5 294t211.5 214t295 79q109 0 186.5 -36t117.5 -97t40 -135q0 -133 -142 -250.5t-485 -191.5q62 -101 230 -101q77 0 144 16.5t118 48.5 q14 9 28 9q15 0 27 -15zM516.5 746.5q-61.5 -32.5 -105.5 -95t-55 -148.5q151 36 238 67.5t124.5 62.5t37.5 66q0 34 -30 57t-85 23q-63 0 -124.5 -32.5z" glyph-name="e.ss05" horiz-adv-x="1138" vert-adv-y="1980"/>
<glyph d="M1076 212q14 0 23 -11.5t9 -33.5q0 -5 -2 -21q-8 -41 -33.5 -77.5t-66 -59.5t-91.5 -23q-58 0 -105.5 26.5t-76 75.5t-28.5 115q0 30 6 63l55 271q8 43 8 74q0 68 -29 104t-77 36q-101 0 -185 -174t-137 -541l-1 -8q-4 -28 -32 -28h-220q-32 0 -28 32l192 1340 q4 28 32 28h220q15 0 22.5 -8.5t5.5 -23.5l-101 -702h19q57 154 146 250t214 96q70 0 128 -33t92.5 -98t34.5 -156q0 -49 -12 -108l-60 -293q-8 -38 -8 -64t10.5 -39.5t35.5 -13.5q16 0 32 4q3 1 8 1z" glyph-name="h.ss05" horiz-adv-x="1214" vert-adv-y="1980"/>
<glyph d="M603.5 1219.5q-36.5 21.5 -57.5 58t-21 79.5t21 79.5t57.5 57.5t79.5 21t79.5 -21t58 -57.5t21.5 -79.5t-21.5 -79.5t-58 -58t-79.5 -21.5t-79.5 21.5zM1123 152q5 -12 5 -18q0 -13 -13 -26q-54 -54 -137.5 -94t-201.5 -40q-98 0 -182 33t-136.5 106.5t-52.5 188.5 q0 46 11 106l40 208q-82 -44 -192 -44q-97 0 -164 34q-12 6 -16.5 14.5t-2.5 22.5l23 166q5 40 32 40q6 0 9 -1q78 -16 138 -16q94 0 153 35t86 98q10 25 34 25h210q16 0 23 -9t4 -24l-99 -539q-6 -31 -6 -57q0 -75 41 -109t103 -34q49 0 88.5 17.5t91.5 52.5q16 9 23 9 q16 0 28 -25z" glyph-name="i.ss05" horiz-adv-x="1204" vert-adv-y="1980"/>
<glyph d="M1044 153q5 -12 5 -18q0 -13 -13 -26q-31 -31 -86 -62t-132 -52t-165 -21q-103 0 -190 35.5t-142 117.5t-55 213q0 16 2 52l-184 -65q-14 -5 -22 5.5t-6 26.5l25 184q4 26 33 36l190 66l67 450q31 210 146 299t275 89q122 0 208.5 -45.5t131.5 -126t45 -185.5 q0 -120 -59.5 -234.5t-180 -210t-296.5 -156.5l-81 -28l-11 -71q-4 -24 -4 -51q0 -84 47.5 -120.5t118.5 -36.5q112 0 222 71q10 7 21 7q19 0 30 -23zM696.5 1195.5q-34.5 -41.5 -48.5 -131.5l-49 -315q154 65 232.5 157.5t78.5 190.5q0 60 -28 100t-91 40 q-60 0 -94.5 -41.5z" glyph-name="l.ss05" horiz-adv-x="1200" vert-adv-y="1980"/>
<glyph d="M1044 36q-42 50 -42 140q0 34 6 71l43 290q9 55 9 106q0 63 -16.5 85.5t-43.5 22.5q-52 0 -92 -72t-75.5 -227.5t-75.5 -423.5q-4 -28 -32 -28h-163q-32 0 -28 32l70 505q8 56 8 103q0 64 -16.5 87.5t-42.5 23.5q-51 0 -92 -72.5t-78 -230t-76 -420.5q-4 -28 -32 -28 h-182q-32 0 -28 32l133 926q4 32 35 32h166q35 0 30 -39l-38 -285h16q51 190 122.5 268t151.5 78q73 0 113.5 -66.5t40.5 -199.5q0 -38 -3 -80h17q52 192 124.5 269t158.5 77q92 0 145 -66t53 -196q0 -52 -11 -123l-49 -300q-6 -33 -6 -60q0 -35 10 -52t30 -13q3 1 8 1 q24 0 24 -35q0 -11 -1 -17q-25 -165 -170 -165q-79 0 -121 50z" glyph-name="m.ss05" horiz-adv-x="1443" vert-adv-y="1980"/>
<glyph d="M1076 212q14 0 23 -11t9 -32q0 -9 -3 -23q-7 -41 -32.5 -77.5t-66 -59.5t-92.5 -23q-58 0 -106 26t-76 75t-28 115q0 32 7 64l54 271q8 37 8 75q0 67 -29 103t-77 36q-101 0 -185 -175.5t-137 -547.5q-4 -28 -32 -28h-220q-16 0 -23.5 8t-5.5 24l134 926q4 32 35 32h205 q30 0 30 -27q0 -8 -1 -12l-31 -285h19q55 153 145 249.5t214 96.5q70 0 128.5 -33t93 -98t34.5 -156q0 -49 -12 -108l-60 -293q-9 -43 -9 -65q0 -52 47 -52q16 0 32 4q3 1 8 1z" glyph-name="n.ss05" horiz-adv-x="1214" vert-adv-y="1980"/>
<glyph d="M315.5 35q-106.5 61 -166 169.5t-59.5 245.5q0 156 75 285t202 203t275 74q136 0 243 -60.5t167 -169t60 -246.5q0 -156 -75 -285t-202.5 -203t-276.5 -74q-136 0 -242.5 61zM711 272.5q60 37.5 94.5 102.5t34.5 145q0 71 -27.5 123.5t-76.5 80t-111 27.5q-73 0 -133 -37 t-95 -102.5t-35 -145.5q0 -71 27.5 -123t77 -80t112.5 -28q72 0 132 37.5z" glyph-name="o.ss05" horiz-adv-x="1202" vert-adv-y="1980"/>
<glyph d="M1271 240q17 -13 17 -33q0 -10 -5 -22q-37 -97 -121 -154t-191 -57q-74 0 -133.5 30.5t-94.5 92t-35 149.5q0 42 7 83l54 322q-93 -66 -244 -66q-34 0 -74 5l-42 -199q-6 -28 -32 -28h-207q-15 0 -22.5 8.5t-4.5 23.5l65 324q-52 70 -52 157q0 61 26 113.5t71.5 84 t102.5 31.5q62 0 102 -34.5t40 -88.5q0 -43 -26 -75.5t-66 -38.5q27 -41 135 -41q100 0 175.5 38.5t105.5 99.5q10 25 34 25h212q15 0 22 -9t5 -24l-106 -631q-3 -19 -3 -38q0 -68 52 -68q54 0 97 85q9 16 23 16q10 0 23 -10z" glyph-name="r.ss05" horiz-adv-x="1329" vert-adv-y="1980"/>
<glyph d="M882 1013q0 -64 15 -119.5t36.5 -98.5t58.5 -106q34 -58 54.5 -98t34 -88.5t13.5 -103.5q0 -126 -74 -222.5t-202 -149.5t-287 -53q-143 0 -246 43.5t-156 118t-53 166.5q0 34 7 66q4 26 33 26h209q30 0 28 -31q-2 -38 22 -69t71 -49.5t113 -18.5q81 0 141 27t91.5 77 t31.5 116q0 51 -16.5 91.5t-50.5 98.5q-29 51 -44.5 83.5t-24.5 74.5l-222 -242q-16 -18 -44 -18q-47 0 -100 52q-50 47 -50 93q0 28 19 49l259 269q16 16 37 16h296z" glyph-name="s.ss05" horiz-adv-x="1202" vert-adv-y="1980"/>
<glyph d="M187.5 48q-68.5 74 -68.5 196q0 37 6 76l58 346q8 50 8 68q0 24 -9.5 36.5t-32.5 12.5q-16 0 -32 -4q-3 -1 -8 -1q-14 0 -23 11.5t-9 33.5q0 5 2 21q8 41 34 77.5t69 59.5t97 23q85 0 136 -56.5t51 -154.5q0 -32 -6 -68l-63 -386q-2 -16 -2 -22q0 -35 20.5 -55t62.5 -20 q46 0 71.5 26.5t31.5 71.5l91 622q4 28 32 28h181q32 0 28 -32l-90 -624q-1 -6 -1 -17q0 -32 16.5 -53.5t46.5 -21.5q64 0 108.5 102t67 266t22.5 350q0 15 8 22.5t22 7.5h203q14 0 22 -7.5t8 -22.5q0 -260 -44 -483t-142.5 -363t-253.5 -140q-87 0 -150.5 45.5t-75.5 127.5 h-20q-42 -89 -113 -131t-163 -42q-128 0 -196.5 74z" glyph-name="w.ss05" horiz-adv-x="1393" vert-adv-y="1980"/>
<glyph d="M470 725q-67 43 -103 117t-36 164q0 109 51.5 202t137.5 147.5t185 54.5q64 0 114 -23t73 -68l33 81h178l-102 -718h-171l-1 94q-36 -49 -88.5 -71.5t-114.5 -22.5q-89 0 -156 43zM772 905q44 25 70 68t26 94q0 67 -43.5 107t-108.5 40q-50 0 -93 -25.5t-68.5 -68.5 t-25.5 -94q0 -67 42 -106.5t107 -39.5q50 0 94 25z" glyph-name="ordfeminine" unicode="ª" vert-adv-y="1980"/>
<glyph d="M487.5 725q-75.5 43 -118 118t-42.5 168q0 107 55.5 199t149 146t199.5 54q94 0 169 -43t117 -118t42 -168q0 -107 -55 -199t-147 -146t-199 -54q-95 0 -170.5 43zM769 905.5q43 25.5 68.5 68t25.5 91.5q0 65 -43.5 107t-108.5 42q-51 0 -93 -26.5t-66.5 -70t-24.5 -92.5 q0 -66 42 -105.5t106 -39.5q51 0 94 25.5z" glyph-name="ordmasculine" unicode="º" vert-adv-y="1980"/>
<glyph d="M304 682q-14 0 -13 15l97 688q2 15 17 15h163q7 0 10.5 -4t2.5 -11l-30 -213h11q43 130 118.5 190t171.5 60t153 -57t57 -171q0 -39 -5 -70l-60 -426q-1 -16 -17 -16h-163q-14 0 -13 16l52 376q4 27 4 54q0 61 -25.5 92.5t-75.5 31.5q-84 0 -156.5 -115.5t-118.5 -439.5 q-1 -15 -17 -15h-163z" glyph-name="uni207F" unicode="ⁿ" vert-adv-y="1980"/>
<glyph d="M1099 34q2 -15 -5.5 -24.5t-23.5 -9.5h-236q-27 0 -30 24l-20 211h-411l-79 -211q-9 -24 -38 -24h-236q-23 0 -23 18q0 4 4 16l513 1282q5 12 15.5 18t22.5 6h364q12 0 20.5 -6t9.5 -18zM675 1037l-208 -554h294l-53 554h-33z" glyph-name="uni0410" unicode="А" vert-adv-y="1980"/>
<glyph d="M708 930q229 0 328.5 -87.5t99.5 -263.5q0 -64 -10 -130q-22 -154 -78 -251t-166.5 -147.5t-292.5 -50.5h-489q-32 0 -28 32l180 1280q4 28 32 28h742q32 0 28 -32l-27 -198q-4 -28 -32 -28h-483l-22 -152h218zM856 542q0 55 -21 83t-61.5 37.5t-109.5 9.5h-210l-58 -414 h197q79 0 130 18.5t83 67t45 137.5q5 38 5 61z" glyph-name="uni0411" unicode="Б" vert-adv-y="1980"/>
<glyph d="M868 709q131 -17 192.5 -89.5t61.5 -202.5q0 -210 -147 -313.5t-412 -103.5h-484q-13 0 -20.5 8t-5.5 22l180 1280q5 30 44 30h465q189 0 277 -77.5t88 -210.5q0 -80 -29.5 -147.5t-83 -113t-123.5 -62.5zM494 1082l-36 -259h183q92 0 138.5 36.5t46.5 112.5 q0 63 -33.5 86.5t-114.5 23.5h-184zM609 258q225 0 225 181q0 76 -42 109.5t-137 33.5h-231l-46 -324h231z" glyph-name="uni0412" unicode="В" vert-adv-y="1980"/>
<glyph d="M127 0q-32 0 -28 32l180 1280q4 28 32 28h861q32 0 28 -32l-27 -198q-4 -28 -32 -28h-602l-148 -1054q-4 -28 -32 -28h-232z" glyph-name="uni0413" unicode="Г" vert-adv-y="1980"/>
<glyph d="M127 0q-32 0 -28 32l180 1280q4 28 32 28h861q32 0 28 -32l-27 -198q-4 -28 -32 -28h-602l-148 -1054q-4 -28 -32 -28h-232zM663 1550q-11 0 -18 4.5t-7 12.5q0 7 6 17l156 252q8 13 17 18.5t21 5.5h197q11 0 18 -4.5t7 -12.5q0 -6 -6 -17l-155 -252q-8 -13 -17 -18.5 t-21 -5.5h-198z" glyph-name="uni0403" unicode="Ѓ" vert-adv-y="1980"/>
<glyph d="M127 0q-32 0 -28 32l180 1280q4 28 32 28h635l17 124q3 28 32 28h198q32 0 28 -32l-48 -350q-4 -28 -32 -28h-602l-148 -1054q-4 -28 -32 -28h-232z" glyph-name="uni0490" unicode="Ґ" vert-adv-y="1980"/>
<glyph d="M-21 -138q-32 0 -28 32l47 336q4 28 32 28h33q75 0 127 50t68 161l119 843q4 28 32 28h727q32 0 28 -32l-148 -1050h115q32 0 28 -32l-48 -336q-4 -28 -32 -28h-211q-15 0 -22.5 8.5t-5.5 23.5l15 106h-618l-15 -110q-4 -28 -32 -28h-211zM723 258l116 824h-202l-85 -606 q-12 -79 -38 -133t-73 -85h282z" glyph-name="uni0414" unicode="Д" vert-adv-y="1980"/>
<glyph d="M114 0q-13 0 -20 8t-5 22l180 1280q1 13 10.5 21.5t23.5 8.5h860q13 0 20.5 -8t5.5 -22l-28 -198q-1 -13 -10.5 -21.5t-23.5 -8.5h-598l-40 -281h552q14 0 21.5 -8.5t4.5 -21.5l-27 -198q-2 -14 -11.5 -22t-22.5 -8h-552l-41 -285h599q14 0 21.5 -8.5t5.5 -21.5l-28 -198 q-2 -14 -11.5 -22t-23.5 -8h-862z" glyph-name="uni0415" unicode="Е" vert-adv-y="1980"/>
<glyph d="M114 0q-13 0 -20 8t-5 22l180 1280q1 13 10.5 21.5t23.5 8.5h860q13 0 20.5 -8t5.5 -22l-28 -198q-1 -13 -10.5 -21.5t-23.5 -8.5h-598l-40 -281h552q14 0 21.5 -8.5t4.5 -21.5l-27 -198q-2 -14 -11.5 -22t-22.5 -8h-552l-41 -285h599q14 0 21.5 -8.5t5.5 -21.5l-28 -198 q-2 -14 -11.5 -22t-23.5 -8h-862zM495.5 1595q-32.5 19 -51.5 51.5t-19 72.5q0 39 19 71t51.5 51t70.5 19t70.5 -19t51.5 -51t19 -71q0 -40 -19 -72.5t-51.5 -51.5t-70.5 -19t-70.5 19zM938.5 1595q-32.5 19 -51.5 51.5t-19 72.5q0 39 19 71t51.5 51t70.5 19t70.5 -19 t51.5 -51t19 -71q0 -40 -19 -72.5t-51.5 -51.5t-70.5 -19t-70.5 19z" glyph-name="uni0401" unicode="Ё" vert-adv-y="1980"/>
<glyph d="M1272 1340q20 0 20 -13q0 -9 -9 -23l-362 -557l206 -711q3 -7 3 -14q0 -22 -26 -22h-204q-29 0 -33 18l-115 469l-14 -21l-61 -436q-2 -13 -12 -21.5t-23 -8.5h-195q-13 0 -20 8.5t-5 21.5l61 435l-8 21l-244 -468q-9 -18 -39 -18h-206q-20 0 -20 15q0 7 7 21l407 711 l-205 557q-3 9 -3 17q0 19 24 19h211q12 0 21.5 -4t12.5 -12l107 -395l54 381q2 14 11.5 22t22.5 8h195q14 0 21 -8.5t5 -21.5l-54 -384l219 398q9 16 38 16h212z" glyph-name="uni0416" unicode="Ж" vert-adv-y="1980"/>
<glyph d="M293.5 15q-103.5 41 -159 121t-55.5 194q0 29 5 71q2 13 10.5 21t21.5 8h211q33 0 30 -27q-5 -94 52 -137.5t158 -43.5q77 0 136 24.5t92 70.5t33 110q0 71 -66 115.5t-225 44.5q-15 0 -21.5 8t-4.5 21l21 148q5 29 36 29q185 0 252.5 56t67.5 131q0 65 -54.5 99 t-136.5 34q-93 0 -162 -44.5t-90 -137.5q-5 -26 -38 -26h-212q-13 0 -19.5 7.5t-4.5 20.5q20 138 95 234t194 145t270 49q129 0 228.5 -35.5t156 -104t56.5 -164.5q0 -15 -4 -49q-13 -95 -77 -169t-183 -119l-4 -24q111 -36 168.5 -106t57.5 -169q0 -23 -3 -49 q-16 -119 -95 -209.5t-206.5 -139.5t-285.5 -49q-142 0 -245.5 41z" glyph-name="uni0417" unicode="З" vert-adv-y="1980"/>
<glyph d="M1196.5 1332q7.5 -8 5.5 -22l-181 -1280q-1 -13 -11 -21.5t-24 -8.5h-200q-13 0 -20 8.5t-5 21.5l116 822l-480 -832q-11 -20 -39 -20h-254q-13 0 -20.5 8t-5.5 22l181 1280q1 13 10.5 21.5t23.5 8.5h200q13 0 20.5 -8t5.5 -22l-115 -820l478 830q11 20 39 20h255 q13 0 20.5 -8z" glyph-name="uni0418" unicode="И" vert-adv-y="1980"/>
<glyph d="M610 1633q-69 39 -103 105.5t-31 147.5q1 15 10 23.5t25 8.5h119q25 0 28 -30q2 -29 18.5 -56t47.5 -43.5t74 -16.5q63 0 105 34t61 82q10 30 36 30h125q26 0 26 -21q0 -7 -1 -11q-19 -82 -69 -148t-127.5 -105t-175.5 -39q-99 0 -168 39zM1196.5 1332q7.5 -8 5.5 -22 l-181 -1280q-1 -13 -11 -21.5t-24 -8.5h-200q-13 0 -20 8.5t-5 21.5l116 822l-480 -832q-11 -20 -39 -20h-254q-13 0 -20.5 8t-5.5 22l181 1280q1 13 10.5 21.5t23.5 8.5h200q13 0 20.5 -8t5.5 -22l-115 -820l478 830q11 20 39 20h255q13 0 20.5 -8z" glyph-name="uni0419" unicode="Й" vert-adv-y="1980"/>
<glyph d="M1246 1340q22 0 22 -14q0 -9 -11 -22l-523 -573l381 -695q4 -7 4 -15q0 -10 -7 -15.5t-20 -5.5h-254q-12 0 -19.5 4t-13.5 14l-271 493l-162 -178l-43 -303q-2 -14 -11.5 -22t-22.5 -8h-232q-14 0 -21 8.5t-6 21.5l181 1280q2 14 11.5 22t22.5 8h232q14 0 21 -8.5 t5 -21.5l-80 -567l501 581q15 16 38 16h278z" glyph-name="uni041A" unicode="К" vert-adv-y="1980"/>
<glyph d="M22 14l-34 210q-2 15 6 23t21 8q52 0 98 23.5t78 71.5t42 119l120 843q4 28 32 28h803q32 0 28 -32l-180 -1280q-4 -28 -32 -28h-232q-32 0 -28 32l147 1050h-278l-97 -683q-29 -203 -149 -306t-308 -103q-33 0 -37 24z" glyph-name="uni041B" unicode="Л" vert-adv-y="1980"/>
<glyph d="M79 0q-14 0 -21 8.5t-5 21.5l180 1280q2 14 11.5 22t22.5 8h231q13 0 23 -5t11 -15l68 -888h14l318 888q4 10 14.5 15t23.5 5h231q14 0 21 -8.5t5 -21.5l-180 -1280q-2 -14 -11.5 -22t-22.5 -8h-177q-14 0 -21 8.5t-5 21.5l102 721h-14l-235 -627q-4 -11 -15.5 -17.5 t-24.5 -6.5h-126q-13 0 -22 6t-10 18l-59 627h-15l-101 -721q-2 -14 -11.5 -22t-22.5 -8h-177z" glyph-name="uni041C" unicode="М" vert-adv-y="1980"/>
<glyph d="M1186 1340q14 0 21 -8.5t5 -21.5l-180 -1280q-2 -14 -11.5 -22t-23.5 -8h-232q-13 0 -20 8t-5 22l70 498h-380l-70 -498q-2 -13 -11.5 -21.5t-23.5 -8.5h-232q-13 0 -20 8.5t-5 21.5l180 1280q2 14 11.5 22t22.5 8h232q14 0 21 -8.5t5 -21.5l-74 -524h380l74 524 q2 14 11.5 22t22.5 8h232z" glyph-name="uni041D" unicode="Н" vert-adv-y="1980"/>
<glyph d="M225.5 102q-104.5 132 -104.5 366q0 87 16 197q47 326 190.5 510.5t403.5 184.5q217 0 321.5 -132t104.5 -367q0 -92 -15 -196q-49 -326 -193 -510.5t-403 -184.5q-216 0 -320.5 132zM757.5 358q71.5 108 101.5 307q12 78 12 143q0 131 -45 201.5t-129 70.5 q-105 0 -176.5 -108t-101.5 -307q-12 -78 -12 -143q0 -131 45 -201.5t129 -70.5q105 0 176.5 108z" glyph-name="uni041E" unicode="О" vert-adv-y="1980"/>
<glyph d="M117 0q-32 0 -28 32l180 1280q4 28 32 28h861q32 0 28 -32l-180 -1280q-4 -28 -32 -28h-232q-32 0 -28 32l147 1050h-336l-148 -1054q-4 -28 -32 -28h-232z" glyph-name="uni041F" unicode="П" vert-adv-y="1980"/>
<glyph d="M744 1340q237 0 349 -92.5t112 -272.5q0 -44 -8 -102q-33 -231 -175 -349t-409 -118h-160l-54 -376q-2 -14 -11.5 -22t-22.5 -8h-232q-14 0 -21 8.5t-5 21.5l180 1280q2 14 11.5 22t22.5 8h423zM635 664q85 0 142.5 18.5t93 64.5t46.5 126q4 36 4 49q0 89 -56 124.5 t-171 35.5h-146l-59 -418h146z" glyph-name="uni0420" unicode="Р" vert-adv-y="1980"/>
<glyph d="M1031 100q-4 -28 -14.5 -44.5t-33.5 -28.5q-48 -26 -117 -41.5t-150 -15.5q-171 0 -297.5 72t-195.5 209.5t-69 328.5q0 189 69.5 368.5t212 295.5t351.5 116q158 0 258 -74t100 -231q0 -74 -27 -172q-7 -26 -34 -26h-206q-26 0 -26 24q0 7 1 11q11 41 11 77 q0 111 -121 111q-103 0 -171 -73.5t-100 -180.5t-32 -209q0 -175 97.5 -273t274.5 -98q52 0 106.5 10t102.5 28q8 3 14 3q11 0 15.5 -7.5t3.5 -20.5z" glyph-name="uni0421" unicode="С" vert-adv-y="1980"/>
<glyph d="M430 0q-13 0 -20.5 8t-5.5 22l148 1052h-339q-13 0 -20.5 8t-5.5 22l27 198q1 13 10.5 21.5t23.5 8.5h971q13 0 20.5 -8t5.5 -22l-27 -198q-1 -13 -10.5 -21.5t-23.5 -8.5h-339l-149 -1052q-1 -13 -10.5 -21.5t-23.5 -8.5h-232z" glyph-name="uni0422" unicode="Т" vert-adv-y="1980"/>
<glyph d="M1282 1340q22 0 22 -16q0 -10 -7 -20l-847 -1284q-13 -20 -39 -20h-247q-11 0 -17 4t-6 11q0 8 8 21l310 469l-298 799q-2 5 -2 13q0 11 7 17t20 6h241q26 0 33 -20l189 -528l349 528q13 20 39 20h245z" glyph-name="uni0423" unicode="У" vert-adv-y="1980"/>
<glyph d="M1115.5 1092.5q84.5 -108.5 84.5 -288.5q0 -67 -10 -133q-21 -149 -79 -267.5t-161.5 -190t-251.5 -71.5h-1l-16 -111q-2 -13 -11.5 -21.5t-23.5 -8.5h-202q-14 0 -20.5 8t-4.5 22l16 111h-2q-185 0 -269 108t-84 288q0 58 10 133q21 149 79 268t161 190.5t252 71.5h2 l15 110q2 14 11.5 22t22.5 8h202q14 0 21 -8.5t5 -21.5l-15 -110q185 0 269.5 -108.5zM471 400l76 542h-2q-60 0 -96.5 -31t-56 -89t-32.5 -151q-11 -72 -11 -123q0 -74 27.5 -111t92.5 -37h2zM930 792q0 76 -27 113t-93 37h-1l-76 -542h1q60 0 97 31.5t57 89.5t32 150 q10 75 10 121z" glyph-name="uni0424" unicode="Ф" vert-adv-y="1980"/>
<glyph d="M1232 1340q11 0 17.5 -4t6.5 -11q0 -9 -9 -21l-451 -624l284 -644q4 -7 4 -15q0 -10 -8 -15.5t-21 -5.5h-245q-24 0 -33 20l-174 393l-284 -393q-14 -20 -39 -20h-245q-11 0 -17.5 4t-6.5 11q0 9 9 21l465 643l-276 625q-4 12 -4 15q0 10 8 15.5t21 5.5h245q25 0 34 -20 l165 -374l271 374q14 20 38 20h245z" glyph-name="uni0425" unicode="Х" vert-adv-y="1980"/>
<glyph d="M1238 1340q13 0 20.5 -8t5.5 -22l-180 -1280q-2 -13 -11.5 -21.5t-23.5 -8.5h-232q-13 0 -20 8.5t-5 21.5l63 445q-79 -79 -178.5 -124.5t-209.5 -45.5q-106 0 -186.5 42.5t-125 124.5t-44.5 197q0 42 6 88l79 553q1 13 10.5 21.5t23.5 8.5h232q13 0 20.5 -8t5.5 -22 l-69 -490q-3 -21 -3 -40q0 -91 58.5 -139.5t153.5 -48.5q69 0 127.5 26t97.5 78t50 126l69 488q1 13 10.5 21.5t23.5 8.5h232z" glyph-name="uni0427" unicode="Ч" vert-adv-y="1980"/>
<glyph d="M1132 258q32 0 28 -32l-48 -336q-4 -28 -32 -28h-211q-15 0 -22.5 8.5t-5.5 23.5l15 106h-740q-32 0 -28 32l179 1279q4 28 32 28h232q32 0 28 -32l-147 -1049h297l148 1053q4 28 32 28h232q32 0 28 -32l-148 -1049h131z" glyph-name="uni0426" unicode="Ц" vert-adv-y="1980"/>
<glyph d="M66 0q-32 0 -28 32l179 1280q4 28 32 28h189q32 0 28 -32l-147 -1050h138l147 1054q4 28 32 28h190q32 0 28 -32l-148 -1050h138l148 1054q4 28 32 28h189q32 0 28 -32l-179 -1280q-4 -28 -32 -28h-964z" glyph-name="uni0428" unicode="Ш" vert-adv-y="1980"/>
<glyph d="M1174 1340q32 0 28 -32l-148 -1050h78q32 0 28 -32l-48 -336q-4 -28 -32 -28h-211q-15 0 -22.5 8.5t-5.5 23.5l15 106h-789q-32 0 -28 32l179 1280q4 28 32 28h189q32 0 28 -32l-147 -1050h118l147 1054q4 28 32 28h190q32 0 28 -32l-148 -1050h118l148 1054q4 28 32 28 h189z" glyph-name="uni0429" unicode="Щ" vert-adv-y="1980"/>
<glyph d="M100 0q-32 0 -28 32l180 1280q4 28 32 28h232q15 0 22.5 -8.5t5.5 -23.5l-55 -378h218q229 0 328.5 -88.5t99.5 -266.5q0 -59 -9 -127q-21 -153 -77 -250t-166.5 -147.5t-292.5 -50.5h-490zM596 258q76 0 126 17t83 66t46 141q5 38 5 62q0 56 -21.5 83.5t-60 36 t-106.5 8.5h-214l-58 -414h200z" glyph-name="uni042C" unicode="Ь" vert-adv-y="1980"/>
<glyph d="M738 930q229 0 328.5 -88.5t99.5 -266.5q0 -59 -9 -127q-21 -153 -77 -250t-166.5 -147.5t-292.5 -50.5h-490q-32 0 -28 32l148 1050h-103q-15 0 -22.5 8.5t-5.5 23.5l30 198q4 28 32 28h365q15 0 22.5 -8.5t5.5 -23.5l-55 -378h218zM887 544q0 56 -21.5 83.5t-60 36 t-106.5 8.5h-214l-58 -414h200q76 0 126 17t83 66t46 141q5 38 5 62z" glyph-name="uni042A" unicode="Ъ" vert-adv-y="1980"/>
<glyph d="M4 0q-32 0 -28 32l180 1280q6 28 33 28h221q15 0 22.5 -8.5t5.5 -23.5l-54 -378h61q139 0 222.5 -38t120.5 -111.5t37 -185.5q0 -66 -12 -146q-22 -156 -71.5 -252.5t-149 -146.5t-266.5 -50h-322zM869 0q-32 0 -28 32l180 1280q4 28 32 28h222q32 0 28 -32l-180 -1280 q-4 -28 -32 -28h-222zM350 258q60 0 94.5 16.5t57 64t36.5 142.5q8 58 8 90q0 45 -13 66.5t-38.5 28t-73.5 6.5h-73l-58 -414h60z" glyph-name="uni042B" unicode="Ы" vert-adv-y="1980"/>
<glyph d="M1046.5 1286q100.5 -74 100.5 -230q0 -81 -27 -173q-7 -26 -34 -26h-206q-26 0 -26 24q0 7 1 11q12 45 12 78q0 110 -122 110q-120 0 -193 -98.5t-99 -240.5h343q13 0 20 -8t5 -22l-17 -124q-1 -13 -11 -21.5t-24 -8.5h-324q17 -149 112.5 -230t257.5 -81q51 0 106 10 t102 28q8 3 14 3q11 0 15.5 -7.5t3.5 -20.5l-22 -159q-5 -28 -15.5 -44.5t-33.5 -28.5q-48 -26 -117 -41.5t-150 -15.5q-171 0 -297.5 72t-195.5 209.5t-69 328.5q0 189 69.5 368.5t212.5 295.5t351 116q157 0 257.5 -74z" glyph-name="uni0404" unicode="Є" vert-adv-y="1980"/>
<glyph d="M858.5 1288q126.5 -72 195.5 -209.5t69 -328.5q0 -189 -69.5 -368.5t-212 -295.5t-351.5 -116q-158 0 -258 74t-100 231q0 75 27 172q7 26 34 26h206q26 0 26 -24q0 -7 -1 -11q-11 -41 -11 -77q0 -111 121 -111q113 0 184.5 88t100.5 219h-305q-13 0 -20 8t-5 22l17 124 q1 13 11 21.5t24 8.5h295q-8 163 -104.5 253t-266.5 90q-52 0 -106.5 -10t-102.5 -28q-10 -2 -13 -2q-11 0 -16 7.5t-4 20.5l23 158q4 28 14.5 44.5t33.5 28.5q48 26 117 41.5t150 15.5q171 0 297.5 -72z" glyph-name="uni042D" unicode="Э" vert-adv-y="1980"/>
<glyph d="M97 0q-13 0 -23 12t-8 26l27 199q2 13 7.5 17t19.5 4h315l116 824h-303q-13 0 -23 12t-8 26l29 198q1 13 6.5 17.5t19.5 4.5h911q14 0 23.5 -12.5t6.5 -25.5l-27 -199q-1 -13 -7 -17t-20 -4h-315l-116 -824h303q13 0 23 -12t8 -26l-27 -198q-3 -13 -8 -17.5t-19 -4.5 h-911z" glyph-name="uni0406" unicode="І" vert-adv-y="1980"/>
<glyph d="M97 0q-13 0 -23 12t-8 26l27 199q2 13 7.5 17t19.5 4h315l116 824h-303q-13 0 -23 12t-8 26l29 198q1 13 6.5 17.5t19.5 4.5h911q14 0 23.5 -12.5t6.5 -25.5l-27 -199q-1 -13 -7 -17t-20 -4h-315l-116 -824h303q13 0 23 -12t8 -26l-27 -198q-3 -13 -8 -17.5t-19 -4.5 h-911zM495.5 1595q-32.5 19 -51.5 51.5t-19 72.5q0 39 19 71t51.5 51t70.5 19t70.5 -19t51.5 -51t19 -71q0 -40 -19 -72.5t-51.5 -51.5t-70.5 -19t-70.5 19zM938.5 1595q-32.5 19 -51.5 51.5t-19 72.5q0 39 19 71t51.5 51t70.5 19t70.5 -19t51.5 -51t19 -71q0 -40 -19 -72.5 t-51.5 -51.5t-70.5 -19t-70.5 19z" glyph-name="uni0407" unicode="Ї" vert-adv-y="1980"/>
<glyph d="M1072 1318.5q71 -37.5 106.5 -124t35.5 -233.5q0 -123 -24 -296q-38 -266 -100.5 -416t-157 -212.5t-238.5 -62.5q-112 0 -181 37t-102.5 121t-33.5 227q0 89 14 215h-76l-77 -544q-2 -13 -11.5 -21.5t-23.5 -8.5h-190q-16 0 -16 15q0 3 2 15l180 1280q2 16 6.5 23 t16.5 7h190q13 0 20.5 -8t5.5 -22l-72 -511h79q38 211 97 332t147 173t219 52q113 0 184 -37.5zM959 894q0 70 -12.5 108.5t-35.5 53t-58 14.5q-50 0 -84.5 -31t-62.5 -118.5t-52 -255.5q-20 -140 -20 -230q0 -70 12.5 -108.5t35 -52.5t57.5 -14q50 0 85 31t63.5 119 t51.5 255q20 139 20 229z" glyph-name="uni042E" unicode="Ю" vert-adv-y="1980"/>
<glyph d="M1184 1340q32 0 28 -32l-180 -1280q-4 -28 -32 -28h-232q-32 0 -28 32l53 378h-120l-336 -392q-9 -11 -16.5 -14.5t-19.5 -3.5h-248q-12 0 -19 5t-7 13q0 9 8 18l346 400q-233 72 -233 342q0 53 9 113q21 147 81.5 245.5t174.5 151t291 52.5h480zM829 668l58 414h-209 q-73 0 -122 -18t-80.5 -64.5t-43.5 -129.5q-5 -35 -5 -58q0 -79 44 -111.5t136 -32.5h222z" glyph-name="uni042F" unicode="Я" vert-adv-y="1980"/>
<glyph d="M1118 212q14 0 23 -11t9 -32q0 -9 -3 -23q-7 -41 -32.5 -77.5t-67 -59.5t-93.5 -23q-87 0 -138.5 63.5t-51.5 174.5q0 14 2 42l4 44h-27q-73 -165 -161 -250.5t-210 -85.5q-86 0 -150 43t-98.5 126t-34.5 200q0 182 81.5 335t233.5 243.5t353 90.5q106 0 205.5 -26 t158.5 -76l-69 -500l-12 -86q-1 -10 -4 -30.5t-3 -33.5q0 -26 10 -39.5t36 -13.5q15 0 31 4q3 1 8 1zM652.5 308q67.5 83 111 200.5t60.5 221.5q-44 27 -122 27q-103 0 -180 -48.5t-118 -129t-41 -172.5q0 -94 40 -138t100 -44q82 0 149.5 83z" glyph-name="uni0430" unicode="а" vert-adv-y="1980"/>
<glyph d="M232 1.5q-103 27.5 -163 78.5l137 971q26 187 115.5 268t254.5 81h232q71 0 101 10t38 35h219q-16 -115 -56 -174t-106.5 -79.5t-177.5 -20.5h-177q-84 0 -122.5 -40t-48.5 -119l-43 -336h15q73 162 169 249t223 87q86 0 148 -42.5t95.5 -125t33.5 -198.5 q0 -182 -83.5 -336t-237.5 -245t-356 -91q-107 0 -210 27.5zM682 278q80 49 122.5 129.5t42.5 171.5q0 94 -39.5 138t-97.5 44q-87 0 -158.5 -83.5t-118 -201t-62.5 -220.5q42 -27 125 -27q106 0 186 49z" glyph-name="uni0431" unicode="б" vert-adv-y="1980"/>
<glyph d="M92 0q-13 0 -20 8.5t-5 21.5l130 930q2 14 11.5 22t23.5 8h561q96 0 171.5 -26.5t118.5 -77.5t43 -124q0 -18 -3 -36q-11 -75 -58 -126.5t-127 -71.5l-3 -20q96 -13 147.5 -64.5t51.5 -132.5q0 -23 -2 -35q-18 -136 -150 -206t-339 -70h-551zM730 603q71 0 99 22.5 t33 58.5q1 5 1 16q0 29 -24.5 45t-87.5 16h-300l-22 -158h301zM717 229q86 0 119.5 28.5t33.5 76.5q0 35 -28 53.5t-98 18.5h-343l-24 -177h340z" glyph-name="uni0432" unicode="в" vert-adv-y="1980"/>
<glyph d="M111 0q-13 0 -20 8.5t-5 21.5l130 930q2 13 12 21.5t23 8.5h888q14 0 20.5 -8t4.5 -22l-23 -169q-2 -14 -11.5 -22t-22.5 -8h-637l-102 -731q-2 -14 -11.5 -22t-23.5 -8h-222z" glyph-name="uni0433" unicode="г" vert-adv-y="1980"/>
<glyph d="M111 0q-13 0 -20 8.5t-5 21.5l130 930q2 13 12 21.5t23 8.5h888q14 0 20.5 -8t4.5 -22l-23 -169q-2 -14 -11.5 -22t-22.5 -8h-637l-102 -731q-2 -14 -11.5 -22t-23.5 -8h-222zM613 1200q-11 0 -18 4.5t-7 12.5q0 7 6 17l156 252q8 13 17 18.5t21 5.5h197q11 0 18 -4.5 t7 -12.5q0 -6 -6 -17l-155 -252q-8 -13 -17 -18.5t-21 -5.5h-198z" glyph-name="uni0453" unicode="ѓ" vert-adv-y="1980"/>
<glyph d="M1152 1104q32 0 28 -32l-39 -281q-2 -14 -11.5 -22t-22.5 -8h-637l-102 -731q-2 -14 -11.5 -22t-23.5 -8h-222q-13 0 -20 8.5t-5 21.5l130 930q2 13 12 21.5t23 8.5h635l12 86q4 28 32 28h222z" glyph-name="uni0491" unicode="ґ" vert-adv-y="1980"/>
<glyph d="M1118 229q14 0 21 -8.5t5 -21.5l-44 -318q-2 -14 -11.5 -22t-22.5 -8h-201q-14 0 -21 8.5t-5 21.5l16 119h-620l-16 -119q-3 -14 -12 -22t-22 -8h-201q-14 0 -21 8.5t-5 21.5l50 355q2 9 5.5 13t11.5 4q53 0 104 22.5t88 69.5t47 116l69 499q2 13 12 21.5t23 8.5h741 q14 0 20.5 -8t4.5 -22l-102 -731h86zM535 462q-21 -151 -111 -233h337l74 532h-258z" glyph-name="uni0434" unicode="д" vert-adv-y="1980"/>
<glyph d="M1057 165q9 -14 9 -28q0 -19 -15 -30q-77 -66 -182.5 -99.5t-228.5 -33.5q-158 0 -270.5 56t-171 157.5t-58.5 237.5q0 159 77.5 294t211.5 214t295 79q109 0 186.5 -36t117.5 -97t40 -135q0 -133 -142 -250.5t-485 -191.5q62 -101 230 -101q77 0 144 16.5t118 48.5 q14 9 28 9q15 0 27 -15zM570.5 746.5q-61.5 -32.5 -105.5 -95t-55 -148.5q151 36 238 67.5t124.5 62.5t37.5 66q0 34 -30 57t-85 23q-63 0 -124.5 -32.5z" glyph-name="uni0435" unicode="е" vert-adv-y="1980"/>
</font>
</defs>
</svg>
