<?xml version="1.0" encoding="UTF-8"?>
<!DOCTYPE svg  PUBLIC '-//W3C//DTD SVG 1.1//EN'  'http://www.w3.org/Graphics/SVG/1.1/DTD/svg11.dtd'>
<svg version="1.1" xmlns="http://www.w3.org/2000/svg">
<defs>
<font id="CartographCF-Regular" horiz-adv-x="1230" vert-adv-y="2000">
<font-face font-family="Cartograph CF" font-weight="400" ascent="1600" bbox="-836 -691 4770 2000" cap-height="1340" descent="-400" panose-1="0 0 5 9 0 0 0 0 0 0" underline-position="-100" underline-thickness="50" unicode-range="U+0020-FFFD" units-per-em="2000" x-height="990"/>
<missing-glyph d="M184 1600h628v-1980h-628v1980zM659 1402v65h-326v-65h128v-73h-130v-66h328v66h-130v73h130zM529 1073v139h-198v-206h328v67h-130zM396 1145h65v-72h-65v72zM659 887v66h-328v-66h130v-73h-130v-65h198v138h130zM659 636v198h-65v-131h-263v-67h328zM659 368v224h-198 v-111h68v46h65v-93h-198v158h-65v-224h328zM659 26v224h-328v-224h328zM396 184h198v-93h-198v93zM659 -85v65h-328v-65h138l-138 -93v-65h328v65h-202l139 93h63z" horiz-adv-x="990" vert-adv-y="1980"/>
<glyph d="M3564 990q26 0 26 -21q0 -3 -2 -13l-237 -932q-3 -11 -13 -17.5t-23 -6.5h-149q-13 0 -23 6.5t-13 17.5l-170 688l-171 -688q-3 -11 -13 -17.5t-23 -6.5h-149q-13 0 -23 6.5t-13 17.5l-166 728l-166 -728q-2 -11 -12.5 -17.5t-23.5 -6.5h-148q-13 0 -23 6.5t-13 17.5 l-171 688l-171 -688q-3 -11 -13 -17.5t-23 -6.5h-148q-13 0 -23.5 6.5t-12.5 17.5l-166 728l-166 -728q-3 -11 -13 -17.5t-23 -6.5h-149q-13 0 -23 6.5t-13 17.5l-171 688l-170 -688q-3 -11 -13 -17.5t-23 -6.5h-149q-13 0 -23 6.5t-13 17.5l-237 932q-2 10 -2 13 q0 21 26 21h120q13 0 23 -6.5t13 -17.5l179 -741l183 741q3 11 13 17.5t23 6.5h100q13 0 23 -6.5t13 -17.5l183 -741l179 741q3 11 13 17.5t23 6.5h147q13 0 23 -6.5t13 -17.5l179 -741l183 741q3 11 13 17.5t23 6.5h100q13 0 23 -6.5t13 -17.5l183 -741l179 741 q3 11 13 17.5t23 6.5h147q13 0 23 -6.5t13 -17.5l179 -741l183 741q3 11 13 17.5t23 6.5h100q13 0 23 -6.5t13 -17.5l183 -741l179 741q3 11 13 17.5t23 6.5h120z" glyph-name="w_w_w.liga" horiz-adv-x="3690" unicode="www" vert-adv-y="1980"/>
<glyph d="M2860 1110l115 116l565 -565l-565 -565l-115 116l376 366h-3086v166h3086z" glyph-name="hyphen_hyphen_greater.liga" horiz-adv-x="3690" unicode="--&gt;" vert-adv-y="1980"/>
<glyph d="M1630 1110l115 116l565 -565l-565 -565l-115 116l376 366h-1856v166h1856z" glyph-name="hyphen_greater.liga" horiz-adv-x="2460" unicode="-&gt;" vert-adv-y="1980"/>
<glyph d="M2239 1110l115 116l565 -565l-565 -565l-115 116l377 366h-2466v166h2466zM2860 1110l115 116l565 -565l-565 -565l-115 116l461 449z" glyph-name="hyphen_greater_greater.liga" horiz-adv-x="3690" unicode="-&gt;&gt;" vert-adv-y="1980"/>
<glyph d="M2860 1110l115 116l565 -565l-565 -565l-115 116l376 366h-3086v166h3086z" glyph-name="endash_endash_greater.liga" horiz-adv-x="3690" unicode="––&gt;" vert-adv-y="1980"/>
<glyph d="M1630 1110l115 116l565 -565l-565 -565l-115 116l376 366h-1856v166h1856z" glyph-name="endash_greater.liga" horiz-adv-x="2460" unicode="–&gt;" vert-adv-y="1980"/>
<glyph d="M2239 1110l115 116l565 -565l-565 -565l-115 116l377 366h-2466v166h2466zM2860 1110l115 116l565 -565l-565 -565l-115 116l461 449z" glyph-name="endash_greater_greater.liga" horiz-adv-x="3690" unicode="–&gt;&gt;" vert-adv-y="1980"/>
<glyph d="M536.5 488.5q-45.5 26.5 -72 72t-26.5 100.5t26.5 100.5t72 72t100.5 26.5t100.5 -26.5t72 -72t26.5 -100.5t-26.5 -100.5t-72 -72t-100.5 -26.5t-100.5 26.5zM2192 744q14 0 22 -8t8 -22v-106q0 -13 -8 -21.5t-22 -8.5h-940q-13 0 -21.5 8.5t-8.5 21.5v106q0 14 8.5 22 t21.5 8h940z" glyph-name="period_hyphen.liga" horiz-adv-x="2460" unicode=".-" vert-adv-y="1980"/>
<glyph d="M536.5 488.5q-45.5 26.5 -72 72t-26.5 100.5t26.5 100.5t72 72t100.5 26.5t100.5 -26.5t72 -72t26.5 -100.5t-26.5 -100.5t-72 -72t-100.5 -26.5t-100.5 26.5zM2192 744q14 0 22 -8t8 -22v-106q0 -13 -8 -21.5t-22 -8.5h-940q-13 0 -21.5 8.5t-8.5 21.5v106q0 14 8.5 22 t21.5 8h940z" glyph-name="period_endash.liga" horiz-adv-x="2460" unicode=".–" vert-adv-y="1980"/>
<glyph d="M1300 795q-13 0 -21.5 8.5t-8.5 21.5v97q0 14 8.5 22t21.5 8h892q14 0 22 -8t8 -22v-97q0 -13 -8 -21.5t-22 -8.5h-892zM536.5 488.5q-45.5 26.5 -72 72t-26.5 100.5t26.5 100.5t72 72t100.5 26.5t100.5 -26.5t72 -72t26.5 -100.5t-26.5 -100.5t-72 -72t-100.5 -26.5 t-100.5 26.5zM1300 369q-13 0 -21.5 8.5t-8.5 21.5v97q0 14 8.5 22t21.5 8h892q14 0 22 -8t8 -22v-97q0 -13 -8 -21.5t-22 -8.5h-892z" glyph-name="period_equal.liga" horiz-adv-x="2460" unicode=".=" vert-adv-y="1980"/>
<glyph d="M1581 -2q-41 24 -65 65.5t-24 90.5q0 50 24 91.5t65 65.5t91 24t91 -24t65 -65.5t24 -91.5q0 -49 -24 -90.5t-65 -65.5t-91 -24t-91 24zM1581 676q-41 24 -65 65.5t-24 90.5q0 50 24 91.5t65 65.5t91 24t91 -24t65 -65.5t24 -91.5q0 -49 -24 -90.5t-65 -65.5t-91 -24 t-91 24zM697 -2q-41 24 -65 65.5t-24 90.5q0 50 24 91.5t65 65.5t91 24t91 -24t65 -65.5t24 -91.5q0 -49 -24 -90.5t-65 -65.5t-91 -24t-91 24zM697 676q-41 24 -65 65.5t-24 90.5q0 50 24 91.5t65 65.5t91 24t91 -24t65 -65.5t24 -91.5q0 -49 -24 -90.5t-65 -65.5t-91 -24 t-91 24z" glyph-name="colon_colon.liga" horiz-adv-x="2460" unicode="::" vert-adv-y="1980"/>
<glyph d="M1754 -2q-41 24 -65 65.5t-24 90.5q0 50 24 91.5t65 65.5t91 24t91 -24t65 -65.5t24 -91.5q0 -49 -24 -90.5t-65 -65.5t-91 -24t-91 24zM1754 676q-41 24 -65 65.5t-24 90.5q0 50 24 91.5t65 65.5t91 24t91 -24t65 -65.5t24 -91.5q0 -49 -24 -90.5t-65 -65.5t-91 -24 t-91 24zM2781 -2q-41 24 -65 65.5t-24 90.5q0 50 24 91.5t65 65.5t91 24t91 -24t65 -65.5t24 -91.5q0 -49 -24 -90.5t-65 -65.5t-91 -24t-91 24zM2781 676q-41 24 -65 65.5t-24 90.5q0 50 24 91.5t65 65.5t91 24t91 -24t65 -65.5t24 -91.5q0 -49 -24 -90.5t-65 -65.5 t-91 -24t-91 24zM727 -2q-41 24 -65 65.5t-24 90.5q0 50 24 91.5t65 65.5t91 24t91 -24t65 -65.5t24 -91.5q0 -49 -24 -90.5t-65 -65.5t-91 -24t-91 24zM727 676q-41 24 -65 65.5t-24 90.5q0 50 24 91.5t65 65.5t91 24t91 -24t65 -65.5t24 -91.5q0 -49 -24 -90.5t-65 -65.5 t-91 -24t-91 24z" glyph-name="colon_colon_colon.liga" horiz-adv-x="3690" unicode=":::" vert-adv-y="1980"/>
<glyph d="M1872 173q14 0 22 -8t8 -22v-62q0 -133 -8 -251.5t-22 -196.5q-4 -23 -34 -23h-106q-16 0 -23 7.5t-5 24.5q11 185 11 312v46h-247q-13 0 -21.5 8.5t-8.5 21.5v113q0 14 8.5 22t21.5 8h404zM1580 676q-41 24 -65 65.5t-24 90.5q0 50 24 91.5t65 65.5t91 24t91 -24 t65 -65.5t24 -91.5q0 -49 -24 -90.5t-65 -65.5t-91 -24t-91 24zM990 173q14 0 22 -8t8 -22v-62q0 -133 -8 -251.5t-22 -196.5q-4 -23 -34 -23h-106q-16 0 -23 7.5t-5 24.5q11 185 11 312v46h-247q-13 0 -21.5 8.5t-8.5 21.5v113q0 14 8.5 22t21.5 8h404zM698 676 q-41 24 -65 65.5t-24 90.5q0 50 24 91.5t65 65.5t91 24t91 -24t65 -65.5t24 -91.5q0 -49 -24 -90.5t-65 -65.5t-91 -24t-91 24z" glyph-name="semicolon_semicolon.liga" horiz-adv-x="2460" unicode=";;" vert-adv-y="1980"/>
<glyph d="M1383 795l-117 -269h1025q14 0 22 -8t8 -22v-97q0 -13 -8 -21.5t-22 -8.5h-1092l-220 -509q-10 -24 -36 -24h-141q-13 0 -20.5 5t-7.5 15q0 4 4 14l215 499h-824q-13 0 -21.5 8.5t-8.5 21.5v97q0 14 8.5 22t21.5 8h892l116 269h-1008q-13 0 -21.5 8.5t-8.5 21.5v97 q0 14 8.5 22t21.5 8h1075l238 551q10 23 34 23h144q26 0 26 -21q0 -6 -3 -14l-233 -539h841q14 0 22 -8t8 -22v-97q0 -13 -8 -21.5t-22 -8.5h-908z" glyph-name="exclam_equal.liga" horiz-adv-x="2460" unicode="!=" vert-adv-y="1980"/>
<glyph d="M2092 1008l-110 -256h1539q14 0 22 -8t8 -22v-96q0 -13 -8 -21.5t-22 -8.5h-1607l-110 -256h1717q14 0 22 -8t8 -22v-96q0 -13 -8 -21.5t-22 -8.5h-1785l-142 -330q-10 -24 -36 -24h-141q-13 0 -20.5 5t-7.5 15q0 4 4 14l138 320h-1362q-13 0 -21.5 8.5t-8.5 21.5v96 q0 14 8.5 22t21.5 8h1429l111 256h-1540q-13 0 -21.5 8.5t-8.5 21.5v96q0 14 8.5 22t21.5 8h1607l110 256h-1717q-13 0 -21.5 8.5t-8.5 21.5v96q0 14 8.5 22t21.5 8h1784l144 333q10 23 34 23h144q26 0 26 -21q0 -6 -3 -14l-139 -321h1362q14 0 22 -8t8 -22v-96 q0 -13 -8 -21.5t-22 -8.5h-1429z" glyph-name="exclam_equal_equal.liga" horiz-adv-x="3690" unicode="!==" vert-adv-y="1980"/>
<glyph d="M1351 1005q2 -12 2 -17q0 -33 -36 -42l-325 -85l211 -275q13 -18 13 -32q-1 -20 -25 -38l-87 -58q-16 -11 -29 -11q-21 0 -37 24l-190 278l-190 -278q-16 -24 -37 -24q-13 0 -29 11l-87 58q-24 17 -24 39q0 15 12 31l211 275l-325 85q-36 9 -36 42q0 5 2 17l24 96 q4 19 15.5 29.5t28.5 10.5q9 0 18 -3l324 -99l-10 342q0 22 14 35.5t36 13.5h101q22 0 36 -13.5t14 -35.5l-5 -342l324 99q9 3 18 3q17 0 28.5 -10.5t15.5 -29.5zM1367 -260q-13 0 -20.5 5t-7.5 15q0 4 4 14l704 1633q10 23 34 23h144q26 0 26 -21q0 -6 -3 -14l-704 -1631 q-10 -24 -36 -24h-141z" glyph-name="asterisk_slash.liga" horiz-adv-x="2460" unicode="*/" vert-adv-y="1980"/>
<glyph d="M177 -260q-13 0 -20.5 5t-7.5 15q0 4 4 14l704 1633q10 23 34 23h144q26 0 26 -21q0 -6 -3 -14l-704 -1631q-10 -24 -36 -24h-141zM2285 1005q2 -12 2 -17q0 -33 -36 -42l-325 -85l211 -275q13 -18 13 -32q-1 -20 -25 -38l-87 -58q-16 -11 -29 -11q-21 0 -37 24l-190 278 l-190 -278q-16 -24 -37 -24q-13 0 -29 11l-87 58q-24 17 -24 39q0 15 12 31l211 275l-325 85q-36 9 -36 42q0 5 2 17l24 96q4 19 15.5 29.5t28.5 10.5q9 0 18 -3l324 -99l-10 342q0 22 14 35.5t36 13.5h101q22 0 36 -13.5t14 -35.5l-5 -342l324 99q9 3 18 3q17 0 28.5 -10.5 t15.5 -29.5z" glyph-name="slash_asterisk.liga" horiz-adv-x="2460" unicode="/*" vert-adv-y="1980"/>
<glyph d="M2149 619q22 -13 22 -36v-119q0 -22 -22 -35l-710 -423q-9 -5 -18 -5q-14 0 -23 16l-59 100q-4 7 -4 15q0 17 16 26l629 366l-925 544l-562 -1305q-10 -23 -34 -23h-144q-26 0 -26 21q0 6 3 14l704 1631q11 24 36 24h141q13 0 20.5 -5t7.5 -15q0 -4 -4 -14l-74 -172z" glyph-name="slash_greater.liga" horiz-adv-x="2460" unicode="/&gt;" vert-adv-y="1980"/>
<glyph d="M1309 -260q-13 0 -20.5 5t-7.5 15q0 4 4 14l704 1633q10 23 34 23h144q26 0 26 -21q0 -6 -3 -14l-704 -1631q-10 -24 -36 -24h-141zM295 -260q-13 0 -20.5 5t-7.5 15q0 4 4 14l704 1633q10 23 34 23h144q26 0 26 -21q0 -6 -3 -14l-704 -1631q-10 -24 -36 -24h-141z" glyph-name="slash_slash.liga" horiz-adv-x="2460" unicode="//" vert-adv-y="1980"/>
<glyph d="M2460 -166h-2460v166h2460v-166z" glyph-name="underscore_underscore.liga" horiz-adv-x="2460" unicode="__" vert-adv-y="1980"/>
<glyph d="M169 795q-13 0 -21.5 8.5t-8.5 21.5v97q0 14 8.5 22t21.5 8h2122q14 0 22 -8t8 -22v-97q0 -13 -8 -21.5t-22 -8.5h-2122zM169 369q-13 0 -21.5 8.5t-8.5 21.5v97q0 14 8.5 22t21.5 8h2122q14 0 22 -8t8 -22v-97q0 -13 -8 -21.5t-22 -8.5h-2122z" glyph-name="equal_equal.liga" horiz-adv-x="2460" unicode="==" vert-adv-y="1980"/>
<glyph d="M169 1008q-13 0 -21.5 8.5t-8.5 21.5v96q0 14 8.5 22t21.5 8h3352q14 0 22 -8t8 -22v-96q0 -13 -8 -21.5t-22 -8.5h-3352zM169 596q-13 0 -21.5 8.5t-8.5 21.5v96q0 14 8.5 22t21.5 8h3352q14 0 22 -8t8 -22v-96q0 -13 -8 -21.5t-22 -8.5h-3352zM169 184q-13 0 -21.5 8.5 t-8.5 21.5v96q0 14 8.5 22t21.5 8h3352q14 0 22 -8t8 -22v-96q0 -13 -8 -21.5t-22 -8.5h-3352z" glyph-name="equal_equal_equal.liga" horiz-adv-x="3690" unicode="===" vert-adv-y="1980"/>
<glyph d="M2975 1226l565 -565l-565 -565l-115 116l161 157h-2852q-13 0 -21.5 8.5t-8.5 21.5v97q0 14 8.5 22t21.5 8h3013l139 135l-138 134h-3014q-13 0 -21.5 8.5t-8.5 21.5v97q0 14 8.5 22t21.5 8h2853l-162 158z" glyph-name="equal_equal_greater.liga" horiz-adv-x="3690" unicode="==&gt;" vert-adv-y="1980"/>
<glyph d="M1745 1226l565 -565l-565 -565l-115 116l161 157h-1622q-13 0 -21.5 8.5t-8.5 21.5v97q0 14 8.5 22t21.5 8h1783l139 135l-138 134h-1784q-13 0 -21.5 8.5t-8.5 21.5v97q0 14 8.5 22t21.5 8h1623l-162 158z" glyph-name="equal_greater.liga" horiz-adv-x="2460" unicode="=&gt;" vert-adv-y="1980"/>
<glyph d="M2354 1226l565 -565l-565 -565l-115 116l162 157h-2232q-13 0 -21.5 8.5t-8.5 21.5v97q0 14 8.5 22t21.5 8h2393l139 135l-138 134h-2394q-13 0 -21.5 8.5t-8.5 21.5v97q0 14 8.5 22t21.5 8h2233l-163 158zM2860 1110l115 116l565 -565l-565 -565l-115 116l461 449z" glyph-name="equal_greater_greater.liga" horiz-adv-x="3690" unicode="=&gt;&gt;" vert-adv-y="1980"/>
<glyph d="M2092 1008l-110 -256h1539q14 0 22 -8t8 -22v-96q0 -13 -8 -21.5t-22 -8.5h-1607l-110 -256h1717q14 0 22 -8t8 -22v-96q0 -13 -8 -21.5t-22 -8.5h-1785l-142 -330q-10 -24 -36 -24h-141q-13 0 -20.5 5t-7.5 15q0 4 4 14l138 320h-1362q-13 0 -21.5 8.5t-8.5 21.5v96 q0 14 8.5 22t21.5 8h1429l111 256h-1540q-13 0 -21.5 8.5t-8.5 21.5v96q0 14 8.5 22t21.5 8h1607l110 256h-1717q-13 0 -21.5 8.5t-8.5 21.5v96q0 14 8.5 22t21.5 8h1784l144 333q10 23 34 23h144q26 0 26 -21q0 -6 -3 -14l-139 -321h1362q14 0 22 -8t8 -22v-96 q0 -13 -8 -21.5t-22 -8.5h-1429z" glyph-name="equal_slash_equal.liga" horiz-adv-x="3690" unicode="=/=" vert-adv-y="1980"/>
<glyph d="M2860 1110l115 116l565 -565l-565 -565l-115 116l376 366h-2489l-482 -482l-115 116l461 449l-461 449l115 116l482 -482h2489z" glyph-name="greater_hyphen_greater.liga" horiz-adv-x="3690" unicode="&gt;-&gt;" vert-adv-y="1980"/>
<glyph d="M2860 1110l115 116l565 -565l-565 -565l-115 116l376 366h-2489l-482 -482l-115 116l461 449l-461 449l115 116l482 -482h2489z" glyph-name="greater_endash_greater.liga" horiz-adv-x="3690" unicode="&gt;–&gt;" vert-adv-y="1980"/>
<glyph d="M301 367q-9 -5 -18 -5q-14 0 -23 16l-59 100q-4 7 -4 15q0 16 16 25l630 367l-630 366q-16 9 -16 25q0 9 4 16l59 100q9 16 23 16q9 0 18 -5l710 -423q22 -13 22 -35v-120q0 -22 -22 -35zM301 -63q-9 -5 -18 -5q-14 0 -23 16l-59 100q-4 7 -4 15q0 16 16 25l712 422 q9 5 18 5q14 0 23 -15l59 -101q4 -7 4 -15q0 -16 -16 -25z" glyph-name="greater_equal.liga" unicode="&gt;=" vert-adv-y="1980"/>
<glyph d="M2860 1110l115 116l565 -565l-565 -565l-115 116l161 157h-2483l-273 -273l-115 116l461 449l-461 449l115 116l274 -274h2483zM830 661l-135 -135h2487l139 135l-138 134h-2487z" glyph-name="greater_equal_greater.liga" horiz-adv-x="3690" unicode="&gt;=&gt;" vert-adv-y="1980"/>
<glyph d="M454 744h1856v-166h-1856l376 -366l-115 -116l-565 565l565 565l115 -116z" glyph-name="less_hyphen.liga" horiz-adv-x="2460" unicode="&lt;-" vert-adv-y="1980"/>
<glyph d="M454 744h3086v-166h-3086l376 -366l-115 -116l-565 565l565 565l115 -116z" glyph-name="less_hyphen_hyphen.liga" horiz-adv-x="3690" unicode="&lt;--" vert-adv-y="1980"/>
<glyph d="M2860 1110l115 116l565 -565l-565 -565l-115 116l376 366h-2782l376 -366l-115 -116l-565 565l565 565l115 -116l-376 -366h2782z" glyph-name="less_hyphen_greater.liga" horiz-adv-x="3690" unicode="&lt;-&gt;" vert-adv-y="1980"/>
<glyph d="M3425 1226l115 -116l-461 -449l461 -449l-115 -116l-482 482h-2489l376 -366l-115 -116l-565 565l565 565l115 -116l-376 -366h2489z" glyph-name="less_hyphen_less.liga" horiz-adv-x="3690" unicode="&lt;-&lt;" vert-adv-y="1980"/>
<glyph d="M454 744h1856v-166h-1856l376 -366l-115 -116l-565 565l565 565l115 -116z" glyph-name="less_endash.liga" horiz-adv-x="2460" unicode="&lt;–" vert-adv-y="1980"/>
<glyph d="M454 744h3086v-166h-3086l376 -366l-115 -116l-565 565l565 565l115 -116z" glyph-name="less_endash_endash.liga" horiz-adv-x="3690" unicode="&lt;––" vert-adv-y="1980"/>
<glyph d="M2860 1110l115 116l565 -565l-565 -565l-115 116l376 366h-2782l376 -366l-115 -116l-565 565l565 565l115 -116l-376 -366h2782z" glyph-name="less_endash_greater.liga" horiz-adv-x="3690" unicode="&lt;–&gt;" vert-adv-y="1980"/>
<glyph d="M3425 1226l115 -116l-461 -449l461 -449l-115 -116l-482 482h-2489l376 -366l-115 -116l-565 565l565 565l115 -116l-376 -366h2489z" glyph-name="less_endash_less.liga" horiz-adv-x="3690" unicode="&lt;–&lt;" vert-adv-y="1980"/>
<glyph d="M1529 1214l-1 16q0 59 38 95t95 36q40 0 71.5 -18.5t48 -52t12.5 -76.5l-56 -680q-1 -15 -10.5 -23t-23.5 -8h-84q-14 0 -23.5 8t-10.5 23zM715 1226l115 -116l-376 -366h817v-166h-817l376 -366l-115 -116l-565 565zM2050 578v166h2720v-166h-2720zM1747.5 295 q39.5 -23 62.5 -62.5t23 -86.5t-23 -86.5t-62.5 -62.5t-86.5 -23t-86.5 23t-62.5 62.5t-23 86.5t23 86.5t62.5 62.5t86.5 23t86.5 -23z" glyph-name="less_exclam_hyphen_hyphen.liga" horiz-adv-x="4920" unicode="&lt;!--" vert-adv-y="1980"/>
<glyph d="M1529 1214l-1 16q0 59 38 95t95 36q40 0 71.5 -18.5t48 -52t12.5 -76.5l-56 -680q-1 -15 -10.5 -23t-23.5 -8h-84q-14 0 -23.5 8t-10.5 23zM715 1226l115 -116l-376 -366h817v-166h-817l376 -366l-115 -116l-565 565zM2050 578v166h2720v-166h-2720zM1747.5 295 q39.5 -23 62.5 -62.5t23 -86.5t-23 -86.5t-62.5 -62.5t-86.5 -23t-86.5 23t-62.5 62.5t-23 86.5t23 86.5t62.5 62.5t86.5 23t86.5 -23z" glyph-name="less_exclam_endash_endash.liga" horiz-adv-x="4920" unicode="&lt;!––" vert-adv-y="1980"/>
<glyph d="M219 790q-22 13 -22 35v120q0 22 22 35l710 423q9 5 18 5q14 0 23 -16l59 -100q4 -7 4 -16q0 -16 -16 -25l-630 -366l630 -367q16 -9 16 -25q0 -8 -4 -15l-59 -100q-9 -16 -23 -16q-9 0 -18 5zM217 359q-16 9 -16 25q0 8 4 15l59 101q9 15 23 15q9 0 18 -5l712 -422 q16 -9 16 -25q0 -8 -4 -15l-59 -100q-9 -16 -23 -16q-9 0 -18 5z" glyph-name="less_equal.liga" unicode="&lt;=" vert-adv-y="1980"/>
<glyph d="M507 795l-138 -134l139 -135h3013q14 0 22 -8t8 -22v-97q0 -13 -8 -21.5t-22 -8.5h-2852l161 -157l-115 -116l-565 565l565 565l115 -116l-162 -158h2853q14 0 22 -8t8 -22v-97q0 -13 -8 -21.5t-22 -8.5h-3014z" glyph-name="less_equal_equal.liga" horiz-adv-x="3690" unicode="&lt;==" vert-adv-y="1980"/>
<glyph d="M4090 1110l115 116l565 -565l-565 -565l-115 116l161 157h-3582l161 -157l-115 -116l-565 565l565 565l115 -116l-162 -158h3584zM369 661l139 -135h3904l139 135l-138 134h-3906z" glyph-name="less_equal_equal_greater.liga" horiz-adv-x="4920" unicode="&lt;==&gt;" vert-adv-y="1980"/>
<glyph d="M2860 1110l115 116l565 -565l-565 -565l-115 116l161 157h-2352l161 -157l-115 -116l-565 565l565 565l115 -116l-162 -158h2354zM369 661l139 -135h2674l139 135l-138 134h-2676z" glyph-name="less_equal_greater.liga" horiz-adv-x="3690" unicode="&lt;=&gt;" vert-adv-y="1980"/>
<glyph d="M3425 1226l115 -116l-461 -449l461 -449l-115 -116l-273 273h-2483l161 -157l-115 -116l-565 565l565 565l115 -116l-162 -158h2483zM369 661l139 -135h2487l-135 135l134 134h-2487z" glyph-name="less_equal_less.liga" horiz-adv-x="3690" unicode="&lt;=&lt;" vert-adv-y="1980"/>
<glyph d="M715 1226l115 -116l-461 -449l461 -449l-115 -116l-565 565zM1074 744h2466v-166h-2466l377 -366l-115 -116l-565 565l565 565l115 -116z" glyph-name="less_less_hyphen.liga" horiz-adv-x="3690" unicode="&lt;&lt;-" vert-adv-y="1980"/>
<glyph d="M715 1226l115 -116l-461 -449l461 -449l-115 -116l-565 565zM1074 744h2466v-166h-2466l377 -366l-115 -116l-565 565l565 565l115 -116z" glyph-name="less_less_endash.liga" horiz-adv-x="3690" unicode="&lt;&lt;–" vert-adv-y="1980"/>
<glyph d="M720 1226l115 -116l-461 -449l461 -449l-115 -116l-565 565zM1132 795l-138 -134l139 -135h2393q14 0 22 -8t8 -22v-97q0 -13 -8 -21.5t-22 -8.5h-2232l162 -157l-115 -116l-565 565l565 565l115 -116l-163 -158h2233q14 0 22 -8t8 -22v-97q0 -13 -8 -21.5t-22 -8.5 h-2394z" glyph-name="less_less_equal.liga" horiz-adv-x="3690" unicode="&lt;&lt;=" vert-adv-y="1980"/>
<glyph d="M2145 1430q26 0 26 -21q0 -6 -3 -14l-704 -1631q-10 -24 -36 -24h-141q-13 0 -20.5 5t-7.5 15q0 4 4 14l74 172l-1026 605q-22 13 -22 36v119q0 22 22 35l710 423q9 5 18 5q14 0 23 -16l59 -100q4 -7 4 -15q0 -17 -16 -26l-629 -366l925 -544l562 1305q10 23 34 23h144z " glyph-name="less_slash.liga" horiz-adv-x="2460" unicode="&lt;/" vert-adv-y="1980"/>
<glyph d="M3249 619q22 -13 22 -36v-119q0 -22 -22 -35l-710 -423q-9 -5 -18 -5q-14 0 -23 16l-59 100q-4 7 -4 15q0 17 16 26l629 366l-924 543l-562 -1303q-4 -8 -7 -11q-10 -13 -28 -13h-144q-26 0 -26 21q0 6 3 14l74 172l-1025 604q-22 13 -22 36v119q0 22 22 35l710 423 q9 5 18 5q14 0 23 -16l59 -100q4 -7 4 -15q0 -17 -16 -26l-629 -366l924 -543l562 1303q4 8 7 11q10 13 28 13h144q26 0 26 -21q0 -6 -3 -14l-74 -172z" glyph-name="less_slash_greater.liga" horiz-adv-x="3690" unicode="&lt;/&gt;" vert-adv-y="1980"/>
<glyph d="M184 1600h628v-1980h-628v1980zM659 1402v65h-326v-65h128v-73h-130v-66h328v66h-130v73h130zM529 1073v139h-198v-206h328v67h-130zM396 1145h65v-72h-65v72zM659 887v66h-328v-66h130v-73h-130v-65h198v138h130zM659 636v198h-65v-131h-263v-67h328zM659 368v224h-198 v-111h68v46h65v-93h-198v158h-65v-224h328zM659 26v224h-328v-224h328zM396 184h198v-93h-198v93zM659 -85v65h-328v-65h138l-138 -93v-65h328v65h-202l139 93h63z" glyph-name=".notdef" horiz-adv-x="990" vert-adv-y="1980"/>
<glyph glyph-name="space" unicode=" " vert-adv-y="1980"/>
<glyph d="M1157 34q2 -8 2 -12q0 -10 -7 -16t-19 -6h-146q-26 0 -34 24l-76 265h-524l-76 -265q-8 -24 -34 -24h-146q-12 0 -19 6t-7 16q0 4 2 12l380 1282q3 12 12.5 18t22.5 6h254q13 0 22.5 -6t12.5 -18zM594 1128l-190 -660h422l-190 660h-42z" glyph-name="A" unicode="A" vert-adv-y="1980"/>
<glyph d="M1157 34q2 -8 2 -12q0 -10 -7 -16t-19 -6h-146q-26 0 -34 24l-76 265h-524l-76 -265q-8 -24 -34 -24h-146q-12 0 -19 6t-7 16q0 4 2 12l380 1282q3 12 12.5 18t22.5 6h254q13 0 22.5 -6t12.5 -18zM594 1128l-190 -660h422l-190 660h-42zM564 1542q-13 0 -20.5 5t-7.5 15 q0 4 4 14l120 252q6 13 14 18.5t20 5.5h114q13 0 20.5 -5t7.5 -15q0 -4 -4 -14l-120 -252q-6 -13 -14 -18.5t-20 -5.5h-114z" glyph-name="Aacute" unicode="Á" vert-adv-y="1980"/>
<glyph d="M1157 34q2 -8 2 -12q0 -10 -7 -16t-19 -6h-146q-26 0 -34 24l-76 265h-524l-76 -265q-8 -24 -34 -24h-146q-12 0 -19 6t-7 16q0 4 2 12l380 1282q3 12 12.5 18t22.5 6h254q13 0 22.5 -6t12.5 -18zM594 1128l-190 -660h422l-190 660h-42zM462 1591q-66 35 -103.5 95 t-45.5 136q-3 30 29 30h77q26 0 32 -28q12 -56 54.5 -92.5t109.5 -36.5t109.5 36.5t54.5 92.5q6 28 32 28h77q32 0 29 -30q-8 -76 -45.5 -136t-103.5 -95t-153 -35t-153 35z" glyph-name="Abreve" unicode="Ă" vert-adv-y="1980"/>
<glyph d="M1157 34q2 -8 2 -12q0 -10 -7 -16t-19 -6h-146q-26 0 -34 24l-76 265h-524l-76 -265q-8 -24 -34 -24h-146q-12 0 -19 6t-7 16q0 4 2 12l380 1282q3 12 12.5 18t22.5 6h254q13 0 22.5 -6t12.5 -18zM594 1128l-190 -660h422l-190 660h-42zM521 1543q-24 0 -36 16l-222 257 q-9 11 -9 19t7 12.5t19 4.5h141q21 0 36 -16l158 -177l158 177q15 16 36 16h141q12 0 19 -4.5t7 -12.5t-9 -19l-222 -257q-12 -16 -36 -16h-188z" glyph-name="uni01CD" unicode="Ǎ" vert-adv-y="1980"/>
<glyph d="M1157 34q2 -8 2 -12q0 -10 -7 -16t-19 -6h-146q-26 0 -34 24l-76 265h-524l-76 -265q-8 -24 -34 -24h-146q-12 0 -19 6t-7 16q0 4 2 12l380 1282q3 12 12.5 18t22.5 6h254q13 0 22.5 -6t12.5 -18zM594 1128l-190 -660h422l-190 660h-42zM280 1543q-12 0 -19 4.5t-7 12.5 q0 9 9 19l222 257q12 16 36 16h188q24 0 36 -16l222 -257q9 -10 9 -19q0 -8 -7 -12.5t-19 -4.5h-141q-21 0 -36 16l-158 178l-158 -178q-15 -16 -36 -16h-141z" glyph-name="Acircumflex" unicode="Â" vert-adv-y="1980"/>
<glyph d="M1157 34q2 -8 2 -12q0 -10 -7 -16t-19 -6h-146q-26 0 -34 24l-76 265h-524l-76 -265q-8 -24 -34 -24h-146q-12 0 -19 6t-7 16q0 4 2 12l380 1282q3 12 12.5 18t22.5 6h254q13 0 22.5 -6t12.5 -18zM594 1128l-190 -660h422l-190 660h-42zM343 1669.5q-32 31.5 -32 76.5 q0 43 32 74.5t76 31.5t75.5 -31.5t31.5 -74.5q0 -45 -31.5 -76.5t-75.5 -31.5t-76 31.5zM737 1669.5q-32 31.5 -32 76.5q0 43 32 74.5t76 31.5t75.5 -31.5t31.5 -74.5q0 -45 -31.5 -76.5t-75.5 -31.5t-76 31.5z" glyph-name="Adieresis" unicode="Ä" vert-adv-y="1980"/>
<glyph d="M1157 34q2 -8 2 -12q0 -10 -7 -16t-19 -6h-146q-26 0 -34 24l-76 265h-524l-76 -265q-8 -24 -34 -24h-146q-12 0 -19 6t-7 16q0 4 2 12l380 1282q3 12 12.5 18t22.5 6h254q13 0 22.5 -6t12.5 -18zM594 1128l-190 -660h422l-190 660h-42zM552 1542q-12 0 -20 5.5t-14 18.5 l-120 252q-4 10 -4 14q0 10 7.5 15t20.5 5h114q12 0 20 -5.5t14 -18.5l120 -252q4 -10 4 -14q0 -10 -7.5 -15t-20.5 -5h-114z" glyph-name="Agrave" unicode="À" vert-adv-y="1980"/>
<glyph d="M1157 34q2 -8 2 -12q0 -10 -7 -16t-19 -6h-146q-26 0 -34 24l-76 265h-524l-76 -265q-8 -24 -34 -24h-146q-12 0 -19 6t-7 16q0 4 2 12l380 1282q3 12 12.5 18t22.5 6h254q13 0 22.5 -6t12.5 -18zM594 1128l-190 -660h422l-190 660h-42zM357 1694q-13 0 -21.5 8.5 t-8.5 21.5v98q0 14 8.5 22t21.5 8h516q14 0 22 -8t8 -22v-98q0 -13 -8 -21.5t-22 -8.5h-516z" glyph-name="Amacron" unicode="Ā" vert-adv-y="1980"/>
<glyph d="M1157 34q2 -8 2 -12q0 -10 -7 -16t-19 -6h-55q-202 0 -202 -126q0 -57 41.5 -86.5t120.5 -29.5h29q20 0 20 -20v-89q0 -20 -20 -20h-57q-67 0 -131 19t-108.5 68t-44.5 133q0 96 59 150t154 74l-62 216h-524l-76 -265q-8 -24 -34 -24h-146q-12 0 -19 6t-7 16q0 4 2 12 l380 1282q3 12 12.5 18t22.5 6h254q13 0 22.5 -6t12.5 -18zM594 1128l-190 -660h422l-190 660h-42z" glyph-name="Aogonek" unicode="Ą" vert-adv-y="1980"/>
<glyph d="M1157 34q2 -8 2 -12q0 -10 -7 -16t-19 -6h-146q-26 0 -34 24l-76 265h-524l-76 -265q-8 -24 -34 -24h-146q-12 0 -19 6t-7 16q0 4 2 12l380 1282q3 12 12.5 18t22.5 6h254q13 0 22.5 -6t12.5 -18zM594 1128l-190 -660h422l-190 660h-42zM520 1508q-43 25 -67.5 67.5 t-24.5 91.5q0 50 24.5 92.5t67.5 67.5t95 25q51 0 94 -25t67.5 -67.5t24.5 -92.5q0 -49 -24.5 -91.5t-67.5 -67.5t-94 -25q-52 0 -95 25zM664.5 1618.5q20.5 18.5 20.5 47.5q0 31 -20 50.5t-50 19.5t-50.5 -19t-20.5 -49t20.5 -49t50.5 -19q29 0 49.5 18.5z" glyph-name="Aring" unicode="Å" vert-adv-y="1980"/>
<glyph d="M1157 34q2 -8 2 -12q0 -10 -7 -16t-19 -6h-146q-26 0 -34 24l-76 265h-524l-76 -265q-8 -24 -34 -24h-146q-12 0 -19 6t-7 16q0 4 2 12l380 1282q3 12 12.5 18t22.5 6h254q13 0 22.5 -6t12.5 -18zM594 1128l-190 -660h422l-190 660h-42zM675 1608.5q-40 21.5 -87 62.5 q-37 31 -62.5 46t-57.5 15q-35 0 -58.5 -18t-32.5 -43q-6 -18 -23 -18h-79q-9 0 -14.5 7t-4.5 19q2 58 30 98t73 60.5t98 20.5q42 0 75 -11.5t56.5 -28t55.5 -43.5q36 -31 61.5 -46t57.5 -15q35 0 58.5 18t32.5 42q6 18 23 18h78q10 0 16 -5.5t5 -14.5q-2 -60 -30.5 -101.5 t-74 -62.5t-97.5 -21q-59 0 -99 21.5z" glyph-name="Atilde" unicode="Ã" vert-adv-y="1980"/>
<glyph d="M1159 186q14 0 22 -8t8 -22v-126q0 -13 -8 -21.5t-22 -8.5h-508q-13 0 -21.5 8.5t-8.5 21.5v171h-312l-67 -177q-8 -24 -34 -24h-139q-13 0 -20 5.5t-7 15.5q0 6 3 13l508 1282q9 24 35 24h569q14 0 22 -8t8 -22v-126q0 -13 -8 -21.5t-22 -8.5h-338v-358h296q14 0 22 -8 t8 -22v-126q0 -13 -8 -21.5t-22 -8.5h-296v-424h340zM621 1022l-244 -643h244v643z" glyph-name="AE" unicode="Æ" vert-adv-y="1980"/>
<glyph d="M162 0q-13 0 -21.5 8.5t-8.5 21.5v1280q0 14 8.5 22t21.5 8h485q211 0 304 -92t93 -233q0 -103 -51.5 -178t-165.5 -102v-20q288 -47 288 -342q0 -187 -115 -280t-369 -93h-469zM628 800q220 0 220 190q0 86 -52 125t-168 39h-290v-354h290zM631 186q99 0 159 21t88.5 67 t28.5 121q0 111 -65 170.5t-211 59.5h-293v-439h293z" glyph-name="B" unicode="B" vert-adv-y="1980"/>
<glyph d="M343.5 38.5q-113.5 68.5 -170 221t-56.5 405.5t56.5 405.5t170 221t290.5 68.5q140 0 240 -43t161 -147t72 -281q3 -33 -27 -33h-133q-28 0 -32 26q-13 113 -51 174.5t-94 84t-135 22.5q-105 0 -173.5 -41t-106.5 -150t-38 -307t38 -307t106.5 -150t173.5 -41 q121 0 191 48.5t89 174.5q4 26 32 26h133q30 0 27 -33q-16 -220 -139.5 -316.5t-333.5 -96.5q-177 0 -290.5 68.5z" glyph-name="C" unicode="C" vert-adv-y="1980"/>
<glyph d="M343.5 38.5q-113.5 68.5 -170 221t-56.5 405.5t56.5 405.5t170 221t290.5 68.5q140 0 240 -43t161 -147t72 -281q3 -33 -27 -33h-133q-28 0 -32 26q-13 113 -51 174.5t-94 84t-135 22.5q-105 0 -173.5 -41t-106.5 -150t-38 -307t38 -307t106.5 -150t173.5 -41 q121 0 191 48.5t89 174.5q4 26 32 26h133q30 0 27 -33q-16 -220 -139.5 -316.5t-333.5 -96.5q-177 0 -290.5 68.5zM581 1542q-13 0 -20.5 5t-7.5 15q0 4 4 14l120 252q6 13 14 18.5t20 5.5h114q13 0 20.5 -5t7.5 -15q0 -4 -4 -14l-120 -252q-6 -13 -14 -18.5t-20 -5.5h-114z " glyph-name="Cacute" unicode="Ć" vert-adv-y="1980"/>
<glyph d="M343.5 38.5q-113.5 68.5 -170 221t-56.5 405.5t56.5 405.5t170 221t290.5 68.5q140 0 240 -43t161 -147t72 -281q3 -33 -27 -33h-133q-28 0 -32 26q-13 113 -51 174.5t-94 84t-135 22.5q-105 0 -173.5 -41t-106.5 -150t-38 -307t38 -307t106.5 -150t173.5 -41 q121 0 191 48.5t89 174.5q4 26 32 26h133q30 0 27 -33q-16 -220 -139.5 -316.5t-333.5 -96.5q-177 0 -290.5 68.5zM539 1543q-24 0 -36 16l-222 257q-9 11 -9 19t7 12.5t19 4.5h141q21 0 36 -16l158 -177l158 177q15 16 36 16h141q12 0 19 -4.5t7 -12.5t-9 -19l-222 -257 q-12 -16 -36 -16h-188z" glyph-name="Ccaron" unicode="Č" vert-adv-y="1980"/>
<glyph d="M1080 416q30 0 27 -33q-16 -208 -127 -305t-301 -107l-45 -44q70 -6 119 -48.5t49 -110.5q0 -101 -71 -151t-177 -50q-38 0 -74 6q-18 3 -18 22v71q0 9 6 15t16 5q25 -4 54 -4q56 0 87.5 20t31.5 55q0 27 -27.5 46t-68.5 19q-36 0 -75 -16q-4 -2 -10 -2q-14 0 -14 16v70 q0 12 10 24l61 62q-142 18 -233.5 94t-137 222t-45.5 373q0 253 56.5 405.5t170 221t290.5 68.5q140 0 240 -43t161 -147t72 -281q3 -33 -27 -33h-133q-28 0 -32 26q-13 113 -51 174.5t-94 84t-135 22.5q-105 0 -173.5 -41t-106.5 -150t-38 -307t38 -307t106.5 -150 t173.5 -41q121 0 191 48.5t89 174.5q4 26 32 26h133z" glyph-name="Ccedilla" unicode="Ç" vert-adv-y="1980"/>
<glyph d="M343.5 38.5q-113.5 68.5 -170 221t-56.5 405.5t56.5 405.5t170 221t290.5 68.5q140 0 240 -43t161 -147t72 -281q3 -33 -27 -33h-133q-28 0 -32 26q-13 113 -51 174.5t-94 84t-135 22.5q-105 0 -173.5 -41t-106.5 -150t-38 -307t38 -307t106.5 -150t173.5 -41 q121 0 191 48.5t89 174.5q4 26 32 26h133q30 0 27 -33q-16 -220 -139.5 -316.5t-333.5 -96.5q-177 0 -290.5 68.5zM557.5 1669.5q-31.5 31.5 -31.5 76.5q0 43 31.5 74.5t75.5 31.5t75.5 -31.5t31.5 -74.5q0 -45 -31.5 -76.5t-75.5 -31.5t-75.5 31.5z" glyph-name="Cdotaccent" unicode="Ċ" vert-adv-y="1980"/>
<glyph d="M167 0q-13 0 -21.5 8.5t-8.5 21.5v1280q0 14 8.5 22t21.5 8h377q222 0 350.5 -82t180.5 -228.5t52 -359.5t-52 -359.5t-180.5 -228.5t-350.5 -82h-377zM537 186q154 0 237.5 56t114 159.5t30.5 268.5t-30.5 268.5t-114 159.5t-237.5 56h-194v-968h194z" glyph-name="D" unicode="D" vert-adv-y="1980"/>
<glyph d="M555 1340q222 0 350.5 -82t180.5 -228.5t52 -359.5t-52 -359.5t-180.5 -228.5t-350.5 -82h-377q-13 0 -21.5 8.5t-8.5 21.5v561h-54q-13 0 -21.5 8.5t-8.5 21.5v98q0 14 8.5 22t21.5 8h54v561q0 14 8.5 22t21.5 8h377zM548 186q154 0 237.5 56t114 159.5t30.5 268.5 t-30.5 268.5t-114 159.5t-237.5 56h-194v-405h256q14 0 22 -8t8 -22v-98q0 -13 -8 -21.5t-22 -8.5h-256v-405h194z" glyph-name="Eth" unicode="Ð" vert-adv-y="1980"/>
<glyph d="M167 0q-13 0 -21.5 8.5t-8.5 21.5v1280q0 14 8.5 22t21.5 8h377q222 0 350.5 -82t180.5 -228.5t52 -359.5t-52 -359.5t-180.5 -228.5t-350.5 -82h-377zM537 186q154 0 237.5 56t114 159.5t30.5 268.5t-30.5 268.5t-114 159.5t-237.5 56h-194v-968h194zM521 1543 q-24 0 -36 16l-222 257q-9 11 -9 19t7 12.5t19 4.5h141q21 0 36 -16l158 -177l158 177q15 16 36 16h141q12 0 19 -4.5t7 -12.5t-9 -19l-222 -257q-12 -16 -36 -16h-188z" glyph-name="Dcaron" unicode="Ď" vert-adv-y="1980"/>
<glyph d="M555 1340q222 0 350.5 -82t180.5 -228.5t52 -359.5t-52 -359.5t-180.5 -228.5t-350.5 -82h-377q-13 0 -21.5 8.5t-8.5 21.5v561h-54q-13 0 -21.5 8.5t-8.5 21.5v98q0 14 8.5 22t21.5 8h54v561q0 14 8.5 22t21.5 8h377zM548 186q154 0 237.5 56t114 159.5t30.5 268.5 t-30.5 268.5t-114 159.5t-237.5 56h-194v-405h256q14 0 22 -8t8 -22v-98q0 -13 -8 -21.5t-22 -8.5h-256v-405h194z" glyph-name="Dcroat" unicode="Đ" vert-adv-y="1980"/>
<glyph d="M191 0q-13 0 -21.5 8.5t-8.5 21.5v1280q0 14 8.5 22t21.5 8h846q14 0 22 -8t8 -22v-126q0 -13 -8 -21.5t-22 -8.5h-670v-380h626q14 0 22 -8t8 -22v-126q0 -13 -8 -21.5t-22 -8.5h-626v-402h672q14 0 22 -8t8 -22v-126q0 -13 -8 -21.5t-22 -8.5h-848z" glyph-name="E" unicode="E" vert-adv-y="1980"/>
<glyph d="M191 0q-13 0 -21.5 8.5t-8.5 21.5v1280q0 14 8.5 22t21.5 8h846q14 0 22 -8t8 -22v-126q0 -13 -8 -21.5t-22 -8.5h-670v-380h626q14 0 22 -8t8 -22v-126q0 -13 -8 -21.5t-22 -8.5h-626v-402h672q14 0 22 -8t8 -22v-126q0 -13 -8 -21.5t-22 -8.5h-848zM564 1542 q-13 0 -20.5 5t-7.5 15q0 4 4 14l120 252q6 13 14 18.5t20 5.5h114q13 0 20.5 -5t7.5 -15q0 -4 -4 -14l-120 -252q-6 -13 -14 -18.5t-20 -5.5h-114z" glyph-name="Eacute" unicode="É" vert-adv-y="1980"/>
<glyph d="M191 0q-13 0 -21.5 8.5t-8.5 21.5v1280q0 14 8.5 22t21.5 8h846q14 0 22 -8t8 -22v-126q0 -13 -8 -21.5t-22 -8.5h-670v-380h626q14 0 22 -8t8 -22v-126q0 -13 -8 -21.5t-22 -8.5h-626v-402h672q14 0 22 -8t8 -22v-126q0 -13 -8 -21.5t-22 -8.5h-848zM521 1543 q-24 0 -36 16l-222 257q-9 11 -9 19t7 12.5t19 4.5h141q21 0 36 -16l158 -177l158 177q15 16 36 16h141q12 0 19 -4.5t7 -12.5t-9 -19l-222 -257q-12 -16 -36 -16h-188z" glyph-name="Ecaron" unicode="Ě" vert-adv-y="1980"/>
<glyph d="M191 0q-13 0 -21.5 8.5t-8.5 21.5v1280q0 14 8.5 22t21.5 8h846q14 0 22 -8t8 -22v-126q0 -13 -8 -21.5t-22 -8.5h-670v-380h626q14 0 22 -8t8 -22v-126q0 -13 -8 -21.5t-22 -8.5h-626v-402h672q14 0 22 -8t8 -22v-126q0 -13 -8 -21.5t-22 -8.5h-848zM280 1543 q-12 0 -19 4.5t-7 12.5q0 9 9 19l222 257q12 16 36 16h188q24 0 36 -16l222 -257q9 -10 9 -19q0 -8 -7 -12.5t-19 -4.5h-141q-21 0 -36 16l-158 178l-158 -178q-15 -16 -36 -16h-141z" glyph-name="Ecircumflex" unicode="Ê" vert-adv-y="1980"/>
<glyph d="M191 0q-13 0 -21.5 8.5t-8.5 21.5v1280q0 14 8.5 22t21.5 8h846q14 0 22 -8t8 -22v-126q0 -13 -8 -21.5t-22 -8.5h-670v-380h626q14 0 22 -8t8 -22v-126q0 -13 -8 -21.5t-22 -8.5h-626v-402h672q14 0 22 -8t8 -22v-126q0 -13 -8 -21.5t-22 -8.5h-848zM343 1669.5 q-32 31.5 -32 76.5q0 43 32 74.5t76 31.5t75.5 -31.5t31.5 -74.5q0 -45 -31.5 -76.5t-75.5 -31.5t-76 31.5zM737 1669.5q-32 31.5 -32 76.5q0 43 32 74.5t76 31.5t75.5 -31.5t31.5 -74.5q0 -45 -31.5 -76.5t-75.5 -31.5t-76 31.5z" glyph-name="Edieresis" unicode="Ë" vert-adv-y="1980"/>
<glyph d="M191 0q-13 0 -21.5 8.5t-8.5 21.5v1280q0 14 8.5 22t21.5 8h846q14 0 22 -8t8 -22v-126q0 -13 -8 -21.5t-22 -8.5h-670v-380h626q14 0 22 -8t8 -22v-126q0 -13 -8 -21.5t-22 -8.5h-626v-402h672q14 0 22 -8t8 -22v-126q0 -13 -8 -21.5t-22 -8.5h-848zM539.5 1669.5 q-31.5 31.5 -31.5 76.5q0 43 31.5 74.5t75.5 31.5t75.5 -31.5t31.5 -74.5q0 -45 -31.5 -76.5t-75.5 -31.5t-75.5 31.5z" glyph-name="Edotaccent" unicode="Ė" vert-adv-y="1980"/>
<glyph d="M191 0q-13 0 -21.5 8.5t-8.5 21.5v1280q0 14 8.5 22t21.5 8h846q14 0 22 -8t8 -22v-126q0 -13 -8 -21.5t-22 -8.5h-670v-380h626q14 0 22 -8t8 -22v-126q0 -13 -8 -21.5t-22 -8.5h-626v-402h672q14 0 22 -8t8 -22v-126q0 -13 -8 -21.5t-22 -8.5h-848zM552 1542 q-12 0 -20 5.5t-14 18.5l-120 252q-4 10 -4 14q0 10 7.5 15t20.5 5h114q12 0 20 -5.5t14 -18.5l120 -252q4 -10 4 -14q0 -10 -7.5 -15t-20.5 -5h-114z" glyph-name="Egrave" unicode="È" vert-adv-y="1980"/>
<glyph d="M191 0q-13 0 -21.5 8.5t-8.5 21.5v1280q0 14 8.5 22t21.5 8h846q14 0 22 -8t8 -22v-126q0 -13 -8 -21.5t-22 -8.5h-670v-380h626q14 0 22 -8t8 -22v-126q0 -13 -8 -21.5t-22 -8.5h-626v-402h672q14 0 22 -8t8 -22v-126q0 -13 -8 -21.5t-22 -8.5h-848zM357 1694 q-13 0 -21.5 8.5t-8.5 21.5v98q0 14 8.5 22t21.5 8h516q14 0 22 -8t8 -22v-98q0 -13 -8 -21.5t-22 -8.5h-516z" glyph-name="Emacron" unicode="Ē" vert-adv-y="1980"/>
<glyph d="M1039 186q14 0 22 -8t8 -22v-126q0 -10 -5.5 -18t-14.5 -11v-1q-202 0 -202 -126q0 -57 41.5 -86.5t120.5 -29.5h29q20 0 20 -20v-89q0 -20 -20 -20h-57q-67 0 -131 19t-108.5 68t-44.5 133q0 94 60 151h-566q-13 0 -21.5 8.5t-8.5 21.5v1280q0 14 8.5 22t21.5 8h846 q14 0 22 -8t8 -22v-126q0 -13 -8 -21.5t-22 -8.5h-670v-380h626q14 0 22 -8t8 -22v-126q0 -13 -8 -21.5t-22 -8.5h-626v-402h672z" glyph-name="Eogonek" unicode="Ę" vert-adv-y="1980"/>
<glyph d="M185 0q-13 0 -21.5 8.5t-8.5 21.5v1280q0 14 8.5 22t21.5 8h860q14 0 22 -8t8 -22v-126q0 -13 -8 -21.5t-22 -8.5h-684v-468h638q14 0 22 -8t8 -22v-126q0 -13 -8 -21.5t-22 -8.5h-638v-470q0 -13 -8 -21.5t-22 -8.5h-146z" glyph-name="F" unicode="F" vert-adv-y="1980"/>
<glyph d="M1115 697q8 -8 8 -22v-133q0 -200 -51 -326t-158 -186t-278 -60q-178 0 -291.5 68.5t-170.5 221t-57 405.5t56.5 405.5t170 221t290.5 68.5q213 0 334.5 -100.5t137.5 -346.5q3 -33 -26 -33h-135q-28 0 -31 26q-12 102 -50 158t-94.5 77.5t-134.5 21.5q-105 0 -173.5 -41 t-106.5 -150t-38 -307t38 -307t108 -150t177 -41q102 0 164 31.5t94 112.5t32 227v3h-331q-13 0 -21.5 8.5t-8.5 21.5v104q0 14 8.5 22t21.5 8h494q14 0 22 -8z" glyph-name="G" unicode="G" vert-adv-y="1980"/>
<glyph d="M1115 697q8 -8 8 -22v-133q0 -200 -51 -326t-158 -186t-278 -60q-178 0 -291.5 68.5t-170.5 221t-57 405.5t56.5 405.5t170 221t290.5 68.5q213 0 334.5 -100.5t137.5 -346.5q3 -33 -26 -33h-135q-28 0 -31 26q-12 102 -50 158t-94.5 77.5t-134.5 21.5q-105 0 -173.5 -41 t-106.5 -150t-38 -307t38 -307t108 -150t177 -41q102 0 164 31.5t94 112.5t32 227v3h-331q-13 0 -21.5 8.5t-8.5 21.5v104q0 14 8.5 22t21.5 8h494q14 0 22 -8zM472 1591q-66 35 -103.5 95t-45.5 136q-3 30 29 30h77q26 0 32 -28q12 -56 54.5 -92.5t109.5 -36.5t109.5 36.5 t54.5 92.5q6 28 32 28h77q32 0 29 -30q-8 -76 -45.5 -136t-103.5 -95t-153 -35t-153 35z" glyph-name="Gbreve" unicode="Ğ" vert-adv-y="1980"/>
<glyph d="M1115 697q8 -8 8 -22v-133q0 -200 -51 -326t-158 -186t-278 -60q-178 0 -291.5 68.5t-170.5 221t-57 405.5t56.5 405.5t170 221t290.5 68.5q213 0 334.5 -100.5t137.5 -346.5q3 -33 -26 -33h-135q-28 0 -31 26q-12 102 -50 158t-94.5 77.5t-134.5 21.5q-105 0 -173.5 -41 t-106.5 -150t-38 -307t38 -307t108 -150t177 -41q102 0 164 31.5t94 112.5t32 227v3h-331q-13 0 -21.5 8.5t-8.5 21.5v104q0 14 8.5 22t21.5 8h494q14 0 22 -8zM811 -165q12 0 20 -7.5t8 -20.5v-58q0 -122 -7.5 -233t-20.5 -185q-4 -22 -32 -22h-99q-29 0 -27 30 q11 172 11 291v43h-231q-13 0 -20.5 7.5t-7.5 20.5v106q0 13 7.5 20.5t20.5 7.5h378z" glyph-name="uni0122" unicode="Ģ" vert-adv-y="1980"/>
<glyph d="M1115 697q8 -8 8 -22v-133q0 -200 -51 -326t-158 -186t-278 -60q-178 0 -291.5 68.5t-170.5 221t-57 405.5t56.5 405.5t170 221t290.5 68.5q213 0 334.5 -100.5t137.5 -346.5q3 -33 -26 -33h-135q-28 0 -31 26q-12 102 -50 158t-94.5 77.5t-134.5 21.5q-105 0 -173.5 -41 t-106.5 -150t-38 -307t38 -307t108 -150t177 -41q102 0 164 31.5t94 112.5t32 227v3h-331q-13 0 -21.5 8.5t-8.5 21.5v104q0 14 8.5 22t21.5 8h494q14 0 22 -8zM549.5 1669.5q-31.5 31.5 -31.5 76.5q0 43 31.5 74.5t75.5 31.5t75.5 -31.5t31.5 -74.5q0 -45 -31.5 -76.5 t-75.5 -31.5t-75.5 31.5z" glyph-name="Gdotaccent" unicode="Ġ" vert-adv-y="1980"/>
<glyph d="M1053 1340q14 0 22 -8t8 -22v-1280q0 -13 -8 -21.5t-22 -8.5h-146q-13 0 -21.5 8.5t-8.5 21.5v540h-524v-540q0 -13 -8 -21.5t-22 -8.5h-146q-13 0 -21.5 8.5t-8.5 21.5v1280q0 14 8.5 22t21.5 8h146q14 0 22 -8t8 -22v-554h524v554q0 14 8.5 22t21.5 8h146z" glyph-name="H" unicode="H" vert-adv-y="1980"/>
<glyph d="M1053 1340q14 0 22 -8t8 -22v-1280q0 -13 -8 -21.5t-22 -8.5h-146q-13 0 -21.5 8.5t-8.5 21.5v540h-524v-540q0 -13 -8 -21.5t-22 -8.5h-146q-13 0 -21.5 8.5t-8.5 21.5v1280q0 14 8.5 22t21.5 8h146q14 0 22 -8t8 -22v-186h524v186q0 14 8.5 22t21.5 8h146zM353 952 v-196h524v196h-524z" glyph-name="Hbar" unicode="Ħ" vert-adv-y="1980"/>
<glyph d="M163 0q-13 0 -21.5 8.5t-8.5 21.5v126q0 14 8.5 22t21.5 8h349v968h-349q-13 0 -21.5 8.5t-8.5 21.5v126q0 14 8.5 22t21.5 8h904q14 0 22 -8t8 -22v-126q0 -13 -8 -21.5t-22 -8.5h-349v-968h349q14 0 22 -8t8 -22v-126q0 -13 -8 -21.5t-22 -8.5h-904z" glyph-name="I" unicode="I" vert-adv-y="1980"/>
<glyph d="M261 1340q14 0 22 -8t8 -22v-1280q0 -13 -8 -21.5t-22 -8.5h-146q-13 0 -21.5 8.5t-8.5 21.5v1280q0 14 8.5 22t21.5 8h146zM1137 1332q8 -8 8 -22v-831q0 -167 -63.5 -278.5t-170.5 -165t-241 -53.5q-66 0 -127 13t-106 38q-16 9 -16 25q0 8 4 16l50 110q7 17 25 17 q8 0 13 -2q65 -25 135 -25q127 0 209 79.5t82 254.5v646h-459q-13 0 -21.5 8.5t-8.5 21.5v126q0 14 8.5 22t21.5 8h635q14 0 22 -8z" glyph-name="IJ" unicode="Ĳ" vert-adv-y="1980"/>
<glyph d="M163 0q-13 0 -21.5 8.5t-8.5 21.5v126q0 14 8.5 22t21.5 8h349v968h-349q-13 0 -21.5 8.5t-8.5 21.5v126q0 14 8.5 22t21.5 8h904q14 0 22 -8t8 -22v-126q0 -13 -8 -21.5t-22 -8.5h-349v-968h349q14 0 22 -8t8 -22v-126q0 -13 -8 -21.5t-22 -8.5h-904zM564 1542 q-13 0 -20.5 5t-7.5 15q0 4 4 14l120 252q6 13 14 18.5t20 5.5h114q13 0 20.5 -5t7.5 -15q0 -4 -4 -14l-120 -252q-6 -13 -14 -18.5t-20 -5.5h-114z" glyph-name="Iacute" unicode="Í" vert-adv-y="1980"/>
<glyph d="M163 0q-13 0 -21.5 8.5t-8.5 21.5v126q0 14 8.5 22t21.5 8h349v968h-349q-13 0 -21.5 8.5t-8.5 21.5v126q0 14 8.5 22t21.5 8h904q14 0 22 -8t8 -22v-126q0 -13 -8 -21.5t-22 -8.5h-349v-968h349q14 0 22 -8t8 -22v-126q0 -13 -8 -21.5t-22 -8.5h-904zM521 1543 q-24 0 -36 16l-222 257q-9 11 -9 19t7 12.5t19 4.5h141q21 0 36 -16l158 -177l158 177q15 16 36 16h141q12 0 19 -4.5t7 -12.5t-9 -19l-222 -257q-12 -16 -36 -16h-188z" glyph-name="uni01CF" unicode="Ǐ" vert-adv-y="1980"/>
<glyph d="M163 0q-13 0 -21.5 8.5t-8.5 21.5v126q0 14 8.5 22t21.5 8h349v968h-349q-13 0 -21.5 8.5t-8.5 21.5v126q0 14 8.5 22t21.5 8h904q14 0 22 -8t8 -22v-126q0 -13 -8 -21.5t-22 -8.5h-349v-968h349q14 0 22 -8t8 -22v-126q0 -13 -8 -21.5t-22 -8.5h-904zM280 1543 q-12 0 -19 4.5t-7 12.5q0 9 9 19l222 257q12 16 36 16h188q24 0 36 -16l222 -257q9 -10 9 -19q0 -8 -7 -12.5t-19 -4.5h-141q-21 0 -36 16l-158 178l-158 -178q-15 -16 -36 -16h-141z" glyph-name="Icircumflex" unicode="Î" vert-adv-y="1980"/>
<glyph d="M163 0q-13 0 -21.5 8.5t-8.5 21.5v126q0 14 8.5 22t21.5 8h349v968h-349q-13 0 -21.5 8.5t-8.5 21.5v126q0 14 8.5 22t21.5 8h904q14 0 22 -8t8 -22v-126q0 -13 -8 -21.5t-22 -8.5h-349v-968h349q14 0 22 -8t8 -22v-126q0 -13 -8 -21.5t-22 -8.5h-904zM343 1669.5 q-32 31.5 -32 76.5q0 43 32 74.5t76 31.5t75.5 -31.5t31.5 -74.5q0 -45 -31.5 -76.5t-75.5 -31.5t-76 31.5zM737 1669.5q-32 31.5 -32 76.5q0 43 32 74.5t76 31.5t75.5 -31.5t31.5 -74.5q0 -45 -31.5 -76.5t-75.5 -31.5t-76 31.5z" glyph-name="Idieresis" unicode="Ï" vert-adv-y="1980"/>
<glyph d="M163 0q-13 0 -21.5 8.5t-8.5 21.5v126q0 14 8.5 22t21.5 8h349v968h-349q-13 0 -21.5 8.5t-8.5 21.5v126q0 14 8.5 22t21.5 8h904q14 0 22 -8t8 -22v-126q0 -13 -8 -21.5t-22 -8.5h-349v-968h349q14 0 22 -8t8 -22v-126q0 -13 -8 -21.5t-22 -8.5h-904zM539.5 1669.5 q-31.5 31.5 -31.5 76.5q0 43 31.5 74.5t75.5 31.5t75.5 -31.5t31.5 -74.5q0 -45 -31.5 -76.5t-75.5 -31.5t-75.5 31.5z" glyph-name="Idotaccent" unicode="İ" vert-adv-y="1980"/>
<glyph d="M163 0q-13 0 -21.5 8.5t-8.5 21.5v126q0 14 8.5 22t21.5 8h349v968h-349q-13 0 -21.5 8.5t-8.5 21.5v126q0 14 8.5 22t21.5 8h904q14 0 22 -8t8 -22v-126q0 -13 -8 -21.5t-22 -8.5h-349v-968h349q14 0 22 -8t8 -22v-126q0 -13 -8 -21.5t-22 -8.5h-904zM552 1542 q-12 0 -20 5.5t-14 18.5l-120 252q-4 10 -4 14q0 10 7.5 15t20.5 5h114q12 0 20 -5.5t14 -18.5l120 -252q4 -10 4 -14q0 -10 -7.5 -15t-20.5 -5h-114z" glyph-name="Igrave" unicode="Ì" vert-adv-y="1980"/>
<glyph d="M163 0q-13 0 -21.5 8.5t-8.5 21.5v126q0 14 8.5 22t21.5 8h349v968h-349q-13 0 -21.5 8.5t-8.5 21.5v126q0 14 8.5 22t21.5 8h904q14 0 22 -8t8 -22v-126q0 -13 -8 -21.5t-22 -8.5h-349v-968h349q14 0 22 -8t8 -22v-126q0 -13 -8 -21.5t-22 -8.5h-904zM357 1694 q-13 0 -21.5 8.5t-8.5 21.5v98q0 14 8.5 22t21.5 8h516q14 0 22 -8t8 -22v-98q0 -13 -8 -21.5t-22 -8.5h-516z" glyph-name="Imacron" unicode="Ī" vert-adv-y="1980"/>
<glyph d="M718 1154v-968h349q14 0 22 -8t8 -22v-126q0 -13 -8 -21.5t-22 -8.5h-256q-202 0 -202 -126q0 -57 41.5 -86.5t120.5 -29.5h29q20 0 20 -20v-89q0 -20 -20 -20h-57q-67 0 -131 19t-108.5 68t-44.5 133q0 94 60 151h-356q-13 0 -21.5 8.5t-8.5 21.5v126q0 14 8.5 22 t21.5 8h349v968h-349q-13 0 -21.5 8.5t-8.5 21.5v126q0 14 8.5 22t21.5 8h904q14 0 22 -8t8 -22v-126q0 -13 -8 -21.5t-22 -8.5h-349z" glyph-name="Iogonek" unicode="Į" vert-adv-y="1980"/>
<glyph d="M1084 1332q8 -8 8 -22v-824q0 -168 -62.5 -283.5t-175 -174t-261.5 -58.5q-144 0 -253 55t-170.5 165.5t-61.5 273.5q0 15 8 22.5t22 7.5h142q29 0 30 -30q4 -146 81 -221.5t208 -75.5q135 0 211 82t76 245v660h-565q-13 0 -21.5 8.5t-8.5 21.5v126q0 14 8.5 22t21.5 8 h741q14 0 22 -8z" glyph-name="J" unicode="J" vert-adv-y="1980"/>
<glyph d="M1137 36q7 -10 7 -18t-6.5 -13t-18.5 -5h-164q-12 0 -20.5 4t-15.5 14l-414 559l-173 -208v-339q0 -13 -8 -21.5t-22 -8.5h-146q-13 0 -21.5 8.5t-8.5 21.5v1280q0 14 8.5 22t21.5 8h146q14 0 22 -8t8 -22v-659l543 673q13 16 36 16h180q12 0 18.5 -4.5t6.5 -11.5 q0 -9 -9 -20l-479 -578z" glyph-name="K" unicode="K" vert-adv-y="1980"/>
<glyph d="M1137 36q7 -10 7 -18t-6.5 -13t-18.5 -5h-164q-12 0 -20.5 4t-15.5 14l-414 559l-173 -208v-339q0 -13 -8 -21.5t-22 -8.5h-146q-13 0 -21.5 8.5t-8.5 21.5v1280q0 14 8.5 22t21.5 8h146q14 0 22 -8t8 -22v-659l543 673q13 16 36 16h180q12 0 18.5 -4.5t6.5 -11.5 q0 -9 -9 -20l-479 -578zM800 -165q12 0 20 -7.5t8 -20.5v-58q0 -122 -7.5 -233t-20.5 -185q-4 -22 -32 -22h-99q-29 0 -27 30q11 172 11 291v43h-231q-13 0 -20.5 7.5t-7.5 20.5v106q0 13 7.5 20.5t20.5 7.5h378z" glyph-name="uni0136" unicode="Ķ" vert-adv-y="1980"/>
<glyph d="M206 0q-13 0 -21.5 8.5t-8.5 21.5v1280q0 14 8.5 22t21.5 8h146q14 0 22 -8t8 -22v-1124h672q14 0 22 -8t8 -22v-126q0 -13 -8 -21.5t-22 -8.5h-848z" glyph-name="L" unicode="L" vert-adv-y="1980"/>
<glyph d="M206 0q-13 0 -21.5 8.5t-8.5 21.5v1280q0 14 8.5 22t21.5 8h146q14 0 22 -8t8 -22v-1124h672q14 0 22 -8t8 -22v-126q0 -13 -8 -21.5t-22 -8.5h-848zM215 1516q-13 0 -20.5 5t-7.5 15q0 4 4 14l120 252q6 13 14 18.5t20 5.5h114q13 0 20.5 -5t7.5 -15q0 -4 -4 -14 l-120 -252q-6 -13 -14 -18.5t-20 -5.5h-114z" glyph-name="Lacute" unicode="Ĺ" vert-adv-y="1980"/>
<glyph d="M206 0q-13 0 -21.5 8.5t-8.5 21.5v1280q0 14 8.5 22t21.5 8h146q14 0 22 -8t8 -22v-1124h672q14 0 22 -8t8 -22v-126q0 -13 -8 -21.5t-22 -8.5h-848zM961 1340q14 0 22 -8t8 -22v-62q0 -133 -8 -251.5t-22 -196.5q-4 -23 -34 -23h-106q-16 0 -23 7.5t-5 24.5 q11 185 11 312v46h-247q-13 0 -21.5 8.5t-8.5 21.5v113q0 14 8.5 22t21.5 8h404z" glyph-name="Lcaron" unicode="Ľ" vert-adv-y="1980"/>
<glyph d="M206 0q-13 0 -21.5 8.5t-8.5 21.5v1280q0 14 8.5 22t21.5 8h146q14 0 22 -8t8 -22v-1124h672q14 0 22 -8t8 -22v-126q0 -13 -8 -21.5t-22 -8.5h-848zM800 -165q12 0 20 -7.5t8 -20.5v-58q0 -122 -7.5 -233t-20.5 -185q-4 -22 -32 -22h-99q-29 0 -27 30q11 172 11 291v43 h-231q-13 0 -20.5 7.5t-7.5 20.5v106q0 13 7.5 20.5t20.5 7.5h378z" glyph-name="uni013B" unicode="Ļ" vert-adv-y="1980"/>
<glyph d="M206 0q-13 0 -21.5 8.5t-8.5 21.5v1280q0 14 8.5 22t21.5 8h146q14 0 22 -8t8 -22v-1124h672q14 0 22 -8t8 -22v-126q0 -13 -8 -21.5t-22 -8.5h-848zM667 634q-41 24 -65 65.5t-24 90.5q0 50 24 91.5t65 65.5t91 24t91 -24t65 -65.5t24 -91.5q0 -49 -24 -90.5t-65 -65.5 t-91 -24t-91 24z" glyph-name="Ldot" unicode="Ŀ" vert-adv-y="1980"/>
<glyph d="M1009 186q14 0 22 -8t8 -22v-126q0 -13 -8 -21.5t-22 -8.5h-768q-13 0 -21.5 8.5t-8.5 21.5v448l-108 -106q-11 -11 -20 -11q-8 0 -12 7t-4 20v130q0 22 16 38l128 125v689q0 14 8.5 22t21.5 8h146q14 0 22 -8t8 -22v-489l175 171q11 11 20 11q8 0 12 -7t4 -20v-128 q0 -22 -16 -38l-195 -191v-493h592z" glyph-name="Lslash" unicode="Ł" vert-adv-y="1980"/>
<glyph d="M162 0q-13 0 -21.5 8.5t-8.5 21.5v1280q0 14 8.5 22t21.5 8h167q13 0 23.5 -5t12.5 -15l244 -994h12l244 994q2 10 12.5 15t23.5 5h167q14 0 22 -8t8 -22v-1280q0 -13 -8 -21.5t-22 -8.5h-116q-13 0 -21.5 8.5t-8.5 21.5v884h-13l-203 -791q-3 -11 -12.5 -17t-22.5 -6 h-112q-13 0 -22.5 6t-12.5 17l-203 791h-13v-884q0 -13 -8 -21.5t-22 -8.5h-116z" glyph-name="M" unicode="M" vert-adv-y="1980"/>
<glyph d="M1046 1340q14 0 22 -8t8 -22v-1280q0 -13 -8 -21.5t-22 -8.5h-180q-27 0 -36 20l-488 1022v-1012q0 -13 -8 -21.5t-22 -8.5h-128q-13 0 -21.5 8.5t-8.5 21.5v1280q0 14 8.5 22t21.5 8h182q26 0 36 -20l486 -1020v1010q0 14 8.5 22t21.5 8h128z" glyph-name="N" unicode="N" vert-adv-y="1980"/>
<glyph d="M1046 1340q14 0 22 -8t8 -22v-1280q0 -13 -8 -21.5t-22 -8.5h-180q-27 0 -36 20l-488 1022v-1012q0 -13 -8 -21.5t-22 -8.5h-128q-13 0 -21.5 8.5t-8.5 21.5v1280q0 14 8.5 22t21.5 8h182q26 0 36 -20l486 -1020v1010q0 14 8.5 22t21.5 8h128zM564 1542q-13 0 -20.5 5 t-7.5 15q0 4 4 14l120 252q6 13 14 18.5t20 5.5h114q13 0 20.5 -5t7.5 -15q0 -4 -4 -14l-120 -252q-6 -13 -14 -18.5t-20 -5.5h-114z" glyph-name="Nacute" unicode="Ń" vert-adv-y="1980"/>
<glyph d="M1046 1340q14 0 22 -8t8 -22v-1280q0 -13 -8 -21.5t-22 -8.5h-180q-27 0 -36 20l-488 1022v-1012q0 -13 -8 -21.5t-22 -8.5h-128q-13 0 -21.5 8.5t-8.5 21.5v1280q0 14 8.5 22t21.5 8h182q26 0 36 -20l486 -1020v1010q0 14 8.5 22t21.5 8h128zM521 1543q-24 0 -36 16 l-222 257q-9 11 -9 19t7 12.5t19 4.5h141q21 0 36 -16l158 -177l158 177q15 16 36 16h141q12 0 19 -4.5t7 -12.5t-9 -19l-222 -257q-12 -16 -36 -16h-188z" glyph-name="Ncaron" unicode="Ň" vert-adv-y="1980"/>
<glyph d="M1046 1340q14 0 22 -8t8 -22v-1280q0 -13 -8 -21.5t-22 -8.5h-180q-27 0 -36 20l-488 1022v-1012q0 -13 -8 -21.5t-22 -8.5h-128q-13 0 -21.5 8.5t-8.5 21.5v1280q0 14 8.5 22t21.5 8h182q26 0 36 -20l486 -1020v1010q0 14 8.5 22t21.5 8h128zM800 -165q12 0 20 -7.5 t8 -20.5v-58q0 -122 -7.5 -233t-20.5 -185q-4 -22 -32 -22h-99q-29 0 -27 30q11 172 11 291v43h-231q-13 0 -20.5 7.5t-7.5 20.5v106q0 13 7.5 20.5t20.5 7.5h378z" glyph-name="uni0145" unicode="Ņ" vert-adv-y="1980"/>
<glyph d="M1046 1340q14 0 22 -8t8 -22v-1310q0 -216 -126 -313t-383 -97v188q160 0 240.5 53.5t80.5 168.5h-22q-27 0 -36 20l-488 1022v-1012q0 -13 -8 -21.5t-22 -8.5h-128q-13 0 -21.5 8.5t-8.5 21.5v1280q0 14 8.5 22t21.5 8h182q26 0 36 -20l486 -1020v1010q0 14 8.5 22 t21.5 8h128z" glyph-name="Eng" unicode="Ŋ" vert-adv-y="1980"/>
<glyph d="M1046 1340q14 0 22 -8t8 -22v-1280q0 -13 -8 -21.5t-22 -8.5h-180q-27 0 -36 20l-488 1022v-1012q0 -13 -8 -21.5t-22 -8.5h-128q-13 0 -21.5 8.5t-8.5 21.5v1280q0 14 8.5 22t21.5 8h182q26 0 36 -20l486 -1020v1010q0 14 8.5 22t21.5 8h128zM675 1608.5 q-40 21.5 -87 62.5q-37 31 -62.5 46t-57.5 15q-35 0 -58.5 -18t-32.5 -43q-6 -18 -23 -18h-79q-9 0 -14.5 7t-4.5 19q2 58 30 98t73 60.5t98 20.5q42 0 75 -11.5t56.5 -28t55.5 -43.5q36 -31 61.5 -46t57.5 -15q35 0 58.5 18t32.5 42q6 18 23 18h78q10 0 16 -5.5t5 -14.5 q-2 -60 -30.5 -101.5t-74 -62.5t-97.5 -21q-59 0 -99 21.5z" glyph-name="Ntilde" unicode="Ñ" vert-adv-y="1980"/>
<glyph d="M337.5 38.5q-109.5 68.5 -165 221.5t-55.5 405t55.5 405t165 221.5t277.5 68.5t277.5 -68.5t165 -221.5t55.5 -405t-55.5 -405t-165 -221.5t-277.5 -68.5t-277.5 68.5zM774.5 209q64.5 41 101.5 150t37 306t-37 306t-101.5 150t-159.5 41t-159.5 -41t-101.5 -150 t-37 -306t37 -306t101.5 -150t159.5 -41t159.5 41z" glyph-name="O" unicode="O" vert-adv-y="1980"/>
<glyph d="M337.5 38.5q-109.5 68.5 -165 221.5t-55.5 405t55.5 405t165 221.5t277.5 68.5t277.5 -68.5t165 -221.5t55.5 -405t-55.5 -405t-165 -221.5t-277.5 -68.5t-277.5 68.5zM774.5 209q64.5 41 101.5 150t37 306t-37 306t-101.5 150t-159.5 41t-159.5 -41t-101.5 -150 t-37 -306t37 -306t101.5 -150t159.5 -41t159.5 41zM564 1542q-13 0 -20.5 5t-7.5 15q0 4 4 14l120 252q6 13 14 18.5t20 5.5h114q13 0 20.5 -5t7.5 -15q0 -4 -4 -14l-120 -252q-6 -13 -14 -18.5t-20 -5.5h-114z" glyph-name="Oacute" unicode="Ó" vert-adv-y="1980"/>
<glyph d="M337.5 38.5q-109.5 68.5 -165 221.5t-55.5 405t55.5 405t165 221.5t277.5 68.5t277.5 -68.5t165 -221.5t55.5 -405t-55.5 -405t-165 -221.5t-277.5 -68.5t-277.5 68.5zM774.5 209q64.5 41 101.5 150t37 306t-37 306t-101.5 150t-159.5 41t-159.5 -41t-101.5 -150 t-37 -306t37 -306t101.5 -150t159.5 -41t159.5 41zM521 1543q-24 0 -36 16l-222 257q-9 11 -9 19t7 12.5t19 4.5h141q21 0 36 -16l158 -177l158 177q15 16 36 16h141q12 0 19 -4.5t7 -12.5t-9 -19l-222 -257q-12 -16 -36 -16h-188z" glyph-name="uni01D1" unicode="Ǒ" vert-adv-y="1980"/>
<glyph d="M337.5 38.5q-109.5 68.5 -165 221.5t-55.5 405t55.5 405t165 221.5t277.5 68.5t277.5 -68.5t165 -221.5t55.5 -405t-55.5 -405t-165 -221.5t-277.5 -68.5t-277.5 68.5zM774.5 209q64.5 41 101.5 150t37 306t-37 306t-101.5 150t-159.5 41t-159.5 -41t-101.5 -150 t-37 -306t37 -306t101.5 -150t159.5 -41t159.5 41zM280 1543q-12 0 -19 4.5t-7 12.5q0 9 9 19l222 257q12 16 36 16h188q24 0 36 -16l222 -257q9 -10 9 -19q0 -8 -7 -12.5t-19 -4.5h-141q-21 0 -36 16l-158 178l-158 -178q-15 -16 -36 -16h-141z" glyph-name="Ocircumflex" unicode="Ô" vert-adv-y="1980"/>
<glyph d="M337.5 38.5q-109.5 68.5 -165 221.5t-55.5 405t55.5 405t165 221.5t277.5 68.5t277.5 -68.5t165 -221.5t55.5 -405t-55.5 -405t-165 -221.5t-277.5 -68.5t-277.5 68.5zM774.5 209q64.5 41 101.5 150t37 306t-37 306t-101.5 150t-159.5 41t-159.5 -41t-101.5 -150 t-37 -306t37 -306t101.5 -150t159.5 -41t159.5 41zM343 1669.5q-32 31.5 -32 76.5q0 43 32 74.5t76 31.5t75.5 -31.5t31.5 -74.5q0 -45 -31.5 -76.5t-75.5 -31.5t-76 31.5zM737 1669.5q-32 31.5 -32 76.5q0 43 32 74.5t76 31.5t75.5 -31.5t31.5 -74.5q0 -45 -31.5 -76.5 t-75.5 -31.5t-76 31.5z" glyph-name="Odieresis" unicode="Ö" vert-adv-y="1980"/>
<glyph d="M337.5 38.5q-109.5 68.5 -165 221.5t-55.5 405t55.5 405t165 221.5t277.5 68.5t277.5 -68.5t165 -221.5t55.5 -405t-55.5 -405t-165 -221.5t-277.5 -68.5t-277.5 68.5zM774.5 209q64.5 41 101.5 150t37 306t-37 306t-101.5 150t-159.5 41t-159.5 -41t-101.5 -150 t-37 -306t37 -306t101.5 -150t159.5 -41t159.5 41zM552 1542q-12 0 -20 5.5t-14 18.5l-120 252q-4 10 -4 14q0 10 7.5 15t20.5 5h114q12 0 20 -5.5t14 -18.5l120 -252q4 -10 4 -14q0 -10 -7.5 -15t-20.5 -5h-114z" glyph-name="Ograve" unicode="Ò" vert-adv-y="1980"/>
<glyph d="M337.5 38.5q-109.5 68.5 -165 221.5t-55.5 405t55.5 405t165 221.5t277.5 68.5t277.5 -68.5t165 -221.5t55.5 -405t-55.5 -405t-165 -221.5t-277.5 -68.5t-277.5 68.5zM774.5 209q64.5 41 101.5 150t37 306t-37 306t-101.5 150t-159.5 41t-159.5 -41t-101.5 -150 t-37 -306t37 -306t101.5 -150t159.5 -41t159.5 41zM707 1542q-13 0 -20.5 5t-7.5 15q0 4 4 14l120 252q6 13 14 18.5t20 5.5h114q13 0 20.5 -5t7.5 -15q0 -4 -4 -14l-120 -252q-6 -13 -14 -18.5t-20 -5.5h-114zM385 1542q-13 0 -20.5 5t-7.5 15q0 4 4 14l120 252 q6 13 14 18.5t20 5.5h114q13 0 20.5 -5t7.5 -15q0 -4 -4 -14l-120 -252q-6 -13 -14 -18.5t-20 -5.5h-114z" glyph-name="Ohungarumlaut" unicode="Ő" vert-adv-y="1980"/>
<glyph d="M337.5 38.5q-109.5 68.5 -165 221.5t-55.5 405t55.5 405t165 221.5t277.5 68.5t277.5 -68.5t165 -221.5t55.5 -405t-55.5 -405t-165 -221.5t-277.5 -68.5t-277.5 68.5zM774.5 209q64.5 41 101.5 150t37 306t-37 306t-101.5 150t-159.5 41t-159.5 -41t-101.5 -150 t-37 -306t37 -306t101.5 -150t159.5 -41t159.5 41zM357 1694q-13 0 -21.5 8.5t-8.5 21.5v98q0 14 8.5 22t21.5 8h516q14 0 22 -8t8 -22v-98q0 -13 -8 -21.5t-22 -8.5h-516z" glyph-name="Omacron" unicode="Ō" vert-adv-y="1980"/>
<glyph d="M813 -8q-71 -18 -110.5 -34.5t-59.5 -40.5t-20 -63q0 -112 158 -112h33q20 0 20 -20v-89q0 -20 -20 -20h-57q-67 0 -131 18.5t-108.5 65.5t-44.5 127q0 102 79 148q-146 12 -242 86t-144.5 222.5t-48.5 384.5q0 252 55.5 405t165 221.5t277.5 68.5t277.5 -68.5 t165 -221.5t55.5 -405q0 -291 -74.5 -451.5t-225.5 -213.5v-8zM354 359q37 -109 101.5 -150t159.5 -41t159.5 41t101.5 150t37 306t-37 306t-101.5 150t-159.5 41t-159.5 -41t-101.5 -150t-37 -306t37 -306z" glyph-name="uni01EA" unicode="Ǫ" vert-adv-y="1980"/>
<glyph d="M969 1226q72 -83 108 -220.5t36 -340.5q0 -252 -55.5 -405t-165 -221.5t-277.5 -68.5q-143 0 -242 48l-62 -126q-10 -22 -34 -22h-92q-12 0 -19 5.5t-7 14.5q0 8 4 16l98 198q-72 83 -108 220.5t-36 340.5q0 252 55.5 405t165 221.5t277.5 68.5q143 0 242 -48l62 126 q10 22 34 22h92q12 0 19 -5.5t7 -14.5q0 -8 -4 -16zM368 321l397 806q-58 35 -150 35q-95 0 -159.5 -41t-101.5 -150t-37 -306q0 -227 51 -344zM774.5 209q64.5 41 101.5 150t37 306q0 227 -51 344l-397 -806q58 -35 150 -35q95 0 159.5 41z" glyph-name="Oslash" unicode="Ø" vert-adv-y="1980"/>
<glyph d="M337.5 38.5q-109.5 68.5 -165 221.5t-55.5 405t55.5 405t165 221.5t277.5 68.5t277.5 -68.5t165 -221.5t55.5 -405t-55.5 -405t-165 -221.5t-277.5 -68.5t-277.5 68.5zM774.5 209q64.5 41 101.5 150t37 306t-37 306t-101.5 150t-159.5 41t-159.5 -41t-101.5 -150 t-37 -306t37 -306t101.5 -150t159.5 -41t159.5 41zM675 1608.5q-40 21.5 -87 62.5q-37 31 -62.5 46t-57.5 15q-35 0 -58.5 -18t-32.5 -43q-6 -18 -23 -18h-79q-9 0 -14.5 7t-4.5 19q2 58 30 98t73 60.5t98 20.5q42 0 75 -11.5t56.5 -28t55.5 -43.5q36 -31 61.5 -46t57.5 -15 q35 0 58.5 18t32.5 42q6 18 23 18h78q10 0 16 -5.5t5 -14.5q-2 -60 -30.5 -101.5t-74 -62.5t-97.5 -21q-59 0 -99 21.5z" glyph-name="Otilde" unicode="Õ" vert-adv-y="1980"/>
<glyph d="M1103 186q14 0 22 -8t8 -22v-126q0 -13 -8 -21.5t-22 -8.5h-508q-183 -1 -289.5 57t-157.5 202t-51 406t51 408.5t158 207t289 59.5h506q14 0 22 -8t8 -22v-126q0 -13 -8 -21.5t-22 -8.5h-300v-380h255q14 0 22 -8t8 -22v-126q0 -13 -8 -21.5t-22 -8.5h-255v-402h302z M595 1152q-113 0 -175 -34.5t-92.5 -138.5t-30.5 -314q0 -212 30.5 -314t91.5 -133t176 -30v964z" glyph-name="OE" unicode="Œ" vert-adv-y="1980"/>
<glyph d="M641 1340q240 0 354 -114.5t114 -324.5q0 -209 -114 -324t-354 -115h-282v-432q0 -13 -8 -21.5t-22 -8.5h-146q-13 0 -21.5 8.5t-8.5 21.5v1280q0 14 8.5 22t21.5 8h458zM624 648q143 0 215 57.5t72 195.5t-72 195.5t-215 57.5h-265v-506h265z" glyph-name="P" unicode="P" vert-adv-y="1980"/>
<glyph d="M618 1114q154 0 262.5 -55t163.5 -155t55 -234t-55 -234t-163.5 -155t-262.5 -55h-281v-196q0 -13 -8 -21.5t-22 -8.5h-146q-13 0 -21.5 8.5t-8.5 21.5v1280q0 14 8.5 22t21.5 8h146q14 0 22 -8t8 -22v-196h281zM601 412q300 0 300 258t-300 258h-264v-516h264z" glyph-name="Thorn" unicode="Þ" vert-adv-y="1980"/>
<glyph d="M337.5 38.5q-109.5 68.5 -165 221.5t-55.5 405t55.5 405t165 221.5t277.5 68.5t277.5 -68.5t165 -221.5t55.5 -405t-55.5 -405t-165 -221.5t-277.5 -68.5t-277.5 68.5zM774.5 209q64.5 41 101.5 150t37 306t-37 306t-101.5 150t-159.5 41t-159.5 -41t-101.5 -150 t-37 -306t37 -306t101.5 -150t159.5 -41t159.5 41zM949.5 -338.5q-52.5 12.5 -121.5 37.5q-70 25 -120.5 37t-118.5 12q-32 0 -32 28v109q0 14 8 23t24 9q71 2 123.5 -10.5t121.5 -37.5q67 -25 118 -37.5t119 -12.5q32 0 32 -28v-109q0 -14 -8 -23t-22 -9 q-71 -1 -123.5 11.5z" glyph-name="Q" unicode="Q" vert-adv-y="1980"/>
<glyph d="M1100 35q4 -8 4 -15q0 -9 -7 -14.5t-20 -5.5h-147q-23 0 -35 22l-228 440h-21h-282v-432q0 -13 -8 -21.5t-22 -8.5h-146q-13 0 -21.5 8.5t-8.5 21.5v1280q0 14 8.5 22t21.5 8h458q240 0 354 -114.5t114 -324.5q0 -155 -62.5 -259t-192.5 -149zM364 1154v-506h265 q143 0 215 57.5t72 195.5t-72 195.5t-215 57.5h-265z" glyph-name="R" unicode="R" vert-adv-y="1980"/>
<glyph d="M1100 35q4 -8 4 -15q0 -9 -7 -14.5t-20 -5.5h-147q-23 0 -35 22l-228 440h-21h-282v-432q0 -13 -8 -21.5t-22 -8.5h-146q-13 0 -21.5 8.5t-8.5 21.5v1280q0 14 8.5 22t21.5 8h458q240 0 354 -114.5t114 -324.5q0 -155 -62.5 -259t-192.5 -149zM364 1154v-506h265 q143 0 215 57.5t72 195.5t-72 195.5t-215 57.5h-265zM564 1542q-13 0 -20.5 5t-7.5 15q0 4 4 14l120 252q6 13 14 18.5t20 5.5h114q13 0 20.5 -5t7.5 -15q0 -4 -4 -14l-120 -252q-6 -13 -14 -18.5t-20 -5.5h-114z" glyph-name="Racute" unicode="Ŕ" vert-adv-y="1980"/>
<glyph d="M1100 35q4 -8 4 -15q0 -9 -7 -14.5t-20 -5.5h-147q-23 0 -35 22l-228 440h-21h-282v-432q0 -13 -8 -21.5t-22 -8.5h-146q-13 0 -21.5 8.5t-8.5 21.5v1280q0 14 8.5 22t21.5 8h458q240 0 354 -114.5t114 -324.5q0 -155 -62.5 -259t-192.5 -149zM364 1154v-506h265 q143 0 215 57.5t72 195.5t-72 195.5t-215 57.5h-265zM521 1543q-24 0 -36 16l-222 257q-9 11 -9 19t7 12.5t19 4.5h141q21 0 36 -16l158 -177l158 177q15 16 36 16h141q12 0 19 -4.5t7 -12.5t-9 -19l-222 -257q-12 -16 -36 -16h-188z" glyph-name="Rcaron" unicode="Ř" vert-adv-y="1980"/>
<glyph d="M1100 35q4 -8 4 -15q0 -9 -7 -14.5t-20 -5.5h-147q-23 0 -35 22l-228 440h-21h-282v-432q0 -13 -8 -21.5t-22 -8.5h-146q-13 0 -21.5 8.5t-8.5 21.5v1280q0 14 8.5 22t21.5 8h458q240 0 354 -114.5t114 -324.5q0 -155 -62.5 -259t-192.5 -149zM364 1154v-506h265 q143 0 215 57.5t72 195.5t-72 195.5t-215 57.5h-265zM800 -165q12 0 20 -7.5t8 -20.5v-58q0 -122 -7.5 -233t-20.5 -185q-4 -22 -32 -22h-99q-29 0 -27 30q11 172 11 291v43h-231q-13 0 -20.5 7.5t-7.5 20.5v106q0 13 7.5 20.5t20.5 7.5h378z" glyph-name="uni0156" unicode="Ŗ" vert-adv-y="1980"/>
<glyph d="M260.5 61.5q-125.5 91.5 -140.5 277.5q-1 15 7 25t21 10h138q25 0 30 -29q12 -88 89.5 -140t212.5 -52q132 0 211 51.5t79 157.5q0 65 -32 107t-98.5 70t-184.5 55q-136 32 -232 77.5t-153.5 124.5t-57.5 199q0 110 52 192t156.5 127.5t256.5 45.5q206 0 324 -87.5 t135 -265.5q1 -15 -6.5 -23t-21.5 -8h-128q-27 0 -30 25q-12 81 -84 128.5t-195 47.5t-191.5 -47t-68.5 -140q0 -54 27 -94t90.5 -72t173.5 -57q155 -36 252 -76.5t157.5 -119.5t60.5 -211q0 -185 -128.5 -287.5t-372.5 -102.5q-223 0 -348.5 91.5z" glyph-name="S" unicode="S" vert-adv-y="1980"/>
<glyph d="M260.5 61.5q-125.5 91.5 -140.5 277.5q-1 15 7 25t21 10h138q25 0 30 -29q12 -88 89.5 -140t212.5 -52q132 0 211 51.5t79 157.5q0 65 -32 107t-98.5 70t-184.5 55q-136 32 -232 77.5t-153.5 124.5t-57.5 199q0 110 52 192t156.5 127.5t256.5 45.5q206 0 324 -87.5 t135 -265.5q1 -15 -6.5 -23t-21.5 -8h-128q-27 0 -30 25q-12 81 -84 128.5t-195 47.5t-191.5 -47t-68.5 -140q0 -54 27 -94t90.5 -72t173.5 -57q155 -36 252 -76.5t157.5 -119.5t60.5 -211q0 -185 -128.5 -287.5t-372.5 -102.5q-223 0 -348.5 91.5zM561 1542q-13 0 -20.5 5 t-7.5 15q0 4 4 14l120 252q6 13 14 18.5t20 5.5h114q13 0 20.5 -5t7.5 -15q0 -4 -4 -14l-120 -252q-6 -13 -14 -18.5t-20 -5.5h-114z" glyph-name="Sacute" unicode="Ś" vert-adv-y="1980"/>
<glyph d="M260.5 61.5q-125.5 91.5 -140.5 277.5q-1 15 7 25t21 10h138q25 0 30 -29q12 -88 89.5 -140t212.5 -52q132 0 211 51.5t79 157.5q0 65 -32 107t-98.5 70t-184.5 55q-136 32 -232 77.5t-153.5 124.5t-57.5 199q0 110 52 192t156.5 127.5t256.5 45.5q206 0 324 -87.5 t135 -265.5q1 -15 -6.5 -23t-21.5 -8h-128q-27 0 -30 25q-12 81 -84 128.5t-195 47.5t-191.5 -47t-68.5 -140q0 -54 27 -94t90.5 -72t173.5 -57q155 -36 252 -76.5t157.5 -119.5t60.5 -211q0 -185 -128.5 -287.5t-372.5 -102.5q-223 0 -348.5 91.5zM519 1543q-24 0 -36 16 l-222 257q-9 11 -9 19t7 12.5t19 4.5h141q21 0 36 -16l158 -177l158 177q15 16 36 16h141q12 0 19 -4.5t7 -12.5t-9 -19l-222 -257q-12 -16 -36 -16h-188z" glyph-name="Scaron" unicode="Š" vert-adv-y="1980"/>
<glyph d="M996 84.5q-114 -101.5 -331 -113.5l-46 -44q70 -6 119 -48.5t49 -110.5q0 -101 -71 -151t-177 -50q-38 0 -74 6q-18 3 -18 22v71q0 9 6 15t16 5q25 -4 54 -4q56 0 87.5 20t31.5 55q0 27 -27.5 46t-68.5 19q-36 0 -75 -16q-4 -2 -10 -2q-14 0 -14 16v70q0 12 10 24l59 60 q-180 18 -281 108.5t-115 256.5q-1 15 7 25t21 10h138q25 0 30 -29q12 -88 89.5 -140t212.5 -52q132 0 211 51.5t79 157.5q0 65 -32 107t-98.5 70t-184.5 55q-136 32 -232 77.5t-153.5 124.5t-57.5 199q0 110 52 192t156.5 127.5t256.5 45.5q206 0 324 -87.5t135 -265.5 q1 -15 -6.5 -23t-21.5 -8h-128q-27 0 -30 25q-12 81 -84 128.5t-195 47.5t-191.5 -47t-68.5 -140q0 -54 27 -94t90.5 -72t173.5 -57q155 -36 252 -76.5t157.5 -119.5t60.5 -211q0 -174 -114 -275.5z" glyph-name="Scedilla" unicode="Ş" vert-adv-y="1980"/>
<glyph d="M260.5 61.5q-125.5 91.5 -140.5 277.5q-1 15 7 25t21 10h138q25 0 30 -29q12 -88 89.5 -140t212.5 -52q132 0 211 51.5t79 157.5q0 65 -32 107t-98.5 70t-184.5 55q-136 32 -232 77.5t-153.5 124.5t-57.5 199q0 110 52 192t156.5 127.5t256.5 45.5q206 0 324 -87.5 t135 -265.5q1 -15 -6.5 -23t-21.5 -8h-128q-27 0 -30 25q-12 81 -84 128.5t-195 47.5t-191.5 -47t-68.5 -140q0 -54 27 -94t90.5 -72t173.5 -57q155 -36 252 -76.5t157.5 -119.5t60.5 -211q0 -185 -128.5 -287.5t-372.5 -102.5q-223 0 -348.5 91.5zM794 -165q12 0 20 -7.5 t8 -20.5v-58q0 -122 -7.5 -233t-20.5 -185q-4 -22 -32 -22h-99q-29 0 -27 30q11 172 11 291v43h-231q-13 0 -20.5 7.5t-7.5 20.5v106q0 13 7.5 20.5t20.5 7.5h378z" glyph-name="uni0218" unicode="Ș" vert-adv-y="1980"/>
<glyph d="M721 821q217 -27 335 -138t118 -304q0 -124 -49.5 -215.5t-144 -140.5t-227.5 -49q-184 0 -281.5 92.5t-97.5 260.5q0 15 8 23t22 8h113q28 0 31 -29q5 -79 58.5 -126.5t148.5 -47.5q105 0 161 60t56 167q0 147 -107 215.5t-319 68.5q-15 0 -22.5 8t-7.5 22v132l260 326 h-283q-79 0 -123.5 -23.5t-62.5 -69.5t-18 -120v-911q0 -13 -8 -21.5t-22 -8.5h-146q-13 0 -21.5 8.5t-8.5 21.5v925q0 134 38.5 218t125.5 125.5t232 41.5h593q12 0 19 -5.5t7 -13.5q0 -10 -7 -18z" glyph-name="uni1E9E" unicode="ẞ" vert-adv-y="1980"/>
<glyph d="M906.5 1299q107.5 -61 159 -211t51.5 -423q0 -272 -51.5 -422.5t-159 -211.5t-290.5 -61q-177 0 -287.5 56.5t-163 175.5t-52.5 308v141q0 14 8.5 22t21.5 8h774q-1 204 -35 308t-98 138.5t-173 34.5q-91 0 -146.5 -15t-89 -56.5t-46.5 -119.5q-2 -13 -11.5 -19.5 t-22.5 -6.5h-135q-30 0 -27 33q13 141 69.5 224.5t157.5 120.5t256 37q183 0 290.5 -61zM765 193q59 25 96 97.5t50 212.5h-605q1 -128 32 -200.5t96.5 -103.5t177.5 -31q94 0 153 25z" glyph-name="uni018F" unicode="Ə" vert-adv-y="1980"/>
<glyph d="M542 0q-13 0 -21.5 8.5t-8.5 21.5v1124h-382q-13 0 -21.5 8.5t-8.5 21.5v126q0 14 8.5 22t21.5 8h970q14 0 22 -8t8 -22v-126q0 -13 -8 -21.5t-22 -8.5h-382v-1124q0 -13 -8 -21.5t-22 -8.5h-146z" glyph-name="T" unicode="T" vert-adv-y="1980"/>
<glyph d="M1100 1340q14 0 22 -8t8 -22v-126q0 -13 -8 -21.5t-22 -8.5h-382v-232h217q14 0 22 -8t8 -22v-98q0 -13 -8 -21.5t-22 -8.5h-217v-734q0 -13 -8 -21.5t-22 -8.5h-146q-13 0 -21.5 8.5t-8.5 21.5v734h-217q-13 0 -21.5 8.5t-8.5 21.5v98q0 14 8.5 22t21.5 8h217v232h-382 q-13 0 -21.5 8.5t-8.5 21.5v126q0 14 8.5 22t21.5 8h970z" glyph-name="Tbar" unicode="Ŧ" vert-adv-y="1980"/>
<glyph d="M542 0q-13 0 -21.5 8.5t-8.5 21.5v1124h-382q-13 0 -21.5 8.5t-8.5 21.5v126q0 14 8.5 22t21.5 8h970q14 0 22 -8t8 -22v-126q0 -13 -8 -21.5t-22 -8.5h-382v-1124q0 -13 -8 -21.5t-22 -8.5h-146zM521 1543q-24 0 -36 16l-222 257q-9 11 -9 19t7 12.5t19 4.5h141 q21 0 36 -16l158 -177l158 177q15 16 36 16h141q12 0 19 -4.5t7 -12.5t-9 -19l-222 -257q-12 -16 -36 -16h-188z" glyph-name="Tcaron" unicode="Ť" vert-adv-y="1980"/>
<glyph d="M542 0q-13 0 -21.5 8.5t-8.5 21.5v1124h-382q-13 0 -21.5 8.5t-8.5 21.5v126q0 14 8.5 22t21.5 8h970q14 0 22 -8t8 -22v-126q0 -13 -8 -21.5t-22 -8.5h-382v-1124q0 -13 -8 -21.5t-22 -8.5h-146zM625 -73q70 -6 119 -48.5t49 -110.5q0 -101 -71 -151t-177 -50 q-38 0 -74 6q-18 3 -18 22v71q0 9 6 15t16 5q25 -4 54 -4q56 0 87.5 20t31.5 55q0 27 -27.5 46t-68.5 19q-36 0 -75 -16q-4 -2 -10 -2q-14 0 -14 16v70q0 12 10 24l84 86h153z" glyph-name="uni0162" unicode="Ţ" vert-adv-y="1980"/>
<glyph d="M542 0q-13 0 -21.5 8.5t-8.5 21.5v1124h-382q-13 0 -21.5 8.5t-8.5 21.5v126q0 14 8.5 22t21.5 8h970q14 0 22 -8t8 -22v-126q0 -13 -8 -21.5t-22 -8.5h-382v-1124q0 -13 -8 -21.5t-22 -8.5h-146zM800 -165q12 0 20 -7.5t8 -20.5v-58q0 -122 -7.5 -233t-20.5 -185 q-4 -22 -32 -22h-99q-29 0 -27 30q11 172 11 291v43h-231q-13 0 -20.5 7.5t-7.5 20.5v106q0 13 7.5 20.5t20.5 7.5h378z" glyph-name="uni021A" unicode="Ț" vert-adv-y="1980"/>
<glyph d="M262 90q-125 120 -125 351v869q0 14 8.5 22t21.5 8h146q14 0 22 -8t8 -22v-851q0 -139 70 -215.5t202 -76.5t202 76.5t70 215.5v851q0 14 8.5 22t21.5 8h146q14 0 22 -8t8 -22v-869q0 -231 -125 -351t-353 -120t-353 120z" glyph-name="U" unicode="U" vert-adv-y="1980"/>
<glyph d="M262 90q-125 120 -125 351v869q0 14 8.5 22t21.5 8h146q14 0 22 -8t8 -22v-851q0 -139 70 -215.5t202 -76.5t202 76.5t70 215.5v851q0 14 8.5 22t21.5 8h146q14 0 22 -8t8 -22v-869q0 -231 -125 -351t-353 -120t-353 120zM564 1542q-13 0 -20.5 5t-7.5 15q0 4 4 14 l120 252q6 13 14 18.5t20 5.5h114q13 0 20.5 -5t7.5 -15q0 -4 -4 -14l-120 -252q-6 -13 -14 -18.5t-20 -5.5h-114z" glyph-name="Uacute" unicode="Ú" vert-adv-y="1980"/>
<glyph d="M262 90q-125 120 -125 351v869q0 14 8.5 22t21.5 8h146q14 0 22 -8t8 -22v-851q0 -139 70 -215.5t202 -76.5t202 76.5t70 215.5v851q0 14 8.5 22t21.5 8h146q14 0 22 -8t8 -22v-869q0 -231 -125 -351t-353 -120t-353 120zM462 1591q-66 35 -103.5 95t-45.5 136 q-3 30 29 30h77q26 0 32 -28q12 -56 54.5 -92.5t109.5 -36.5t109.5 36.5t54.5 92.5q6 28 32 28h77q32 0 29 -30q-8 -76 -45.5 -136t-103.5 -95t-153 -35t-153 35z" glyph-name="Ubreve" unicode="Ŭ" vert-adv-y="1980"/>
<glyph d="M262 90q-125 120 -125 351v869q0 14 8.5 22t21.5 8h146q14 0 22 -8t8 -22v-851q0 -139 70 -215.5t202 -76.5t202 76.5t70 215.5v851q0 14 8.5 22t21.5 8h146q14 0 22 -8t8 -22v-869q0 -231 -125 -351t-353 -120t-353 120zM521 1543q-24 0 -36 16l-222 257q-9 11 -9 19 t7 12.5t19 4.5h141q21 0 36 -16l158 -177l158 177q15 16 36 16h141q12 0 19 -4.5t7 -12.5t-9 -19l-222 -257q-12 -16 -36 -16h-188z" glyph-name="uni01D3" unicode="Ǔ" vert-adv-y="1980"/>
<glyph d="M262 90q-125 120 -125 351v869q0 14 8.5 22t21.5 8h146q14 0 22 -8t8 -22v-851q0 -139 70 -215.5t202 -76.5t202 76.5t70 215.5v851q0 14 8.5 22t21.5 8h146q14 0 22 -8t8 -22v-869q0 -231 -125 -351t-353 -120t-353 120zM280 1543q-12 0 -19 4.5t-7 12.5q0 9 9 19 l222 257q12 16 36 16h188q24 0 36 -16l222 -257q9 -10 9 -19q0 -8 -7 -12.5t-19 -4.5h-141q-21 0 -36 16l-158 178l-158 -178q-15 -16 -36 -16h-141z" glyph-name="Ucircumflex" unicode="Û" vert-adv-y="1980"/>
<glyph d="M262 90q-125 120 -125 351v869q0 14 8.5 22t21.5 8h146q14 0 22 -8t8 -22v-851q0 -139 70 -215.5t202 -76.5t202 76.5t70 215.5v851q0 14 8.5 22t21.5 8h146q14 0 22 -8t8 -22v-869q0 -231 -125 -351t-353 -120t-353 120zM343 1669.5q-32 31.5 -32 76.5q0 43 32 74.5 t76 31.5t75.5 -31.5t31.5 -74.5q0 -45 -31.5 -76.5t-75.5 -31.5t-76 31.5zM737 1669.5q-32 31.5 -32 76.5q0 43 32 74.5t76 31.5t75.5 -31.5t31.5 -74.5q0 -45 -31.5 -76.5t-75.5 -31.5t-76 31.5z" glyph-name="Udieresis" unicode="Ü" vert-adv-y="1980"/>
<glyph d="M262 90q-125 120 -125 351v869q0 14 8.5 22t21.5 8h146q14 0 22 -8t8 -22v-851q0 -139 70 -215.5t202 -76.5t202 76.5t70 215.5v851q0 14 8.5 22t21.5 8h146q14 0 22 -8t8 -22v-869q0 -231 -125 -351t-353 -120t-353 120zM552 1542q-12 0 -20 5.5t-14 18.5l-120 252 q-4 10 -4 14q0 10 7.5 15t20.5 5h114q12 0 20 -5.5t14 -18.5l120 -252q4 -10 4 -14q0 -10 -7.5 -15t-20.5 -5h-114z" glyph-name="Ugrave" unicode="Ù" vert-adv-y="1980"/>
<glyph d="M262 90q-125 120 -125 351v869q0 14 8.5 22t21.5 8h146q14 0 22 -8t8 -22v-851q0 -139 70 -215.5t202 -76.5t202 76.5t70 215.5v851q0 14 8.5 22t21.5 8h146q14 0 22 -8t8 -22v-869q0 -231 -125 -351t-353 -120t-353 120zM707 1542q-13 0 -20.5 5t-7.5 15q0 4 4 14 l120 252q6 13 14 18.5t20 5.5h114q13 0 20.5 -5t7.5 -15q0 -4 -4 -14l-120 -252q-6 -13 -14 -18.5t-20 -5.5h-114zM385 1542q-13 0 -20.5 5t-7.5 15q0 4 4 14l120 252q6 13 14 18.5t20 5.5h114q13 0 20.5 -5t7.5 -15q0 -4 -4 -14l-120 -252q-6 -13 -14 -18.5t-20 -5.5h-114z " glyph-name="Uhungarumlaut" unicode="Ű" vert-adv-y="1980"/>
<glyph d="M262 90q-125 120 -125 351v869q0 14 8.5 22t21.5 8h146q14 0 22 -8t8 -22v-851q0 -139 70 -215.5t202 -76.5t202 76.5t70 215.5v851q0 14 8.5 22t21.5 8h146q14 0 22 -8t8 -22v-869q0 -231 -125 -351t-353 -120t-353 120zM357 1694q-13 0 -21.5 8.5t-8.5 21.5v98 q0 14 8.5 22t21.5 8h516q14 0 22 -8t8 -22v-98q0 -13 -8 -21.5t-22 -8.5h-516z" glyph-name="Umacron" unicode="Ū" vert-adv-y="1980"/>
<glyph d="M1063 1340q14 0 22 -8t8 -22v-869q0 -180 -77 -293.5t-221 -154.5v-1q-96 -24 -136.5 -53t-40.5 -85q0 -112 158 -112h33q20 0 20 -20v-89q0 -20 -20 -20h-57q-67 0 -131 18.5t-108.5 65.5t-44.5 127q0 101 78 149q-196 18 -302.5 136.5t-106.5 331.5v869q0 14 8.5 22 t21.5 8h146q14 0 22 -8t8 -22v-851q0 -139 70 -215.5t202 -76.5t202 76.5t70 215.5v851q0 14 8.5 22t21.5 8h146z" glyph-name="Uogonek" unicode="Ų" vert-adv-y="1980"/>
<glyph d="M262 90q-125 120 -125 351v869q0 14 8.5 22t21.5 8h146q14 0 22 -8t8 -22v-851q0 -139 70 -215.5t202 -76.5t202 76.5t70 215.5v851q0 14 8.5 22t21.5 8h146q14 0 22 -8t8 -22v-869q0 -231 -125 -351t-353 -120t-353 120zM520 1508q-43 25 -67.5 67.5t-24.5 91.5 q0 50 24.5 92.5t67.5 67.5t95 25q51 0 94 -25t67.5 -67.5t24.5 -92.5q0 -49 -24.5 -91.5t-67.5 -67.5t-94 -25q-52 0 -95 25zM664.5 1618.5q20.5 18.5 20.5 47.5q0 31 -20 50.5t-50 19.5t-50.5 -19t-20.5 -49t20.5 -49t50.5 -19q29 0 49.5 18.5z" glyph-name="Uring" unicode="Ů" vert-adv-y="1980"/>
<glyph d="M488 0q-13 0 -22.5 6t-12.5 18l-385 1282q-2 8 -2 12q0 10 7 16t19 6h146q26 0 34 -24l322 -1104h42l322 1104q8 24 34 24h146q12 0 19 -6t7 -16q0 -4 -2 -12l-385 -1282q-3 -12 -12.5 -18t-22.5 -6h-254z" glyph-name="V" unicode="V" vert-adv-y="1980"/>
<glyph d="M1134 1340q29 0 24 -34l-168 -1282q-1 -11 -12.5 -17.5t-24.5 -6.5h-174q-13 0 -23.5 6.5t-11.5 17.5l-129 785l-129 -785q-1 -11 -11.5 -17.5t-23.5 -6.5h-174q-13 0 -24.5 6.5t-12.5 17.5l-168 1282q-1 3 -1 10q0 24 25 24h133q14 0 23.5 -5.5t10.5 -18.5l119 -1055 l161 935q4 24 34 24h76q30 0 34 -24l161 -935l119 1055q1 13 11 18.5t23 5.5h133z" glyph-name="W" unicode="W" vert-adv-y="1980"/>
<glyph d="M1134 1340q29 0 24 -34l-168 -1282q-1 -11 -12.5 -17.5t-24.5 -6.5h-174q-13 0 -23.5 6.5t-11.5 17.5l-129 785l-129 -785q-1 -11 -11.5 -17.5t-23.5 -6.5h-174q-13 0 -24.5 6.5t-12.5 17.5l-168 1282q-1 3 -1 10q0 24 25 24h133q14 0 23.5 -5.5t10.5 -18.5l119 -1055 l161 935q4 24 34 24h76q30 0 34 -24l161 -935l119 1055q1 13 11 18.5t23 5.5h133zM564 1542q-13 0 -20.5 5t-7.5 15q0 4 4 14l120 252q6 13 14 18.5t20 5.5h114q13 0 20.5 -5t7.5 -15q0 -4 -4 -14l-120 -252q-6 -13 -14 -18.5t-20 -5.5h-114z" glyph-name="Wacute" unicode="Ẃ" vert-adv-y="1980"/>
<glyph d="M1134 1340q29 0 24 -34l-168 -1282q-1 -11 -12.5 -17.5t-24.5 -6.5h-174q-13 0 -23.5 6.5t-11.5 17.5l-129 785l-129 -785q-1 -11 -11.5 -17.5t-23.5 -6.5h-174q-13 0 -24.5 6.5t-12.5 17.5l-168 1282q-1 3 -1 10q0 24 25 24h133q14 0 23.5 -5.5t10.5 -18.5l119 -1055 l161 935q4 24 34 24h76q30 0 34 -24l161 -935l119 1055q1 13 11 18.5t23 5.5h133zM280 1543q-12 0 -19 4.5t-7 12.5q0 9 9 19l222 257q12 16 36 16h188q24 0 36 -16l222 -257q9 -10 9 -19q0 -8 -7 -12.5t-19 -4.5h-141q-21 0 -36 16l-158 178l-158 -178q-15 -16 -36 -16 h-141z" glyph-name="Wcircumflex" unicode="Ŵ" vert-adv-y="1980"/>
<glyph d="M1134 1340q29 0 24 -34l-168 -1282q-1 -11 -12.5 -17.5t-24.5 -6.5h-174q-13 0 -23.5 6.5t-11.5 17.5l-129 785l-129 -785q-1 -11 -11.5 -17.5t-23.5 -6.5h-174q-13 0 -24.5 6.5t-12.5 17.5l-168 1282q-1 3 -1 10q0 24 25 24h133q14 0 23.5 -5.5t10.5 -18.5l119 -1055 l161 935q4 24 34 24h76q30 0 34 -24l161 -935l119 1055q1 13 11 18.5t23 5.5h133zM343 1669.5q-32 31.5 -32 76.5q0 43 32 74.5t76 31.5t75.5 -31.5t31.5 -74.5q0 -45 -31.5 -76.5t-75.5 -31.5t-76 31.5zM737 1669.5q-32 31.5 -32 76.5q0 43 32 74.5t76 31.5t75.5 -31.5 t31.5 -74.5q0 -45 -31.5 -76.5t-75.5 -31.5t-76 31.5z" glyph-name="Wdieresis" unicode="Ẅ" vert-adv-y="1980"/>
<glyph d="M1134 1340q29 0 24 -34l-168 -1282q-1 -11 -12.5 -17.5t-24.5 -6.5h-174q-13 0 -23.5 6.5t-11.5 17.5l-129 785l-129 -785q-1 -11 -11.5 -17.5t-23.5 -6.5h-174q-13 0 -24.5 6.5t-12.5 17.5l-168 1282q-1 3 -1 10q0 24 25 24h133q14 0 23.5 -5.5t10.5 -18.5l119 -1055 l161 935q4 24 34 24h76q30 0 34 -24l161 -935l119 1055q1 13 11 18.5t23 5.5h133zM552 1542q-12 0 -20 5.5t-14 18.5l-120 252q-4 10 -4 14q0 10 7.5 15t20.5 5h114q12 0 20 -5.5t14 -18.5l120 -252q4 -10 4 -14q0 -10 -7.5 -15t-20.5 -5h-114z" glyph-name="Wgrave" unicode="Ẁ" vert-adv-y="1980"/>
<glyph d="M1138 36q6 -10 6 -18t-6.5 -13t-19.5 -5h-154q-23 0 -36 20l-313 491l-313 -491q-13 -20 -36 -20h-154q-13 0 -19.5 5t-6.5 13t6 18l413 647l-396 621q-6 11 -6 18q0 8 6.5 13t19.5 5h154q23 0 36 -20l296 -464l296 464q13 20 36 20h154q13 0 19.5 -5t6.5 -13 q0 -7 -6 -18l-396 -621z" glyph-name="X" unicode="X" vert-adv-y="1980"/>
<glyph d="M1132 1340q13 0 19.5 -5t6.5 -13q0 -7 -6 -18l-434 -784v-490q0 -13 -8 -21.5t-22 -8.5h-146q-13 0 -21.5 8.5t-8.5 21.5v491l-434 783q-6 11 -6 18q0 8 6.5 13t19.5 5h154q25 0 36 -20l327 -606l327 606q11 20 36 20h154z" glyph-name="Y" unicode="Y" vert-adv-y="1980"/>
<glyph d="M1132 1340q13 0 19.5 -5t6.5 -13q0 -7 -6 -18l-434 -784v-490q0 -13 -8 -21.5t-22 -8.5h-146q-13 0 -21.5 8.5t-8.5 21.5v491l-434 783q-6 11 -6 18q0 8 6.5 13t19.5 5h154q25 0 36 -20l327 -606l327 606q11 20 36 20h154zM564 1542q-13 0 -20.5 5t-7.5 15q0 4 4 14 l120 252q6 13 14 18.5t20 5.5h114q13 0 20.5 -5t7.5 -15q0 -4 -4 -14l-120 -252q-6 -13 -14 -18.5t-20 -5.5h-114z" glyph-name="Yacute" unicode="Ý" vert-adv-y="1980"/>
<glyph d="M1132 1340q13 0 19.5 -5t6.5 -13q0 -7 -6 -18l-434 -784v-490q0 -13 -8 -21.5t-22 -8.5h-146q-13 0 -21.5 8.5t-8.5 21.5v491l-434 783q-6 11 -6 18q0 8 6.5 13t19.5 5h154q25 0 36 -20l327 -606l327 606q11 20 36 20h154zM280 1543q-12 0 -19 4.5t-7 12.5q0 9 9 19 l222 257q12 16 36 16h188q24 0 36 -16l222 -257q9 -10 9 -19q0 -8 -7 -12.5t-19 -4.5h-141q-21 0 -36 16l-158 178l-158 -178q-15 -16 -36 -16h-141z" glyph-name="Ycircumflex" unicode="Ŷ" vert-adv-y="1980"/>
<glyph d="M1132 1340q13 0 19.5 -5t6.5 -13q0 -7 -6 -18l-434 -784v-490q0 -13 -8 -21.5t-22 -8.5h-146q-13 0 -21.5 8.5t-8.5 21.5v491l-434 783q-6 11 -6 18q0 8 6.5 13t19.5 5h154q25 0 36 -20l327 -606l327 606q11 20 36 20h154zM343 1669.5q-32 31.5 -32 76.5q0 43 32 74.5 t76 31.5t75.5 -31.5t31.5 -74.5q0 -45 -31.5 -76.5t-75.5 -31.5t-76 31.5zM737 1669.5q-32 31.5 -32 76.5q0 43 32 74.5t76 31.5t75.5 -31.5t31.5 -74.5q0 -45 -31.5 -76.5t-75.5 -31.5t-76 31.5z" glyph-name="Ydieresis" unicode="Ÿ" vert-adv-y="1980"/>
<glyph d="M1132 1340q13 0 19.5 -5t6.5 -13q0 -7 -6 -18l-434 -784v-490q0 -13 -8 -21.5t-22 -8.5h-146q-13 0 -21.5 8.5t-8.5 21.5v491l-434 783q-6 11 -6 18q0 8 6.5 13t19.5 5h154q25 0 36 -20l327 -606l327 606q11 20 36 20h154zM552 1542q-12 0 -20 5.5t-14 18.5l-120 252 q-4 10 -4 14q0 10 7.5 15t20.5 5h114q12 0 20 -5.5t14 -18.5l120 -252q4 -10 4 -14q0 -10 -7.5 -15t-20.5 -5h-114z" glyph-name="Ygrave" unicode="Ỳ" vert-adv-y="1980"/>
<glyph d="M161 0q-13 0 -21.5 8.5t-8.5 21.5v136q0 18 12 36l709 952h-671q-13 0 -21.5 8.5t-8.5 21.5v126q0 14 8.5 22t21.5 8h868q14 0 22 -8t8 -22v-136q0 -18 -12 -36l-709 -952h711q14 0 22 -8t8 -22v-126q0 -13 -8 -21.5t-22 -8.5h-908z" glyph-name="Z" unicode="Z" vert-adv-y="1980"/>
<glyph d="M161 0q-13 0 -21.5 8.5t-8.5 21.5v136q0 18 12 36l709 952h-671q-13 0 -21.5 8.5t-8.5 21.5v126q0 14 8.5 22t21.5 8h868q14 0 22 -8t8 -22v-136q0 -18 -12 -36l-709 -952h711q14 0 22 -8t8 -22v-126q0 -13 -8 -21.5t-22 -8.5h-908zM564 1542q-13 0 -20.5 5t-7.5 15 q0 4 4 14l120 252q6 13 14 18.5t20 5.5h114q13 0 20.5 -5t7.5 -15q0 -4 -4 -14l-120 -252q-6 -13 -14 -18.5t-20 -5.5h-114z" glyph-name="Zacute" unicode="Ź" vert-adv-y="1980"/>
<glyph d="M161 0q-13 0 -21.5 8.5t-8.5 21.5v136q0 18 12 36l709 952h-671q-13 0 -21.5 8.5t-8.5 21.5v126q0 14 8.5 22t21.5 8h868q14 0 22 -8t8 -22v-136q0 -18 -12 -36l-709 -952h711q14 0 22 -8t8 -22v-126q0 -13 -8 -21.5t-22 -8.5h-908zM521 1543q-24 0 -36 16l-222 257 q-9 11 -9 19t7 12.5t19 4.5h141q21 0 36 -16l158 -177l158 177q15 16 36 16h141q12 0 19 -4.5t7 -12.5t-9 -19l-222 -257q-12 -16 -36 -16h-188z" glyph-name="Zcaron" unicode="Ž" vert-adv-y="1980"/>
<glyph d="M161 0q-13 0 -21.5 8.5t-8.5 21.5v136q0 18 12 36l709 952h-671q-13 0 -21.5 8.5t-8.5 21.5v126q0 14 8.5 22t21.5 8h868q14 0 22 -8t8 -22v-136q0 -18 -12 -36l-709 -952h711q14 0 22 -8t8 -22v-126q0 -13 -8 -21.5t-22 -8.5h-908zM539.5 1669.5q-31.5 31.5 -31.5 76.5 q0 43 31.5 74.5t75.5 31.5t75.5 -31.5t31.5 -74.5q0 -45 -31.5 -76.5t-75.5 -31.5t-75.5 31.5z" glyph-name="Zdotaccent" unicode="Ż" vert-adv-y="1980"/>
<glyph d="M1268 34q2 -4 2 -12q0 -22 -26 -22h-151q-26 0 -34 24l-88 259h-612l-88 -259q-8 -24 -34 -24h-151q-26 0 -26 22q0 8 2 12l441 1282q4 12 13.5 18t21.5 6h254q12 0 21.5 -6t13.5 -18zM647 1128l-227 -666h490l-227 666h-36z" glyph-name="A.ss05" horiz-adv-x="1330" vert-adv-y="1980"/>
<glyph d="M438.5 65q-158.5 91 -248.5 249.5t-90 353.5t90 353t248.5 249t356.5 91q144 0 266 -48.5t210 -137.5t132 -210q3 -7 3 -14q0 -16 -19 -25l-119 -50q-8 -4 -17 -4q-15 0 -23 17q-33 82 -95.5 144t-149.5 96.5t-189 34.5q-140 0 -251.5 -65.5t-174.5 -178.5t-63 -252 t63 -252.5t174 -179t250 -65.5q155 0 270 81t167 216q6 19 23 19q4 0 14 -4l122 -54q18 -7 18 -23q0 -6 -3 -15q-44 -127 -131.5 -221t-209.5 -145t-267 -51q-198 0 -356.5 91z" glyph-name="C.ss05" horiz-adv-x="1521" vert-adv-y="1980"/>
<glyph d="M1001.5 1255q158.5 -85 235 -235.5t76.5 -349.5t-76.5 -349.5t-235 -235.5t-396.5 -85h-425q-13 0 -21.5 8.5t-8.5 21.5v1280q0 14 8.5 22t21.5 8h425q238 0 396.5 -85zM595 186q260 0 387 125t127 359t-127 359t-387 125h-239v-968h239z" glyph-name="D.ss05" horiz-adv-x="1413" vert-adv-y="1980"/>
<glyph d="M1419 736q14 0 22 -8t8 -22v-79q0 -184 -79 -333t-226 -234.5t-344 -85.5q-200 0 -360 91t-250 249.5t-90 353.5t90.5 353t249.5 249t358 91q289 0 501 -204q11 -9 11 -21q0 -11 -9 -20l-97 -92q-10 -9 -21 -9q-10 0 -21 9q-76 68 -168.5 104t-195.5 36 q-142 0 -254.5 -65t-175.5 -178.5t-63 -252.5q0 -138 63.5 -252t178 -180t259.5 -66q130 0 230.5 51.5t157 142t57.5 203.5h-451q-13 0 -21.5 8.5t-8.5 21.5v109q0 14 8.5 22t21.5 8h619z" glyph-name="G.ss05" horiz-adv-x="1549" vert-adv-y="1980"/>
<glyph d="M1204 1340q14 0 22 -8t8 -22v-1280q0 -13 -8 -21.5t-22 -8.5h-146q-13 0 -21.5 8.5t-8.5 21.5v540h-672v-540q0 -13 -8 -21.5t-22 -8.5h-146q-13 0 -21.5 8.5t-8.5 21.5v1280q0 14 8.5 22t21.5 8h146q14 0 22 -8t8 -22v-554h672v554q0 14 8.5 22t21.5 8h146z" glyph-name="H.ss05" horiz-adv-x="1384" vert-adv-y="1980"/>
<glyph d="M180 0q-13 0 -21.5 8.5t-8.5 21.5v1280q0 14 8.5 22t21.5 8h146q14 0 22 -8t8 -22v-1124h672q14 0 22 -8t8 -22v-126q0 -13 -8 -21.5t-22 -8.5h-848z" glyph-name="L.ss05" horiz-adv-x="1188" vert-adv-y="1980"/>
<glyph d="M1583 1332q8 -8 8 -22v-1280q0 -13 -8 -21.5t-22 -8.5h-146q-13 0 -21.5 8.5t-8.5 21.5v928l-411 -935q-10 -23 -35 -23h-139q-25 0 -35 23l-409 930v-923q0 -13 -8 -21.5t-22 -8.5h-146q-13 0 -21.5 8.5t-8.5 21.5v1280q0 14 8.5 22t21.5 8h178q27 0 36 -20l476 -1087 l475 1087q9 20 36 20h180q14 0 22 -8z" glyph-name="M.ss05" horiz-adv-x="1741" vert-adv-y="1980"/>
<glyph d="M1188 1340q14 0 22 -8t8 -22v-1280q0 -13 -8 -21.5t-22 -8.5h-187q-25 0 -36 20l-627 1072v-1062q0 -13 -8 -21.5t-22 -8.5h-128q-13 0 -21.5 8.5t-8.5 21.5v1280q0 14 8.5 22t21.5 8h188q25 0 36 -20l626 -1070v1060q0 14 8.5 22t21.5 8h128z" glyph-name="N.ss05" horiz-adv-x="1368" vert-adv-y="1980"/>
<glyph d="M440 65.5q-159 91.5 -249.5 250t-90.5 350.5q0 193 90.5 351.5t249.5 250.5t355 92q195 0 353.5 -92t249 -250.5t90.5 -351.5q0 -192 -90.5 -350.5t-249 -250t-353.5 -91.5q-196 0 -355 91.5zM1045.5 235.5q111.5 65.5 174.5 178.5t63 252q0 140 -63 253.5t-174.5 179 t-250.5 65.5q-140 0 -251.5 -65.5t-175 -179t-63.5 -253.5q0 -139 63.5 -252t175 -178.5t251.5 -65.5q139 0 250.5 65.5z" glyph-name="O.ss05" horiz-adv-x="1588" vert-adv-y="1980"/>
<glyph d="M638 1340q240 0 354 -114.5t114 -324.5q0 -209 -114 -324t-354 -115h-282v-432q0 -13 -8 -21.5t-22 -8.5h-146q-13 0 -21.5 8.5t-8.5 21.5v1280q0 14 8.5 22t21.5 8h458zM621 648q143 0 215 57.5t72 195.5t-72 195.5t-215 57.5h-265v-506h265z" glyph-name="P.ss05" horiz-adv-x="1246" vert-adv-y="1980"/>
<glyph d="M440 65.5q-159 91.5 -249.5 250t-90.5 350.5q0 193 90.5 351.5t249.5 250.5t355 92q195 0 353.5 -92t249 -250.5t90.5 -351.5q0 -192 -90.5 -350.5t-249 -250t-353.5 -91.5q-196 0 -355 91.5zM1045.5 235.5q111.5 65.5 174.5 178.5t63 252q0 140 -63 253.5t-174.5 179 t-250.5 65.5q-140 0 -251.5 -65.5t-175 -179t-63.5 -253.5q0 -139 63.5 -252t175 -178.5t251.5 -65.5q139 0 250.5 65.5zM993.5 -338.5q-52.5 12.5 -121.5 37.5q-70 25 -120.5 37t-118.5 12q-32 0 -32 28v109q0 14 8 23t24 9q71 2 123.5 -10.5t121.5 -37.5q67 -25 118 -37.5 t119 -12.5q32 0 32 -28v-109q0 -14 -8 -23t-22 -9q-71 -1 -123.5 11.5z" glyph-name="Q.ss05" horiz-adv-x="1588" vert-adv-y="1980"/>
<glyph d="M1092 35q4 -8 4 -15q0 -9 -7 -14.5t-20 -5.5h-147q-23 0 -35 22l-228 440h-21h-282v-432q0 -13 -8 -21.5t-22 -8.5h-146q-13 0 -21.5 8.5t-8.5 21.5v1280q0 14 8.5 22t21.5 8h458q240 0 354 -114.5t114 -324.5q0 -155 -62.5 -259t-192.5 -149zM356 1154v-506h265 q143 0 215 57.5t72 195.5t-72 195.5t-215 57.5h-265z" glyph-name="R.ss05" horiz-adv-x="1246" vert-adv-y="1980"/>
<glyph d="M1130 1340q14 0 22 -8t8 -22v-126q0 -13 -8 -21.5t-22 -8.5h-402v-1124q0 -13 -8 -21.5t-22 -8.5h-146q-13 0 -21.5 8.5t-8.5 21.5v1124h-402q-13 0 -21.5 8.5t-8.5 21.5v126q0 14 8.5 22t21.5 8h1010z" glyph-name="T.ss05" horiz-adv-x="1250" vert-adv-y="1980"/>
<glyph d="M400 31.5q-124 61.5 -192 178.5t-68 280v820q0 14 8.5 22t21.5 8h146q14 0 22 -8t8 -22v-794q0 -107 40.5 -185.5t117.5 -121t184 -42.5t184 42.5t117.5 121t40.5 185.5v794q0 14 8.5 22t21.5 8h146q14 0 22 -8t8 -22v-820q0 -163 -68 -280t-192 -178.5t-288 -61.5 t-288 61.5z" glyph-name="U.ss05" horiz-adv-x="1376" vert-adv-y="1980"/>
<glyph d="M543 0q-12 0 -21.5 6t-13.5 18l-441 1282q-2 4 -2 12q0 22 26 22h151q26 0 34 -24l376 -1104h36l376 1104q8 24 34 24h151q26 0 26 -22q0 -8 -2 -12l-441 -1282q-4 -12 -13.5 -18t-21.5 -6h-254z" glyph-name="V.ss05" horiz-adv-x="1340" vert-adv-y="1980"/>
<glyph d="M1662 1340q26 0 26 -23q0 -3 -2 -11l-284 -1282q-3 -11 -13 -17.5t-23 -6.5h-187q-13 0 -24 6.5t-14 17.5l-250 1030l-253 -1030q-2 -11 -12 -17.5t-23 -6.5h-187q-13 0 -23 6.5t-12 17.5l-284 1282q-2 8 -2 11q0 23 26 23h136q29 0 34 -24l234 -1055l264 1055 q7 24 34 24h141q27 0 34 -24l260 -1055l234 1055q5 24 34 24h136z" glyph-name="W.ss05" horiz-adv-x="1783" vert-adv-y="1980"/>
<glyph d="M1138 36q6 -10 6 -18t-6.5 -13t-19.5 -5h-154q-23 0 -36 20l-313 491l-313 -491q-13 -20 -36 -20h-154q-13 0 -19.5 5t-6.5 13t6 18l413 647l-396 621q-6 11 -6 18q0 8 6.5 13t19.5 5h154q23 0 36 -20l296 -464l296 464q13 20 36 20h154q13 0 19.5 -5t6.5 -13 q0 -7 -6 -18l-396 -621z" glyph-name="X.ss05" vert-adv-y="1980"/>
<glyph d="M1132 1340q13 0 19.5 -5t6.5 -13q0 -7 -6 -18l-434 -784v-490q0 -13 -8 -21.5t-22 -8.5h-146q-13 0 -21.5 8.5t-8.5 21.5v491l-434 783q-6 11 -6 18q0 8 6.5 13t19.5 5h154q25 0 36 -20l327 -606l327 606q11 20 36 20h154z" glyph-name="Y.ss05" vert-adv-y="1980"/>
<glyph d="M1109.5 111q8.5 -12 8.5 -34v-24q0 -36 -28 -52.5t-68 -16.5q-68 0 -110 44t-42 124v36h-7q-22 -60 -72 -108.5t-125 -76.5t-168 -28h-49q-102 0 -174 35.5t-109.5 101t-37.5 154.5q0 125 75.5 200t228.5 84l414 27v65q0 78 -22.5 122t-74 63t-142.5 19q-113 0 -171 -30 t-66 -103q-3 -22 -30 -22h-131q-14 0 -22 7.5t-7 22.5q6 153 117.5 221t312.5 68q162 0 256.5 -42t134.5 -122t40 -202v-392q0 -55 8.5 -79.5t30.5 -37.5q21 -12 29.5 -24zM545 133q78 0 146.5 23.5t111.5 76t43 132.5v79l-362 -26q-90 -6 -126.5 -44t-36.5 -97 q0 -144 190 -144h34z" glyph-name="a" unicode="a" vert-adv-y="1980"/>
<glyph d="M1109.5 111q8.5 -12 8.5 -34v-24q0 -36 -28 -52.5t-68 -16.5q-68 0 -110 44t-42 124v36h-7q-22 -60 -72 -108.5t-125 -76.5t-168 -28h-49q-102 0 -174 35.5t-109.5 101t-37.5 154.5q0 125 75.5 200t228.5 84l414 27v65q0 78 -22.5 122t-74 63t-142.5 19q-113 0 -171 -30 t-66 -103q-3 -22 -30 -22h-131q-14 0 -22 7.5t-7 22.5q6 153 117.5 221t312.5 68q162 0 256.5 -42t134.5 -122t40 -202v-392q0 -55 8.5 -79.5t30.5 -37.5q21 -12 29.5 -24zM545 133q78 0 146.5 23.5t111.5 76t43 132.5v79l-362 -26q-90 -6 -126.5 -44t-36.5 -97 q0 -144 190 -144h34zM571 1192q-13 0 -20.5 5t-7.5 15q0 4 4 14l120 252q6 13 14 18.5t20 5.5h114q13 0 20.5 -5t7.5 -15q0 -4 -4 -14l-120 -252q-6 -13 -14 -18.5t-20 -5.5h-114z" glyph-name="aacute" unicode="á" vert-adv-y="1980"/>
<glyph d="M1109.5 111q8.5 -12 8.5 -34v-24q0 -36 -28 -52.5t-68 -16.5q-68 0 -110 44t-42 124v36h-7q-22 -60 -72 -108.5t-125 -76.5t-168 -28h-49q-102 0 -174 35.5t-109.5 101t-37.5 154.5q0 125 75.5 200t228.5 84l414 27v65q0 78 -22.5 122t-74 63t-142.5 19q-113 0 -171 -30 t-66 -103q-3 -22 -30 -22h-131q-14 0 -22 7.5t-7 22.5q6 153 117.5 221t312.5 68q162 0 256.5 -42t134.5 -122t40 -202v-392q0 -55 8.5 -79.5t30.5 -37.5q21 -12 29.5 -24zM545 133q78 0 146.5 23.5t111.5 76t43 132.5v79l-362 -26q-90 -6 -126.5 -44t-36.5 -97 q0 -144 190 -144h34zM469 1241q-66 35 -103.5 95t-45.5 136q-3 30 29 30h77q26 0 32 -28q12 -56 54.5 -92.5t109.5 -36.5t109.5 36.5t54.5 92.5q6 28 32 28h77q32 0 29 -30q-8 -76 -45.5 -136t-103.5 -95t-153 -35t-153 35z" glyph-name="abreve" unicode="ă" vert-adv-y="1980"/>
<glyph d="M1109.5 111q8.5 -12 8.5 -34v-24q0 -36 -28 -52.5t-68 -16.5q-68 0 -110 44t-42 124v36h-7q-22 -60 -72 -108.5t-125 -76.5t-168 -28h-49q-102 0 -174 35.5t-109.5 101t-37.5 154.5q0 125 75.5 200t228.5 84l414 27v65q0 78 -22.5 122t-74 63t-142.5 19q-113 0 -171 -30 t-66 -103q-3 -22 -30 -22h-131q-14 0 -22 7.5t-7 22.5q6 153 117.5 221t312.5 68q162 0 256.5 -42t134.5 -122t40 -202v-392q0 -55 8.5 -79.5t30.5 -37.5q21 -12 29.5 -24zM545 133q78 0 146.5 23.5t111.5 76t43 132.5v79l-362 -26q-90 -6 -126.5 -44t-36.5 -97 q0 -144 190 -144h34zM528 1193q-24 0 -36 16l-222 257q-9 11 -9 19t7 12.5t19 4.5h141q21 0 36 -16l158 -177l158 177q15 16 36 16h141q12 0 19 -4.5t7 -12.5t-9 -19l-222 -257q-12 -16 -36 -16h-188z" glyph-name="uni01CE" unicode="ǎ" vert-adv-y="1980"/>
<glyph d="M1109.5 111q8.5 -12 8.5 -34v-24q0 -36 -28 -52.5t-68 -16.5q-68 0 -110 44t-42 124v36h-7q-22 -60 -72 -108.5t-125 -76.5t-168 -28h-49q-102 0 -174 35.5t-109.5 101t-37.5 154.5q0 125 75.5 200t228.5 84l414 27v65q0 78 -22.5 122t-74 63t-142.5 19q-113 0 -171 -30 t-66 -103q-3 -22 -30 -22h-131q-14 0 -22 7.5t-7 22.5q6 153 117.5 221t312.5 68q162 0 256.5 -42t134.5 -122t40 -202v-392q0 -55 8.5 -79.5t30.5 -37.5q21 -12 29.5 -24zM545 133q78 0 146.5 23.5t111.5 76t43 132.5v79l-362 -26q-90 -6 -126.5 -44t-36.5 -97 q0 -144 190 -144h34zM287 1193q-12 0 -19 4.5t-7 12.5q0 9 9 19l222 257q12 16 36 16h188q24 0 36 -16l222 -257q9 -10 9 -19q0 -8 -7 -12.5t-19 -4.5h-141q-21 0 -36 16l-158 178l-158 -178q-15 -16 -36 -16h-141z" glyph-name="acircumflex" unicode="â" vert-adv-y="1980"/>
<glyph d="M1109.5 111q8.5 -12 8.5 -34v-24q0 -36 -28 -52.5t-68 -16.5q-68 0 -110 44t-42 124v36h-7q-22 -60 -72 -108.5t-125 -76.5t-168 -28h-49q-102 0 -174 35.5t-109.5 101t-37.5 154.5q0 125 75.5 200t228.5 84l414 27v65q0 78 -22.5 122t-74 63t-142.5 19q-113 0 -171 -30 t-66 -103q-3 -22 -30 -22h-131q-14 0 -22 7.5t-7 22.5q6 153 117.5 221t312.5 68q162 0 256.5 -42t134.5 -122t40 -202v-392q0 -55 8.5 -79.5t30.5 -37.5q21 -12 29.5 -24zM545 133q78 0 146.5 23.5t111.5 76t43 132.5v79l-362 -26q-90 -6 -126.5 -44t-36.5 -97 q0 -144 190 -144h34zM350 1319.5q-32 31.5 -32 76.5q0 43 32 74.5t76 31.5t75.5 -31.5t31.5 -74.5q0 -45 -31.5 -76.5t-75.5 -31.5t-76 31.5zM744 1319.5q-32 31.5 -32 76.5q0 43 32 74.5t76 31.5t75.5 -31.5t31.5 -74.5q0 -45 -31.5 -76.5t-75.5 -31.5t-76 31.5z" glyph-name="adieresis" unicode="ä" vert-adv-y="1980"/>
<glyph d="M1109.5 111q8.5 -12 8.5 -34v-24q0 -36 -28 -52.5t-68 -16.5q-68 0 -110 44t-42 124v36h-7q-22 -60 -72 -108.5t-125 -76.5t-168 -28h-49q-102 0 -174 35.5t-109.5 101t-37.5 154.5q0 125 75.5 200t228.5 84l414 27v65q0 78 -22.5 122t-74 63t-142.5 19q-113 0 -171 -30 t-66 -103q-3 -22 -30 -22h-131q-14 0 -22 7.5t-7 22.5q6 153 117.5 221t312.5 68q162 0 256.5 -42t134.5 -122t40 -202v-392q0 -55 8.5 -79.5t30.5 -37.5q21 -12 29.5 -24zM545 133q78 0 146.5 23.5t111.5 76t43 132.5v79l-362 -26q-90 -6 -126.5 -44t-36.5 -97 q0 -144 190 -144h34zM559 1192q-12 0 -20 5.5t-14 18.5l-120 252q-4 10 -4 14q0 10 7.5 15t20.5 5h114q12 0 20 -5.5t14 -18.5l120 -252q4 -10 4 -14q0 -10 -7.5 -15t-20.5 -5h-114z" glyph-name="agrave" unicode="à" vert-adv-y="1980"/>
<glyph d="M1109.5 111q8.5 -12 8.5 -34v-24q0 -36 -28 -52.5t-68 -16.5q-68 0 -110 44t-42 124v36h-7q-22 -60 -72 -108.5t-125 -76.5t-168 -28h-49q-102 0 -174 35.5t-109.5 101t-37.5 154.5q0 125 75.5 200t228.5 84l414 27v65q0 78 -22.5 122t-74 63t-142.5 19q-113 0 -171 -30 t-66 -103q-3 -22 -30 -22h-131q-14 0 -22 7.5t-7 22.5q6 153 117.5 221t312.5 68q162 0 256.5 -42t134.5 -122t40 -202v-392q0 -55 8.5 -79.5t30.5 -37.5q21 -12 29.5 -24zM545 133q78 0 146.5 23.5t111.5 76t43 132.5v79l-362 -26q-90 -6 -126.5 -44t-36.5 -97 q0 -144 190 -144h34zM364 1344q-13 0 -21.5 8.5t-8.5 21.5v98q0 14 8.5 22t21.5 8h516q14 0 22 -8t8 -22v-98q0 -13 -8 -21.5t-22 -8.5h-516z" glyph-name="amacron" unicode="ā" vert-adv-y="1980"/>
<glyph d="M1109.5 111q8.5 -12 8.5 -34v-24q0 -32 -22 -48.5t-57 -19.5v-1q-202 0 -202 -125q0 -57 42 -87t120 -30h29q20 0 20 -20v-89q0 -20 -20 -20h-57q-67 0 -131 19t-108.5 68t-44.5 133q0 94 56.5 147.5t148.5 75.5q-22 39 -22 96v36h-7q-22 -60 -72 -108.5t-125 -76.5 t-168 -28h-49q-102 0 -174 35.5t-109.5 101t-37.5 154.5q0 125 75.5 200t228.5 84l414 27v65q0 78 -22.5 122t-74 63t-142.5 19q-113 0 -171 -30t-66 -103q-3 -22 -30 -22h-131q-14 0 -22 7.5t-7 22.5q6 153 117.5 221t312.5 68q162 0 256.5 -42t134.5 -122t40 -202v-392 q0 -55 8.5 -79.5t30.5 -37.5q21 -12 29.5 -24zM545 133q78 0 146.5 23.5t111.5 76t43 132.5v79l-362 -26q-90 -6 -126.5 -44t-36.5 -97q0 -144 190 -144h34z" glyph-name="aogonek" unicode="ą" vert-adv-y="1980"/>
<glyph d="M1109.5 111q8.5 -12 8.5 -34v-24q0 -36 -28 -52.5t-68 -16.5q-68 0 -110 44t-42 124v36h-7q-22 -60 -72 -108.5t-125 -76.5t-168 -28h-49q-102 0 -174 35.5t-109.5 101t-37.5 154.5q0 125 75.5 200t228.5 84l414 27v65q0 78 -22.5 122t-74 63t-142.5 19q-113 0 -171 -30 t-66 -103q-3 -22 -30 -22h-131q-14 0 -22 7.5t-7 22.5q6 153 117.5 221t312.5 68q162 0 256.5 -42t134.5 -122t40 -202v-392q0 -55 8.5 -79.5t30.5 -37.5q21 -12 29.5 -24zM545 133q78 0 146.5 23.5t111.5 76t43 132.5v79l-362 -26q-90 -6 -126.5 -44t-36.5 -97 q0 -144 190 -144h34zM527 1158q-43 25 -67.5 67.5t-24.5 91.5q0 50 24.5 92.5t67.5 67.5t95 25q51 0 94 -25t67.5 -67.5t24.5 -92.5q0 -49 -24.5 -91.5t-67.5 -67.5t-94 -25q-52 0 -95 25zM671.5 1268.5q20.5 18.5 20.5 47.5q0 31 -20 50.5t-50 19.5t-50.5 -19t-20.5 -49 t20.5 -49t50.5 -19q29 0 49.5 18.5z" glyph-name="aring" unicode="å" vert-adv-y="1980"/>
<glyph d="M1109.5 111q8.5 -12 8.5 -34v-24q0 -36 -28 -52.5t-68 -16.5q-68 0 -110 44t-42 124v36h-7q-22 -60 -72 -108.5t-125 -76.5t-168 -28h-49q-102 0 -174 35.5t-109.5 101t-37.5 154.5q0 125 75.5 200t228.5 84l414 27v65q0 78 -22.5 122t-74 63t-142.5 19q-113 0 -171 -30 t-66 -103q-3 -22 -30 -22h-131q-14 0 -22 7.5t-7 22.5q6 153 117.5 221t312.5 68q162 0 256.5 -42t134.5 -122t40 -202v-392q0 -55 8.5 -79.5t30.5 -37.5q21 -12 29.5 -24zM545 133q78 0 146.5 23.5t111.5 76t43 132.5v79l-362 -26q-90 -6 -126.5 -44t-36.5 -97 q0 -144 190 -144h34zM682 1258.5q-40 21.5 -87 62.5q-37 31 -62.5 46t-57.5 15q-35 0 -58.5 -18t-32.5 -43q-6 -18 -23 -18h-79q-9 0 -14.5 7t-4.5 19q2 58 30 98t73 60.5t98 20.5q42 0 75 -11.5t56.5 -28t55.5 -43.5q36 -31 61.5 -46t57.5 -15q35 0 58.5 18t32.5 42 q6 18 23 18h78q10 0 16 -5.5t5 -14.5q-2 -60 -30.5 -101.5t-74 -62.5t-97.5 -21q-59 0 -99 21.5z" glyph-name="atilde" unicode="ã" vert-adv-y="1980"/>
<glyph d="M1006 156.5q40 21.5 82 64.5l85 -99q-47 -72 -117 -110t-162 -38q-193 0 -276 172q-108 -172 -294 -172q-83 0 -146 34t-98 99.5t-35 159.5q0 127 68 207.5t215 80.5h215v89q0 112 -38 158t-117 46q-69 0 -107 -34t-44 -114q-1 -12 -8.5 -18.5t-20.5 -6.5h-94 q-14 0 -22 8.5t-7 23.5q6 158 87 231.5t216 73.5q96 0 157 -36t93 -106q84 142 244 142q303 0 303 -493q0 -39 -6 -59.5t-24 -30t-55 -9.5h-407q7 -137 56.5 -211t158.5 -74q58 0 98 21.5zM693 555h340q2 142 -35 217.5t-124 75.5q-166 0 -181 -293zM543 420h-182 q-155 0 -155 -137q0 -65 35 -103.5t111 -38.5q63 0 113.5 30t77.5 97v152z" glyph-name="ae" unicode="æ" vert-adv-y="1980"/>
<glyph d="M910 943.5q109 -66.5 167.5 -184.5t58.5 -269q0 -147 -54.5 -264t-155 -184t-233.5 -67q-125 0 -212 58t-127 154h-22l-11 -157q-1 -14 -8.5 -22t-20.5 -8h-122q-13 0 -21.5 8.5t-8.5 21.5v1340q0 14 8.5 22t21.5 8h138q14 0 22 -8t8 -22v-503q46 62 125.5 102.5 t193.5 40.5q144 0 253 -66.5zM797.5 199.5q69.5 41.5 107.5 117t38 176.5t-38 176.5t-107.5 116.5t-162.5 41t-162.5 -41t-107.5 -116.5t-38 -176.5t38 -176.5t107.5 -117t162.5 -41.5t162.5 41.5z" glyph-name="b" unicode="b" vert-adv-y="1980"/>
<glyph d="M802.5 193q68.5 35 117.5 97q10 15 23 15q7 0 17 -7l94 -65q15 -9 15 -23q0 -8 -6 -17q-65 -102 -174 -160t-245 -58q-147 0 -264 67t-183 185t-66 266t66 265.5t183 184.5t264 67q136 0 245 -58t174 -160q6 -9 6 -17q0 -13 -15 -24l-94 -64q-10 -7 -17 -7q-13 0 -23 15 q-49 62 -117.5 97t-153.5 35q-92 0 -166.5 -42t-116.5 -118t-42 -174t42 -174.5t116.5 -118.5t166.5 -42q85 0 153.5 35z" glyph-name="c" unicode="c" vert-adv-y="1980"/>
<glyph d="M802.5 193q68.5 35 117.5 97q10 15 23 15q7 0 17 -7l94 -65q15 -9 15 -23q0 -8 -6 -17q-65 -102 -174 -160t-245 -58q-147 0 -264 67t-183 185t-66 266t66 265.5t183 184.5t264 67q136 0 245 -58t174 -160q6 -9 6 -17q0 -13 -15 -24l-94 -64q-10 -7 -17 -7q-13 0 -23 15 q-49 62 -117.5 97t-153.5 35q-92 0 -166.5 -42t-116.5 -118t-42 -174t42 -174.5t116.5 -118.5t166.5 -42q85 0 153.5 35zM598 1192q-13 0 -20.5 5t-7.5 15q0 4 4 14l120 252q6 13 14 18.5t20 5.5h114q13 0 20.5 -5t7.5 -15q0 -4 -4 -14l-120 -252q-6 -13 -14 -18.5t-20 -5.5 h-114z" glyph-name="cacute" unicode="ć" vert-adv-y="1980"/>
<glyph d="M802.5 193q68.5 35 117.5 97q10 15 23 15q7 0 17 -7l94 -65q15 -9 15 -23q0 -8 -6 -17q-65 -102 -174 -160t-245 -58q-147 0 -264 67t-183 185t-66 266t66 265.5t183 184.5t264 67q136 0 245 -58t174 -160q6 -9 6 -17q0 -13 -15 -24l-94 -64q-10 -7 -17 -7q-13 0 -23 15 q-49 62 -117.5 97t-153.5 35q-92 0 -166.5 -42t-116.5 -118t-42 -174t42 -174.5t116.5 -118.5t166.5 -42q85 0 153.5 35zM555 1193q-24 0 -36 16l-222 257q-9 11 -9 19t7 12.5t19 4.5h141q21 0 36 -16l158 -177l158 177q15 16 36 16h141q12 0 19 -4.5t7 -12.5t-9 -19 l-222 -257q-12 -16 -36 -16h-188z" glyph-name="ccaron" unicode="č" vert-adv-y="1980"/>
<glyph d="M1054 233q15 -9 15 -23q0 -8 -6 -17q-56 -88 -146 -144t-203 -70l-54 -52q70 -6 119 -48.5t49 -110.5q0 -101 -71 -151t-177 -50q-38 0 -74 6q-18 3 -18 22v71q0 9 6 15t16 5q25 -4 54 -4q56 0 87.5 20t31.5 55q0 27 -27.5 46t-68.5 19q-36 0 -75 -16q-4 -2 -10 -2 q-14 0 -14 16v70q0 12 10 24l65 67q-126 18 -224 88t-153 180t-55 244q0 148 66 265.5t183 184.5t264 67q136 0 245 -58t174 -160q6 -9 6 -17q0 -13 -15 -24l-94 -64q-10 -7 -17 -7q-13 0 -23 15q-49 62 -117.5 97t-153.5 35q-92 0 -166.5 -42t-116.5 -118t-42 -174 t42 -174.5t116.5 -118.5t166.5 -42q85 0 153.5 35t117.5 97q10 15 23 15q7 0 17 -7z" glyph-name="ccedilla" unicode="ç" vert-adv-y="1980"/>
<glyph d="M802.5 193q68.5 35 117.5 97q10 15 23 15q7 0 17 -7l94 -65q15 -9 15 -23q0 -8 -6 -17q-65 -102 -174 -160t-245 -58q-147 0 -264 67t-183 185t-66 266t66 265.5t183 184.5t264 67q136 0 245 -58t174 -160q6 -9 6 -17q0 -13 -15 -24l-94 -64q-10 -7 -17 -7q-13 0 -23 15 q-49 62 -117.5 97t-153.5 35q-92 0 -166.5 -42t-116.5 -118t-42 -174t42 -174.5t116.5 -118.5t166.5 -42q85 0 153.5 35zM573.5 1319.5q-31.5 31.5 -31.5 76.5q0 43 31.5 74.5t75.5 31.5t75.5 -31.5t31.5 -74.5q0 -45 -31.5 -76.5t-75.5 -31.5t-75.5 31.5z" glyph-name="cdotaccent" unicode="ċ" vert-adv-y="1980"/>
<glyph d="M1060 1400q14 0 22 -8t8 -22v-1340q0 -13 -8 -21.5t-22 -8.5h-122q-13 0 -20.5 8t-8.5 22l-11 157h-22q-40 -96 -127 -154t-212 -58q-133 0 -233.5 67t-155 184t-54.5 264q0 151 58.5 269t167.5 184.5t253 66.5q114 0 193.5 -40.5t125.5 -102.5v503q0 14 8.5 22t21.5 8 h138zM757.5 199.5q69.5 41.5 107.5 117t38 176.5t-38 176.5t-107.5 116.5t-162.5 41t-162.5 -41t-107.5 -116.5t-38 -176.5t38 -176.5t107.5 -117t162.5 -41.5t162.5 41.5z" glyph-name="d" unicode="d" vert-adv-y="1980"/>
<glyph d="M1167 1274q15 2 23.5 -5t8.5 -22v-59q0 -27 -28 -30l-81 -9v-1119q0 -13 -8 -21.5t-22 -8.5h-122q-13 0 -20.5 8t-8.5 22l-11 157h-22q-40 -96 -127 -154t-212 -58q-133 0 -233.5 67t-155 184t-54.5 264q0 151 58.5 269t167.5 184.5t253 66.5q114 0 193.5 -40.5 t125.5 -102.5v259l-185 -22q-15 -2 -23.5 4.5t-8.5 21.5v59q0 28 28 31l189 22v128q0 14 8.5 22t21.5 8h138q14 0 22 -8t8 -22v-105zM757.5 199.5q69.5 41.5 107.5 117t38 176.5t-38 176.5t-107.5 116.5t-162.5 41t-162.5 -41t-107.5 -116.5t-38 -176.5t38 -176.5 t107.5 -117t162.5 -41.5t162.5 41.5z" glyph-name="eth" unicode="ð" vert-adv-y="1980"/>
<glyph d="M1060 1400q14 0 22 -8t8 -22v-1340q0 -13 -8 -21.5t-22 -8.5h-122q-13 0 -20.5 8t-8.5 22l-11 157h-22q-40 -96 -127 -154t-212 -58q-133 0 -233.5 67t-155 184t-54.5 264q0 151 58.5 269t167.5 184.5t253 66.5q114 0 193.5 -40.5t125.5 -102.5v503q0 14 8.5 22t21.5 8 h138zM757.5 199.5q69.5 41.5 107.5 117t38 176.5t-38 176.5t-107.5 116.5t-162.5 41t-162.5 -41t-107.5 -116.5t-38 -176.5t38 -176.5t107.5 -117t162.5 -41.5t162.5 41.5zM1253 1336q-13 0 -20.5 5t-7.5 15q0 4 4 14l120 252q6 13 14 18.5t20 5.5h114q13 0 20.5 -5t7.5 -15 q0 -4 -4 -14l-120 -252q-6 -13 -14 -18.5t-20 -5.5h-114z" glyph-name="dcaron" unicode="ď" vert-adv-y="1980"/>
<glyph d="M1155 1261q14 0 22 -8t8 -22v-57q0 -13 -8 -21.5t-22 -8.5h-65v-1114q0 -13 -8 -21.5t-22 -8.5h-122q-13 0 -20.5 8t-8.5 22l-11 157h-22q-40 -96 -127 -154t-212 -58q-133 0 -233.5 67t-155 184t-54.5 264q0 151 58.5 269t167.5 184.5t253 66.5q114 0 193.5 -40.5 t125.5 -102.5v277h-283q-13 0 -21.5 8.5t-8.5 21.5v57q0 14 8.5 22t21.5 8h283v109q0 14 8.5 22t21.5 8h138q14 0 22 -8t8 -22v-109h65zM757.5 199.5q69.5 41.5 107.5 117t38 176.5t-38 176.5t-107.5 116.5t-162.5 41t-162.5 -41t-107.5 -116.5t-38 -176.5t38 -176.5 t107.5 -117t162.5 -41.5t162.5 41.5z" glyph-name="dcroat" unicode="đ" vert-adv-y="1980"/>
<glyph d="M1086.5 465q-15.5 -21 -65.5 -21l-704 1q4 -95 47.5 -164t122 -105.5t184.5 -36.5q77 0 143 18t117 49q17 10 26 10q10 0 20.5 -8t24.5 -25q26 -32 26 -52q0 -18 -19 -36q-59 -56 -153 -88t-203 -32q-156 0 -275 65t-184.5 183t-65.5 272q0 152 62.5 269t176.5 181.5 t263 64.5q147 0 253.5 -61.5t162.5 -169t56 -244.5q0 -49 -15.5 -70zM425.5 773.5q-80.5 -66.5 -100.5 -186.5h603q-11 119 -89 186t-206 67q-127 0 -207.5 -66.5z" glyph-name="e" unicode="e" vert-adv-y="1980"/>
<glyph d="M1086.5 465q-15.5 -21 -65.5 -21l-704 1q4 -95 47.5 -164t122 -105.5t184.5 -36.5q77 0 143 18t117 49q17 10 26 10q10 0 20.5 -8t24.5 -25q26 -32 26 -52q0 -18 -19 -36q-59 -56 -153 -88t-203 -32q-156 0 -275 65t-184.5 183t-65.5 272q0 152 62.5 269t176.5 181.5 t263 64.5q147 0 253.5 -61.5t162.5 -169t56 -244.5q0 -49 -15.5 -70zM425.5 773.5q-80.5 -66.5 -100.5 -186.5h603q-11 119 -89 186t-206 67q-127 0 -207.5 -66.5zM564 1192q-13 0 -20.5 5t-7.5 15q0 4 4 14l120 252q6 13 14 18.5t20 5.5h114q13 0 20.5 -5t7.5 -15 q0 -4 -4 -14l-120 -252q-6 -13 -14 -18.5t-20 -5.5h-114z" glyph-name="eacute" unicode="é" vert-adv-y="1980"/>
<glyph d="M1086.5 465q-15.5 -21 -65.5 -21l-704 1q4 -95 47.5 -164t122 -105.5t184.5 -36.5q77 0 143 18t117 49q17 10 26 10q10 0 20.5 -8t24.5 -25q26 -32 26 -52q0 -18 -19 -36q-59 -56 -153 -88t-203 -32q-156 0 -275 65t-184.5 183t-65.5 272q0 152 62.5 269t176.5 181.5 t263 64.5q147 0 253.5 -61.5t162.5 -169t56 -244.5q0 -49 -15.5 -70zM425.5 773.5q-80.5 -66.5 -100.5 -186.5h603q-11 119 -89 186t-206 67q-127 0 -207.5 -66.5zM521 1193q-24 0 -36 16l-222 257q-9 11 -9 19t7 12.5t19 4.5h141q21 0 36 -16l158 -177l158 177q15 16 36 16 h141q12 0 19 -4.5t7 -12.5t-9 -19l-222 -257q-12 -16 -36 -16h-188z" glyph-name="ecaron" unicode="ě" vert-adv-y="1980"/>
<glyph d="M1086.5 465q-15.5 -21 -65.5 -21l-704 1q4 -95 47.5 -164t122 -105.5t184.5 -36.5q77 0 143 18t117 49q17 10 26 10q10 0 20.5 -8t24.5 -25q26 -32 26 -52q0 -18 -19 -36q-59 -56 -153 -88t-203 -32q-156 0 -275 65t-184.5 183t-65.5 272q0 152 62.5 269t176.5 181.5 t263 64.5q147 0 253.5 -61.5t162.5 -169t56 -244.5q0 -49 -15.5 -70zM425.5 773.5q-80.5 -66.5 -100.5 -186.5h603q-11 119 -89 186t-206 67q-127 0 -207.5 -66.5zM280 1193q-12 0 -19 4.5t-7 12.5q0 9 9 19l222 257q12 16 36 16h188q24 0 36 -16l222 -257q9 -10 9 -19 q0 -8 -7 -12.5t-19 -4.5h-141q-21 0 -36 16l-158 178l-158 -178q-15 -16 -36 -16h-141z" glyph-name="ecircumflex" unicode="ê" vert-adv-y="1980"/>
<glyph d="M1086.5 465q-15.5 -21 -65.5 -21l-704 1q4 -95 47.5 -164t122 -105.5t184.5 -36.5q77 0 143 18t117 49q17 10 26 10q10 0 20.5 -8t24.5 -25q26 -32 26 -52q0 -18 -19 -36q-59 -56 -153 -88t-203 -32q-156 0 -275 65t-184.5 183t-65.5 272q0 152 62.5 269t176.5 181.5 t263 64.5q147 0 253.5 -61.5t162.5 -169t56 -244.5q0 -49 -15.5 -70zM425.5 773.5q-80.5 -66.5 -100.5 -186.5h603q-11 119 -89 186t-206 67q-127 0 -207.5 -66.5zM343 1319.5q-32 31.5 -32 76.5q0 43 32 74.5t76 31.5t75.5 -31.5t31.5 -74.5q0 -45 -31.5 -76.5t-75.5 -31.5 t-76 31.5zM737 1319.5q-32 31.5 -32 76.5q0 43 32 74.5t76 31.5t75.5 -31.5t31.5 -74.5q0 -45 -31.5 -76.5t-75.5 -31.5t-76 31.5z" glyph-name="edieresis" unicode="ë" vert-adv-y="1980"/>
<glyph d="M1086.5 465q-15.5 -21 -65.5 -21l-704 1q4 -95 47.5 -164t122 -105.5t184.5 -36.5q77 0 143 18t117 49q17 10 26 10q10 0 20.5 -8t24.5 -25q26 -32 26 -52q0 -18 -19 -36q-59 -56 -153 -88t-203 -32q-156 0 -275 65t-184.5 183t-65.5 272q0 152 62.5 269t176.5 181.5 t263 64.5q147 0 253.5 -61.5t162.5 -169t56 -244.5q0 -49 -15.5 -70zM425.5 773.5q-80.5 -66.5 -100.5 -186.5h603q-11 119 -89 186t-206 67q-127 0 -207.5 -66.5zM539.5 1319.5q-31.5 31.5 -31.5 76.5q0 43 31.5 74.5t75.5 31.5t75.5 -31.5t31.5 -74.5q0 -45 -31.5 -76.5 t-75.5 -31.5t-75.5 31.5z" glyph-name="edotaccent" unicode="ė" vert-adv-y="1980"/>
<glyph d="M1086.5 465q-15.5 -21 -65.5 -21l-704 1q4 -95 47.5 -164t122 -105.5t184.5 -36.5q77 0 143 18t117 49q17 10 26 10q10 0 20.5 -8t24.5 -25q26 -32 26 -52q0 -18 -19 -36q-59 -56 -153 -88t-203 -32q-156 0 -275 65t-184.5 183t-65.5 272q0 152 62.5 269t176.5 181.5 t263 64.5q147 0 253.5 -61.5t162.5 -169t56 -244.5q0 -49 -15.5 -70zM425.5 773.5q-80.5 -66.5 -100.5 -186.5h603q-11 119 -89 186t-206 67q-127 0 -207.5 -66.5zM552 1192q-12 0 -20 5.5t-14 18.5l-120 252q-4 10 -4 14q0 10 7.5 15t20.5 5h114q12 0 20 -5.5t14 -18.5 l120 -252q4 -10 4 -14q0 -10 -7.5 -15t-20.5 -5h-114z" glyph-name="egrave" unicode="è" vert-adv-y="1980"/>
<glyph d="M1086.5 465q-15.5 -21 -65.5 -21l-704 1q4 -95 47.5 -164t122 -105.5t184.5 -36.5q77 0 143 18t117 49q17 10 26 10q10 0 20.5 -8t24.5 -25q26 -32 26 -52q0 -18 -19 -36q-59 -56 -153 -88t-203 -32q-156 0 -275 65t-184.5 183t-65.5 272q0 152 62.5 269t176.5 181.5 t263 64.5q147 0 253.5 -61.5t162.5 -169t56 -244.5q0 -49 -15.5 -70zM425.5 773.5q-80.5 -66.5 -100.5 -186.5h603q-11 119 -89 186t-206 67q-127 0 -207.5 -66.5zM357 1344q-13 0 -21.5 8.5t-8.5 21.5v98q0 14 8.5 22t21.5 8h516q14 0 22 -8t8 -22v-98q0 -13 -8 -21.5 t-22 -8.5h-516z" glyph-name="emacron" unicode="ē" vert-adv-y="1980"/>
<glyph d="M1086.5 465q-15.5 -21 -65.5 -21l-704 1q4 -95 47.5 -164t122 -105.5t184.5 -36.5q77 0 143 18t117 49q17 10 26 10q10 0 20.5 -8t24.5 -25q26 -32 26 -52q0 -18 -19 -36q-47 -45 -117.5 -74.5t-154.5 -40.5q-69 -19 -100.5 -48t-31.5 -78q0 -112 158 -112h33 q20 0 20 -20v-89q0 -20 -20 -20h-57q-67 0 -131 18.5t-108.5 65.5t-44.5 127q0 111 96 159q-128 20 -223.5 89t-147.5 177.5t-52 245.5q0 152 62.5 269t176.5 181.5t263 64.5q147 0 253.5 -61.5t162.5 -169t56 -244.5q0 -49 -15.5 -70zM425.5 773.5 q-80.5 -66.5 -100.5 -186.5h603q-11 119 -89 186t-206 67q-127 0 -207.5 -66.5z" glyph-name="eogonek" unicode="ę" vert-adv-y="1980"/>
<glyph d="M852 950q119 -65 184.5 -183t65.5 -272q0 -152 -62.5 -269t-176.5 -181.5t-263 -64.5q-147 0 -253.5 61.5t-162.5 169t-56 244.5q0 49 15.5 70t65.5 21l704 -1q-4 95 -47.5 164t-122 105.5t-184.5 36.5q-77 0 -143 -18t-117 -49q-17 -10 -26 -10q-10 0 -20.5 8t-24.5 25 q-26 32 -26 52q0 18 19 36q59 56 153 88t203 32q156 0 275 -65zM804.5 216.5q80.5 66.5 100.5 186.5h-603q11 -119 89 -186t206 -67q127 0 207.5 66.5z" glyph-name="uni0259" unicode="ə" vert-adv-y="1980"/>
<glyph d="M1091 1406v-105q0 -28 -25 -28q-8 0 -35 5q-85 15 -157 15q-85 0 -143 -21.5t-92 -80t-34 -165.5v-46h438q14 0 22 -8t8 -22v-103q0 -13 -8 -21.5t-22 -8.5h-438v-787q0 -13 -8 -21.5t-22 -8.5h-138q-13 0 -21.5 8.5t-8.5 21.5v787h-226q-13 0 -21.5 8.5t-8.5 21.5v103 q0 14 8.5 22t21.5 8h226v72q0 229 120.5 322.5t307.5 93.5q69 0 132.5 -10t101.5 -23q22 -6 22 -29z" glyph-name="f" unicode="f" vert-adv-y="1980"/>
<glyph d="M1065 990q14 0 22 -8t8 -22v-905q0 -246 -151 -348.5t-374 -102.5q-103 0 -195 20t-155 58q-16 9 -16 26q0 7 3 15l32 91q6 18 24 18q6 0 13 -3q64 -28 130.5 -41t146.5 -13q163 0 259.5 64t96.5 226v185h-30q-31 -91 -120 -145.5t-210 -54.5q-128 0 -228 62t-155.5 170 t-55.5 242q0 138 58.5 249t163 174t236.5 63q111 0 196 -44.5t141 -122.5l5 117q2 14 9.5 22t20.5 8h125zM757.5 262q68.5 39 107 108.5t38.5 156.5t-38.5 156t-107 107.5t-155.5 38.5t-155.5 -38.5t-106.5 -107.5t-38 -156t38.5 -156.5t106.5 -108.5t155 -39t155.5 39z" glyph-name="g" unicode="g" vert-adv-y="1980"/>
<glyph d="M1065 990q14 0 22 -8t8 -22v-905q0 -246 -151 -348.5t-374 -102.5q-103 0 -195 20t-155 58q-16 9 -16 26q0 7 3 15l32 91q6 18 24 18q6 0 13 -3q64 -28 130.5 -41t146.5 -13q163 0 259.5 64t96.5 226v185h-30q-31 -91 -120 -145.5t-210 -54.5q-128 0 -228 62t-155.5 170 t-55.5 242q0 138 58.5 249t163 174t236.5 63q111 0 196 -44.5t141 -122.5l5 117q2 14 9.5 22t20.5 8h125zM757.5 262q68.5 39 107 108.5t38.5 156.5t-38.5 156t-107 107.5t-155.5 38.5t-155.5 -38.5t-106.5 -107.5t-38 -156t38.5 -156.5t106.5 -108.5t155 -39t155.5 39z M462 1241q-66 35 -103.5 95t-45.5 136q-3 30 29 30h77q26 0 32 -28q12 -56 54.5 -92.5t109.5 -36.5t109.5 36.5t54.5 92.5q6 28 32 28h77q32 0 29 -30q-8 -76 -45.5 -136t-103.5 -95t-153 -35t-153 35z" glyph-name="gbreve" unicode="ğ" vert-adv-y="1980"/>
<glyph d="M438 1194q-13 0 -20.5 7.5t-7.5 20.5v59q0 122 7.5 232.5t20.5 185.5q4 21 31 21h100q15 0 21 -7t5 -23q-10 -192 -10 -291v-43h230q13 0 20.5 -7.5t7.5 -20.5v-106q0 -13 -7.5 -20.5t-20.5 -7.5h-377zM1065 990q14 0 22 -8t8 -22v-905q0 -246 -151 -348.5t-374 -102.5 q-103 0 -195 20t-155 58q-16 9 -16 26q0 7 3 15l32 91q6 18 24 18q6 0 13 -3q64 -28 130.5 -41t146.5 -13q163 0 259.5 64t96.5 226v185h-30q-31 -91 -120 -145.5t-210 -54.5q-128 0 -228 62t-155.5 170t-55.5 242q0 138 58.5 249t163 174t236.5 63q111 0 196 -44.5 t141 -122.5l5 117q2 14 9.5 22t20.5 8h125zM757.5 262q68.5 39 107 108.5t38.5 156.5t-38.5 156t-107 107.5t-155.5 38.5t-155.5 -38.5t-106.5 -107.5t-38 -156t38.5 -156.5t106.5 -108.5t155 -39t155.5 39z" glyph-name="uni0123" unicode="ģ" vert-adv-y="1980"/>
<glyph d="M1065 990q14 0 22 -8t8 -22v-905q0 -246 -151 -348.5t-374 -102.5q-103 0 -195 20t-155 58q-16 9 -16 26q0 7 3 15l32 91q6 18 24 18q6 0 13 -3q64 -28 130.5 -41t146.5 -13q163 0 259.5 64t96.5 226v185h-30q-31 -91 -120 -145.5t-210 -54.5q-128 0 -228 62t-155.5 170 t-55.5 242q0 138 58.5 249t163 174t236.5 63q111 0 196 -44.5t141 -122.5l5 117q2 14 9.5 22t20.5 8h125zM757.5 262q68.5 39 107 108.5t38.5 156.5t-38.5 156t-107 107.5t-155.5 38.5t-155.5 -38.5t-106.5 -107.5t-38 -156t38.5 -156.5t106.5 -108.5t155 -39t155.5 39z M539.5 1319.5q-31.5 31.5 -31.5 76.5q0 43 31.5 74.5t75.5 31.5t75.5 -31.5t31.5 -74.5q0 -45 -31.5 -76.5t-75.5 -31.5t-75.5 31.5z" glyph-name="gdotaccent" unicode="ġ" vert-adv-y="1980"/>
<glyph d="M890.5 961.5q83.5 -48.5 131 -141t47.5 -220.5v-570q0 -13 -8 -21.5t-22 -8.5h-138q-13 0 -21.5 8.5t-8.5 21.5v533q0 79 -30.5 138.5t-87.5 92.5t-136 33t-137.5 -33t-89.5 -92.5t-31 -138.5v-533q0 -13 -8 -21.5t-22 -8.5h-138q-13 0 -21.5 8.5t-8.5 21.5v1340 q0 14 8.5 22t21.5 8h138q14 0 22 -8t8 -22v-552h25q38 87 120.5 139.5t194.5 52.5q108 0 191.5 -48.5z" glyph-name="h" unicode="h" vert-adv-y="1980"/>
<glyph d="M890.5 961.5q83.5 -48.5 131 -141t47.5 -220.5v-570q0 -13 -8 -21.5t-22 -8.5h-138q-13 0 -21.5 8.5t-8.5 21.5v533q0 79 -30.5 138.5t-87.5 92.5t-136 33t-137.5 -33t-89.5 -92.5t-31 -138.5v-533q0 -13 -8 -21.5t-22 -8.5h-138q-13 0 -21.5 8.5t-8.5 21.5v1094h-114 q-13 0 -21.5 8.5t-8.5 21.5v76q0 14 8.5 22t21.5 8h114v110q0 14 8.5 22t21.5 8h138q14 0 22 -8t8 -22v-110h350q14 0 22 -8t8 -22v-76q0 -13 -8 -21.5t-22 -8.5h-350v-306h25q38 87 120.5 139.5t194.5 52.5q108 0 191.5 -48.5z" glyph-name="hbar" unicode="ħ" vert-adv-y="1980"/>
<glyph d="M533.5 1266q-30.5 18 -48.5 49t-18 68t18 67.5t48.5 48.5t67.5 18t68 -18t49 -48.5t18 -67.5t-18 -68t-49 -49t-68 -18t-67.5 18zM1041 168q14 0 22 -8t8 -22v-108q0 -13 -8 -21.5t-22 -8.5h-237q-135 0 -207 75.5t-72 213.5v533h-331q-13 0 -21.5 8.5t-8.5 21.5v108 q0 14 8.5 22t21.5 8h499q14 0 22 -8t8 -22v-641q0 -151 150 -151h168z" glyph-name="i" unicode="i" vert-adv-y="1980"/>
<glyph d="M1041 168q14 0 22 -8t8 -22v-108q0 -13 -8 -21.5t-22 -8.5h-237q-135 0 -207 75.5t-72 213.5v533h-331q-13 0 -21.5 8.5t-8.5 21.5v108q0 14 8.5 22t21.5 8h499q14 0 22 -8t8 -22v-641q0 -151 150 -151h168z" glyph-name="dotlessi" unicode="ı" vert-adv-y="1980"/>
<glyph d="M1041 168q14 0 22 -8t8 -22v-108q0 -13 -8 -21.5t-22 -8.5h-237q-135 0 -207 75.5t-72 213.5v533h-331q-13 0 -21.5 8.5t-8.5 21.5v108q0 14 8.5 22t21.5 8h499q14 0 22 -8t8 -22v-641q0 -151 150 -151h168zM554 1192q-13 0 -20.5 5t-7.5 15q0 4 4 14l120 252 q6 13 14 18.5t20 5.5h114q13 0 20.5 -5t7.5 -15q0 -4 -4 -14l-120 -252q-6 -13 -14 -18.5t-20 -5.5h-114z" glyph-name="iacute" unicode="í" vert-adv-y="1980"/>
<glyph d="M1041 168q14 0 22 -8t8 -22v-108q0 -13 -8 -21.5t-22 -8.5h-237q-135 0 -207 75.5t-72 213.5v533h-331q-13 0 -21.5 8.5t-8.5 21.5v108q0 14 8.5 22t21.5 8h499q14 0 22 -8t8 -22v-641q0 -151 150 -151h168zM511 1193q-24 0 -36 16l-222 257q-9 11 -9 19t7 12.5t19 4.5 h141q21 0 36 -16l158 -177l158 177q15 16 36 16h141q12 0 19 -4.5t7 -12.5t-9 -19l-222 -257q-12 -16 -36 -16h-188z" glyph-name="uni01D0" unicode="ǐ" vert-adv-y="1980"/>
<glyph d="M1041 168q14 0 22 -8t8 -22v-108q0 -13 -8 -21.5t-22 -8.5h-237q-135 0 -207 75.5t-72 213.5v533h-331q-13 0 -21.5 8.5t-8.5 21.5v108q0 14 8.5 22t21.5 8h499q14 0 22 -8t8 -22v-641q0 -151 150 -151h168zM270 1193q-12 0 -19 4.5t-7 12.5q0 9 9 19l222 257 q12 16 36 16h188q24 0 36 -16l222 -257q9 -10 9 -19q0 -8 -7 -12.5t-19 -4.5h-141q-21 0 -36 16l-158 178l-158 -178q-15 -16 -36 -16h-141z" glyph-name="icircumflex" unicode="î" vert-adv-y="1980"/>
<glyph d="M1041 168q14 0 22 -8t8 -22v-108q0 -13 -8 -21.5t-22 -8.5h-237q-135 0 -207 75.5t-72 213.5v533h-331q-13 0 -21.5 8.5t-8.5 21.5v108q0 14 8.5 22t21.5 8h499q14 0 22 -8t8 -22v-641q0 -151 150 -151h168zM333 1319.5q-32 31.5 -32 76.5q0 43 32 74.5t76 31.5 t75.5 -31.5t31.5 -74.5q0 -45 -31.5 -76.5t-75.5 -31.5t-76 31.5zM727 1319.5q-32 31.5 -32 76.5q0 43 32 74.5t76 31.5t75.5 -31.5t31.5 -74.5q0 -45 -31.5 -76.5t-75.5 -31.5t-76 31.5z" glyph-name="idieresis" unicode="ï" vert-adv-y="1980"/>
<glyph d="M1041 168q14 0 22 -8t8 -22v-108q0 -13 -8 -21.5t-22 -8.5h-237q-135 0 -207 75.5t-72 213.5v533h-331q-13 0 -21.5 8.5t-8.5 21.5v108q0 14 8.5 22t21.5 8h499q14 0 22 -8t8 -22v-641q0 -151 150 -151h168zM529.5 1319.5q-31.5 31.5 -31.5 76.5q0 43 31.5 74.5 t75.5 31.5t75.5 -31.5t31.5 -74.5q0 -45 -31.5 -76.5t-75.5 -31.5t-75.5 31.5z" glyph-name="i.loclTRK" vert-adv-y="1980"/>
<glyph d="M1041 168q14 0 22 -8t8 -22v-108q0 -13 -8 -21.5t-22 -8.5h-237q-135 0 -207 75.5t-72 213.5v533h-331q-13 0 -21.5 8.5t-8.5 21.5v108q0 14 8.5 22t21.5 8h499q14 0 22 -8t8 -22v-641q0 -151 150 -151h168zM542 1192q-12 0 -20 5.5t-14 18.5l-120 252q-4 10 -4 14 q0 10 7.5 15t20.5 5h114q12 0 20 -5.5t14 -18.5l120 -252q4 -10 4 -14q0 -10 -7.5 -15t-20.5 -5h-114z" glyph-name="igrave" unicode="ì" vert-adv-y="1980"/>
<glyph d="M952.5 1266q-30.5 18 -48.5 49t-18 68t18 67.5t48.5 48.5t67.5 18t68 -18t49 -48.5t18 -67.5t-18 -68t-49 -49t-68 -18t-67.5 18zM158 1256q-31 18 -49 49t-18 68t18 67.5t49 48.5t68 18t67.5 -18t48.5 -48.5t18 -67.5t-18 -68t-48.5 -49t-67.5 -18t-68 18zM156 9 q-13 0 -21.5 8.5t-8.5 21.5v930q0 14 8.5 22t21.5 8h138q14 0 22 -8t8 -22v-930q0 -13 -8 -21.5t-22 -8.5h-138zM538.5 -358.5q-77.5 26.5 -122.5 63t-45 62.5q0 7 3 12l57 92q7 13 22 13q11 0 23 -9q49 -33 98.5 -54t123.5 -21q103 0 174.5 59.5t71.5 203.5v759h-458 q-13 0 -21.5 8.5t-8.5 21.5v108q0 14 8.5 22t21.5 8h626q14 0 22 -8t8 -22v-916q0 -159 -65.5 -255t-163 -135t-202.5 -39q-95 0 -172.5 26.5z" glyph-name="ij" unicode="ĳ" vert-adv-y="1980"/>
<glyph d="M1041 168q14 0 22 -8t8 -22v-108q0 -13 -8 -21.5t-22 -8.5h-237q-135 0 -207 75.5t-72 213.5v533h-331q-13 0 -21.5 8.5t-8.5 21.5v108q0 14 8.5 22t21.5 8h499q14 0 22 -8t8 -22v-641q0 -151 150 -151h168zM347 1344q-13 0 -21.5 8.5t-8.5 21.5v98q0 14 8.5 22t21.5 8 h516q14 0 22 -8t8 -22v-98q0 -13 -8 -21.5t-22 -8.5h-516z" glyph-name="imacron" unicode="ī" vert-adv-y="1980"/>
<glyph d="M529.5 1319.5q-31.5 31.5 -31.5 76.5q0 43 31.5 74.5t75.5 31.5t75.5 -31.5t31.5 -74.5q0 -45 -31.5 -76.5t-75.5 -31.5t-75.5 31.5zM1041 168q14 0 22 -8t8 -22v-108q0 -13 -8 -21.5t-22 -8.5h-231q-202 0 -202 -126q0 -57 41.5 -86.5t120.5 -29.5h29q20 0 20 -20v-89 q0 -20 -20 -20h-57q-67 0 -131 19t-108.5 68t-44.5 133q0 152 158 209q-91 74 -91 231v533h-331q-13 0 -21.5 8.5t-8.5 21.5v108q0 14 8.5 22t21.5 8h499q14 0 22 -8t8 -22v-641q0 -151 150 -151h168z" glyph-name="iogonek" unicode="į" vert-adv-y="1980"/>
<glyph d="M728.5 1266q-30.5 18 -48.5 49t-18 68t18 67.5t48.5 48.5t67.5 18t68 -18t49 -48.5t18 -67.5t-18 -68t-49 -49t-68 -18t-67.5 18zM314.5 -358.5q-77.5 26.5 -122.5 63t-45 62.5q0 7 3 12l57 92q7 13 22 13q11 0 23 -9q47 -32 97.5 -53.5t124.5 -21.5q103 0 174.5 59.5 t71.5 203.5v759h-459q-13 0 -21.5 8.5t-8.5 21.5v108q0 14 8.5 22t21.5 8h627q14 0 22 -8t8 -22v-916q0 -159 -65.5 -255t-163 -135t-202.5 -39q-95 0 -172.5 26.5z" glyph-name="j" unicode="j" vert-adv-y="1980"/>
<glyph d="M314.5 -358.5q-77.5 26.5 -122.5 63t-45 62.5q0 7 3 12l57 92q7 13 22 13q11 0 23 -9q47 -32 97.5 -53.5t124.5 -21.5q103 0 174.5 59.5t71.5 203.5v759h-459q-13 0 -21.5 8.5t-8.5 21.5v108q0 14 8.5 22t21.5 8h627q14 0 22 -8t8 -22v-916q0 -159 -65.5 -255t-163 -135 t-202.5 -39q-95 0 -172.5 26.5z" glyph-name="uni0237" unicode="ȷ" vert-adv-y="1980"/>
<glyph d="M1103 36q8 -11 8 -18q0 -8 -7 -13t-19 -5h-164q-12 0 -20 4t-16 14l-333 404l-175 -188v-204q0 -13 -8 -21.5t-22 -8.5h-138q-13 0 -21.5 8.5t-8.5 21.5v1340q0 14 8.5 22t21.5 8h138q14 0 22 -8t8 -22v-888l447 492q16 16 37 16h174q12 0 19 -4.5t7 -11.5q0 -10 -10 -20 l-374 -399z" glyph-name="k" unicode="k" vert-adv-y="1980"/>
<glyph d="M1103 36q8 -11 8 -18q0 -8 -7 -13t-19 -5h-164q-12 0 -20 4t-16 14l-333 404l-175 -188v-204q0 -13 -8 -21.5t-22 -8.5h-138q-13 0 -21.5 8.5t-8.5 21.5v1340q0 14 8.5 22t21.5 8h138q14 0 22 -8t8 -22v-888l447 492q16 16 37 16h174q12 0 19 -4.5t7 -11.5q0 -10 -10 -20 l-374 -399zM800 -165q12 0 20 -7.5t8 -20.5v-58q0 -122 -7.5 -233t-20.5 -185q-4 -22 -32 -22h-99q-29 0 -27 30q11 172 11 291v43h-231q-13 0 -20.5 7.5t-7.5 20.5v106q0 13 7.5 20.5t20.5 7.5h378z" glyph-name="uni0137" unicode="ķ" vert-adv-y="1980"/>
<glyph d="M816 0q-92 0 -159.5 38.5t-103.5 108t-36 162.5v923h-356q-13 0 -21.5 8.5t-8.5 21.5v108q0 14 8.5 22t21.5 8h524q14 0 22 -8t8 -22v-1035q0 -75 45.5 -121t120.5 -46h183q14 0 22 -8t8 -22v-108q0 -13 -8 -21.5t-22 -8.5h-248z" glyph-name="l" unicode="l" vert-adv-y="1980"/>
<glyph d="M816 0q-92 0 -159.5 38.5t-103.5 108t-36 162.5v923h-356q-13 0 -21.5 8.5t-8.5 21.5v108q0 14 8.5 22t21.5 8h524q14 0 22 -8t8 -22v-1035q0 -75 45.5 -121t120.5 -46h183q14 0 22 -8t8 -22v-108q0 -13 -8 -21.5t-22 -8.5h-248zM564 1610q-13 0 -20.5 5t-7.5 15 q0 4 4 14l120 252q6 13 14 18.5t20 5.5h114q13 0 20.5 -5t7.5 -15q0 -4 -4 -14l-120 -252q-6 -13 -14 -18.5t-20 -5.5h-114z" glyph-name="lacute" unicode="ĺ" vert-adv-y="1980"/>
<glyph d="M1130 1405q12 0 19 -8t7 -22v-63q0 -134 -7 -252t-19 -195q-3 -24 -29 -24h-93q-27 0 -25 32l1 21q9 182 9 291v46h-216q-12 0 -19 8t-7 22v114q0 14 7 22t19 8h353zM745 0q-92 0 -159.5 38.5t-103.5 108t-36 162.5v923h-356q-13 0 -21.5 8.5t-8.5 21.5v108q0 14 8.5 22 t21.5 8h524q14 0 22 -8t8 -22v-1035q0 -75 45.5 -121t120.5 -46h183q14 0 22 -8t8 -22v-108q0 -13 -8 -21.5t-22 -8.5h-248z" glyph-name="lcaron" unicode="ľ" vert-adv-y="1980"/>
<glyph d="M816 0q-92 0 -159.5 38.5t-103.5 108t-36 162.5v923h-356q-13 0 -21.5 8.5t-8.5 21.5v108q0 14 8.5 22t21.5 8h524q14 0 22 -8t8 -22v-1035q0 -75 45.5 -121t120.5 -46h183q14 0 22 -8t8 -22v-108q0 -13 -8 -21.5t-22 -8.5h-248zM800 -165q12 0 20 -7.5t8 -20.5v-58 q0 -122 -7.5 -233t-20.5 -185q-4 -22 -32 -22h-99q-29 0 -27 30q11 172 11 291v43h-231q-13 0 -20.5 7.5t-7.5 20.5v106q0 13 7.5 20.5t20.5 7.5h378z" glyph-name="uni013C" unicode="ļ" vert-adv-y="1980"/>
<glyph d="M816 0q-92 0 -159.5 38.5t-103.5 108t-36 162.5v923h-356q-13 0 -21.5 8.5t-8.5 21.5v108q0 14 8.5 22t21.5 8h524q14 0 22 -8t8 -22v-1035q0 -75 45.5 -121t120.5 -46h183q14 0 22 -8t8 -22v-108q0 -13 -8 -21.5t-22 -8.5h-248zM894 676q-32 19 -51 51.5t-19 70.5 q0 39 18.5 71.5t51 51.5t71.5 19t71.5 -19t51 -51.5t18.5 -71.5q0 -38 -19 -70.5t-51 -51.5t-71 -19t-71 19z" glyph-name="ldot" unicode="ŀ" vert-adv-y="1980"/>
<glyph d="M1080 168q14 0 22 -8t8 -22v-108q0 -13 -8 -21.5t-22 -8.5h-247q-92 0 -159.5 38.5t-104 108t-36.5 162.5v234l-170 -163v184l170 162v506h-356q-13 0 -21.5 8.5t-8.5 21.5v108q0 14 8.5 22t21.5 8h524q14 0 22 -8t8 -22v-455l177 169l1 -182l-178 -170v-397 q0 -75 45.5 -121t121.5 -46h182z" glyph-name="lslash" unicode="ł" vert-adv-y="1980"/>
<glyph d="M133 0q-13 0 -21.5 8.5t-8.5 21.5v930q0 14 8.5 22t21.5 8h117q13 0 21 -8t9 -22l5 -99h14q42 149 196 149q73 0 120.5 -36t73.5 -113h11q48 149 203 149q109 0 166.5 -74.5t57.5 -227.5v-678q0 -13 -8 -21.5t-22 -8.5h-123q-13 0 -21.5 8.5t-8.5 21.5v650 q0 71 -31.5 109.5t-90.5 38.5t-90.5 -38.5t-31.5 -109.5v-650q0 -13 -8 -21.5t-22 -8.5h-110q-13 0 -21.5 8.5t-8.5 21.5v650q0 71 -31.5 109.5t-90.5 38.5t-90.5 -38.5t-31.5 -109.5v-650q0 -13 -8 -21.5t-22 -8.5h-123z" glyph-name="m" unicode="m" vert-adv-y="1980"/>
<glyph d="M890.5 961.5q83.5 -48.5 131 -141t47.5 -220.5v-570q0 -13 -8 -21.5t-22 -8.5h-138q-13 0 -21.5 8.5t-8.5 21.5v533q0 79 -30.5 138.5t-87.5 92.5t-136 33t-137.5 -33t-89.5 -92.5t-31 -138.5v-533q0 -13 -8 -21.5t-22 -8.5h-138q-13 0 -21.5 8.5t-8.5 21.5v930 q0 14 8.5 22t21.5 8h130q13 0 21 -8t9 -22l8 -142h25q38 87 120.5 139.5t194.5 52.5q108 0 191.5 -48.5z" glyph-name="n" unicode="n" vert-adv-y="1980"/>
<glyph d="M890.5 961.5q83.5 -48.5 131 -141t47.5 -220.5v-570q0 -13 -8 -21.5t-22 -8.5h-138q-13 0 -21.5 8.5t-8.5 21.5v533q0 79 -30.5 138.5t-87.5 92.5t-136 33t-137.5 -33t-89.5 -92.5t-31 -138.5v-533q0 -13 -8 -21.5t-22 -8.5h-138q-13 0 -21.5 8.5t-8.5 21.5v930 q0 14 8.5 22t21.5 8h130q13 0 21 -8t9 -22l8 -142h25q38 87 120.5 139.5t194.5 52.5q108 0 191.5 -48.5zM564 1192q-13 0 -20.5 5t-7.5 15q0 4 4 14l120 252q6 13 14 18.5t20 5.5h114q13 0 20.5 -5t7.5 -15q0 -4 -4 -14l-120 -252q-6 -13 -14 -18.5t-20 -5.5h-114z" glyph-name="nacute" unicode="ń" vert-adv-y="1980"/>
<glyph d="M890.5 961.5q83.5 -48.5 131 -141t47.5 -220.5v-570q0 -13 -8 -21.5t-22 -8.5h-138q-13 0 -21.5 8.5t-8.5 21.5v533q0 79 -30.5 138.5t-87.5 92.5t-136 33t-137.5 -33t-89.5 -92.5t-31 -138.5v-533q0 -13 -8 -21.5t-22 -8.5h-138q-13 0 -21.5 8.5t-8.5 21.5v930 q0 14 8.5 22t21.5 8h130q13 0 21 -8t9 -22l8 -142h25q38 87 120.5 139.5t194.5 52.5q108 0 191.5 -48.5zM521 1193q-24 0 -36 16l-222 257q-9 11 -9 19t7 12.5t19 4.5h141q21 0 36 -16l158 -177l158 177q15 16 36 16h141q12 0 19 -4.5t7 -12.5t-9 -19l-222 -257 q-12 -16 -36 -16h-188z" glyph-name="ncaron" unicode="ň" vert-adv-y="1980"/>
<glyph d="M890.5 961.5q83.5 -48.5 131 -141t47.5 -220.5v-570q0 -13 -8 -21.5t-22 -8.5h-138q-13 0 -21.5 8.5t-8.5 21.5v533q0 79 -30.5 138.5t-87.5 92.5t-136 33t-137.5 -33t-89.5 -92.5t-31 -138.5v-533q0 -13 -8 -21.5t-22 -8.5h-138q-13 0 -21.5 8.5t-8.5 21.5v930 q0 14 8.5 22t21.5 8h130q13 0 21 -8t9 -22l8 -142h25q38 87 120.5 139.5t194.5 52.5q108 0 191.5 -48.5zM800 -165q12 0 20 -7.5t8 -20.5v-58q0 -122 -7.5 -233t-20.5 -185q-4 -22 -32 -22h-99q-29 0 -27 30q11 172 11 291v43h-231q-13 0 -20.5 7.5t-7.5 20.5v106 q0 13 7.5 20.5t20.5 7.5h378z" glyph-name="uni0146" unicode="ņ" vert-adv-y="1980"/>
<glyph d="M890.5 961.5q83.5 -48.5 131 -141t47.5 -220.5v-586q0 -201 -94.5 -305.5t-260.5 -104.5q-16 0 -23 17l-42 142q-1 2 -1 6q0 7 4.5 11.5t12.5 4.5q97 0 151.5 64.5t54.5 190.5v523q0 79 -30.5 138.5t-87.5 92.5t-136 33t-137.5 -33t-89.5 -92.5t-31 -138.5v-533 q0 -13 -8 -21.5t-22 -8.5h-138q-13 0 -21.5 8.5t-8.5 21.5v930q0 14 8.5 22t21.5 8h130q13 0 21 -8t9 -22l8 -142h25q38 87 120.5 139.5t194.5 52.5q108 0 191.5 -48.5z" glyph-name="eng" unicode="ŋ" vert-adv-y="1980"/>
<glyph d="M890.5 961.5q83.5 -48.5 131 -141t47.5 -220.5v-570q0 -13 -8 -21.5t-22 -8.5h-138q-13 0 -21.5 8.5t-8.5 21.5v533q0 79 -30.5 138.5t-87.5 92.5t-136 33t-137.5 -33t-89.5 -92.5t-31 -138.5v-533q0 -13 -8 -21.5t-22 -8.5h-138q-13 0 -21.5 8.5t-8.5 21.5v930 q0 14 8.5 22t21.5 8h130q13 0 21 -8t9 -22l8 -142h25q38 87 120.5 139.5t194.5 52.5q108 0 191.5 -48.5zM675 1258.5q-40 21.5 -87 62.5q-37 31 -62.5 46t-57.5 15q-35 0 -58.5 -18t-32.5 -43q-6 -18 -23 -18h-79q-9 0 -14.5 7t-4.5 19q2 58 30 98t73 60.5t98 20.5 q42 0 75 -11.5t56.5 -28t55.5 -43.5q36 -31 61.5 -46t57.5 -15q35 0 58.5 18t32.5 42q6 18 23 18h78q10 0 16 -5.5t5 -14.5q-2 -60 -30.5 -101.5t-74 -62.5t-97.5 -21q-59 0 -99 21.5z" glyph-name="ntilde" unicode="ñ" vert-adv-y="1980"/>
<glyph d="M355.5 42.5q-115.5 67.5 -180.5 186t-65 264.5t65 264t180.5 185.5t259.5 67.5t259.5 -67.5t180.5 -185.5t65 -264t-65 -264.5t-180.5 -186t-259.5 -67.5t-259.5 67.5zM776 200.5q71 42.5 111 118.5t40 174t-40 174t-111 118t-161 42t-161 -42t-111 -118t-40 -174 t40 -174t111 -118.5t161 -42.5t161 42.5z" glyph-name="o" unicode="o" vert-adv-y="1980"/>
<glyph d="M355.5 42.5q-115.5 67.5 -180.5 186t-65 264.5t65 264t180.5 185.5t259.5 67.5t259.5 -67.5t180.5 -185.5t65 -264t-65 -264.5t-180.5 -186t-259.5 -67.5t-259.5 67.5zM776 200.5q71 42.5 111 118.5t40 174t-40 174t-111 118t-161 42t-161 -42t-111 -118t-40 -174 t40 -174t111 -118.5t161 -42.5t161 42.5zM564 1192q-13 0 -20.5 5t-7.5 15q0 4 4 14l120 252q6 13 14 18.5t20 5.5h114q13 0 20.5 -5t7.5 -15q0 -4 -4 -14l-120 -252q-6 -13 -14 -18.5t-20 -5.5h-114z" glyph-name="oacute" unicode="ó" vert-adv-y="1980"/>
<glyph d="M355.5 42.5q-115.5 67.5 -180.5 186t-65 264.5t65 264t180.5 185.5t259.5 67.5t259.5 -67.5t180.5 -185.5t65 -264t-65 -264.5t-180.5 -186t-259.5 -67.5t-259.5 67.5zM776 200.5q71 42.5 111 118.5t40 174t-40 174t-111 118t-161 42t-161 -42t-111 -118t-40 -174 t40 -174t111 -118.5t161 -42.5t161 42.5zM521 1193q-24 0 -36 16l-222 257q-9 11 -9 19t7 12.5t19 4.5h141q21 0 36 -16l158 -177l158 177q15 16 36 16h141q12 0 19 -4.5t7 -12.5t-9 -19l-222 -257q-12 -16 -36 -16h-188z" glyph-name="uni01D2" unicode="ǒ" vert-adv-y="1980"/>
<glyph d="M355.5 42.5q-115.5 67.5 -180.5 186t-65 264.5t65 264t180.5 185.5t259.5 67.5t259.5 -67.5t180.5 -185.5t65 -264t-65 -264.5t-180.5 -186t-259.5 -67.5t-259.5 67.5zM776 200.5q71 42.5 111 118.5t40 174t-40 174t-111 118t-161 42t-161 -42t-111 -118t-40 -174 t40 -174t111 -118.5t161 -42.5t161 42.5zM280 1193q-12 0 -19 4.5t-7 12.5q0 9 9 19l222 257q12 16 36 16h188q24 0 36 -16l222 -257q9 -10 9 -19q0 -8 -7 -12.5t-19 -4.5h-141q-21 0 -36 16l-158 178l-158 -178q-15 -16 -36 -16h-141z" glyph-name="ocircumflex" unicode="ô" vert-adv-y="1980"/>
<glyph d="M355.5 42.5q-115.5 67.5 -180.5 186t-65 264.5t65 264t180.5 185.5t259.5 67.5t259.5 -67.5t180.5 -185.5t65 -264t-65 -264.5t-180.5 -186t-259.5 -67.5t-259.5 67.5zM776 200.5q71 42.5 111 118.5t40 174t-40 174t-111 118t-161 42t-161 -42t-111 -118t-40 -174 t40 -174t111 -118.5t161 -42.5t161 42.5zM343 1319.5q-32 31.5 -32 76.5q0 43 32 74.5t76 31.5t75.5 -31.5t31.5 -74.5q0 -45 -31.5 -76.5t-75.5 -31.5t-76 31.5zM737 1319.5q-32 31.5 -32 76.5q0 43 32 74.5t76 31.5t75.5 -31.5t31.5 -74.5q0 -45 -31.5 -76.5t-75.5 -31.5 t-76 31.5z" glyph-name="odieresis" unicode="ö" vert-adv-y="1980"/>
<glyph d="M355.5 42.5q-115.5 67.5 -180.5 186t-65 264.5t65 264t180.5 185.5t259.5 67.5t259.5 -67.5t180.5 -185.5t65 -264t-65 -264.5t-180.5 -186t-259.5 -67.5t-259.5 67.5zM776 200.5q71 42.5 111 118.5t40 174t-40 174t-111 118t-161 42t-161 -42t-111 -118t-40 -174 t40 -174t111 -118.5t161 -42.5t161 42.5zM552 1192q-12 0 -20 5.5t-14 18.5l-120 252q-4 10 -4 14q0 10 7.5 15t20.5 5h114q12 0 20 -5.5t14 -18.5l120 -252q4 -10 4 -14q0 -10 -7.5 -15t-20.5 -5h-114z" glyph-name="ograve" unicode="ò" vert-adv-y="1980"/>
<glyph d="M355.5 42.5q-115.5 67.5 -180.5 186t-65 264.5t65 264t180.5 185.5t259.5 67.5t259.5 -67.5t180.5 -185.5t65 -264t-65 -264.5t-180.5 -186t-259.5 -67.5t-259.5 67.5zM776 200.5q71 42.5 111 118.5t40 174t-40 174t-111 118t-161 42t-161 -42t-111 -118t-40 -174 t40 -174t111 -118.5t161 -42.5t161 42.5zM707 1192q-13 0 -20.5 5t-7.5 15q0 4 4 14l120 252q6 13 14 18.5t20 5.5h114q13 0 20.5 -5t7.5 -15q0 -4 -4 -14l-120 -252q-6 -13 -14 -18.5t-20 -5.5h-114zM385 1192q-13 0 -20.5 5t-7.5 15q0 4 4 14l120 252q6 13 14 18.5t20 5.5 h114q13 0 20.5 -5t7.5 -15q0 -4 -4 -14l-120 -252q-6 -13 -14 -18.5t-20 -5.5h-114z" glyph-name="ohungarumlaut" unicode="ő" vert-adv-y="1980"/>
<glyph d="M355.5 42.5q-115.5 67.5 -180.5 186t-65 264.5t65 264t180.5 185.5t259.5 67.5t259.5 -67.5t180.5 -185.5t65 -264t-65 -264.5t-180.5 -186t-259.5 -67.5t-259.5 67.5zM776 200.5q71 42.5 111 118.5t40 174t-40 174t-111 118t-161 42t-161 -42t-111 -118t-40 -174 t40 -174t111 -118.5t161 -42.5t161 42.5zM357 1344q-13 0 -21.5 8.5t-8.5 21.5v98q0 14 8.5 22t21.5 8h516q14 0 22 -8t8 -22v-98q0 -13 -8 -21.5t-22 -8.5h-516z" glyph-name="omacron" unicode="ō" vert-adv-y="1980"/>
<glyph d="M755 -8q-95 -22 -136.5 -51.5t-41.5 -86.5q0 -112 158 -112h33q20 0 20 -20v-89q0 -20 -20 -20h-57q-67 0 -131 18.5t-108.5 65.5t-44.5 127q0 112 96 159q-121 20 -215 91t-146 180t-52 239q0 146 65 264t180.5 185.5t259.5 67.5t259.5 -67.5t180.5 -185.5t65 -264 q0 -121 -45.5 -224.5t-128.5 -175t-191 -100.5v-1zM343 319q40 -76 111 -118.5t161 -42.5t161 42.5t111 118.5t40 174t-40 174t-111 118t-161 42t-161 -42t-111 -118t-40 -174t40 -174z" glyph-name="uni01EB" unicode="ǫ" vert-adv-y="1980"/>
<glyph d="M900 927q103 -69 161.5 -182.5t58.5 -251.5q0 -146 -65 -264.5t-180.5 -186t-259.5 -67.5q-88 0 -166 26l-58 -119q-10 -22 -34 -22h-79q-12 0 -19 5.5t-7 14.5q0 8 4 16l78 160q-105 69 -164.5 183.5t-59.5 253.5q0 146 65 264t180.5 185.5t259.5 67.5q91 0 169 -27 l54 111q10 22 34 22h80q12 0 19 -5.5t7 -14.5q0 -8 -4 -16zM333 340.5q30 -68.5 84 -113.5l286 589q-44 11 -88 11q-90 0 -161 -42t-111 -118t-40 -174q0 -84 30 -152.5zM776 200.5q71 42.5 111 118.5t40 174q0 83 -29 150.5t-82 112.5l-286 -587q42 -11 85 -11 q90 0 161 42.5z" glyph-name="oslash" unicode="ø" vert-adv-y="1980"/>
<glyph d="M355.5 42.5q-115.5 67.5 -180.5 186t-65 264.5t65 264t180.5 185.5t259.5 67.5t259.5 -67.5t180.5 -185.5t65 -264t-65 -264.5t-180.5 -186t-259.5 -67.5t-259.5 67.5zM776 200.5q71 42.5 111 118.5t40 174t-40 174t-111 118t-161 42t-161 -42t-111 -118t-40 -174 t40 -174t111 -118.5t161 -42.5t161 42.5zM675 1258.5q-40 21.5 -87 62.5q-37 31 -62.5 46t-57.5 15q-35 0 -58.5 -18t-32.5 -43q-6 -18 -23 -18h-79q-9 0 -14.5 7t-4.5 19q2 58 30 98t73 60.5t98 20.5q42 0 75 -11.5t56.5 -28t55.5 -43.5q36 -31 61.5 -46t57.5 -15 q35 0 58.5 18t32.5 42q6 18 23 18h78q10 0 16 -5.5t5 -14.5q-2 -60 -30.5 -101.5t-74 -62.5t-97.5 -21q-59 0 -99 21.5z" glyph-name="otilde" unicode="õ" vert-adv-y="1980"/>
<glyph d="M1011.5 157q39.5 21 80.5 64l85 -99q-47 -71 -117 -109.5t-160 -38.5q-195 0 -275 187q-75 -187 -261 -187q-165 0 -244 139.5t-79 380.5t79 380t244 139q188 0 261 -188q79 188 265 188q162 0 230.5 -134.5t68.5 -356.5q0 -59 -12.5 -83.5t-50.5 -24.5h-424 q7 -134 56.5 -206t156.5 -72q57 0 96.5 21zM502 230.5q44 91.5 44 262.5t-44 262.5t-132 91.5t-131.5 -91t-43.5 -263t43.5 -263t131.5 -91t132 91.5zM702 553h335q2 140 -35.5 217t-125.5 77q-162 0 -174 -294z" glyph-name="oe" unicode="œ" vert-adv-y="1980"/>
<glyph d="M910 943.5q103 -66.5 158.5 -184t55.5 -266.5t-55.5 -266.5t-158.5 -184.5t-242 -67q-119 0 -200.5 48.5t-122.5 128.5h-23v-502q0 -14 -8 -22t-22 -8h-131q-13 0 -21.5 8t-8.5 22v1310q0 14 8.5 22t21.5 8h138q14 0 22 -8t8 -22v-122h16q41 77 122.5 124.5t200.5 47.5 q139 0 242 -66.5zM787 198.5q69 41.5 106.5 117.5t37.5 177t-37.5 176.5t-106.5 117t-162 41.5t-162.5 -41.5t-107 -117t-37.5 -176.5q0 -100 37.5 -176t107 -118t162.5 -42t162 41.5z" glyph-name="p" unicode="p" vert-adv-y="1980"/>
<glyph d="M1127 490q0 -147 -54.5 -264t-155 -184t-233.5 -67h-8h-8q-119 0 -200.5 48.5t-122.5 128.5h-23v-502q0 -14 -8 -22t-22 -8h-131q-13 0 -21.5 8t-8.5 22v1720q0 14 8.5 22t21.5 8h138q14 0 22 -8t8 -22v-503q46 62 125.5 102.5t193.5 40.5h10h10q145 0 251 -72.5 t159 -199.5q49 -112 49 -248zM795 204q65 42 100.5 116.5t35.5 172.5t-35 172.5t-100 115.5q-72 46 -170 46q-93 0 -162.5 -41t-107.5 -116.5t-38 -176.5v-1v-1q0 -38 6 -71v-1v-1v0q20 -121 100 -190.5t202 -69.5q98 0 169 46z" glyph-name="thorn" unicode="þ" vert-adv-y="1980"/>
<glyph d="M1069 990q14 0 22 -8t8 -22v-1310q0 -14 -8 -22t-22 -8h-131q-13 0 -21.5 8t-8.5 22v502h-23q-41 -80 -122.5 -128.5t-200.5 -48.5q-139 0 -242 67t-158.5 184.5t-55.5 266.5t55.5 266.5t158.5 184t242 66.5q119 0 200.5 -47.5t122.5 -124.5h16v122q0 14 8.5 22t21.5 8 h138zM767.5 199q69.5 42 107 118t37.5 176q0 101 -37.5 176.5t-107 117t-162.5 41.5t-162 -41.5t-106.5 -117t-37.5 -176.5t37.5 -177t106.5 -117.5t162 -41.5t162.5 42z" glyph-name="q" unicode="q" vert-adv-y="1980"/>
<glyph d="M934 967q81 -43 126 -120t45 -174q0 -59 -18 -84t-56 -25h-79q-18 0 -28 8.5t-10 25.5q-3 120 -70.5 174.5t-171.5 54.5q-89 0 -154 -38t-100.5 -110.5t-35.5 -175.5v-473q0 -13 -8 -21.5t-22 -8.5h-138q-13 0 -21.5 8.5t-8.5 21.5v930q0 14 8.5 22t21.5 8h130 q13 0 20.5 -8t9.5 -22l8 -164h27q40 100 129.5 157t210.5 57q104 0 185 -43z" glyph-name="r" unicode="r" vert-adv-y="1980"/>
<glyph d="M934 967q81 -43 126 -120t45 -174q0 -59 -18 -84t-56 -25h-79q-18 0 -28 8.5t-10 25.5q-3 120 -70.5 174.5t-171.5 54.5q-89 0 -154 -38t-100.5 -110.5t-35.5 -175.5v-473q0 -13 -8 -21.5t-22 -8.5h-138q-13 0 -21.5 8.5t-8.5 21.5v930q0 14 8.5 22t21.5 8h130 q13 0 20.5 -8t9.5 -22l8 -164h27q40 100 129.5 157t210.5 57q104 0 185 -43zM584 1192q-13 0 -20.5 5t-7.5 15q0 4 4 14l120 252q6 13 14 18.5t20 5.5h114q13 0 20.5 -5t7.5 -15q0 -4 -4 -14l-120 -252q-6 -13 -14 -18.5t-20 -5.5h-114z" glyph-name="racute" unicode="ŕ" vert-adv-y="1980"/>
<glyph d="M934 967q81 -43 126 -120t45 -174q0 -59 -18 -84t-56 -25h-79q-18 0 -28 8.5t-10 25.5q-3 120 -70.5 174.5t-171.5 54.5q-89 0 -154 -38t-100.5 -110.5t-35.5 -175.5v-473q0 -13 -8 -21.5t-22 -8.5h-138q-13 0 -21.5 8.5t-8.5 21.5v930q0 14 8.5 22t21.5 8h130 q13 0 20.5 -8t9.5 -22l8 -164h27q40 100 129.5 157t210.5 57q104 0 185 -43zM541 1193q-24 0 -36 16l-222 257q-9 11 -9 19t7 12.5t19 4.5h141q21 0 36 -16l158 -177l158 177q15 16 36 16h141q12 0 19 -4.5t7 -12.5t-9 -19l-222 -257q-12 -16 -36 -16h-188z" glyph-name="rcaron" unicode="ř" vert-adv-y="1980"/>
<glyph d="M934 967q81 -43 126 -120t45 -174q0 -59 -18 -84t-56 -25h-79q-18 0 -28 8.5t-10 25.5q-3 120 -70.5 174.5t-171.5 54.5q-89 0 -154 -38t-100.5 -110.5t-35.5 -175.5v-473q0 -13 -8 -21.5t-22 -8.5h-138q-13 0 -21.5 8.5t-8.5 21.5v930q0 14 8.5 22t21.5 8h130 q13 0 20.5 -8t9.5 -22l8 -164h27q40 100 129.5 157t210.5 57q104 0 185 -43zM428 -165q12 0 20 -7.5t8 -20.5v-58q0 -122 -7.5 -233t-20.5 -185q-4 -22 -32 -22h-99q-29 0 -27 30q11 172 11 291v43h-231q-13 0 -20.5 7.5t-7.5 20.5v106q0 13 7.5 20.5t20.5 7.5h378z" glyph-name="uni0157" unicode="ŗ" vert-adv-y="1980"/>
<glyph d="M854 528.5q89 -23.5 151.5 -83.5t62.5 -170q0 -141 -113.5 -220.5t-338.5 -79.5q-195 0 -317.5 63.5t-136.5 193.5q-1 15 6.5 22.5t21.5 7.5h133q24 0 30 -22q15 -54 83.5 -80.5t180.5 -26.5q258 0 258 141q0 48 -30.5 76t-87 42t-156.5 26q-128 16 -215.5 41.5t-146 86 t-58.5 167.5q0 139 108 218t321 79q184 0 303.5 -62.5t133.5 -191.5q1 -14 -7 -22t-22 -8h-132q-25 0 -30 22q-11 50 -80 77t-174 27q-228 0 -228 -136q0 -49 28 -77.5t82 -43.5t145 -26q136 -17 225 -40.5z" glyph-name="s" unicode="s" vert-adv-y="1980"/>
<glyph d="M854 528.5q89 -23.5 151.5 -83.5t62.5 -170q0 -141 -113.5 -220.5t-338.5 -79.5q-195 0 -317.5 63.5t-136.5 193.5q-1 15 6.5 22.5t21.5 7.5h133q24 0 30 -22q15 -54 83.5 -80.5t180.5 -26.5q258 0 258 141q0 48 -30.5 76t-87 42t-156.5 26q-128 16 -215.5 41.5t-146 86 t-58.5 167.5q0 139 108 218t321 79q184 0 303.5 -62.5t133.5 -191.5q1 -14 -7 -22t-22 -8h-132q-25 0 -30 22q-11 50 -80 77t-174 27q-228 0 -228 -136q0 -49 28 -77.5t82 -43.5t145 -26q136 -17 225 -40.5zM564 1192q-13 0 -20.5 5t-7.5 15q0 4 4 14l120 252q6 13 14 18.5 t20 5.5h114q13 0 20.5 -5t7.5 -15q0 -4 -4 -14l-120 -252q-6 -13 -14 -18.5t-20 -5.5h-114z" glyph-name="sacute" unicode="ś" vert-adv-y="1980"/>
<glyph d="M854 528.5q89 -23.5 151.5 -83.5t62.5 -170q0 -141 -113.5 -220.5t-338.5 -79.5q-195 0 -317.5 63.5t-136.5 193.5q-1 15 6.5 22.5t21.5 7.5h133q24 0 30 -22q15 -54 83.5 -80.5t180.5 -26.5q258 0 258 141q0 48 -30.5 76t-87 42t-156.5 26q-128 16 -215.5 41.5t-146 86 t-58.5 167.5q0 139 108 218t321 79q184 0 303.5 -62.5t133.5 -191.5q1 -14 -7 -22t-22 -8h-132q-25 0 -30 22q-11 50 -80 77t-174 27q-228 0 -228 -136q0 -49 28 -77.5t82 -43.5t145 -26q136 -17 225 -40.5zM521 1193q-24 0 -36 16l-222 257q-9 11 -9 19t7 12.5t19 4.5h141 q21 0 36 -16l158 -177l158 177q15 16 36 16h141q12 0 19 -4.5t7 -12.5t-9 -19l-222 -257q-12 -16 -36 -16h-188z" glyph-name="scaron" unicode="š" vert-adv-y="1980"/>
<glyph d="M969.5 65q-98.5 -78 -293.5 -88l-51 -50q70 -6 119 -48.5t49 -110.5q0 -101 -71 -151t-177 -50q-38 0 -74 6q-18 3 -18 22v71q0 9 6 15t16 5q25 -4 54 -4q56 0 87.5 20t31.5 55q0 27 -27.5 46t-68.5 19q-36 0 -75 -16q-4 -2 -10 -2q-14 0 -14 16v70q0 12 10 24l63 65 q-158 13 -255 76t-109 177q-1 15 6.5 22.5t21.5 7.5h133q24 0 30 -22q15 -54 83.5 -80.5t180.5 -26.5q258 0 258 141q0 48 -30.5 76t-87 42t-156.5 26q-128 16 -215.5 41.5t-146 86t-58.5 167.5q0 139 108 218t321 79q184 0 303.5 -62.5t133.5 -191.5q1 -14 -7 -22t-22 -8 h-132q-25 0 -30 22q-11 50 -80 77t-174 27q-228 0 -228 -136q0 -49 28 -77.5t82 -43.5t145 -26q136 -17 225 -40.5t151.5 -83.5t62.5 -170q0 -132 -98.5 -210z" glyph-name="scedilla" unicode="ş" vert-adv-y="1980"/>
<glyph d="M854 528.5q89 -23.5 151.5 -83.5t62.5 -170q0 -141 -113.5 -220.5t-338.5 -79.5q-195 0 -317.5 63.5t-136.5 193.5q-1 15 6.5 22.5t21.5 7.5h133q24 0 30 -22q15 -54 83.5 -80.5t180.5 -26.5q258 0 258 141q0 48 -30.5 76t-87 42t-156.5 26q-128 16 -215.5 41.5t-146 86 t-58.5 167.5q0 139 108 218t321 79q184 0 303.5 -62.5t133.5 -191.5q1 -14 -7 -22t-22 -8h-132q-25 0 -30 22q-11 50 -80 77t-174 27q-228 0 -228 -136q0 -49 28 -77.5t82 -43.5t145 -26q136 -17 225 -40.5zM800 -165q12 0 20 -7.5t8 -20.5v-58q0 -122 -7.5 -233t-20.5 -185 q-4 -22 -32 -22h-99q-29 0 -27 30q11 172 11 291v43h-231q-13 0 -20.5 7.5t-7.5 20.5v106q0 13 7.5 20.5t20.5 7.5h378z" glyph-name="uni0219" unicode="ș" vert-adv-y="1980"/>
<glyph d="M844 706q16 -23 40 -41t67 -46q65 -42 105.5 -76.5t70 -90t29.5 -134.5q0 -151 -114 -234.5t-335 -83.5h-129q-13 0 -21.5 8.5t-8.5 21.5v101q0 14 8.5 22t21.5 8h107q274 0 274 168q0 51 -23 89.5t-56.5 65.5t-88.5 61q-53 33 -84.5 58t-53 60t-21.5 82q0 43 16 72.5 t49 68.5q37 44 55.5 79t18.5 89q0 79 -47.5 123t-150.5 44q-111 0 -157 -53t-46 -159v-979q0 -13 -8 -21.5t-22 -8.5h-138q-13 0 -21.5 8.5t-8.5 21.5v747h-113q-13 0 -21.5 8.5t-8.5 21.5v103q0 14 8.5 22t21.5 8h113v81q0 181 102 280t300 99q123 0 212 -39t135.5 -111 t46.5 -170q0 -52 -12.5 -92t-30.5 -67t-45 -60t-39.5 -54.5t-12.5 -48.5q0 -29 16 -52z" glyph-name="germandbls" unicode="ß" vert-adv-y="1980"/>
<glyph d="M1109.5 1432.5q5.5 -6.5 5.5 -18.5v-105q0 -27 -25 -27q-3 0 -33 4q-91 13 -163 13q-90 0 -154 -19.5t-101.5 -72t-37.5 -147.5v-1030q0 -13 -8 -21.5t-22 -8.5h-138q-13 0 -21.5 8.5t-8.5 21.5v785h-258q-13 0 -21.5 8.5t-8.5 21.5v105q0 14 8.5 22t21.5 8h258v104 q0 213 127 300.5t323 87.5q70 0 138 -9t102 -20q11 -4 16.5 -10.5z" glyph-name="longs" unicode="ſ" vert-adv-y="1980"/>
<glyph d="M1121 190.5q9 -14.5 9 -27.5q0 -16 -14 -36q-19 -27 -65 -62.5t-119.5 -62.5t-164.5 -27q-93 0 -177 34.5t-140 120.5t-56 231v451h-276q-13 0 -21.5 8.5t-8.5 21.5v108q0 14 8.5 22t21.5 8h276v280q0 14 8.5 22t21.5 8h138q14 0 22 -8t8 -22v-280h456q14 0 22 -8t8 -22 v-108q0 -13 -8 -21.5t-22 -8.5h-456v-418q0 -133 59.5 -186t149.5 -53q74 0 124.5 25t88.5 60q18 15 30 15q18 0 48 -30q20 -20 29 -34.5z" glyph-name="t" unicode="t" vert-adv-y="1980"/>
<glyph d="M1121 190.5q9 -14.5 9 -27.5q0 -16 -14 -36q-19 -27 -65 -62.5t-119.5 -62.5t-164.5 -27q-93 0 -177 34.5t-140 120.5t-56 231v185h-276q-13 0 -21.5 8.5t-8.5 21.5v93q0 14 8.5 22t21.5 8h276v113h-276q-13 0 -21.5 8.5t-8.5 21.5v108q0 14 8.5 22t21.5 8h276v280 q0 14 8.5 22t21.5 8h138q14 0 22 -8t8 -22v-280h456q14 0 22 -8t8 -22v-108q0 -13 -8 -21.5t-22 -8.5h-456v-113h456q14 0 22 -8t8 -22v-93q0 -13 -8 -21.5t-22 -8.5h-456v-152q0 -133 59.5 -186t149.5 -53q74 0 124.5 25t88.5 60q18 15 30 15q18 0 48 -30q20 -20 29 -34.5z " glyph-name="tbar" unicode="ŧ" vert-adv-y="1980"/>
<glyph d="M1121 190.5q9 -14.5 9 -27.5q0 -16 -14 -36q-19 -27 -65 -62.5t-119.5 -62.5t-164.5 -27q-93 0 -177 34.5t-140 120.5t-56 231v451h-276q-13 0 -21.5 8.5t-8.5 21.5v108q0 14 8.5 22t21.5 8h276v280q0 14 8.5 22t21.5 8h138q14 0 22 -8t8 -22v-280h456q14 0 22 -8t8 -22 v-108q0 -13 -8 -21.5t-22 -8.5h-456v-418q0 -133 59.5 -186t149.5 -53q74 0 124.5 25t88.5 60q18 15 30 15q18 0 48 -30q20 -20 29 -34.5zM900 1336q-13 0 -20.5 5t-7.5 15q0 4 4 14l120 252q6 13 14 18.5t20 5.5h114q13 0 20.5 -5t7.5 -15q0 -4 -4 -14l-120 -252 q-6 -13 -14 -18.5t-20 -5.5h-114z" glyph-name="tcaron" unicode="ť" vert-adv-y="1980"/>
<glyph d="M1121 190.5q9 -14.5 9 -27.5q0 -16 -14 -36q-17 -23 -55 -54t-97.5 -58t-133.5 -36l-53 -52q70 -6 119 -48.5t49 -110.5q0 -101 -71 -151t-177 -50q-38 0 -74 6q-18 3 -18 22v71q0 9 6 15t16 5q25 -4 54 -4q56 0 87.5 20t31.5 55q0 27 -27.5 46t-68.5 19q-36 0 -75 -16 q-4 -2 -10 -2q-14 0 -14 16v70q0 12 10 24l67 68q-124 22 -206 111.5t-82 267.5v451h-276q-13 0 -21.5 8.5t-8.5 21.5v108q0 14 8.5 22t21.5 8h276v280q0 14 8.5 22t21.5 8h138q14 0 22 -8t8 -22v-280h456q14 0 22 -8t8 -22v-108q0 -13 -8 -21.5t-22 -8.5h-456v-418 q0 -133 59.5 -186t149.5 -53q74 0 124.5 25t88.5 60q18 15 30 15q18 0 48 -30q20 -20 29 -34.5z" glyph-name="uni0163" unicode="ţ" vert-adv-y="1980"/>
<glyph d="M1121 190.5q9 -14.5 9 -27.5q0 -16 -14 -36q-19 -27 -65 -62.5t-119.5 -62.5t-164.5 -27q-93 0 -177 34.5t-140 120.5t-56 231v451h-276q-13 0 -21.5 8.5t-8.5 21.5v108q0 14 8.5 22t21.5 8h276v280q0 14 8.5 22t21.5 8h138q14 0 22 -8t8 -22v-280h456q14 0 22 -8t8 -22 v-108q0 -13 -8 -21.5t-22 -8.5h-456v-418q0 -133 59.5 -186t149.5 -53q74 0 124.5 25t88.5 60q18 15 30 15q18 0 48 -30q20 -20 29 -34.5zM952 -165q12 0 20 -7.5t8 -20.5v-58q0 -122 -7.5 -233t-20.5 -185q-4 -22 -32 -22h-99q-29 0 -27 30q11 172 11 291v43h-231 q-13 0 -20.5 7.5t-7.5 20.5v106q0 13 7.5 20.5t20.5 7.5h378z" glyph-name="uni021B" unicode="ț" vert-adv-y="1980"/>
<glyph d="M1039 990q14 0 22 -8t8 -22v-930q0 -13 -8 -21.5t-22 -8.5h-130q-13 0 -21 8t-9 22l-8 142h-25q-38 -87 -120.5 -139.5t-194.5 -52.5q-108 0 -191.5 48.5t-131 141t-47.5 220.5v570q0 14 8.5 22t21.5 8h138q14 0 22 -8t8 -22v-533q0 -79 30.5 -138.5t87.5 -92.5t136 -33 t137.5 33t89.5 92.5t31 138.5v533q0 14 8.5 22t21.5 8h138z" glyph-name="u" unicode="u" vert-adv-y="1980"/>
<glyph d="M1039 990q14 0 22 -8t8 -22v-930q0 -13 -8 -21.5t-22 -8.5h-130q-13 0 -21 8t-9 22l-8 142h-25q-38 -87 -120.5 -139.5t-194.5 -52.5q-108 0 -191.5 48.5t-131 141t-47.5 220.5v570q0 14 8.5 22t21.5 8h138q14 0 22 -8t8 -22v-533q0 -79 30.5 -138.5t87.5 -92.5t136 -33 t137.5 33t89.5 92.5t31 138.5v533q0 14 8.5 22t21.5 8h138zM564 1192q-13 0 -20.5 5t-7.5 15q0 4 4 14l120 252q6 13 14 18.5t20 5.5h114q13 0 20.5 -5t7.5 -15q0 -4 -4 -14l-120 -252q-6 -13 -14 -18.5t-20 -5.5h-114z" glyph-name="uacute" unicode="ú" vert-adv-y="1980"/>
<glyph d="M1039 990q14 0 22 -8t8 -22v-930q0 -13 -8 -21.5t-22 -8.5h-130q-13 0 -21 8t-9 22l-8 142h-25q-38 -87 -120.5 -139.5t-194.5 -52.5q-108 0 -191.5 48.5t-131 141t-47.5 220.5v570q0 14 8.5 22t21.5 8h138q14 0 22 -8t8 -22v-533q0 -79 30.5 -138.5t87.5 -92.5t136 -33 t137.5 33t89.5 92.5t31 138.5v533q0 14 8.5 22t21.5 8h138zM462 1241q-66 35 -103.5 95t-45.5 136q-3 30 29 30h77q26 0 32 -28q12 -56 54.5 -92.5t109.5 -36.5t109.5 36.5t54.5 92.5q6 28 32 28h77q32 0 29 -30q-8 -76 -45.5 -136t-103.5 -95t-153 -35t-153 35z" glyph-name="ubreve" unicode="ŭ" vert-adv-y="1980"/>
<glyph d="M1039 990q14 0 22 -8t8 -22v-930q0 -13 -8 -21.5t-22 -8.5h-130q-13 0 -21 8t-9 22l-8 142h-25q-38 -87 -120.5 -139.5t-194.5 -52.5q-108 0 -191.5 48.5t-131 141t-47.5 220.5v570q0 14 8.5 22t21.5 8h138q14 0 22 -8t8 -22v-533q0 -79 30.5 -138.5t87.5 -92.5t136 -33 t137.5 33t89.5 92.5t31 138.5v533q0 14 8.5 22t21.5 8h138zM521 1193q-24 0 -36 16l-222 257q-9 11 -9 19t7 12.5t19 4.5h141q21 0 36 -16l158 -177l158 177q15 16 36 16h141q12 0 19 -4.5t7 -12.5t-9 -19l-222 -257q-12 -16 -36 -16h-188z" glyph-name="uni01D4" unicode="ǔ" vert-adv-y="1980"/>
<glyph d="M1039 990q14 0 22 -8t8 -22v-930q0 -13 -8 -21.5t-22 -8.5h-130q-13 0 -21 8t-9 22l-8 142h-25q-38 -87 -120.5 -139.5t-194.5 -52.5q-108 0 -191.5 48.5t-131 141t-47.5 220.5v570q0 14 8.5 22t21.5 8h138q14 0 22 -8t8 -22v-533q0 -79 30.5 -138.5t87.5 -92.5t136 -33 t137.5 33t89.5 92.5t31 138.5v533q0 14 8.5 22t21.5 8h138zM280 1193q-12 0 -19 4.5t-7 12.5q0 9 9 19l222 257q12 16 36 16h188q24 0 36 -16l222 -257q9 -10 9 -19q0 -8 -7 -12.5t-19 -4.5h-141q-21 0 -36 16l-158 178l-158 -178q-15 -16 -36 -16h-141z" glyph-name="ucircumflex" unicode="û" vert-adv-y="1980"/>
<glyph d="M1039 990q14 0 22 -8t8 -22v-930q0 -13 -8 -21.5t-22 -8.5h-130q-13 0 -21 8t-9 22l-8 142h-25q-38 -87 -120.5 -139.5t-194.5 -52.5q-108 0 -191.5 48.5t-131 141t-47.5 220.5v570q0 14 8.5 22t21.5 8h138q14 0 22 -8t8 -22v-533q0 -79 30.5 -138.5t87.5 -92.5t136 -33 t137.5 33t89.5 92.5t31 138.5v533q0 14 8.5 22t21.5 8h138zM343 1319.5q-32 31.5 -32 76.5q0 43 32 74.5t76 31.5t75.5 -31.5t31.5 -74.5q0 -45 -31.5 -76.5t-75.5 -31.5t-76 31.5zM737 1319.5q-32 31.5 -32 76.5q0 43 32 74.5t76 31.5t75.5 -31.5t31.5 -74.5 q0 -45 -31.5 -76.5t-75.5 -31.5t-76 31.5z" glyph-name="udieresis" unicode="ü" vert-adv-y="1980"/>
<glyph d="M1039 990q14 0 22 -8t8 -22v-930q0 -13 -8 -21.5t-22 -8.5h-130q-13 0 -21 8t-9 22l-8 142h-25q-38 -87 -120.5 -139.5t-194.5 -52.5q-108 0 -191.5 48.5t-131 141t-47.5 220.5v570q0 14 8.5 22t21.5 8h138q14 0 22 -8t8 -22v-533q0 -79 30.5 -138.5t87.5 -92.5t136 -33 t137.5 33t89.5 92.5t31 138.5v533q0 14 8.5 22t21.5 8h138zM552 1192q-12 0 -20 5.5t-14 18.5l-120 252q-4 10 -4 14q0 10 7.5 15t20.5 5h114q12 0 20 -5.5t14 -18.5l120 -252q4 -10 4 -14q0 -10 -7.5 -15t-20.5 -5h-114z" glyph-name="ugrave" unicode="ù" vert-adv-y="1980"/>
<glyph d="M1039 990q14 0 22 -8t8 -22v-930q0 -13 -8 -21.5t-22 -8.5h-130q-13 0 -21 8t-9 22l-8 142h-25q-38 -87 -120.5 -139.5t-194.5 -52.5q-108 0 -191.5 48.5t-131 141t-47.5 220.5v570q0 14 8.5 22t21.5 8h138q14 0 22 -8t8 -22v-533q0 -79 30.5 -138.5t87.5 -92.5t136 -33 t137.5 33t89.5 92.5t31 138.5v533q0 14 8.5 22t21.5 8h138zM707 1192q-13 0 -20.5 5t-7.5 15q0 4 4 14l120 252q6 13 14 18.5t20 5.5h114q13 0 20.5 -5t7.5 -15q0 -4 -4 -14l-120 -252q-6 -13 -14 -18.5t-20 -5.5h-114zM385 1192q-13 0 -20.5 5t-7.5 15q0 4 4 14l120 252 q6 13 14 18.5t20 5.5h114q13 0 20.5 -5t7.5 -15q0 -4 -4 -14l-120 -252q-6 -13 -14 -18.5t-20 -5.5h-114z" glyph-name="uhungarumlaut" unicode="ű" vert-adv-y="1980"/>
<glyph d="M1039 990q14 0 22 -8t8 -22v-930q0 -13 -8 -21.5t-22 -8.5h-130q-13 0 -21 8t-9 22l-8 142h-25q-38 -87 -120.5 -139.5t-194.5 -52.5q-108 0 -191.5 48.5t-131 141t-47.5 220.5v570q0 14 8.5 22t21.5 8h138q14 0 22 -8t8 -22v-533q0 -79 30.5 -138.5t87.5 -92.5t136 -33 t137.5 33t89.5 92.5t31 138.5v533q0 14 8.5 22t21.5 8h138zM357 1344q-13 0 -21.5 8.5t-8.5 21.5v98q0 14 8.5 22t21.5 8h516q14 0 22 -8t8 -22v-98q0 -13 -8 -21.5t-22 -8.5h-516z" glyph-name="umacron" unicode="ū" vert-adv-y="1980"/>
<glyph d="M1039 990q14 0 22 -8t8 -22v-930q0 -13 -7.5 -21t-20.5 -9q-202 0 -202 -126q0 -57 41.5 -86.5t120.5 -29.5h29q20 0 20 -20v-89q0 -20 -20 -20h-57q-67 0 -131 19t-108.5 68t-44.5 133q0 90 51.5 142.5t136.5 75.5l-6 105h-25q-38 -87 -120.5 -139.5t-194.5 -52.5 q-108 0 -191.5 48.5t-131 141t-47.5 220.5v570q0 14 8.5 22t21.5 8h138q14 0 22 -8t8 -22v-533q0 -79 30.5 -138.5t87.5 -92.5t136 -33t137.5 33t89.5 92.5t31 138.5v533q0 14 8.5 22t21.5 8h138z" glyph-name="uogonek" unicode="ų" vert-adv-y="1980"/>
<glyph d="M1039 990q14 0 22 -8t8 -22v-930q0 -13 -8 -21.5t-22 -8.5h-130q-13 0 -21 8t-9 22l-8 142h-25q-38 -87 -120.5 -139.5t-194.5 -52.5q-108 0 -191.5 48.5t-131 141t-47.5 220.5v570q0 14 8.5 22t21.5 8h138q14 0 22 -8t8 -22v-533q0 -79 30.5 -138.5t87.5 -92.5t136 -33 t137.5 33t89.5 92.5t31 138.5v533q0 14 8.5 22t21.5 8h138zM520 1158q-43 25 -67.5 67.5t-24.5 91.5q0 50 24.5 92.5t67.5 67.5t95 25q51 0 94 -25t67.5 -67.5t24.5 -92.5q0 -49 -24.5 -91.5t-67.5 -67.5t-94 -25q-52 0 -95 25zM664.5 1268.5q20.5 18.5 20.5 47.5 q0 31 -20 50.5t-50 19.5t-50.5 -19t-20.5 -49t20.5 -49t50.5 -19q29 0 49.5 18.5z" glyph-name="uring" unicode="ů" vert-adv-y="1980"/>
<glyph d="M917 966q11 24 36 24h139q13 0 20.5 -5t7.5 -15q0 -4 -4 -14l-391 -932q-10 -24 -36 -24h-148q-25 0 -36 24l-391 932q-4 10 -4 14q0 10 7.5 15t20.5 5h139q26 0 36 -24l302 -745z" glyph-name="v" unicode="v" vert-adv-y="1980"/>
<glyph d="M1135 990q26 0 26 -22l-2 -12l-187 -932q-2 -11 -12.5 -17.5t-23.5 -6.5h-144q-13 0 -23.5 6.5t-12.5 17.5l-141 667l-141 -667q-2 -11 -12.5 -17.5t-23.5 -6.5h-144q-13 0 -23.5 6.5t-12.5 17.5l-187 932l-2 12q0 22 26 22h120q13 0 24 -6.5t12 -17.5l125 -741l157 731 q3 11 13 17.5t23 6.5h92q13 0 23 -6.5t13 -17.5l157 -731l125 741q1 11 12 17.5t24 6.5h120z" glyph-name="w" unicode="w" vert-adv-y="1980"/>
<glyph d="M1135 990q26 0 26 -22l-2 -12l-187 -932q-2 -11 -12.5 -17.5t-23.5 -6.5h-144q-13 0 -23.5 6.5t-12.5 17.5l-141 667l-141 -667q-2 -11 -12.5 -17.5t-23.5 -6.5h-144q-13 0 -23.5 6.5t-12.5 17.5l-187 932l-2 12q0 22 26 22h120q13 0 24 -6.5t12 -17.5l125 -741l157 731 q3 11 13 17.5t23 6.5h92q13 0 23 -6.5t13 -17.5l157 -731l125 741q1 11 12 17.5t24 6.5h120zM563 1192q-13 0 -20.5 5t-7.5 15q0 4 4 14l120 252q6 13 14 18.5t20 5.5h114q13 0 20.5 -5t7.5 -15q0 -4 -4 -14l-120 -252q-6 -13 -14 -18.5t-20 -5.5h-114z" glyph-name="wacute" unicode="ẃ" vert-adv-y="1980"/>
<glyph d="M1135 990q26 0 26 -22l-2 -12l-187 -932q-2 -11 -12.5 -17.5t-23.5 -6.5h-144q-13 0 -23.5 6.5t-12.5 17.5l-141 667l-141 -667q-2 -11 -12.5 -17.5t-23.5 -6.5h-144q-13 0 -23.5 6.5t-12.5 17.5l-187 932l-2 12q0 22 26 22h120q13 0 24 -6.5t12 -17.5l125 -741l157 731 q3 11 13 17.5t23 6.5h92q13 0 23 -6.5t13 -17.5l157 -731l125 741q1 11 12 17.5t24 6.5h120zM279 1193q-12 0 -19 4.5t-7 12.5q0 9 9 19l222 257q12 16 36 16h188q24 0 36 -16l222 -257q9 -10 9 -19q0 -8 -7 -12.5t-19 -4.5h-141q-21 0 -36 16l-158 178l-158 -178 q-15 -16 -36 -16h-141z" glyph-name="wcircumflex" unicode="ŵ" vert-adv-y="1980"/>
<glyph d="M1135 990q26 0 26 -22l-2 -12l-187 -932q-2 -11 -12.5 -17.5t-23.5 -6.5h-144q-13 0 -23.5 6.5t-12.5 17.5l-141 667l-141 -667q-2 -11 -12.5 -17.5t-23.5 -6.5h-144q-13 0 -23.5 6.5t-12.5 17.5l-187 932l-2 12q0 22 26 22h120q13 0 24 -6.5t12 -17.5l125 -741l157 731 q3 11 13 17.5t23 6.5h92q13 0 23 -6.5t13 -17.5l157 -731l125 741q1 11 12 17.5t24 6.5h120zM342 1319.5q-32 31.5 -32 76.5q0 43 32 74.5t76 31.5t75.5 -31.5t31.5 -74.5q0 -45 -31.5 -76.5t-75.5 -31.5t-76 31.5zM736 1319.5q-32 31.5 -32 76.5q0 43 32 74.5t76 31.5 t75.5 -31.5t31.5 -74.5q0 -45 -31.5 -76.5t-75.5 -31.5t-76 31.5z" glyph-name="wdieresis" unicode="ẅ" vert-adv-y="1980"/>
<glyph d="M1135 990q26 0 26 -22l-2 -12l-187 -932q-2 -11 -12.5 -17.5t-23.5 -6.5h-144q-13 0 -23.5 6.5t-12.5 17.5l-141 667l-141 -667q-2 -11 -12.5 -17.5t-23.5 -6.5h-144q-13 0 -23.5 6.5t-12.5 17.5l-187 932l-2 12q0 22 26 22h120q13 0 24 -6.5t12 -17.5l125 -741l157 731 q3 11 13 17.5t23 6.5h92q13 0 23 -6.5t13 -17.5l157 -731l125 741q1 11 12 17.5t24 6.5h120zM551 1192q-12 0 -20 5.5t-14 18.5l-120 252q-4 10 -4 14q0 10 7.5 15t20.5 5h114q12 0 20 -5.5t14 -18.5l120 -252q4 -10 4 -14q0 -10 -7.5 -15t-20.5 -5h-114z" glyph-name="wgrave" unicode="ẁ" vert-adv-y="1980"/>
<glyph d="M1135 36q8 -10 8 -18t-7 -13t-19 -5h-166q-22 0 -36 17l-300 356l-301 -356q-13 -17 -36 -17h-166q-12 0 -18.5 4.5t-6.5 12.5q0 9 9 19l405 473l-379 445q-8 10 -8 18t7 13t19 5h164q22 0 36 -17l275 -328l275 328q13 17 36 17h163q13 0 20 -4.5t7 -12.5t-9 -19 l-376 -445z" glyph-name="x" unicode="x" vert-adv-y="1980"/>
<glyph d="M1092 990q13 0 20.5 -5t7.5 -15q0 -4 -4 -14l-546 -1312q-10 -24 -36 -24h-139q-13 0 -20.5 5t-7.5 15q0 4 4 14l145 344l-402 958q-4 10 -4 14q0 10 7.5 15t20.5 5h139q26 0 36 -24l302 -745l302 745q11 24 36 24h139z" glyph-name="y" unicode="y" vert-adv-y="1980"/>
<glyph d="M1092 990q13 0 20.5 -5t7.5 -15q0 -4 -4 -14l-546 -1312q-10 -24 -36 -24h-139q-13 0 -20.5 5t-7.5 15q0 4 4 14l145 344l-402 958q-4 10 -4 14q0 10 7.5 15t20.5 5h139q26 0 36 -24l302 -745l302 745q11 24 36 24h139zM564 1192q-13 0 -20.5 5t-7.5 15q0 4 4 14l120 252 q6 13 14 18.5t20 5.5h114q13 0 20.5 -5t7.5 -15q0 -4 -4 -14l-120 -252q-6 -13 -14 -18.5t-20 -5.5h-114z" glyph-name="yacute" unicode="ý" vert-adv-y="1980"/>
<glyph d="M1092 990q13 0 20.5 -5t7.5 -15q0 -4 -4 -14l-546 -1312q-10 -24 -36 -24h-139q-13 0 -20.5 5t-7.5 15q0 4 4 14l145 344l-402 958q-4 10 -4 14q0 10 7.5 15t20.5 5h139q26 0 36 -24l302 -745l302 745q11 24 36 24h139zM280 1193q-12 0 -19 4.5t-7 12.5q0 9 9 19l222 257 q12 16 36 16h188q24 0 36 -16l222 -257q9 -10 9 -19q0 -8 -7 -12.5t-19 -4.5h-141q-21 0 -36 16l-158 178l-158 -178q-15 -16 -36 -16h-141z" glyph-name="ycircumflex" unicode="ŷ" vert-adv-y="1980"/>
<glyph d="M1092 990q13 0 20.5 -5t7.5 -15q0 -4 -4 -14l-546 -1312q-10 -24 -36 -24h-139q-13 0 -20.5 5t-7.5 15q0 4 4 14l145 344l-402 958q-4 10 -4 14q0 10 7.5 15t20.5 5h139q26 0 36 -24l302 -745l302 745q11 24 36 24h139zM343 1319.5q-32 31.5 -32 76.5q0 43 32 74.5 t76 31.5t75.5 -31.5t31.5 -74.5q0 -45 -31.5 -76.5t-75.5 -31.5t-76 31.5zM737 1319.5q-32 31.5 -32 76.5q0 43 32 74.5t76 31.5t75.5 -31.5t31.5 -74.5q0 -45 -31.5 -76.5t-75.5 -31.5t-76 31.5z" glyph-name="ydieresis" unicode="ÿ" vert-adv-y="1980"/>
<glyph d="M1092 990q13 0 20.5 -5t7.5 -15q0 -4 -4 -14l-546 -1312q-10 -24 -36 -24h-139q-13 0 -20.5 5t-7.5 15q0 4 4 14l145 344l-402 958q-4 10 -4 14q0 10 7.5 15t20.5 5h139q26 0 36 -24l302 -745l302 745q11 24 36 24h139zM552 1192q-12 0 -20 5.5t-14 18.5l-120 252 q-4 10 -4 14q0 10 7.5 15t20.5 5h114q12 0 20 -5.5t14 -18.5l120 -252q4 -10 4 -14q0 -10 -7.5 -15t-20.5 -5h-114z" glyph-name="ygrave" unicode="ỳ" vert-adv-y="1980"/>
<glyph d="M1038 847q0 -21 -14 -38l-601 -644h590q14 0 22 -8t8 -22v-105q0 -13 -8 -21.5t-22 -8.5h-796q-13 0 -21.5 8.5t-8.5 21.5v113q0 21 14 38l601 644h-590q-13 0 -21.5 8.5t-8.5 21.5v105q0 14 8.5 22t21.5 8h796q14 0 22 -8t8 -22v-113z" glyph-name="z" unicode="z" vert-adv-y="1980"/>
<glyph d="M1038 847q0 -21 -14 -38l-601 -644h590q14 0 22 -8t8 -22v-105q0 -13 -8 -21.5t-22 -8.5h-796q-13 0 -21.5 8.5t-8.5 21.5v113q0 21 14 38l601 644h-590q-13 0 -21.5 8.5t-8.5 21.5v105q0 14 8.5 22t21.5 8h796q14 0 22 -8t8 -22v-113zM564 1192q-13 0 -20.5 5t-7.5 15 q0 4 4 14l120 252q6 13 14 18.5t20 5.5h114q13 0 20.5 -5t7.5 -15q0 -4 -4 -14l-120 -252q-6 -13 -14 -18.5t-20 -5.5h-114z" glyph-name="zacute" unicode="ź" vert-adv-y="1980"/>
<glyph d="M1038 847q0 -21 -14 -38l-601 -644h590q14 0 22 -8t8 -22v-105q0 -13 -8 -21.5t-22 -8.5h-796q-13 0 -21.5 8.5t-8.5 21.5v113q0 21 14 38l601 644h-590q-13 0 -21.5 8.5t-8.5 21.5v105q0 14 8.5 22t21.5 8h796q14 0 22 -8t8 -22v-113zM521 1193q-24 0 -36 16l-222 257 q-9 11 -9 19t7 12.5t19 4.5h141q21 0 36 -16l158 -177l158 177q15 16 36 16h141q12 0 19 -4.5t7 -12.5t-9 -19l-222 -257q-12 -16 -36 -16h-188z" glyph-name="zcaron" unicode="ž" vert-adv-y="1980"/>
<glyph d="M1038 847q0 -21 -14 -38l-601 -644h590q14 0 22 -8t8 -22v-105q0 -13 -8 -21.5t-22 -8.5h-796q-13 0 -21.5 8.5t-8.5 21.5v113q0 21 14 38l601 644h-590q-13 0 -21.5 8.5t-8.5 21.5v105q0 14 8.5 22t21.5 8h796q14 0 22 -8t8 -22v-113zM539.5 1319.5 q-31.5 31.5 -31.5 76.5q0 43 31.5 74.5t75.5 31.5t75.5 -31.5t31.5 -74.5q0 -45 -31.5 -76.5t-75.5 -31.5t-75.5 31.5z" glyph-name="zdotaccent" unicode="ż" vert-adv-y="1980"/>
<glyph d="M316.5 38q-90.5 63 -137.5 175.5t-47 259.5q0 154 56.5 275t177.5 191.5t305 70.5q103 0 214.5 -24t215.5 -78v-878q0 -13 -8 -21.5t-22 -8.5h-118q-26 0 -29 30l-24 166h-27q-38 -97 -126.5 -159t-214.5 -62q-125 0 -215.5 63zM770.5 193q68.5 37 106 107t37.5 168v310 q-115 51 -245 51q-181 0 -262.5 -94.5t-81.5 -252.5q0 -157 75 -241.5t212 -84.5q90 0 158.5 37z" glyph-name="a.ss01" vert-adv-y="1980"/>
<glyph d="M1115 990q14 0 22 -8t8 -22v-83q0 -28 -30 -28l-162 7q47 -46 67.5 -97.5t20.5 -116.5q0 -150 -93 -228t-291 -78h-239q-126 0 -126 -100q0 -51 35.5 -76t110.5 -25h387q147 0 214.5 -60t67.5 -181q0 -106 -49 -168.5t-157.5 -91t-293.5 -28.5q-189 0 -299.5 29 t-156.5 84.5t-46 139.5q0 78 37 128t109 70q-59 23 -89.5 62t-30.5 111q0 75 36 118t119 63q-135 64 -135 255q0 160 105 242t339 82h520zM758.5 496q57.5 16 82.5 54t25 107t-25 108t-83.5 56.5t-162.5 17.5q-103 0 -160.5 -17.5t-82 -56.5t-24.5 -108t24.5 -107t81.5 -54 t161 -16q106 0 163.5 16zM336 -13q-21 -14 -32.5 -35.5t-11.5 -59.5q0 -49 25 -78t93 -43.5t197 -14.5q123 0 192 13.5t98 42.5t29 79q0 51 -28.5 73.5t-100.5 22.5h-461z" glyph-name="g.ss02" vert-adv-y="1980"/>
<glyph d="M1115 990q14 0 22 -8t8 -22v-83q0 -28 -30 -28l-162 7q47 -46 67.5 -97.5t20.5 -116.5q0 -150 -93 -228t-291 -78h-239q-126 0 -126 -100q0 -51 35.5 -76t110.5 -25h387q147 0 214.5 -60t67.5 -181q0 -106 -49 -168.5t-157.5 -91t-293.5 -28.5q-189 0 -299.5 29 t-156.5 84.5t-46 139.5q0 78 37 128t109 70q-59 23 -89.5 62t-30.5 111q0 75 36 118t119 63q-135 64 -135 255q0 160 105 242t339 82h520zM758.5 496q57.5 16 82.5 54t25 107t-25 108t-83.5 56.5t-162.5 17.5q-103 0 -160.5 -17.5t-82 -56.5t-24.5 -108t24.5 -107t81.5 -54 t161 -16q106 0 163.5 16zM336 -13q-21 -14 -32.5 -35.5t-11.5 -59.5q0 -49 25 -78t93 -43.5t197 -14.5q123 0 192 13.5t98 42.5t29 79q0 51 -28.5 73.5t-100.5 22.5h-461zM462 1241q-66 35 -103.5 95t-45.5 136q-3 30 29 30h77q26 0 32 -28q12 -56 54.5 -92.5t109.5 -36.5 t109.5 36.5t54.5 92.5q6 28 32 28h77q32 0 29 -30q-8 -76 -45.5 -136t-103.5 -95t-153 -35t-153 35z" glyph-name="gbreve.ss02" vert-adv-y="1980"/>
<glyph d="M436 1199q-13 0 -20.5 7.5t-7.5 20.5v58q0 125 7.5 235.5t20.5 182.5q3 22 31 22h99q15 0 21.5 -7.5t5.5 -22.5q-11 -172 -11 -291v-43h231q13 0 20.5 -7.5t7.5 -20.5v-106q0 -13 -7.5 -20.5t-20.5 -7.5h-377zM1115 990q14 0 22 -8t8 -22v-83q0 -28 -30 -28l-162 7 q47 -46 67.5 -97.5t20.5 -116.5q0 -150 -93 -228t-291 -78h-239q-126 0 -126 -100q0 -51 35.5 -76t110.5 -25h387q147 0 214.5 -60t67.5 -181q0 -106 -49 -168.5t-157.5 -91t-293.5 -28.5q-189 0 -299.5 29t-156.5 84.5t-46 139.5q0 78 37 128t109 70q-59 23 -89.5 62 t-30.5 111q0 75 36 118t119 63q-135 64 -135 255q0 160 105 242t339 82h520zM758.5 496q57.5 16 82.5 54t25 107t-25 108t-83.5 56.5t-162.5 17.5q-103 0 -160.5 -17.5t-82 -56.5t-24.5 -108t24.5 -107t81.5 -54t161 -16q106 0 163.5 16zM336 -13q-21 -14 -32.5 -35.5 t-11.5 -59.5q0 -49 25 -78t93 -43.5t197 -14.5q123 0 192 13.5t98 42.5t29 79q0 51 -28.5 73.5t-100.5 22.5h-461z" glyph-name="uni0123.ss02" vert-adv-y="1980"/>
<glyph d="M1115 990q14 0 22 -8t8 -22v-83q0 -28 -30 -28l-162 7q47 -46 67.5 -97.5t20.5 -116.5q0 -150 -93 -228t-291 -78h-239q-126 0 -126 -100q0 -51 35.5 -76t110.5 -25h387q147 0 214.5 -60t67.5 -181q0 -106 -49 -168.5t-157.5 -91t-293.5 -28.5q-189 0 -299.5 29 t-156.5 84.5t-46 139.5q0 78 37 128t109 70q-59 23 -89.5 62t-30.5 111q0 75 36 118t119 63q-135 64 -135 255q0 160 105 242t339 82h520zM758.5 496q57.5 16 82.5 54t25 107t-25 108t-83.5 56.5t-162.5 17.5q-103 0 -160.5 -17.5t-82 -56.5t-24.5 -108t24.5 -107t81.5 -54 t161 -16q106 0 163.5 16zM336 -13q-21 -14 -32.5 -35.5t-11.5 -59.5q0 -49 25 -78t93 -43.5t197 -14.5q123 0 192 13.5t98 42.5t29 79q0 51 -28.5 73.5t-100.5 22.5h-461zM539.5 1319.5q-31.5 31.5 -31.5 76.5q0 43 31.5 74.5t75.5 31.5t75.5 -31.5t31.5 -74.5 q0 -45 -31.5 -76.5t-75.5 -31.5t-75.5 31.5z" glyph-name="gdotaccent.ss02" vert-adv-y="1980"/>
<glyph d="M560.5 1256q-30.5 18 -48.5 49t-18 68t18 67.5t48.5 48.5t67.5 18t68 -18t49 -48.5t18 -67.5t-18 -68t-49 -49t-68 -18t-67.5 18zM1029 168q14 0 22 -8t8 -22v-108q0 -13 -8 -21.5t-22 -8.5h-838q-13 0 -21.5 8.5t-8.5 21.5v108q0 14 8.5 22t21.5 8h361v654h-301 q-13 0 -21.5 8.5t-8.5 21.5v108q0 14 8.5 22t21.5 8h469q14 0 22 -8t8 -22v-792h279z" glyph-name="i.ss03" vert-adv-y="1980"/>
<glyph d="M1064 168q14 0 22 -8t8 -22v-108q0 -13 -8 -21.5t-22 -8.5h-883q-13 0 -21.5 8.5t-8.5 21.5v108q0 14 8.5 22t21.5 8h351v1064h-329q-13 0 -21.5 8.5t-8.5 21.5v108q0 14 8.5 22t21.5 8h497q14 0 22 -8t8 -22v-1202h334z" glyph-name="l.ss03" vert-adv-y="1980"/>
<glyph d="M1101.5 111q8.5 -12 8.5 -34v-24q0 -36 -28 -52.5t-68 -16.5q-68 0 -110 44t-42 124v36h-7q-22 -60 -72 -108.5t-125 -76.5t-168 -28h-49q-102 0 -174 35.5t-109.5 101t-37.5 154.5q0 125 75.5 200t228.5 84l414 27v65q0 78 -22.5 122t-74 63t-142.5 19q-113 0 -171 -30 t-66 -103q-3 -22 -30 -22h-131q-14 0 -22 7.5t-7 22.5q6 153 117.5 221t312.5 68q162 0 256.5 -42t134.5 -122t40 -202v-392q0 -55 8.5 -79.5t30.5 -37.5q21 -12 29.5 -24zM537 133q78 0 146.5 23.5t111.5 76t43 132.5v79l-362 -26q-90 -6 -126.5 -44t-36.5 -97 q0 -144 190 -144h34z" glyph-name="a.ss05" horiz-adv-x="1200" vert-adv-y="1980"/>
<glyph d="M771.5 193q68.5 35 117.5 97q10 15 23 15q7 0 17 -7l94 -65q15 -9 15 -23q0 -8 -6 -17q-65 -102 -174 -160t-245 -58q-147 0 -264 67t-183 185t-66 266t66 265.5t183 184.5t264 67q136 0 245 -58t174 -160q6 -9 6 -17q0 -13 -15 -24l-94 -64q-10 -7 -17 -7q-13 0 -23 15 q-49 62 -117.5 97t-153.5 35q-92 0 -166.5 -42t-116.5 -118t-42 -174t42 -174.5t116.5 -118.5t166.5 -42q85 0 153.5 35z" glyph-name="c.ss05" horiz-adv-x="1138" vert-adv-y="1980"/>
<glyph d="M1058.5 465q-15.5 -21 -65.5 -21l-704 1q4 -95 47.5 -164t122 -105.5t184.5 -36.5q77 0 143 18t117 49q17 10 26 10q10 0 20.5 -8t24.5 -25q26 -32 26 -52q0 -18 -19 -36q-59 -56 -153 -88t-203 -32q-156 0 -275 65t-184.5 183t-65.5 272q0 152 62.5 269t176.5 181.5 t263 64.5q147 0 253.5 -61.5t162.5 -169t56 -244.5q0 -49 -15.5 -70zM397.5 773.5q-80.5 -66.5 -100.5 -186.5h603q-11 119 -89 186t-206 67q-127 0 -207.5 -66.5z" glyph-name="e.ss05" horiz-adv-x="1174" vert-adv-y="1980"/>
<glyph d="M479.5 1266q-30.5 18 -48.5 49t-18 68t18 67.5t48.5 48.5t67.5 18t68 -18t49 -48.5t18 -67.5t-18 -68t-49 -49t-68 -18t-67.5 18zM987 168q14 0 22 -8t8 -22v-108q0 -13 -8 -21.5t-22 -8.5h-237q-135 0 -207 75.5t-72 213.5v533h-331q-13 0 -21.5 8.5t-8.5 21.5v108 q0 14 8.5 22t21.5 8h499q14 0 22 -8t8 -22v-641q0 -151 150 -151h168z" glyph-name="i.ss05" horiz-adv-x="1127" vert-adv-y="1980"/>
<glyph d="M760 0q-92 0 -159.5 38.5t-103.5 108t-36 162.5v923h-356q-13 0 -21.5 8.5t-8.5 21.5v108q0 14 8.5 22t21.5 8h524q14 0 22 -8t8 -22v-1035q0 -75 45.5 -121t120.5 -46h183q14 0 22 -8t8 -22v-108q0 -13 -8 -21.5t-22 -8.5h-248z" glyph-name="l.ss05" horiz-adv-x="1163" vert-adv-y="1980"/>
<glyph d="M1459 963.5q79 -48.5 124 -141.5t45 -220v-572q0 -13 -8 -21.5t-22 -8.5h-138q-13 0 -21.5 8.5t-8.5 21.5v535q0 79 -26.5 138.5t-75.5 92.5t-116 33t-116.5 -33t-76 -92.5t-26.5 -138.5v-535q0 -13 -8 -21.5t-22 -8.5h-138q-13 0 -21.5 8.5t-8.5 21.5v535 q0 79 -26.5 138.5t-75.5 92.5t-116 33t-116.5 -33t-76 -92.5t-26.5 -138.5v-535q0 -13 -8 -21.5t-22 -8.5h-138q-13 0 -21.5 8.5t-8.5 21.5v930q0 14 8.5 22t21.5 8h130q13 0 21 -8t9 -22l8 -140h23q33 87 107.5 139.5t174.5 52.5q95 0 170.5 -50t117.5 -142h25 q34 87 115.5 139.5t187.5 52.5q101 0 180 -48.5z" glyph-name="m.ss05" horiz-adv-x="1788" vert-adv-y="1980"/>
<glyph d="M345.5 42.5q-115.5 67.5 -180.5 186t-65 264.5t65 264t180.5 185.5t259.5 67.5t259.5 -67.5t180.5 -185.5t65 -264t-65 -264.5t-180.5 -186t-259.5 -67.5t-259.5 67.5zM766 200.5q71 42.5 111 118.5t40 174t-40 174t-111 118t-161 42t-161 -42t-111 -118t-40 -174 t40 -174t111 -118.5t161 -42.5t161 42.5z" glyph-name="o.ss05" horiz-adv-x="1210" vert-adv-y="1980"/>
<glyph d="M1609 990q26 0 26 -21q0 -8 -2 -13l-285 -932q-4 -12 -13.5 -18t-22.5 -6h-153q-13 0 -22.5 6t-13.5 18l-250 786l-251 -786q-4 -12 -13.5 -18t-22.5 -6h-154q-13 0 -22.5 6t-13.5 18l-284 932q-2 5 -2 13q0 21 26 21h132q11 0 16.5 -5.5t9.5 -18.5l228 -739l237 739 q4 13 9.5 18.5t16.5 5.5h175q11 0 16.5 -5.5t9.5 -18.5l237 -739l228 739q4 13 9.5 18.5t16.5 5.5h132z" glyph-name="w.ss05" horiz-adv-x="1745" vert-adv-y="1980"/>
<glyph d="M960 1400q17 0 17 -17v-684q0 -17 -17 -17h-100q-17 0 -18 15l-9 76q-46 -43 -105.5 -67t-127.5 -24q-99 0 -178.5 48.5t-124 131.5t-44.5 184t45 184t124.5 131.5t178.5 48.5q68 0 127 -23.5t105 -66.5l8 65q3 15 18 15h101zM734 853.5q51 28.5 80 79t29 113.5 t-29.5 113.5t-80 79.5t-111.5 29t-111.5 -29t-80 -79.5t-29.5 -113.5t29 -113.5t80 -79t112 -28.5t112 28.5z" glyph-name="ordfeminine" unicode="ª" vert-adv-y="1980"/>
<glyph d="M432.5 731q-83.5 49 -132.5 132.5t-49 182.5t49 182.5t132.5 132.5t182.5 49t182.5 -49t132.5 -132.5t49 -182.5t-49 -182.5t-132.5 -132.5t-182.5 -49t-182.5 49zM727 854.5q51 29.5 80.5 80t29.5 111.5t-30 112t-80.5 80.5t-111.5 29.5t-111.5 -29.5t-80 -80.5 t-29.5 -112t29.5 -111.5t80 -80t111.5 -29.5t112 29.5z" glyph-name="ordmasculine" unicode="º" vert-adv-y="1980"/>
<glyph d="M810.5 1390q63.5 -32 101.5 -97.5t38 -161.5v-433q0 -16 -15 -16h-113q-15 0 -15 16v397q0 97 -50.5 148.5t-133.5 51.5q-62 0 -107.5 -28.5t-69 -74.5t-23.5 -97v-398q0 -15 -15 -15h-113q-15 0 -15 15v688q0 15 15 15h113q7 0 11 -4t4 -11v-98h10q30 58 89.5 96.5 t147.5 38.5q77 0 140.5 -32z" glyph-name="uni207F" unicode="ⁿ" vert-adv-y="1980"/>
<glyph d="M1157 34q2 -8 2 -12q0 -10 -7 -16t-19 -6h-146q-26 0 -34 24l-76 265h-524l-76 -265q-8 -24 -34 -24h-146q-12 0 -19 6t-7 16q0 4 2 12l380 1282q3 12 12.5 18t22.5 6h254q13 0 22.5 -6t12.5 -18zM594 1128l-190 -660h422l-190 660h-42z" glyph-name="uni0410" unicode="А" vert-adv-y="1980"/>
<glyph d="M641 878q240 0 354 -115t114 -324q0 -210 -114 -324.5t-354 -114.5h-458q-13 0 -21.5 8.5t-8.5 21.5v1280q0 14 8.5 22t21.5 8h692q14 0 22 -8t8 -22v-126q0 -13 -8 -21.5t-22 -8.5h-516v-276h282zM624 186q143 0 215 57.5t72 195.5t-72 195.5t-215 57.5h-265v-506h265z " glyph-name="uni0411" unicode="Б" vert-adv-y="1980"/>
<glyph d="M162 0q-13 0 -21.5 8.5t-8.5 21.5v1280q0 14 8.5 22t21.5 8h485q211 0 304 -92t93 -233q0 -103 -51.5 -178t-165.5 -102v-20q288 -47 288 -342q0 -187 -115 -280t-369 -93h-469zM628 800q220 0 220 190q0 86 -52 125t-168 39h-290v-354h290zM631 186q99 0 159 21t88.5 67 t28.5 121q0 111 -65 170.5t-211 59.5h-293v-439h293z" glyph-name="uni0412" unicode="В" vert-adv-y="1980"/>
<glyph d="M1071 1332q8 -8 8 -22v-126q0 -13 -8 -21.5t-22 -8.5h-672v-1124q0 -13 -8 -21.5t-22 -8.5h-146q-13 0 -21.5 8.5t-8.5 21.5v1280q0 14 8.5 22t21.5 8h848q14 0 22 -8z" glyph-name="uni0413" unicode="Г" vert-adv-y="1980"/>
<glyph d="M1071 1332q8 -8 8 -22v-126q0 -13 -8 -21.5t-22 -8.5h-672v-1124q0 -13 -8 -21.5t-22 -8.5h-146q-13 0 -21.5 8.5t-8.5 21.5v1280q0 14 8.5 22t21.5 8h848q14 0 22 -8zM564 1542q-13 0 -20.5 5t-7.5 15q0 4 4 14l120 252q6 13 14 18.5t20 5.5h114q13 0 20.5 -5t7.5 -15 q0 -4 -4 -14l-120 -252q-6 -13 -14 -18.5t-20 -5.5h-114z" glyph-name="uni0403" unicode="Ѓ" vert-adv-y="1980"/>
<glyph d="M1049 1502q14 0 22 -8t8 -22v-288q0 -13 -8 -21.5t-22 -8.5h-672v-1124q0 -13 -8 -21.5t-22 -8.5h-146q-13 0 -21.5 8.5t-8.5 21.5v1280q0 14 8.5 22t21.5 8h692v132q0 14 8.5 22t21.5 8h126z" glyph-name="uni0490" unicode="Ґ" vert-adv-y="1980"/>
<glyph d="M1165 186q14 0 22 -8t8 -22v-264q0 -14 -8 -22t-22 -8h-133q-13 0 -21.5 8t-8.5 22v108h-774v-108q0 -14 -8 -22t-22 -8h-133q-13 0 -21.5 8t-8.5 22v264q0 14 8.5 22t21.5 8q98 0 146.5 57t48.5 183v884q0 14 8.5 22t21.5 8h721q14 0 22 -8t8 -22v-1124h124zM465 420 q0 -146 -67 -234h437v968h-370v-734z" glyph-name="uni0414" unicode="Д" vert-adv-y="1980"/>
<glyph d="M191 0q-13 0 -21.5 8.5t-8.5 21.5v1280q0 14 8.5 22t21.5 8h846q14 0 22 -8t8 -22v-126q0 -13 -8 -21.5t-22 -8.5h-670v-380h626q14 0 22 -8t8 -22v-126q0 -13 -8 -21.5t-22 -8.5h-626v-402h672q14 0 22 -8t8 -22v-126q0 -13 -8 -21.5t-22 -8.5h-848z" glyph-name="uni0415" unicode="Е" vert-adv-y="1980"/>
<glyph d="M191 0q-13 0 -21.5 8.5t-8.5 21.5v1280q0 14 8.5 22t21.5 8h846q14 0 22 -8t8 -22v-126q0 -13 -8 -21.5t-22 -8.5h-670v-380h626q14 0 22 -8t8 -22v-126q0 -13 -8 -21.5t-22 -8.5h-626v-402h672q14 0 22 -8t8 -22v-126q0 -13 -8 -21.5t-22 -8.5h-848zM343 1669.5 q-32 31.5 -32 76.5q0 43 32 74.5t76 31.5t75.5 -31.5t31.5 -74.5q0 -45 -31.5 -76.5t-75.5 -31.5t-76 31.5zM737 1669.5q-32 31.5 -32 76.5q0 43 32 74.5t76 31.5t75.5 -31.5t31.5 -74.5q0 -45 -31.5 -76.5t-75.5 -31.5t-76 31.5z" glyph-name="uni0401" unicode="Ё" vert-adv-y="1980"/>
<glyph d="M1178 36q5 -12 5 -18q0 -18 -23 -18h-127q-28 0 -36 18l-244 549l-51 -95v-442q0 -13 -8 -21.5t-22 -8.5h-115q-13 0 -21.5 8.5t-8.5 21.5v444l-50 93l-244 -549q-8 -18 -36 -18h-127q-23 0 -23 18q0 6 5 18l329 709l-300 559q-7 14 -7 20q0 16 23 16h132q27 0 34 -16 l264 -547v533q0 14 8.5 22t21.5 8h115q14 0 22 -8t8 -22v-536l265 550q7 16 34 16h132q23 0 23 -16q0 -6 -7 -20l-300 -559z" glyph-name="uni0416" unicode="Ж" vert-adv-y="1980"/>
<glyph d="M826 706q133 -34 211.5 -120t78.5 -219q0 -117 -63.5 -206t-180 -138t-269.5 -49q-150 0 -259.5 47t-167.5 134t-58 205q0 14 8 22t21 8h132q31 0 31 -27q1 -64 37 -113t101.5 -76t154.5 -27q93 0 163 30t107.5 84t37.5 125q0 112 -97 178t-288 66q-15 0 -22.5 8t-7.5 21 v93q0 13 8 21.5t23 8.5q123 0 200.5 29t111.5 76.5t34 105.5q0 60 -33.5 104.5t-94 68t-138.5 23.5q-84 0 -146.5 -27t-96.5 -76t-35 -114q0 -27 -31 -27h-132q-14 0 -21.5 8t-7.5 22q0 117 57.5 204.5t164 134.5t248.5 47q134 0 237.5 -42t161 -119t57.5 -178 q0 -104 -62 -181t-175 -116v-19z" glyph-name="uni0417" unicode="З" vert-adv-y="1980"/>
<glyph d="M1068 1332q8 -8 8 -22v-1280q0 -13 -8 -21.5t-22 -8.5h-128q-13 0 -21.5 8.5t-8.5 21.5v1012l-488 -1022q-9 -20 -36 -20h-180q-13 0 -21.5 8.5t-8.5 21.5v1280q0 14 8.5 22t21.5 8h128q14 0 22 -8t8 -22v-1010l486 1020q10 20 36 20h182q14 0 22 -8z" glyph-name="uni0418" unicode="И" vert-adv-y="1980"/>
<glyph d="M462 1649q-66 35 -103.5 95t-45.5 136q-3 30 29 30h77q26 0 32 -28q12 -56 54.5 -92.5t109.5 -36.5t109.5 36.5t54.5 92.5q6 28 32 28h77q32 0 29 -30q-8 -76 -45.5 -136t-103.5 -95t-153 -35t-153 35zM1068 1332q8 -8 8 -22v-1280q0 -13 -8 -21.5t-22 -8.5h-128 q-13 0 -21.5 8.5t-8.5 21.5v1012l-488 -1022q-9 -20 -36 -20h-180q-13 0 -21.5 8.5t-8.5 21.5v1280q0 14 8.5 22t21.5 8h128q14 0 22 -8t8 -22v-1010l486 1020q10 20 36 20h182q14 0 22 -8z" glyph-name="uni0419" unicode="Й" vert-adv-y="1980"/>
<glyph d="M1137 36q7 -10 7 -18t-6.5 -13t-18.5 -5h-164q-12 0 -20.5 4t-15.5 14l-414 559l-173 -208v-339q0 -13 -8 -21.5t-22 -8.5h-146q-13 0 -21.5 8.5t-8.5 21.5v1280q0 14 8.5 22t21.5 8h146q14 0 22 -8t8 -22v-659l543 673q13 16 36 16h180q12 0 18.5 -4.5t6.5 -11.5 q0 -9 -9 -20l-479 -578z" glyph-name="uni041A" unicode="К" vert-adv-y="1980"/>
<glyph d="M1081 1332q8 -8 8 -22v-1280q0 -13 -8 -21.5t-22 -8.5h-146q-13 0 -21.5 8.5t-8.5 21.5v1124h-429v-768q0 -204 -98 -302t-268 -98q-9 0 -15 5t-8 13l-42 145q-1 2 -1 6q0 15 16 16q107 7 158.5 62.5t51.5 180.5v896q0 14 8.5 22t21.5 8h781q14 0 22 -8z" glyph-name="uni041B" unicode="Л" vert-adv-y="1980"/>
<glyph d="M162 0q-13 0 -21.5 8.5t-8.5 21.5v1280q0 14 8.5 22t21.5 8h167q13 0 23.5 -5t12.5 -15l244 -994h12l244 994q2 10 12.5 15t23.5 5h167q14 0 22 -8t8 -22v-1280q0 -13 -8 -21.5t-22 -8.5h-116q-13 0 -21.5 8.5t-8.5 21.5v884h-13l-203 -791q-3 -11 -12.5 -17t-22.5 -6 h-112q-13 0 -22.5 6t-12.5 17l-203 791h-13v-884q0 -13 -8 -21.5t-22 -8.5h-116z" glyph-name="uni041C" unicode="М" vert-adv-y="1980"/>
<glyph d="M1053 1340q14 0 22 -8t8 -22v-1280q0 -13 -8 -21.5t-22 -8.5h-146q-13 0 -21.5 8.5t-8.5 21.5v540h-524v-540q0 -13 -8 -21.5t-22 -8.5h-146q-13 0 -21.5 8.5t-8.5 21.5v1280q0 14 8.5 22t21.5 8h146q14 0 22 -8t8 -22v-554h524v554q0 14 8.5 22t21.5 8h146z" glyph-name="uni041D" unicode="Н" vert-adv-y="1980"/>
<glyph d="M337.5 38.5q-109.5 68.5 -165 221.5t-55.5 405t55.5 405t165 221.5t277.5 68.5t277.5 -68.5t165 -221.5t55.5 -405t-55.5 -405t-165 -221.5t-277.5 -68.5t-277.5 68.5zM774.5 209q64.5 41 101.5 150t37 306t-37 306t-101.5 150t-159.5 41t-159.5 -41t-101.5 -150 t-37 -306t37 -306t101.5 -150t159.5 -41t159.5 41z" glyph-name="uni041E" unicode="О" vert-adv-y="1980"/>
<glyph d="M1061 1338q8 -8 8 -22v-1286q0 -13 -8 -21.5t-22 -8.5h-146q-13 0 -21.5 8.5t-8.5 21.5v1130h-496v-1130q0 -13 -8 -21.5t-22 -8.5h-146q-13 0 -21.5 8.5t-8.5 21.5v1286q0 14 8.5 22t21.5 8h848q14 0 22 -8z" glyph-name="uni041F" unicode="П" vert-adv-y="1980"/>
<glyph d="M641 1340q240 0 354 -114.5t114 -324.5q0 -209 -114 -324t-354 -115h-282v-432q0 -13 -8 -21.5t-22 -8.5h-146q-13 0 -21.5 8.5t-8.5 21.5v1280q0 14 8.5 22t21.5 8h458zM624 648q143 0 215 57.5t72 195.5t-72 195.5t-215 57.5h-265v-506h265z" glyph-name="uni0420" unicode="Р" vert-adv-y="1980"/>
<glyph d="M343.5 38.5q-113.5 68.5 -170 221t-56.5 405.5t56.5 405.5t170 221t290.5 68.5q140 0 240 -43t161 -147t72 -281q3 -33 -27 -33h-133q-28 0 -32 26q-13 113 -51 174.5t-94 84t-135 22.5q-105 0 -173.5 -41t-106.5 -150t-38 -307t38 -307t106.5 -150t173.5 -41 q121 0 191 48.5t89 174.5q4 26 32 26h133q30 0 27 -33q-16 -220 -139.5 -316.5t-333.5 -96.5q-177 0 -290.5 68.5z" glyph-name="uni0421" unicode="С" vert-adv-y="1980"/>
<glyph d="M542 0q-13 0 -21.5 8.5t-8.5 21.5v1124h-382q-13 0 -21.5 8.5t-8.5 21.5v126q0 14 8.5 22t21.5 8h970q14 0 22 -8t8 -22v-126q0 -13 -8 -21.5t-22 -8.5h-382v-1124q0 -13 -8 -21.5t-22 -8.5h-146z" glyph-name="uni0422" unicode="Т" vert-adv-y="1980"/>
<glyph d="M1142 1340q12 0 18.5 -5t6.5 -14q0 -7 -5 -17l-702 -1284q-10 -20 -36 -20h-154q-25 0 -25 18q0 6 5 18l255 466l-437 802q-5 10 -5 17q0 9 6.5 14t18.5 5h153q26 0 36 -20l335 -623l341 623q10 20 36 20h153z" glyph-name="uni0423" unicode="У" vert-adv-y="1980"/>
<glyph d="M717 1204q236 0 342 -148t106 -386t-106 -386t-342 -148h-7v-106q0 -13 -8 -21.5t-22 -8.5h-130q-13 0 -21.5 8.5t-8.5 21.5v106h-7q-236 0 -342 148t-106 386t106 386t342 148h7v106q0 14 8.5 22t21.5 8h130q14 0 22 -8t8 -22v-106h7zM520 322v696h-7q-97 0 -153 -41 t-78.5 -117t-22.5 -190t22.5 -190t78.5 -117t153 -41h7zM717 322q97 0 153 41t78.5 117t22.5 190t-22.5 190t-78.5 117t-153 41h-7v-696h7z" glyph-name="uni0424" unicode="Ф" vert-adv-y="1980"/>
<glyph d="M1138 36q6 -10 6 -18t-6.5 -13t-19.5 -5h-154q-23 0 -36 20l-313 491l-313 -491q-13 -20 -36 -20h-154q-13 0 -19.5 5t-6.5 13t6 18l413 647l-396 621q-6 11 -6 18q0 8 6.5 13t19.5 5h154q23 0 36 -20l296 -464l296 464q13 20 36 20h154q13 0 19.5 -5t6.5 -13 q0 -7 -6 -18l-396 -621z" glyph-name="uni0425" unicode="Х" vert-adv-y="1980"/>
<glyph d="M1091 1340q14 0 22 -8t8 -22v-1280q0 -13 -8 -21.5t-22 -8.5h-146q-13 0 -21.5 8.5t-8.5 21.5v448q-64 -79 -161 -123.5t-217 -44.5q-127 0 -223.5 48.5t-150.5 144.5t-54 233v574q0 14 8.5 22t21.5 8h146q14 0 22 -8t8 -22v-534q0 -124 78 -195.5t215 -71.5 q92 0 161.5 32.5t107.5 92.5t38 142v534q0 14 8.5 22t21.5 8h146z" glyph-name="uni0427" unicode="Ч" vert-adv-y="1980"/>
<glyph d="M1153 186q14 0 22 -8t8 -22v-264q0 -14 -8 -22t-22 -8h-135q-13 0 -21.5 8t-8.5 22v108h-785q-13 0 -21.5 8.5t-8.5 21.5v1280q0 14 8.5 22t21.5 8h146q14 0 22 -8t8 -22v-1124h456v1124q0 14 8.5 22t21.5 8h146q14 0 22 -8t8 -22v-1124h112z" glyph-name="uni0426" unicode="Ц" vert-adv-y="1980"/>
<glyph d="M147 0q-13 0 -21.5 8.5t-8.5 21.5v1280q0 14 8.5 22t21.5 8h125q14 0 22 -8t8 -22v-1124h221v1124q0 14 8.5 22t21.5 8h124q14 0 22 -8t8 -22v-1124h221v1124q0 14 8.5 22t21.5 8h125q14 0 22 -8t8 -22v-1280q0 -13 -8 -21.5t-22 -8.5h-936z" glyph-name="uni0428" unicode="Ш" vert-adv-y="1980"/>
<glyph d="M1153 186q14 0 22 -8t8 -22v-264q0 -14 -8 -22t-22 -8h-135q-13 0 -21.5 8t-8.5 22v108h-841q-13 0 -21.5 8.5t-8.5 21.5v1280q0 14 8.5 22t21.5 8h125q14 0 22 -8t8 -22v-1124h201v1124q0 14 8.5 22t21.5 8h124q14 0 22 -8t8 -22v-1124h201v1124q0 14 8.5 22t21.5 8h125 q14 0 22 -8t8 -22v-1124h80z" glyph-name="uni0429" unicode="Щ" vert-adv-y="1980"/>
<glyph d="M183 0q-13 0 -21.5 8.5t-8.5 21.5v1280q0 14 8.5 22t21.5 8h146q14 0 22 -8t8 -22v-432h282q240 0 354 -115t114 -324q0 -210 -114 -324.5t-354 -114.5h-458zM359 692v-506h265q143 0 215 57.5t72 195.5t-72 195.5t-215 57.5h-265z" glyph-name="uni042C" unicode="Ь" vert-adv-y="1980"/>
<glyph d="M677 888q173 0 274.5 -52.5t144.5 -149.5t43 -242t-43 -242t-144.5 -149.5t-274.5 -52.5h-412q-13 0 -21.5 8.5t-8.5 21.5v1124h-144q-13 0 -21.5 8.5t-8.5 21.5v126q0 14 8.5 22t21.5 8h319q14 0 22 -8t8 -22v-422h237zM663 186q102 0 161 21t88 77t29 160t-29 160 t-88 77t-161 21h-223v-516h223z" glyph-name="uni042A" unicode="Ъ" vert-adv-y="1980"/>
<glyph d="M96 0q-13 0 -21.5 8.5t-8.5 21.5v1340q0 14 8.5 22t21.5 8h140q14 0 22 -8t8 -22v-482h155q163 0 257.5 -51.5t133 -148.5t38.5 -244t-38.5 -244t-133 -148.5t-257.5 -51.5h-325zM994 0q-13 0 -21.5 8.5t-8.5 21.5v1340q0 14 8.5 22t21.5 8h140q14 0 22 -8t8 -22v-1340 q0 -13 -8 -21.5t-22 -8.5h-140zM266 702v-516h149q89 0 138.5 20t73.5 75.5t24 162.5t-24 162.5t-73.5 75.5t-138.5 20h-149z" glyph-name="uni042B" unicode="Ы" vert-adv-y="1980"/>
<glyph d="M1098 416q29 0 27 -33q-16 -220 -140 -316.5t-334 -96.5q-177 0 -290 68.5t-169.5 221t-56.5 405.5t56.5 405.5t169.5 221t290 68.5q140 0 240 -43t161.5 -147t72.5 -281q2 -33 -27 -33h-134q-28 0 -31 26q-13 113 -51.5 174.5t-94.5 84t-135 22.5q-100 0 -166.5 -37 t-105.5 -134t-44 -273h452q14 0 22 -8t8 -22v-83q0 -13 -8 -21.5t-22 -8.5h-451q8 -161 48 -251t105.5 -124t161.5 -34q121 0 191 48.5t90 174.5q3 26 31 26h134z" glyph-name="uni0404" unicode="Є" vert-adv-y="1980"/>
<glyph d="M880.5 1291.5q113.5 -68.5 170 -221t56.5 -405.5t-56.5 -405.5t-170 -221t-290.5 -68.5q-210 0 -333.5 96.5t-139.5 316.5q-3 33 27 33h133q28 0 32 -26q19 -126 89 -174.5t191 -48.5q96 0 161.5 34t105.5 124t49 251h-452q-13 0 -21.5 8.5t-8.5 21.5v83q0 14 8.5 22 t21.5 8h453q-5 176 -44 273t-106 134t-167 37q-79 0 -135 -22.5t-94 -84t-51 -174.5q-4 -26 -32 -26h-133q-30 0 -27 33q11 177 72 281t161 147t240 43q177 0 290.5 -68.5z" glyph-name="uni042D" unicode="Э" vert-adv-y="1980"/>
<glyph d="M163 0q-13 0 -21.5 8.5t-8.5 21.5v126q0 14 8.5 22t21.5 8h349v968h-349q-13 0 -21.5 8.5t-8.5 21.5v126q0 14 8.5 22t21.5 8h904q14 0 22 -8t8 -22v-126q0 -13 -8 -21.5t-22 -8.5h-349v-968h349q14 0 22 -8t8 -22v-126q0 -13 -8 -21.5t-22 -8.5h-904z" glyph-name="uni0406" unicode="І" vert-adv-y="1980"/>
<glyph d="M163 0q-13 0 -21.5 8.5t-8.5 21.5v126q0 14 8.5 22t21.5 8h349v968h-349q-13 0 -21.5 8.5t-8.5 21.5v126q0 14 8.5 22t21.5 8h904q14 0 22 -8t8 -22v-126q0 -13 -8 -21.5t-22 -8.5h-349v-968h349q14 0 22 -8t8 -22v-126q0 -13 -8 -21.5t-22 -8.5h-904zM343 1669.5 q-32 31.5 -32 76.5q0 43 32 74.5t76 31.5t75.5 -31.5t31.5 -74.5q0 -45 -31.5 -76.5t-75.5 -31.5t-76 31.5zM737 1669.5q-32 31.5 -32 76.5q0 43 32 74.5t76 31.5t75.5 -31.5t31.5 -74.5q0 -45 -31.5 -76.5t-75.5 -31.5t-76 31.5z" glyph-name="uni0407" unicode="Ї" vert-adv-y="1980"/>
<glyph d="M979 1296q88 -60 134 -211t46 -420t-46 -420t-134 -211t-228 -60q-133 0 -218 55t-131 189t-52 371h-101v-559q0 -13 -8 -21.5t-22 -8.5h-122q-26 0 -26 30v1280q0 30 26 30h122q14 0 22 -8t8 -22v-547h102q8 228 54.5 357.5t130.5 182.5t215 53q140 0 228 -60zM874 212 q48 37 75.5 144.5t27.5 308.5t-27.5 308.5t-75.5 144.5t-120 37t-119.5 -37t-75 -144t-27.5 -309t27.5 -309t75 -144t119.5 -37t120 37z" glyph-name="uni042E" unicode="Ю" vert-adv-y="1980"/>
<glyph d="M1042 1340q14 0 22 -8t8 -22v-1280q0 -13 -8 -21.5t-22 -8.5h-146q-13 0 -21.5 8.5t-8.5 21.5v432h-282h-21l-228 -440q-12 -22 -35 -22h-147q-13 0 -20 5.5t-7 14.5q0 7 4 15l241 458q-130 45 -192.5 149t-62.5 259q0 210 114 324.5t354 114.5h458zM866 648v506h-265 q-143 0 -215 -57.5t-72 -195.5t72 -195.5t215 -57.5h265z" glyph-name="uni042F" unicode="Я" vert-adv-y="1980"/>
<glyph d="M1109.5 111q8.5 -12 8.5 -34v-24q0 -36 -28 -52.5t-68 -16.5q-68 0 -110 44t-42 124v36h-7q-22 -60 -72 -108.5t-125 -76.5t-168 -28h-49q-102 0 -174 35.5t-109.5 101t-37.5 154.5q0 125 75.5 200t228.5 84l414 27v65q0 78 -22.5 122t-74 63t-142.5 19q-113 0 -171 -30 t-66 -103q-3 -22 -30 -22h-131q-14 0 -22 7.5t-7 22.5q6 153 117.5 221t312.5 68q162 0 256.5 -42t134.5 -122t40 -202v-392q0 -55 8.5 -79.5t30.5 -37.5q21 -12 29.5 -24zM545 133q78 0 146.5 23.5t111.5 76t43 132.5v79l-362 -26q-90 -6 -126.5 -44t-36.5 -97 q0 -144 190 -144h34z" glyph-name="uni0430" unicode="а" vert-adv-y="1980"/>
<glyph d="M910.5 946q101.5 -67 155 -184.5t53.5 -265.5q0 -151 -55.5 -269t-159 -185t-242.5 -67q-109 0 -193.5 42t-142.5 116l-8 -103q-2 -14 -9.5 -22t-20.5 -8h-122q-13 0 -21.5 8.5t-8.5 21.5v1060q0 153 77 231.5t242 78.5h259q60 0 85.5 9.5t36.5 30.5h170q-6 -82 -42 -127 t-98 -62.5t-156 -17.5h-209q-93 0 -130.5 -40.5t-37.5 -132.5v-220h18q39 77 121 125t200 48q137 0 238.5 -67zM792 198.5q67 42.5 102 119t35 178.5t-35 178t-102 117t-160 41t-162.5 -41.5t-106.5 -117.5t-37 -177t37 -178t106.5 -119.5t162.5 -42.5t160 42.5z" glyph-name="uni0431" unicode="б" vert-adv-y="1980"/>
<glyph d="M897 520q116 -13 179 -78t63 -161q0 -83 -48.5 -146.5t-145.5 -99t-237 -35.5h-525q-13 0 -21.5 8.5t-8.5 21.5v930q0 14 8.5 22t21.5 8h535q105 0 182.5 -31.5t119 -89t41.5 -131.5q0 -76 -42.5 -129.5t-121.5 -68.5v-20zM843.5 794.5q-36.5 30.5 -136.5 30.5h-356v-229 h344q103 0 144 31t41 87q0 50 -36.5 80.5zM722 165q128 0 178.5 37t50.5 100q0 146 -241 146h-359v-283h371z" glyph-name="uni0432" unicode="в" vert-adv-y="1980"/>
<glyph d="M1063 982q8 -8 8 -22v-105q0 -13 -8 -21.5t-22 -8.5h-664v-795q0 -13 -8 -21.5t-22 -8.5h-138q-13 0 -21.5 8.5t-8.5 21.5v930q0 14 8.5 22t21.5 8h832q14 0 22 -8z" glyph-name="uni0433" unicode="г" vert-adv-y="1980"/>
<glyph d="M1063 982q8 -8 8 -22v-105q0 -13 -8 -21.5t-22 -8.5h-664v-795q0 -13 -8 -21.5t-22 -8.5h-138q-13 0 -21.5 8.5t-8.5 21.5v930q0 14 8.5 22t21.5 8h832q14 0 22 -8zM564 1192q-13 0 -20.5 5t-7.5 15q0 4 4 14l120 252q6 13 14 18.5t20 5.5h114q13 0 20.5 -5t7.5 -15 q0 -4 -4 -14l-120 -252q-6 -13 -14 -18.5t-20 -5.5h-114z" glyph-name="uni0453" unicode="ѓ" vert-adv-y="1980"/>
<glyph d="M1041 1104q14 0 22 -8t8 -22v-219q0 -13 -8 -21.5t-22 -8.5h-664v-795q0 -13 -8 -21.5t-22 -8.5h-138q-13 0 -21.5 8.5t-8.5 21.5v930q0 14 8.5 22t21.5 8h664v84q0 14 8.5 22t21.5 8h138z" glyph-name="uni0491" unicode="ґ" vert-adv-y="1980"/>
<glyph d="M1149 165q14 0 22 -8t8 -22v-247q0 -14 -8 -22t-22 -8h-126q-13 0 -21.5 8t-8.5 22v112h-756v-112q0 -14 -8 -22t-22 -8h-126q-13 0 -21.5 8t-8.5 22v264q0 12 4.5 17t15.5 5q97 0 150.5 62.5t53.5 189.5v534q0 14 8.5 22t21.5 8h734q14 0 22 -8t8 -22v-795h80zM467 825 v-405q0 -167 -75 -255h485v660h-410z" glyph-name="uni0434" unicode="д" vert-adv-y="1980"/>
<glyph d="M1086.5 465q-15.5 -21 -65.5 -21l-704 1q4 -95 47.5 -164t122 -105.5t184.5 -36.5q77 0 143 18t117 49q17 10 26 10q10 0 20.5 -8t24.5 -25q26 -32 26 -52q0 -18 -19 -36q-59 -56 -153 -88t-203 -32q-156 0 -275 65t-184.5 183t-65.5 272q0 152 62.5 269t176.5 181.5 t263 64.5q147 0 253.5 -61.5t162.5 -169t56 -244.5q0 -49 -15.5 -70zM425.5 773.5q-80.5 -66.5 -100.5 -186.5h603q-11 119 -89 186t-206 67q-127 0 -207.5 -66.5z" glyph-name="uni0435" unicode="е" vert-adv-y="1980"/>
<glyph d="M1086.5 465q-15.5 -21 -65.5 -21l-704 1q4 -95 47.5 -164t122 -105.5t184.5 -36.5q77 0 143 18t117 49q17 10 26 10q10 0 20.5 -8t24.5 -25q26 -32 26 -52q0 -18 -19 -36q-59 -56 -153 -88t-203 -32q-156 0 -275 65t-184.5 183t-65.5 272q0 152 62.5 269t176.5 181.5 t263 64.5q147 0 253.5 -61.5t162.5 -169t56 -244.5q0 -49 -15.5 -70zM425.5 773.5q-80.5 -66.5 -100.5 -186.5h603q-11 119 -89 186t-206 67q-127 0 -207.5 -66.5zM324 1319.5q-32 31.5 -32 76.5q0 43 32 74.5t76 31.5t75.5 -31.5t31.5 -74.5q0 -45 -31.5 -76.5t-75.5 -31.5 t-76 31.5zM718 1319.5q-32 31.5 -32 76.5q0 43 32 74.5t76 31.5t75.5 -31.5t31.5 -74.5q0 -45 -31.5 -76.5t-75.5 -31.5t-76 31.5z" glyph-name="uni0451" unicode="ё" vert-adv-y="1980"/>
<glyph d="M1162 36q7 -14 7 -20q0 -16 -23 -16h-124q-28 0 -36 16l-218 402l-73 -107v-281q0 -13 -8 -21.5t-22 -8.5h-100q-13 0 -21.5 8.5t-8.5 21.5v281l-73 107l-218 -402q-8 -16 -36 -16h-124q-23 0 -23 16q0 6 7 20l293 528l-268 390q-9 12 -9 21q0 15 24 15h133q24 0 35 -18 l259 -407v395q0 14 8.5 22t21.5 8h100q14 0 22 -8t8 -22v-395l259 407q11 18 35 18h133q24 0 24 -15q0 -9 -9 -21l-268 -390z" glyph-name="uni0436" unicode="ж" vert-adv-y="1980"/>
<glyph d="M872 517q104 -26 159.5 -88t55.5 -151t-56.5 -158t-166.5 -107.5t-267 -38.5q-161 0 -274.5 38.5t-161.5 97.5q-12 15 -12 27q0 13 15 31l52 60q9 10 21 10q16 0 33 -17q35 -31 115.5 -55t207.5 -24q154 0 234 40.5t80 114.5q0 49 -37.5 81.5t-130 50.5t-251.5 18 q-21 0 -33.5 10.5t-12.5 29.5v58q0 21 12 32t34 11q149 0 233 16t116.5 44.5t32.5 70.5q0 59 -65.5 93t-200.5 34q-110 0 -187.5 -21t-123.5 -53q-19 -12 -36 -12q-18 0 -29 14l-41 53q-13 16 -13 28q0 13 12 26q51 57 160.5 94.5t261.5 37.5q141 0 241 -34t151.5 -94.5 t51.5 -138.5q0 -76 -47 -130.5t-133 -80.5v-18z" glyph-name="uni0437" unicode="з" vert-adv-y="1980"/>
<glyph d="M1043 982q8 -8 8 -22v-930q0 -13 -8 -21.5t-22 -8.5h-138q-13 0 -21.5 8.5t-8.5 21.5v690l-435 -700q-6 -9 -16 -14.5t-22 -5.5h-171q-13 0 -21.5 8.5t-8.5 21.5v930q0 14 8.5 22t21.5 8h138q14 0 22 -8t8 -22v-690l435 700q6 9 16 14.5t22 5.5h171q14 0 22 -8z" glyph-name="uni0438" unicode="и" vert-adv-y="1980"/>
<glyph d="M1043 982q8 -8 8 -22v-930q0 -13 -8 -21.5t-22 -8.5h-138q-13 0 -21.5 8.5t-8.5 21.5v690l-435 -700q-6 -9 -16 -14.5t-22 -5.5h-171q-13 0 -21.5 8.5t-8.5 21.5v930q0 14 8.5 22t21.5 8h138q14 0 22 -8t8 -22v-690l435 700q6 9 16 14.5t22 5.5h171q14 0 22 -8zM462 1241 q-66 35 -103.5 95t-45.5 136q-3 30 29 30h77q26 0 32 -28q12 -56 54.5 -92.5t109.5 -36.5t109.5 36.5t54.5 92.5q6 28 32 28h77q32 0 29 -30q-8 -76 -45.5 -136t-103.5 -95t-153 -35t-153 35z" glyph-name="uni0439" unicode="й" vert-adv-y="1980"/>
<glyph d="M1137 36q9 -10 9 -19q0 -8 -7 -12.5t-19 -4.5h-172q-23 0 -36 16l-361 413l-206 -208v-191q0 -13 -8 -21.5t-22 -8.5h-138q-13 0 -21.5 8.5t-8.5 21.5v930q0 14 8.5 22t21.5 8h138q14 0 22 -8t8 -22v-498l502 512q15 16 38 16h171q12 0 19 -4.5t7 -11.5q0 -9 -11 -20 l-392 -396z" glyph-name="uni043A" unicode="к" vert-adv-y="1980"/>
<glyph d="M1115 982q8 -8 8 -22v-930q0 -13 -8 -21.5t-22 -8.5h-138q-13 0 -21.5 8.5t-8.5 21.5v795h-478v-507q0 -128 -43.5 -200t-122.5 -100t-198 -28q-28 0 -28 19v140q0 10 5.5 16t15.5 6q63 0 100 17.5t55 61.5t18 124v586q0 14 8.5 22t21.5 8h814q14 0 22 -8z" glyph-name="uni043B" unicode="л" vert-adv-y="1980"/>
<glyph d="M1075 982q8 -8 8 -22v-930q0 -13 -8 -21.5t-22 -8.5h-130q-13 0 -21.5 8.5t-8.5 21.5v634l-194 -592q-3 -10 -12.5 -16t-21.5 -6h-100q-12 0 -21.5 6t-12.5 16l-194 592v-634q0 -13 -8 -21.5t-22 -8.5h-130q-13 0 -21.5 8.5t-8.5 21.5v930q0 14 8.5 22t21.5 8h162 q25 0 32 -22l244 -715l244 715q7 22 32 22h162q14 0 22 -8z" glyph-name="uni043C" unicode="м" vert-adv-y="1980"/>
<glyph d="M1021 990q14 0 22 -8t8 -22v-930q0 -13 -8 -21.5t-22 -8.5h-138q-13 0 -21.5 8.5t-8.5 21.5v378h-476v-378q0 -13 -8 -21.5t-22 -8.5h-138q-13 0 -21.5 8.5t-8.5 21.5v930q0 14 8.5 22t21.5 8h138q14 0 22 -8t8 -22v-388h476v388q0 14 8.5 22t21.5 8h138z" glyph-name="uni043D" unicode="н" vert-adv-y="1980"/>
<glyph d="M355.5 42.5q-115.5 67.5 -180.5 186t-65 264.5t65 264t180.5 185.5t259.5 67.5t259.5 -67.5t180.5 -185.5t65 -264t-65 -264.5t-180.5 -186t-259.5 -67.5t-259.5 67.5zM776 200.5q71 42.5 111 118.5t40 174t-40 174t-111 118t-161 42t-161 -42t-111 -118t-40 -174 t40 -174t111 -118.5t161 -42.5t161 42.5z" glyph-name="uni043E" unicode="о" vert-adv-y="1980"/>
<glyph d="M1043 982q8 -8 8 -22v-930q0 -13 -8 -21.5t-22 -8.5h-138q-13 0 -21.5 8.5t-8.5 21.5v795h-476v-795q0 -13 -8 -21.5t-22 -8.5h-138q-13 0 -21.5 8.5t-8.5 21.5v930q0 14 8.5 22t21.5 8h812q14 0 22 -8z" glyph-name="uni043F" unicode="п" vert-adv-y="1980"/>
<glyph d="M910 943.5q103 -66.5 158.5 -184t55.5 -266.5t-55.5 -266.5t-158.5 -184.5t-242 -67q-119 0 -200.5 48.5t-122.5 128.5h-23v-502q0 -14 -8 -22t-22 -8h-131q-13 0 -21.5 8t-8.5 22v1310q0 14 8.5 22t21.5 8h138q14 0 22 -8t8 -22v-122h16q41 77 122.5 124.5t200.5 47.5 q139 0 242 -66.5zM787 198.5q69 41.5 106.5 117.5t37.5 177t-37.5 176.5t-106.5 117t-162 41.5t-162.5 -41.5t-107 -117t-37.5 -176.5q0 -100 37.5 -176t107 -118t162.5 -42t162 41.5z" glyph-name="uni0440" unicode="р" vert-adv-y="1980"/>
<glyph d="M802.5 193q68.5 35 117.5 97q10 15 23 15q7 0 17 -7l94 -65q15 -9 15 -23q0 -8 -6 -17q-65 -102 -174 -160t-245 -58q-147 0 -264 67t-183 185t-66 266t66 265.5t183 184.5t264 67q136 0 245 -58t174 -160q6 -9 6 -17q0 -13 -15 -24l-94 -64q-10 -7 -17 -7q-13 0 -23 15 q-49 62 -117.5 97t-153.5 35q-92 0 -166.5 -42t-116.5 -118t-42 -174t42 -174.5t116.5 -118.5t166.5 -42q85 0 153.5 35z" glyph-name="uni0441" unicode="с" vert-adv-y="1980"/>
<glyph d="M546 0q-13 0 -21.5 8.5t-8.5 21.5v795h-390q-13 0 -21.5 8.5t-8.5 21.5v105q0 14 8.5 22t21.5 8h978q14 0 22 -8t8 -22v-105q0 -13 -8 -21.5t-22 -8.5h-390v-795q0 -13 -8 -21.5t-22 -8.5h-138z" glyph-name="uni0442" unicode="т" vert-adv-y="1980"/>
<glyph d="M1092 990q13 0 20.5 -5t7.5 -15q0 -4 -4 -14l-546 -1312q-10 -24 -36 -24h-139q-13 0 -20.5 5t-7.5 15q0 4 4 14l145 344l-402 958q-4 10 -4 14q0 10 7.5 15t20.5 5h139q26 0 36 -24l302 -745l302 745q11 24 36 24h139z" glyph-name="uni0443" unicode="у" vert-adv-y="1980"/>
<glyph d="M1029.5 131q-112.5 -133 -321.5 -157v-324q0 -14 -8 -22t-22 -8h-126q-13 0 -21.5 8t-8.5 22v324q-209 24 -321.5 157t-112.5 360t112.5 360t321.5 157v323q0 14 8.5 22t21.5 8h126q14 0 22 -8t8 -22v-323q209 -24 321.5 -157t112.5 -360t-112.5 -360zM332 257.5 q60 -81.5 190 -100.5v668q-130 -19 -190 -100.5t-60 -233.5t60 -233.5zM708 157q130 19 190 100.5t60 233.5t-60 233.5t-190 100.5v-668z" glyph-name="uni0444" unicode="ф" vert-adv-y="1980"/>
<glyph d="M1135 36q8 -10 8 -18t-7 -13t-19 -5h-166q-22 0 -36 17l-300 356l-301 -356q-13 -17 -36 -17h-166q-12 0 -18.5 4.5t-6.5 12.5q0 9 9 19l405 473l-379 445q-8 10 -8 18t7 13t19 5h164q22 0 36 -17l275 -328l275 328q13 17 36 17h163q13 0 20 -4.5t7 -12.5t-9 -19 l-376 -445z" glyph-name="uni0445" unicode="х" vert-adv-y="1980"/>
<glyph d="M1021 990q14 0 22 -8t8 -22v-930q0 -13 -8 -21.5t-22 -8.5h-138q-13 0 -21.5 8.5t-8.5 21.5v297q-56 -65 -142.5 -104t-188.5 -39q-101 0 -190.5 41.5t-147 135.5t-57.5 241v358q0 14 8.5 22t21.5 8h138q14 0 22 -8t8 -22v-331q0 -130 65.5 -201t187.5 -71q81 0 143 32 t97 93.5t35 146.5v331q0 14 8.5 22t21.5 8h138z" glyph-name="uni0447" unicode="ч" vert-adv-y="1980"/>
<glyph d="M1153 165q14 0 22 -8t8 -22v-235q0 -14 -8 -22t-22 -8h-128q-13 0 -21.5 8t-8.5 22v100h-786q-13 0 -21.5 8.5t-8.5 21.5v930q0 14 8.5 22t21.5 8h138q14 0 22 -8t8 -22v-795h476v795q0 14 8.5 22t21.5 8h138q14 0 22 -8t8 -22v-795h102z" glyph-name="uni0446" unicode="ц" vert-adv-y="1980"/>
<glyph d="M1059 990q14 0 22 -8t8 -22v-930q0 -13 -8 -21.5t-22 -8.5h-888q-13 0 -21.5 8.5t-8.5 21.5v930q0 14 8.5 22t21.5 8h128q14 0 22 -8t8 -22v-795h198v795q0 14 8.5 22t21.5 8h116q14 0 22 -8t8 -22v-795h198v795q0 14 8.5 22t21.5 8h128z" glyph-name="uni0448" unicode="ш" vert-adv-y="1980"/>
<glyph d="M1153 165q14 0 22 -8t8 -22v-235q0 -14 -8 -22t-22 -8h-128q-13 0 -21.5 8t-8.5 22v100h-824q-13 0 -21.5 8.5t-8.5 21.5v930q0 14 8.5 22t21.5 8h128q14 0 22 -8t8 -22v-795h198v795q0 14 8.5 22t21.5 8h116q14 0 22 -8t8 -22v-795h198v795q0 14 8.5 22t21.5 8h128 q14 0 22 -8t8 -22v-795h64z" glyph-name="uni0449" unicode="щ" vert-adv-y="1980"/>
<glyph d="M705 680q205 0 296.5 -83.5t91.5 -256.5t-91.5 -256.5t-296.5 -83.5h-496q-13 0 -21.5 8.5t-8.5 21.5v930q0 14 8.5 22t21.5 8h138q14 0 22 -8t8 -22v-280h328zM709 158q77 0 119 19t58.5 58t16.5 105t-16.5 105t-58.5 58t-119 19h-332v-364h332z" glyph-name="uni044C" unicode="ь" vert-adv-y="1980"/>
<glyph d="M705 680q205 0 296.5 -83.5t91.5 -256.5t-91.5 -256.5t-296.5 -83.5h-420q-13 0 -21.5 8.5t-8.5 21.5v795h-134q-13 0 -21.5 8.5t-8.5 21.5v105q0 14 8.5 22t21.5 8h302q14 0 22 -8t8 -22v-280h252zM709 158q77 0 119 19t58.5 58t16.5 105t-16.5 105t-58.5 58t-119 19 h-256v-364h256z" glyph-name="uni044A" unicode="ъ" vert-adv-y="1980"/>
<glyph d="M137 0q-13 0 -21.5 8.5t-8.5 21.5v930q0 14 8.5 22t21.5 8h126q14 0 22 -8t8 -22v-280h178q139 0 216.5 -36.5t108.5 -110t31 -193.5t-31 -193.5t-108.5 -110t-216.5 -36.5h-334zM967 0q-13 0 -21.5 8.5t-8.5 21.5v930q0 14 8.5 22t21.5 8h126q14 0 22 -8t8 -22v-930 q0 -13 -8 -21.5t-22 -8.5h-126zM475 158q72 0 109 19t50 57.5t13 105.5t-13 105.5t-50 57.5t-109 19h-182v-364h182z" glyph-name="uni044B" unicode="ы" vert-adv-y="1980"/>
<glyph d="M1054 233q15 -9 15 -23q0 -8 -6 -17q-65 -102 -174 -160t-245 -58q-147 0 -264 67t-183 185t-66 266t66 265.5t183 184.5t264 67q136 0 245 -58t174 -160q6 -9 6 -17q0 -13 -15 -24l-94 -64q-10 -7 -17 -7q-13 0 -23 15q-49 62 -117.5 97t-153.5 35q-82 0 -150 -33.5 t-112.5 -94t-57.5 -141.5h357q14 0 22 -8t8 -22v-80q0 -13 -8 -21.5t-22 -8.5h-355q15 -78 59.5 -137t111.5 -91t147 -32q85 0 153.5 35t117.5 97q10 15 23 15q7 0 17 -7z" glyph-name="uni0454" unicode="є" vert-adv-y="1980"/>
<glyph d="M859 943q117 -67 183 -184.5t66 -265.5t-66 -266t-183 -185t-264 -67q-136 0 -245 58t-174 160q-6 9 -6 17q0 14 15 23l94 65q11 7 17 7q13 0 23 -15q49 -62 117.5 -97t153.5 -35q80 0 147 32t111.5 91t59.5 137h-355q-13 0 -21.5 8.5t-8.5 21.5v80q0 14 8.5 22t21.5 8 h357q-13 81 -57.5 141.5t-112.5 94t-150 33.5q-85 0 -153.5 -35t-117.5 -97q-10 -15 -23 -15q-6 0 -17 7l-94 64q-15 11 -15 24q0 8 6 17q65 102 174 160t245 58q147 0 264 -67z" glyph-name="uni044D" unicode="э" vert-adv-y="1980"/>
<glyph d="M1041 168q14 0 22 -8t8 -22v-108q0 -13 -8 -21.5t-22 -8.5h-237q-135 0 -207 75.5t-72 213.5v533h-331q-13 0 -21.5 8.5t-8.5 21.5v108q0 14 8.5 22t21.5 8h499q14 0 22 -8t8 -22v-641q0 -151 150 -151h168zM333 1319.5q-32 31.5 -32 76.5q0 43 32 74.5t76 31.5 t75.5 -31.5t31.5 -74.5q0 -45 -31.5 -76.5t-75.5 -31.5t-76 31.5zM727 1319.5q-32 31.5 -32 76.5q0 43 32 74.5t76 31.5t75.5 -31.5t31.5 -74.5q0 -45 -31.5 -76.5t-75.5 -31.5t-76 31.5z" glyph-name="uni0457" unicode="ї" vert-adv-y="1980"/>
<glyph d="M1145 493q0 -519 -388 -519q-356 0 -385 436h-101v-380q0 -13 -8 -21.5t-22 -8.5h-126q-13 0 -21.5 8.5t-8.5 21.5v930q0 14 8.5 22t21.5 8h126q14 0 22 -8t8 -22v-387h101q28 439 385 439q388 0 388 -519zM920.5 243.5q48.5 87.5 48.5 249.5t-48.5 249.5t-163.5 87.5 t-163.5 -87.5t-48.5 -249.5t48.5 -249.5t163.5 -87.5t163.5 87.5z" glyph-name="uni044E" unicode="ю" vert-adv-y="1980"/>
<glyph d="M1043 982q8 -8 8 -22v-930q0 -13 -8 -21.5t-22 -8.5h-138q-13 0 -21.5 8.5t-8.5 21.5v298h-219l-270 -312q-13 -16 -36 -16h-158q-12 0 -18.5 4.5t-6.5 12.5q0 9 9 19l266 299q-138 22 -209.5 105t-71.5 219q0 159 97.5 245t282.5 86h502q14 0 22 -8zM853 486v346h-310 q-110 0 -162 -41t-52 -132t52 -132t162 -41h310z" glyph-name="uni044F" unicode="я" vert-adv-y="1980"/>
<glyph d="M1157 34q2 -8 2 -12q0 -10 -7 -16t-19 -6h-146q-26 0 -34 24l-76 265h-524l-76 -265q-8 -24 -34 -24h-146q-12 0 -19 6t-7 16q0 4 2 12l380 1282q3 12 12.5 18t22.5 6h254q13 0 22.5 -6t12.5 -18zM594 1128l-190 -660h422l-190 660h-42z" glyph-name="Alpha" unicode="Α" vert-adv-y="1980"/>
<glyph d="M162 0q-13 0 -21.5 8.5t-8.5 21.5v1280q0 14 8.5 22t21.5 8h485q211 0 304 -92t93 -233q0 -103 -51.5 -178t-165.5 -102v-20q288 -47 288 -342q0 -187 -115 -280t-369 -93h-469zM628 800q220 0 220 190q0 86 -52 125t-168 39h-290v-354h290zM631 186q99 0 159 21t88.5 67 t28.5 121q0 111 -65 170.5t-211 59.5h-293v-439h293z" glyph-name="Beta" unicode="Β" vert-adv-y="1980"/>
<glyph d="M1071 1332q8 -8 8 -22v-126q0 -13 -8 -21.5t-22 -8.5h-672v-1124q0 -13 -8 -21.5t-22 -8.5h-146q-13 0 -21.5 8.5t-8.5 21.5v1280q0 14 8.5 22t21.5 8h848q14 0 22 -8z" glyph-name="Gamma" unicode="Γ" vert-adv-y="1980"/>
<glyph d="M1162 34q2 -8 2 -12q0 -10 -7 -16t-19 -6h-1046q-12 0 -19 6t-7 16q0 4 2 12l385 1282q3 12 12.5 18t22.5 6h254q13 0 22.5 -6t12.5 -18zM636 1128h-42l-281 -963h604z" glyph-name="uni0394" unicode="Δ" vert-adv-y="1980"/>
<glyph d="M191 0q-13 0 -21.5 8.5t-8.5 21.5v1280q0 14 8.5 22t21.5 8h846q14 0 22 -8t8 -22v-126q0 -13 -8 -21.5t-22 -8.5h-670v-380h626q14 0 22 -8t8 -22v-126q0 -13 -8 -21.5t-22 -8.5h-626v-402h672q14 0 22 -8t8 -22v-126q0 -13 -8 -21.5t-22 -8.5h-848z" glyph-name="Epsilon" unicode="Ε" vert-adv-y="1980"/>
<glyph d="M161 0q-13 0 -21.5 8.5t-8.5 21.5v136q0 18 12 36l709 952h-671q-13 0 -21.5 8.5t-8.5 21.5v126q0 14 8.5 22t21.5 8h868q14 0 22 -8t8 -22v-136q0 -18 -12 -36l-709 -952h711q14 0 22 -8t8 -22v-126q0 -13 -8 -21.5t-22 -8.5h-908z" glyph-name="Zeta" unicode="Ζ" vert-adv-y="1980"/>
<glyph d="M1053 1340q14 0 22 -8t8 -22v-1280q0 -13 -8 -21.5t-22 -8.5h-146q-13 0 -21.5 8.5t-8.5 21.5v540h-524v-540q0 -13 -8 -21.5t-22 -8.5h-146q-13 0 -21.5 8.5t-8.5 21.5v1280q0 14 8.5 22t21.5 8h146q14 0 22 -8t8 -22v-554h524v554q0 14 8.5 22t21.5 8h146z" glyph-name="Eta" unicode="Η" vert-adv-y="1980"/>
<glyph d="M337.5 38.5q-109.5 68.5 -165 221.5t-55.5 405t55.5 405t165 221.5t277.5 68.5t277.5 -68.5t165 -221.5t55.5 -405t-55.5 -405t-165 -221.5t-277.5 -68.5t-277.5 68.5zM774.5 209q64.5 41 101.5 150t37 306t-37 306t-101.5 150t-159.5 41t-159.5 -41t-101.5 -150 t-37 -306t37 -306t101.5 -150t159.5 -41t159.5 41zM435 586q-13 0 -21.5 8.5t-8.5 21.5v98q0 14 8.5 22t21.5 8h360q14 0 22 -8t8 -22v-98q0 -13 -8 -21.5t-22 -8.5h-360z" glyph-name="Theta" unicode="Θ" vert-adv-y="1980"/>
<glyph d="M163 0q-13 0 -21.5 8.5t-8.5 21.5v126q0 14 8.5 22t21.5 8h349v968h-349q-13 0 -21.5 8.5t-8.5 21.5v126q0 14 8.5 22t21.5 8h904q14 0 22 -8t8 -22v-126q0 -13 -8 -21.5t-22 -8.5h-349v-968h349q14 0 22 -8t8 -22v-126q0 -13 -8 -21.5t-22 -8.5h-904z" glyph-name="Iota" unicode="Ι" vert-adv-y="1980"/>
<glyph d="M1137 36q7 -10 7 -18t-6.5 -13t-18.5 -5h-164q-12 0 -20.5 4t-15.5 14l-414 559l-173 -208v-339q0 -13 -8 -21.5t-22 -8.5h-146q-13 0 -21.5 8.5t-8.5 21.5v1280q0 14 8.5 22t21.5 8h146q14 0 22 -8t8 -22v-659l543 673q13 16 36 16h180q12 0 18.5 -4.5t6.5 -11.5 q0 -9 -9 -20l-479 -578z" glyph-name="Kappa" unicode="Κ" vert-adv-y="1980"/>
<glyph d="M742 1340q13 0 22.5 -6t12.5 -18l385 -1282q2 -8 2 -12q0 -10 -7 -16t-19 -6h-146q-26 0 -34 24l-322 1104h-42l-322 -1104q-8 -24 -34 -24h-146q-12 0 -19 6t-7 16q0 4 2 12l385 1282q3 12 12.5 18t22.5 6h254z" glyph-name="Lambda" unicode="Λ" vert-adv-y="1980"/>
<glyph d="M162 0q-13 0 -21.5 8.5t-8.5 21.5v1280q0 14 8.5 22t21.5 8h167q13 0 23.5 -5t12.5 -15l244 -994h12l244 994q2 10 12.5 15t23.5 5h167q14 0 22 -8t8 -22v-1280q0 -13 -8 -21.5t-22 -8.5h-116q-13 0 -21.5 8.5t-8.5 21.5v884h-13l-203 -791q-3 -11 -12.5 -17t-22.5 -6 h-112q-13 0 -22.5 6t-12.5 17l-203 791h-13v-884q0 -13 -8 -21.5t-22 -8.5h-116z" glyph-name="Mu" unicode="Μ" vert-adv-y="1980"/>
<glyph d="M1046 1340q14 0 22 -8t8 -22v-1280q0 -13 -8 -21.5t-22 -8.5h-180q-27 0 -36 20l-488 1022v-1012q0 -13 -8 -21.5t-22 -8.5h-128q-13 0 -21.5 8.5t-8.5 21.5v1280q0 14 8.5 22t21.5 8h182q26 0 36 -20l486 -1020v1010q0 14 8.5 22t21.5 8h128z" glyph-name="Nu" unicode="Ν" vert-adv-y="1980"/>
<glyph d="M147 1154q-13 0 -21.5 8.5t-8.5 21.5v126q0 14 8.5 22t21.5 8h936q14 0 22 -8t8 -22v-126q0 -13 -8 -21.5t-22 -8.5h-936zM199 604q-13 0 -21.5 8.5t-8.5 21.5v126q0 14 8.5 22t21.5 8h832q14 0 22 -8t8 -22v-126q0 -13 -8 -21.5t-22 -8.5h-832zM145 0q-13 0 -21.5 8.5 t-8.5 21.5v126q0 14 8.5 22t21.5 8h940q14 0 22 -8t8 -22v-126q0 -13 -8 -21.5t-22 -8.5h-940z" glyph-name="Xi" unicode="Ξ" vert-adv-y="1980"/>
<glyph d="M337.5 38.5q-109.5 68.5 -165 221.5t-55.5 405t55.5 405t165 221.5t277.5 68.5t277.5 -68.5t165 -221.5t55.5 -405t-55.5 -405t-165 -221.5t-277.5 -68.5t-277.5 68.5zM774.5 209q64.5 41 101.5 150t37 306t-37 306t-101.5 150t-159.5 41t-159.5 -41t-101.5 -150 t-37 -306t37 -306t101.5 -150t159.5 -41t159.5 41z" glyph-name="Omicron" unicode="Ο" vert-adv-y="1980"/>
<glyph d="M1061 1338q8 -8 8 -22v-1286q0 -13 -8 -21.5t-22 -8.5h-146q-13 0 -21.5 8.5t-8.5 21.5v1130h-496v-1130q0 -13 -8 -21.5t-22 -8.5h-146q-13 0 -21.5 8.5t-8.5 21.5v1286q0 14 8.5 22t21.5 8h848q14 0 22 -8z" glyph-name="Pi" unicode="Π" vert-adv-y="1980"/>
<glyph d="M641 1340q240 0 354 -114.5t114 -324.5q0 -209 -114 -324t-354 -115h-282v-432q0 -13 -8 -21.5t-22 -8.5h-146q-13 0 -21.5 8.5t-8.5 21.5v1280q0 14 8.5 22t21.5 8h458zM624 648q143 0 215 57.5t72 195.5t-72 195.5t-215 57.5h-265v-506h265z" glyph-name="Rho" unicode="Ρ" vert-adv-y="1980"/>
<glyph d="M181 0q-13 0 -21.5 8.5t-8.5 21.5v136q0 18 12 36l357 468l-357 468q-12 18 -12 36v136q0 14 8.5 22t21.5 8h868q14 0 22 -8t8 -22v-126q0 -13 -8 -21.5t-22 -8.5h-672l368 -484l-368 -484h672q14 0 22 -8t8 -22v-126q0 -13 -8 -21.5t-22 -8.5h-868z" glyph-name="Sigma" unicode="Σ" vert-adv-y="1980"/>
<glyph d="M542 0q-13 0 -21.5 8.5t-8.5 21.5v1124h-382q-13 0 -21.5 8.5t-8.5 21.5v126q0 14 8.5 22t21.5 8h970q14 0 22 -8t8 -22v-126q0 -13 -8 -21.5t-22 -8.5h-382v-1124q0 -13 -8 -21.5t-22 -8.5h-146z" glyph-name="Tau" unicode="Τ" vert-adv-y="1980"/>
<glyph d="M1132 1340q13 0 19.5 -5t6.5 -13q0 -7 -6 -18l-434 -784v-490q0 -13 -8 -21.5t-22 -8.5h-146q-13 0 -21.5 8.5t-8.5 21.5v491l-434 783q-6 11 -6 18q0 8 6.5 13t19.5 5h154q25 0 36 -20l327 -606l327 606q11 20 36 20h154z" glyph-name="Upsilon" unicode="Υ" vert-adv-y="1980"/>
<glyph d="M717 1204q236 0 342 -148t106 -386t-106 -386t-342 -148h-7v-106q0 -13 -8 -21.5t-22 -8.5h-130q-13 0 -21.5 8.5t-8.5 21.5v106h-7q-236 0 -342 148t-106 386t106 386t342 148h7v106q0 14 8.5 22t21.5 8h130q14 0 22 -8t8 -22v-106h7zM520 322v696h-7q-97 0 -153 -41 t-78.5 -117t-22.5 -190t22.5 -190t78.5 -117t153 -41h7zM717 322q97 0 153 41t78.5 117t22.5 190t-22.5 190t-78.5 117t-153 41h-7v-696h7z" glyph-name="Phi" unicode="Φ" vert-adv-y="1980"/>
<glyph d="M1138 36q6 -10 6 -18t-6.5 -13t-19.5 -5h-154q-23 0 -36 20l-313 491l-313 -491q-13 -20 -36 -20h-154q-13 0 -19.5 5t-6.5 13t6 18l413 647l-396 621q-6 11 -6 18q0 8 6.5 13t19.5 5h154q23 0 36 -20l296 -464l296 464q13 20 36 20h154q13 0 19.5 -5t6.5 -13 q0 -7 -6 -18l-396 -621z" glyph-name="Chi" unicode="Χ" vert-adv-y="1980"/>
<glyph d="M1124 1340q14 0 22 -8t8 -22v-472q0 -164 -51.5 -260.5t-146 -139.5t-238.5 -52v-356q0 -13 -8 -21.5t-22 -8.5h-146q-13 0 -21.5 8.5t-8.5 21.5v356q-144 9 -238.5 52t-146 139.5t-51.5 260.5v472q0 14 8.5 22t21.5 8h146q14 0 22 -8t8 -22v-474q0 -91 21 -141.5 t70 -74.5t139 -31v721q0 14 8.5 22t21.5 8h146q14 0 22 -8t8 -22v-721q90 7 139 31t70 74.5t21 141.5v474q0 14 8.5 22t21.5 8h146z" glyph-name="Psi" unicode="Ψ" vert-adv-y="1980"/>
<glyph d="M134 0q-11 0 -17.5 6.5t-6.5 17.5v119q0 24 24 24h189v37q-112 56 -164 198.5t-52 347.5q0 307 120.5 458.5t387.5 151.5t387.5 -151.5t120.5 -458.5q0 -205 -52 -347.5t-164 -198.5v-37h189q24 0 24 -24v-119q0 -11 -6.5 -17.5t-17.5 -6.5h-364q-11 0 -17.5 6.5 t-6.5 17.5v265q71 25 118 76.5t72 143t25 232.5q0 133 -26.5 225t-94.5 144t-187 52t-187 -52t-94.5 -144t-26.5 -225q0 -141 25 -232.5t72 -143t118 -76.5v-265q0 -11 -6.5 -17.5t-17.5 -6.5h-364z" glyph-name="uni03A9" unicode="Ω" vert-adv-y="1980"/>
<glyph d="M1157 34q2 -8 2 -12q0 -10 -7 -16t-19 -6h-146q-26 0 -34 24l-76 265h-524l-76 -265q-8 -24 -34 -24h-146q-12 0 -19 6t-7 16q0 4 2 12l380 1282q3 12 12.5 18t22.5 6h254q13 0 22.5 -6t12.5 -18zM594 1128l-190 -660h422l-190 660h-42zM39 1030q-13 0 -20.5 5t-7.5 15 q0 4 4 14l120 252q6 13 14 18.5t20 5.5h114q13 0 20.5 -5t7.5 -15q0 -4 -4 -14l-120 -252q-6 -13 -14 -18.5t-20 -5.5h-114z" glyph-name="Alphatonos" unicode="Ά" vert-adv-y="1980"/>
<glyph d="M191 0q-13 0 -21.5 8.5t-8.5 21.5v1280q0 14 8.5 22t21.5 8h846q14 0 22 -8t8 -22v-126q0 -13 -8 -21.5t-22 -8.5h-670v-380h626q14 0 22 -8t8 -22v-126q0 -13 -8 -21.5t-22 -8.5h-626v-402h672q14 0 22 -8t8 -22v-126q0 -13 -8 -21.5t-22 -8.5h-848zM-190 1030 q-13 0 -20.5 5t-7.5 15q0 4 4 14l120 252q6 13 14 18.5t20 5.5h114q13 0 20.5 -5t7.5 -15q0 -4 -4 -14l-120 -252q-6 -13 -14 -18.5t-20 -5.5h-114z" glyph-name="Epsilontonos" unicode="Έ" vert-adv-y="1980"/>
<glyph d="M1053 1340q14 0 22 -8t8 -22v-1280q0 -13 -8 -21.5t-22 -8.5h-146q-13 0 -21.5 8.5t-8.5 21.5v540h-524v-540q0 -13 -8 -21.5t-22 -8.5h-146q-13 0 -21.5 8.5t-8.5 21.5v1280q0 14 8.5 22t21.5 8h146q14 0 22 -8t8 -22v-554h524v554q0 14 8.5 22t21.5 8h146zM-204 1030 q-13 0 -20.5 5t-7.5 15q0 4 4 14l120 252q6 13 14 18.5t20 5.5h114q13 0 20.5 -5t7.5 -15q0 -4 -4 -14l-120 -252q-6 -13 -14 -18.5t-20 -5.5h-114z" glyph-name="Etatonos" unicode="Ή" vert-adv-y="1980"/>
<glyph d="M163 0q-13 0 -21.5 8.5t-8.5 21.5v126q0 14 8.5 22t21.5 8h349v968h-349q-13 0 -21.5 8.5t-8.5 21.5v126q0 14 8.5 22t21.5 8h904q14 0 22 -8t8 -22v-126q0 -13 -8 -21.5t-22 -8.5h-349v-968h349q14 0 22 -8t8 -22v-126q0 -13 -8 -21.5t-22 -8.5h-904zM-210 1030 q-13 0 -20.5 5t-7.5 15q0 4 4 14l120 252q6 13 14 18.5t20 5.5h114q13 0 20.5 -5t7.5 -15q0 -4 -4 -14l-120 -252q-6 -13 -14 -18.5t-20 -5.5h-114z" glyph-name="Iotatonos" unicode="Ί" vert-adv-y="1980"/>
<glyph d="M337.5 38.5q-109.5 68.5 -165 221.5t-55.5 405t55.5 405t165 221.5t277.5 68.5t277.5 -68.5t165 -221.5t55.5 -405t-55.5 -405t-165 -221.5t-277.5 -68.5t-277.5 68.5zM774.5 209q64.5 41 101.5 150t37 306t-37 306t-101.5 150t-159.5 41t-159.5 -41t-101.5 -150 t-37 -306t37 -306t101.5 -150t159.5 -41t159.5 41zM-132 1030q-13 0 -20.5 5t-7.5 15q0 4 4 14l120 252q6 13 14 18.5t20 5.5h114q13 0 20.5 -5t7.5 -15q0 -4 -4 -14l-120 -252q-6 -13 -14 -18.5t-20 -5.5h-114z" glyph-name="Omicrontonos" unicode="Ό" vert-adv-y="1980"/>
<glyph d="M1132 1340q13 0 19.5 -5t6.5 -13q0 -7 -6 -18l-434 -784v-490q0 -13 -8 -21.5t-22 -8.5h-146q-13 0 -21.5 8.5t-8.5 21.5v491l-434 783q-6 11 -6 18q0 8 6.5 13t19.5 5h154q25 0 36 -20l327 -606l327 606q11 20 36 20h154zM-292 1030q-13 0 -20.5 5t-7.5 15q0 4 4 14 l120 252q6 13 14 18.5t20 5.5h114q13 0 20.5 -5t7.5 -15q0 -4 -4 -14l-120 -252q-6 -13 -14 -18.5t-20 -5.5h-114z" glyph-name="Upsilontonos" unicode="Ύ" vert-adv-y="1980"/>
<glyph d="M134 0q-11 0 -17.5 6.5t-6.5 17.5v119q0 24 24 24h189v37q-112 56 -164 198.5t-52 347.5q0 307 120.5 458.5t387.5 151.5t387.5 -151.5t120.5 -458.5q0 -205 -52 -347.5t-164 -198.5v-37h189q24 0 24 -24v-119q0 -11 -6.5 -17.5t-17.5 -6.5h-364q-11 0 -17.5 6.5 t-6.5 17.5v265q71 25 118 76.5t72 143t25 232.5q0 133 -26.5 225t-94.5 144t-187 52t-187 -52t-94.5 -144t-26.5 -225q0 -141 25 -232.5t72 -143t118 -76.5v-265q0 -11 -6.5 -17.5t-17.5 -6.5h-364zM-136 1030q-13 0 -20.5 5t-7.5 15q0 4 4 14l120 252q6 13 14 18.5t20 5.5 h114q13 0 20.5 -5t7.5 -15q0 -4 -4 -14l-120 -252q-6 -13 -14 -18.5t-20 -5.5h-114z" glyph-name="Omegatonos" unicode="Ώ" vert-adv-y="1980"/>
<glyph d="M163 0q-13 0 -21.5 8.5t-8.5 21.5v126q0 14 8.5 22t21.5 8h349v968h-349q-13 0 -21.5 8.5t-8.5 21.5v126q0 14 8.5 22t21.5 8h904q14 0 22 -8t8 -22v-126q0 -13 -8 -21.5t-22 -8.5h-349v-968h349q14 0 22 -8t8 -22v-126q0 -13 -8 -21.5t-22 -8.5h-904zM343 1669.5 q-32 31.5 -32 76.5q0 43 32 74.5t76 31.5t75.5 -31.5t31.5 -74.5q0 -45 -31.5 -76.5t-75.5 -31.5t-76 31.5zM737 1669.5q-32 31.5 -32 76.5q0 43 32 74.5t76 31.5t75.5 -31.5t31.5 -74.5q0 -45 -31.5 -76.5t-75.5 -31.5t-76 31.5z" glyph-name="Iotadieresis" unicode="Ϊ" vert-adv-y="1980"/>
<glyph d="M1132 1340q13 0 19.5 -5t6.5 -13q0 -7 -6 -18l-434 -784v-490q0 -13 -8 -21.5t-22 -8.5h-146q-13 0 -21.5 8.5t-8.5 21.5v491l-434 783q-6 11 -6 18q0 8 6.5 13t19.5 5h154q25 0 36 -20l327 -606l327 606q11 20 36 20h154zM343 1669.5q-32 31.5 -32 76.5q0 43 32 74.5 t76 31.5t75.5 -31.5t31.5 -74.5q0 -45 -31.5 -76.5t-75.5 -31.5t-76 31.5zM737 1669.5q-32 31.5 -32 76.5q0 43 32 74.5t76 31.5t75.5 -31.5t31.5 -74.5q0 -45 -31.5 -76.5t-75.5 -31.5t-76 31.5z" glyph-name="Upsilondieresis" unicode="Ϋ" vert-adv-y="1980"/>
<glyph d="M1150 16q6 -142 -57 -232t-162.5 -129.5t-209.5 -39.5q-94 0 -172.5 26t-124 62t-45.5 62q0 7 3 12l58 93q9 13 23 13q9 0 22 -8q49 -34 101.5 -57t126.5 -23q62 0 114 19.5t82 53.5t30 75q0 33 -20 66l-7 7l-361 413l-206 -208v-191q0 -13 -8 -21.5t-22 -8.5h-138 q-13 0 -21.5 8.5t-8.5 21.5v930q0 14 8.5 22t21.5 8h138q14 0 22 -8t8 -22v-498l502 512q15 16 38 16h171q12 0 19 -4.5t7 -11.5q0 -9 -11 -20l-392 -396l458 -522q9 -10 9 -20h4z" glyph-name="uni03CF" unicode="Ϗ" vert-adv-y="1980"/>
<glyph d="M1180 125v-114q0 -20 -26.5 -28.5t-58.5 -8.5q-82 0 -123.5 54t-41.5 140v20q-58 -101 -152.5 -157.5t-216.5 -56.5q-133 0 -238.5 67.5t-165 186t-59.5 265.5t59.5 265.5t165 186t238.5 67.5q107 0 194 -44.5t146 -124.5v117q0 14 8.5 22t21.5 8h138q14 0 22 -8t8 -22 v-727q0 -45 13.5 -67t49.5 -24q18 -1 18 -17zM751.5 198.5q69.5 42.5 109.5 119t40 175.5t-40 175.5t-109.5 119t-156.5 42.5t-157 -42.5t-110 -119t-40 -175.5t40 -175.5t110 -119t157 -42.5t156.5 42.5z" glyph-name="alpha" unicode="α" vert-adv-y="1980"/>
<glyph d="M1104 384q0 -202 -131.5 -293t-400.5 -91h-248v-350q0 -14 -8 -22t-22 -8h-138q-13 0 -21.5 8t-8.5 22v1361q0 188 113 288.5t335 100.5q142 0 243 -41.5t154 -121t53 -191.5q0 -125 -63 -200t-168 -100q311 -56 311 -362zM556 161q122 0 199.5 20t118 70t40.5 140 q0 137 -92.5 196t-269.5 59h-86q-13 0 -21.5 8.5t-8.5 21.5v101q0 14 8.5 22t21.5 8h86q139 0 210.5 55t71.5 162q0 99 -64.5 148t-196.5 49q-138 0 -193.5 -52t-55.5 -158v-850h232z" glyph-name="beta" unicode="β" vert-adv-y="1980"/>
<glyph d="M1058 808q16 -88 16 -173q0 -183 -64.5 -308.5t-149 -193.5t-181.5 -117q-6 -3 -7 -4v-362q0 -14 -8 -22t-22 -8h-138q-13 0 -21.5 8t-8.5 22v413l-343 893q-3 8 -3 14q0 20 27 20h139q12 0 22 -6t14 -18l293 -775q120 53 188 172t68 280q0 163 -69 318q-3 8 -3 13 q0 16 18 16h160q16 0 22 -15q35 -79 51 -167z" glyph-name="gamma" unicode="γ" vert-adv-y="1980"/>
<glyph d="M923 910q93 -70 145 -178.5t52 -238.5q0 -146 -65 -264.5t-180.5 -186t-259.5 -67.5t-259.5 67.5t-180.5 186t-65 264.5q0 129 52 237.5t145.5 179.5t213.5 92q-75 53 -117.5 88t-78 88t-35.5 116q0 54 24.5 98.5t72 71t111.5 26.5h447q24 0 24 -24v-126q0 -24 -24 -24 h-377q-35 0 -52 -14t-17 -37q0 -31 26.5 -57.5t80.5 -64.5l25 -18l293 -214zM776 200.5q71 42.5 111 118.5t40 174t-40 174t-111 118t-161 42t-161 -42t-111 -118t-40 -174t40 -174t111 -118.5t161 -42.5t161 42.5z" glyph-name="delta" unicode="δ" vert-adv-y="1980"/>
<glyph d="M321 17q-108 43 -150 106t-42 133q0 80 49.5 144t147.5 94q-87 31 -131 93.5t-44 139.5q0 71 40 135t143.5 107.5t281.5 43.5q250 0 460 -87q15 -6 15 -26v-141q0 -16 -13 -16q-7 0 -14 4q-212 84 -440 84q-130 0 -199.5 -31t-69.5 -102q0 -62 55.5 -93t160.5 -31h286 q14 0 22 -8t8 -22v-100q0 -13 -8 -21.5t-22 -8.5h-286q-115 0 -176 -31t-61 -95q0 -71 74.5 -101.5t212.5 -30.5q115 0 227 19.5t226 65.5q10 4 14 4q13 0 13 -16v-142q0 -20 -15 -26q-208 -87 -472 -87q-185 0 -293 43z" glyph-name="epsilon" unicode="ε" vert-adv-y="1980"/>
<glyph d="M429.5 341.5q38.5 -56.5 94.5 -87.5t155 -69q114 -43 183.5 -83.5t118 -121t48.5 -214.5v-116q0 -14 -8 -22t-22 -8h-138q-13 0 -21.5 8t-8.5 22v69q0 105 -41.5 169.5t-101.5 99t-164 75.5q-107 42 -171 79.5t-108 109t-44 187.5q0 134 60.5 283t165.5 283.5t234 226.5 h-419q-13 0 -21.5 8.5t-8.5 21.5v108q0 14 8.5 22t21.5 8h655q14 0 22 -8t8 -22v-138q-119 -44 -245 -169t-208.5 -282.5t-82.5 -291.5q0 -91 38.5 -147.5z" glyph-name="zeta" unicode="ζ" vert-adv-y="1980"/>
<glyph d="M930.5 963.5q83.5 -48.5 131 -141t47.5 -220.5v-952q0 -14 -8 -22t-22 -8h-138q-13 0 -21.5 8t-8.5 22v915q0 79 -30.5 138.5t-87.5 92.5t-136 33t-137.5 -33t-89.5 -92.5t-31 -138.5v-535q0 -13 -8 -21.5t-22 -8.5h-138q-13 0 -21.5 8.5t-8.5 21.5v723q0 45 -14 67 t-50 24q-18 2 -18 17v114q0 20 30 28.5t64 8.5q86 0 136 -52t50 -138v-2h25q38 87 120.5 139.5t194.5 52.5q108 0 191.5 -48.5z" glyph-name="eta" unicode="η" vert-adv-y="1980"/>
</font>
</defs>
</svg>
