<?xml version="1.0" encoding="UTF-8"?>
<!DOCTYPE svg  PUBLIC '-//W3C//DTD SVG 1.1//EN'  'http://www.w3.org/Graphics/SVG/1.1/DTD/svg11.dtd'>
<svg version="1.1" xmlns="http://www.w3.org/2000/svg">
<defs>
<font id="CartographCF-RegularItalic" horiz-adv-x="1230" vert-adv-y="2000">
<font-face font-family="Cartograph CF" font-style="italic" font-weight="400" ascent="1600" bbox="-897.133 -691 4805 2000" cap-height="1340" descent="-400" panose-1="0 0 5 9 0 0 0 0 0 0" slope="-8" underline-position="-100" underline-thickness="50" unicode-range="U+0020-FFFD" units-per-em="2000" x-height="990"/>
<missing-glyph d="M184 1600h628v-1980h-628v1980zM659 1402v65h-326v-65h128v-73h-130v-66h328v66h-130v73h130zM529 1073v139h-198v-206h328v67h-130zM396 1145h65v-72h-65v72zM659 887v66h-328v-66h130v-73h-130v-65h198v138h130zM659 636v198h-65v-131h-263v-67h328zM659 368v224h-198 v-111h68v46h65v-93h-198v158h-65v-224h328zM659 26v224h-328v-224h328zM396 184h198v-93h-198v93zM659 -85v65h-328v-65h138l-138 -93v-65h328v65h-202l139 93h63z" horiz-adv-x="990" vert-adv-y="1980"/>
<glyph d="M305 0q-13 0 -22 6t-10 18l-106 932q-5 34 29 34h120q13 0 22 -6t10 -18l76 -741l286 741q4 11 15.5 17.5t24.5 6.5h100q13 0 22 -6t10 -18l80 -741l282 741q4 11 15.5 17.5t24.5 6.5h147q13 0 22 -6t10 -18l75 -741l287 741q4 11 15.5 17.5t24.5 6.5h100q13 0 22 -6 t10 -18l79 -741l283 741q4 11 15.5 17.5t24.5 6.5h147q13 0 22 -6t10 -18l75 -741l287 741q4 11 15.5 17.5t24.5 6.5h100q13 0 22 -6t10 -18l79 -741l283 741q4 11 15.5 17.5t24.5 6.5h120q23 0 23 -17q0 -8 -4 -17l-368 -932q-4 -11 -15.5 -17.5t-24.5 -6.5h-149 q-13 0 -22 6t-10 18l-74 688l-267 -688q-4 -11 -15.5 -17.5t-24.5 -6.5h-149q-13 0 -22 6t-10 18l-64 722l-268 -722q-4 -11 -15.5 -17.5t-24.5 -6.5h-148q-13 0 -22 6t-10 18l-75 688l-267 -688q-4 -11 -15.5 -17.5t-24.5 -6.5h-148q-13 0 -22 6.5t-10 17.5l-65 722 l-267 -722q-4 -11 -15.5 -17.5t-24.5 -6.5h-149q-13 0 -22 6t-10 18l-75 688l-266 -688q-4 -11 -15.5 -17.5t-24.5 -6.5h-149z" glyph-name="w_w_w.liga" horiz-adv-x="3690" unicode="www" vert-adv-y="1980"/>
<glyph d="M2947 1110l131 116l485 -565l-644 -565l-99 116l428 366h-3087l24 166h3086z" glyph-name="hyphen_hyphen_greater.liga" horiz-adv-x="3690" unicode="--&gt;" vert-adv-y="1980"/>
<glyph d="M1717 1110l131 116l485 -565l-644 -565l-99 116l428 366h-1857l24 166h1856z" glyph-name="hyphen_greater.liga" horiz-adv-x="2460" unicode="-&gt;" vert-adv-y="1980"/>
<glyph d="M2327 1118l131 116l486 -565l-645 -565l-99 116l428 366h-2465l23 166h2465zM2948 1118l131 116l485 -565l-644 -565l-99 116l525 449z" glyph-name="hyphen_greater_greater.liga" horiz-adv-x="3690" unicode="-&gt;&gt;" vert-adv-y="1980"/>
<glyph d="M2947 1110l131 116l485 -565l-644 -565l-99 116l428 366h-3087l24 166h3086z" glyph-name="endash_endash_greater.liga" horiz-adv-x="3690" unicode="––&gt;" vert-adv-y="1980"/>
<glyph d="M1717 1110l131 116l485 -565l-644 -565l-99 116l428 366h-1857l24 166h1856z" glyph-name="endash_greater.liga" horiz-adv-x="2460" unicode="–&gt;" vert-adv-y="1980"/>
<glyph d="M2327 1118l131 116l486 -565l-645 -565l-99 116l428 366h-2465l23 166h2465zM2948 1118l131 116l485 -565l-644 -565l-99 116l525 449z" glyph-name="endash_greater_greater.liga" horiz-adv-x="3690" unicode="–&gt;&gt;" vert-adv-y="1980"/>
<glyph d="M561.5 488.5q-45.5 26.5 -72 72t-26.5 100.5t26.5 100.5t72 72t100.5 26.5t100.5 -26.5t72 -72t26.5 -100.5t-26.5 -100.5t-72 -72t-100.5 -26.5t-100.5 26.5zM2225 744q32 0 28 -32l-15 -106q-4 -28 -32 -28h-939q-32 0 -28 32l15 106q4 28 32 28h939z" glyph-name="period_hyphen.liga" horiz-adv-x="2460" unicode=".-" vert-adv-y="1980"/>
<glyph d="M561.5 488.5q-45.5 26.5 -72 72t-26.5 100.5t26.5 100.5t72 72t100.5 26.5t100.5 -26.5t72 -72t26.5 -100.5t-26.5 -100.5t-72 -72t-100.5 -26.5t-100.5 26.5zM2225 744q32 0 28 -32l-15 -106q-4 -28 -32 -28h-939q-32 0 -28 32l15 106q4 28 32 28h939z" glyph-name="period_endash.liga" horiz-adv-x="2460" unicode=".–" vert-adv-y="1980"/>
<glyph d="M1342 795q-13 0 -20.5 8t-5.5 22l14 97q1 13 10.5 21.5t23.5 8.5h892q13 0 20.5 -8t5.5 -22l-14 -97q-1 -13 -10.5 -21.5t-23.5 -8.5h-892zM561.5 488.5q-45.5 26.5 -72 72t-26.5 100.5t26.5 100.5t72 72t100.5 26.5t100.5 -26.5t72 -72t26.5 -100.5t-26.5 -100.5 t-72 -72t-100.5 -26.5t-100.5 26.5zM1282 369q-14 0 -21 8.5t-5 21.5l13 97q2 13 12 21.5t23 8.5h892q14 0 20.5 -8t4.5 -22l-13 -97q-2 -14 -11.5 -22t-22.5 -8h-892z" glyph-name="period_equal.liga" horiz-adv-x="2460" unicode=".=" vert-adv-y="1980"/>
<glyph d="M1530 -2q-41 24 -65 65.5t-24 90.5q0 50 24 91.5t65 65.5t91 24t91 -24t65 -65.5t24 -91.5q0 -49 -24 -90.5t-65 -65.5t-91 -24t-91 24zM1625 673q-41 24 -65 65.5t-24 90.5q0 50 24 91.5t65 65.5t91 24t91 -24t65 -65.5t24 -91.5q0 -49 -24 -90.5t-65 -65.5t-91 -24 t-91 24zM652 -2q-41 24 -65 65.5t-24 90.5q0 50 24 91.5t65 65.5t91 24t91 -24t65 -65.5t24 -91.5q0 -49 -24 -90.5t-65 -65.5t-91 -24t-91 24zM747 673q-41 24 -65 65.5t-24 90.5q0 50 24 91.5t65 65.5t91 24t91 -24t65 -65.5t24 -91.5q0 -49 -24 -90.5t-65 -65.5t-91 -24 t-91 24z" glyph-name="colon_colon.liga" horiz-adv-x="2460" unicode="::" vert-adv-y="1980"/>
<glyph d="M1706 -2q-41 24 -65 65.5t-24 90.5q0 50 24 91.5t65 65.5t91 24t91 -24t65 -65.5t24 -91.5q0 -49 -24 -90.5t-65 -65.5t-91 -24t-91 24zM1801 673q-41 24 -65 65.5t-24 90.5q0 50 24 91.5t65 65.5t91 24t91 -24t65 -65.5t24 -91.5q0 -49 -24 -90.5t-65 -65.5t-91 -24 t-91 24zM2730 -2q-41 24 -65 65.5t-24 90.5q0 50 24 91.5t65 65.5t91 24t91 -24t65 -65.5t24 -91.5q0 -49 -24 -90.5t-65 -65.5t-91 -24t-91 24zM2825 673q-41 24 -65 65.5t-24 90.5q0 50 24 91.5t65 65.5t91 24t91 -24t65 -65.5t24 -91.5q0 -49 -24 -90.5t-65 -65.5 t-91 -24t-91 24zM682 -2q-41 24 -65 65.5t-24 90.5q0 50 24 91.5t65 65.5t91 24t91 -24t65 -65.5t24 -91.5q0 -49 -24 -90.5t-65 -65.5t-91 -24t-91 24zM777 673q-41 24 -65 65.5t-24 90.5q0 50 24 91.5t65 65.5t91 24t91 -24t65 -65.5t24 -91.5q0 -49 -24 -90.5t-65 -65.5 t-91 -24t-91 24z" glyph-name="colon_colon_colon.liga" horiz-adv-x="3690" unicode=":::" vert-adv-y="1980"/>
<glyph d="M1799 173q14 0 20.5 -8.5t4.5 -21.5l-8 -62q-19 -134 -44 -252t-49 -196q-9 -23 -38 -23h-106q-25 0 -25 19q0 3 2 13q43 217 61 358h-247q-13 0 -20.5 8t-5.5 22l16 113q2 14 12 22t23 8h404zM1624 673q-41 24 -65 65.5t-24 90.5q0 50 24 91.5t65 65.5t91 24t91 -24 t65 -65.5t24 -91.5q0 -49 -24 -90.5t-65 -65.5t-91 -24t-91 24zM921 173q14 0 20.5 -8.5t4.5 -21.5l-8 -62q-19 -134 -44 -252t-49 -196q-9 -23 -38 -23h-106q-25 0 -25 19q0 3 2 13q43 217 61 358h-247q-13 0 -20.5 8t-5.5 22l16 113q2 14 12 22t23 8h404zM746 673 q-41 24 -65 65.5t-24 90.5q0 50 24 91.5t65 65.5t91 24t91 -24t65 -65.5t24 -91.5q0 -49 -24 -90.5t-65 -65.5t-91 -24t-91 24z" glyph-name="semicolon_semicolon.liga" horiz-adv-x="2460" unicode=";;" vert-adv-y="1980"/>
<glyph d="M2355 952q13 0 20.5 -8t5.5 -22l-14 -97q-1 -13 -10.5 -21.5t-23.5 -8.5h-919l-157 -269h1038q14 0 20.5 -8.5t4.5 -21.5l-13 -97q-2 -14 -11.5 -22t-22.5 -8h-1108l-299 -511q-12 -22 -43 -22h-136q-12 0 -18 4.5t-6 12.5t6 19l290 497h-807q-14 0 -21 8.5t-5 21.5 l13 97q2 13 12 21.5t23 8.5h877l157 269h-996q-14 0 -21 8.5t-5 21.5l13 97q2 13 12 21.5t23 8.5h1066l317 542q12 22 42 22h138q12 0 18 -4.5t6 -12.5t-6 -19l-309 -528h849z" glyph-name="exclam_equal.liga" horiz-adv-x="2460" unicode="!=" vert-adv-y="1980"/>
<glyph d="M3615 1164q14 0 21 -8.5t5 -21.5l-14 -96q-2 -14 -11.5 -22t-22.5 -8h-1436l-149 -256h1549q14 0 21 -8.5t5 -21.5l-14 -96q-2 -14 -11.5 -22t-22.5 -8h-1619l-149 -256h1732q14 0 21 -8.5t5 -21.5l-14 -96q-2 -14 -11.5 -22t-22.5 -8h-1802l-194 -332q-12 -22 -43 -22 h-136q-12 0 -18 4.5t-6 12.5t6 19l186 318h-1345q-14 0 -21 8.5t-5 21.5l14 96q2 14 11.5 22t22.5 8h1414l150 256h-1528q-14 0 -21 8.5t-5 21.5l14 96q2 14 11.5 22t22.5 8h1597l149 256h-1710q-14 0 -21 8.5t-5 21.5l14 96q2 14 11.5 22t22.5 8h1780l189 324q12 22 42 22 h138q12 0 18 -4.5t6 -12.5t-6 -19l-181 -310h1366z" glyph-name="exclam_equal_equal.liga" horiz-adv-x="3690" unicode="!==" vert-adv-y="1980"/>
<glyph d="M1423 1005q5 -47 -44 -59l-342 -85l178 -275q9 -13 9 -27q0 -25 -30 -43l-95 -58q-19 -11 -31 -11q-20 0 -33 24l-151 278l-230 -278q-19 -24 -40 -24q-12 0 -28 11l-79 58q-19 14 -19 33t17 37l242 275l-305 85q-31 9 -31 35q0 9 5 24l37 96q7 19 20.5 29.5t30.5 10.5 q9 0 18 -3l302 -98l45 341q3 22 19 35.5t38 13.5h101q23 0 35 -13.5t8 -35.5l-57 -341l342 98q9 3 18 3q17 0 27.5 -10.5t11.5 -29.5zM1244 -260q-12 0 -18 4.5t-6 12.5t6 19l948 1622q12 22 42 22h138q12 0 18 -4.5t6 -12.5t-6 -19l-949 -1622q-12 -22 -43 -22h-136z" glyph-name="asterisk_slash.liga" horiz-adv-x="2460" unicode="*/" vert-adv-y="1980"/>
<glyph d="M70 -260q-12 0 -18 4.5t-6 12.5t6 19l948 1622q12 22 42 22h138q12 0 18 -4.5t6 -12.5t-6 -19l-949 -1622q-12 -22 -43 -22h-136zM2357 1005q5 -47 -44 -59l-342 -85l178 -275q9 -13 9 -27q0 -25 -30 -43l-95 -58q-19 -11 -31 -11q-20 0 -33 24l-151 278l-230 -278 q-19 -24 -40 -24q-12 0 -28 11l-79 58q-19 14 -19 33t17 37l242 275l-305 85q-31 9 -31 35q0 9 5 24l37 96q7 19 20.5 29.5t30.5 10.5q9 0 18 -3l302 -98l45 341q3 22 19 35.5t38 13.5h101q23 0 35 -13.5t8 -35.5l-57 -341l342 98q9 3 18 3q17 0 27.5 -10.5t11.5 -29.5z" glyph-name="slash_asterisk.liga" horiz-adv-x="2460" unicode="/*" vert-adv-y="1980"/>
<glyph d="M2172 609q20 -12 17 -36l-16 -119q-3 -22 -27 -35l-770 -423q-9 -5 -18 -5q-15 0 -21 16l-42 105q-2 4 -2 12q0 20 19 30l680 365l-849 545l-762 -1302q-12 -22 -42 -22h-137q-12 0 -18 4.5t-6 12.5t6 19l949 1622q12 22 42 22h136q12 0 18.5 -5t6.5 -13q0 -7 -6 -18 l-100 -170z" glyph-name="slash_greater.liga" horiz-adv-x="2460" unicode="/&gt;" vert-adv-y="1980"/>
<glyph d="M1186 -260q-12 0 -18 4.5t-6 12.5t6 19l948 1622q12 22 42 22h138q12 0 18 -4.5t6 -12.5t-6 -19l-949 -1622q-12 -22 -43 -22h-136zM188 -260q-12 0 -18 4.5t-6 12.5t6 19l948 1622q12 22 42 22h138q12 0 18 -4.5t6 -12.5t-6 -19l-949 -1622q-12 -22 -43 -22h-136z" glyph-name="slash_slash.liga" horiz-adv-x="2460" unicode="//" vert-adv-y="1980"/>
<glyph d="M2367 -166h-2460l23 166h2460z" glyph-name="underscore_underscore.liga" horiz-adv-x="2460" unicode="__" vert-adv-y="1980"/>
<glyph d="M212 795q-14 0 -21 8.5t-5 21.5l13 97q2 13 12 21.5t23 8.5h2121q13 0 20.5 -8t5.5 -22l-14 -97q-1 -13 -10.5 -21.5t-23.5 -8.5h-2121zM152 369q-14 0 -21 8.5t-5 21.5l13 97q2 13 12 21.5t23 8.5h2121q14 0 20.5 -8.5t4.5 -21.5l-13 -97q-2 -14 -11.5 -22t-22.5 -8 h-2121z" glyph-name="equal_equal.liga" horiz-adv-x="2460" unicode="==" vert-adv-y="1980"/>
<glyph d="M241 1008q-14 0 -21 8.5t-5 21.5l14 96q2 14 11.5 22t22.5 8h3352q14 0 21 -8.5t5 -21.5l-14 -96q-2 -14 -11.5 -22t-22.5 -8h-3352zM183 596q-14 0 -21 8.5t-5 21.5l14 96q2 14 11.5 22t22.5 8h3352q14 0 21 -8.5t5 -21.5l-14 -96q-2 -14 -11.5 -22t-22.5 -8h-3352z M125 184q-14 0 -21 8.5t-5 21.5l14 96q2 14 11.5 22t22.5 8h3352q14 0 21 -8.5t5 -21.5l-14 -96q-2 -14 -11.5 -22t-22.5 -8h-3352z" glyph-name="equal_equal_equal.liga" horiz-adv-x="3690" unicode="===" vert-adv-y="1980"/>
<glyph d="M3078 1226l485 -565l-644 -565l-99 116l184 157h-2852q-14 0 -21 8.5t-5 21.5l13 97q2 13 12 21.5t23 8.5h3013l158 135l-119 134h-3015q-13 0 -20.5 8t-5.5 22l14 97q1 13 10.5 21.5t23.5 8.5h2854l-140 158z" glyph-name="equal_equal_greater.liga" horiz-adv-x="3690" unicode="==&gt;" vert-adv-y="1980"/>
<glyph d="M1848 1226l485 -565l-644 -565l-99 116l184 157h-1622q-14 0 -21 8.5t-5 21.5l13 97q2 13 12 21.5t23 8.5h1783l158 135l-119 134h-1785q-13 0 -20.5 8t-5.5 22l14 97q1 13 10.5 21.5t23.5 8.5h1624l-140 158z" glyph-name="equal_greater.liga" horiz-adv-x="2460" unicode="=&gt;" vert-adv-y="1980"/>
<glyph d="M2457 1226l485 -565l-644 -565l-98 116l183 157h-2231q-14 0 -21 8.5t-5 21.5l13 97q2 13 12 21.5t23 8.5h2392l158 135l-119 134h-2394q-13 0 -20.5 8t-5.5 22l14 97q1 13 10.5 21.5t23.5 8.5h2233l-140 158zM2947 1110l131 116l485 -565l-644 -565l-99 116l525 449z " glyph-name="equal_greater_greater.liga" horiz-adv-x="3690" unicode="=&gt;&gt;" vert-adv-y="1980"/>
<glyph d="M3615 1164q14 0 21 -8.5t5 -21.5l-14 -96q-2 -14 -11.5 -22t-22.5 -8h-1424l-150 -256h1538q14 0 21 -8.5t5 -21.5l-14 -96q-2 -14 -11.5 -22t-22.5 -8h-1607l-150 -256h1721q14 0 21 -8.5t5 -21.5l-14 -96q-2 -14 -11.5 -22t-22.5 -8h-1790l-194 -331q-6 -12 -16.5 -17 t-26.5 -5h-136q-24 0 -24 17q0 8 6 19l185 317h-1356q-14 0 -21 8.5t-5 21.5l14 96q2 14 11.5 22t22.5 8h1425l150 256h-1539q-14 0 -21 8.5t-5 21.5l14 96q2 14 11.5 22t22.5 8h1608l150 256h-1722q-14 0 -21 8.5t-5 21.5l14 96q2 14 11.5 22t22.5 8h1791l190 325 q12 22 42 22h138q12 0 18 -4.5t6 -12.5t-6 -19l-182 -311h1355z" glyph-name="equal_slash_equal.liga" horiz-adv-x="3690" unicode="=/=" vert-adv-y="1980"/>
<glyph d="M2945 1098l131 116l485 -565l-644 -565l-99 116l428 366h-2490l-549 -482l-99 116l525 449l-399 449l132 116l414 -482h2489z" glyph-name="greater_hyphen_greater.liga" horiz-adv-x="3690" unicode="&gt;-&gt;" vert-adv-y="1980"/>
<glyph d="M2945 1098l131 116l485 -565l-644 -565l-99 116l428 366h-2490l-549 -482l-99 116l525 449l-399 449l132 116l414 -482h2489z" glyph-name="greater_endash_greater.liga" horiz-adv-x="3690" unicode="&gt;–&gt;" vert-adv-y="1980"/>
<glyph d="M1077 969q20 -12 17 -35l-16 -119q-3 -21 -27 -36l-767 -423q-9 -5 -18 -5q-14 0 -21 16l-47 102q-3 6 -3 13q0 18 20 29l685 368l-577 367q-13 7 -13 21q0 9 7 19l68 95q12 16 25 16q9 0 17 -5zM226 -64q-9 -5 -18 -5q-14 0 -21 16l-44 100q-3 8 -3 13q0 17 20 28 l771 422q9 5 18 5q15 0 22 -16l44 -100q3 -6 3 -13q0 -17 -20 -28z" glyph-name="greater_equal.liga" unicode="&gt;=" vert-adv-y="1980"/>
<glyph d="M2947 1110l131 116l485 -565l-644 -565l-99 116l184 157h-2484l-312 -273l-98 116l524 449l-397 449l130 116l236 -274h2484zM853 661l-154 -135h2488l158 135l-119 134h-2488z" glyph-name="greater_equal_greater.liga" horiz-adv-x="3690" unicode="&gt;=&gt;" vert-adv-y="1980"/>
<glyph d="M490 752h1856l-23 -166h-1856l324 -366l-131 -116l-486 565l645 565l98 -116z" glyph-name="less_hyphen.liga" horiz-adv-x="2460" unicode="&lt;-" vert-adv-y="1980"/>
<glyph d="M487 732h3086l-23 -166h-3086l324 -366l-131 -116l-486 565l645 565l98 -116z" glyph-name="less_hyphen_hyphen.liga" horiz-adv-x="3690" unicode="&lt;--" vert-adv-y="1980"/>
<glyph d="M2947 1110l131 116l485 -565l-644 -565l-99 116l428 366h-2782l324 -366l-131 -116l-486 565l645 565l98 -116l-427 -366h2782z" glyph-name="less_hyphen_greater.liga" horiz-adv-x="3690" unicode="&lt;-&gt;" vert-adv-y="1980"/>
<glyph d="M3528 1226l99 -116l-525 -449l398 -449l-131 -116l-415 482h-2488l324 -366l-131 -116l-486 565l645 565l98 -116l-427 -366h2489z" glyph-name="less_hyphen_less.liga" horiz-adv-x="3690" unicode="&lt;-&lt;" vert-adv-y="1980"/>
<glyph d="M490 752h1856l-23 -166h-1856l324 -366l-131 -116l-486 565l645 565l98 -116z" glyph-name="less_endash.liga" horiz-adv-x="2460" unicode="&lt;–" vert-adv-y="1980"/>
<glyph d="M487 732h3086l-23 -166h-3086l324 -366l-131 -116l-486 565l645 565l98 -116z" glyph-name="less_endash_endash.liga" horiz-adv-x="3690" unicode="&lt;––" vert-adv-y="1980"/>
<glyph d="M2947 1110l131 116l485 -565l-644 -565l-99 116l428 366h-2782l324 -366l-131 -116l-486 565l645 565l98 -116l-427 -366h2782z" glyph-name="less_endash_greater.liga" horiz-adv-x="3690" unicode="&lt;–&gt;" vert-adv-y="1980"/>
<glyph d="M3528 1226l99 -116l-525 -449l398 -449l-131 -116l-415 482h-2488l324 -366l-131 -116l-486 565l645 565l98 -116l-427 -366h2489z" glyph-name="less_endash_less.liga" horiz-adv-x="3690" unicode="&lt;–&lt;" vert-adv-y="1980"/>
<glyph d="M1787 1331q32 -30 32 -80q0 -20 -4 -37l-152 -680q-4 -15 -14 -23t-24 -8h-85q-14 0 -22 8t-7 23l39 680q2 43 23.5 76.5t55.5 52t74 18.5q52 0 84 -30zM818 1226l98 -116l-427 -366h680l-23 -166h-680l324 -366l-131 -116l-486 565zM2062 578l23 166h2720l-24 -166 h-2719zM1627.5 295q39.5 -23 62.5 -62.5t23 -86.5t-23 -86.5t-62.5 -62.5t-86.5 -23t-86.5 23t-62.5 62.5t-23 86.5t23 86.5t62.5 62.5t86.5 23t86.5 -23z" glyph-name="less_exclam_hyphen_hyphen.liga" horiz-adv-x="4920" unicode="&lt;!--" vert-adv-y="1980"/>
<glyph d="M1787 1331q32 -30 32 -80q0 -20 -4 -37l-152 -680q-4 -15 -14 -23t-24 -8h-85q-14 0 -22 8t-7 23l39 680q2 43 23.5 76.5t55.5 52t74 18.5q52 0 84 -30zM818 1226l98 -116l-427 -366h680l-23 -166h-680l324 -366l-131 -116l-486 565zM2062 578l23 166h2720l-24 -166 h-2719zM1627.5 295q39.5 -23 62.5 -62.5t23 -86.5t-23 -86.5t-62.5 -62.5t-86.5 -23t-86.5 23t-62.5 62.5t-23 86.5t23 86.5t62.5 62.5t86.5 23t86.5 -23z" glyph-name="less_exclam_endash_endash.liga" horiz-adv-x="4920" unicode="&lt;!––" vert-adv-y="1980"/>
<glyph d="M259 779q-20 12 -17 36l17 119q3 23 27 35l767 423q9 6 17 6q13 0 21 -17l47 -102q3 -6 3 -12q0 -18 -20 -29l-685 -368l578 -367q13 -7 13 -21q0 -10 -7 -20l-69 -95q-12 -16 -25 -16q-9 0 -17 5zM194 359q-13 8 -13 21q0 9 7 19l74 101q12 15 25 15q9 0 16 -5l653 -422 q14 -8 14 -21q0 -8 -7 -19l-74 -100q-12 -16 -25 -16q-10 0 -16 5z" glyph-name="less_equal.liga" unicode="&lt;=" vert-adv-y="1980"/>
<glyph d="M3586 961q14 0 21 -8.5t5 -21.5l-13 -97q-2 -13 -11.5 -21.5t-23.5 -8.5h-3013l-158 -135l119 -134h3014q14 0 21 -8.5t5 -21.5l-14 -97q-1 -13 -10.5 -21.5t-23.5 -8.5h-2853l140 -158l-131 -116l-486 565l645 565l98 -116l-183 -157h2852z" glyph-name="less_equal_equal.liga" horiz-adv-x="3690" unicode="&lt;==" vert-adv-y="1980"/>
<glyph d="M4177 1110l131 116l485 -565l-644 -565l-99 116l184 157h-3583l139 -157l-131 -116l-486 565l645 565l98 -116l-184 -158h3585zM392 661l120 -135h3905l158 135l-119 134h-3908z" glyph-name="less_equal_equal_greater.liga" horiz-adv-x="4920" unicode="&lt;==&gt;" vert-adv-y="1980"/>
<glyph d="M2947 1110l131 116l485 -565l-644 -565l-99 116l184 157h-2353l139 -157l-131 -116l-486 565l645 565l98 -116l-184 -158h2355zM392 661l120 -135h2675l158 135l-119 134h-2678z" glyph-name="less_equal_greater.liga" horiz-adv-x="3690" unicode="&lt;=&gt;" vert-adv-y="1980"/>
<glyph d="M3526 1214l98 -116l-524 -449l398 -449l-131 -116l-235 274h-2484l140 -158l-131 -116l-486 565l645 565l98 -116l-183 -157h2484zM390 649l119 -134h2488l-115 134l154 135h-2488z" glyph-name="less_equal_less.liga" horiz-adv-x="3690" unicode="&lt;=&lt;" vert-adv-y="1980"/>
<glyph d="M818 1226l98 -116l-524 -449l398 -449l-131 -116l-486 565zM1110 744h2465l-24 -166h-2464l324 -366l-132 -116l-485 565l644 565l99 -116z" glyph-name="less_less_hyphen.liga" horiz-adv-x="3690" unicode="&lt;&lt;-" vert-adv-y="1980"/>
<glyph d="M818 1226l98 -116l-524 -449l398 -449l-131 -116l-486 565zM1110 744h2465l-24 -166h-2464l324 -366l-132 -116l-485 565l644 565l99 -116z" glyph-name="less_less_endash.liga" horiz-adv-x="3690" unicode="&lt;&lt;–" vert-adv-y="1980"/>
<glyph d="M819 1234l98 -116l-524 -449l398 -449l-131 -116l-486 565zM3586 961q14 0 21 -8.5t5 -21.5l-13 -97q-2 -13 -11.5 -21.5t-23.5 -8.5h-2392l-158 -135l119 -134h2393q14 0 21 -8.5t5 -21.5l-14 -97q-1 -13 -10.5 -21.5t-23.5 -8.5h-2232l140 -158l-131 -116l-486 565 l645 565l98 -116l-183 -157h2231z" glyph-name="less_less_equal.liga" horiz-adv-x="3690" unicode="&lt;&lt;=" vert-adv-y="1980"/>
<glyph d="M2282 1420q12 0 18 -4.5t6 -12.5t-6 -19l-949 -1622q-12 -22 -43 -22h-136q-12 0 -18 4.5t-6 12.5t6 19l99 170l-941 605q-21 13 -18 36l17 119q3 22 27 35l770 423q9 5 18 5q15 0 21 -16l42 -105q2 -4 2 -12q0 -19 -20 -30l-680 -365l850 -545l761 1302q12 22 42 22h138 z" glyph-name="less_slash.liga" horiz-adv-x="2460" unicode="&lt;/" vert-adv-y="1980"/>
<glyph d="M3272 609q20 -12 17 -36l-16 -119q-3 -22 -27 -35l-770 -423q-9 -5 -18 -5q-15 0 -21 16l-42 105q-2 4 -2 12q0 20 19 30l680 365l-849 545l-762 -1302q-12 -22 -42 -22h-137q-12 0 -18 4.5t-6 12.5t6 19l100 170l-942 605q-20 12 -17 36l16 119q3 22 27 35l770 423 q9 5 18 5q15 0 21 -16l42 -105q2 -4 2 -12q0 -20 -19 -30l-680 -365l849 -545l762 1302q12 22 42 22h137q12 0 18 -4.5t6 -12.5t-6 -19l-100 -170z" glyph-name="less_slash_greater.liga" horiz-adv-x="3690" unicode="&lt;/&gt;" vert-adv-y="1980"/>
<glyph d="M184 1600h628v-1980h-628v1980zM659 1402v65h-326v-65h128v-73h-130v-66h328v66h-130v73h130zM529 1073v139h-198v-206h328v67h-130zM396 1145h65v-72h-65v72zM659 887v66h-328v-66h130v-73h-130v-65h198v138h130zM659 636v198h-65v-131h-263v-67h328zM659 368v224h-198 v-111h68v46h65v-93h-198v158h-65v-224h328zM659 26v224h-328v-224h328zM396 184h198v-93h-198v93zM659 -85v65h-328v-65h138l-138 -93v-65h328v65h-202l139 93h63z" glyph-name=".notdef" horiz-adv-x="990" vert-adv-y="1980"/>
<glyph glyph-name="space" unicode=" " vert-adv-y="1980"/>
<glyph d="M1092 34q2 -15 -5.5 -24.5t-23.5 -9.5h-146q-26 0 -30 24l-38 259h-527l-111 -259q-12 -24 -38 -24h-146q-11 0 -17 5t-6 13t4 16l560 1282q5 12 15.5 18t23.5 6h254q13 0 21.5 -6t9.5 -18zM683 1128l-285 -666h425l-98 666h-42z" glyph-name="A" unicode="A" vert-adv-y="1980"/>
<glyph d="M1092 34q2 -15 -5.5 -24.5t-23.5 -9.5h-146q-26 0 -30 24l-38 259h-527l-111 -259q-12 -24 -38 -24h-146q-11 0 -17 5t-6 13t4 16l560 1282q5 12 15.5 18t23.5 6h254q13 0 21.5 -6t9.5 -18zM683 1128l-285 -666h425l-98 666h-42zM702 1542q-11 0 -18 4.5t-7 12.5 q0 7 6 17l152 252q8 13 17 18.5t21 5.5h117q11 0 18 -4.5t7 -12.5q0 -6 -6 -17l-152 -252q-8 -13 -17 -18.5t-21 -5.5h-117z" glyph-name="Aacute" unicode="Á" vert-adv-y="1980"/>
<glyph d="M1092 34q2 -15 -5.5 -24.5t-23.5 -9.5h-146q-26 0 -30 24l-38 259h-527l-111 -259q-12 -24 -38 -24h-146q-11 0 -17 5t-6 13t4 16l560 1282q5 12 15.5 18t23.5 6h254q13 0 21.5 -6t9.5 -18zM683 1128l-285 -666h425l-98 666h-42zM620 1591q-62 35 -93 95.5t-28 135.5 q2 30 34 30h74q26 0 28 -28q5 -55 43.5 -92t106.5 -37q66 0 110.5 36t65.5 93q11 28 36 28h82q25 0 25 -20q0 -6 -1 -10q-18 -76 -63 -136t-114 -95t-156 -35q-88 0 -150 35z" glyph-name="Abreve" unicode="Ă" vert-adv-y="1980"/>
<glyph d="M1092 34q2 -15 -5.5 -24.5t-23.5 -9.5h-146q-26 0 -30 24l-38 259h-527l-111 -259q-12 -24 -38 -24h-146q-11 0 -17 5t-6 13t4 16l560 1282q5 12 15.5 18t23.5 6h254q13 0 21.5 -6t9.5 -18zM683 1128l-285 -666h425l-98 666h-42zM701 1543q-11 0 -19 3.5t-15 12.5 l-185 257q-6 9 -6 17t7.5 13.5t20.5 5.5h140q22 0 34 -16l132 -177l180 177q17 16 38 16h146q11 0 17 -4t6 -11q0 -10 -11 -21l-258 -257q-9 -9 -18 -12.5t-20 -3.5h-189z" glyph-name="uni01CD" unicode="Ǎ" vert-adv-y="1980"/>
<glyph d="M1092 34q2 -15 -5.5 -24.5t-23.5 -9.5h-146q-26 0 -30 24l-38 259h-527l-111 -259q-12 -24 -38 -24h-146q-11 0 -17 5t-6 13t4 16l560 1282q5 12 15.5 18t23.5 6h254q13 0 21.5 -6t9.5 -18zM683 1128l-285 -666h425l-98 666h-42zM466 1543q-11 0 -17 4t-6 10q0 10 12 22 l257 257q9 9 18 12.5t20 3.5h189q23 0 34 -16l186 -257q6 -9 6 -16q0 -9 -7.5 -14.5t-20.5 -5.5h-141q-22 0 -34 16l-132 178l-180 -178q-17 -16 -38 -16h-146z" glyph-name="Acircumflex" unicode="Â" vert-adv-y="1980"/>
<glyph d="M1092 34q2 -15 -5.5 -24.5t-23.5 -9.5h-146q-26 0 -30 24l-38 259h-527l-111 -259q-12 -24 -38 -24h-146q-11 0 -17 5t-6 13t4 16l560 1282q5 12 15.5 18t23.5 6h254q13 0 21.5 -6t9.5 -18zM683 1128l-285 -666h425l-98 666h-42zM519 1669.5q-32 31.5 -32 76.5 q0 43 32 74.5t76 31.5t75.5 -31.5t31.5 -74.5q0 -45 -31.5 -76.5t-75.5 -31.5t-76 31.5zM913 1669.5q-32 31.5 -32 76.5q0 43 32 74.5t76 31.5t75.5 -31.5t31.5 -74.5q0 -45 -31.5 -76.5t-75.5 -31.5t-76 31.5z" glyph-name="Adieresis" unicode="Ä" vert-adv-y="1980"/>
<glyph d="M1092 34q2 -15 -5.5 -24.5t-23.5 -9.5h-146q-26 0 -30 24l-38 259h-527l-111 -259q-12 -24 -38 -24h-146q-11 0 -17 5t-6 13t4 16l560 1282q5 12 15.5 18t23.5 6h254q13 0 21.5 -6t9.5 -18zM683 1128l-285 -666h425l-98 666h-42zM721 1542q-12 0 -21 5.5t-17 18.5 l-152 252q-6 11 -6 17q0 8 7 12.5t18 4.5h117q12 0 21 -5.5t17 -18.5l152 -252q6 -10 6 -17q0 -8 -7 -12.5t-18 -4.5h-117z" glyph-name="Agrave" unicode="À" vert-adv-y="1980"/>
<glyph d="M1092 34q2 -15 -5.5 -24.5t-23.5 -9.5h-146q-26 0 -30 24l-38 259h-527l-111 -259q-12 -24 -38 -24h-146q-11 0 -17 5t-6 13t4 16l560 1282q5 12 15.5 18t23.5 6h254q13 0 21.5 -6t9.5 -18zM683 1128l-285 -666h425l-98 666h-42zM526 1694q-13 0 -20.5 8t-5.5 22l14 98 q1 13 10.5 21.5t23.5 8.5h516q13 0 20.5 -8t5.5 -22l-14 -98q-1 -13 -10.5 -21.5t-23.5 -8.5h-516z" glyph-name="Amacron" unicode="Ā" vert-adv-y="1980"/>
<glyph d="M1092 34q2 -15 -5.5 -24.5t-23.5 -9.5h-121q-58 -14 -90.5 -46t-32.5 -82q0 -104 147 -104h29q20 0 17 -20l-12 -89q-3 -20 -23 -20h-67q-99 0 -172.5 44.5t-73.5 154.5q0 93 58 152.5t157 85.5l-30 207h-527l-111 -259q-12 -24 -38 -24h-146q-11 0 -17 5t-6 13t4 16 l560 1282q5 12 15.5 18t23.5 6h254q13 0 21.5 -6t9.5 -18zM683 1128l-285 -666h425l-98 666h-42z" glyph-name="Aogonek" unicode="Ą" vert-adv-y="1980"/>
<glyph d="M1092 34q2 -15 -5.5 -24.5t-23.5 -9.5h-146q-26 0 -30 24l-38 259h-527l-111 -259q-12 -24 -38 -24h-146q-11 0 -17 5t-6 13t4 16l560 1282q5 12 15.5 18t23.5 6h254q13 0 21.5 -6t9.5 -18zM683 1128l-285 -666h425l-98 666h-42zM754 1508q-43 25 -67.5 67.5t-24.5 91.5 q0 50 24.5 92.5t67.5 67.5t95 25t95 -25t67.5 -67.5t24.5 -92.5q0 -49 -24.5 -91.5t-67.5 -67.5t-95 -25t-95 25zM899.5 1619q20.5 19 20.5 49q-1 30 -21 49t-50 19t-50 -19t-20 -49t20 -49t50 -19t50.5 19z" glyph-name="Aring" unicode="Å" vert-adv-y="1980"/>
<glyph d="M1092 34q2 -15 -5.5 -24.5t-23.5 -9.5h-146q-26 0 -30 24l-38 259h-527l-111 -259q-12 -24 -38 -24h-146q-11 0 -17 5t-6 13t4 16l560 1282q5 12 15.5 18t23.5 6h254q13 0 21.5 -6t9.5 -18zM683 1128l-285 -666h425l-98 666h-42zM828 1603q-36 20 -79 59 q-35 31 -58.5 45.5t-54.5 14.5q-38 0 -62 -17.5t-37 -42.5q-9 -17 -25 -17h-54q-8 0 -12.5 4.5t-4.5 11.5q0 3 2 9q21 84 78.5 128t138.5 44q54 0 90 -20t78 -58q35 -31 59 -45.5t56 -14.5q36 0 60.5 17t36.5 42q8 17 24 17h54q9 0 14 -5.5t3 -14.5q-19 -85 -78 -131 t-139 -46q-54 0 -90 20z" glyph-name="Atilde" unicode="Ã" vert-adv-y="1980"/>
<glyph d="M1304.5 1392q7.5 -8 5.5 -24l-18 -126q-4 -28 -32 -28h-340l-55 -388h294q15 0 22 -8t5 -24l-17 -126q-4 -28 -32 -28h-298l-64 -454h338q15 0 22.5 -8t5.5 -24l-18 -126q-4 -28 -32 -28h-508q-15 0 -22.5 8t-5.5 24l24 169h-314l-89 -179q-12 -22 -35 -22h-139 q-12 0 -19 5.5t-7 14.5q0 6 5 16l694 1343q12 21 35 21h572q15 0 22.5 -8zM703 1083l-350 -704h251z" glyph-name="AE" unicode="Æ" vert-adv-y="1980"/>
<glyph d="M859 715q128 -21 186.5 -95.5t58.5 -203.5q0 -210 -141 -313t-401 -103h-469q-13 0 -20.5 8t-5.5 22l180 1280q2 14 12 22t26 8h451q189 0 272.5 -77.5t83.5 -204.5q0 -79 -29 -146t-81 -113t-120 -64zM431 1154l-50 -354h260q116 0 183 55.5t67 152.5q0 78 -47.5 112 t-152.5 34h-260zM588 186q154 0 232 56t78 181q0 102 -58.5 152t-189.5 50h-293l-62 -439h293z" glyph-name="B" unicode="B" vert-adv-y="1980"/>
<glyph d="M1015 80q-3 -22 -12 -35.5t-26 -22.5q-50 -25 -118 -38.5t-142 -13.5q-166 0 -290 69t-192 204t-68 325q0 193 70 375t210.5 299.5t341.5 117.5q145 0 240.5 -67.5t95.5 -213.5q0 -64 -20 -138q-6 -26 -33 -26h-130q-16 0 -22.5 9t-3.5 26q9 42 9 75q0 138 -155 138 q-131 0 -221.5 -88.5t-134.5 -221t-44 -263.5q0 -139 51 -233.5t143.5 -141.5t217.5 -47q55 0 111 9t102 25q9 3 15 3q10 0 14.5 -7t3.5 -20z" glyph-name="C" unicode="C" vert-adv-y="1980"/>
<glyph d="M1015 80q-3 -22 -12 -35.5t-26 -22.5q-50 -25 -118 -38.5t-142 -13.5q-166 0 -290 69t-192 204t-68 325q0 193 70 375t210.5 299.5t341.5 117.5q145 0 240.5 -67.5t95.5 -213.5q0 -64 -20 -138q-6 -26 -33 -26h-130q-16 0 -22.5 9t-3.5 26q9 42 9 75q0 138 -155 138 q-131 0 -221.5 -88.5t-134.5 -221t-44 -263.5q0 -139 51 -233.5t143.5 -141.5t217.5 -47q55 0 111 9t102 25q9 3 15 3q10 0 14.5 -7t3.5 -20zM719 1542q-11 0 -18 4.5t-7 12.5q0 7 6 17l152 252q8 13 17 18.5t21 5.5h117q11 0 18 -4.5t7 -12.5q0 -6 -6 -17l-152 -252 q-8 -13 -17 -18.5t-21 -5.5h-117z" glyph-name="Cacute" unicode="Ć" vert-adv-y="1980"/>
<glyph d="M1015 80q-3 -22 -12 -35.5t-26 -22.5q-50 -25 -118 -38.5t-142 -13.5q-166 0 -290 69t-192 204t-68 325q0 193 70 375t210.5 299.5t341.5 117.5q145 0 240.5 -67.5t95.5 -213.5q0 -64 -20 -138q-6 -26 -33 -26h-130q-16 0 -22.5 9t-3.5 26q9 42 9 75q0 138 -155 138 q-131 0 -221.5 -88.5t-134.5 -221t-44 -263.5q0 -139 51 -233.5t143.5 -141.5t217.5 -47q55 0 111 9t102 25q9 3 15 3q10 0 14.5 -7t3.5 -20zM719 1543q-11 0 -19 3.5t-15 12.5l-185 257q-6 9 -6 17t7.5 13.5t20.5 5.5h140q22 0 34 -16l132 -177l180 177q17 16 38 16h146 q11 0 17 -4t6 -11q0 -10 -11 -21l-258 -257q-9 -9 -18 -12.5t-20 -3.5h-189z" glyph-name="Ccaron" unicode="Č" vert-adv-y="1980"/>
<glyph d="M1029.5 1292.5q95.5 -67.5 95.5 -213.5q0 -64 -20 -138q-6 -26 -33 -26h-130q-16 0 -22.5 9t-3.5 26q9 42 9 75q0 138 -155 138q-131 0 -221.5 -88.5t-134.5 -221t-44 -263.5q0 -139 51 -233.5t143.5 -141.5t217.5 -47q55 0 111 9t102 25q9 3 15 3q10 0 14.5 -7t3.5 -20 l-13 -98q-3 -22 -12 -35.5t-26 -22.5q-50 -25 -118 -38.5t-142 -13.5q-57 0 -103 7l-59 -50q63 -6 105.5 -42t42.5 -95q0 -69 -38.5 -119.5t-102 -77t-139.5 -26.5q-36 0 -72 6q-18 3 -15 22l10 71q2 9 9 15t16 5q24 -3 48 -3q59 0 97.5 20.5t38.5 60.5q0 24 -24.5 41 t-62.5 17q-37 0 -78 -16q-4 -2 -10 -2q-14 0 -12 16l10 70q1 12 13 24l96 86h30q-165 54 -257.5 199.5t-92.5 368.5q0 193 70 375t210.5 299.5t341.5 117.5q145 0 240.5 -67.5z" glyph-name="Ccedilla" unicode="Ç" vert-adv-y="1980"/>
<glyph d="M1015 80q-3 -22 -12 -35.5t-26 -22.5q-50 -25 -118 -38.5t-142 -13.5q-166 0 -290 69t-192 204t-68 325q0 193 70 375t210.5 299.5t341.5 117.5q145 0 240.5 -67.5t95.5 -213.5q0 -64 -20 -138q-6 -26 -33 -26h-130q-16 0 -22.5 9t-3.5 26q9 42 9 75q0 138 -155 138 q-131 0 -221.5 -88.5t-134.5 -221t-44 -263.5q0 -139 51 -233.5t143.5 -141.5t217.5 -47q55 0 111 9t102 25q9 3 15 3q10 0 14.5 -7t3.5 -20zM734.5 1669.5q-31.5 31.5 -31.5 76.5q0 43 31.5 74.5t75.5 31.5t75.5 -31.5t31.5 -74.5q0 -45 -31.5 -76.5t-75.5 -31.5 t-75.5 31.5z" glyph-name="Cdotaccent" unicode="Ċ" vert-adv-y="1980"/>
<glyph d="M98 0q-14 0 -21 8.5t-5 21.5l180 1280q2 14 11.5 22t22.5 8h365q256 0 371.5 -148.5t115.5 -396.5q0 -218 -81 -398t-250.5 -288.5t-422.5 -108.5h-286zM379 186q196 0 319.5 84t177.5 219t54 297q0 177 -73.5 272.5t-253.5 95.5h-167l-136 -968h79z" glyph-name="D" unicode="D" vert-adv-y="1980"/>
<glyph d="M651 1340q256 0 371.5 -148.5t115.5 -396.5q0 -218 -81 -398t-250.5 -288.5t-422.5 -108.5h-286q-14 0 -21 8.5t-5 21.5l79 561h-92q-13 0 -20 8.5t-5 21.5l13 98q2 14 11.5 22t22.5 8h92l79 561q2 14 11.5 22t22.5 8h365zM379 186q196 0 319.5 84t177.5 219t54 297 q0 177 -73.5 272.5t-253.5 95.5h-167l-57 -405h218q14 0 21 -8.5t5 -21.5l-13 -98q-2 -14 -11.5 -22t-23.5 -8h-218l-57 -405h79z" glyph-name="Eth" unicode="Ð" vert-adv-y="1980"/>
<glyph d="M98 0q-14 0 -21 8.5t-5 21.5l180 1280q2 14 11.5 22t22.5 8h365q256 0 371.5 -148.5t115.5 -396.5q0 -218 -81 -398t-250.5 -288.5t-422.5 -108.5h-286zM379 186q196 0 319.5 84t177.5 219t54 297q0 177 -73.5 272.5t-253.5 95.5h-167l-136 -968h79zM701 1543 q-11 0 -19 3.5t-15 12.5l-185 257q-6 9 -6 17t7.5 13.5t20.5 5.5h140q22 0 34 -16l132 -177l180 177q17 16 38 16h146q11 0 17 -4t6 -11q0 -10 -11 -21l-258 -257q-9 -9 -18 -12.5t-20 -3.5h-189z" glyph-name="Dcaron" unicode="Ď" vert-adv-y="1980"/>
<glyph d="M651 1340q256 0 371.5 -148.5t115.5 -396.5q0 -218 -81 -398t-250.5 -288.5t-422.5 -108.5h-286q-14 0 -21 8.5t-5 21.5l79 561h-92q-13 0 -20 8.5t-5 21.5l13 98q2 14 11.5 22t22.5 8h92l79 561q2 14 11.5 22t22.5 8h365zM379 186q196 0 319.5 84t177.5 219t54 297 q0 177 -73.5 272.5t-253.5 95.5h-167l-57 -405h218q14 0 21 -8.5t5 -21.5l-13 -98q-2 -14 -11.5 -22t-23.5 -8h-218l-57 -405h79z" glyph-name="Dcroat" unicode="Đ" vert-adv-y="1980"/>
<glyph d="M121 0q-13 0 -20 8.5t-5 21.5l180 1280q1 13 10.5 21.5t23.5 8.5h846q13 0 20.5 -8t5.5 -22l-18 -126q-2 -14 -11.5 -22t-22.5 -8h-670l-54 -380h626q13 0 20.5 -8t5.5 -22l-18 -126q-2 -14 -11.5 -22t-22.5 -8h-626l-57 -402h673q13 0 20 -8.5t5 -21.5l-17 -126 q-2 -14 -11.5 -22t-23.5 -8h-848z" glyph-name="E" unicode="E" vert-adv-y="1980"/>
<glyph d="M121 0q-13 0 -20 8.5t-5 21.5l180 1280q1 13 10.5 21.5t23.5 8.5h846q13 0 20.5 -8t5.5 -22l-18 -126q-2 -14 -11.5 -22t-22.5 -8h-670l-54 -380h626q13 0 20.5 -8t5.5 -22l-18 -126q-2 -14 -11.5 -22t-22.5 -8h-626l-57 -402h673q13 0 20 -8.5t5 -21.5l-17 -126 q-2 -14 -11.5 -22t-23.5 -8h-848zM702 1542q-11 0 -18 4.5t-7 12.5q0 7 6 17l152 252q8 13 17 18.5t21 5.5h117q11 0 18 -4.5t7 -12.5q0 -6 -6 -17l-152 -252q-8 -13 -17 -18.5t-21 -5.5h-117z" glyph-name="Eacute" unicode="É" vert-adv-y="1980"/>
<glyph d="M121 0q-13 0 -20 8.5t-5 21.5l180 1280q1 13 10.5 21.5t23.5 8.5h846q13 0 20.5 -8t5.5 -22l-18 -126q-2 -14 -11.5 -22t-22.5 -8h-670l-54 -380h626q13 0 20.5 -8t5.5 -22l-18 -126q-2 -14 -11.5 -22t-22.5 -8h-626l-57 -402h673q13 0 20 -8.5t5 -21.5l-17 -126 q-2 -14 -11.5 -22t-23.5 -8h-848zM701 1543q-11 0 -19 3.5t-15 12.5l-185 257q-6 9 -6 17t7.5 13.5t20.5 5.5h140q22 0 34 -16l132 -177l180 177q17 16 38 16h146q11 0 17 -4t6 -11q0 -10 -11 -21l-258 -257q-9 -9 -18 -12.5t-20 -3.5h-189z" glyph-name="Ecaron" unicode="Ě" vert-adv-y="1980"/>
<glyph d="M121 0q-13 0 -20 8.5t-5 21.5l180 1280q1 13 10.5 21.5t23.5 8.5h846q13 0 20.5 -8t5.5 -22l-18 -126q-2 -14 -11.5 -22t-22.5 -8h-670l-54 -380h626q13 0 20.5 -8t5.5 -22l-18 -126q-2 -14 -11.5 -22t-22.5 -8h-626l-57 -402h673q13 0 20 -8.5t5 -21.5l-17 -126 q-2 -14 -11.5 -22t-23.5 -8h-848zM466 1543q-11 0 -17 4t-6 10q0 10 12 22l257 257q9 9 18 12.5t20 3.5h189q23 0 34 -16l186 -257q6 -9 6 -16q0 -9 -7.5 -14.5t-20.5 -5.5h-141q-22 0 -34 16l-132 178l-180 -178q-17 -16 -38 -16h-146z" glyph-name="Ecircumflex" unicode="Ê" vert-adv-y="1980"/>
<glyph d="M121 0q-13 0 -20 8.5t-5 21.5l180 1280q1 13 10.5 21.5t23.5 8.5h846q13 0 20.5 -8t5.5 -22l-18 -126q-2 -14 -11.5 -22t-22.5 -8h-670l-54 -380h626q13 0 20.5 -8t5.5 -22l-18 -126q-2 -14 -11.5 -22t-22.5 -8h-626l-57 -402h673q13 0 20 -8.5t5 -21.5l-17 -126 q-2 -14 -11.5 -22t-23.5 -8h-848zM519 1669.5q-32 31.5 -32 76.5q0 43 32 74.5t76 31.5t75.5 -31.5t31.5 -74.5q0 -45 -31.5 -76.5t-75.5 -31.5t-76 31.5zM913 1669.5q-32 31.5 -32 76.5q0 43 32 74.5t76 31.5t75.5 -31.5t31.5 -74.5q0 -45 -31.5 -76.5t-75.5 -31.5 t-76 31.5z" glyph-name="Edieresis" unicode="Ë" vert-adv-y="1980"/>
<glyph d="M121 0q-13 0 -20 8.5t-5 21.5l180 1280q1 13 10.5 21.5t23.5 8.5h846q13 0 20.5 -8t5.5 -22l-18 -126q-2 -14 -11.5 -22t-22.5 -8h-670l-54 -380h626q13 0 20.5 -8t5.5 -22l-18 -126q-2 -14 -11.5 -22t-22.5 -8h-626l-57 -402h673q13 0 20 -8.5t5 -21.5l-17 -126 q-2 -14 -11.5 -22t-23.5 -8h-848zM716.5 1669.5q-31.5 31.5 -31.5 76.5q0 43 31.5 74.5t75.5 31.5t75.5 -31.5t31.5 -74.5q0 -45 -31.5 -76.5t-75.5 -31.5t-75.5 31.5z" glyph-name="Edotaccent" unicode="Ė" vert-adv-y="1980"/>
<glyph d="M121 0q-13 0 -20 8.5t-5 21.5l180 1280q1 13 10.5 21.5t23.5 8.5h846q13 0 20.5 -8t5.5 -22l-18 -126q-2 -14 -11.5 -22t-22.5 -8h-670l-54 -380h626q13 0 20.5 -8t5.5 -22l-18 -126q-2 -14 -11.5 -22t-22.5 -8h-626l-57 -402h673q13 0 20 -8.5t5 -21.5l-17 -126 q-2 -14 -11.5 -22t-23.5 -8h-848zM721 1542q-12 0 -21 5.5t-17 18.5l-152 252q-6 11 -6 17q0 8 7 12.5t18 4.5h117q12 0 21 -5.5t17 -18.5l152 -252q6 -10 6 -17q0 -8 -7 -12.5t-18 -4.5h-117z" glyph-name="Egrave" unicode="È" vert-adv-y="1980"/>
<glyph d="M121 0q-13 0 -20 8.5t-5 21.5l180 1280q1 13 10.5 21.5t23.5 8.5h846q13 0 20.5 -8t5.5 -22l-18 -126q-2 -14 -11.5 -22t-22.5 -8h-670l-54 -380h626q13 0 20.5 -8t5.5 -22l-18 -126q-2 -14 -11.5 -22t-22.5 -8h-626l-57 -402h673q13 0 20 -8.5t5 -21.5l-17 -126 q-2 -14 -11.5 -22t-23.5 -8h-848zM526 1694q-13 0 -20.5 8t-5.5 22l14 98q1 13 10.5 21.5t23.5 8.5h516q13 0 20.5 -8t5.5 -22l-14 -98q-1 -13 -10.5 -21.5t-23.5 -8.5h-516z" glyph-name="Emacron" unicode="Ē" vert-adv-y="1980"/>
<glyph d="M1156 1340q13 0 20.5 -8t5.5 -22l-18 -126q-2 -14 -11.5 -22t-22.5 -8h-670l-54 -380h626q13 0 20.5 -8t5.5 -22l-18 -126q-2 -14 -11.5 -22t-22.5 -8h-626l-57 -402h673q13 0 20 -8.5t5 -21.5l-17 -126q-2 -14 -11.5 -22t-22.5 -8q-101 0 -161 -34.5t-60 -103.5 q0 -104 147 -104h29q20 0 17 -20l-12 -89q-3 -20 -23 -20h-67q-99 0 -172.5 44.5t-73.5 154.5q0 106 79 172h-552q-13 0 -20 8.5t-5 21.5l180 1280q1 13 10.5 21.5t23.5 8.5h846z" glyph-name="Eogonek" unicode="Ę" vert-adv-y="1980"/>
<glyph d="M115 0q-13 0 -20 8t-5 22l180 1280q1 13 10.5 21.5t23.5 8.5h860q13 0 20.5 -8t5.5 -22l-18 -126q-2 -14 -11.5 -22t-22.5 -8h-684l-67 -468h639q13 0 20.5 -8t5.5 -22l-18 -126q-1 -13 -10.5 -21.5t-23.5 -8.5h-638l-66 -470q-2 -14 -11.5 -22t-23.5 -8h-146z" glyph-name="F" unicode="F" vert-adv-y="1980"/>
<glyph d="M1132.5 694.5q7.5 -8.5 5.5 -23.5l-82 -574q-4 -22 -12.5 -35.5t-25.5 -22.5q-57 -29 -139 -49.5t-175 -20.5q-166 0 -292.5 68.5t-196 198.5t-69.5 310q0 185 71.5 373.5t216.5 314.5t353 126q92 0 169 -27.5t124 -90t47 -160.5q0 -64 -20 -137q-6 -26 -35 -26h-128 q-16 0 -22.5 9t-3.5 26q10 40 10 74q0 135 -160 135q-139 0 -234 -97.5t-140 -239t-45 -272.5q0 -124 43.5 -213t126.5 -136t200 -47q78 0 165 21l51 357h-285q-13 0 -20.5 8t-5.5 22l15 107q1 13 11 21.5t24 8.5h437q14 0 21.5 -8.5z" glyph-name="G" unicode="G" vert-adv-y="1980"/>
<glyph d="M1132.5 694.5q7.5 -8.5 5.5 -23.5l-82 -574q-4 -22 -12.5 -35.5t-25.5 -22.5q-57 -29 -139 -49.5t-175 -20.5q-166 0 -292.5 68.5t-196 198.5t-69.5 310q0 185 71.5 373.5t216.5 314.5t353 126q92 0 169 -27.5t124 -90t47 -160.5q0 -64 -20 -137q-6 -26 -35 -26h-128 q-16 0 -22.5 9t-3.5 26q10 40 10 74q0 135 -160 135q-139 0 -234 -97.5t-140 -239t-45 -272.5q0 -124 43.5 -213t126.5 -136t200 -47q78 0 165 21l51 357h-285q-13 0 -20.5 8t-5.5 22l15 107q1 13 11 21.5t24 8.5h437q14 0 21.5 -8.5zM620 1591q-62 35 -93 95.5t-28 135.5 q2 30 34 30h74q26 0 28 -28q5 -55 43.5 -92t106.5 -37q66 0 110.5 36t65.5 93q11 28 36 28h82q25 0 25 -20q0 -6 -1 -10q-18 -76 -63 -136t-114 -95t-156 -35q-88 0 -150 35z" glyph-name="Gbreve" unicode="Ğ" vert-adv-y="1980"/>
<glyph d="M1132.5 694.5q7.5 -8.5 5.5 -23.5l-82 -574q-4 -22 -12.5 -35.5t-25.5 -22.5q-57 -29 -139 -49.5t-175 -20.5q-166 0 -292.5 68.5t-196 198.5t-69.5 310q0 185 71.5 373.5t216.5 314.5t353 126q92 0 169 -27.5t124 -90t47 -160.5q0 -64 -20 -137q-6 -26 -35 -26h-128 q-16 0 -22.5 9t-3.5 26q10 40 10 74q0 135 -160 135q-139 0 -234 -97.5t-140 -239t-45 -272.5q0 -124 43.5 -213t126.5 -136t200 -47q78 0 165 21l51 357h-285q-13 0 -20.5 8t-5.5 22l15 107q1 13 11 21.5t24 8.5h437q14 0 21.5 -8.5zM688 -165q13 0 19.5 -7.5t4.5 -20.5 l-8 -58q-18 -124 -41 -234.5t-46 -183.5q-7 -22 -35 -22h-99q-23 0 -23 20q0 6 1 10q42 204 57 334h-230q-13 0 -19.5 7.5t-5.5 20.5l16 106q1 13 10 20.5t22 7.5h377z" glyph-name="uni0122" unicode="Ģ" vert-adv-y="1980"/>
<glyph d="M1132.5 694.5q7.5 -8.5 5.5 -23.5l-82 -574q-4 -22 -12.5 -35.5t-25.5 -22.5q-57 -29 -139 -49.5t-175 -20.5q-166 0 -292.5 68.5t-196 198.5t-69.5 310q0 185 71.5 373.5t216.5 314.5t353 126q92 0 169 -27.5t124 -90t47 -160.5q0 -64 -20 -137q-6 -26 -35 -26h-128 q-16 0 -22.5 9t-3.5 26q10 40 10 74q0 135 -160 135q-139 0 -234 -97.5t-140 -239t-45 -272.5q0 -124 43.5 -213t126.5 -136t200 -47q78 0 165 21l51 357h-285q-13 0 -20.5 8t-5.5 22l15 107q1 13 11 21.5t24 8.5h437q14 0 21.5 -8.5zM716.5 1669.5q-31.5 31.5 -31.5 76.5 q0 43 31.5 74.5t75.5 31.5t75.5 -31.5t31.5 -74.5q0 -45 -31.5 -76.5t-75.5 -31.5t-75.5 31.5z" glyph-name="Gdotaccent" unicode="Ġ" vert-adv-y="1980"/>
<glyph d="M1172 1340q14 0 21 -8.5t5 -21.5l-180 -1280q-2 -14 -11.5 -22t-23.5 -8h-146q-13 0 -20 8.5t-5 21.5l76 540h-524l-76 -540q-2 -13 -11.5 -21.5t-23.5 -8.5h-146q-13 0 -20 8.5t-5 21.5l180 1280q2 14 11.5 22t22.5 8h146q14 0 21 -8.5t5 -21.5l-78 -554h524l78 554 q2 14 11.5 22t22.5 8h146z" glyph-name="H" unicode="H" vert-adv-y="1980"/>
<glyph d="M1172 1340q14 0 21 -8.5t5 -21.5l-180 -1280q-2 -14 -11.5 -22t-23.5 -8h-146q-13 0 -20 8.5t-5 21.5l76 540h-524l-76 -540q-2 -13 -11.5 -21.5t-23.5 -8.5h-146q-13 0 -20 8.5t-5 21.5l180 1280q2 14 11.5 22t22.5 8h146q14 0 21 -8.5t5 -21.5l-26 -186h524l26 186 q2 14 11.5 22t22.5 8h146zM418 952l-28 -196h524l28 196h-524z" glyph-name="Hbar" unicode="Ħ" vert-adv-y="1980"/>
<glyph d="M98 0q-13 0 -22.5 11t-7.5 25l18 125q2 14 9 19.5t20 5.5h354l136 968h-345q-13 0 -22.5 11t-7.5 25l18 126q2 13 8.5 18.5t20.5 5.5h904q13 0 22.5 -11t7.5 -25l-18 -125q-1 -13 -8 -19t-21 -6h-353l-137 -968h345q13 0 22.5 -11t7.5 -25l-18 -126q-1 -13 -8 -18.5 t-21 -5.5h-904z" glyph-name="I" unicode="I" vert-adv-y="1980"/>
<glyph d="M209 1372q3 28 32 28h146q31 0 28 -32l-188 -1340q-3 -28 -32 -28h-146q-31 0 -28 32zM584 1214q-31 0 -28 32l18 126q3 28 32 28h635q31 0 28 -32l-121 -860q-25 -179 -105.5 -297t-194.5 -173.5t-245 -55.5q-138 0 -224 56q-15 11 -15 26q0 11 5 18l58 98q10 15 24 15 q9 0 13 -2q54 -21 129 -21q82 0 155.5 37t126 115t68.5 195l99 695h-458z" glyph-name="IJ" unicode="Ĳ" vert-adv-y="1980"/>
<glyph d="M98 0q-13 0 -22.5 11t-7.5 25l18 125q2 14 9 19.5t20 5.5h354l136 968h-345q-13 0 -22.5 11t-7.5 25l18 126q2 13 8.5 18.5t20.5 5.5h904q13 0 22.5 -11t7.5 -25l-18 -125q-1 -13 -8 -19t-21 -6h-353l-137 -968h345q13 0 22.5 -11t7.5 -25l-18 -126q-1 -13 -8 -18.5 t-21 -5.5h-904zM702 1542q-11 0 -18 4.5t-7 12.5q0 7 6 17l152 252q8 13 17 18.5t21 5.5h117q11 0 18 -4.5t7 -12.5q0 -6 -6 -17l-152 -252q-8 -13 -17 -18.5t-21 -5.5h-117z" glyph-name="Iacute" unicode="Í" vert-adv-y="1980"/>
<glyph d="M98 0q-13 0 -22.5 11t-7.5 25l18 125q2 14 9 19.5t20 5.5h354l136 968h-345q-13 0 -22.5 11t-7.5 25l18 126q2 13 8.5 18.5t20.5 5.5h904q13 0 22.5 -11t7.5 -25l-18 -125q-1 -13 -8 -19t-21 -6h-353l-137 -968h345q13 0 22.5 -11t7.5 -25l-18 -126q-1 -13 -8 -18.5 t-21 -5.5h-904zM701 1543q-11 0 -19 3.5t-15 12.5l-185 257q-6 9 -6 17t7.5 13.5t20.5 5.5h140q22 0 34 -16l132 -177l180 177q17 16 38 16h146q11 0 17 -4t6 -11q0 -10 -11 -21l-258 -257q-9 -9 -18 -12.5t-20 -3.5h-189z" glyph-name="uni01CF" unicode="Ǐ" vert-adv-y="1980"/>
<glyph d="M98 0q-13 0 -22.5 11t-7.5 25l18 125q2 14 9 19.5t20 5.5h354l136 968h-345q-13 0 -22.5 11t-7.5 25l18 126q2 13 8.5 18.5t20.5 5.5h904q13 0 22.5 -11t7.5 -25l-18 -125q-1 -13 -8 -19t-21 -6h-353l-137 -968h345q13 0 22.5 -11t7.5 -25l-18 -126q-1 -13 -8 -18.5 t-21 -5.5h-904zM466 1543q-11 0 -17 4t-6 10q0 10 12 22l257 257q9 9 18 12.5t20 3.5h189q23 0 34 -16l186 -257q6 -9 6 -16q0 -9 -7.5 -14.5t-20.5 -5.5h-141q-22 0 -34 16l-132 178l-180 -178q-17 -16 -38 -16h-146z" glyph-name="Icircumflex" unicode="Î" vert-adv-y="1980"/>
<glyph d="M98 0q-13 0 -22.5 11t-7.5 25l18 125q2 14 9 19.5t20 5.5h354l136 968h-345q-13 0 -22.5 11t-7.5 25l18 126q2 13 8.5 18.5t20.5 5.5h904q13 0 22.5 -11t7.5 -25l-18 -125q-1 -13 -8 -19t-21 -6h-353l-137 -968h345q13 0 22.5 -11t7.5 -25l-18 -126q-1 -13 -8 -18.5 t-21 -5.5h-904zM519 1669.5q-32 31.5 -32 76.5q0 43 32 74.5t76 31.5t75.5 -31.5t31.5 -74.5q0 -45 -31.5 -76.5t-75.5 -31.5t-76 31.5zM913 1669.5q-32 31.5 -32 76.5q0 43 32 74.5t76 31.5t75.5 -31.5t31.5 -74.5q0 -45 -31.5 -76.5t-75.5 -31.5t-76 31.5z" glyph-name="Idieresis" unicode="Ï" vert-adv-y="1980"/>
<glyph d="M98 0q-13 0 -22.5 11t-7.5 25l18 125q2 14 9 19.5t20 5.5h354l136 968h-345q-13 0 -22.5 11t-7.5 25l18 126q2 13 8.5 18.5t20.5 5.5h904q13 0 22.5 -11t7.5 -25l-18 -125q-1 -13 -8 -19t-21 -6h-353l-137 -968h345q13 0 22.5 -11t7.5 -25l-18 -126q-1 -13 -8 -18.5 t-21 -5.5h-904zM716.5 1669.5q-31.5 31.5 -31.5 76.5q0 43 31.5 74.5t75.5 31.5t75.5 -31.5t31.5 -74.5q0 -45 -31.5 -76.5t-75.5 -31.5t-75.5 31.5z" glyph-name="Idotaccent" unicode="İ" vert-adv-y="1980"/>
<glyph d="M98 0q-13 0 -22.5 11t-7.5 25l18 125q2 14 9 19.5t20 5.5h354l136 968h-345q-13 0 -22.5 11t-7.5 25l18 126q2 13 8.5 18.5t20.5 5.5h904q13 0 22.5 -11t7.5 -25l-18 -125q-1 -13 -8 -19t-21 -6h-353l-137 -968h345q13 0 22.5 -11t7.5 -25l-18 -126q-1 -13 -8 -18.5 t-21 -5.5h-904zM721 1542q-12 0 -21 5.5t-17 18.5l-152 252q-6 11 -6 17q0 8 7 12.5t18 4.5h117q12 0 21 -5.5t17 -18.5l152 -252q6 -10 6 -17q0 -8 -7 -12.5t-18 -4.5h-117z" glyph-name="Igrave" unicode="Ì" vert-adv-y="1980"/>
<glyph d="M98 0q-13 0 -22.5 11t-7.5 25l18 125q2 14 9 19.5t20 5.5h354l136 968h-345q-13 0 -22.5 11t-7.5 25l18 126q2 13 8.5 18.5t20.5 5.5h904q13 0 22.5 -11t7.5 -25l-18 -125q-1 -13 -8 -19t-21 -6h-353l-137 -968h345q13 0 22.5 -11t7.5 -25l-18 -126q-1 -13 -8 -18.5 t-21 -5.5h-904zM526 1694q-13 0 -20.5 8t-5.5 22l14 98q1 13 10.5 21.5t23.5 8.5h516q13 0 20.5 -8t5.5 -22l-14 -98q-1 -13 -10.5 -21.5t-23.5 -8.5h-516z" glyph-name="Imacron" unicode="Ī" vert-adv-y="1980"/>
<glyph d="M1181 1340q13 0 22.5 -11t7.5 -25l-18 -125q-1 -13 -8 -19t-21 -6h-353l-137 -968h345q13 0 22.5 -11t7.5 -25l-18 -126q-1 -13 -8 -18.5t-20 -5.5q-101 0 -161 -34.5t-60 -103.5q0 -104 147 -104h29q20 0 17 -20l-12 -89q-3 -20 -23 -20h-67q-99 0 -172.5 44.5 t-73.5 154.5q0 106 79 172h-608q-13 0 -22.5 11t-7.5 25l18 125q2 14 9 19.5t20 5.5h354l136 968h-345q-13 0 -22.5 11t-7.5 25l18 126q2 13 8.5 18.5t20.5 5.5h904z" glyph-name="Iogonek" unicode="Į" vert-adv-y="1980"/>
<glyph d="M1182 747q15 0 22.5 -8t5.5 -24l-19 -126q-4 -28 -33 -28q-47 0 -133 -2l-5 -36q-44 -320 -185 -476.5t-378 -156.5q-129 0 -219.5 44t-136.5 124t-46 186q0 211 189 345t603 155l56 410h-558q-13 0 -20.5 8t-5.5 22l18 126q1 13 10.5 21.5t23.5 8.5h731q14 0 21.5 -8.5 t5.5 -22.5l-78 -562h131zM702 200q83 114 118 349q-279 -22 -418 -89t-139 -193q0 -84 58 -132.5t155 -48.5q143 0 226 114z" glyph-name="J" unicode="J" vert-adv-y="1980"/>
<glyph d="M1210 1340q11 0 17 -4t6 -10q0 -10 -12 -22l-559 -578l411 -690q5 -10 5 -15q0 -10 -7.5 -15.5t-20.5 -5.5h-161q-12 0 -19.5 4t-13.5 14l-337 561l-204 -211l-48 -338q-2 -14 -11.5 -22t-22.5 -8h-146q-14 0 -21 8.5t-5 21.5l180 1280q2 14 11.5 22t22.5 8h146 q14 0 21 -8.5t5 -21.5l-92 -657l636 671q16 16 38 16h181z" glyph-name="K" unicode="K" vert-adv-y="1980"/>
<glyph d="M1210 1340q11 0 17 -4t6 -10q0 -10 -12 -22l-559 -578l411 -690q5 -10 5 -15q0 -10 -7.5 -15.5t-20.5 -5.5h-161q-12 0 -19.5 4t-13.5 14l-337 561l-204 -211l-48 -338q-2 -14 -11.5 -22t-22.5 -8h-146q-14 0 -21 8.5t-5 21.5l180 1280q2 14 11.5 22t22.5 8h146 q14 0 21 -8.5t5 -21.5l-92 -657l636 671q16 16 38 16h181zM689 -165q13 0 19.5 -7.5t4.5 -20.5l-8 -58q-18 -124 -41 -234.5t-46 -183.5q-7 -22 -35 -22h-99q-23 0 -23 20q0 6 1 10q42 204 57 334h-230q-13 0 -19.5 7.5t-5.5 20.5l16 106q1 13 10 20.5t22 7.5h377z" glyph-name="uni0136" unicode="Ķ" vert-adv-y="1980"/>
<glyph d="M1010 186q14 0 21 -8.5t5 -21.5l-18 -126q-2 -14 -11.5 -22t-22.5 -8h-817q-14 0 -21 8.5t-5 21.5l180 1280q2 14 11.5 22t22.5 8h146q14 0 21 -8.5t5 -21.5l-158 -1124h641z" glyph-name="L" unicode="L" vert-adv-y="1980"/>
<glyph d="M1010 186q14 0 21 -8.5t5 -21.5l-18 -126q-2 -14 -11.5 -22t-22.5 -8h-817q-14 0 -21 8.5t-5 21.5l180 1280q2 14 11.5 22t22.5 8h146q14 0 21 -8.5t5 -21.5l-158 -1124h641zM452 1523q-11 0 -18 4.5t-7 12.5q0 7 6 17l152 252q8 13 17 18.5t21 5.5h117q11 0 18 -4.5 t7 -12.5q0 -6 -6 -17l-152 -252q-8 -13 -17 -18.5t-21 -5.5h-117z" glyph-name="Lacute" unicode="Ĺ" vert-adv-y="1980"/>
<glyph d="M1010 186q14 0 21 -8.5t5 -21.5l-18 -126q-2 -14 -11.5 -22t-22.5 -8h-817q-14 0 -21 8.5t-5 21.5l180 1280q2 14 11.5 22t22.5 8h146q14 0 21 -8.5t5 -21.5l-158 -1124h641zM1046 1340q14 0 20.5 -8.5t4.5 -21.5l-8 -62q-19 -134 -44 -252t-49 -196q-9 -23 -38 -23h-106 q-25 0 -25 19q0 3 2 13q43 217 61 358h-247q-13 0 -20.5 8t-5.5 22l16 113q2 14 12 22t23 8h404z" glyph-name="Lcaron" unicode="Ľ" vert-adv-y="1980"/>
<glyph d="M1010 186q14 0 21 -8.5t5 -21.5l-18 -126q-2 -14 -11.5 -22t-22.5 -8h-817q-14 0 -21 8.5t-5 21.5l180 1280q2 14 11.5 22t22.5 8h146q14 0 21 -8.5t5 -21.5l-158 -1124h641zM689 -165q13 0 19.5 -7.5t4.5 -20.5l-8 -58q-18 -124 -41 -234.5t-46 -183.5q-7 -22 -35 -22 h-99q-23 0 -23 20q0 6 1 10q42 204 57 334h-230q-13 0 -19.5 7.5t-5.5 20.5l16 106q1 13 10 20.5t22 7.5h377z" glyph-name="uni013B" unicode="Ļ" vert-adv-y="1980"/>
<glyph d="M1010 186q14 0 21 -8.5t5 -21.5l-18 -126q-2 -14 -11.5 -22t-22.5 -8h-817q-14 0 -21 8.5t-5 21.5l180 1280q2 14 11.5 22t22.5 8h146q14 0 21 -8.5t5 -21.5l-158 -1124h641zM693 624q-41 24 -65 65.5t-24 90.5q0 50 24 91.5t65 65.5t91 24t91 -24t65 -65.5t24 -91.5 q0 -49 -24 -90.5t-65 -65.5t-91 -24t-91 24z" glyph-name="Ldot" unicode="Ŀ" vert-adv-y="1980"/>
<glyph d="M1003 186q16 0 23.5 -8t4.5 -24l-17 -126q-3 -28 -32 -28h-847q-31 0 -28 32l55 393l-54 -53q-11 -11 -20 -11q-8 0 -12 7t-4 20v130q0 22 16 38l107 104l100 712q3 28 32 28h146q31 0 28 -32l-67 -475l163 159q11 11 20 11q8 0 12 -7t4 -20v-128q0 -22 -16 -38 l-216 -212l-67 -472h669z" glyph-name="Lslash" unicode="Ł" vert-adv-y="1980"/>
<glyph d="M93 0q-14 0 -21 8.5t-5 21.5l180 1280q2 14 11.5 22t22.5 8h167q13 0 23 -5t11 -15l104 -994h12l384 994q4 10 14.5 15t23.5 5h167q14 0 21 -8.5t5 -21.5l-180 -1280q-2 -14 -11.5 -22t-22.5 -8h-116q-14 0 -21 8.5t-5 21.5l125 884h-13l-315 -791q-4 -11 -14.5 -17 t-23.5 -6h-112q-13 0 -21.5 6t-9.5 17l-93 791h-12l-125 -884q-2 -14 -11.5 -22t-22.5 -8h-116z" glyph-name="M" unicode="M" vert-adv-y="1980"/>
<glyph d="M1165 1340q14 0 21 -8.5t5 -21.5l-180 -1280q-1 -13 -10.5 -21.5t-23.5 -8.5h-180q-14 0 -23.5 5t-9.5 15q0 99 -28.5 199t-70 190t-112.5 224q-57 110 -88.5 174t-59.5 133l-128 -910q-1 -13 -10.5 -21.5t-23.5 -8.5h-128q-13 0 -20.5 8t-5.5 22l180 1280q2 14 11.5 22 t22.5 8h182q14 0 24 -5t10 -15q0 -116 31.5 -231t77.5 -215.5t122 -247.5q32 -63 65 -129t57 -121l131 934q2 14 11.5 22t22.5 8h128z" glyph-name="N" unicode="N" vert-adv-y="1980"/>
<glyph d="M1165 1340q14 0 21 -8.5t5 -21.5l-180 -1280q-1 -13 -10.5 -21.5t-23.5 -8.5h-180q-14 0 -23.5 5t-9.5 15q0 99 -28.5 199t-70 190t-112.5 224q-57 110 -88.5 174t-59.5 133l-128 -910q-1 -13 -10.5 -21.5t-23.5 -8.5h-128q-13 0 -20.5 8t-5.5 22l180 1280q2 14 11.5 22 t22.5 8h182q14 0 24 -5t10 -15q0 -116 31.5 -231t77.5 -215.5t122 -247.5q32 -63 65 -129t57 -121l131 934q2 14 11.5 22t22.5 8h128zM702 1542q-11 0 -18 4.5t-7 12.5q0 7 6 17l152 252q8 13 17 18.5t21 5.5h117q11 0 18 -4.5t7 -12.5q0 -6 -6 -17l-152 -252 q-8 -13 -17 -18.5t-21 -5.5h-117z" glyph-name="Nacute" unicode="Ń" vert-adv-y="1980"/>
<glyph d="M1165 1340q14 0 21 -8.5t5 -21.5l-180 -1280q-1 -13 -10.5 -21.5t-23.5 -8.5h-180q-14 0 -23.5 5t-9.5 15q0 99 -28.5 199t-70 190t-112.5 224q-57 110 -88.5 174t-59.5 133l-128 -910q-1 -13 -10.5 -21.5t-23.5 -8.5h-128q-13 0 -20.5 8t-5.5 22l180 1280q2 14 11.5 22 t22.5 8h182q14 0 24 -5t10 -15q0 -116 31.5 -231t77.5 -215.5t122 -247.5q32 -63 65 -129t57 -121l131 934q2 14 11.5 22t22.5 8h128zM701 1543q-11 0 -19 3.5t-15 12.5l-185 257q-6 9 -6 17t7.5 13.5t20.5 5.5h140q22 0 34 -16l132 -177l180 177q17 16 38 16h146 q11 0 17 -4t6 -11q0 -10 -11 -21l-258 -257q-9 -9 -18 -12.5t-20 -3.5h-189z" glyph-name="Ncaron" unicode="Ň" vert-adv-y="1980"/>
<glyph d="M1165 1340q14 0 21 -8.5t5 -21.5l-180 -1280q-1 -13 -10.5 -21.5t-23.5 -8.5h-180q-14 0 -23.5 5t-9.5 15q0 99 -28.5 199t-70 190t-112.5 224q-57 110 -88.5 174t-59.5 133l-128 -910q-1 -13 -10.5 -21.5t-23.5 -8.5h-128q-13 0 -20.5 8t-5.5 22l180 1280q2 14 11.5 22 t22.5 8h182q14 0 24 -5t10 -15q0 -116 31.5 -231t77.5 -215.5t122 -247.5q32 -63 65 -129t57 -121l131 934q2 14 11.5 22t22.5 8h128zM689 -165q13 0 19.5 -7.5t4.5 -20.5l-8 -58q-18 -124 -41 -234.5t-46 -183.5q-7 -22 -35 -22h-99q-23 0 -23 20q0 6 1 10q42 204 57 334 h-230q-13 0 -19.5 7.5t-5.5 20.5l16 106q1 13 10 20.5t22 7.5h377z" glyph-name="uni0145" unicode="Ņ" vert-adv-y="1980"/>
<glyph d="M1165 1340q14 0 21 -8.5t5 -21.5l-184 -1316q-20 -145 -88 -234t-184 -129.5t-287 -40.5l16 188q319 0 354 222h-21q-14 0 -23.5 5t-9.5 15q0 99 -28.5 199t-70 190t-112.5 224q-57 110 -88.5 174t-59.5 133l-128 -910q-1 -13 -10.5 -21.5t-23.5 -8.5h-128q-13 0 -20.5 8 t-5.5 22l180 1280q2 14 11.5 22t22.5 8h182q14 0 24 -5t10 -15q0 -115 31.5 -229t76 -213t120.5 -248q33 -63 66.5 -130.5t57.5 -123.5l132 934q2 14 11.5 22t22.5 8h128z" glyph-name="Eng" unicode="Ŋ" vert-adv-y="1980"/>
<glyph d="M1165 1340q14 0 21 -8.5t5 -21.5l-180 -1280q-1 -13 -10.5 -21.5t-23.5 -8.5h-180q-14 0 -23.5 5t-9.5 15q0 99 -28.5 199t-70 190t-112.5 224q-57 110 -88.5 174t-59.5 133l-128 -910q-1 -13 -10.5 -21.5t-23.5 -8.5h-128q-13 0 -20.5 8t-5.5 22l180 1280q2 14 11.5 22 t22.5 8h182q14 0 24 -5t10 -15q0 -116 31.5 -231t77.5 -215.5t122 -247.5q32 -63 65 -129t57 -121l131 934q2 14 11.5 22t22.5 8h128zM828 1603q-36 20 -79 59q-35 31 -58.5 45.5t-54.5 14.5q-38 0 -62 -17.5t-37 -42.5q-9 -17 -25 -17h-54q-8 0 -12.5 4.5t-4.5 11.5 q0 3 2 9q21 84 78.5 128t138.5 44q54 0 90 -20t78 -58q35 -31 59 -45.5t56 -14.5q36 0 60.5 17t36.5 42q8 17 24 17h54q9 0 14 -5.5t3 -14.5q-19 -85 -78 -131t-139 -46q-54 0 -90 20z" glyph-name="Ntilde" unicode="Ñ" vert-adv-y="1980"/>
<glyph d="M323 31q-91 61 -137.5 174.5t-46.5 270.5q0 89 15 189q33 213 108.5 369t193.5 241t275 85q132 0 223.5 -61t138 -175t46.5 -271q0 -87 -15 -188q-33 -213 -108.5 -369t-194 -241t-275.5 -85q-132 0 -223 61zM724.5 226q71.5 58 123 170t76.5 269q12 83 12 153 q0 109 -28 186.5t-79.5 117.5t-119.5 40q-85 0 -156.5 -58t-122.5 -170t-76 -269q-13 -81 -13 -155q0 -108 28.5 -185t80 -117t119.5 -40q84 0 155.5 58z" glyph-name="O" unicode="O" vert-adv-y="1980"/>
<glyph d="M323 31q-91 61 -137.5 174.5t-46.5 270.5q0 89 15 189q33 213 108.5 369t193.5 241t275 85q132 0 223.5 -61t138 -175t46.5 -271q0 -87 -15 -188q-33 -213 -108.5 -369t-194 -241t-275.5 -85q-132 0 -223 61zM724.5 226q71.5 58 123 170t76.5 269q12 83 12 153 q0 109 -28 186.5t-79.5 117.5t-119.5 40q-85 0 -156.5 -58t-122.5 -170t-76 -269q-13 -81 -13 -155q0 -108 28.5 -185t80 -117t119.5 -40q84 0 155.5 58zM702 1542q-11 0 -18 4.5t-7 12.5q0 7 6 17l152 252q8 13 17 18.5t21 5.5h117q11 0 18 -4.5t7 -12.5q0 -6 -6 -17 l-152 -252q-8 -13 -17 -18.5t-21 -5.5h-117z" glyph-name="Oacute" unicode="Ó" vert-adv-y="1980"/>
<glyph d="M323 31q-91 61 -137.5 174.5t-46.5 270.5q0 89 15 189q33 213 108.5 369t193.5 241t275 85q132 0 223.5 -61t138 -175t46.5 -271q0 -87 -15 -188q-33 -213 -108.5 -369t-194 -241t-275.5 -85q-132 0 -223 61zM724.5 226q71.5 58 123 170t76.5 269q12 83 12 153 q0 109 -28 186.5t-79.5 117.5t-119.5 40q-85 0 -156.5 -58t-122.5 -170t-76 -269q-13 -81 -13 -155q0 -108 28.5 -185t80 -117t119.5 -40q84 0 155.5 58zM701 1543q-11 0 -19 3.5t-15 12.5l-185 257q-6 9 -6 17t7.5 13.5t20.5 5.5h140q22 0 34 -16l132 -177l180 177 q17 16 38 16h146q11 0 17 -4t6 -11q0 -10 -11 -21l-258 -257q-9 -9 -18 -12.5t-20 -3.5h-189z" glyph-name="uni01D1" unicode="Ǒ" vert-adv-y="1980"/>
<glyph d="M323 31q-91 61 -137.5 174.5t-46.5 270.5q0 89 15 189q33 213 108.5 369t193.5 241t275 85q132 0 223.5 -61t138 -175t46.5 -271q0 -87 -15 -188q-33 -213 -108.5 -369t-194 -241t-275.5 -85q-132 0 -223 61zM724.5 226q71.5 58 123 170t76.5 269q12 83 12 153 q0 109 -28 186.5t-79.5 117.5t-119.5 40q-85 0 -156.5 -58t-122.5 -170t-76 -269q-13 -81 -13 -155q0 -108 28.5 -185t80 -117t119.5 -40q84 0 155.5 58zM466 1543q-11 0 -17 4t-6 10q0 10 12 22l257 257q9 9 18 12.5t20 3.5h189q23 0 34 -16l186 -257q6 -9 6 -16 q0 -9 -7.5 -14.5t-20.5 -5.5h-141q-22 0 -34 16l-132 178l-180 -178q-17 -16 -38 -16h-146z" glyph-name="Ocircumflex" unicode="Ô" vert-adv-y="1980"/>
<glyph d="M323 31q-91 61 -137.5 174.5t-46.5 270.5q0 89 15 189q33 213 108.5 369t193.5 241t275 85q132 0 223.5 -61t138 -175t46.5 -271q0 -87 -15 -188q-33 -213 -108.5 -369t-194 -241t-275.5 -85q-132 0 -223 61zM724.5 226q71.5 58 123 170t76.5 269q12 83 12 153 q0 109 -28 186.5t-79.5 117.5t-119.5 40q-85 0 -156.5 -58t-122.5 -170t-76 -269q-13 -81 -13 -155q0 -108 28.5 -185t80 -117t119.5 -40q84 0 155.5 58zM519 1669.5q-32 31.5 -32 76.5q0 43 32 74.5t76 31.5t75.5 -31.5t31.5 -74.5q0 -45 -31.5 -76.5t-75.5 -31.5t-76 31.5 zM913 1669.5q-32 31.5 -32 76.5q0 43 32 74.5t76 31.5t75.5 -31.5t31.5 -74.5q0 -45 -31.5 -76.5t-75.5 -31.5t-76 31.5z" glyph-name="Odieresis" unicode="Ö" vert-adv-y="1980"/>
<glyph d="M323 31q-91 61 -137.5 174.5t-46.5 270.5q0 89 15 189q33 213 108.5 369t193.5 241t275 85q132 0 223.5 -61t138 -175t46.5 -271q0 -87 -15 -188q-33 -213 -108.5 -369t-194 -241t-275.5 -85q-132 0 -223 61zM724.5 226q71.5 58 123 170t76.5 269q12 83 12 153 q0 109 -28 186.5t-79.5 117.5t-119.5 40q-85 0 -156.5 -58t-122.5 -170t-76 -269q-13 -81 -13 -155q0 -108 28.5 -185t80 -117t119.5 -40q84 0 155.5 58zM721 1542q-12 0 -21 5.5t-17 18.5l-152 252q-6 11 -6 17q0 8 7 12.5t18 4.5h117q12 0 21 -5.5t17 -18.5l152 -252 q6 -10 6 -17q0 -8 -7 -12.5t-18 -4.5h-117z" glyph-name="Ograve" unicode="Ò" vert-adv-y="1980"/>
<glyph d="M323 31q-91 61 -137.5 174.5t-46.5 270.5q0 89 15 189q33 213 108.5 369t193.5 241t275 85q132 0 223.5 -61t138 -175t46.5 -271q0 -87 -15 -188q-33 -213 -108.5 -369t-194 -241t-275.5 -85q-132 0 -223 61zM724.5 226q71.5 58 123 170t76.5 269q12 83 12 153 q0 109 -28 186.5t-79.5 117.5t-119.5 40q-85 0 -156.5 -58t-122.5 -170t-76 -269q-13 -81 -13 -155q0 -108 28.5 -185t80 -117t119.5 -40q84 0 155.5 58zM839 1542q-11 0 -18 4.5t-7 12.5q0 7 6 17l152 252q8 13 17 18.5t21 5.5h117q11 0 18 -4.5t7 -12.5q0 -6 -6 -17 l-152 -252q-8 -13 -17 -18.5t-21 -5.5h-117zM517 1542q-11 0 -18 4.5t-7 12.5q0 7 6 17l152 252q8 13 17 18.5t21 5.5h117q11 0 18 -4.5t7 -12.5q0 -6 -6 -17l-152 -252q-8 -13 -17 -18.5t-21 -5.5h-117z" glyph-name="Ohungarumlaut" unicode="Ő" vert-adv-y="1980"/>
<glyph d="M323 31q-91 61 -137.5 174.5t-46.5 270.5q0 89 15 189q33 213 108.5 369t193.5 241t275 85q132 0 223.5 -61t138 -175t46.5 -271q0 -87 -15 -188q-33 -213 -108.5 -369t-194 -241t-275.5 -85q-132 0 -223 61zM724.5 226q71.5 58 123 170t76.5 269q12 83 12 153 q0 109 -28 186.5t-79.5 117.5t-119.5 40q-85 0 -156.5 -58t-122.5 -170t-76 -269q-13 -81 -13 -155q0 -108 28.5 -185t80 -117t119.5 -40q84 0 155.5 58zM526 1694q-13 0 -20.5 8t-5.5 22l14 98q1 13 10.5 21.5t23.5 8.5h516q13 0 20.5 -8t5.5 -22l-14 -98 q-1 -13 -10.5 -21.5t-23.5 -8.5h-516z" glyph-name="Omacron" unicode="Ō" vert-adv-y="1980"/>
<glyph d="M954.5 1299q91.5 -61 138 -175t46.5 -271q0 -87 -15 -188q-38 -252 -136.5 -422.5t-251.5 -235.5l-2 -11q-20 0 -30 -1q-47 -17 -110 -23q-81 -36 -81 -114q0 -105 147 -105h29q20 0 17 -20l-12 -89q-3 -20 -23 -20h-67q-99 0 -172.5 45t-73.5 154q0 99 68 162 q-140 38 -213.5 166t-73.5 326q0 88 15 188q33 213 108.5 369t193.5 241t275 85q132 0 223.5 -61zM936 818q0 109 -28 186.5t-79.5 117.5t-119.5 40q-85 0 -156.5 -58t-122.5 -170t-76 -269q-13 -81 -13 -155q0 -108 28.5 -185t80 -117t119.5 -40q84 0 155.5 58t123 170 t76.5 269q12 83 12 153z" glyph-name="uni01EA" unicode="Ǫ" vert-adv-y="1980"/>
<glyph d="M1182 1460q23 0 23 -17q0 -8 -6 -19l-144 -228q84 -129 84 -342q0 -88 -15 -189q-33 -213 -108.5 -369t-194 -241t-275.5 -85q-135 0 -228 64l-90 -142q-13 -22 -38 -22h-92q-23 0 -23 17q0 8 6 19l143 226q-85 129 -85 343q0 90 15 190q33 213 108.5 369t193.5 241 t275 85q136 0 230 -66l92 144q13 22 37 22h92zM341 510q0 -93 21 -162l482 761q-56 53 -135 53q-85 0 -156.5 -58t-122.5 -170t-76 -269q-13 -81 -13 -155zM937 817q0 90 -20 161l-481 -759q56 -51 133 -51q84 0 155.5 58t123 170t76.5 269q13 79 13 152z" glyph-name="Oslash" unicode="Ø" vert-adv-y="1980"/>
<glyph d="M323 31q-91 61 -137.5 174.5t-46.5 270.5q0 89 15 189q33 213 108.5 369t193.5 241t275 85q132 0 223.5 -61t138 -175t46.5 -271q0 -87 -15 -188q-33 -213 -108.5 -369t-194 -241t-275.5 -85q-132 0 -223 61zM724.5 226q71.5 58 123 170t76.5 269q12 83 12 153 q0 109 -28 186.5t-79.5 117.5t-119.5 40q-85 0 -156.5 -58t-122.5 -170t-76 -269q-13 -81 -13 -155q0 -108 28.5 -185t80 -117t119.5 -40q84 0 155.5 58zM828 1603q-36 20 -79 59q-35 31 -58.5 45.5t-54.5 14.5q-38 0 -62 -17.5t-37 -42.5q-9 -17 -25 -17h-54 q-8 0 -12.5 4.5t-4.5 11.5q0 3 2 9q21 84 78.5 128t138.5 44q54 0 90 -20t78 -58q35 -31 59 -45.5t56 -14.5q36 0 60.5 17t36.5 42q8 17 24 17h54q9 0 14 -5.5t3 -14.5q-19 -85 -78 -131t-139 -46q-54 0 -90 20z" glyph-name="Otilde" unicode="Õ" vert-adv-y="1980"/>
<glyph d="M525 0q-149 -1 -241 36.5t-137.5 128t-45.5 249.5q0 103 20 251q37 262 108.5 408.5t187 207t297.5 59.5h506q13 0 20.5 -8t5.5 -22l-18 -126q-2 -14 -11.5 -22t-22.5 -8h-300l-54 -380h255q13 0 20.5 -8t5.5 -22l-18 -126q-2 -14 -11.5 -22t-22.5 -8h-255l-57 -402h303 q14 0 20.5 -8t4.5 -22l-17 -126q-2 -14 -11.5 -22t-23.5 -8h-508zM688 1152q-113 0 -180 -34.5t-112.5 -139t-74.5 -313.5q-19 -134 -19 -227q0 -108 27.5 -162t79 -71.5t142.5 -16.5z" glyph-name="OE" unicode="Œ" vert-adv-y="1980"/>
<glyph d="M751 1340q222 0 328 -90.5t106 -261.5q0 -48 -7 -94q-30 -215 -165.5 -330.5t-386.5 -115.5h-234l-58 -418q-2 -14 -11.5 -22t-22.5 -8h-146q-14 0 -21 8.5t-5 21.5l180 1280q2 14 11.5 22t22.5 8h409zM633 634q156 0 241 58t106 202q5 37 5 61q0 109 -70 154t-209 45 h-214l-73 -520h214z" glyph-name="P" unicode="P" vert-adv-y="1980"/>
<glyph d="M705 1144q138 0 234.5 -46t145 -130t48.5 -197q0 -40 -6 -82q-18 -131 -86 -228.5t-182.5 -151t-268.5 -53.5h-285l-32 -228q-3 -28 -32 -28h-146q-31 0 -28 32l188 1340q3 28 32 28h146q31 0 28 -32l-31 -224h275zM935 764q0 104 -68.5 149t-194.5 45h-269l-72 -516h260 q141 0 231 64t109 205q4 25 4 53z" glyph-name="Thorn" unicode="Þ" vert-adv-y="1980"/>
<glyph d="M323 31q-91 61 -137.5 174.5t-46.5 270.5q0 89 15 189q33 213 108.5 369t193.5 241t275 85q132 0 223.5 -61t138 -175t46.5 -271q0 -87 -15 -188q-33 -213 -108.5 -369t-194 -241t-275.5 -85q-132 0 -223 61zM724.5 226q71.5 58 123 170t76.5 269q12 83 12 153 q0 109 -28 186.5t-79.5 117.5t-119.5 40q-85 0 -156.5 -58t-122.5 -170t-76 -269q-13 -81 -13 -155q0 -108 28.5 -185t80 -117t119.5 -40q84 0 155.5 58zM833 -339q-51 12 -117 38q-65 25 -114 37t-117 12q-32 0 -28 28l15 109q2 14 11 23t25 9q71 2 122 -10t117 -38 q62 -25 112 -37.5t118 -12.5q32 0 28 -28l-15 -109q-2 -14 -11.5 -23t-23.5 -9q-71 -1 -122 11z" glyph-name="Q" unicode="Q" vert-adv-y="1980"/>
<glyph d="M846 478l188 -442q3 -6 3 -12q0 -10 -9 -17t-23 -7h-138q-13 0 -21.5 5.5t-13.5 18.5l-171 425q-13 -1 -40 -1h-234l-58 -418q-2 -14 -11.5 -22t-22.5 -8h-146q-14 0 -21 8.5t-5 21.5l180 1280q2 14 11.5 22t22.5 8h409q222 0 328 -90.5t106 -261.5q0 -48 -7 -94 q-46 -328 -327 -416zM980 955q0 109 -70 154t-209 45h-214l-73 -520h214q156 0 241 58t106 202q5 37 5 61z" glyph-name="R" unicode="R" vert-adv-y="1980"/>
<glyph d="M846 478l188 -442q3 -6 3 -12q0 -10 -9 -17t-23 -7h-138q-13 0 -21.5 5.5t-13.5 18.5l-171 425q-13 -1 -40 -1h-234l-58 -418q-2 -14 -11.5 -22t-22.5 -8h-146q-14 0 -21 8.5t-5 21.5l180 1280q2 14 11.5 22t22.5 8h409q222 0 328 -90.5t106 -261.5q0 -48 -7 -94 q-46 -328 -327 -416zM980 955q0 109 -70 154t-209 45h-214l-73 -520h214q156 0 241 58t106 202q5 37 5 61zM702 1542q-11 0 -18 4.5t-7 12.5q0 7 6 17l152 252q8 13 17 18.5t21 5.5h117q11 0 18 -4.5t7 -12.5q0 -6 -6 -17l-152 -252q-8 -13 -17 -18.5t-21 -5.5h-117z" glyph-name="Racute" unicode="Ŕ" vert-adv-y="1980"/>
<glyph d="M846 478l188 -442q3 -6 3 -12q0 -10 -9 -17t-23 -7h-138q-13 0 -21.5 5.5t-13.5 18.5l-171 425q-13 -1 -40 -1h-234l-58 -418q-2 -14 -11.5 -22t-22.5 -8h-146q-14 0 -21 8.5t-5 21.5l180 1280q2 14 11.5 22t22.5 8h409q222 0 328 -90.5t106 -261.5q0 -48 -7 -94 q-46 -328 -327 -416zM980 955q0 109 -70 154t-209 45h-214l-73 -520h214q156 0 241 58t106 202q5 37 5 61zM701 1543q-11 0 -19 3.5t-15 12.5l-185 257q-6 9 -6 17t7.5 13.5t20.5 5.5h140q22 0 34 -16l132 -177l180 177q17 16 38 16h146q11 0 17 -4t6 -11q0 -10 -11 -21 l-258 -257q-9 -9 -18 -12.5t-20 -3.5h-189z" glyph-name="Rcaron" unicode="Ř" vert-adv-y="1980"/>
<glyph d="M846 478l188 -442q3 -6 3 -12q0 -10 -9 -17t-23 -7h-138q-13 0 -21.5 5.5t-13.5 18.5l-171 425q-13 -1 -40 -1h-234l-58 -418q-2 -14 -11.5 -22t-22.5 -8h-146q-14 0 -21 8.5t-5 21.5l180 1280q2 14 11.5 22t22.5 8h409q222 0 328 -90.5t106 -261.5q0 -48 -7 -94 q-46 -328 -327 -416zM980 955q0 109 -70 154t-209 45h-214l-73 -520h214q156 0 241 58t106 202q5 37 5 61zM689 -165q13 0 19.5 -7.5t4.5 -20.5l-8 -58q-18 -124 -41 -234.5t-46 -183.5q-7 -22 -35 -22h-99q-23 0 -23 20q0 6 1 10q42 204 57 334h-230q-13 0 -19.5 7.5 t-5.5 20.5l16 106q1 13 10 20.5t22 7.5h377z" glyph-name="uni0156" unicode="Ŗ" vert-adv-y="1980"/>
<glyph d="M209 62q-118 92 -108 277q1 15 10.5 25t22.5 10h139q13 0 19 -8t6 -21q0 -88 71.5 -140t205.5 -52q139 0 224.5 59t85.5 169q0 60 -29.5 99t-88 64.5t-156.5 49.5q-117 28 -199 69.5t-132 114t-50 183.5q0 124 62 214t174.5 137.5t262.5 47.5q204 0 316 -88.5t103 -264.5 q0 -15 -9 -23t-23 -8h-128q-25 0 -25 22q0 82 -68 130.5t-189 48.5q-125 0 -200.5 -53.5t-75.5 -151.5q0 -77 57.5 -124.5t194.5 -80.5q130 -31 215 -68.5t138.5 -110t53.5 -192.5q0 -135 -67.5 -231t-189.5 -145.5t-284 -49.5q-221 0 -339 92z" glyph-name="S" unicode="S" vert-adv-y="1980"/>
<glyph d="M209 62q-118 92 -108 277q1 15 10.5 25t22.5 10h139q13 0 19 -8t6 -21q0 -88 71.5 -140t205.5 -52q139 0 224.5 59t85.5 169q0 60 -29.5 99t-88 64.5t-156.5 49.5q-117 28 -199 69.5t-132 114t-50 183.5q0 124 62 214t174.5 137.5t262.5 47.5q204 0 316 -88.5t103 -264.5 q0 -15 -9 -23t-23 -8h-128q-25 0 -25 22q0 82 -68 130.5t-189 48.5q-125 0 -200.5 -53.5t-75.5 -151.5q0 -77 57.5 -124.5t194.5 -80.5q130 -31 215 -68.5t138.5 -110t53.5 -192.5q0 -135 -67.5 -231t-189.5 -145.5t-284 -49.5q-221 0 -339 92zM702 1542q-11 0 -18 4.5 t-7 12.5q0 7 6 17l152 252q8 13 17 18.5t21 5.5h117q11 0 18 -4.5t7 -12.5q0 -6 -6 -17l-152 -252q-8 -13 -17 -18.5t-21 -5.5h-117z" glyph-name="Sacute" unicode="Ś" vert-adv-y="1980"/>
<glyph d="M209 62q-118 92 -108 277q1 15 10.5 25t22.5 10h139q13 0 19 -8t6 -21q0 -88 71.5 -140t205.5 -52q139 0 224.5 59t85.5 169q0 60 -29.5 99t-88 64.5t-156.5 49.5q-117 28 -199 69.5t-132 114t-50 183.5q0 124 62 214t174.5 137.5t262.5 47.5q204 0 316 -88.5t103 -264.5 q0 -15 -9 -23t-23 -8h-128q-25 0 -25 22q0 82 -68 130.5t-189 48.5q-125 0 -200.5 -53.5t-75.5 -151.5q0 -77 57.5 -124.5t194.5 -80.5q130 -31 215 -68.5t138.5 -110t53.5 -192.5q0 -135 -67.5 -231t-189.5 -145.5t-284 -49.5q-221 0 -339 92zM701 1543q-11 0 -19 3.5 t-15 12.5l-185 257q-6 9 -6 17t7.5 13.5t20.5 5.5h140q22 0 34 -16l132 -177l180 177q17 16 38 16h146q11 0 17 -4t6 -11q0 -10 -11 -21l-258 -257q-9 -9 -18 -12.5t-20 -3.5h-189z" glyph-name="Scaron" unicode="Š" vert-adv-y="1980"/>
<glyph d="M1045 1271.5q112 -88.5 103 -264.5q0 -15 -9 -23t-23 -8h-128q-25 0 -25 22q0 82 -68 130.5t-189 48.5q-125 0 -200.5 -53.5t-75.5 -151.5q0 -77 57.5 -124.5t194.5 -80.5q130 -31 215 -68.5t138.5 -110t53.5 -192.5q0 -128 -61 -221t-172 -144.5t-259 -59.5l-51 -44 q63 -6 105.5 -42t42.5 -95q0 -69 -38.5 -119.5t-102 -77t-139.5 -26.5q-36 0 -72 6q-18 3 -15 22l10 71q2 9 9 15t16 5q24 -3 48 -3q59 0 97.5 20.5t38.5 60.5q0 24 -24.5 41t-62.5 17q-37 0 -78 -16q-4 -2 -10 -2q-14 0 -12 16l10 70q1 12 13 24l68 61q-175 19 -266.5 110 t-82.5 254q1 15 10.5 25t22.5 10h139q13 0 19 -8t6 -21q0 -88 71.5 -140t205.5 -52q139 0 224.5 59t85.5 169q0 60 -29.5 99t-88 64.5t-156.5 49.5q-117 28 -199 69.5t-132 114t-50 183.5q0 124 62 214t174.5 137.5t262.5 47.5q204 0 316 -88.5z" glyph-name="Scedilla" unicode="Ş" vert-adv-y="1980"/>
<glyph d="M209 62q-118 92 -108 277q1 15 10.5 25t22.5 10h139q13 0 19 -8t6 -21q0 -88 71.5 -140t205.5 -52q139 0 224.5 59t85.5 169q0 60 -29.5 99t-88 64.5t-156.5 49.5q-117 28 -199 69.5t-132 114t-50 183.5q0 124 62 214t174.5 137.5t262.5 47.5q204 0 316 -88.5t103 -264.5 q0 -15 -9 -23t-23 -8h-128q-25 0 -25 22q0 82 -68 130.5t-189 48.5q-125 0 -200.5 -53.5t-75.5 -151.5q0 -77 57.5 -124.5t194.5 -80.5q130 -31 215 -68.5t138.5 -110t53.5 -192.5q0 -135 -67.5 -231t-189.5 -145.5t-284 -49.5q-221 0 -339 92zM689 -165q13 0 19.5 -7.5 t4.5 -20.5l-8 -58q-18 -124 -41 -234.5t-46 -183.5q-7 -22 -35 -22h-99q-23 0 -23 20q0 6 1 10q42 204 57 334h-230q-13 0 -19.5 7.5t-5.5 20.5l16 106q1 13 10 20.5t22 7.5h377z" glyph-name="uni0218" unicode="Ș" vert-adv-y="1980"/>
<glyph d="M740 821q196 -23 303.5 -124t107.5 -281q0 -127 -53.5 -227t-157 -157.5t-249.5 -57.5q-175 0 -266.5 81.5t-91.5 228.5q0 13 2 39q1 28 31 28h110q30 0 28 -31q-2 -76 48.5 -120.5t142.5 -44.5q83 0 140 35.5t85.5 94t28.5 128.5q0 130 -97.5 191t-286.5 61 q-18 0 -27.5 11t-7.5 25l17 127l336 396h-294q-117 0 -171.5 -53.5t-69.5 -165.5l-137 -977q-4 -28 -32 -28h-146q-15 0 -22 8t-5 24l140 998q19 134 68 217t140.5 123t236.5 40h601q13 0 19.5 -5t6.5 -13t-9 -19z" glyph-name="uni1E9E" unicode="ẞ" vert-adv-y="1980"/>
<glyph d="M989.5 1381q92.5 -39 138 -131.5t45.5 -252.5q0 -108 -19 -242l-16 -120q-36 -257 -107.5 -401.5t-188.5 -204t-299 -59.5q-151 0 -247 41.5t-142.5 129.5t-46.5 229q0 80 13 170l20 141q2 14 11.5 22t22.5 8h774l6 43q15 116 15 195q0 113 -29 172t-83 80t-143 21 q-91 0 -148 -15.5t-96 -56.5t-65 -119q-4 -13 -14.5 -19.5t-23.5 -6.5h-135q-24 0 -24 21q0 4 2 12q34 140 102 224t174.5 121t260.5 37q150 0 242.5 -39zM731.5 195q65.5 27 113 106.5t76.5 231.5h-609q-10 -78 -10 -126q0 -91 28 -143t85 -74t151 -22q100 0 165.5 27z" glyph-name="uni018F" unicode="Ə" vert-adv-y="1980"/>
<glyph d="M473 0q-13 0 -20.5 8t-5.5 22l159 1124h-377q-13 0 -20.5 8t-5.5 22l18 126q2 14 11.5 22t22.5 8h958q13 0 20.5 -8t5.5 -22l-18 -126q-2 -14 -11.5 -22t-22.5 -8h-376l-158 -1124q-1 -13 -10.5 -21.5t-23.5 -8.5h-146z" glyph-name="T" unicode="T" vert-adv-y="1980"/>
<glyph d="M1213 1340q13 0 20.5 -8t5.5 -22l-18 -126q-2 -14 -11.5 -22t-22.5 -8h-376l-33 -232h209q14 0 21 -8.5t5 -21.5l-14 -98q-2 -14 -11.5 -22t-23.5 -8h-208l-103 -734q-1 -13 -10.5 -21.5t-23.5 -8.5h-146q-13 0 -20.5 8t-5.5 22l104 734h-209q-13 0 -20 8.5t-5 21.5 l13 98q2 14 11.5 22t22.5 8h209l33 232h-377q-13 0 -20.5 8t-5.5 22l18 126q2 14 11.5 22t22.5 8h958z" glyph-name="Tbar" unicode="Ŧ" vert-adv-y="1980"/>
<glyph d="M473 0q-13 0 -20.5 8t-5.5 22l159 1124h-377q-13 0 -20.5 8t-5.5 22l18 126q2 14 11.5 22t22.5 8h958q13 0 20.5 -8t5.5 -22l-18 -126q-2 -14 -11.5 -22t-22.5 -8h-376l-158 -1124q-1 -13 -10.5 -21.5t-23.5 -8.5h-146zM701 1543q-11 0 -19 3.5t-15 12.5l-185 257 q-6 9 -6 17t7.5 13.5t20.5 5.5h140q22 0 34 -16l132 -177l180 177q17 16 38 16h146q11 0 17 -4t6 -11q0 -10 -11 -21l-258 -257q-9 -9 -18 -12.5t-20 -3.5h-189z" glyph-name="Tcaron" unicode="Ť" vert-adv-y="1980"/>
<glyph d="M473 0q-13 0 -20.5 8t-5.5 22l159 1124h-377q-13 0 -20.5 8t-5.5 22l18 126q2 14 11.5 22t22.5 8h958q13 0 20.5 -8t5.5 -22l-18 -126q-2 -14 -11.5 -22t-22.5 -8h-376l-158 -1124q-1 -13 -10.5 -21.5t-23.5 -8.5h-146zM546 -73q63 -6 105.5 -42t42.5 -95 q0 -69 -38.5 -119.5t-102 -77t-139.5 -26.5q-36 0 -72 6q-18 3 -15 22l10 71q2 9 9 15t16 5q24 -3 48 -3q59 0 97.5 20.5t38.5 60.5q0 24 -24.5 41t-62.5 17q-37 0 -78 -16q-4 -2 -10 -2q-14 0 -12 16l10 70q1 12 13 24l96 86h153z" glyph-name="uni0162" unicode="Ţ" vert-adv-y="1980"/>
<glyph d="M473 0q-13 0 -20.5 8t-5.5 22l159 1124h-377q-13 0 -20.5 8t-5.5 22l18 126q2 14 11.5 22t22.5 8h958q13 0 20.5 -8t5.5 -22l-18 -126q-2 -14 -11.5 -22t-22.5 -8h-376l-158 -1124q-1 -13 -10.5 -21.5t-23.5 -8.5h-146zM689 -165q13 0 19.5 -7.5t4.5 -20.5l-8 -58 q-18 -124 -41 -234.5t-46 -183.5q-7 -22 -35 -22h-99q-23 0 -23 20q0 6 1 10q42 204 57 334h-230q-13 0 -19.5 7.5t-5.5 20.5l16 106q1 13 10 20.5t22 7.5h377z" glyph-name="uni021A" unicode="Ț" vert-adv-y="1980"/>
<glyph d="M235 65q-111 95 -111 278q0 49 7 98l121 869q2 14 11.5 22t22.5 8h146q14 0 21 -8.5t5 -21.5l-119 -851q-5 -38 -5 -66q0 -108 60 -167t176 -59q132 0 212.5 76.5t100.5 215.5l119 851q2 14 11.5 22t22.5 8h146q14 0 21 -8.5t5 -21.5l-121 -869q-33 -232 -172.5 -351.5 t-366.5 -119.5q-202 0 -313 95z" glyph-name="U" unicode="U" vert-adv-y="1980"/>
<glyph d="M235 65q-111 95 -111 278q0 49 7 98l121 869q2 14 11.5 22t22.5 8h146q14 0 21 -8.5t5 -21.5l-119 -851q-5 -38 -5 -66q0 -108 60 -167t176 -59q132 0 212.5 76.5t100.5 215.5l119 851q2 14 11.5 22t22.5 8h146q14 0 21 -8.5t5 -21.5l-121 -869q-33 -232 -172.5 -351.5 t-366.5 -119.5q-202 0 -313 95zM702 1542q-11 0 -18 4.5t-7 12.5q0 7 6 17l152 252q8 13 17 18.5t21 5.5h117q11 0 18 -4.5t7 -12.5q0 -6 -6 -17l-152 -252q-8 -13 -17 -18.5t-21 -5.5h-117z" glyph-name="Uacute" unicode="Ú" vert-adv-y="1980"/>
<glyph d="M235 65q-111 95 -111 278q0 49 7 98l121 869q2 14 11.5 22t22.5 8h146q14 0 21 -8.5t5 -21.5l-119 -851q-5 -38 -5 -66q0 -108 60 -167t176 -59q132 0 212.5 76.5t100.5 215.5l119 851q2 14 11.5 22t22.5 8h146q14 0 21 -8.5t5 -21.5l-121 -869q-33 -232 -172.5 -351.5 t-366.5 -119.5q-202 0 -313 95zM620 1591q-62 35 -93 95.5t-28 135.5q2 30 34 30h74q26 0 28 -28q5 -55 43.5 -92t106.5 -37q66 0 110.5 36t65.5 93q11 28 36 28h82q25 0 25 -20q0 -6 -1 -10q-18 -76 -63 -136t-114 -95t-156 -35q-88 0 -150 35z" glyph-name="Ubreve" unicode="Ŭ" vert-adv-y="1980"/>
<glyph d="M235 65q-111 95 -111 278q0 49 7 98l121 869q2 14 11.5 22t22.5 8h146q14 0 21 -8.5t5 -21.5l-119 -851q-5 -38 -5 -66q0 -108 60 -167t176 -59q132 0 212.5 76.5t100.5 215.5l119 851q2 14 11.5 22t22.5 8h146q14 0 21 -8.5t5 -21.5l-121 -869q-33 -232 -172.5 -351.5 t-366.5 -119.5q-202 0 -313 95zM701 1543q-11 0 -19 3.5t-15 12.5l-185 257q-6 9 -6 17t7.5 13.5t20.5 5.5h140q22 0 34 -16l132 -177l180 177q17 16 38 16h146q11 0 17 -4t6 -11q0 -10 -11 -21l-258 -257q-9 -9 -18 -12.5t-20 -3.5h-189z" glyph-name="uni01D3" unicode="Ǔ" vert-adv-y="1980"/>
<glyph d="M235 65q-111 95 -111 278q0 49 7 98l121 869q2 14 11.5 22t22.5 8h146q14 0 21 -8.5t5 -21.5l-119 -851q-5 -38 -5 -66q0 -108 60 -167t176 -59q132 0 212.5 76.5t100.5 215.5l119 851q2 14 11.5 22t22.5 8h146q14 0 21 -8.5t5 -21.5l-121 -869q-33 -232 -172.5 -351.5 t-366.5 -119.5q-202 0 -313 95zM466 1543q-11 0 -17 4t-6 10q0 10 12 22l257 257q9 9 18 12.5t20 3.5h189q23 0 34 -16l186 -257q6 -9 6 -16q0 -9 -7.5 -14.5t-20.5 -5.5h-141q-22 0 -34 16l-132 178l-180 -178q-17 -16 -38 -16h-146z" glyph-name="Ucircumflex" unicode="Û" vert-adv-y="1980"/>
<glyph d="M235 65q-111 95 -111 278q0 49 7 98l121 869q2 14 11.5 22t22.5 8h146q14 0 21 -8.5t5 -21.5l-119 -851q-5 -38 -5 -66q0 -108 60 -167t176 -59q132 0 212.5 76.5t100.5 215.5l119 851q2 14 11.5 22t22.5 8h146q14 0 21 -8.5t5 -21.5l-121 -869q-33 -232 -172.5 -351.5 t-366.5 -119.5q-202 0 -313 95zM519 1669.5q-32 31.5 -32 76.5q0 43 32 74.5t76 31.5t75.5 -31.5t31.5 -74.5q0 -45 -31.5 -76.5t-75.5 -31.5t-76 31.5zM913 1669.5q-32 31.5 -32 76.5q0 43 32 74.5t76 31.5t75.5 -31.5t31.5 -74.5q0 -45 -31.5 -76.5t-75.5 -31.5t-76 31.5z " glyph-name="Udieresis" unicode="Ü" vert-adv-y="1980"/>
<glyph d="M235 65q-111 95 -111 278q0 49 7 98l121 869q2 14 11.5 22t22.5 8h146q14 0 21 -8.5t5 -21.5l-119 -851q-5 -38 -5 -66q0 -108 60 -167t176 -59q132 0 212.5 76.5t100.5 215.5l119 851q2 14 11.5 22t22.5 8h146q14 0 21 -8.5t5 -21.5l-121 -869q-33 -232 -172.5 -351.5 t-366.5 -119.5q-202 0 -313 95zM721 1542q-12 0 -21 5.5t-17 18.5l-152 252q-6 11 -6 17q0 8 7 12.5t18 4.5h117q12 0 21 -5.5t17 -18.5l152 -252q6 -10 6 -17q0 -8 -7 -12.5t-18 -4.5h-117z" glyph-name="Ugrave" unicode="Ù" vert-adv-y="1980"/>
<glyph d="M235 65q-111 95 -111 278q0 49 7 98l121 869q2 14 11.5 22t22.5 8h146q14 0 21 -8.5t5 -21.5l-119 -851q-5 -38 -5 -66q0 -108 60 -167t176 -59q132 0 212.5 76.5t100.5 215.5l119 851q2 14 11.5 22t22.5 8h146q14 0 21 -8.5t5 -21.5l-121 -869q-33 -232 -172.5 -351.5 t-366.5 -119.5q-202 0 -313 95zM839 1542q-11 0 -18 4.5t-7 12.5q0 7 6 17l152 252q8 13 17 18.5t21 5.5h117q11 0 18 -4.5t7 -12.5q0 -6 -6 -17l-152 -252q-8 -13 -17 -18.5t-21 -5.5h-117zM517 1542q-11 0 -18 4.5t-7 12.5q0 7 6 17l152 252q8 13 17 18.5t21 5.5h117 q11 0 18 -4.5t7 -12.5q0 -6 -6 -17l-152 -252q-8 -13 -17 -18.5t-21 -5.5h-117z" glyph-name="Uhungarumlaut" unicode="Ű" vert-adv-y="1980"/>
<glyph d="M235 65q-111 95 -111 278q0 49 7 98l121 869q2 14 11.5 22t22.5 8h146q14 0 21 -8.5t5 -21.5l-119 -851q-5 -38 -5 -66q0 -108 60 -167t176 -59q132 0 212.5 76.5t100.5 215.5l119 851q2 14 11.5 22t22.5 8h146q14 0 21 -8.5t5 -21.5l-121 -869q-33 -232 -172.5 -351.5 t-366.5 -119.5q-202 0 -313 95zM526 1694q-13 0 -20.5 8t-5.5 22l14 98q1 13 10.5 21.5t23.5 8.5h516q13 0 20.5 -8t5.5 -22l-14 -98q-1 -13 -10.5 -21.5t-23.5 -8.5h-516z" glyph-name="Umacron" unicode="Ū" vert-adv-y="1980"/>
<glyph d="M1182 1340q14 0 21 -8.5t5 -21.5l-121 -869q-26 -182 -119 -295.5t-243 -153.5q-149 -67 -149 -166q0 -44 27 -70t78 -26q23 0 51 6v-132q-43 -19 -100 -19q-56 0 -107.5 21t-84.5 66.5t-33 116.5q0 105 87 183q-177 12 -273.5 106t-96.5 265q0 50 7 98l121 869 q2 14 11.5 22t22.5 8h146q14 0 21 -8.5t5 -21.5l-119 -851q-5 -38 -5 -66q0 -108 60 -167t176 -59q132 0 212.5 76.5t100.5 215.5l119 851q2 14 11.5 22t22.5 8h146z" glyph-name="Uogonek" unicode="Ų" vert-adv-y="1980"/>
<glyph d="M235 65q-111 95 -111 278q0 49 7 98l121 869q2 14 11.5 22t22.5 8h146q14 0 21 -8.5t5 -21.5l-119 -851q-5 -38 -5 -66q0 -108 60 -167t176 -59q132 0 212.5 76.5t100.5 215.5l119 851q2 14 11.5 22t22.5 8h146q14 0 21 -8.5t5 -21.5l-121 -869q-33 -232 -172.5 -351.5 t-366.5 -119.5q-202 0 -313 95zM754 1508q-43 25 -67.5 67.5t-24.5 91.5q0 50 24.5 92.5t67.5 67.5t95 25t95 -25t67.5 -67.5t24.5 -92.5q0 -49 -24.5 -91.5t-67.5 -67.5t-95 -25t-95 25zM899.5 1619q20.5 19 20.5 49q-1 30 -21 49t-50 19t-50 -19t-20 -49t20 -49t50 -19 t50.5 19z" glyph-name="Uring" unicode="Ů" vert-adv-y="1980"/>
<glyph d="M418 0q-12 0 -21 6t-10 18l-205 1282q-2 15 5.5 24.5t23.5 9.5h146q27 0 30 -24l167 -1104h39l478 1104q9 24 38 24h148q11 0 17 -5t6 -13t-4 -16l-565 -1282q-4 -11 -15 -17.5t-24 -6.5h-254z" glyph-name="V" unicode="V" vert-adv-y="1980"/>
<glyph d="M1253 1340q22 0 22 -18q0 -7 -3 -16l-348 -1282q-3 -11 -15.5 -17.5t-25.5 -6.5h-175q-13 0 -22 6.5t-10 17.5l-17 781l-237 -781q-4 -11 -15.5 -17.5t-24.5 -6.5h-177q-13 0 -22.5 6.5t-9.5 17.5l13 1282q0 34 29 34h133q30 0 30 -24l-28 -1055l292 935q7 24 37 24h76 q30 0 31 -24l29 -935l269 1055q3 12 13.5 18t24.5 6h131z" glyph-name="W" unicode="W" vert-adv-y="1980"/>
<glyph d="M1253 1340q22 0 22 -18q0 -7 -3 -16l-348 -1282q-3 -11 -15.5 -17.5t-25.5 -6.5h-175q-13 0 -22 6.5t-10 17.5l-17 781l-237 -781q-4 -11 -15.5 -17.5t-24.5 -6.5h-177q-13 0 -22.5 6.5t-9.5 17.5l13 1282q0 34 29 34h133q30 0 30 -24l-28 -1055l292 935q7 24 37 24h76 q30 0 31 -24l29 -935l269 1055q3 12 13.5 18t24.5 6h131zM702 1542q-11 0 -18 4.5t-7 12.5q0 7 6 17l152 252q8 13 17 18.5t21 5.5h117q11 0 18 -4.5t7 -12.5q0 -6 -6 -17l-152 -252q-8 -13 -17 -18.5t-21 -5.5h-117z" glyph-name="Wacute" unicode="Ẃ" vert-adv-y="1980"/>
<glyph d="M1253 1340q22 0 22 -18q0 -7 -3 -16l-348 -1282q-3 -11 -15.5 -17.5t-25.5 -6.5h-175q-13 0 -22 6.5t-10 17.5l-17 781l-237 -781q-4 -11 -15.5 -17.5t-24.5 -6.5h-177q-13 0 -22.5 6.5t-9.5 17.5l13 1282q0 34 29 34h133q30 0 30 -24l-28 -1055l292 935q7 24 37 24h76 q30 0 31 -24l29 -935l269 1055q3 12 13.5 18t24.5 6h131zM466 1543q-11 0 -17 4t-6 10q0 10 12 22l257 257q9 9 18 12.5t20 3.5h189q23 0 34 -16l186 -257q6 -9 6 -16q0 -9 -7.5 -14.5t-20.5 -5.5h-141q-22 0 -34 16l-132 178l-180 -178q-17 -16 -38 -16h-146z" glyph-name="Wcircumflex" unicode="Ŵ" vert-adv-y="1980"/>
<glyph d="M1253 1340q22 0 22 -18q0 -7 -3 -16l-348 -1282q-3 -11 -15.5 -17.5t-25.5 -6.5h-175q-13 0 -22 6.5t-10 17.5l-17 781l-237 -781q-4 -11 -15.5 -17.5t-24.5 -6.5h-177q-13 0 -22.5 6.5t-9.5 17.5l13 1282q0 34 29 34h133q30 0 30 -24l-28 -1055l292 935q7 24 37 24h76 q30 0 31 -24l29 -935l269 1055q3 12 13.5 18t24.5 6h131zM519 1669.5q-32 31.5 -32 76.5q0 43 32 74.5t76 31.5t75.5 -31.5t31.5 -74.5q0 -45 -31.5 -76.5t-75.5 -31.5t-76 31.5zM913 1669.5q-32 31.5 -32 76.5q0 43 32 74.5t76 31.5t75.5 -31.5t31.5 -74.5 q0 -45 -31.5 -76.5t-75.5 -31.5t-76 31.5z" glyph-name="Wdieresis" unicode="Ẅ" vert-adv-y="1980"/>
<glyph d="M1253 1340q22 0 22 -18q0 -7 -3 -16l-348 -1282q-3 -11 -15.5 -17.5t-25.5 -6.5h-175q-13 0 -22 6.5t-10 17.5l-17 781l-237 -781q-4 -11 -15.5 -17.5t-24.5 -6.5h-177q-13 0 -22.5 6.5t-9.5 17.5l13 1282q0 34 29 34h133q30 0 30 -24l-28 -1055l292 935q7 24 37 24h76 q30 0 31 -24l29 -935l269 1055q3 12 13.5 18t24.5 6h131zM721 1542q-12 0 -21 5.5t-17 18.5l-152 252q-6 11 -6 17q0 8 7 12.5t18 4.5h117q12 0 21 -5.5t17 -18.5l152 -252q6 -10 6 -17q0 -8 -7 -12.5t-18 -4.5h-117z" glyph-name="Wgrave" unicode="Ẁ" vert-adv-y="1980"/>
<glyph d="M1220 1340q11 0 17.5 -4.5t6.5 -11.5q0 -8 -9 -20l-483 -621l322 -647q4 -7 4 -14q0 -10 -7.5 -16t-21.5 -6h-154q-24 0 -33 20l-244 490l-382 -490q-16 -20 -39 -20h-154q-11 0 -17.5 4t-6.5 12t9 20l504 647l-310 621q-4 10 -4 14q0 10 7.5 16t21.5 6h154q25 0 34 -20 l231 -465l362 465q14 20 38 20h154z" glyph-name="X" unicode="X" vert-adv-y="1980"/>
<glyph d="M1251 1340q23 0 23 -16q0 -9 -8 -20l-544 -784l-69 -490q-2 -13 -11.5 -21.5t-23.5 -8.5h-146q-14 0 -20.5 8t-4.5 22l69 489l-325 785q-3 8 -3 14q0 10 7.5 16t20.5 6h154q24 0 33 -20l243 -606l412 606q14 20 39 20h154z" glyph-name="Y" unicode="Y" vert-adv-y="1980"/>
<glyph d="M1251 1340q23 0 23 -16q0 -9 -8 -20l-544 -784l-69 -490q-2 -13 -11.5 -21.5t-23.5 -8.5h-146q-14 0 -20.5 8t-4.5 22l69 489l-325 785q-3 8 -3 14q0 10 7.5 16t20.5 6h154q24 0 33 -20l243 -606l412 606q14 20 39 20h154zM702 1542q-11 0 -18 4.5t-7 12.5q0 7 6 17 l152 252q8 13 17 18.5t21 5.5h117q11 0 18 -4.5t7 -12.5q0 -6 -6 -17l-152 -252q-8 -13 -17 -18.5t-21 -5.5h-117z" glyph-name="Yacute" unicode="Ý" vert-adv-y="1980"/>
<glyph d="M1251 1340q23 0 23 -16q0 -9 -8 -20l-544 -784l-69 -490q-2 -13 -11.5 -21.5t-23.5 -8.5h-146q-14 0 -20.5 8t-4.5 22l69 489l-325 785q-3 8 -3 14q0 10 7.5 16t20.5 6h154q24 0 33 -20l243 -606l412 606q14 20 39 20h154zM466 1543q-11 0 -17 4t-6 10q0 10 12 22 l257 257q9 9 18 12.5t20 3.5h189q23 0 34 -16l186 -257q6 -9 6 -16q0 -9 -7.5 -14.5t-20.5 -5.5h-141q-22 0 -34 16l-132 178l-180 -178q-17 -16 -38 -16h-146z" glyph-name="Ycircumflex" unicode="Ŷ" vert-adv-y="1980"/>
<glyph d="M1251 1340q23 0 23 -16q0 -9 -8 -20l-544 -784l-69 -490q-2 -13 -11.5 -21.5t-23.5 -8.5h-146q-14 0 -20.5 8t-4.5 22l69 489l-325 785q-3 8 -3 14q0 10 7.5 16t20.5 6h154q24 0 33 -20l243 -606l412 606q14 20 39 20h154zM519 1669.5q-32 31.5 -32 76.5q0 43 32 74.5 t76 31.5t75.5 -31.5t31.5 -74.5q0 -45 -31.5 -76.5t-75.5 -31.5t-76 31.5zM913 1669.5q-32 31.5 -32 76.5q0 43 32 74.5t76 31.5t75.5 -31.5t31.5 -74.5q0 -45 -31.5 -76.5t-75.5 -31.5t-76 31.5z" glyph-name="Ydieresis" unicode="Ÿ" vert-adv-y="1980"/>
<glyph d="M1251 1340q23 0 23 -16q0 -9 -8 -20l-544 -784l-69 -490q-2 -13 -11.5 -21.5t-23.5 -8.5h-146q-14 0 -20.5 8t-4.5 22l69 489l-325 785q-3 8 -3 14q0 10 7.5 16t20.5 6h154q24 0 33 -20l243 -606l412 606q14 20 39 20h154zM721 1542q-12 0 -21 5.5t-17 18.5l-152 252 q-6 11 -6 17q0 8 7 12.5t18 4.5h117q12 0 21 -5.5t17 -18.5l152 -252q6 -10 6 -17q0 -8 -7 -12.5t-18 -4.5h-117z" glyph-name="Ygrave" unicode="Ỳ" vert-adv-y="1980"/>
<glyph d="M1158 1340q14 0 21 -8.5t5 -21.5l-22 -156l-805 -922q55 29 122 29q53 0 101 -14.5t121 -43.5q75 -30 124 -44.5t103 -14.5q25 0 39 3t29 9q13 5 22 5q26 0 21 -28l-12 -60q-22 -108 -144 -108q-53 0 -106.5 16.5t-137.5 49.5q-89 35 -147 52t-116 17q-48 0 -88 -13.5 t-68 -31t-64 -44.5q-34 -28 -53 -35q-4 -2 -12 -2q-10 0 -16 7.5t-4 18.5l24 164q3 20 19 39l828 951h-658q-13 0 -20.5 8t-5.5 22l18 126q2 14 11.5 22t22.5 8h848z" glyph-name="Z" unicode="Z" vert-adv-y="1980"/>
<glyph d="M1158 1340q14 0 21 -8.5t5 -21.5l-22 -156l-805 -922q55 29 122 29q53 0 101 -14.5t121 -43.5q75 -30 124 -44.5t103 -14.5q25 0 39 3t29 9q13 5 22 5q26 0 21 -28l-12 -60q-22 -108 -144 -108q-53 0 -106.5 16.5t-137.5 49.5q-89 35 -147 52t-116 17q-48 0 -88 -13.5 t-68 -31t-64 -44.5q-34 -28 -53 -35q-4 -2 -12 -2q-10 0 -16 7.5t-4 18.5l24 164q3 20 19 39l828 951h-658q-13 0 -20.5 8t-5.5 22l18 126q2 14 11.5 22t22.5 8h848zM702 1542q-11 0 -18 4.5t-7 12.5q0 7 6 17l152 252q8 13 17 18.5t21 5.5h117q11 0 18 -4.5t7 -12.5 q0 -6 -6 -17l-152 -252q-8 -13 -17 -18.5t-21 -5.5h-117z" glyph-name="Zacute" unicode="Ź" vert-adv-y="1980"/>
<glyph d="M1158 1340q14 0 21 -8.5t5 -21.5l-22 -156l-805 -922q55 29 122 29q53 0 101 -14.5t121 -43.5q75 -30 124 -44.5t103 -14.5q25 0 39 3t29 9q13 5 22 5q26 0 21 -28l-12 -60q-22 -108 -144 -108q-53 0 -106.5 16.5t-137.5 49.5q-89 35 -147 52t-116 17q-48 0 -88 -13.5 t-68 -31t-64 -44.5q-34 -28 -53 -35q-4 -2 -12 -2q-10 0 -16 7.5t-4 18.5l24 164q3 20 19 39l828 951h-658q-13 0 -20.5 8t-5.5 22l18 126q2 14 11.5 22t22.5 8h848zM701 1543q-11 0 -19 3.5t-15 12.5l-185 257q-6 9 -6 17t7.5 13.5t20.5 5.5h140q22 0 34 -16l132 -177 l180 177q17 16 38 16h146q11 0 17 -4t6 -11q0 -10 -11 -21l-258 -257q-9 -9 -18 -12.5t-20 -3.5h-189z" glyph-name="Zcaron" unicode="Ž" vert-adv-y="1980"/>
<glyph d="M1158 1340q14 0 21 -8.5t5 -21.5l-22 -156l-805 -922q55 29 122 29q53 0 101 -14.5t121 -43.5q75 -30 124 -44.5t103 -14.5q25 0 39 3t29 9q13 5 22 5q26 0 21 -28l-12 -60q-22 -108 -144 -108q-53 0 -106.5 16.5t-137.5 49.5q-89 35 -147 52t-116 17q-48 0 -88 -13.5 t-68 -31t-64 -44.5q-34 -28 -53 -35q-4 -2 -12 -2q-10 0 -16 7.5t-4 18.5l24 164q3 20 19 39l828 951h-658q-13 0 -20.5 8t-5.5 22l18 126q2 14 11.5 22t22.5 8h848zM716.5 1669.5q-31.5 31.5 -31.5 76.5q0 43 31.5 74.5t75.5 31.5t75.5 -31.5t31.5 -74.5q0 -45 -31.5 -76.5 t-75.5 -31.5t-75.5 31.5z" glyph-name="Zdotaccent" unicode="Ż" vert-adv-y="1980"/>
<glyph d="M1129 151q18 0 28 -18t10 -43q0 -44 -35.5 -74t-94.5 -30q-86 0 -141.5 62t-68.5 179l-6 56h-492l-109 -259q-9 -24 -38 -24h-149q-11 0 -17 5t-6 13t4 16l551 1282q4 12 14.5 18t23.5 6h254q13 0 22.5 -6.5t10.5 -17.5l133 -1056q8 -60 22 -86.5t50 -26.5q11 0 26 3 q3 1 8 1zM683 1128l-279 -666h397l-75 666h-43z" glyph-name="A.ss02" vert-adv-y="1980"/>
<glyph d="M1083 1273q0 -9 -1 -14l-20 -106q-1 -9 -8 -14t-16 -5q-7 0 -16 3q-50 18 -115 30t-130 12q-101 0 -157 -35.5t-56 -106.5q0 -69 60 -114t194 -45h114q17 0 24.5 -8t5.5 -22l-21 -115q-5 -29 -37 -29h-147q-179 0 -277.5 -71t-98.5 -198q0 -129 99.5 -198.5t275.5 -69.5 q69 0 133 10.5t111 28.5q8 3 14 3q21 0 18 -28l-13 -101q-3 -22 -12 -35.5t-26 -22.5q-49 -25 -129 -38.5t-162 -13.5q-158 0 -276 50.5t-182.5 146.5t-64.5 228q0 113 47 201t126 142t176 72l4 16q-74 33 -114.5 92.5t-40.5 141.5q0 92 50 160t142 104t215 36q87 0 166 -17 t130 -44q15 -9 15 -26z" glyph-name="E.ss02" vert-adv-y="1980"/>
<glyph d="M200.5 -79.5q-63.5 30.5 -92 78.5t-28.5 103q0 37 12 70q7 23 34 23h121q30 0 27 -32q-6 -78 115 -78q158 0 273.5 131.5t175 322.5t59.5 360q0 141 -43 202t-121 61q-72 0 -111 -49t-39 -147q0 -76 23.5 -177t58.5 -181q4 -8 4 -18q0 -17 -16 -23l-114 -40q-9 -3 -16 -3 q-17 0 -26 16q-49 85 -82 203t-33 225q0 120 44 208.5t126 136t192 47.5q153 0 255.5 -102t102.5 -346q0 -232 -91 -470t-259.5 -395t-388.5 -157q-99 0 -162.5 30.5z" glyph-name="I.ss02" vert-adv-y="1980"/>
<glyph d="M356.5 8.5q-100.5 38.5 -162 115t-61.5 184.5q0 81 31 152q10 22 35 22h111q25 0 25 -21q0 -8 -2 -13q-15 -40 -15 -78q0 -64 34 -113t95 -76t140 -27q77 0 142 24.5t104 74.5t39 123q0 66 -31 117.5t-76 89t-124 90.5q-85 57 -137 101t-88 107.5t-36 147.5 q0 99 52 174.5t143 116t205 40.5q90 0 176.5 -27t151.5 -80q13 -12 13 -26q0 -9 -2 -14l-36 -108q-7 -20 -21 -20q-9 0 -18 6q-134 86 -264 86q-90 0 -145 -41.5t-55 -112.5q0 -47 26 -85.5t64.5 -68t107.5 -73.5q95 -60 154 -109t101 -124.5t42 -179.5q0 -131 -70.5 -224.5 t-185 -141t-246.5 -47.5q-116 0 -216.5 38.5z" glyph-name="S.ss02" vert-adv-y="1980"/>
<glyph d="M315 -9.5q-84 20.5 -145 57.5q-12 8 -12 21q0 8 5 20l44 99q8 18 25 18q6 0 14 -3q117 -52 247 -52q151 0 255 68.5t127 226.5l45 300h-20q-165 -328 -403 -328q-76 0 -133.5 32t-89 93.5t-31.5 148.5q0 49 10 99l55 295q7 39 7 57q0 28 -11.5 42t-38.5 14q-12 0 -28 -3 q-3 -1 -8 -1q-25 0 -25 33q0 10 1 16q9 48 48.5 82t96.5 34q46 0 85 -21t62 -62.5t23 -99.5q0 -28 -6 -58l-52 -285q-9 -46 -9 -84q0 -77 33 -117t91 -40q90 0 174.5 88t150 251t97.5 380q4 28 32 28h145q32 0 28 -32l-127 -892q-24 -166 -113.5 -265.5t-210.5 -140 t-254 -40.5q-100 0 -184 20.5z" glyph-name="Y.ss02" vert-adv-y="1980"/>
<glyph d="M1209 34q2 -15 -5.5 -24.5t-23.5 -9.5h-152q-26 0 -30 24l-52 259h-607l-124 -259q-12 -24 -38 -24h-155q-11 0 -17 5t-6 13t4 16l620 1282q14 24 39 24h255q12 0 20.5 -6t10.5 -18zM742 1128l-318 -666h486l-133 666h-35z" glyph-name="A.ss05" horiz-adv-x="1341" vert-adv-y="1980"/>
<glyph d="M448 45q-154 75 -240 216.5t-86 334.5q0 188 82 363.5t248 288t403 112.5q174 0 284.5 -69t110.5 -221q0 -65 -20 -136q-6 -26 -33 -26h-130q-16 0 -22.5 9t-3.5 26q10 39 10 72q0 82 -55.5 114.5t-150.5 32.5q-173 0 -290 -81.5t-173 -206.5t-56 -257q0 -144 66 -244 t186 -151t282 -51q68 0 138 9t114 26q8 3 14 3q10 0 14.5 -7.5t3.5 -20.5l-14 -101q-3 -22 -11.5 -35.5t-25.5 -22.5q-52 -25 -130.5 -38.5t-160.5 -13.5q-200 0 -354 75z" glyph-name="C.ss05" horiz-adv-x="1310" vert-adv-y="1980"/>
<glyph d="M110 0q-13 0 -20 8t-5 22l180 1280q2 14 11.5 22t22.5 8h425q313 0 467 -154.5t154 -432.5q0 -226 -99.5 -396.5t-282.5 -263.5t-428 -93h-425zM552 186q186 0 318 68.5t200.5 194.5t68.5 295q0 206 -109.5 308t-341.5 102h-239l-137 -968h240z" glyph-name="D.ss05" horiz-adv-x="1418" vert-adv-y="1980"/>
<glyph d="M1231.5 694.5q7.5 -8.5 5.5 -23.5l-82 -576q-3 -22 -11.5 -35.5t-25.5 -22.5q-58 -29 -145.5 -48t-186.5 -19q-191 0 -342 75t-237 216t-86 332q0 186 82.5 362.5t249 290.5t404.5 114q172 0 279.5 -68.5t107.5 -219.5q0 -58 -18 -130q-6 -26 -33 -26h-128q-13 0 -20 6.5 t-7 18.5q0 6 1 10q10 37 10 69q0 79 -56 110.5t-150 31.5q-173 0 -290 -81t-172.5 -208t-55.5 -265q0 -140 56.5 -239t162.5 -150.5t253 -51.5q102 0 188 25l48 344h-290q-13 0 -20.5 8t-5.5 22l15 107q1 13 11 21.5t24 8.5h443q14 0 21.5 -8.5z" glyph-name="G.ss05" horiz-adv-x="1333" vert-adv-y="1980"/>
<glyph d="M1103 260q-5 -35 -5 -56q0 -29 10.5 -43t37.5 -14q12 0 28 3q3 1 8 1q25 0 25 -33q0 -10 -1 -16q-9 -48 -48 -82t-94 -34q-49 0 -88.5 22t-62.5 66t-23 105q0 23 3 48l31 217h-560l-58 -414q-2 -14 -11.5 -22t-22.5 -8h-146q-14 0 -21 8.5t-5 21.5l58 414h-73 q-15 0 -22 8t-5 24l17 126q4 28 32 28h77l96 680q2 14 11.5 22t22.5 8h146q14 0 21 -8.5t5 -21.5l-96 -680h560l96 680q2 14 11.5 22t22.5 8h145q14 0 21 -8.5t5 -21.5z" glyph-name="H.ss05" horiz-adv-x="1296" vert-adv-y="1980"/>
<glyph d="M984 186q14 0 21 -8.5t5 -21.5l-18 -126q-2 -14 -11.5 -22t-22.5 -8h-847q-14 0 -21 8.5t-5 21.5l180 1280q2 14 11.5 22t22.5 8h146q14 0 21 -8.5t5 -21.5l-158 -1124h671z" glyph-name="L.ss05" horiz-adv-x="1158" vert-adv-y="1980"/>
<glyph d="M1669 1331.5q7 -8.5 5 -21.5l-180 -1280q-2 -14 -11.5 -22t-23.5 -8h-146q-13 0 -20 8t-5 22l129 915l-521 -922q-13 -23 -39 -23h-142q-24 0 -31 23l-265 920l-128 -913q-2 -14 -11.5 -22t-23.5 -8h-146q-13 0 -20 8t-5 22l180 1280q2 14 11.5 22t22.5 8h178 q27 0 33 -20l306 -1087l610 1087q11 20 39 20h183q14 0 21 -8.5z" glyph-name="M.ss05" horiz-adv-x="1709" vert-adv-y="1980"/>
<glyph d="M1257 1340q14 0 21 -8.5t5 -21.5l-180 -1280q-2 -14 -11.5 -22t-22.5 -8h-179q-14 0 -24 5t-10 15q0 98 -33.5 196t-83 185t-134.5 220q-71 111 -117 189t-83 159l-132 -939q-2 -14 -11.5 -22t-22.5 -8h-128q-14 0 -21 8.5t-5 21.5l180 1280q2 14 11.5 22t22.5 8h182 q14 0 24 -5t10 -15q0 -114 37.5 -226.5t91.5 -210t145 -242.5q58 -91 98.5 -158.5t72.5 -133.5l135 961q2 14 11.5 22t22.5 8h128z" glyph-name="N.ss05" horiz-adv-x="1318" vert-adv-y="1980"/>
<glyph d="M406 51.5q-136 77.5 -211.5 214.5t-75.5 310q0 210 105.5 390.5t285 287t389.5 106.5q176 0 312 -77.5t211 -214.5t75 -311q0 -209 -105 -389.5t-284 -287t-389 -106.5q-177 0 -313 77.5zM1016 247.5q126 77.5 200 208t74 280.5q0 124 -51 221.5t-144.5 152t-216.5 54.5 q-151 0 -278 -77.5t-201 -208.5t-74 -282q0 -124 51.5 -220.5t145.5 -151t218 -54.5q150 0 276 77.5z" glyph-name="O.ss05" horiz-adv-x="1568" vert-adv-y="1980"/>
<glyph d="M708 1340q222 0 328 -90.5t106 -261.5q0 -48 -7 -94q-30 -215 -165.5 -330.5t-386.5 -115.5h-234l-58 -418q-2 -14 -11.5 -22t-22.5 -8h-146q-14 0 -21 8.5t-5 21.5l180 1280q2 14 11.5 22t22.5 8h409zM590 634q156 0 241 58t106 202q5 37 5 61q0 109 -70 154t-209 45 h-214l-73 -520h214z" glyph-name="P.ss05" horiz-adv-x="1189" vert-adv-y="1980"/>
<glyph d="M406 51.5q-136 77.5 -211.5 214.5t-75.5 310q0 210 105.5 390.5t285 287t389.5 106.5q176 0 312 -77.5t211 -214.5t75 -311q0 -209 -105 -389.5t-284 -287t-389 -106.5q-177 0 -313 77.5zM1016 247.5q126 77.5 200 208t74 280.5q0 124 -51 221.5t-144.5 152t-216.5 54.5 q-151 0 -278 -77.5t-201 -208.5t-74 -282q0 -124 51.5 -220.5t145.5 -151t218 -54.5q150 0 276 77.5zM903 -339q-51 12 -117 38q-65 25 -114 37t-117 12q-32 0 -28 28l15 109q2 14 11 23t25 9q71 2 122 -10t117 -38q62 -25 112 -37.5t118 -12.5q32 0 28 -28l-15 -109 q-2 -14 -11.5 -23t-23.5 -9q-71 -1 -122 11z" glyph-name="Q.ss05" horiz-adv-x="1568" vert-adv-y="1980"/>
<glyph d="M841 490l193 -454q3 -6 3 -12q0 -10 -9 -17t-23 -7h-138q-13 0 -21.5 5.5t-13.5 18.5l-172 427q-37 -3 -77 -3h-234l-58 -418q-2 -14 -11.5 -22t-22.5 -8h-146q-14 0 -21 8.5t-5 21.5l180 1280q2 14 11.5 22t22.5 8h409q222 0 328 -90.5t106 -261.5q0 -48 -7 -94 q-44 -309 -294 -404zM942 955q0 109 -70 154t-209 45h-214l-73 -520h214q156 0 241 58t106 202q5 37 5 61z" glyph-name="R.ss05" horiz-adv-x="1213" vert-adv-y="1980"/>
<glyph d="M487 0q-13 0 -20.5 8t-5.5 22l159 1124h-407q-13 0 -20.5 8t-5.5 22l18 126q2 14 11.5 22t22.5 8h1018q13 0 20.5 -8t5.5 -22l-18 -126q-2 -14 -11.5 -22t-22.5 -8h-406l-158 -1124q-1 -13 -10.5 -21.5t-23.5 -8.5h-146z" glyph-name="T.ss05" horiz-adv-x="1258" vert-adv-y="1980"/>
<glyph d="M359.5 20q-109.5 50 -168.5 146t-59 230q0 48 7 94l116 820q1 13 10.5 21.5t23.5 8.5h146q13 0 20.5 -8t5.5 -22l-112 -794q-5 -40 -5 -68q0 -132 79.5 -206.5t222.5 -74.5q161 0 263 93t125 256l111 794q1 13 10.5 21.5t23.5 8.5h146q13 0 20.5 -8t5.5 -22l-116 -820 q-23 -163 -107 -280t-215.5 -178.5t-295.5 -61.5q-148 0 -257.5 50z" glyph-name="U.ss05" horiz-adv-x="1376" vert-adv-y="1980"/>
<glyph d="M472 0q-25 0 -31 24l-260 1282q-3 15 5 24.5t24 9.5h152q13 0 20 -5.5t10 -18.5l220 -1104h35l528 1104q12 24 38 24h155q11 0 17 -5t6 -13t-4 -16l-621 -1282q-5 -12 -15.5 -18t-23.5 -6h-255z" glyph-name="V.ss05" horiz-adv-x="1340" vert-adv-y="1980"/>
<glyph d="M1492 1340q23 0 23 -18q0 -4 -4 -16l-467 -1282q-4 -11 -15 -17.5t-24 -6.5h-366q-13 0 -22 6.5t-10 17.5l-107 1282q-2 16 5.5 25t23.5 9h120q11 0 18 -4q5 4 16 4h126q29 0 30 -24l72 -678l262 678q11 24 38 24h126q10 0 17 -5q9 5 22 5h116z" glyph-name="W.ss05" horiz-adv-x="1783" vert-adv-y="1980"/>
<glyph d="M1220 1340q11 0 17.5 -4.5t6.5 -11.5q0 -8 -9 -20l-483 -621l322 -647q4 -7 4 -14q0 -10 -7.5 -16t-21.5 -6h-154q-24 0 -33 20l-244 490l-382 -490q-16 -20 -39 -20h-154q-11 0 -17.5 4t-6.5 12t9 20l504 647l-310 621q-4 10 -4 14q0 10 7.5 16t21.5 6h154q25 0 34 -20 l231 -465l362 465q14 20 38 20h154z" glyph-name="X.ss05" vert-adv-y="1980"/>
<glyph d="M1107 151q25 0 25 -33q0 -10 -1 -16q-9 -48 -48 -82t-95 -34q-69 0 -112.5 50t-43.5 142q0 24 3 49l19 148h-19q-88 -198 -194.5 -299.5t-242.5 -101.5q-88 0 -154 41.5t-102.5 124t-36.5 201.5q0 182 83.5 335.5t236.5 244.5t351 91q105 0 199.5 -26.5t143.5 -77.5 l-66 -475l-25 -173q-5 -35 -5 -56q0 -29 10.5 -43t37.5 -14q12 0 28 3q3 1 8 1zM676.5 262.5q92.5 109.5 153 258t84.5 267.5q-23 24 -69 34.5t-98 10.5q-130 0 -232.5 -61.5t-159 -166t-56.5 -227.5q0 -118 49 -171.5t125 -53.5q111 0 203.5 109.5z" glyph-name="a" unicode="a" vert-adv-y="1980"/>
<glyph d="M1107 151q25 0 25 -33q0 -10 -1 -16q-9 -48 -48 -82t-95 -34q-69 0 -112.5 50t-43.5 142q0 24 3 49l19 148h-19q-88 -198 -194.5 -299.5t-242.5 -101.5q-88 0 -154 41.5t-102.5 124t-36.5 201.5q0 182 83.5 335.5t236.5 244.5t351 91q105 0 199.5 -26.5t143.5 -77.5 l-66 -475l-25 -173q-5 -35 -5 -56q0 -29 10.5 -43t37.5 -14q12 0 28 3q3 1 8 1zM676.5 262.5q92.5 109.5 153 258t84.5 267.5q-23 24 -69 34.5t-98 10.5q-130 0 -232.5 -61.5t-159 -166t-56.5 -227.5q0 -118 49 -171.5t125 -53.5q111 0 203.5 109.5zM645 1192q-11 0 -18 4.5 t-7 12.5q0 7 6 17l152 252q8 13 17 18.5t21 5.5h117q11 0 18 -4.5t7 -12.5q0 -6 -6 -17l-152 -252q-8 -13 -17 -18.5t-21 -5.5h-117z" glyph-name="aacute" unicode="á" vert-adv-y="1980"/>
<glyph d="M1107 151q25 0 25 -33q0 -10 -1 -16q-9 -48 -48 -82t-95 -34q-69 0 -112.5 50t-43.5 142q0 24 3 49l19 148h-19q-88 -198 -194.5 -299.5t-242.5 -101.5q-88 0 -154 41.5t-102.5 124t-36.5 201.5q0 182 83.5 335.5t236.5 244.5t351 91q105 0 199.5 -26.5t143.5 -77.5 l-66 -475l-25 -173q-5 -35 -5 -56q0 -29 10.5 -43t37.5 -14q12 0 28 3q3 1 8 1zM676.5 262.5q92.5 109.5 153 258t84.5 267.5q-23 24 -69 34.5t-98 10.5q-130 0 -232.5 -61.5t-159 -166t-56.5 -227.5q0 -118 49 -171.5t125 -53.5q111 0 203.5 109.5zM563 1241 q-62 35 -93 95.5t-28 135.5q2 30 34 30h74q26 0 28 -28q5 -55 43.5 -92t106.5 -37q66 0 110.5 36t65.5 93q11 28 36 28h82q25 0 25 -20q0 -6 -1 -10q-18 -76 -63 -136t-114 -95t-156 -35q-88 0 -150 35z" glyph-name="abreve" unicode="ă" vert-adv-y="1980"/>
<glyph d="M1107 151q25 0 25 -33q0 -10 -1 -16q-9 -48 -48 -82t-95 -34q-69 0 -112.5 50t-43.5 142q0 24 3 49l19 148h-19q-88 -198 -194.5 -299.5t-242.5 -101.5q-88 0 -154 41.5t-102.5 124t-36.5 201.5q0 182 83.5 335.5t236.5 244.5t351 91q105 0 199.5 -26.5t143.5 -77.5 l-66 -475l-25 -173q-5 -35 -5 -56q0 -29 10.5 -43t37.5 -14q12 0 28 3q3 1 8 1zM676.5 262.5q92.5 109.5 153 258t84.5 267.5q-23 24 -69 34.5t-98 10.5q-130 0 -232.5 -61.5t-159 -166t-56.5 -227.5q0 -118 49 -171.5t125 -53.5q111 0 203.5 109.5zM644 1193q-11 0 -19 3.5 t-15 12.5l-185 257q-6 9 -6 17t7.5 13.5t20.5 5.5h140q22 0 34 -16l132 -177l180 177q17 16 38 16h146q11 0 17 -4t6 -11q0 -10 -11 -21l-258 -257q-9 -9 -18 -12.5t-20 -3.5h-189z" glyph-name="uni01CE" unicode="ǎ" vert-adv-y="1980"/>
<glyph d="M1107 151q25 0 25 -33q0 -10 -1 -16q-9 -48 -48 -82t-95 -34q-69 0 -112.5 50t-43.5 142q0 24 3 49l19 148h-19q-88 -198 -194.5 -299.5t-242.5 -101.5q-88 0 -154 41.5t-102.5 124t-36.5 201.5q0 182 83.5 335.5t236.5 244.5t351 91q105 0 199.5 -26.5t143.5 -77.5 l-66 -475l-25 -173q-5 -35 -5 -56q0 -29 10.5 -43t37.5 -14q12 0 28 3q3 1 8 1zM676.5 262.5q92.5 109.5 153 258t84.5 267.5q-23 24 -69 34.5t-98 10.5q-130 0 -232.5 -61.5t-159 -166t-56.5 -227.5q0 -118 49 -171.5t125 -53.5q111 0 203.5 109.5zM409 1193q-11 0 -17 4 t-6 10q0 10 12 22l257 257q9 9 18 12.5t20 3.5h189q23 0 34 -16l186 -257q6 -9 6 -16q0 -9 -7.5 -14.5t-20.5 -5.5h-141q-22 0 -34 16l-132 178l-180 -178q-17 -16 -38 -16h-146z" glyph-name="acircumflex" unicode="â" vert-adv-y="1980"/>
<glyph d="M1107 151q25 0 25 -33q0 -10 -1 -16q-9 -48 -48 -82t-95 -34q-69 0 -112.5 50t-43.5 142q0 24 3 49l19 148h-19q-88 -198 -194.5 -299.5t-242.5 -101.5q-88 0 -154 41.5t-102.5 124t-36.5 201.5q0 182 83.5 335.5t236.5 244.5t351 91q105 0 199.5 -26.5t143.5 -77.5 l-66 -475l-25 -173q-5 -35 -5 -56q0 -29 10.5 -43t37.5 -14q12 0 28 3q3 1 8 1zM676.5 262.5q92.5 109.5 153 258t84.5 267.5q-23 24 -69 34.5t-98 10.5q-130 0 -232.5 -61.5t-159 -166t-56.5 -227.5q0 -118 49 -171.5t125 -53.5q111 0 203.5 109.5zM462 1319.5 q-32 31.5 -32 76.5q0 43 32 74.5t76 31.5t75.5 -31.5t31.5 -74.5q0 -45 -31.5 -76.5t-75.5 -31.5t-76 31.5zM856 1319.5q-32 31.5 -32 76.5q0 43 32 74.5t76 31.5t75.5 -31.5t31.5 -74.5q0 -45 -31.5 -76.5t-75.5 -31.5t-76 31.5z" glyph-name="adieresis" unicode="ä" vert-adv-y="1980"/>
<glyph d="M1107 151q25 0 25 -33q0 -10 -1 -16q-9 -48 -48 -82t-95 -34q-69 0 -112.5 50t-43.5 142q0 24 3 49l19 148h-19q-88 -198 -194.5 -299.5t-242.5 -101.5q-88 0 -154 41.5t-102.5 124t-36.5 201.5q0 182 83.5 335.5t236.5 244.5t351 91q105 0 199.5 -26.5t143.5 -77.5 l-66 -475l-25 -173q-5 -35 -5 -56q0 -29 10.5 -43t37.5 -14q12 0 28 3q3 1 8 1zM676.5 262.5q92.5 109.5 153 258t84.5 267.5q-23 24 -69 34.5t-98 10.5q-130 0 -232.5 -61.5t-159 -166t-56.5 -227.5q0 -118 49 -171.5t125 -53.5q111 0 203.5 109.5zM664 1192q-12 0 -21 5.5 t-17 18.5l-152 252q-6 11 -6 17q0 8 7 12.5t18 4.5h117q12 0 21 -5.5t17 -18.5l152 -252q6 -10 6 -17q0 -8 -7 -12.5t-18 -4.5h-117z" glyph-name="agrave" unicode="à" vert-adv-y="1980"/>
<glyph d="M1107 151q25 0 25 -33q0 -10 -1 -16q-9 -48 -48 -82t-95 -34q-69 0 -112.5 50t-43.5 142q0 24 3 49l19 148h-19q-88 -198 -194.5 -299.5t-242.5 -101.5q-88 0 -154 41.5t-102.5 124t-36.5 201.5q0 182 83.5 335.5t236.5 244.5t351 91q105 0 199.5 -26.5t143.5 -77.5 l-66 -475l-25 -173q-5 -35 -5 -56q0 -29 10.5 -43t37.5 -14q12 0 28 3q3 1 8 1zM676.5 262.5q92.5 109.5 153 258t84.5 267.5q-23 24 -69 34.5t-98 10.5q-130 0 -232.5 -61.5t-159 -166t-56.5 -227.5q0 -118 49 -171.5t125 -53.5q111 0 203.5 109.5zM469 1344q-13 0 -20.5 8 t-5.5 22l14 98q1 13 10.5 21.5t23.5 8.5h516q13 0 20.5 -8t5.5 -22l-14 -98q-1 -13 -10.5 -21.5t-23.5 -8.5h-516z" glyph-name="amacron" unicode="ā" vert-adv-y="1980"/>
<glyph d="M1107 151q25 0 25 -33q0 -10 -1 -16q-7 -40 -35.5 -71t-71.5 -41h-1q-10 -3 -22 -3q-92 -17 -141.5 -62.5t-49.5 -102.5q0 -47 27 -73.5t78 -26.5q23 0 51 6v-132q-43 -19 -100 -19q-56 0 -107 21t-84 66.5t-33 116.5q0 95 63.5 159.5t163.5 102.5q-37 51 -37 135 q0 24 3 49l19 148h-19q-88 -198 -194.5 -299.5t-242.5 -101.5q-88 0 -154 41.5t-102.5 124t-36.5 201.5q0 182 83.5 335.5t236.5 244.5t351 91q105 0 199.5 -26.5t143.5 -77.5l-66 -475l-25 -173q-5 -35 -5 -56q0 -29 10.5 -43t37.5 -14q12 0 28 3q3 1 8 1zM676.5 262.5 q92.5 109.5 153 258t84.5 267.5q-23 24 -69 34.5t-98 10.5q-130 0 -232.5 -61.5t-159 -166t-56.5 -227.5q0 -118 49 -171.5t125 -53.5q111 0 203.5 109.5z" glyph-name="aogonek" unicode="ą" vert-adv-y="1980"/>
<glyph d="M1107 151q25 0 25 -33q0 -10 -1 -16q-9 -48 -48 -82t-95 -34q-69 0 -112.5 50t-43.5 142q0 24 3 49l19 148h-19q-88 -198 -194.5 -299.5t-242.5 -101.5q-88 0 -154 41.5t-102.5 124t-36.5 201.5q0 182 83.5 335.5t236.5 244.5t351 91q105 0 199.5 -26.5t143.5 -77.5 l-66 -475l-25 -173q-5 -35 -5 -56q0 -29 10.5 -43t37.5 -14q12 0 28 3q3 1 8 1zM676.5 262.5q92.5 109.5 153 258t84.5 267.5q-23 24 -69 34.5t-98 10.5q-130 0 -232.5 -61.5t-159 -166t-56.5 -227.5q0 -118 49 -171.5t125 -53.5q111 0 203.5 109.5zM697 1158 q-43 25 -67.5 67.5t-24.5 91.5q0 50 24.5 92.5t67.5 67.5t95 25t95 -25t67.5 -67.5t24.5 -92.5q0 -49 -24.5 -91.5t-67.5 -67.5t-95 -25t-95 25zM842.5 1269q20.5 19 20.5 49q-1 30 -21 49t-50 19t-50 -19t-20 -49t20 -49t50 -19t50.5 19z" glyph-name="aring" unicode="å" vert-adv-y="1980"/>
<glyph d="M1107 151q25 0 25 -33q0 -10 -1 -16q-9 -48 -48 -82t-95 -34q-69 0 -112.5 50t-43.5 142q0 24 3 49l19 148h-19q-88 -198 -194.5 -299.5t-242.5 -101.5q-88 0 -154 41.5t-102.5 124t-36.5 201.5q0 182 83.5 335.5t236.5 244.5t351 91q105 0 199.5 -26.5t143.5 -77.5 l-66 -475l-25 -173q-5 -35 -5 -56q0 -29 10.5 -43t37.5 -14q12 0 28 3q3 1 8 1zM676.5 262.5q92.5 109.5 153 258t84.5 267.5q-23 24 -69 34.5t-98 10.5q-130 0 -232.5 -61.5t-159 -166t-56.5 -227.5q0 -118 49 -171.5t125 -53.5q111 0 203.5 109.5zM771 1253q-36 20 -79 59 q-35 31 -58.5 45.5t-54.5 14.5q-38 0 -62 -17.5t-37 -42.5q-9 -17 -25 -17h-54q-8 0 -12.5 4.5t-4.5 11.5q0 3 2 9q21 84 78.5 128t138.5 44q54 0 90 -20t78 -58q35 -31 59 -45.5t56 -14.5q36 0 60.5 17t36.5 42q8 17 24 17h54q9 0 14 -5.5t3 -14.5q-19 -85 -78 -131 t-139 -46q-54 0 -90 20z" glyph-name="atilde" unicode="ã" vert-adv-y="1980"/>
<glyph d="M1141.5 923.5q58.5 -88.5 58.5 -243.5q0 -75 -12 -161q-5 -39 -14 -59.5t-28.5 -30t-56.5 -9.5h-407q-3 -33 -3 -63q0 -107 41.5 -164.5t137.5 -57.5q58 0 101.5 21.5t90.5 64.5l70 -99q-118 -148 -294 -148q-193 0 -255 174q-129 -174 -315 -174q-114 0 -179.5 64 t-65.5 189q0 95 38.5 169.5t112 116.5t174.5 42h215l13 89q5 40 5 65q0 75 -32.5 107t-98.5 32q-69 0 -112 -34t-60 -114q-2 -12 -10.5 -18.5t-21.5 -6.5h-95q-14 0 -20.5 8.5t-3.5 23.5q56 305 333 305q189 0 238 -144q104 144 266 144q131 0 189.5 -88.5zM701 555h340 q10 61 10 118q0 85 -30.5 130t-96.5 45q-165 0 -223 -293zM532 420h-182q-86 0 -129.5 -42t-43.5 -117q0 -59 29 -89.5t96 -30.5q63 0 118 30t91 97z" glyph-name="ae" unicode="æ" vert-adv-y="1980"/>
<glyph d="M973.5 970q64.5 -42 99.5 -124.5t35 -201.5q0 -182 -85 -335.5t-238.5 -244t-350.5 -90.5q-107 0 -203.5 28t-146.5 80l184 1290q4 28 32 28h137q15 0 22.5 -8.5t5.5 -23.5l-109 -757h13q87 195 200.5 298t252.5 103q87 0 151.5 -42zM696.5 214q103.5 61 161.5 164.5 t58 226.5q0 118 -48.5 173t-121.5 55q-114 0 -210 -109.5t-159 -258t-87 -267.5q23 -24 69.5 -34.5t101.5 -10.5q132 0 235.5 61z" glyph-name="b" unicode="b" vert-adv-y="1980"/>
<glyph d="M411 28q-117 54 -183 157.5t-66 248.5q0 144 65.5 277t194.5 217t311 84q154 0 255 -67t101 -212q0 -61 -19 -131q-7 -26 -34 -26h-112q-16 0 -22.5 9t-3.5 26q8 38 8 65q0 84 -54 118.5t-138 34.5q-117 0 -198 -57t-120.5 -143.5t-39.5 -175.5q0 -97 48 -163.5t133 -100 t196 -33.5q63 0 124.5 10t108.5 29q9 3 15 3q10 0 14.5 -7t2.5 -20l-13 -87q-3 -22 -11.5 -35.5t-25.5 -22.5q-51 -25 -122.5 -38.5t-146.5 -13.5q-151 0 -268 54z" glyph-name="c" unicode="c" vert-adv-y="1980"/>
<glyph d="M411 28q-117 54 -183 157.5t-66 248.5q0 144 65.5 277t194.5 217t311 84q154 0 255 -67t101 -212q0 -61 -19 -131q-7 -26 -34 -26h-112q-16 0 -22.5 9t-3.5 26q8 38 8 65q0 84 -54 118.5t-138 34.5q-117 0 -198 -57t-120.5 -143.5t-39.5 -175.5q0 -97 48 -163.5t133 -100 t196 -33.5q63 0 124.5 10t108.5 29q9 3 15 3q10 0 14.5 -7t2.5 -20l-13 -87q-3 -22 -11.5 -35.5t-25.5 -22.5q-51 -25 -122.5 -38.5t-146.5 -13.5q-151 0 -268 54zM635 1192q-11 0 -18 4.5t-7 12.5q0 7 6 17l152 252q8 13 17 18.5t21 5.5h117q11 0 18 -4.5t7 -12.5 q0 -6 -6 -17l-152 -252q-8 -13 -17 -18.5t-21 -5.5h-117z" glyph-name="cacute" unicode="ć" vert-adv-y="1980"/>
<glyph d="M411 28q-117 54 -183 157.5t-66 248.5q0 144 65.5 277t194.5 217t311 84q154 0 255 -67t101 -212q0 -61 -19 -131q-7 -26 -34 -26h-112q-16 0 -22.5 9t-3.5 26q8 38 8 65q0 84 -54 118.5t-138 34.5q-117 0 -198 -57t-120.5 -143.5t-39.5 -175.5q0 -97 48 -163.5t133 -100 t196 -33.5q63 0 124.5 10t108.5 29q9 3 15 3q10 0 14.5 -7t2.5 -20l-13 -87q-3 -22 -11.5 -35.5t-25.5 -22.5q-51 -25 -122.5 -38.5t-146.5 -13.5q-151 0 -268 54zM634 1193q-11 0 -19 3.5t-15 12.5l-185 257q-6 9 -6 17t7.5 13.5t20.5 5.5h140q22 0 34 -16l132 -177 l180 177q17 16 38 16h146q11 0 17 -4t6 -11q0 -10 -11 -21l-258 -257q-9 -9 -18 -12.5t-20 -3.5h-189z" glyph-name="ccaron" unicode="č" vert-adv-y="1980"/>
<glyph d="M988 945q101 -67 101 -212q0 -61 -19 -131q-7 -26 -34 -26h-112q-16 0 -22.5 9t-3.5 26q8 38 8 65q0 84 -54 118.5t-138 34.5q-117 0 -198 -57t-120.5 -143.5t-39.5 -175.5q0 -97 48 -163.5t133 -100t196 -33.5q63 0 124.5 10t108.5 29q9 3 15 3q10 0 14.5 -7t2.5 -20 l-13 -87q-3 -22 -11.5 -35.5t-25.5 -22.5q-51 -25 -122.5 -38.5t-146.5 -13.5q-21 0 -59 2l-57 -49q63 -6 105.5 -42t42.5 -95q0 -69 -38.5 -119.5t-102 -77t-139.5 -26.5q-36 0 -72 6q-18 3 -15 22l10 71q2 9 9 15t16 5q24 -3 48 -3q59 0 97.5 20.5t38.5 60.5 q0 24 -24.5 41t-62.5 17q-37 0 -78 -16q-4 -2 -10 -2q-14 0 -12 16l10 70q1 12 13 24l94 84q-154 42 -242.5 154.5t-88.5 281.5q0 144 65.5 277t194.5 217t311 84q154 0 255 -67z" glyph-name="ccedilla" unicode="ç" vert-adv-y="1980"/>
<glyph d="M411 28q-117 54 -183 157.5t-66 248.5q0 144 65.5 277t194.5 217t311 84q154 0 255 -67t101 -212q0 -61 -19 -131q-7 -26 -34 -26h-112q-16 0 -22.5 9t-3.5 26q8 38 8 65q0 84 -54 118.5t-138 34.5q-117 0 -198 -57t-120.5 -143.5t-39.5 -175.5q0 -97 48 -163.5t133 -100 t196 -33.5q63 0 124.5 10t108.5 29q9 3 15 3q10 0 14.5 -7t2.5 -20l-13 -87q-3 -22 -11.5 -35.5t-25.5 -22.5q-51 -25 -122.5 -38.5t-146.5 -13.5q-151 0 -268 54zM649.5 1319.5q-31.5 31.5 -31.5 76.5q0 43 31.5 74.5t75.5 31.5t75.5 -31.5t31.5 -74.5q0 -45 -31.5 -76.5 t-75.5 -31.5t-75.5 31.5z" glyph-name="cdotaccent" unicode="ċ" vert-adv-y="1980"/>
<glyph d="M1056 433l-25 -173q-5 -35 -5 -56q0 -29 10.5 -43t37.5 -14q12 0 28 3q3 1 8 1q25 0 25 -33q0 -10 -1 -16q-9 -48 -48 -82t-95 -34q-69 0 -112.5 50t-43.5 142q0 24 3 49l19 148h-19q-178 -401 -445 -401q-88 0 -152.5 42t-99.5 124.5t-35 200.5q0 183 84 336.5t236 244 t347 90.5q88 0 169 -18l53 378q4 28 32 28h133q15 0 22.5 -8t5.5 -24zM675 262.5q94 109.5 156.5 258.5t85.5 267q-22 24 -69 34.5t-101 10.5q-130 0 -232 -61t-159 -164.5t-57 -227.5q0 -117 48.5 -172t122.5 -55q111 0 205 109.5z" glyph-name="d" unicode="d" vert-adv-y="1980"/>
<glyph d="M1241 1276q15 2 23.5 -5.5t8.5 -22.5v-88q0 -14 -7.5 -22.5t-20.5 -9.5l-93 -12l-96 -683l-25 -173q-5 -35 -5 -56q0 -29 10.5 -43t37.5 -14q12 0 28 3q3 1 8 1q25 0 25 -33q0 -10 -1 -16q-9 -48 -48 -82t-95 -34q-69 0 -112.5 50t-43.5 142q0 24 3 49l19 148h-19 q-178 -401 -445 -401q-88 0 -152.5 42t-99.5 124.5t-35 200.5q0 183 84 336.5t236 244t347 90.5q88 0 169 -18l13 95l-116 -15q-15 -2 -23.5 5.5t-8.5 22.5v88q0 14 7.5 22.5t20.5 9.5l142 19l18 131q4 28 32 28h133q15 0 22.5 -8t5.5 -24l-14 -101zM675 262.5 q94 109.5 156.5 258.5t85.5 267q-22 24 -69 34.5t-101 10.5q-130 0 -232 -61t-159 -164.5t-57 -227.5q0 -117 48.5 -172t122.5 -55q111 0 205 109.5z" glyph-name="eth" unicode="ð" vert-adv-y="1980"/>
<glyph d="M1056 433l-25 -173q-5 -35 -5 -56q0 -29 10.5 -43t37.5 -14q12 0 28 3q3 1 8 1q25 0 25 -33q0 -10 -1 -16q-9 -48 -48 -82t-95 -34q-69 0 -112.5 50t-43.5 142q0 24 3 49l19 148h-19q-178 -401 -445 -401q-88 0 -152.5 42t-99.5 124.5t-35 200.5q0 183 84 336.5t236 244 t347 90.5q88 0 169 -18l53 378q4 28 32 28h133q15 0 22.5 -8t5.5 -24zM675 262.5q94 109.5 156.5 258.5t85.5 267q-22 24 -69 34.5t-101 10.5q-130 0 -232 -61t-159 -164.5t-57 -227.5q0 -117 48.5 -172t122.5 -55q111 0 205 109.5zM1392 1336q-11 0 -18 4.5t-7 12.5 q0 7 6 17l152 252q8 13 17 18.5t21 5.5h117q11 0 18 -4.5t7 -12.5q0 -6 -6 -17l-152 -252q-8 -13 -17 -18.5t-21 -5.5h-117z" glyph-name="dcaron" unicode="ď" vert-adv-y="1980"/>
<glyph d="M1282 1261q14 0 21 -8.5t5 -21.5l-8 -57q-2 -14 -11.5 -22t-22.5 -8h-110l-100 -711l-25 -173q-5 -35 -5 -56q0 -29 10.5 -43t37.5 -14q12 0 28 3q3 1 8 1q25 0 25 -33q0 -10 -1 -16q-9 -48 -48 -82t-95 -34q-69 0 -112.5 50t-43.5 142q0 24 3 49l19 148h-19 q-178 -401 -445 -401q-88 0 -152.5 42t-99.5 124.5t-35 200.5q0 183 84 336.5t236 244t347 90.5q88 0 169 -18l21 150h-243q-14 0 -21 8.5t-5 21.5l8 57q2 14 11.5 22t22.5 8h243l16 111q4 28 32 28h133q15 0 22.5 -8t5.5 -24l-15 -107h109zM675 262.5q94 109.5 156.5 258.5 t85.5 267q-22 24 -69 34.5t-101 10.5q-130 0 -232 -61t-159 -164.5t-57 -227.5q0 -117 48.5 -172t122.5 -55q111 0 205 109.5z" glyph-name="dcroat" unicode="đ" vert-adv-y="1980"/>
<glyph d="M1045 161q11 -14 11 -26q0 -14 -14 -26q-77 -69 -184.5 -102t-226.5 -33q-153 0 -262 56t-165.5 157.5t-56.5 235.5q0 158 76.5 293.5t208 215.5t290.5 80q105 0 178 -35t109 -92t36 -124q0 -284 -682 -466q32 -74 104.5 -114.5t187.5 -40.5q176 0 300 84q15 10 25 10 q14 0 23 -14zM529.5 794q-84.5 -49 -138.5 -140t-55 -211q192 59 305.5 105.5t166.5 91t53 93.5q0 46 -39.5 78t-116.5 32q-91 0 -175.5 -49z" glyph-name="e" unicode="e" vert-adv-y="1980"/>
<glyph d="M1045 161q11 -14 11 -26q0 -14 -14 -26q-77 -69 -184.5 -102t-226.5 -33q-153 0 -262 56t-165.5 157.5t-56.5 235.5q0 158 76.5 293.5t208 215.5t290.5 80q105 0 178 -35t109 -92t36 -124q0 -284 -682 -466q32 -74 104.5 -114.5t187.5 -40.5q176 0 300 84q15 10 25 10 q14 0 23 -14zM529.5 794q-84.5 -49 -138.5 -140t-55 -211q192 59 305.5 105.5t166.5 91t53 93.5q0 46 -39.5 78t-116.5 32q-91 0 -175.5 -49zM665 1192q-11 0 -18 4.5t-7 12.5q0 7 6 17l152 252q8 13 17 18.5t21 5.5h117q11 0 18 -4.5t7 -12.5q0 -6 -6 -17l-152 -252 q-8 -13 -17 -18.5t-21 -5.5h-117z" glyph-name="eacute" unicode="é" vert-adv-y="1980"/>
<glyph d="M1045 161q11 -14 11 -26q0 -14 -14 -26q-77 -69 -184.5 -102t-226.5 -33q-153 0 -262 56t-165.5 157.5t-56.5 235.5q0 158 76.5 293.5t208 215.5t290.5 80q105 0 178 -35t109 -92t36 -124q0 -284 -682 -466q32 -74 104.5 -114.5t187.5 -40.5q176 0 300 84q15 10 25 10 q14 0 23 -14zM529.5 794q-84.5 -49 -138.5 -140t-55 -211q192 59 305.5 105.5t166.5 91t53 93.5q0 46 -39.5 78t-116.5 32q-91 0 -175.5 -49zM664 1193q-11 0 -19 3.5t-15 12.5l-185 257q-6 9 -6 17t7.5 13.5t20.5 5.5h140q22 0 34 -16l132 -177l180 177q17 16 38 16h146 q11 0 17 -4t6 -11q0 -10 -11 -21l-258 -257q-9 -9 -18 -12.5t-20 -3.5h-189z" glyph-name="ecaron" unicode="ě" vert-adv-y="1980"/>
<glyph d="M1045 161q11 -14 11 -26q0 -14 -14 -26q-77 -69 -184.5 -102t-226.5 -33q-153 0 -262 56t-165.5 157.5t-56.5 235.5q0 158 76.5 293.5t208 215.5t290.5 80q105 0 178 -35t109 -92t36 -124q0 -284 -682 -466q32 -74 104.5 -114.5t187.5 -40.5q176 0 300 84q15 10 25 10 q14 0 23 -14zM529.5 794q-84.5 -49 -138.5 -140t-55 -211q192 59 305.5 105.5t166.5 91t53 93.5q0 46 -39.5 78t-116.5 32q-91 0 -175.5 -49zM429 1193q-11 0 -17 4t-6 10q0 10 12 22l257 257q9 9 18 12.5t20 3.5h189q23 0 34 -16l186 -257q6 -9 6 -16q0 -9 -7.5 -14.5 t-20.5 -5.5h-141q-22 0 -34 16l-132 178l-180 -178q-17 -16 -38 -16h-146z" glyph-name="ecircumflex" unicode="ê" vert-adv-y="1980"/>
<glyph d="M1045 161q11 -14 11 -26q0 -14 -14 -26q-77 -69 -184.5 -102t-226.5 -33q-153 0 -262 56t-165.5 157.5t-56.5 235.5q0 158 76.5 293.5t208 215.5t290.5 80q105 0 178 -35t109 -92t36 -124q0 -284 -682 -466q32 -74 104.5 -114.5t187.5 -40.5q176 0 300 84q15 10 25 10 q14 0 23 -14zM529.5 794q-84.5 -49 -138.5 -140t-55 -211q192 59 305.5 105.5t166.5 91t53 93.5q0 46 -39.5 78t-116.5 32q-91 0 -175.5 -49zM482 1319.5q-32 31.5 -32 76.5q0 43 32 74.5t76 31.5t75.5 -31.5t31.5 -74.5q0 -45 -31.5 -76.5t-75.5 -31.5t-76 31.5z M876 1319.5q-32 31.5 -32 76.5q0 43 32 74.5t76 31.5t75.5 -31.5t31.5 -74.5q0 -45 -31.5 -76.5t-75.5 -31.5t-76 31.5z" glyph-name="edieresis" unicode="ë" vert-adv-y="1980"/>
<glyph d="M1045 161q11 -14 11 -26q0 -14 -14 -26q-77 -69 -184.5 -102t-226.5 -33q-153 0 -262 56t-165.5 157.5t-56.5 235.5q0 158 76.5 293.5t208 215.5t290.5 80q105 0 178 -35t109 -92t36 -124q0 -284 -682 -466q32 -74 104.5 -114.5t187.5 -40.5q176 0 300 84q15 10 25 10 q14 0 23 -14zM529.5 794q-84.5 -49 -138.5 -140t-55 -211q192 59 305.5 105.5t166.5 91t53 93.5q0 46 -39.5 78t-116.5 32q-91 0 -175.5 -49zM679.5 1319.5q-31.5 31.5 -31.5 76.5q0 43 31.5 74.5t75.5 31.5t75.5 -31.5t31.5 -74.5q0 -45 -31.5 -76.5t-75.5 -31.5 t-75.5 31.5z" glyph-name="edotaccent" unicode="ė" vert-adv-y="1980"/>
<glyph d="M1045 161q11 -14 11 -26q0 -14 -14 -26q-77 -69 -184.5 -102t-226.5 -33q-153 0 -262 56t-165.5 157.5t-56.5 235.5q0 158 76.5 293.5t208 215.5t290.5 80q105 0 178 -35t109 -92t36 -124q0 -284 -682 -466q32 -74 104.5 -114.5t187.5 -40.5q176 0 300 84q15 10 25 10 q14 0 23 -14zM529.5 794q-84.5 -49 -138.5 -140t-55 -211q192 59 305.5 105.5t166.5 91t53 93.5q0 46 -39.5 78t-116.5 32q-91 0 -175.5 -49zM684 1192q-12 0 -21 5.5t-17 18.5l-152 252q-6 11 -6 17q0 8 7 12.5t18 4.5h117q12 0 21 -5.5t17 -18.5l152 -252q6 -10 6 -17 q0 -8 -7 -12.5t-18 -4.5h-117z" glyph-name="egrave" unicode="è" vert-adv-y="1980"/>
<glyph d="M1045 161q11 -14 11 -26q0 -14 -14 -26q-77 -69 -184.5 -102t-226.5 -33q-153 0 -262 56t-165.5 157.5t-56.5 235.5q0 158 76.5 293.5t208 215.5t290.5 80q105 0 178 -35t109 -92t36 -124q0 -284 -682 -466q32 -74 104.5 -114.5t187.5 -40.5q176 0 300 84q15 10 25 10 q14 0 23 -14zM529.5 794q-84.5 -49 -138.5 -140t-55 -211q192 59 305.5 105.5t166.5 91t53 93.5q0 46 -39.5 78t-116.5 32q-91 0 -175.5 -49zM489 1344q-13 0 -20.5 8t-5.5 22l14 98q1 13 10.5 21.5t23.5 8.5h516q13 0 20.5 -8t5.5 -22l-14 -98q-1 -13 -10.5 -21.5 t-23.5 -8.5h-516z" glyph-name="emacron" unicode="ē" vert-adv-y="1980"/>
<glyph d="M1045 161q11 -14 11 -26q0 -14 -14 -26q-86 -78 -220 -112q-87 -25 -138 -73.5t-51 -107.5q0 -44 27 -70t78 -26q23 0 51 6v-132q-43 -19 -100 -19q-56 0 -107 21t-84 66.5t-33 116.5q0 115 104 198q-134 11 -229 69t-144 155t-49 222q0 158 76.5 293.5t208 215.5 t290.5 80q105 0 178 -35t109 -92t36 -124q0 -284 -682 -466q32 -74 104.5 -114.5t187.5 -40.5q176 0 300 84q15 10 25 10q14 0 23 -14zM529.5 794q-84.5 -49 -138.5 -140t-55 -211q192 59 305.5 105.5t166.5 91t53 93.5q0 46 -39.5 78t-116.5 32q-91 0 -175.5 -49z" glyph-name="eogonek" unicode="ę" vert-adv-y="1980"/>
<glyph d="M861 960q109 -56 165.5 -157.5t56.5 -235.5q0 -158 -76.5 -293.5t-208 -215.5t-290.5 -80q-105 0 -178 35t-109 92t-36 124q0 284 682 466q-32 74 -104.5 114.5t-187.5 40.5q-176 0 -300 -84q-15 -10 -25 -10q-14 0 -23 14l-42 59q-11 14 -11 26q0 14 14 26 q77 69 184.5 102t226.5 33q153 0 262 -56zM700.5 196q84.5 49 138.5 140t55 211q-192 -59 -305.5 -105.5t-166.5 -91t-53 -93.5q0 -46 39.5 -78t116.5 -32q91 0 175.5 49z" glyph-name="uni0259" unicode="ə" vert-adv-y="1980"/>
<glyph d="M639 540l-22 -170h402q15 0 22.5 -8t5.5 -24l-15 -102q-4 -28 -32 -28h-403l-27 -212q-27 -214 -134 -300t-249 -86q-71 0 -128.5 17t-88.5 44.5t-27 55.5l11 70q2 16 11 24t21 8q5 0 13 -2l23 -8q40 -15 73.5 -24t72.5 -9q79 0 137 54t74 188l55 440l-281 -97 q-14 -5 -22 5.5t-6 26.5l17 114q4 26 32 36l282 97l59 473q24 193 127.5 276.5t243.5 83.5q107 0 181 -44t111 -120.5t37 -172.5q0 -106 -49 -214t-168 -208t-315 -169zM770 1257q-47 -49 -62 -167l-46 -368q203 80 290 187t87 225q0 82 -37 127t-113 45q-72 0 -119 -49z " glyph-name="f" unicode="f" vert-adv-y="1980"/>
<glyph d="M990.5 985.5q94.5 -26.5 143.5 -77.5l-120 -858q-24 -167 -112 -266.5t-208 -139.5t-254 -40q-103 0 -192 20.5t-149 57.5q-12 7 -12 21q0 8 5 20l41 87q9 18 26 18q5 0 13 -3q60 -27 123.5 -40.5t138.5 -13.5q155 0 259 65t126 227l44 312h-13q-175 -362 -436 -362 q-88 0 -153.5 41t-101 120.5t-35.5 193.5q0 176 83 323.5t234.5 234t347.5 86.5q107 0 201.5 -26.5zM694 294.5q92 102.5 152 242t83 251.5q-22 24 -68.5 34.5t-99.5 10.5q-130 0 -231 -57.5t-157 -155t-56 -213.5q0 -110 49.5 -162.5t124.5 -52.5q111 0 203 102.5z" glyph-name="g" unicode="g" vert-adv-y="1980"/>
<glyph d="M990.5 985.5q94.5 -26.5 143.5 -77.5l-120 -858q-24 -167 -112 -266.5t-208 -139.5t-254 -40q-103 0 -192 20.5t-149 57.5q-12 7 -12 21q0 8 5 20l41 87q9 18 26 18q5 0 13 -3q60 -27 123.5 -40.5t138.5 -13.5q155 0 259 65t126 227l44 312h-13q-175 -362 -436 -362 q-88 0 -153.5 41t-101 120.5t-35.5 193.5q0 176 83 323.5t234.5 234t347.5 86.5q107 0 201.5 -26.5zM694 294.5q92 102.5 152 242t83 251.5q-22 24 -68.5 34.5t-99.5 10.5q-130 0 -231 -57.5t-157 -155t-56 -213.5q0 -110 49.5 -162.5t124.5 -52.5q111 0 203 102.5z M571 1241q-62 35 -93 95.5t-28 135.5q2 30 34 30h74q26 0 28 -28q5 -55 43.5 -92t106.5 -37q66 0 110.5 36t65.5 93q11 28 36 28h82q25 0 25 -20q0 -6 -1 -10q-18 -76 -63 -136t-114 -95t-156 -35q-88 0 -150 35z" glyph-name="gbreve" unicode="ğ" vert-adv-y="1980"/>
<glyph d="M479 1194q-13 0 -19 7.5t-4 20.5l8 59q17 123 40 233t46 185q8 21 35 21h99q13 0 18 -4.5t5 -14.5q0 -7 -1 -11q-14 -73 -30.5 -164.5t-26.5 -169.5h231q13 0 19.5 -7.5t4.5 -20.5l-15 -106q-1 -13 -10 -20.5t-22 -7.5h-378zM990.5 985.5q94.5 -26.5 143.5 -77.5 l-120 -858q-24 -167 -112 -266.5t-208 -139.5t-254 -40q-103 0 -192 20.5t-149 57.5q-12 7 -12 21q0 8 5 20l41 87q9 18 26 18q5 0 13 -3q60 -27 123.5 -40.5t138.5 -13.5q155 0 259 65t126 227l44 312h-13q-175 -362 -436 -362q-88 0 -153.5 41t-101 120.5t-35.5 193.5 q0 176 83 323.5t234.5 234t347.5 86.5q107 0 201.5 -26.5zM694 294.5q92 102.5 152 242t83 251.5q-22 24 -68.5 34.5t-99.5 10.5q-130 0 -231 -57.5t-157 -155t-56 -213.5q0 -110 49.5 -162.5t124.5 -52.5q111 0 203 102.5z" glyph-name="uni0123" unicode="ģ" vert-adv-y="1980"/>
<glyph d="M990.5 985.5q94.5 -26.5 143.5 -77.5l-120 -858q-24 -167 -112 -266.5t-208 -139.5t-254 -40q-103 0 -192 20.5t-149 57.5q-12 7 -12 21q0 8 5 20l41 87q9 18 26 18q5 0 13 -3q60 -27 123.5 -40.5t138.5 -13.5q155 0 259 65t126 227l44 312h-13q-175 -362 -436 -362 q-88 0 -153.5 41t-101 120.5t-35.5 193.5q0 176 83 323.5t234.5 234t347.5 86.5q107 0 201.5 -26.5zM694 294.5q92 102.5 152 242t83 251.5q-22 24 -68.5 34.5t-99.5 10.5q-130 0 -231 -57.5t-157 -155t-56 -213.5q0 -110 49.5 -162.5t124.5 -52.5q111 0 203 102.5z M667.5 1319.5q-31.5 31.5 -31.5 76.5q0 43 31.5 74.5t75.5 31.5t75.5 -31.5t31.5 -74.5q0 -45 -31.5 -76.5t-75.5 -31.5t-75.5 31.5z" glyph-name="gdotaccent" unicode="ġ" vert-adv-y="1980"/>
<glyph d="M1070 151q25 0 25 -33q0 -10 -1 -16q-9 -48 -48 -82t-94 -34q-46 0 -84.5 21t-61.5 62t-23 98q0 29 6 60l70 359q8 39 8 80q0 79 -36.5 121t-95.5 42q-90 0 -179 -95.5t-159.5 -276.5t-105.5 -425l-1 -4q-4 -28 -32 -28h-136q-32 0 -28 32l190 1340q4 28 32 28h137 q15 0 22.5 -8.5t5.5 -23.5l-107 -750h19q87 198 194.5 296t230.5 98q73 0 131.5 -33t92 -95.5t33.5 -149.5q0 -48 -10 -98l-74 -376q-7 -38 -7 -58q0 -27 11.5 -41t38.5 -14q12 0 28 3q3 1 8 1z" glyph-name="h" unicode="h" vert-adv-y="1980"/>
<glyph d="M1070 151q25 0 25 -33q0 -10 -1 -16q-9 -48 -48 -82t-94 -34q-46 0 -84.5 21t-61.5 62t-23 98q0 29 6 60l70 359q8 39 8 80q0 79 -36.5 121t-95.5 42q-90 0 -179 -95.5t-159.5 -276.5t-105.5 -425l-1 -4q-4 -28 -32 -28h-136q-32 0 -28 32l155 1092h-114q-13 0 -20.5 8 t-5.5 22l12 76q1 13 10.5 21.5t23.5 8.5h113l16 112q4 28 32 28h137q15 0 22.5 -8.5t5.5 -23.5l-15 -108h351q13 0 20.5 -8t5.5 -22l-12 -76q-1 -13 -10.5 -21.5t-23.5 -8.5h-351l-72 -506h19q87 198 194.5 296t230.5 98q73 0 131.5 -33t92 -95.5t33.5 -149.5q0 -48 -10 -98 l-74 -376q-7 -38 -7 -58q0 -27 11.5 -41t38.5 -14q12 0 28 3q3 1 8 1z" glyph-name="hbar" unicode="ħ" vert-adv-y="1980"/>
<glyph d="M623.5 1266q-30.5 18 -48.5 49t-18 68t18 67.5t48.5 48.5t67.5 18t68 -18t49 -48.5t18 -67.5t-18 -68t-49 -49t-68 -18t-67.5 18zM1128 145q5 -12 5 -18q0 -11 -10 -21q-51 -51 -139.5 -91.5t-200.5 -40.5q-90 0 -166.5 30t-125.5 99t-49 179q0 45 9 99l58 321 q-46 -32 -107.5 -50t-131.5 -18q-93 0 -151 27q-23 10 -19 37l17 109q4 28 26 28l12 -2q56 -14 117 -14q106 0 181.5 40t102.5 106q5 13 13 19t21 6h131q16 0 22.5 -9t3.5 -24l-100 -580q-6 -33 -6 -60q0 -89 51.5 -127.5t129.5 -38.5q65 0 115 22t104 60q13 9 21 9 q14 0 26 -22z" glyph-name="i" unicode="i" vert-adv-y="1980"/>
<glyph d="M533 53q-97 73 -97 240q0 47 9 102l68 427h-361q-15 0 -22.5 8.5t-5.5 23.5l15 108q4 28 32 28h531q15 0 22 -8t5 -24l-85 -554q-6 -37 -6 -69q0 -99 49 -138.5t126 -39.5q67 0 123 23t110 59q13 8 22 8q12 0 22 -17l42 -80q5 -10 5 -17q0 -11 -10 -21q-50 -50 -144 -91 t-211 -41q-142 0 -239 73z" glyph-name="dotlessi" unicode="ı" vert-adv-y="1980"/>
<glyph d="M533 53q-97 73 -97 240q0 47 9 102l68 427h-361q-15 0 -22.5 8.5t-5.5 23.5l15 108q4 28 32 28h531q15 0 22 -8t5 -24l-85 -554q-6 -37 -6 -69q0 -99 49 -138.5t126 -39.5q67 0 123 23t110 59q13 8 22 8q12 0 22 -17l42 -80q5 -10 5 -17q0 -11 -10 -21q-50 -50 -144 -91 t-211 -41q-142 0 -239 73zM593 1192q-11 0 -18 4.5t-7 12.5q0 7 6 17l152 252q8 13 17 18.5t21 5.5h117q11 0 18 -4.5t7 -12.5q0 -6 -6 -17l-152 -252q-8 -13 -17 -18.5t-21 -5.5h-117z" glyph-name="iacute" unicode="í" vert-adv-y="1980"/>
<glyph d="M533 53q-97 73 -97 240q0 47 9 102l68 427h-361q-15 0 -22.5 8.5t-5.5 23.5l15 108q4 28 32 28h531q15 0 22 -8t5 -24l-85 -554q-6 -37 -6 -69q0 -99 49 -138.5t126 -39.5q67 0 123 23t110 59q13 8 22 8q12 0 22 -17l42 -80q5 -10 5 -17q0 -11 -10 -21q-50 -50 -144 -91 t-211 -41q-142 0 -239 73zM592 1193q-11 0 -19 3.5t-15 12.5l-185 257q-6 9 -6 17t7.5 13.5t20.5 5.5h140q22 0 34 -16l132 -177l180 177q17 16 38 16h146q11 0 17 -4t6 -11q0 -10 -11 -21l-258 -257q-9 -9 -18 -12.5t-20 -3.5h-189z" glyph-name="uni01D0" unicode="ǐ" vert-adv-y="1980"/>
<glyph d="M533 53q-97 73 -97 240q0 47 9 102l68 427h-361q-15 0 -22.5 8.5t-5.5 23.5l15 108q4 28 32 28h531q15 0 22 -8t5 -24l-85 -554q-6 -37 -6 -69q0 -99 49 -138.5t126 -39.5q67 0 123 23t110 59q13 8 22 8q12 0 22 -17l42 -80q5 -10 5 -17q0 -11 -10 -21q-50 -50 -144 -91 t-211 -41q-142 0 -239 73zM357 1193q-11 0 -17 4t-6 10q0 10 12 22l257 257q9 9 18 12.5t20 3.5h189q23 0 34 -16l186 -257q6 -9 6 -16q0 -9 -7.5 -14.5t-20.5 -5.5h-141q-22 0 -34 16l-132 178l-180 -178q-17 -16 -38 -16h-146z" glyph-name="icircumflex" unicode="î" vert-adv-y="1980"/>
<glyph d="M533 53q-97 73 -97 240q0 47 9 102l68 427h-361q-15 0 -22.5 8.5t-5.5 23.5l15 108q4 28 32 28h531q15 0 22 -8t5 -24l-85 -554q-6 -37 -6 -69q0 -99 49 -138.5t126 -39.5q67 0 123 23t110 59q13 8 22 8q12 0 22 -17l42 -80q5 -10 5 -17q0 -11 -10 -21q-50 -50 -144 -91 t-211 -41q-142 0 -239 73zM410 1319.5q-32 31.5 -32 76.5q0 43 32 74.5t76 31.5t75.5 -31.5t31.5 -74.5q0 -45 -31.5 -76.5t-75.5 -31.5t-76 31.5zM804 1319.5q-32 31.5 -32 76.5q0 43 32 74.5t76 31.5t75.5 -31.5t31.5 -74.5q0 -45 -31.5 -76.5t-75.5 -31.5t-76 31.5z" glyph-name="idieresis" unicode="ï" vert-adv-y="1980"/>
<glyph d="M533 53q-97 73 -97 240q0 47 9 102l68 427h-361q-15 0 -22.5 8.5t-5.5 23.5l15 108q4 28 32 28h531q15 0 22 -8t5 -24l-85 -554q-6 -37 -6 -69q0 -99 49 -138.5t126 -39.5q67 0 123 23t110 59q13 8 22 8q12 0 22 -17l42 -80q5 -10 5 -17q0 -11 -10 -21q-50 -50 -144 -91 t-211 -41q-142 0 -239 73zM607.5 1319.5q-31.5 31.5 -31.5 76.5q0 43 31.5 74.5t75.5 31.5t75.5 -31.5t31.5 -74.5q0 -45 -31.5 -76.5t-75.5 -31.5t-75.5 31.5z" glyph-name="i.loclTRK" vert-adv-y="1980"/>
<glyph d="M533 53q-97 73 -97 240q0 47 9 102l68 427h-361q-15 0 -22.5 8.5t-5.5 23.5l15 108q4 28 32 28h531q15 0 22 -8t5 -24l-85 -554q-6 -37 -6 -69q0 -99 49 -138.5t126 -39.5q67 0 123 23t110 59q13 8 22 8q12 0 22 -17l42 -80q5 -10 5 -17q0 -11 -10 -21q-50 -50 -144 -91 t-211 -41q-142 0 -239 73zM612 1192q-12 0 -21 5.5t-17 18.5l-152 252q-6 11 -6 17q0 8 7 12.5t18 4.5h117q12 0 21 -5.5t17 -18.5l152 -252q6 -10 6 -17q0 -8 -7 -12.5t-18 -4.5h-117z" glyph-name="igrave" unicode="ì" vert-adv-y="1980"/>
<glyph d="M1219.5 1499q30.5 -18 48.5 -48.5t18 -67.5t-18 -68t-48.5 -49t-67.5 -18t-68 18t-49 49t-18 68t18 67.5t49 48.5t68 18t67.5 -18zM236 1228q-34 34 -34 83t34 83t83 34t82.5 -34t33.5 -83t-33.5 -83t-82.5 -34t-83 34zM1181 990q15 0 22 -9t5 -24l-127 -913 q-22 -160 -98.5 -255.5t-176.5 -134.5t-206 -39q-92 0 -167.5 25.5t-119 61t-43.5 62.5q0 8 5 15l70 92q10 13 24 13q12 0 22 -9q41 -31 90 -53t122 -22q103 0 182.5 59.5t99.5 203.5l90 643q-46 -34 -111.5 -53t-142.5 -19q-96 0 -155 27q-23 10 -19 37l17 109q4 28 26 28 l12 -2q56 -14 121 -14q111 0 189 40t104 106q5 13 13 19t21 6h131zM359 980q15 0 22.5 -8t5.5 -24l-128 -920q-4 -28 -32 -28h-138q-15 0 -22.5 8t-5.5 24l128 920q4 28 32 28h138z" glyph-name="ij" unicode="ĳ" vert-adv-y="1980"/>
<glyph d="M533 53q-97 73 -97 240q0 47 9 102l68 427h-361q-15 0 -22.5 8.5t-5.5 23.5l15 108q4 28 32 28h531q15 0 22 -8t5 -24l-85 -554q-6 -37 -6 -69q0 -99 49 -138.5t126 -39.5q67 0 123 23t110 59q13 8 22 8q12 0 22 -17l42 -80q5 -10 5 -17q0 -11 -10 -21q-50 -50 -144 -91 t-211 -41q-142 0 -239 73zM417 1344q-13 0 -20.5 8t-5.5 22l14 98q1 13 10.5 21.5t23.5 8.5h516q13 0 20.5 -8t5.5 -22l-14 -98q-1 -13 -10.5 -21.5t-23.5 -8.5h-516z" glyph-name="imacron" unicode="ī" vert-adv-y="1980"/>
<glyph d="M607.5 1319.5q-31.5 31.5 -31.5 76.5q0 43 31.5 74.5t75.5 31.5t75.5 -31.5t31.5 -74.5q0 -45 -31.5 -76.5t-75.5 -31.5t-75.5 31.5zM709.5 -66q-23.5 -30 -23.5 -72q0 -104 146 -104h30q20 0 17 -20l-13 -89q-3 -20 -23 -20h-67q-99 0 -172.5 44.5t-73.5 154.5 q0 111 86 178q-82 31 -131 101t-49 186q0 47 9 102l68 427h-361q-15 0 -22.5 8.5t-5.5 23.5l15 108q4 28 32 28h531q15 0 22 -8t5 -24l-85 -554q-6 -37 -6 -69q0 -99 49 -138.5t126 -39.5q67 0 123 23t110 59q13 8 22 8q12 0 22 -17l42 -80q5 -10 5 -17q0 -11 -10 -21 q-50 -50 -143 -90.5t-209 -41.5q-42 -16 -65.5 -46z" glyph-name="iogonek" unicode="į" vert-adv-y="1980"/>
<glyph d="M993.5 1499q30.5 -18 48.5 -48.5t18 -67.5t-18 -68t-48.5 -49t-67.5 -18t-68 18t-49 49t-18 68t18 67.5t49 48.5t68 18t67.5 -18zM955 990q15 0 22 -9t5 -24l-127 -913q-22 -160 -98.5 -255.5t-176.5 -134.5t-206 -39q-92 0 -167.5 25.5t-119 61t-43.5 62.5q0 8 5 15 l70 92q10 13 24 13q12 0 22 -9q41 -31 90 -53t122 -22q103 0 182.5 59.5t99.5 203.5l90 643q-46 -34 -111.5 -53t-142.5 -19q-97 0 -155 27q-23 10 -19 37l17 109q4 28 26 28l12 -2q56 -14 121 -14q111 0 189 40t104 106q5 13 13 19t21 6h131z" glyph-name="j" unicode="j" vert-adv-y="1980"/>
<glyph d="M206.5 -359.5q-75.5 25.5 -119 61t-43.5 62.5q0 8 5 15l70 92q10 13 24 13q12 0 22 -9q41 -31 90 -53t122 -22q103 0 182.5 59.5t99.5 203.5l107 759h-458q-14 0 -21 8.5t-5 21.5l14 108q2 13 12 21.5t23 8.5h627q14 0 20.5 -8t4.5 -22l-128 -916q-22 -160 -98.5 -255.5 t-176.5 -134.5t-206 -39q-92 0 -167.5 25.5z" glyph-name="uni0237" unicode="ȷ" vert-adv-y="1980"/>
<glyph d="M1108 990q12 0 18.5 -5.5t6.5 -14.5q0 -12 -12 -23l-442 -391l93 -255q29 -84 60.5 -121t88.5 -37q29 0 52 8t54 23q10 4 17 4q24 0 33 -28l20 -62q2 -8 2 -12q0 -25 -28.5 -49.5t-77.5 -40.5t-106 -16q-91 0 -157.5 47.5t-106.5 156.5l-93 250l-194 -171l-32 -225 q-4 -28 -32 -28h-136q-32 0 -28 32l191 1340q4 28 32 28h137q15 0 22.5 -8.5t5.5 -23.5l-123 -860l524 468q15 14 40 14h171z" glyph-name="k" unicode="k" vert-adv-y="1980"/>
<glyph d="M1108 990q12 0 18.5 -5.5t6.5 -14.5q0 -12 -12 -23l-442 -391l93 -255q29 -84 60.5 -121t88.5 -37q29 0 52 8t54 23q10 4 17 4q24 0 33 -28l20 -62q2 -8 2 -12q0 -25 -28.5 -49.5t-77.5 -40.5t-106 -16q-91 0 -157.5 47.5t-106.5 156.5l-93 250l-194 -171l-32 -225 q-4 -28 -32 -28h-136q-32 0 -28 32l191 1340q4 28 32 28h137q15 0 22.5 -8.5t5.5 -23.5l-123 -860l524 468q15 14 40 14h171zM690 -165q13 0 19.5 -7.5t4.5 -20.5l-8 -58q-18 -124 -41 -234.5t-46 -183.5q-7 -22 -35 -22h-99q-23 0 -23 20q0 6 1 10q42 204 57 334h-230 q-13 0 -19.5 7.5t-5.5 20.5l16 106q1 13 10 20.5t22 7.5h377z" glyph-name="uni0137" unicode="ķ" vert-adv-y="1980"/>
<glyph d="M1045 145q5 -10 5 -17q0 -11 -10 -21q-30 -30 -84.5 -60.5t-130 -51.5t-160.5 -21q-96 0 -176 31.5t-130.5 107t-50.5 198.5q0 42 8 100l6 41l-230 -80q-14 -5 -22 5.5t-6 26.5l17 116q4 26 33 36l235 81l72 486q28 194 132 277t245 83q109 0 184.5 -44t113 -119.5 t37.5 -169.5q0 -108 -52 -219t-173 -212.5t-316 -169.5l-64 -22l-20 -131q-5 -35 -5 -59q0 -100 57.5 -143t143.5 -43q130 0 255 83q11 7 21 7q14 0 23 -16zM678.5 1256.5q-47.5 -49.5 -65.5 -170.5l-57 -376q204 78 295.5 191t91.5 236q0 80 -35.5 124.5t-109.5 44.5 q-72 0 -119.5 -49.5z" glyph-name="l" unicode="l" vert-adv-y="1980"/>
<glyph d="M1045 145q5 -10 5 -17q0 -11 -10 -21q-30 -30 -84.5 -60.5t-130 -51.5t-160.5 -21q-96 0 -176 31.5t-130.5 107t-50.5 198.5q0 42 8 100l6 41l-230 -80q-14 -5 -22 5.5t-6 26.5l17 116q4 26 33 36l235 81l72 486q28 194 132 277t245 83q109 0 184.5 -44t113 -119.5 t37.5 -169.5q0 -108 -52 -219t-173 -212.5t-316 -169.5l-64 -22l-20 -131q-5 -35 -5 -59q0 -100 57.5 -143t143.5 -43q130 0 255 83q11 7 21 7q14 0 23 -16zM678.5 1256.5q-47.5 -49.5 -65.5 -170.5l-57 -376q204 78 295.5 191t91.5 236q0 80 -35.5 124.5t-109.5 44.5 q-72 0 -119.5 -49.5zM768 1567q-11 0 -18 4.5t-7 12.5q0 7 6 17l152 252q8 13 17 18.5t21 5.5h117q11 0 18 -4.5t7 -12.5q0 -6 -6 -17l-152 -252q-8 -13 -17 -18.5t-21 -5.5h-117z" glyph-name="lacute" unicode="ĺ" vert-adv-y="1980"/>
<glyph d="M1384 1878q13 0 19.5 -8.5t4.5 -21.5l-8 -62q-18 -132 -42.5 -250.5t-48.5 -197.5q-8 -23 -37 -23h-104q-24 0 -24 21q0 7 1 11q43 212 60 358h-242q-13 0 -20 8t-5 22l15 113q2 13 11.5 21.5t22.5 8.5h397zM488 527l-20 -131q-5 -35 -5 -59q0 -100 57.5 -143t143.5 -43 q131 0 255 83q11 7 21 7q14 0 23 -16l42 -80q5 -10 5 -17q0 -11 -10 -21q-30 -30 -84.5 -60.5t-130 -51.5t-160.5 -21q-96 0 -176 31.5t-130.5 107t-50.5 198.5q0 42 8 100l6 41l-230 -80q-14 -5 -22 5.5t-6 26.5l17 116q4 26 33 36l235 81l72 486q28 194 132 277t245 83 q109 0 184.5 -44t113 -119.5t37.5 -169.5q0 -108 -52 -219t-173 -212.5t-316 -169.5zM638.5 1256.5q-47.5 -49.5 -65.5 -170.5l-57 -376q204 78 295.5 191t91.5 236q0 80 -35.5 124.5t-109.5 44.5q-72 0 -119.5 -49.5z" glyph-name="lcaron" unicode="ľ" vert-adv-y="1980"/>
<glyph d="M1045 145q5 -10 5 -17q0 -11 -10 -21q-30 -30 -84.5 -60.5t-130 -51.5t-160.5 -21q-96 0 -176 31.5t-130.5 107t-50.5 198.5q0 42 8 100l6 41l-230 -80q-14 -5 -22 5.5t-6 26.5l17 116q4 26 33 36l235 81l72 486q28 194 132 277t245 83q109 0 184.5 -44t113 -119.5 t37.5 -169.5q0 -108 -52 -219t-173 -212.5t-316 -169.5l-64 -22l-20 -131q-5 -35 -5 -59q0 -100 57.5 -143t143.5 -43q130 0 255 83q11 7 21 7q14 0 23 -16zM678.5 1256.5q-47.5 -49.5 -65.5 -170.5l-57 -376q204 78 295.5 191t91.5 236q0 80 -35.5 124.5t-109.5 44.5 q-72 0 -119.5 -49.5zM695 -165q13 0 19.5 -7.5t4.5 -20.5l-8 -58q-18 -124 -41 -234.5t-46 -183.5q-7 -22 -35 -22h-99q-23 0 -23 20q0 6 1 10q42 204 57 334h-230q-13 0 -19.5 7.5t-5.5 20.5l16 106q1 13 10 20.5t22 7.5h377z" glyph-name="uni013C" unicode="ļ" vert-adv-y="1980"/>
<glyph d="M1013 145q5 -10 5 -17q0 -11 -10 -21q-30 -30 -84.5 -60.5t-130 -51.5t-160.5 -21q-96 0 -176 31.5t-130.5 107t-50.5 198.5q0 42 8 100l6 41l-230 -80q-14 -5 -22 5.5t-6 26.5l17 116q4 26 33 36l235 81l72 486q28 194 132 277t245 83q109 0 184.5 -44t113 -119.5 t37.5 -169.5q0 -108 -52 -219t-173 -212.5t-316 -169.5l-64 -22l-20 -131q-5 -35 -5 -59q0 -100 57.5 -143t143.5 -43q131 0 255 83q11 7 21 7q14 0 23 -16zM646.5 1256.5q-47.5 -49.5 -65.5 -170.5l-57 -376q204 78 295.5 191t91.5 236q0 80 -35.5 124.5t-109.5 44.5 q-72 0 -119.5 -49.5zM1067 618q35 -20 55.5 -55t20.5 -77t-20.5 -77t-55.5 -55.5t-77 -20.5t-77 20.5t-55 55.5t-20 77t20 77t55 55t77 20t77 -20z" glyph-name="ldot" unicode="ŀ" vert-adv-y="1980"/>
<glyph d="M1045 145q5 -10 5 -17q0 -11 -10 -21q-30 -30 -84.5 -60.5t-130 -51.5t-160.5 -21q-96 0 -176 31.5t-130.5 107t-50.5 198.5q0 42 8 100l6 41l-230 -80q-14 -5 -22 5.5t-6 26.5l17 116q4 26 33 36l235 81l20 132l-165 -64l26 182l166 64l25 172q28 194 132 277t245 83 q109 0 184.5 -44t113 -119.5t37.5 -169.5q0 -108 -52 -219t-173 -212.5t-316 -169.5l-64 -22l-20 -131q-5 -35 -5 -59q0 -100 57.5 -143t143.5 -43q130 0 255 83q11 7 21 7q14 0 23 -16zM605 1033l158 61l-26 -182l-160 -62l-21 -140q204 78 295.5 191t91.5 236 q0 80 -35.5 124.5t-109.5 44.5q-72 0 -119.5 -49.5t-65.5 -170.5z" glyph-name="lslash" unicode="ł" vert-adv-y="1980"/>
<glyph d="M912.5 26.5q-33.5 40.5 -33.5 113.5q0 23 5 56l61 398q11 69 11 123q0 60 -16.5 86t-51.5 26q-57 0 -101.5 -79.5t-84.5 -253.5t-82 -468q-4 -28 -32 -28h-103q-32 0 -28 32l80 562q10 67 10 117q0 63 -18 90.5t-56 27.5q-58 0 -103.5 -79.5t-86 -252.5t-84.5 -469 q-4 -28 -32 -28h-114q-15 0 -22.5 8t-5.5 24l132 928q4 30 32 30h109q15 0 21.5 -8.5t4.5 -24.5l-50 -320h12q49 213 114 294t149 81q67 0 106.5 -53t39.5 -175q0 -63 -12 -147h12q48 213 117 294t157 81q82 0 128 -61.5t46 -184.5q0 -65 -11 -132l-60 -390q-5 -33 -5 -50 q0 -51 31 -51q7 0 11 1q30 6 30 -29q0 -10 -1 -15q-8 -48 -39 -81t-91 -33q-62 0 -95.5 40.5z" glyph-name="m" unicode="m" vert-adv-y="1980"/>
<glyph d="M1057 151q25 0 25 -33q0 -10 -1 -16q-9 -48 -48 -82t-94 -34q-46 0 -84.5 21t-61.5 62t-23 98q0 29 6 60l70 359q8 39 8 80q0 79 -36.5 121t-95.5 42q-90 0 -179.5 -96t-160 -277.5t-105.5 -427.5q-4 -28 -32 -28h-136q-32 0 -28 32l132 928q4 30 32 30h129q30 0 27 -33 l-40 -339h19q173 394 425 394q73 0 131.5 -33t92 -95.5t33.5 -149.5q0 -48 -10 -98l-74 -376q-7 -38 -7 -58q0 -27 11.5 -41t38.5 -14q12 0 28 3q3 1 8 1z" glyph-name="n" unicode="n" vert-adv-y="1980"/>
<glyph d="M1057 151q25 0 25 -33q0 -10 -1 -16q-9 -48 -48 -82t-94 -34q-46 0 -84.5 21t-61.5 62t-23 98q0 29 6 60l70 359q8 39 8 80q0 79 -36.5 121t-95.5 42q-90 0 -179.5 -96t-160 -277.5t-105.5 -427.5q-4 -28 -32 -28h-136q-32 0 -28 32l132 928q4 30 32 30h129q30 0 27 -33 l-40 -339h19q173 394 425 394q73 0 131.5 -33t92 -95.5t33.5 -149.5q0 -48 -10 -98l-74 -376q-7 -38 -7 -58q0 -27 11.5 -41t38.5 -14q12 0 28 3q3 1 8 1zM666 1192q-11 0 -18 4.5t-7 12.5q0 7 6 17l152 252q8 13 17 18.5t21 5.5h117q11 0 18 -4.5t7 -12.5q0 -6 -6 -17 l-152 -252q-8 -13 -17 -18.5t-21 -5.5h-117z" glyph-name="nacute" unicode="ń" vert-adv-y="1980"/>
<glyph d="M1057 151q25 0 25 -33q0 -10 -1 -16q-9 -48 -48 -82t-94 -34q-46 0 -84.5 21t-61.5 62t-23 98q0 29 6 60l70 359q8 39 8 80q0 79 -36.5 121t-95.5 42q-90 0 -179.5 -96t-160 -277.5t-105.5 -427.5q-4 -28 -32 -28h-136q-32 0 -28 32l132 928q4 30 32 30h129q30 0 27 -33 l-40 -339h19q173 394 425 394q73 0 131.5 -33t92 -95.5t33.5 -149.5q0 -48 -10 -98l-74 -376q-7 -38 -7 -58q0 -27 11.5 -41t38.5 -14q12 0 28 3q3 1 8 1zM665 1193q-11 0 -19 3.5t-15 12.5l-185 257q-6 9 -6 17t7.5 13.5t20.5 5.5h140q22 0 34 -16l132 -177l180 177 q17 16 38 16h146q11 0 17 -4t6 -11q0 -10 -11 -21l-258 -257q-9 -9 -18 -12.5t-20 -3.5h-189z" glyph-name="ncaron" unicode="ň" vert-adv-y="1980"/>
<glyph d="M1057 151q25 0 25 -33q0 -10 -1 -16q-9 -48 -48 -82t-94 -34q-46 0 -84.5 21t-61.5 62t-23 98q0 29 6 60l70 359q8 39 8 80q0 79 -36.5 121t-95.5 42q-90 0 -179.5 -96t-160 -277.5t-105.5 -427.5q-4 -28 -32 -28h-136q-32 0 -28 32l132 928q4 30 32 30h129q30 0 27 -33 l-40 -339h19q173 394 425 394q73 0 131.5 -33t92 -95.5t33.5 -149.5q0 -48 -10 -98l-74 -376q-7 -38 -7 -58q0 -27 11.5 -41t38.5 -14q12 0 28 3q3 1 8 1zM695 -165q13 0 19.5 -7.5t4.5 -20.5l-8 -58q-18 -124 -41 -234.5t-46 -183.5q-7 -22 -35 -22h-99q-23 0 -23 20 q0 6 1 10q42 204 57 334h-230q-13 0 -19.5 7.5t-5.5 20.5l16 106q1 13 10 20.5t22 7.5h377z" glyph-name="uni0146" unicode="ņ" vert-adv-y="1980"/>
<glyph d="M943.5 979.5q55.5 -32.5 86.5 -95.5t31 -152q0 -50 -10 -103l-114 -642q-33 -191 -136.5 -287t-261.5 -96q-10 0 -17 7t-9 16l-24 142q-1 3 -1 8t2 6.5t7 1.5q99 0 167 67.5t90 193.5l95 540q8 48 8 81q0 80 -33.5 121t-92.5 41q-90 0 -179.5 -96t-160 -277.5 t-105.5 -427.5q-4 -28 -32 -28h-136q-32 0 -28 32l132 928q2 16 10 23t23 7h128q30 0 27 -33l-40 -339h19q87 198 194.5 296t231.5 98q73 0 128.5 -32.5z" glyph-name="eng" unicode="ŋ" vert-adv-y="1980"/>
<glyph d="M1057 151q25 0 25 -33q0 -10 -1 -16q-9 -48 -48 -82t-94 -34q-46 0 -84.5 21t-61.5 62t-23 98q0 29 6 60l70 359q8 39 8 80q0 79 -36.5 121t-95.5 42q-90 0 -179.5 -96t-160 -277.5t-105.5 -427.5q-4 -28 -32 -28h-136q-32 0 -28 32l132 928q4 30 32 30h129q30 0 27 -33 l-40 -339h19q173 394 425 394q73 0 131.5 -33t92 -95.5t33.5 -149.5q0 -48 -10 -98l-74 -376q-7 -38 -7 -58q0 -27 11.5 -41t38.5 -14q12 0 28 3q3 1 8 1zM792 1253q-36 20 -79 59q-35 31 -58.5 45.5t-54.5 14.5q-38 0 -62 -17.5t-37 -42.5q-9 -17 -25 -17h-54 q-8 0 -12.5 4.5t-4.5 11.5q0 3 2 9q21 84 78.5 128t138.5 44q54 0 90 -20t78 -58q35 -31 59 -45.5t56 -14.5q36 0 60.5 17t36.5 42q8 17 24 17h54q9 0 14 -5.5t3 -14.5q-19 -85 -78 -131t-139 -46q-54 0 -90 20z" glyph-name="ntilde" unicode="ñ" vert-adv-y="1980"/>
<glyph d="M321 31.5q-101 57.5 -157 161.5t-56 238q0 160 77 293t207.5 210.5t282.5 77.5q130 0 231.5 -57.5t158.5 -161t57 -237.5q0 -161 -77.5 -294.5t-208.5 -210.5t-283 -77q-131 0 -232 57.5zM749.5 205.5q82.5 49.5 131 137.5t48.5 198q0 90 -34 155.5t-95 99.5t-140 34 q-98 0 -180.5 -49.5t-131 -137.5t-48.5 -198q0 -90 34 -155.5t95 -99.5t140 -34q98 0 180.5 49.5z" glyph-name="o" unicode="o" vert-adv-y="1980"/>
<glyph d="M321 31.5q-101 57.5 -157 161.5t-56 238q0 160 77 293t207.5 210.5t282.5 77.5q130 0 231.5 -57.5t158.5 -161t57 -237.5q0 -161 -77.5 -294.5t-208.5 -210.5t-283 -77q-131 0 -232 57.5zM749.5 205.5q82.5 49.5 131 137.5t48.5 198q0 90 -34 155.5t-95 99.5t-140 34 q-98 0 -180.5 -49.5t-131 -137.5t-48.5 -198q0 -90 34 -155.5t95 -99.5t140 -34q98 0 180.5 49.5zM667 1192q-11 0 -18 4.5t-7 12.5q0 7 6 17l152 252q8 13 17 18.5t21 5.5h117q11 0 18 -4.5t7 -12.5q0 -6 -6 -17l-152 -252q-8 -13 -17 -18.5t-21 -5.5h-117z" glyph-name="oacute" unicode="ó" vert-adv-y="1980"/>
<glyph d="M321 31.5q-101 57.5 -157 161.5t-56 238q0 160 77 293t207.5 210.5t282.5 77.5q130 0 231.5 -57.5t158.5 -161t57 -237.5q0 -161 -77.5 -294.5t-208.5 -210.5t-283 -77q-131 0 -232 57.5zM749.5 205.5q82.5 49.5 131 137.5t48.5 198q0 90 -34 155.5t-95 99.5t-140 34 q-98 0 -180.5 -49.5t-131 -137.5t-48.5 -198q0 -90 34 -155.5t95 -99.5t140 -34q98 0 180.5 49.5zM666 1193q-11 0 -19 3.5t-15 12.5l-185 257q-6 9 -6 17t7.5 13.5t20.5 5.5h140q22 0 34 -16l132 -177l180 177q17 16 38 16h146q11 0 17 -4t6 -11q0 -10 -11 -21l-258 -257 q-9 -9 -18 -12.5t-20 -3.5h-189z" glyph-name="uni01D2" unicode="ǒ" vert-adv-y="1980"/>
<glyph d="M321 31.5q-101 57.5 -157 161.5t-56 238q0 160 77 293t207.5 210.5t282.5 77.5q130 0 231.5 -57.5t158.5 -161t57 -237.5q0 -161 -77.5 -294.5t-208.5 -210.5t-283 -77q-131 0 -232 57.5zM749.5 205.5q82.5 49.5 131 137.5t48.5 198q0 90 -34 155.5t-95 99.5t-140 34 q-98 0 -180.5 -49.5t-131 -137.5t-48.5 -198q0 -90 34 -155.5t95 -99.5t140 -34q98 0 180.5 49.5zM431 1193q-11 0 -17 4t-6 10q0 10 12 22l257 257q9 9 18 12.5t20 3.5h189q23 0 34 -16l186 -257q6 -9 6 -16q0 -9 -7.5 -14.5t-20.5 -5.5h-141q-22 0 -34 16l-132 178 l-180 -178q-17 -16 -38 -16h-146z" glyph-name="ocircumflex" unicode="ô" vert-adv-y="1980"/>
<glyph d="M321 31.5q-101 57.5 -157 161.5t-56 238q0 160 77 293t207.5 210.5t282.5 77.5q130 0 231.5 -57.5t158.5 -161t57 -237.5q0 -161 -77.5 -294.5t-208.5 -210.5t-283 -77q-131 0 -232 57.5zM749.5 205.5q82.5 49.5 131 137.5t48.5 198q0 90 -34 155.5t-95 99.5t-140 34 q-98 0 -180.5 -49.5t-131 -137.5t-48.5 -198q0 -90 34 -155.5t95 -99.5t140 -34q98 0 180.5 49.5zM484 1319.5q-32 31.5 -32 76.5q0 43 32 74.5t76 31.5t75.5 -31.5t31.5 -74.5q0 -45 -31.5 -76.5t-75.5 -31.5t-76 31.5zM878 1319.5q-32 31.5 -32 76.5q0 43 32 74.5t76 31.5 t75.5 -31.5t31.5 -74.5q0 -45 -31.5 -76.5t-75.5 -31.5t-76 31.5z" glyph-name="odieresis" unicode="ö" vert-adv-y="1980"/>
<glyph d="M321 31.5q-101 57.5 -157 161.5t-56 238q0 160 77 293t207.5 210.5t282.5 77.5q130 0 231.5 -57.5t158.5 -161t57 -237.5q0 -161 -77.5 -294.5t-208.5 -210.5t-283 -77q-131 0 -232 57.5zM749.5 205.5q82.5 49.5 131 137.5t48.5 198q0 90 -34 155.5t-95 99.5t-140 34 q-98 0 -180.5 -49.5t-131 -137.5t-48.5 -198q0 -90 34 -155.5t95 -99.5t140 -34q98 0 180.5 49.5zM687 1192q-12 0 -21 5.5t-17 18.5l-152 252q-6 11 -6 17q0 8 7 12.5t18 4.5h117q12 0 21 -5.5t17 -18.5l152 -252q6 -10 6 -17q0 -8 -7 -12.5t-18 -4.5h-117z" glyph-name="ograve" unicode="ò" vert-adv-y="1980"/>
<glyph d="M321 31.5q-101 57.5 -157 161.5t-56 238q0 160 77 293t207.5 210.5t282.5 77.5q130 0 231.5 -57.5t158.5 -161t57 -237.5q0 -161 -77.5 -294.5t-208.5 -210.5t-283 -77q-131 0 -232 57.5zM749.5 205.5q82.5 49.5 131 137.5t48.5 198q0 90 -34 155.5t-95 99.5t-140 34 q-98 0 -180.5 -49.5t-131 -137.5t-48.5 -198q0 -90 34 -155.5t95 -99.5t140 -34q98 0 180.5 49.5zM804 1192q-11 0 -18 4.5t-7 12.5q0 7 6 17l152 252q8 13 17 18.5t21 5.5h117q11 0 18 -4.5t7 -12.5q0 -6 -6 -17l-152 -252q-8 -13 -17 -18.5t-21 -5.5h-117zM482 1192 q-11 0 -18 4.5t-7 12.5q0 7 6 17l152 252q8 13 17 18.5t21 5.5h117q11 0 18 -4.5t7 -12.5q0 -6 -6 -17l-152 -252q-8 -13 -17 -18.5t-21 -5.5h-117z" glyph-name="ohungarumlaut" unicode="ő" vert-adv-y="1980"/>
<glyph d="M321 31.5q-101 57.5 -157 161.5t-56 238q0 160 77 293t207.5 210.5t282.5 77.5q130 0 231.5 -57.5t158.5 -161t57 -237.5q0 -161 -77.5 -294.5t-208.5 -210.5t-283 -77q-131 0 -232 57.5zM749.5 205.5q82.5 49.5 131 137.5t48.5 198q0 90 -34 155.5t-95 99.5t-140 34 q-98 0 -180.5 -49.5t-131 -137.5t-48.5 -198q0 -90 34 -155.5t95 -99.5t140 -34q98 0 180.5 49.5zM491 1344q-13 0 -20.5 8t-5.5 22l14 98q1 13 10.5 21.5t23.5 8.5h516q13 0 20.5 -8t5.5 -22l-14 -98q-1 -13 -10.5 -21.5t-23.5 -8.5h-516z" glyph-name="omacron" unicode="ō" vert-adv-y="1980"/>
<glyph d="M906.5 954.5q101.5 -57.5 158.5 -161t57 -237.5q0 -123 -46.5 -231.5t-128.5 -189t-188 -122.5v-4q-98 -37 -149 -81t-51 -102q0 -44 27 -70t78 -26q22 0 51 6v-132q-43 -19 -100 -19q-56 0 -107.5 21t-84.5 66.5t-33 116.5q0 110 94 189q-112 15 -197.5 75.5t-132 158 t-46.5 219.5q0 160 77 293t207.5 210.5t282.5 77.5q130 0 231.5 -57.5zM749.5 205.5q82.5 49.5 131 137.5t48.5 198q0 90 -34 155.5t-95 99.5t-140 34q-98 0 -180.5 -49.5t-131 -137.5t-48.5 -198q0 -90 34 -155.5t95 -99.5t140 -34q98 0 180.5 49.5z" glyph-name="uni01EB" unicode="ǫ" vert-adv-y="1980"/>
<glyph d="M957 921q78 -61 121.5 -155.5t43.5 -210.5q0 -160 -77.5 -293.5t-208.5 -210.5t-283 -77q-92 0 -171 29l-76 -121q-13 -22 -37 -22h-79q-24 0 -24 17q0 9 7 19l103 165q-80 61 -124 156.5t-44 213.5q0 160 77 293t207.5 210.5t282.5 77.5q96 0 177 -32l71 114 q13 22 37 22h80q24 0 24 -17q0 -9 -7 -19zM321 320q21 -55 59 -93l370 590q-40 13 -90 13q-98 0 -180.5 -49.5t-131 -137.5t-48.5 -198q0 -70 21 -125zM749.5 205.5q82.5 49.5 131 137.5t48.5 198q0 68 -19.5 122.5t-56.5 91.5l-368 -588q41 -11 84 -11q98 0 180.5 49.5z " glyph-name="oslash" unicode="ø" vert-adv-y="1980"/>
<glyph d="M321 31.5q-101 57.5 -157 161.5t-56 238q0 160 77 293t207.5 210.5t282.5 77.5q130 0 231.5 -57.5t158.5 -161t57 -237.5q0 -161 -77.5 -294.5t-208.5 -210.5t-283 -77q-131 0 -232 57.5zM749.5 205.5q82.5 49.5 131 137.5t48.5 198q0 90 -34 155.5t-95 99.5t-140 34 q-98 0 -180.5 -49.5t-131 -137.5t-48.5 -198q0 -90 34 -155.5t95 -99.5t140 -34q98 0 180.5 49.5zM794 1253q-36 20 -79 59q-35 31 -58.5 45.5t-54.5 14.5q-38 0 -62 -17.5t-37 -42.5q-9 -17 -25 -17h-54q-8 0 -12.5 4.5t-4.5 11.5q0 3 2 9q21 84 78.5 128t138.5 44 q54 0 90 -20t78 -58q35 -31 59 -45.5t56 -14.5q36 0 60.5 17t36.5 42q8 17 24 17h54q9 0 14 -5.5t3 -14.5q-19 -85 -78 -131t-139 -46q-54 0 -90 20z" glyph-name="otilde" unicode="õ" vert-adv-y="1980"/>
<glyph d="M1206 687q0 -72 -13 -165q-9 -60 -24.5 -84t-53.5 -24h-424q-3 -33 -3 -63q0 -104 41 -159.5t135 -55.5q57 0 100 21t90 64l70 -99q-57 -71 -132 -109.5t-165 -38.5q-195 0 -249 187q-101 -187 -287 -187q-135 0 -199 93.5t-64 261.5q0 69 13 165q34 241 132.5 380 t263.5 139q187 0 235 -188q105 188 291 188q243 0 243 -326zM556 627q0 220 -137 220q-88 0 -144 -91t-80 -263q-11 -80 -11 -138q0 -106 34 -161t102 -55q88 0 145 91t81 263q10 71 10 134zM710 553h336q9 62 9 113q0 181 -130 181q-160 0 -215 -294z" glyph-name="oe" unicode="œ" vert-adv-y="1980"/>
<glyph d="M974 970q64 -42 99 -124.5t35 -201.5q0 -183 -84.5 -336t-238 -243.5t-350.5 -90.5q-86 0 -166 18l-49 -344q-4 -28 -32 -28h-136q-32 0 -28 32l187 1310q4 28 32 28h137q15 0 22.5 -8.5t5.5 -23.5l-42 -293l-15 -54h19q87 195 201 298t252 103q87 0 151 -42zM696.5 214 q103.5 61 161 164.5t57.5 226.5q0 118 -47.5 173t-120.5 55q-102 0 -189.5 -88.5t-150 -215.5t-97.5 -252l-12 -86q25 -20 69 -29t94 -9q132 0 235.5 61z" glyph-name="p" unicode="p" vert-adv-y="1980"/>
<glyph d="M1110 644v-19q-5 -179 -91 -327.5t-237.5 -236t-344.5 -87.5h-1h-1q-84 0 -164 18l-49 -344q-4 -28 -32 -28h-136q-32 0 -28 32l61 429l-1 1l183 1290q4 28 32 28h138q15 0 22.5 -8.5t5.5 -23.5l-57 -397q1 -6 0 -13l-42 -293l-4 -15l-6 -39h12q181 401 454 401h1v0 q87 0 151 -42t99 -124.5t35 -200.5v-1zM709 220q98 60 153 162t55 223q0 117 -48 172.5t-121 55.5q-101 0 -188.5 -88.5t-150 -215.5t-97.5 -252l-12 -86q24 -20 68.5 -29t93.5 -9q137 0 247 67z" glyph-name="thorn" unicode="þ" vert-adv-y="1980"/>
<glyph d="M975 985.5q95 -26.5 144 -77.5l-177 -1262q-2 -15 -10 -20.5t-24 -5.5h-133q-14 0 -22 10t-6 26l100 719h-12q-86 -197 -195 -299t-246 -102q-88 0 -153 42t-100.5 124t-35.5 199q0 183 84.5 337t237 245t348.5 91q105 0 200 -26.5zM674.5 262.5q93.5 109.5 155.5 258.5 t85 267q-26 24 -71.5 34.5t-96.5 10.5q-130 0 -232 -61.5t-159 -166t-57 -227.5q0 -116 49 -170.5t123 -54.5q110 0 203.5 109.5z" glyph-name="q" unicode="q" vert-adv-y="1980"/>
<glyph d="M1171 207q14 -11 14 -27q0 -7 -3 -16q-34 -83 -105 -136.5t-163 -53.5q-65 0 -116.5 28.5t-81 83t-29.5 128.5q0 32 6 66l74 448q-56 -38 -132.5 -60t-158.5 -22q-58 0 -110 11l-48 -252q-6 -28 -32 -28h-130q-15 0 -22.5 8.5t-4.5 23.5l67 347q-48 60 -48 136 q0 48 19.5 89.5t55 66t79.5 24.5q48 0 79 -28t31 -71q0 -37 -22.5 -64t-57.5 -28q6 -28 44 -45t109 -17q73 0 140.5 19.5t116 53t65.5 73.5q5 13 13 19t21 6h133q15 0 22 -9t5 -24l-112 -659q-6 -42 -6 -60q0 -87 65 -87q38 0 65.5 25t55.5 74q8 14 20 14q9 0 20 -8z" glyph-name="r" unicode="r" vert-adv-y="1980"/>
<glyph d="M1171 207q14 -11 14 -27q0 -7 -3 -16q-34 -83 -105 -136.5t-163 -53.5q-65 0 -116.5 28.5t-81 83t-29.5 128.5q0 32 6 66l74 448q-56 -38 -132.5 -60t-158.5 -22q-58 0 -110 11l-48 -252q-6 -28 -32 -28h-130q-15 0 -22.5 8.5t-4.5 23.5l67 347q-48 60 -48 136 q0 48 19.5 89.5t55 66t79.5 24.5q48 0 79 -28t31 -71q0 -37 -22.5 -64t-57.5 -28q6 -28 44 -45t109 -17q73 0 140.5 19.5t116 53t65.5 73.5q5 13 13 19t21 6h133q15 0 22 -9t5 -24l-112 -659q-6 -42 -6 -60q0 -87 65 -87q38 0 65.5 25t55.5 74q8 14 20 14q9 0 20 -8z M652 1192q-11 0 -18 4.5t-7 12.5q0 7 6 17l152 252q8 13 17 18.5t21 5.5h117q11 0 18 -4.5t7 -12.5q0 -6 -6 -17l-152 -252q-8 -13 -17 -18.5t-21 -5.5h-117z" glyph-name="racute" unicode="ŕ" vert-adv-y="1980"/>
<glyph d="M1171 207q14 -11 14 -27q0 -7 -3 -16q-34 -83 -105 -136.5t-163 -53.5q-65 0 -116.5 28.5t-81 83t-29.5 128.5q0 32 6 66l74 448q-56 -38 -132.5 -60t-158.5 -22q-58 0 -110 11l-48 -252q-6 -28 -32 -28h-130q-15 0 -22.5 8.5t-4.5 23.5l67 347q-48 60 -48 136 q0 48 19.5 89.5t55 66t79.5 24.5q48 0 79 -28t31 -71q0 -37 -22.5 -64t-57.5 -28q6 -28 44 -45t109 -17q73 0 140.5 19.5t116 53t65.5 73.5q5 13 13 19t21 6h133q15 0 22 -9t5 -24l-112 -659q-6 -42 -6 -60q0 -87 65 -87q38 0 65.5 25t55.5 74q8 14 20 14q9 0 20 -8z M651 1193q-11 0 -19 3.5t-15 12.5l-185 257q-6 9 -6 17t7.5 13.5t20.5 5.5h140q22 0 34 -16l132 -177l180 177q17 16 38 16h146q11 0 17 -4t6 -11q0 -10 -11 -21l-258 -257q-9 -9 -18 -12.5t-20 -3.5h-189z" glyph-name="rcaron" unicode="ř" vert-adv-y="1980"/>
<glyph d="M1171 207q14 -11 14 -27q0 -7 -3 -16q-34 -83 -105 -136.5t-163 -53.5q-65 0 -116.5 28.5t-81 83t-29.5 128.5q0 32 6 66l74 448q-56 -38 -132.5 -60t-158.5 -22q-58 0 -110 11l-48 -252q-6 -28 -32 -28h-130q-15 0 -22.5 8.5t-4.5 23.5l67 347q-48 60 -48 136 q0 48 19.5 89.5t55 66t79.5 24.5q48 0 79 -28t31 -71q0 -37 -22.5 -64t-57.5 -28q6 -28 44 -45t109 -17q73 0 140.5 19.5t116 53t65.5 73.5q5 13 13 19t21 6h133q15 0 22 -9t5 -24l-112 -659q-6 -42 -6 -60q0 -87 65 -87q38 0 65.5 25t55.5 74q8 14 20 14q9 0 20 -8z M688 -165q13 0 19.5 -7.5t4.5 -20.5l-8 -58q-18 -124 -41 -234.5t-46 -183.5q-7 -22 -35 -22h-99q-23 0 -23 20q0 6 1 10q42 204 57 334h-230q-13 0 -19.5 7.5t-5.5 20.5l16 106q1 13 10 20.5t22 7.5h377z" glyph-name="uni0157" unicode="ŗ" vert-adv-y="1980"/>
<glyph d="M886 1013q0 -70 15.5 -129.5t38 -105.5t59.5 -108q33 -57 52.5 -95.5t32.5 -86t13 -100.5q0 -126 -73.5 -220t-197 -144t-269.5 -50q-135 0 -233.5 42t-149.5 112t-51 154q0 32 5 54q6 25 34 25h131q29 0 27 -31q-3 -51 29 -90.5t91 -62t135 -22.5q90 0 165 31.5 t118.5 91t43.5 140.5q0 56 -18.5 100.5t-57.5 110.5q-39 65 -60.5 115.5t-28.5 114.5l-268 -302q-18 -19 -40 -19q-33 0 -73 37q-38 35 -38 70q0 21 17 40l291 311q16 17 36 17h224z" glyph-name="s" unicode="s" vert-adv-y="1980"/>
<glyph d="M886 1013q0 -70 15.5 -129.5t38 -105.5t59.5 -108q33 -57 52.5 -95.5t32.5 -86t13 -100.5q0 -126 -73.5 -220t-197 -144t-269.5 -50q-135 0 -233.5 42t-149.5 112t-51 154q0 32 5 54q6 25 34 25h131q29 0 27 -31q-3 -51 29 -90.5t91 -62t135 -22.5q90 0 165 31.5 t118.5 91t43.5 140.5q0 56 -18.5 100.5t-57.5 110.5q-39 65 -60.5 115.5t-28.5 114.5l-268 -302q-18 -19 -40 -19q-33 0 -73 37q-38 35 -38 70q0 21 17 40l291 311q16 17 36 17h224zM629 1192q-11 0 -18 4.5t-7 12.5q0 7 6 17l152 252q8 13 17 18.5t21 5.5h117q11 0 18 -4.5 t7 -12.5q0 -6 -6 -17l-152 -252q-8 -13 -17 -18.5t-21 -5.5h-117z" glyph-name="sacute" unicode="ś" vert-adv-y="1980"/>
<glyph d="M886 1013q0 -70 15.5 -129.5t38 -105.5t59.5 -108q33 -57 52.5 -95.5t32.5 -86t13 -100.5q0 -126 -73.5 -220t-197 -144t-269.5 -50q-135 0 -233.5 42t-149.5 112t-51 154q0 32 5 54q6 25 34 25h131q29 0 27 -31q-3 -51 29 -90.5t91 -62t135 -22.5q90 0 165 31.5 t118.5 91t43.5 140.5q0 56 -18.5 100.5t-57.5 110.5q-39 65 -60.5 115.5t-28.5 114.5l-268 -302q-18 -19 -40 -19q-33 0 -73 37q-38 35 -38 70q0 21 17 40l291 311q16 17 36 17h224zM628 1193q-11 0 -19 3.5t-15 12.5l-185 257q-6 9 -6 17t7.5 13.5t20.5 5.5h140 q22 0 34 -16l132 -177l180 177q17 16 38 16h146q11 0 17 -4t6 -11q0 -10 -11 -21l-258 -257q-9 -9 -18 -12.5t-20 -3.5h-189z" glyph-name="scaron" unicode="š" vert-adv-y="1980"/>
<glyph d="M1027 172.5q-70 -92.5 -188 -143.5t-259 -55l-55 -47q63 -6 105.5 -42t42.5 -95q0 -69 -38.5 -119.5t-102 -77t-139.5 -26.5q-36 0 -72 6q-18 3 -15 22l10 71q2 9 9 15t16 5q24 -3 48 -3q59 0 97.5 20.5t38.5 60.5q0 24 -24.5 41t-62.5 17q-37 0 -78 -16q-4 -2 -10 -2 q-14 0 -12 16l10 70q1 12 13 24l78 69q-100 17 -171 61t-108 105.5t-37 132.5q0 32 5 54q6 25 34 25h131q29 0 27 -31q-3 -51 29 -90.5t91 -62t135 -22.5q90 0 165 31.5t118.5 91t43.5 140.5q0 56 -18.5 100.5t-57.5 110.5q-39 65 -60.5 115.5t-28.5 114.5l-268 -302 q-18 -19 -40 -19q-33 0 -73 37q-38 35 -38 70q0 21 17 40l291 311q16 17 36 17h224q0 -70 15.5 -129.5t38 -105.5t59.5 -108q33 -57 52.5 -95.5t32.5 -86t13 -100.5q0 -123 -70 -215.5z" glyph-name="scedilla" unicode="ş" vert-adv-y="1980"/>
<glyph d="M886 1013q0 -70 15.5 -129.5t38 -105.5t59.5 -108q33 -57 52.5 -95.5t32.5 -86t13 -100.5q0 -126 -73.5 -220t-197 -144t-269.5 -50q-135 0 -233.5 42t-149.5 112t-51 154q0 32 5 54q6 25 34 25h131q29 0 27 -31q-3 -51 29 -90.5t91 -62t135 -22.5q90 0 165 31.5 t118.5 91t43.5 140.5q0 56 -18.5 100.5t-57.5 110.5q-39 65 -60.5 115.5t-28.5 114.5l-268 -302q-18 -19 -40 -19q-33 0 -73 37q-38 35 -38 70q0 21 17 40l291 311q16 17 36 17h224zM668 -165q13 0 19.5 -7.5t4.5 -20.5l-8 -58q-18 -124 -41 -234.5t-46 -183.5 q-7 -22 -35 -22h-99q-23 0 -23 20q0 6 1 10q42 204 57 334h-230q-13 0 -19.5 7.5t-5.5 20.5l16 106q1 13 10 20.5t22 7.5h377z" glyph-name="uni0219" unicode="ș" vert-adv-y="1980"/>
<glyph d="M891.5 686.5q25.5 -28.5 78.5 -67.5q53 -40 86 -71.5t57 -81.5t24 -119q0 -112 -64.5 -190t-177 -117.5t-256.5 -39.5h-129q-13 0 -20 8t-5 22l14 101q1 13 10.5 21.5t23.5 8.5h107q143 0 221 48.5t78 138.5q0 45 -19 80t-46.5 60t-73.5 58q-44 31 -70 54.5t-44 55.5 t-18 73q0 48 22.5 84.5t67.5 85.5q47 50 71.5 90.5t24.5 94.5q0 65 -43 101t-135 36q-111 0 -164.5 -53t-67.5 -159l-190 -1359q-2 -13 -12 -21.5t-23 -8.5h-138q-13 0 -20 8.5t-5 21.5l158 1127h-115q-14 0 -21 8.5t-5 21.5l14 103q2 14 12 22t23 8h115l11 81 q25 181 139 280t311 99q170 0 264 -73.5t94 -206.5q0 -59 -17 -104t-40 -75t-61 -69q-37 -37 -54.5 -62t-17.5 -57q0 -38 25.5 -66.5z" glyph-name="germandbls" unicode="ß" vert-adv-y="1980"/>
<glyph d="M1131 1470.5q67 -12.5 107.5 -38t33.5 -60.5l-14 -70q-6 -29 -37 -29q-10 0 -22 3q-39 13 -80.5 21.5t-103.5 8.5q-113 0 -175 -47.5t-77 -166.5l-140 -1096q-27 -213 -145.5 -299.5t-270.5 -86.5q-72 0 -128.5 17t-86 44.5t-25.5 55.5l11 70q2 16 11 24t21 8q5 0 13 -2 q3 -1 22 -8q44 -16 77.5 -24.5t72.5 -8.5q87 0 153.5 54.5t82.5 187.5l90 724h-325q-15 0 -22.5 8.5t-5.5 23.5l14 103q4 28 32 28h327l27 216q23 189 141.5 270.5t284.5 81.5q70 0 137 -12.5z" glyph-name="longs" unicode="ſ" vert-adv-y="1980"/>
<glyph d="M1108 990q16 0 23.5 -8t5.5 -24l-16 -108q-4 -28 -32 -28h-454l-61 -430q-5 -37 -5 -62q0 -96 49 -137.5t123 -41.5q85 0 143.5 48t89.5 125q7 17 23 17q8 0 17 -4l89 -37q18 -8 18 -24q0 -6 -1 -10t-2 -7q-22 -81 -78.5 -145.5t-140 -102t-183.5 -37.5 q-90 0 -168.5 31.5t-129 103.5t-50.5 187q0 38 6 81l63 445h-306q-15 0 -22.5 8.5t-5.5 23.5l15 108q4 28 33 28h310l45 322q4 28 32 28h138q15 0 22.5 -8t5.5 -24l-45 -318h449z" glyph-name="t" unicode="t" vert-adv-y="1980"/>
<glyph d="M1108 990q16 0 23.5 -8t5.5 -24l-16 -108q-4 -28 -32 -28h-454l-18 -127h457q15 0 22.5 -8t5.5 -24l-15 -105q-4 -28 -32 -28h-461l-20 -138q-5 -37 -5 -62q0 -96 49 -137.5t123 -41.5q85 0 143.5 48t89.5 125q7 17 23 17q8 0 17 -4l89 -37q18 -8 18 -24q0 -6 -1 -10 t-2 -7q-22 -81 -78.5 -145.5t-140 -102t-183.5 -37.5q-90 0 -168.5 31.5t-129 103.5t-50.5 187q0 38 6 81l22 153h-307q-15 0 -22.5 8.5t-5.5 23.5l16 105q4 28 32 28h310l18 127h-306q-15 0 -22.5 8.5t-5.5 23.5l15 108q4 28 33 28h310l45 322q4 28 32 28h138q15 0 22.5 -8 t5.5 -24l-45 -318h449z" glyph-name="tbar" unicode="ŧ" vert-adv-y="1980"/>
<glyph d="M1108 990q16 0 23.5 -8t5.5 -24l-16 -108q-4 -28 -32 -28h-454l-61 -430q-5 -37 -5 -62q0 -96 49 -137.5t123 -41.5q85 0 143.5 48t89.5 125q7 17 23 17q8 0 17 -4l89 -37q18 -8 18 -24q0 -6 -1 -10t-2 -7q-22 -81 -78.5 -145.5t-140 -102t-183.5 -37.5 q-90 0 -168.5 31.5t-129 103.5t-50.5 187q0 38 6 81l63 445h-306q-15 0 -22.5 8.5t-5.5 23.5l15 108q4 28 33 28h310l45 322q4 28 32 28h138q15 0 22.5 -8t5.5 -24l-45 -318h449zM1002 1322q-11 0 -18 4.5t-7 12.5q0 7 6 17l152 252q8 13 17 18.5t21 5.5h117q11 0 18 -4.5 t7 -12.5q0 -6 -6 -17l-152 -252q-8 -13 -17 -18.5t-21 -5.5h-117z" glyph-name="tcaron" unicode="ť" vert-adv-y="1980"/>
<glyph d="M1108 990q16 0 23.5 -8t5.5 -24l-16 -108q-4 -28 -32 -28h-454l-61 -430q-5 -37 -5 -62q0 -96 49 -137.5t123 -41.5q85 0 143.5 48t89.5 125q7 17 23 17q8 0 17 -4l89 -37q18 -8 18 -24q0 -6 -1 -10t-2 -7q-22 -81 -78.5 -145.5t-140 -102t-183.5 -37.5q-17 0 -26 1 l-55 -48q63 -6 105.5 -42t42.5 -95q0 -69 -38.5 -119.5t-102 -77t-139.5 -26.5q-36 0 -72 6q-18 3 -15 22l10 71q2 9 9 15t16 5q24 -3 48 -3q59 0 97.5 20.5t38.5 60.5q0 24 -24.5 41t-62.5 17q-37 0 -78 -16q-4 -2 -10 -2q-14 0 -12 16l10 70q1 12 13 24l94 85 q-89 31 -143 104.5t-54 192.5q0 38 6 81l63 445h-306q-15 0 -22.5 8.5t-5.5 23.5l15 108q4 28 33 28h310l45 322q4 28 32 28h138q15 0 22.5 -8t5.5 -24l-45 -318h449z" glyph-name="uni0163" unicode="ţ" vert-adv-y="1980"/>
<glyph d="M1108 990q16 0 23.5 -8t5.5 -24l-16 -108q-4 -28 -32 -28h-454l-61 -430q-5 -37 -5 -62q0 -96 49 -137.5t123 -41.5q85 0 143.5 48t89.5 125q7 17 23 17q8 0 17 -4l89 -37q18 -8 18 -24q0 -6 -1 -10t-2 -7q-22 -81 -78.5 -145.5t-140 -102t-183.5 -37.5 q-90 0 -168.5 31.5t-129 103.5t-50.5 187q0 38 6 81l63 445h-306q-15 0 -22.5 8.5t-5.5 23.5l15 108q4 28 33 28h310l45 322q4 28 32 28h138q15 0 22.5 -8t5.5 -24l-45 -318h449zM830 -165q13 0 19.5 -7.5t4.5 -20.5l-8 -58q-18 -124 -41 -234.5t-46 -183.5q-7 -22 -35 -22 h-99q-23 0 -23 20q0 6 1 10q42 204 57 334h-230q-13 0 -19.5 7.5t-5.5 20.5l16 106q1 13 10 20.5t22 7.5h377z" glyph-name="uni021B" unicode="ț" vert-adv-y="1980"/>
<glyph d="M263 10q-56 32 -87.5 94.5t-31.5 149.5q0 47 11 107l71 369q6 32 6 55q0 29 -11.5 43.5t-38.5 14.5q-12 0 -29 -3q-3 -1 -8 -1q-25 0 -25 33q0 10 1 16q9 48 48 82t94 34q46 0 85 -21t62.5 -62.5t23.5 -99.5q0 -26 -6 -58l-69 -359q-9 -46 -9 -84q0 -78 33.5 -118.5 t91.5 -40.5q90 0 179 96t160 277.5t108 427.5q4 28 32 28h135q32 0 28 -32l-100 -702q-5 -37 -5 -57q0 -28 10.5 -42t35.5 -14q13 0 29 3q34 5 34 -31q0 -35 -18.5 -66t-51.5 -49.5t-74 -18.5q-71 0 -117 49.5t-46 140.5q0 27 4 51l20 150h-20q-86 -197 -194 -295.5 t-232 -98.5q-73 0 -129 32z" glyph-name="u" unicode="u" vert-adv-y="1980"/>
<glyph d="M263 10q-56 32 -87.5 94.5t-31.5 149.5q0 47 11 107l71 369q6 32 6 55q0 29 -11.5 43.5t-38.5 14.5q-12 0 -29 -3q-3 -1 -8 -1q-25 0 -25 33q0 10 1 16q9 48 48 82t94 34q46 0 85 -21t62.5 -62.5t23.5 -99.5q0 -26 -6 -58l-69 -359q-9 -46 -9 -84q0 -78 33.5 -118.5 t91.5 -40.5q90 0 179 96t160 277.5t108 427.5q4 28 32 28h135q32 0 28 -32l-100 -702q-5 -37 -5 -57q0 -28 10.5 -42t35.5 -14q13 0 29 3q34 5 34 -31q0 -35 -18.5 -66t-51.5 -49.5t-74 -18.5q-71 0 -117 49.5t-46 140.5q0 27 4 51l20 150h-20q-86 -197 -194 -295.5 t-232 -98.5q-73 0 -129 32zM615 1182q-11 0 -18 4.5t-7 12.5q0 7 6 17l152 252q8 13 17 18.5t21 5.5h117q11 0 18 -4.5t7 -12.5q0 -6 -6 -17l-152 -252q-8 -13 -17 -18.5t-21 -5.5h-117z" glyph-name="uacute" unicode="ú" vert-adv-y="1980"/>
<glyph d="M263 10q-56 32 -87.5 94.5t-31.5 149.5q0 47 11 107l71 369q6 32 6 55q0 29 -11.5 43.5t-38.5 14.5q-12 0 -29 -3q-3 -1 -8 -1q-25 0 -25 33q0 10 1 16q9 48 48 82t94 34q46 0 85 -21t62.5 -62.5t23.5 -99.5q0 -26 -6 -58l-69 -359q-9 -46 -9 -84q0 -78 33.5 -118.5 t91.5 -40.5q90 0 179 96t160 277.5t108 427.5q4 28 32 28h135q32 0 28 -32l-100 -702q-5 -37 -5 -57q0 -28 10.5 -42t35.5 -14q13 0 29 3q34 5 34 -31q0 -35 -18.5 -66t-51.5 -49.5t-74 -18.5q-71 0 -117 49.5t-46 140.5q0 27 4 51l20 150h-20q-86 -197 -194 -295.5 t-232 -98.5q-73 0 -129 32zM533 1231q-62 35 -93 95.5t-28 135.5q2 30 34 30h74q26 0 28 -28q5 -55 43.5 -92t106.5 -37q66 0 110.5 36t65.5 93q11 28 36 28h82q25 0 25 -20q0 -6 -1 -10q-18 -76 -63 -136t-114 -95t-156 -35q-88 0 -150 35z" glyph-name="ubreve" unicode="ŭ" vert-adv-y="1980"/>
<glyph d="M263 10q-56 32 -87.5 94.5t-31.5 149.5q0 47 11 107l71 369q6 32 6 55q0 29 -11.5 43.5t-38.5 14.5q-12 0 -29 -3q-3 -1 -8 -1q-25 0 -25 33q0 10 1 16q9 48 48 82t94 34q46 0 85 -21t62.5 -62.5t23.5 -99.5q0 -26 -6 -58l-69 -359q-9 -46 -9 -84q0 -78 33.5 -118.5 t91.5 -40.5q90 0 179 96t160 277.5t108 427.5q4 28 32 28h135q32 0 28 -32l-100 -702q-5 -37 -5 -57q0 -28 10.5 -42t35.5 -14q13 0 29 3q34 5 34 -31q0 -35 -18.5 -66t-51.5 -49.5t-74 -18.5q-71 0 -117 49.5t-46 140.5q0 27 4 51l20 150h-20q-86 -197 -194 -295.5 t-232 -98.5q-73 0 -129 32zM614 1183q-11 0 -19 3.5t-15 12.5l-185 257q-6 9 -6 17t7.5 13.5t20.5 5.5h140q22 0 34 -16l132 -177l180 177q17 16 38 16h146q11 0 17 -4t6 -11q0 -10 -11 -21l-258 -257q-9 -9 -18 -12.5t-20 -3.5h-189z" glyph-name="uni01D4" unicode="ǔ" vert-adv-y="1980"/>
<glyph d="M263 10q-56 32 -87.5 94.5t-31.5 149.5q0 47 11 107l71 369q6 32 6 55q0 29 -11.5 43.5t-38.5 14.5q-12 0 -29 -3q-3 -1 -8 -1q-25 0 -25 33q0 10 1 16q9 48 48 82t94 34q46 0 85 -21t62.5 -62.5t23.5 -99.5q0 -26 -6 -58l-69 -359q-9 -46 -9 -84q0 -78 33.5 -118.5 t91.5 -40.5q90 0 179 96t160 277.5t108 427.5q4 28 32 28h135q32 0 28 -32l-100 -702q-5 -37 -5 -57q0 -28 10.5 -42t35.5 -14q13 0 29 3q34 5 34 -31q0 -35 -18.5 -66t-51.5 -49.5t-74 -18.5q-71 0 -117 49.5t-46 140.5q0 27 4 51l20 150h-20q-86 -197 -194 -295.5 t-232 -98.5q-73 0 -129 32zM379 1183q-11 0 -17 4t-6 10q0 10 12 22l257 257q9 9 18 12.5t20 3.5h189q23 0 34 -16l186 -257q6 -9 6 -16q0 -9 -7.5 -14.5t-20.5 -5.5h-141q-22 0 -34 16l-132 178l-180 -178q-17 -16 -38 -16h-146z" glyph-name="ucircumflex" unicode="û" vert-adv-y="1980"/>
<glyph d="M263 10q-56 32 -87.5 94.5t-31.5 149.5q0 47 11 107l71 369q6 32 6 55q0 29 -11.5 43.5t-38.5 14.5q-12 0 -29 -3q-3 -1 -8 -1q-25 0 -25 33q0 10 1 16q9 48 48 82t94 34q46 0 85 -21t62.5 -62.5t23.5 -99.5q0 -26 -6 -58l-69 -359q-9 -46 -9 -84q0 -78 33.5 -118.5 t91.5 -40.5q90 0 179 96t160 277.5t108 427.5q4 28 32 28h135q32 0 28 -32l-100 -702q-5 -37 -5 -57q0 -28 10.5 -42t35.5 -14q13 0 29 3q34 5 34 -31q0 -35 -18.5 -66t-51.5 -49.5t-74 -18.5q-71 0 -117 49.5t-46 140.5q0 27 4 51l20 150h-20q-86 -197 -194 -295.5 t-232 -98.5q-73 0 -129 32zM432 1309.5q-32 31.5 -32 76.5q0 43 32 74.5t76 31.5t75.5 -31.5t31.5 -74.5q0 -45 -31.5 -76.5t-75.5 -31.5t-76 31.5zM826 1309.5q-32 31.5 -32 76.5q0 43 32 74.5t76 31.5t75.5 -31.5t31.5 -74.5q0 -45 -31.5 -76.5t-75.5 -31.5t-76 31.5z" glyph-name="udieresis" unicode="ü" vert-adv-y="1980"/>
<glyph d="M263 10q-56 32 -87.5 94.5t-31.5 149.5q0 47 11 107l71 369q6 32 6 55q0 29 -11.5 43.5t-38.5 14.5q-12 0 -29 -3q-3 -1 -8 -1q-25 0 -25 33q0 10 1 16q9 48 48 82t94 34q46 0 85 -21t62.5 -62.5t23.5 -99.5q0 -26 -6 -58l-69 -359q-9 -46 -9 -84q0 -78 33.5 -118.5 t91.5 -40.5q90 0 179 96t160 277.5t108 427.5q4 28 32 28h135q32 0 28 -32l-100 -702q-5 -37 -5 -57q0 -28 10.5 -42t35.5 -14q13 0 29 3q34 5 34 -31q0 -35 -18.5 -66t-51.5 -49.5t-74 -18.5q-71 0 -117 49.5t-46 140.5q0 27 4 51l20 150h-20q-86 -197 -194 -295.5 t-232 -98.5q-73 0 -129 32zM634 1182q-12 0 -21 5.5t-17 18.5l-152 252q-6 11 -6 17q0 8 7 12.5t18 4.5h117q12 0 21 -5.5t17 -18.5l152 -252q6 -10 6 -17q0 -8 -7 -12.5t-18 -4.5h-117z" glyph-name="ugrave" unicode="ù" vert-adv-y="1980"/>
<glyph d="M263 10q-56 32 -87.5 94.5t-31.5 149.5q0 47 11 107l71 369q6 32 6 55q0 29 -11.5 43.5t-38.5 14.5q-12 0 -29 -3q-3 -1 -8 -1q-25 0 -25 33q0 10 1 16q9 48 48 82t94 34q46 0 85 -21t62.5 -62.5t23.5 -99.5q0 -26 -6 -58l-69 -359q-9 -46 -9 -84q0 -78 33.5 -118.5 t91.5 -40.5q90 0 179 96t160 277.5t108 427.5q4 28 32 28h135q32 0 28 -32l-100 -702q-5 -37 -5 -57q0 -28 10.5 -42t35.5 -14q13 0 29 3q34 5 34 -31q0 -35 -18.5 -66t-51.5 -49.5t-74 -18.5q-71 0 -117 49.5t-46 140.5q0 27 4 51l20 150h-20q-86 -197 -194 -295.5 t-232 -98.5q-73 0 -129 32zM752 1182q-11 0 -18 4.5t-7 12.5q0 7 6 17l152 252q8 13 17 18.5t21 5.5h117q11 0 18 -4.5t7 -12.5q0 -6 -6 -17l-152 -252q-8 -13 -17 -18.5t-21 -5.5h-117zM430 1182q-11 0 -18 4.5t-7 12.5q0 7 6 17l152 252q8 13 17 18.5t21 5.5h117 q11 0 18 -4.5t7 -12.5q0 -6 -6 -17l-152 -252q-8 -13 -17 -18.5t-21 -5.5h-117z" glyph-name="uhungarumlaut" unicode="ű" vert-adv-y="1980"/>
<glyph d="M263 10q-56 32 -87.5 94.5t-31.5 149.5q0 47 11 107l71 369q6 32 6 55q0 29 -11.5 43.5t-38.5 14.5q-12 0 -29 -3q-3 -1 -8 -1q-25 0 -25 33q0 10 1 16q9 48 48 82t94 34q46 0 85 -21t62.5 -62.5t23.5 -99.5q0 -26 -6 -58l-69 -359q-9 -46 -9 -84q0 -78 33.5 -118.5 t91.5 -40.5q90 0 179 96t160 277.5t108 427.5q4 28 32 28h135q32 0 28 -32l-100 -702q-5 -37 -5 -57q0 -28 10.5 -42t35.5 -14q13 0 29 3q34 5 34 -31q0 -35 -18.5 -66t-51.5 -49.5t-74 -18.5q-71 0 -117 49.5t-46 140.5q0 27 4 51l20 150h-20q-86 -197 -194 -295.5 t-232 -98.5q-73 0 -129 32zM439 1334q-13 0 -20.5 8t-5.5 22l14 98q1 13 10.5 21.5t23.5 8.5h516q13 0 20.5 -8t5.5 -22l-14 -98q-1 -13 -10.5 -21.5t-23.5 -8.5h-516z" glyph-name="umacron" unicode="ū" vert-adv-y="1980"/>
<glyph d="M1121 115q0 -35 -18.5 -66t-51.5 -49.5t-74 -18.5q-10 0 -14 1q-73 -21 -113 -61.5t-40 -90.5q0 -47 27 -73.5t78 -26.5q23 0 51 6v-132q-43 -19 -100 -19q-56 0 -107 21t-84 66.5t-33 116.5q0 90 58 154.5t148 102.5q-34 49 -34 124q0 28 4 52l20 150h-20 q-86 -197 -194 -295.5t-232 -98.5q-73 0 -129 32t-87.5 94.5t-31.5 149.5q0 47 11 107l71 369q6 32 6 55q0 29 -11.5 43.5t-38.5 14.5q-12 0 -29 -3q-3 -1 -8 -1q-25 0 -25 33q0 10 1 16q9 48 48 82t94 34q46 0 85 -21t62.5 -62.5t23.5 -99.5q0 -26 -6 -58l-69 -359 q-9 -46 -9 -84q0 -78 33.5 -118.5t91.5 -40.5q90 0 179 96t160 277.5t108 427.5q4 28 32 28h135q32 0 28 -32l-100 -702q-5 -37 -5 -57q0 -28 10.5 -42t35.5 -14q13 0 29 3q34 5 34 -31z" glyph-name="uogonek" unicode="ų" vert-adv-y="1980"/>
<glyph d="M263 10q-56 32 -87.5 94.5t-31.5 149.5q0 47 11 107l71 369q6 32 6 55q0 29 -11.5 43.5t-38.5 14.5q-12 0 -29 -3q-3 -1 -8 -1q-25 0 -25 33q0 10 1 16q9 48 48 82t94 34q46 0 85 -21t62.5 -62.5t23.5 -99.5q0 -26 -6 -58l-69 -359q-9 -46 -9 -84q0 -78 33.5 -118.5 t91.5 -40.5q90 0 179 96t160 277.5t108 427.5q4 28 32 28h135q32 0 28 -32l-100 -702q-5 -37 -5 -57q0 -28 10.5 -42t35.5 -14q13 0 29 3q34 5 34 -31q0 -35 -18.5 -66t-51.5 -49.5t-74 -18.5q-71 0 -117 49.5t-46 140.5q0 27 4 51l20 150h-20q-86 -197 -194 -295.5 t-232 -98.5q-73 0 -129 32zM667 1148q-43 25 -67.5 67.5t-24.5 91.5q0 50 24.5 92.5t67.5 67.5t95 25t95 -25t67.5 -67.5t24.5 -92.5q0 -49 -24.5 -91.5t-67.5 -67.5t-95 -25t-95 25zM812.5 1259q20.5 19 20.5 49q-1 30 -21 49t-50 19t-50 -19t-20 -49t20 -49t50 -19 t50.5 19z" glyph-name="uring" unicode="ů" vert-adv-y="1980"/>
<glyph d="M160 125q0 25 4 48l94 557q6 33 6 57q0 28 -11 42t-38 14q-11 0 -28 -3q-3 -1 -8 -1q-25 0 -25 33q0 10 1 16q9 49 49 82.5t98 33.5q70 0 115.5 -48t45.5 -135q0 -23 -5 -58l-102 -610q118 -1 257.5 103t236.5 290t97 418q0 13 10 19.5t24 6.5h147q15 0 20 -8.5t5 -25.5 q0 -259 -121 -485.5t-308.5 -361.5t-374.5 -135q-189 0 -189 151z" glyph-name="v" unicode="v" vert-adv-y="1980"/>
<glyph d="M228 1q-52 27 -83.5 82.5t-31.5 136.5q0 35 6 75l71 435q6 44 6 57q0 28 -11 42t-38 14q-12 0 -28 -3q-3 -1 -8 -1q-25 0 -25 33q0 10 1 16q9 49 49 82.5t98 33.5q69 0 111.5 -46.5t42.5 -132.5q0 -34 -5 -62l-75 -460q-4 -21 -4 -44q0 -49 22.5 -74t65.5 -25q53 0 89 36 t45 101l97 665q4 28 32 28h110q32 0 28 -32l-96 -666q-3 -22 -3 -42q0 -90 66 -90q73 0 130 111t88 295t31 394q0 15 8 22.5t22 7.5h124q14 0 22 -7.5t8 -22.5q0 -265 -46.5 -489.5t-140.5 -360.5t-230 -136q-73 0 -120.5 41t-53.5 121h-20q-40 -85 -103.5 -123.5 t-136.5 -38.5q-62 0 -114 27z" glyph-name="w" unicode="w" vert-adv-y="1980"/>
<glyph d="M228 1q-52 27 -83.5 82.5t-31.5 136.5q0 35 6 75l71 435q6 44 6 57q0 28 -11 42t-38 14q-12 0 -28 -3q-3 -1 -8 -1q-25 0 -25 33q0 10 1 16q9 49 49 82.5t98 33.5q69 0 111.5 -46.5t42.5 -132.5q0 -34 -5 -62l-75 -460q-4 -21 -4 -44q0 -49 22.5 -74t65.5 -25q53 0 89 36 t45 101l97 665q4 28 32 28h110q32 0 28 -32l-96 -666q-3 -22 -3 -42q0 -90 66 -90q73 0 130 111t88 295t31 394q0 15 8 22.5t22 7.5h124q14 0 22 -7.5t8 -22.5q0 -265 -46.5 -489.5t-140.5 -360.5t-230 -136q-73 0 -120.5 41t-53.5 121h-20q-40 -85 -103.5 -123.5 t-136.5 -38.5q-62 0 -114 27zM651 1182q-11 0 -18 4.5t-7 12.5q0 7 6 17l152 252q8 13 17 18.5t21 5.5h117q11 0 18 -4.5t7 -12.5q0 -6 -6 -17l-152 -252q-8 -13 -17 -18.5t-21 -5.5h-117z" glyph-name="wacute" unicode="ẃ" vert-adv-y="1980"/>
<glyph d="M228 1q-52 27 -83.5 82.5t-31.5 136.5q0 35 6 75l71 435q6 44 6 57q0 28 -11 42t-38 14q-12 0 -28 -3q-3 -1 -8 -1q-25 0 -25 33q0 10 1 16q9 49 49 82.5t98 33.5q69 0 111.5 -46.5t42.5 -132.5q0 -34 -5 -62l-75 -460q-4 -21 -4 -44q0 -49 22.5 -74t65.5 -25q53 0 89 36 t45 101l97 665q4 28 32 28h110q32 0 28 -32l-96 -666q-3 -22 -3 -42q0 -90 66 -90q73 0 130 111t88 295t31 394q0 15 8 22.5t22 7.5h124q14 0 22 -7.5t8 -22.5q0 -265 -46.5 -489.5t-140.5 -360.5t-230 -136q-73 0 -120.5 41t-53.5 121h-20q-40 -85 -103.5 -123.5 t-136.5 -38.5q-62 0 -114 27zM415 1183q-11 0 -17 4t-6 10q0 10 12 22l257 257q9 9 18 12.5t20 3.5h189q23 0 34 -16l186 -257q6 -9 6 -16q0 -9 -7.5 -14.5t-20.5 -5.5h-141q-22 0 -34 16l-132 178l-180 -178q-17 -16 -38 -16h-146z" glyph-name="wcircumflex" unicode="ŵ" vert-adv-y="1980"/>
<glyph d="M228 1q-52 27 -83.5 82.5t-31.5 136.5q0 35 6 75l71 435q6 44 6 57q0 28 -11 42t-38 14q-12 0 -28 -3q-3 -1 -8 -1q-25 0 -25 33q0 10 1 16q9 49 49 82.5t98 33.5q69 0 111.5 -46.5t42.5 -132.5q0 -34 -5 -62l-75 -460q-4 -21 -4 -44q0 -49 22.5 -74t65.5 -25q53 0 89 36 t45 101l97 665q4 28 32 28h110q32 0 28 -32l-96 -666q-3 -22 -3 -42q0 -90 66 -90q73 0 130 111t88 295t31 394q0 15 8 22.5t22 7.5h124q14 0 22 -7.5t8 -22.5q0 -265 -46.5 -489.5t-140.5 -360.5t-230 -136q-73 0 -120.5 41t-53.5 121h-20q-40 -85 -103.5 -123.5 t-136.5 -38.5q-62 0 -114 27zM468 1309.5q-32 31.5 -32 76.5q0 43 32 74.5t76 31.5t75.5 -31.5t31.5 -74.5q0 -45 -31.5 -76.5t-75.5 -31.5t-76 31.5zM862 1309.5q-32 31.5 -32 76.5q0 43 32 74.5t76 31.5t75.5 -31.5t31.5 -74.5q0 -45 -31.5 -76.5t-75.5 -31.5t-76 31.5z " glyph-name="wdieresis" unicode="ẅ" vert-adv-y="1980"/>
<glyph d="M228 1q-52 27 -83.5 82.5t-31.5 136.5q0 35 6 75l71 435q6 44 6 57q0 28 -11 42t-38 14q-12 0 -28 -3q-3 -1 -8 -1q-25 0 -25 33q0 10 1 16q9 49 49 82.5t98 33.5q69 0 111.5 -46.5t42.5 -132.5q0 -34 -5 -62l-75 -460q-4 -21 -4 -44q0 -49 22.5 -74t65.5 -25q53 0 89 36 t45 101l97 665q4 28 32 28h110q32 0 28 -32l-96 -666q-3 -22 -3 -42q0 -90 66 -90q73 0 130 111t88 295t31 394q0 15 8 22.5t22 7.5h124q14 0 22 -7.5t8 -22.5q0 -265 -46.5 -489.5t-140.5 -360.5t-230 -136q-73 0 -120.5 41t-53.5 121h-20q-40 -85 -103.5 -123.5 t-136.5 -38.5q-62 0 -114 27zM670 1182q-12 0 -21 5.5t-17 18.5l-152 252q-6 11 -6 17q0 8 7 12.5t18 4.5h117q12 0 21 -5.5t17 -18.5l152 -252q6 -10 6 -17q0 -8 -7 -12.5t-18 -4.5h-117z" glyph-name="wgrave" unicode="ẁ" vert-adv-y="1980"/>
<glyph d="M1134 990q25 0 25 -16q0 -9 -10 -20l-430 -458l189 -281q31 -46 53.5 -66.5t46.5 -20.5q19 0 43 15q8 4 11 4q11 0 18.5 -14.5t7.5 -37.5q0 -54 -40 -89.5t-103 -35.5q-58 0 -100.5 35.5t-99.5 122.5l-156 231l-323 -344q-14 -15 -37 -15h-161q-25 0 -25 16q0 9 10 20 l439 466l-173 257q-30 46 -52.5 66.5t-46.5 20.5q-19 0 -43 -15q-8 -4 -11 -4q-11 0 -19 14.5t-8 37.5q0 54 40 89.5t103 35.5q57 0 100 -35.5t101 -122.5l139 -206l315 334q15 16 37 16h160z" glyph-name="x" unicode="x" vert-adv-y="1980"/>
<glyph d="M243.5 -375.5q-83.5 20.5 -144.5 57.5q-12 7 -12 21q0 8 5 20l39 86q9 18 25 18q7 0 14 -3q61 -27 120.5 -40t130.5 -13q150 0 252 64.5t126 227.5l45 309h-20q-81 -166 -187.5 -253.5t-228.5 -87.5q-74 0 -130 31.5t-87.5 92.5t-31.5 147q0 49 10 99l62 329q7 39 7 57 q0 28 -11.5 42t-38.5 14q-11 0 -28 -3q-3 -1 -8 -1q-25 0 -25 33q0 10 1 16q9 48 48 82t94 34q46 0 84.5 -21t61.5 -62.5t23 -99.5q0 -26 -6 -58l-59 -319q-8 -41 -8 -84q0 -78 33 -118.5t92 -40.5q90 0 178 93.5t156.5 266.5t102.5 401q4 28 32 28h135q32 0 28 -32 l-130 -908q-24 -167 -111.5 -266t-206 -139.5t-249.5 -40.5q-99 0 -182.5 20.5z" glyph-name="y" unicode="y" vert-adv-y="1980"/>
<glyph d="M243.5 -375.5q-83.5 20.5 -144.5 57.5q-12 7 -12 21q0 8 5 20l39 86q9 18 25 18q7 0 14 -3q61 -27 120.5 -40t130.5 -13q150 0 252 64.5t126 227.5l45 309h-20q-81 -166 -187.5 -253.5t-228.5 -87.5q-74 0 -130 31.5t-87.5 92.5t-31.5 147q0 49 10 99l62 329q7 39 7 57 q0 28 -11.5 42t-38.5 14q-11 0 -28 -3q-3 -1 -8 -1q-25 0 -25 33q0 10 1 16q9 48 48 82t94 34q46 0 84.5 -21t61.5 -62.5t23 -99.5q0 -26 -6 -58l-59 -319q-8 -41 -8 -84q0 -78 33 -118.5t92 -40.5q90 0 178 93.5t156.5 266.5t102.5 401q4 28 32 28h135q32 0 28 -32 l-130 -908q-24 -167 -111.5 -266t-206 -139.5t-249.5 -40.5q-99 0 -182.5 20.5zM651 1182q-11 0 -18 4.5t-7 12.5q0 7 6 17l152 252q8 13 17 18.5t21 5.5h117q11 0 18 -4.5t7 -12.5q0 -6 -6 -17l-152 -252q-8 -13 -17 -18.5t-21 -5.5h-117z" glyph-name="yacute" unicode="ý" vert-adv-y="1980"/>
<glyph d="M243.5 -375.5q-83.5 20.5 -144.5 57.5q-12 7 -12 21q0 8 5 20l39 86q9 18 25 18q7 0 14 -3q61 -27 120.5 -40t130.5 -13q150 0 252 64.5t126 227.5l45 309h-20q-81 -166 -187.5 -253.5t-228.5 -87.5q-74 0 -130 31.5t-87.5 92.5t-31.5 147q0 49 10 99l62 329q7 39 7 57 q0 28 -11.5 42t-38.5 14q-11 0 -28 -3q-3 -1 -8 -1q-25 0 -25 33q0 10 1 16q9 48 48 82t94 34q46 0 84.5 -21t61.5 -62.5t23 -99.5q0 -26 -6 -58l-59 -319q-8 -41 -8 -84q0 -78 33 -118.5t92 -40.5q90 0 178 93.5t156.5 266.5t102.5 401q4 28 32 28h135q32 0 28 -32 l-130 -908q-24 -167 -111.5 -266t-206 -139.5t-249.5 -40.5q-99 0 -182.5 20.5zM415 1183q-11 0 -17 4t-6 10q0 10 12 22l257 257q9 9 18 12.5t20 3.5h189q23 0 34 -16l186 -257q6 -9 6 -16q0 -9 -7.5 -14.5t-20.5 -5.5h-141q-22 0 -34 16l-132 178l-180 -178 q-17 -16 -38 -16h-146z" glyph-name="ycircumflex" unicode="ŷ" vert-adv-y="1980"/>
<glyph d="M243.5 -375.5q-83.5 20.5 -144.5 57.5q-12 7 -12 21q0 8 5 20l39 86q9 18 25 18q7 0 14 -3q61 -27 120.5 -40t130.5 -13q150 0 252 64.5t126 227.5l45 309h-20q-81 -166 -187.5 -253.5t-228.5 -87.5q-74 0 -130 31.5t-87.5 92.5t-31.5 147q0 49 10 99l62 329q7 39 7 57 q0 28 -11.5 42t-38.5 14q-11 0 -28 -3q-3 -1 -8 -1q-25 0 -25 33q0 10 1 16q9 48 48 82t94 34q46 0 84.5 -21t61.5 -62.5t23 -99.5q0 -26 -6 -58l-59 -319q-8 -41 -8 -84q0 -78 33 -118.5t92 -40.5q90 0 178 93.5t156.5 266.5t102.5 401q4 28 32 28h135q32 0 28 -32 l-130 -908q-24 -167 -111.5 -266t-206 -139.5t-249.5 -40.5q-99 0 -182.5 20.5zM468 1309.5q-32 31.5 -32 76.5q0 43 32 74.5t76 31.5t75.5 -31.5t31.5 -74.5q0 -45 -31.5 -76.5t-75.5 -31.5t-76 31.5zM862 1309.5q-32 31.5 -32 76.5q0 43 32 74.5t76 31.5t75.5 -31.5 t31.5 -74.5q0 -45 -31.5 -76.5t-75.5 -31.5t-76 31.5z" glyph-name="ydieresis" unicode="ÿ" vert-adv-y="1980"/>
<glyph d="M243.5 -375.5q-83.5 20.5 -144.5 57.5q-12 7 -12 21q0 8 5 20l39 86q9 18 25 18q7 0 14 -3q61 -27 120.5 -40t130.5 -13q150 0 252 64.5t126 227.5l45 309h-20q-81 -166 -187.5 -253.5t-228.5 -87.5q-74 0 -130 31.5t-87.5 92.5t-31.5 147q0 49 10 99l62 329q7 39 7 57 q0 28 -11.5 42t-38.5 14q-11 0 -28 -3q-3 -1 -8 -1q-25 0 -25 33q0 10 1 16q9 48 48 82t94 34q46 0 84.5 -21t61.5 -62.5t23 -99.5q0 -26 -6 -58l-59 -319q-8 -41 -8 -84q0 -78 33 -118.5t92 -40.5q90 0 178 93.5t156.5 266.5t102.5 401q4 28 32 28h135q32 0 28 -32 l-130 -908q-24 -167 -111.5 -266t-206 -139.5t-249.5 -40.5q-99 0 -182.5 20.5zM670 1182q-12 0 -21 5.5t-17 18.5l-152 252q-6 11 -6 17q0 8 7 12.5t18 4.5h117q12 0 21 -5.5t17 -18.5l152 -252q6 -10 6 -17q0 -8 -7 -12.5t-18 -4.5h-117z" glyph-name="ygrave" unicode="ỳ" vert-adv-y="1980"/>
<glyph d="M1079 990q13 0 22 -11t7 -25l-15 -113q-4 -25 -19 -39l-601 -554q25 5 48 5q46 0 91.5 -14t109.5 -42q72 -30 121.5 -45t103.5 -15q25 0 39 3t29 9q12 5 21 5q28 0 22 -29l-11 -52q-23 -108 -144 -108q-52 0 -104.5 16.5t-134.5 49.5q-85 34 -141.5 51.5t-113.5 17.5 q-68 0 -116.5 -23.5t-102.5 -64.5q-37 -30 -54 -36q-4 -2 -11 -2q-10 0 -16 7.5t-4 18.5l17 123q3 24 18 39l718 663h-624q-32 0 -28 32l15 105q4 28 32 28h826z" glyph-name="z" unicode="z" vert-adv-y="1980"/>
<glyph d="M1079 990q13 0 22 -11t7 -25l-15 -113q-4 -25 -19 -39l-601 -554q25 5 48 5q46 0 91.5 -14t109.5 -42q72 -30 121.5 -45t103.5 -15q25 0 39 3t29 9q12 5 21 5q28 0 22 -29l-11 -52q-23 -108 -144 -108q-52 0 -104.5 16.5t-134.5 49.5q-85 34 -141.5 51.5t-113.5 17.5 q-68 0 -116.5 -23.5t-102.5 -64.5q-37 -30 -54 -36q-4 -2 -11 -2q-10 0 -16 7.5t-4 18.5l17 123q3 24 18 39l718 663h-624q-32 0 -28 32l15 105q4 28 32 28h826zM651 1182q-11 0 -18 4.5t-7 12.5q0 7 6 17l152 252q8 13 17 18.5t21 5.5h117q11 0 18 -4.5t7 -12.5 q0 -6 -6 -17l-152 -252q-8 -13 -17 -18.5t-21 -5.5h-117z" glyph-name="zacute" unicode="ź" vert-adv-y="1980"/>
<glyph d="M1079 990q13 0 22 -11t7 -25l-15 -113q-4 -25 -19 -39l-601 -554q25 5 48 5q46 0 91.5 -14t109.5 -42q72 -30 121.5 -45t103.5 -15q25 0 39 3t29 9q12 5 21 5q28 0 22 -29l-11 -52q-23 -108 -144 -108q-52 0 -104.5 16.5t-134.5 49.5q-85 34 -141.5 51.5t-113.5 17.5 q-68 0 -116.5 -23.5t-102.5 -64.5q-37 -30 -54 -36q-4 -2 -11 -2q-10 0 -16 7.5t-4 18.5l17 123q3 24 18 39l718 663h-624q-32 0 -28 32l15 105q4 28 32 28h826zM650 1183q-11 0 -19 3.5t-15 12.5l-185 257q-6 9 -6 17t7.5 13.5t20.5 5.5h140q22 0 34 -16l132 -177l180 177 q17 16 38 16h146q11 0 17 -4t6 -11q0 -10 -11 -21l-258 -257q-9 -9 -18 -12.5t-20 -3.5h-189z" glyph-name="zcaron" unicode="ž" vert-adv-y="1980"/>
<glyph d="M1079 990q13 0 22 -11t7 -25l-15 -113q-4 -25 -19 -39l-601 -554q25 5 48 5q46 0 91.5 -14t109.5 -42q72 -30 121.5 -45t103.5 -15q25 0 39 3t29 9q12 5 21 5q28 0 22 -29l-11 -52q-23 -108 -144 -108q-52 0 -104.5 16.5t-134.5 49.5q-85 34 -141.5 51.5t-113.5 17.5 q-68 0 -116.5 -23.5t-102.5 -64.5q-37 -30 -54 -36q-4 -2 -11 -2q-10 0 -16 7.5t-4 18.5l17 123q3 24 18 39l718 663h-624q-32 0 -28 32l15 105q4 28 32 28h826zM665.5 1309.5q-31.5 31.5 -31.5 76.5q0 43 31.5 74.5t75.5 31.5t75.5 -31.5t31.5 -74.5q0 -45 -31.5 -76.5 t-75.5 -31.5t-75.5 31.5z" glyph-name="zdotaccent" unicode="ż" vert-adv-y="1980"/>
<glyph d="M1131 1470.5q67 -12.5 107.5 -38t33.5 -60.5l-14 -70q-6 -29 -37 -29q-10 0 -22 3q-39 13 -80.5 21.5t-103.5 8.5q-113 0 -175 -47.5t-77 -166.5l-23 -177h406q15 0 22.5 -8t5.5 -24l-15 -103q-4 -28 -32 -28h-407l-97 -756q-27 -213 -145.5 -299.5t-270.5 -86.5 q-72 0 -128.5 17t-86 44.5t-25.5 55.5l11 70q2 16 11 24t21 8q5 0 13 -2q3 -1 22 -8q44 -16 77.5 -24.5t72.5 -8.5q87 0 153.5 54.5t82.5 187.5l90 724h-325q-15 0 -22.5 8.5t-5.5 23.5l14 103q4 28 32 28h327l27 216q23 189 141.5 270.5t284.5 81.5q70 0 137 -12.5z" glyph-name="f.ss01" vert-adv-y="1980"/>
<glyph d="M613 1256q-31 18 -49 49t-18 68t18 67.5t49 48.5t68 18t67.5 -18t48.5 -48.5t18 -67.5t-18 -68t-48.5 -49t-67.5 -18t-68 18zM516 53q-97 73 -97 240q0 47 9 102l68 427h-361q-15 0 -22.5 8.5t-5.5 23.5l15 108q4 28 32 28h531q15 0 22 -8t5 -24l-85 -554q-6 -37 -6 -69 q0 -99 49 -138.5t126 -39.5q67 0 123 23t110 59q13 8 22 8q12 0 22 -17l42 -80q5 -10 5 -17q0 -11 -10 -21q-50 -50 -144 -91t-211 -41q-142 0 -239 73z" glyph-name="i.ss01" vert-adv-y="1980"/>
<glyph d="M508 55q-97 75 -97 250q0 48 9 106l126 821h-351q-32 0 -28 32l16 108q4 28 32 28h518q15 0 22.5 -8t5.5 -24l-147 -972q-5 -29 -5 -63q0 -176 183 -176q70 0 127 23t110 59q11 7 21 7q14 0 23 -16l42 -80q5 -10 5 -17q0 -11 -10 -21q-49 -50 -144 -91t-215 -41 q-146 0 -243 75z" glyph-name="l.ss01" vert-adv-y="1980"/>
<glyph d="M980 978q61 -34 94.5 -95.5t33.5 -142.5q0 -31 -4 -58q-9 -63 -32.5 -89.5t-64.5 -26.5h-73q-18 0 -26.5 8.5t-6.5 25.5q3 26 3 47q0 63 -21.5 103.5t-55 58.5t-71.5 18q-100 0 -195.5 -118t-164.5 -303.5t-96 -377.5q-4 -28 -32 -28h-136q-32 0 -28 32l132 928 q4 30 32 30h129q30 0 27 -33l-54 -424h14q89 254 201.5 366.5t252.5 112.5q81 0 142 -34z" glyph-name="r.ss01" vert-adv-y="1980"/>
<glyph d="M243.5 42.5q-115.5 68.5 -108.5 214.5q1 14 7.5 20.5t20.5 6.5h133q25 0 27 -28q4 -66 71 -95t177 -29q124 0 199 37t75 112q0 49 -29 76.5t-77 41t-130 24.5q-124 17 -207.5 41t-139 81.5t-55.5 159.5q0 98 52.5 166.5t152 104.5t238.5 36q191 0 298.5 -69t104.5 -213 q0 -15 -7.5 -21.5t-22.5 -6.5h-121q-31 0 -34 27q-5 67 -66.5 96t-166.5 29q-113 0 -174.5 -34t-61.5 -109q0 -67 56 -98.5t165 -44.5q129 -16 216 -40.5t145 -82t58 -160.5q0 -100 -59.5 -169.5t-168 -105.5t-253.5 -36q-199 0 -314.5 68.5z" glyph-name="s.ss01" vert-adv-y="1980"/>
<glyph d="M243.5 42.5q-115.5 68.5 -108.5 214.5q1 14 7.5 20.5t20.5 6.5h133q25 0 27 -28q4 -66 71 -95t177 -29q124 0 199 37t75 112q0 49 -29 76.5t-77 41t-130 24.5q-124 17 -207.5 41t-139 81.5t-55.5 159.5q0 98 52.5 166.5t152 104.5t238.5 36q191 0 298.5 -69t104.5 -213 q0 -15 -7.5 -21.5t-22.5 -6.5h-121q-31 0 -34 27q-5 67 -66.5 96t-166.5 29q-113 0 -174.5 -34t-61.5 -109q0 -67 56 -98.5t165 -44.5q129 -16 216 -40.5t145 -82t58 -160.5q0 -100 -59.5 -169.5t-168 -105.5t-253.5 -36q-199 0 -314.5 68.5zM630 1192q-11 0 -18 4.5 t-7 12.5q0 7 6 17l152 252q8 13 17 18.5t21 5.5h117q11 0 18 -4.5t7 -12.5q0 -6 -6 -17l-152 -252q-8 -13 -17 -18.5t-21 -5.5h-117z" glyph-name="sacute.ss01" vert-adv-y="1980"/>
<glyph d="M243.5 42.5q-115.5 68.5 -108.5 214.5q1 14 7.5 20.5t20.5 6.5h133q25 0 27 -28q4 -66 71 -95t177 -29q124 0 199 37t75 112q0 49 -29 76.5t-77 41t-130 24.5q-124 17 -207.5 41t-139 81.5t-55.5 159.5q0 98 52.5 166.5t152 104.5t238.5 36q191 0 298.5 -69t104.5 -213 q0 -15 -7.5 -21.5t-22.5 -6.5h-121q-31 0 -34 27q-5 67 -66.5 96t-166.5 29q-113 0 -174.5 -34t-61.5 -109q0 -67 56 -98.5t165 -44.5q129 -16 216 -40.5t145 -82t58 -160.5q0 -100 -59.5 -169.5t-168 -105.5t-253.5 -36q-199 0 -314.5 68.5zM629 1193q-11 0 -19 3.5 t-15 12.5l-185 257q-6 9 -6 17t7.5 13.5t20.5 5.5h140q22 0 34 -16l132 -177l180 177q17 16 38 16h146q11 0 17 -4t6 -11q0 -10 -11 -21l-258 -257q-9 -9 -18 -12.5t-20 -3.5h-189z" glyph-name="scaron.ss01" vert-adv-y="1980"/>
<glyph d="M948.5 943q107.5 -69 104.5 -213q0 -15 -7.5 -21.5t-22.5 -6.5h-121q-31 0 -34 27q-5 67 -66.5 96t-166.5 29q-113 0 -174.5 -34t-61.5 -109q0 -67 56 -98.5t165 -44.5q129 -16 216 -40.5t145 -82t58 -160.5q0 -98 -57.5 -167t-162 -105.5t-244.5 -38.5l-55 -47 q63 -6 105.5 -42t42.5 -95q0 -69 -38.5 -119.5t-102 -77t-139.5 -26.5q-36 0 -72 6q-18 3 -15 22l10 71q2 9 9 15t16 5q24 -3 48 -3q59 0 97.5 20.5t38.5 60.5q0 24 -24.5 41t-62.5 17q-37 0 -78 -16q-4 -2 -10 -2q-14 0 -12 16l10 70q1 12 13 24l76 68q-144 19 -223.5 86.5 t-73.5 188.5q1 14 7.5 20.5t20.5 6.5h133q25 0 27 -28q4 -66 71 -95t177 -29q124 0 199 37t75 112q0 49 -29 76.5t-77 41t-130 24.5q-124 17 -207.5 41t-139 81.5t-55.5 159.5q0 98 52.5 166.5t152 104.5t238.5 36q191 0 298.5 -69z" glyph-name="scedilla.ss01" vert-adv-y="1980"/>
<glyph d="M243.5 42.5q-115.5 68.5 -108.5 214.5q1 14 7.5 20.5t20.5 6.5h133q25 0 27 -28q4 -66 71 -95t177 -29q124 0 199 37t75 112q0 49 -29 76.5t-77 41t-130 24.5q-124 17 -207.5 41t-139 81.5t-55.5 159.5q0 98 52.5 166.5t152 104.5t238.5 36q191 0 298.5 -69t104.5 -213 q0 -15 -7.5 -21.5t-22.5 -6.5h-121q-31 0 -34 27q-5 67 -66.5 96t-166.5 29q-113 0 -174.5 -34t-61.5 -109q0 -67 56 -98.5t165 -44.5q129 -16 216 -40.5t145 -82t58 -160.5q0 -100 -59.5 -169.5t-168 -105.5t-253.5 -36q-199 0 -314.5 68.5zM663 -165q13 0 19.5 -7.5 t4.5 -20.5l-8 -58q-18 -124 -41 -234.5t-46 -183.5q-7 -22 -35 -22h-99q-23 0 -23 20q0 6 1 10q42 204 57 334h-230q-13 0 -19.5 7.5t-5.5 20.5l16 106q1 13 10 20.5t22 7.5h377z" glyph-name="uni0219.ss01" vert-adv-y="1980"/>
<glyph d="M1115 427q11 0 16.5 -7.5t4.5 -21.5l-16 -114q-3 -25 -30 -31q-137 -32 -253 -63q20 -65 20 -142q0 -139 -64 -239.5t-172 -152.5t-237 -52q-132 0 -229 58t-97 197q0 84 46.5 153.5t164 136.5t324.5 136q-98 101 -309 101l35 180l381 261h-545q-15 0 -22.5 8t-5.5 24 l14 103q4 28 32 28h806l-33 -173l-462 -332q179 -35 276 -149q132 38 343 89q8 2 12 2zM666 141q-233 -72 -325 -135.5t-92 -131.5q0 -52 42 -78.5t113 -26.5q82 0 142.5 34.5t93.5 100.5t33 158q0 44 -7 79z" glyph-name="z.ss02" vert-adv-y="1980"/>
<glyph d="M1077 151q25 0 25 -33q0 -10 -1 -16q-9 -48 -48 -82t-95 -34q-69 0 -112.5 50t-43.5 142q0 24 3 49l19 148h-19q-88 -198 -194.5 -299.5t-242.5 -101.5q-88 0 -154 41.5t-102.5 124t-36.5 201.5q0 182 83.5 335.5t236.5 244.5t351 91q105 0 199.5 -26.5t143.5 -77.5 l-66 -475l-25 -173q-5 -35 -5 -56q0 -29 10.5 -43t37.5 -14q12 0 28 3q3 1 8 1zM646.5 262.5q92.5 109.5 153 258t84.5 267.5q-23 24 -69 34.5t-98 10.5q-130 0 -232.5 -61.5t-159 -166t-56.5 -227.5q0 -118 49 -171.5t125 -53.5q111 0 203.5 109.5z" glyph-name="a.ss05" horiz-adv-x="1197" vert-adv-y="1980"/>
<glyph d="M336 28q-117 54 -183 157.5t-66 248.5q0 144 65.5 277t194.5 217t311 84q154 0 255 -67t101 -212q0 -61 -19 -131q-7 -26 -34 -26h-112q-16 0 -22.5 9t-3.5 26q8 38 8 65q0 84 -54 118.5t-138 34.5q-117 0 -198 -57t-120.5 -143.5t-39.5 -175.5q0 -97 48 -163.5t133 -100 t196 -33.5q63 0 124.5 10t108.5 29q9 3 15 3q10 0 14.5 -7t2.5 -20l-13 -87q-3 -22 -11.5 -35.5t-25.5 -22.5q-51 -25 -122.5 -38.5t-146.5 -13.5q-151 0 -268 54z" glyph-name="c.ss05" horiz-adv-x="1129" vert-adv-y="1980"/>
<glyph d="M984 161q11 -14 11 -26q0 -14 -14 -26q-77 -69 -184.5 -102t-226.5 -33q-153 0 -262 56t-165.5 157.5t-56.5 235.5q0 158 76.5 293.5t208 215.5t290.5 80q105 0 178 -35t109 -92t36 -124q0 -284 -682 -466q32 -74 104.5 -114.5t187.5 -40.5q176 0 300 84q15 10 25 10 q14 0 23 -14zM468.5 794q-84.5 -49 -138.5 -140t-55 -211q192 59 305.5 105.5t166.5 91t53 93.5q0 46 -39.5 78t-116.5 32q-91 0 -175.5 -49z" glyph-name="e.ss05" horiz-adv-x="1120" vert-adv-y="1980"/>
<glyph d="M1044 151q25 0 25 -33q0 -10 -1 -16q-9 -48 -48 -82t-94 -34q-46 0 -84.5 21t-61.5 62t-23 98q0 29 6 60l70 359q8 39 8 80q0 79 -36.5 121t-95.5 42q-90 0 -179 -95.5t-159.5 -276.5t-105.5 -425l-1 -4q-4 -28 -32 -28h-136q-32 0 -28 32l190 1340q4 28 32 28h137 q15 0 22.5 -8.5t5.5 -23.5l-107 -750h19q87 198 194.5 296t230.5 98q73 0 131.5 -33t92 -95.5t33.5 -149.5q0 -48 -10 -98l-74 -376q-7 -38 -7 -58q0 -27 11.5 -41t38.5 -14q12 0 28 3q3 1 8 1z" glyph-name="h.ss05" horiz-adv-x="1186" vert-adv-y="1980"/>
<glyph d="M607 1256q-31 18 -49 49t-18 68t18 67.5t49 48.5t68 18t67.5 -18t48.5 -48.5t18 -67.5t-18 -68t-48.5 -49t-67.5 -18t-68 18zM1097 144q5 -10 5 -17q0 -11 -10 -21q-48 -51 -133.5 -91.5t-195.5 -40.5q-86 0 -161 30t-122.5 98.5t-47.5 178.5q0 51 10 105l57 317 q-46 -33 -108 -51t-132 -18q-93 0 -151 27q-23 10 -19 37l17 109q4 28 26 28l12 -2q56 -14 117 -14q106 0 181.5 40t102.5 106q5 13 13 19t21 6h131q16 0 22.5 -9t3.5 -24l-100 -579q-6 -33 -6 -61q0 -88 49 -127t120 -39q59 0 109 22.5t102 59.5q12 9 21 9q14 0 24 -18z " glyph-name="i.ss05" horiz-adv-x="1179" vert-adv-y="1980"/>
<glyph d="M1043 145q5 -10 5 -17q0 -11 -10 -21q-30 -30 -84.5 -60.5t-130 -51.5t-160.5 -21q-96 0 -176 31.5t-130.5 107t-50.5 198.5q0 42 8 100l6 41l-230 -80q-14 -5 -22 5.5t-6 26.5l17 116q4 26 33 36l235 81l72 486q28 194 132 277t245 83q109 0 184.5 -44t113 -119.5 t37.5 -169.5q0 -108 -52 -219t-173 -212.5t-316 -169.5l-64 -22l-20 -131q-5 -35 -5 -59q0 -100 57.5 -143t143.5 -43q130 0 255 83q11 7 21 7q14 0 23 -16zM676.5 1256.5q-47.5 -49.5 -65.5 -170.5l-57 -376q204 78 295.5 191t91.5 236q0 80 -35.5 124.5t-109.5 44.5 q-72 0 -119.5 -49.5z" glyph-name="l.ss05" horiz-adv-x="1200" vert-adv-y="1980"/>
<glyph d="M1046 27q-34 41 -34 113q0 23 5 56l61 392q9 60 9 102q0 139 -85 139q-62 0 -112 -82t-94.5 -257t-89.5 -462q-4 -28 -32 -28h-103q-32 0 -28 32l80 556q7 49 7 92q0 78 -24 113.5t-65 35.5q-61 0 -111 -82t-95.5 -257t-92.5 -462q-4 -28 -32 -28h-114q-15 0 -22.5 8 t-5.5 24l132 928q4 30 32 30h109q15 0 21.5 -8.5t4.5 -24.5l-50 -320h12q93 375 288 375q74 0 120.5 -59.5t46.5 -189.5q0 -59 -10 -126h11q88 375 296 375q90 0 142 -64.5t52 -192.5q0 -58 -10 -121l-60 -390q-4 -25 -4 -48q0 -53 31 -53q7 0 11 1q14 3 21.5 -4.5 t7.5 -23.5q0 -10 -1 -16q-8 -48 -39 -81t-90 -33q-62 0 -96 41z" glyph-name="m.ss05" horiz-adv-x="1390" vert-adv-y="1980"/>
<glyph d="M1044 151q25 0 25 -33q0 -10 -1 -16q-9 -48 -48 -82t-94 -34q-46 0 -84.5 21t-61.5 62t-23 98q0 29 6 60l70 359q8 39 8 80q0 79 -36.5 121t-95.5 42q-90 0 -179.5 -96t-160 -277.5t-105.5 -427.5q-4 -28 -32 -28h-136q-32 0 -28 32l132 928q4 30 32 30h129q30 0 27 -33 l-40 -339h19q173 394 425 394q73 0 131.5 -33t92 -95.5t33.5 -149.5q0 -48 -10 -98l-74 -376q-7 -38 -7 -58q0 -27 11.5 -41t38.5 -14q12 0 28 3q3 1 8 1z" glyph-name="n.ss05" horiz-adv-x="1186" vert-adv-y="1980"/>
<glyph d="M311 34.5q-105 60.5 -163.5 168.5t-58.5 246q0 157 74 286t200 203t274 74q134 0 239 -60t164 -168t59 -247q0 -157 -74 -286t-200 -203t-275 -74q-134 0 -239 60.5zM735 203q80 47 126.5 132t46.5 193q0 94 -35.5 162t-99 104t-145.5 36q-95 0 -174.5 -47t-126 -132 t-46.5 -193q0 -93 35.5 -161.5t98.5 -104.5t145 -36q95 0 175 47z" glyph-name="o.ss05" horiz-adv-x="1189" vert-adv-y="1980"/>
<glyph d="M1207 207q14 -11 14 -27q0 -7 -3 -16q-34 -83 -105 -136.5t-163 -53.5q-65 0 -116.5 28.5t-81 83t-29.5 128.5q0 32 6 66l74 448q-56 -38 -135.5 -60t-169.5 -22q-67 0 -119 12l-51 -253q-6 -28 -32 -28h-130q-15 0 -22.5 8.5t-4.5 23.5l69 344q-50 62 -50 139 q0 48 19.5 89.5t55 66t79.5 24.5q48 0 79 -28t31 -71q0 -37 -22.5 -64t-57.5 -28q7 -28 48 -45t117 -17q79 0 150 19.5t120 53t66 73.5q5 13 13 19t21 6h133q15 0 22 -9t5 -24l-112 -659q-6 -42 -6 -60q0 -87 65 -87q38 0 65.5 25t55.5 74q8 14 20 14q9 0 20 -8z" glyph-name="r.ss05" horiz-adv-x="1266" vert-adv-y="1980"/>
<glyph d="M836 1013q0 -70 15.5 -129.5t38 -105.5t59.5 -108q33 -57 52.5 -95.5t32.5 -86t13 -100.5q0 -126 -73.5 -220t-197 -144t-269.5 -50q-135 0 -233.5 42t-149.5 112t-51 154q0 32 5 54q6 25 34 25h131q29 0 27 -31q-3 -51 29 -90.5t91 -62t135 -22.5q90 0 165 31.5 t118.5 91t43.5 140.5q0 56 -18.5 100.5t-57.5 110.5q-39 65 -60.5 115.5t-28.5 114.5l-268 -302q-18 -19 -40 -19q-33 0 -73 37q-38 35 -38 70q0 21 17 40l291 311q16 17 36 17h224z" glyph-name="s.ss05" horiz-adv-x="1156" vert-adv-y="1980"/>
<glyph d="M229.5 1q-54.5 27 -86.5 82t-32 136q0 35 6 74l71 437q6 44 6 57q0 28 -11 42t-38 14q-12 0 -28 -3q-3 -1 -8 -1q-25 0 -25 33q0 10 1 16q9 49 49 82.5t98 33.5q69 0 111.5 -46.5t42.5 -132.5q0 -34 -5 -62l-75 -460q-3 -21 -3 -40q0 -51 25.5 -77t74.5 -26q59 0 98.5 36 t49.5 101l96 665q4 28 32 28h114q16 0 24.5 -8t6.5 -24l-99 -666q-3 -18 -3 -34q0 -46 21 -71.5t60 -25.5q81 0 139.5 110t89 293t30.5 396q0 15 8 22.5t22 7.5h124q14 0 22 -7.5t8 -22.5q0 -267 -46.5 -491t-144 -359.5t-242.5 -135.5q-79 0 -133 41t-58 121h-20 q-39 -85 -106 -123.5t-145 -38.5q-67 0 -121.5 27z" glyph-name="w.ss05" horiz-adv-x="1293" vert-adv-y="1980"/>
<glyph d="M478 725q-70 43 -108.5 117.5t-38.5 165.5q0 108 52 200.5t141 147t193 54.5q73 0 133 -29.5t92 -88.5l35 108h126l-102 -718h-122l-6 107q-42 -54 -103.5 -80.5t-130.5 -26.5q-91 0 -161 43zM795 858.5q57 33.5 90.5 89.5t33.5 122q0 57 -26 102t-71 70.5t-101 25.5 q-66 0 -123 -34t-90.5 -91t-33.5 -122q0 -56 26 -101t71.5 -70t101.5 -25q65 0 122 33.5z" glyph-name="ordfeminine" unicode="ª" vert-adv-y="1980"/>
<glyph d="M485.5 724.5q-74.5 42.5 -116.5 116.5t-42 165q0 107 56.5 200t150 148.5t200.5 55.5q93 0 167 -42.5t116 -116.5t42 -165q0 -107 -56 -200t-149.5 -148.5t-200.5 -55.5q-93 0 -167.5 42.5zM789.5 859q58.5 34 93.5 91t35 123q0 56 -25.5 100.5t-71 69.5t-101.5 25 q-66 0 -123.5 -34.5t-91.5 -92t-34 -122.5q0 -56 25.5 -100t70 -69t99.5 -25q65 0 123.5 34z" glyph-name="ordmasculine" unicode="º" vert-adv-y="1980"/>
<glyph d="M325 682q-14 0 -13 15l97 688q2 15 17 15h113q7 0 10.5 -4t2.5 -11l-30 -208h11q43 126 122.5 185.5t176.5 59.5q96 0 153 -56.5t57 -167.5q0 -27 -5 -67l-61 -433q-1 -16 -17 -16h-113q-14 0 -13 16l56 397q4 25 4 54q0 72 -32 109t-90 37q-99 0 -184 -130.5 t-132 -467.5q-1 -15 -17 -15h-113z" glyph-name="uni207F" unicode="ⁿ" vert-adv-y="1980"/>
<glyph d="M1092 34q2 -15 -5.5 -24.5t-23.5 -9.5h-146q-26 0 -30 24l-38 259h-527l-111 -259q-12 -24 -38 -24h-146q-11 0 -17 5t-6 13t4 16l560 1282q5 12 15.5 18t23.5 6h254q13 0 21.5 -6t9.5 -18zM683 1128l-285 -666h425l-98 666h-42z" glyph-name="uni0410" unicode="А" vert-adv-y="1980"/>
<glyph d="M710 888q145 0 234 -37.5t128.5 -110.5t39.5 -185q0 -56 -9 -122q-21 -149 -75 -243t-159 -142t-274 -48h-474q-32 0 -28 32l180 1280q4 28 32 28h691q32 0 28 -32l-17 -126q-4 -28 -32 -28h-518l-38 -266h291zM914 528q0 70 -26.5 108t-78 52t-136.5 14h-281l-72 -516 h272q97 0 160 22.5t102 81t54 165.5q6 41 6 73z" glyph-name="uni0411" unicode="Б" vert-adv-y="1980"/>
<glyph d="M859 715q128 -21 186.5 -95.5t58.5 -203.5q0 -210 -141 -313t-401 -103h-469q-13 0 -20.5 8t-5.5 22l180 1280q2 14 12 22t26 8h451q189 0 272.5 -77.5t83.5 -204.5q0 -79 -29 -146t-81 -113t-120 -64zM431 1154l-50 -354h260q116 0 183 55.5t67 152.5q0 78 -47.5 112 t-152.5 34h-260zM588 186q154 0 232 56t78 181q0 102 -58.5 152t-189.5 50h-293l-62 -439h293z" glyph-name="uni0412" unicode="В" vert-adv-y="1980"/>
<glyph d="M134 0q-32 0 -28 32l180 1280q4 28 32 28h847q32 0 28 -32l-18 -126q-4 -28 -32 -28h-673l-158 -1126q-4 -28 -32 -28h-146z" glyph-name="uni0413" unicode="Г" vert-adv-y="1980"/>
<glyph d="M134 0q-32 0 -28 32l180 1280q4 28 32 28h847q32 0 28 -32l-18 -126q-4 -28 -32 -28h-673l-158 -1126q-4 -28 -32 -28h-146zM703 1542q-11 0 -18 4.5t-7 12.5q0 7 6 17l152 252q8 13 17 18.5t21 5.5h117q11 0 18 -4.5t7 -12.5q0 -6 -6 -17l-152 -252q-8 -13 -17 -18.5 t-21 -5.5h-117z" glyph-name="uni0403" unicode="Ѓ" vert-adv-y="1980"/>
<glyph d="M134 0q-32 0 -28 32l180 1280q4 28 32 28h693l18 124q4 28 32 28h126q32 0 28 -32l-40 -278q-4 -28 -32 -28h-673l-158 -1126q-4 -28 -32 -28h-146z" glyph-name="uni0490" unicode="Ґ" vert-adv-y="1980"/>
<glyph d="M-21 -138q-32 0 -28 32l38 264q4 28 32 28h29q89 0 136 57t66 189l124 880q4 28 32 28h720q32 0 28 -32l-159 -1122h122q32 0 28 -32l-37 -264q-4 -28 -32 -28h-133q-15 0 -22.5 8.5t-5.5 23.5l16 106h-774l-15 -110q-4 -28 -32 -28h-133zM792 186l136 968h-369 l-103 -732q-14 -97 -39 -152.5t-72 -83.5h447z" glyph-name="uni0414" unicode="Д" vert-adv-y="1980"/>
<glyph d="M121 0q-13 0 -20 8.5t-5 21.5l180 1280q1 13 10.5 21.5t23.5 8.5h846q13 0 20.5 -8t5.5 -22l-18 -126q-2 -14 -11.5 -22t-22.5 -8h-670l-54 -380h626q13 0 20.5 -8t5.5 -22l-18 -126q-2 -14 -11.5 -22t-22.5 -8h-626l-57 -402h673q13 0 20 -8.5t5 -21.5l-17 -126 q-2 -14 -11.5 -22t-23.5 -8h-848z" glyph-name="uni0415" unicode="Е" vert-adv-y="1980"/>
<glyph d="M121 0q-13 0 -20 8.5t-5 21.5l180 1280q1 13 10.5 21.5t23.5 8.5h846q13 0 20.5 -8t5.5 -22l-18 -126q-2 -14 -11.5 -22t-22.5 -8h-670l-54 -380h626q13 0 20.5 -8t5.5 -22l-18 -126q-2 -14 -11.5 -22t-22.5 -8h-626l-57 -402h673q13 0 20 -8.5t5 -21.5l-17 -126 q-2 -14 -11.5 -22t-23.5 -8h-848zM519 1669.5q-32 31.5 -32 76.5q0 43 32 74.5t76 31.5t75.5 -31.5t31.5 -74.5q0 -45 -31.5 -76.5t-75.5 -31.5t-76 31.5zM913 1669.5q-32 31.5 -32 76.5q0 43 32 74.5t76 31.5t75.5 -31.5t31.5 -74.5q0 -45 -31.5 -76.5t-75.5 -31.5 t-76 31.5z" glyph-name="uni0401" unicode="Ё" vert-adv-y="1980"/>
<glyph d="M1252 1340q21 0 21 -13q0 -8 -10 -23l-378 -559l228 -709q3 -7 3 -15q0 -9 -6.5 -15t-19.5 -6h-125q-28 0 -33 18l-168 549l-61 -90l-63 -447q-2 -14 -11.5 -22t-23.5 -8h-117q-13 0 -20 8t-5 22l62 438l-38 95l-316 -545q-10 -18 -39 -18h-132q-21 0 -21 15q0 8 8 21 l429 708l-221 560q-4 12 -4 17q0 19 25 19h130q26 0 33 -16l189 -551l75 537q2 14 11.5 22t22.5 8h117q14 0 21 -8.5t5 -21.5l-74 -527l334 541q11 16 37 16h135z" glyph-name="uni0416" unicode="Ж" vert-adv-y="1980"/>
<glyph d="M298 13.5q-99 39.5 -151 113.5t-52 175q0 31 4 58q2 14 11 22t22 8h132q31 0 28 -27q-1 -8 -1 -24q0 -88 69.5 -140t193.5 -52q93 0 167 30t119.5 84t55.5 125q2 11 2 33q0 98 -88 154.5t-265 56.5q-28 0 -25 29l13 93q2 13 10.5 21.5t23.5 8.5q133 0 217.5 33.5 t122.5 87.5t38 117q0 79 -65.5 124t-174.5 45q-84 0 -150 -27t-107 -76t-52 -114q-4 -27 -36 -27h-131q-13 0 -20 8t-5 22q17 118 85.5 205t180 134t253.5 47q125 0 219 -36.5t146 -103.5t52 -156q0 -21 -3 -44q-15 -103 -88 -180t-190 -116l-4 -19q115 -30 181 -102.5 t66 -182.5q0 -29 -4 -54q-17 -118 -91.5 -207t-196.5 -137.5t-275 -48.5q-138 0 -237 39.5z" glyph-name="uni0417" unicode="З" vert-adv-y="1980"/>
<glyph d="M1185.5 1332q7.5 -8 5.5 -22l-180 -1280q-2 -14 -11.5 -22t-23.5 -8h-128q-13 0 -20 8.5t-5 21.5l142 1013l-632 -1023q-11 -20 -39 -20h-180q-13 0 -20 8t-5 22l180 1280q1 13 10.5 21.5t23.5 8.5h128q13 0 20.5 -8t5.5 -22l-142 -1008l629 1018q13 20 39 20h182 q13 0 20.5 -8z" glyph-name="uni0418" unicode="И" vert-adv-y="1980"/>
<glyph d="M625 1649q-62 35 -93 95.5t-28 135.5q2 30 34 30h74q26 0 28 -28q5 -55 43.5 -92t106.5 -37q66 0 110.5 36t65.5 93q11 28 36 28h82q25 0 25 -20q0 -6 -1 -10q-18 -76 -63 -136t-114 -95t-156 -35q-88 0 -150 35zM1185.5 1332q7.5 -8 5.5 -22l-180 -1280 q-2 -14 -11.5 -22t-23.5 -8h-128q-13 0 -20 8.5t-5 21.5l142 1013l-632 -1023q-11 -20 -39 -20h-180q-13 0 -20 8t-5 22l180 1280q1 13 10.5 21.5t23.5 8.5h128q13 0 20.5 -8t5.5 -22l-142 -1008l629 1018q13 20 39 20h182q13 0 20.5 -8z" glyph-name="uni0419" unicode="Й" vert-adv-y="1980"/>
<glyph d="M1210 1340q11 0 17 -4t6 -10q0 -10 -12 -22l-559 -578l411 -690q5 -10 5 -15q0 -10 -7.5 -15.5t-20.5 -5.5h-161q-12 0 -19.5 4t-13.5 14l-337 561l-204 -211l-48 -338q-2 -14 -11.5 -22t-22.5 -8h-146q-14 0 -21 8.5t-5 21.5l180 1280q2 14 11.5 22t22.5 8h146 q14 0 21 -8.5t5 -21.5l-92 -657l636 671q16 16 38 16h181z" glyph-name="uni041A" unicode="К" vert-adv-y="1980"/>
<glyph d="M2 13l-23 139q-2 13 4 20t17 7q96 0 154.5 64t76.5 189l124 880q4 28 32 28h785q32 0 28 -32l-180 -1280q-4 -28 -32 -28h-145q-32 0 -28 32l158 1122h-434l-108 -760q-29 -202 -131.5 -303t-266.5 -101q-27 0 -31 23z" glyph-name="uni041B" unicode="Л" vert-adv-y="1980"/>
<glyph d="M93 0q-14 0 -21 8.5t-5 21.5l180 1280q2 14 11.5 22t22.5 8h167q13 0 23 -5t11 -15l104 -994h12l384 994q4 10 14.5 15t23.5 5h167q14 0 21 -8.5t5 -21.5l-180 -1280q-2 -14 -11.5 -22t-22.5 -8h-116q-14 0 -21 8.5t-5 21.5l125 884h-13l-315 -791q-4 -11 -14.5 -17 t-23.5 -6h-112q-13 0 -21.5 6t-9.5 17l-93 791h-12l-125 -884q-2 -14 -11.5 -22t-22.5 -8h-116z" glyph-name="uni041C" unicode="М" vert-adv-y="1980"/>
<glyph d="M1172 1340q14 0 21 -8.5t5 -21.5l-180 -1280q-2 -14 -11.5 -22t-23.5 -8h-146q-13 0 -20 8.5t-5 21.5l76 540h-524l-76 -540q-2 -13 -11.5 -21.5t-23.5 -8.5h-146q-13 0 -20 8.5t-5 21.5l180 1280q2 14 11.5 22t22.5 8h146q14 0 21 -8.5t5 -21.5l-78 -554h524l78 554 q2 14 11.5 22t22.5 8h146z" glyph-name="uni041D" unicode="Н" vert-adv-y="1980"/>
<glyph d="M323 31q-91 61 -137.5 174.5t-46.5 270.5q0 89 15 189q33 213 108.5 369t193.5 241t275 85q132 0 223.5 -61t138 -175t46.5 -271q0 -87 -15 -188q-33 -213 -108.5 -369t-194 -241t-275.5 -85q-132 0 -223 61zM724.5 226q71.5 58 123 170t76.5 269q12 83 12 153 q0 109 -28 186.5t-79.5 117.5t-119.5 40q-85 0 -156.5 -58t-122.5 -170t-76 -269q-13 -81 -13 -155q0 -108 28.5 -185t80 -117t119.5 -40q84 0 155.5 58z" glyph-name="uni041E" unicode="О" vert-adv-y="1980"/>
<glyph d="M124 0q-32 0 -28 32l180 1280q4 28 32 28h847q32 0 28 -32l-180 -1280q-4 -28 -32 -28h-146q-32 0 -28 32l158 1122h-495l-158 -1126q-4 -28 -32 -28h-146z" glyph-name="uni041F" unicode="П" vert-adv-y="1980"/>
<glyph d="M751 1340q222 0 328 -90.5t106 -261.5q0 -48 -7 -94q-30 -215 -165.5 -330.5t-386.5 -115.5h-234l-58 -418q-2 -14 -11.5 -22t-22.5 -8h-146q-14 0 -21 8.5t-5 21.5l180 1280q2 14 11.5 22t22.5 8h409zM633 634q156 0 241 58t106 202q5 37 5 61q0 109 -70 154t-209 45 h-214l-73 -520h214z" glyph-name="uni0420" unicode="Р" vert-adv-y="1980"/>
<glyph d="M1015 80q-3 -22 -12 -35.5t-26 -22.5q-50 -25 -118 -38.5t-142 -13.5q-166 0 -290 69t-192 204t-68 325q0 193 70 375t210.5 299.5t341.5 117.5q145 0 240.5 -67.5t95.5 -213.5q0 -64 -20 -138q-6 -26 -33 -26h-130q-16 0 -22.5 9t-3.5 26q9 42 9 75q0 138 -155 138 q-131 0 -221.5 -88.5t-134.5 -221t-44 -263.5q0 -139 51 -233.5t143.5 -141.5t217.5 -47q55 0 111 9t102 25q9 3 15 3q10 0 14.5 -7t3.5 -20z" glyph-name="uni0421" unicode="С" vert-adv-y="1980"/>
<glyph d="M473 0q-13 0 -20.5 8t-5.5 22l159 1124h-377q-13 0 -20.5 8t-5.5 22l18 126q2 14 11.5 22t22.5 8h958q13 0 20.5 -8t5.5 -22l-18 -126q-2 -14 -11.5 -22t-22.5 -8h-376l-158 -1124q-1 -13 -10.5 -21.5t-23.5 -8.5h-146z" glyph-name="uni0422" unicode="Т" vert-adv-y="1980"/>
<glyph d="M1261 1340q23 0 23 -16q0 -9 -8 -20l-880 -1284q-13 -20 -39 -20h-157q-11 0 -17 4t-6 11q0 8 8 21l321 468l-324 800q-3 8 -3 13q0 11 7.5 17t20.5 6h151q26 0 33 -20l248 -623l427 623q13 20 39 20h156z" glyph-name="uni0423" unicode="У" vert-adv-y="1980"/>
<glyph d="M816 1204q201 0 292.5 -109t91.5 -293q0 -57 -10 -132q-34 -238 -161 -385.5t-363 -147.5h-6l-15 -107q-2 -14 -11.5 -22t-23.5 -8h-130q-13 0 -20 8t-5 22l15 107h-7q-201 0 -292 109t-91 293q0 56 10 131q33 239 159.5 386.5t363.5 147.5h7l15 106q2 14 11.5 22t22.5 8 h130q14 0 21 -8.5t5 -21.5l-15 -106h6zM496 322l98 696h-7q-97 0 -159 -41t-95 -117t-49 -190q-10 -73 -10 -120q0 -113 50 -170.5t165 -57.5h7zM1005 789q0 113 -49.5 171t-165.5 58h-6l-98 -696h7q143 0 211.5 87.5t91.5 260.5q9 65 9 119z" glyph-name="uni0424" unicode="Ф" vert-adv-y="1980"/>
<glyph d="M1220 1340q11 0 17.5 -4.5t6.5 -11.5q0 -8 -9 -20l-483 -621l322 -647q4 -7 4 -14q0 -10 -7.5 -16t-21.5 -6h-154q-24 0 -33 20l-244 490l-382 -490q-16 -20 -39 -20h-154q-11 0 -17.5 4t-6.5 12t9 20l504 647l-310 621q-4 10 -4 14q0 10 7.5 16t21.5 6h154q25 0 34 -20 l231 -465l362 465q14 20 38 20h154z" glyph-name="uni0425" unicode="Х" vert-adv-y="1980"/>
<glyph d="M1210 1340q13 0 20.5 -8t5.5 -22l-180 -1280q-2 -13 -11.5 -21.5t-23.5 -8.5h-146q-13 0 -20 8t-5 22l63 448q-76 -79 -179 -123.5t-224 -44.5q-113 0 -197 39t-130 115.5t-46 187.5q0 41 6 84l81 574q1 13 10.5 21.5t23.5 8.5h146q13 0 20.5 -8t5.5 -22l-76 -534 q-3 -24 -3 -47q0 -104 67.5 -162t191.5 -58q91 0 164 31.5t120 90t60 137.5l76 542q1 13 10.5 21.5t23.5 8.5h146z" glyph-name="uni0427" unicode="Ч" vert-adv-y="1980"/>
<glyph d="M1127 1340q32 0 28 -32l-158 -1122h110q32 0 28 -32l-38 -264q-4 -28 -32 -28h-135q-15 0 -22.5 8.5t-5.5 23.5l16 106h-782q-32 0 -28 32l180 1280q4 28 32 28h146q32 0 28 -32l-159 -1122h457l158 1126q4 28 32 28h145z" glyph-name="uni0426" unicode="Ц" vert-adv-y="1980"/>
<glyph d="M80 0q-32 0 -28 32l179 1280q4 28 32 28h125q32 0 28 -32l-158 -1122h221l158 1126q4 28 32 28h124q32 0 28 -32l-158 -1122h221l158 1126q4 28 32 28h125q32 0 28 -32l-179 -1280q-4 -28 -32 -28h-936z" glyph-name="uni0428" unicode="Ш" vert-adv-y="1980"/>
<glyph d="M1159 1340q32 0 28 -32l-158 -1122h78q32 0 28 -32l-38 -264q-4 -28 -32 -28h-135q-15 0 -22.5 8.5t-5.5 23.5l16 106h-837q-32 0 -28 32l179 1280q4 28 32 28h125q32 0 28 -32l-158 -1122h201l158 1126q4 28 32 28h124q32 0 28 -32l-158 -1122h201l157 1126q4 28 32 28 h125z" glyph-name="uni0429" unicode="Щ" vert-adv-y="1980"/>
<glyph d="M121 0q-32 0 -28 32l180 1280q4 28 32 28h146q15 0 22.5 -8t5.5 -24l-61 -420h291q216 0 310 -82t94 -250q0 -50 -10 -123q-20 -149 -74.5 -243t-159 -142t-274.5 -48h-474zM603 186q95 0 154 19.5t97.5 78t54.5 171.5q6 44 6 77q0 73 -27.5 110t-77.5 48.5t-135 11.5 h-283l-72 -516h283z" glyph-name="uni042C" unicode="Ь" vert-adv-y="1980"/>
<glyph d="M733 888q216 0 310 -82t94 -250q0 -50 -10 -123q-20 -149 -74.5 -243t-159 -142t-274.5 -48h-474q-32 0 -28 32l158 1122h-106q-15 0 -22.5 8t-5.5 24l18 126q4 28 32 28h284q15 0 22.5 -8t5.5 -24l-61 -420h291zM939 532q0 73 -27.5 110t-77.5 48.5t-135 11.5h-283 l-72 -516h283q95 0 154 19.5t97.5 78t54.5 171.5q6 44 6 77z" glyph-name="uni042A" unicode="Ъ" vert-adv-y="1980"/>
<glyph d="M29 0q-32 0 -28 32l180 1280q4 28 32 28h140q15 0 22.5 -8t5.5 -24l-59 -420h153q200 0 284.5 -80.5t84.5 -240.5q0 -65 -10 -134q-21 -146 -69 -239.5t-145.5 -143.5t-260.5 -50h-330zM926 0q-32 0 -28 32l180 1280q4 28 32 28h140q32 0 28 -32l-180 -1280 q-4 -28 -32 -28h-140zM376 186q87 0 137 21.5t80 79t45 168.5q8 52 8 100q0 61 -19 92.5t-59 43t-110 11.5h-163l-73 -516h154z" glyph-name="uni042B" unicode="Ы" vert-adv-y="1980"/>
<glyph d="M1030.5 1292.5q95.5 -67.5 95.5 -213.5q0 -64 -20 -138q-6 -26 -33 -26h-131q-26 0 -26 24q0 7 1 11q9 42 9 74q0 139 -155 139q-110 0 -191.5 -63.5t-130 -164t-67.5 -216.5h445q13 0 20 -8t5 -22l-11 -83q-1 -13 -11 -21.5t-24 -8.5h-435q2 -135 53.5 -226 t143.5 -136.5t215 -45.5q55 0 110.5 9t102.5 25q9 3 15 3q10 0 14.5 -7t3.5 -20l-14 -98q-2 -22 -11 -35.5t-26 -22.5q-51 -25 -119 -38.5t-141 -13.5q-166 0 -290 69t-192 204t-68 325q0 193 69.5 375t210.5 299.5t342 117.5q145 0 240.5 -67.5z" glyph-name="uni0404" unicode="Є" vert-adv-y="1980"/>
<glyph d="M850 1291q124 -69 192 -203.5t68 -325.5q0 -193 -69.5 -375t-210.5 -299.5t-342 -117.5q-145 0 -240.5 67.5t-95.5 213.5q0 60 20 138q7 26 34 26h130q16 0 22.5 -9t3.5 -26q-9 -43 -9 -75q0 -138 154 -138q104 0 183.5 57t129 149.5t71.5 202.5h-427q-13 0 -20 8t-5 22 l12 83q1 13 11 21.5t24 8.5h422v21q0 139 -51 233.5t-143.5 141.5t-218.5 47q-54 0 -110 -9t-103 -25q-8 -3 -15 -3q-9 0 -13.5 7t-3.5 20l13 98q3 22 11.5 35.5t25.5 22.5q51 25 119 38.5t141 13.5q166 0 290 -69z" glyph-name="uni042D" unicode="Э" vert-adv-y="1980"/>
<glyph d="M98 0q-13 0 -22.5 11t-7.5 25l18 125q2 14 9 19.5t20 5.5h354l136 968h-345q-13 0 -22.5 11t-7.5 25l18 126q2 13 8.5 18.5t20.5 5.5h904q13 0 22.5 -11t7.5 -25l-18 -125q-1 -13 -8 -19t-21 -6h-353l-137 -968h345q13 0 22.5 -11t7.5 -25l-18 -126q-1 -13 -8 -18.5 t-21 -5.5h-904z" glyph-name="uni0406" unicode="І" vert-adv-y="1980"/>
<glyph d="M98 0q-13 0 -22.5 11t-7.5 25l18 125q2 14 9 19.5t20 5.5h354l136 968h-345q-13 0 -22.5 11t-7.5 25l18 126q2 13 8.5 18.5t20.5 5.5h904q13 0 22.5 -11t7.5 -25l-18 -125q-1 -13 -8 -19t-21 -6h-353l-137 -968h345q13 0 22.5 -11t7.5 -25l-18 -126q-1 -13 -8 -18.5 t-21 -5.5h-904zM519 1669.5q-32 31.5 -32 76.5q0 43 32 74.5t76 31.5t75.5 -31.5t31.5 -74.5q0 -45 -31.5 -76.5t-75.5 -31.5t-76 31.5zM913 1669.5q-32 31.5 -32 76.5q0 43 32 74.5t76 31.5t75.5 -31.5t31.5 -74.5q0 -45 -31.5 -76.5t-75.5 -31.5t-76 31.5z" glyph-name="uni0407" unicode="Ї" vert-adv-y="1980"/>
<glyph d="M1056.5 1319q72.5 -37 111 -127t38.5 -246q0 -114 -23 -281q-38 -270 -105 -420.5t-163.5 -210.5t-236.5 -60q-111 0 -182.5 37t-109 126t-37.5 242q0 87 14 210h-100l-79 -559q-2 -13 -11.5 -21.5t-23.5 -8.5h-122q-26 0 -21 30l180 1280q2 14 9.5 22t20.5 8h122 q13 0 20.5 -8t5.5 -22l-77 -547h101q40 228 105 357.5t156.5 182.5t222.5 53q112 0 184.5 -37zM1020 898q0 103 -21.5 159.5t-59 77t-92.5 20.5q-72 0 -125 -37t-95.5 -144t-70.5 -309q-20 -136 -20 -235q0 -102 21.5 -158t59 -76.5t92.5 -20.5q72 0 125 37t96 144.5 t71 308.5q19 137 19 233z" glyph-name="uni042E" unicode="Ю" vert-adv-y="1980"/>
<glyph d="M1163 1340q32 0 28 -32l-180 -1280q-4 -28 -32 -28h-146q-32 0 -28 32l59 420h-189l-380 -434q-8 -10 -16 -14t-20 -4h-163q-12 0 -19.5 5t-7.5 13t9 18l378 426q-146 24 -215 110.5t-69 229.5q0 46 8 105q31 215 153.5 324t365.5 109h464zM891 638l72 516h-269 q-95 0 -159 -22.5t-104 -80.5t-55 -162q-5 -32 -5 -70q0 -70 27.5 -109.5t79.5 -55.5t134 -16h279z" glyph-name="uni042F" unicode="Я" vert-adv-y="1980"/>
<glyph d="M1107 151q25 0 25 -33q0 -10 -1 -16q-9 -48 -48 -82t-95 -34q-69 0 -112.5 50t-43.5 142q0 24 3 49l19 148h-19q-88 -198 -194.5 -299.5t-242.5 -101.5q-88 0 -154 41.5t-102.5 124t-36.5 201.5q0 182 83.5 335.5t236.5 244.5t351 91q105 0 199.5 -26.5t143.5 -77.5 l-66 -475l-25 -173q-5 -35 -5 -56q0 -29 10.5 -43t37.5 -14q12 0 28 3q3 1 8 1zM676.5 262.5q92.5 109.5 153 258t84.5 267.5q-23 24 -69 34.5t-98 10.5q-130 0 -232.5 -61.5t-159 -166t-56.5 -227.5q0 -118 49 -171.5t125 -53.5q111 0 203.5 109.5z" glyph-name="uni0430" unicode="а" vert-adv-y="1980"/>
<glyph d="M236.5 2q-96.5 28 -146.5 80l139 990q24 171 109.5 249.5t250.5 78.5h264q69 0 95.5 9.5t34.5 31.5h171q-20 -89 -55 -133.5t-91.5 -60t-154.5 -15.5h-216q-104 0 -153 -44.5t-63 -145.5l-58 -431h12q87 195 200.5 298t252.5 103q89 0 154.5 -42t101 -124.5t35.5 -201.5 q0 -182 -85.5 -335.5t-240.5 -244t-353 -90.5q-107 0 -203.5 28zM705 214q105 61 163.5 164.5t58.5 226.5q0 118 -49.5 173t-125.5 55q-114 0 -210 -109.5t-159 -258t-87 -267.5q23 -24 69.5 -34.5t101.5 -10.5q133 0 238 61z" glyph-name="uni0431" unicode="б" vert-adv-y="1980"/>
<glyph d="M113 0q-13 0 -20 8t-5 22l130 930q2 14 11.5 22t23.5 8h535q96 0 166 -27t107 -76.5t37 -114.5q0 -22 -2 -34q-11 -76 -61 -129.5t-131 -68.5l-3 -20q102 -12 156 -66t54 -137q0 -24 -2 -36q-12 -83 -69.5 -146.5t-159.5 -99t-242 -35.5h-525zM709 596q104 0 148.5 31 t52.5 87q2 14 2 21q0 41 -35 65.5t-124 24.5h-356l-32 -229h344zM675 165q128 0 183.5 37t64.5 100q2 16 2 23q0 123 -222 123h-359l-39 -283h370z" glyph-name="uni0432" unicode="в" vert-adv-y="1980"/>
<glyph d="M139 0q-13 0 -20 8t-5 22l130 930q2 13 12 21.5t23 8.5h832q13 0 20 -8.5t5 -21.5l-14 -105q-2 -14 -11.5 -22t-22.5 -8h-665l-111 -795q-2 -14 -11.5 -22t-23.5 -8h-138z" glyph-name="uni0433" unicode="г" vert-adv-y="1980"/>
<glyph d="M139 0q-13 0 -20 8t-5 22l130 930q2 13 12 21.5t23 8.5h832q13 0 20 -8.5t5 -21.5l-14 -105q-2 -14 -11.5 -22t-22.5 -8h-665l-111 -795q-2 -14 -11.5 -22t-23.5 -8h-138zM652 1192q-11 0 -18 4.5t-7 12.5q0 7 6 17l152 252q8 13 17 18.5t21 5.5h117q11 0 18 -4.5 t7 -12.5q0 -6 -6 -17l-152 -252q-8 -13 -17 -18.5t-21 -5.5h-117z" glyph-name="uni0453" unicode="ѓ" vert-adv-y="1980"/>
<glyph d="M1124 1104q15 0 22.5 -8t5.5 -24l-30 -217q-2 -14 -11.5 -22t-22.5 -8h-665l-111 -795q-2 -14 -11.5 -22t-23.5 -8h-138q-13 0 -20 8t-5 22l130 930q2 13 12 21.5t23 8.5h663l12 86q4 28 32 28h138z" glyph-name="uni0491" unicode="ґ" vert-adv-y="1980"/>
<glyph d="M1109 990q14 0 20.5 -8t4.5 -22l-111 -795h79q14 0 21 -8.5t5 -21.5l-34 -247q-2 -14 -11.5 -22t-22.5 -8h-127q-13 0 -20.5 8t-5.5 22l16 112h-756l-15 -112q-1 -13 -10.5 -21.5t-23.5 -8.5h-126q-14 0 -21 8.5t-5 21.5l37 264q2 12 7 17t16 5q98 0 159.5 62.5 t79.5 189.5l75 534q2 13 12 21.5t23 8.5h734zM831 165l93 660h-411l-57 -405q-23 -167 -111 -255h486z" glyph-name="uni0434" unicode="д" vert-adv-y="1980"/>
<glyph d="M1045 161q11 -14 11 -26q0 -14 -14 -26q-77 -69 -184.5 -102t-226.5 -33q-153 0 -262 56t-165.5 157.5t-56.5 235.5q0 158 76.5 293.5t208 215.5t290.5 80q105 0 178 -35t109 -92t36 -124q0 -284 -682 -466q32 -74 104.5 -114.5t187.5 -40.5q176 0 300 84q15 10 25 10 q14 0 23 -14zM529.5 794q-84.5 -49 -138.5 -140t-55 -211q192 59 305.5 105.5t166.5 91t53 93.5q0 46 -39.5 78t-116.5 32q-91 0 -175.5 -49z" glyph-name="uni0435" unicode="е" vert-adv-y="1980"/>
<glyph d="M1045 161q11 -14 11 -26q0 -14 -14 -26q-77 -69 -184.5 -102t-226.5 -33q-153 0 -262 56t-165.5 157.5t-56.5 235.5q0 158 76.5 293.5t208 215.5t290.5 80q105 0 178 -35t109 -92t36 -124q0 -284 -682 -466q32 -74 104.5 -114.5t187.5 -40.5q176 0 300 84q15 10 25 10 q14 0 23 -14zM529.5 794q-84.5 -49 -138.5 -140t-55 -211q192 59 305.5 105.5t166.5 91t53 93.5q0 46 -39.5 78t-116.5 32q-91 0 -175.5 -49zM470 1319.5q-32 31.5 -32 76.5q0 43 32 74.5t76 31.5t75.5 -31.5t31.5 -74.5q0 -45 -31.5 -76.5t-75.5 -31.5t-76 31.5z M864 1319.5q-32 31.5 -32 76.5q0 43 32 74.5t76 31.5t75.5 -31.5t31.5 -74.5q0 -45 -31.5 -76.5t-75.5 -31.5t-76 31.5z" glyph-name="uni0451" unicode="ё" vert-adv-y="1980"/>
<glyph d="M1192 990q22 0 22 -13q0 -9 -12 -23l-323 -390l218 -528q4 -8 4 -17q0 -19 -25 -19h-119q-26 0 -33 16l-163 406l-92 -110l-39 -282q-2 -14 -11.5 -22t-23.5 -8h-100q-13 0 -20 8t-5 22l40 284l-57 104l-271 -402q-11 -16 -39 -16h-129q-20 0 -20 13q0 10 9 23l368 530 l-213 388q-6 11 -6 19q0 17 26 17h131q24 0 32 -18l204 -407l55 395q2 14 12 22t23 8h100q13 0 20 -8.5t5 -21.5l-55 -393l313 405q14 18 38 18h136z" glyph-name="uni0436" unicode="ж" vert-adv-y="1980"/>
</font>
</defs>
</svg>
